<?xml version="1.0" encoding="UTF-8" standalone="no" ?>
<!DOCTYPE sesx>
<sesx version="1.9">

  <session appBuild="24.6.0.69" appVersion="24.6" audioChannelType="stereo" bitDepth="32" duration="177909003" sampleRate="44100">
    <tracks>
      <audioTrack automationLaneOpenState="false" id="10001" index="1" select="false" visible="true">
        <trackParameters trackHeight="229" trackHue="160" trackMinimized="false">
          <name>Greg</name>
        </trackParameters>
        <trackAudioParameters audioChannelType="stereo" automationMode="1" monitoring="false" recordArmed="false" solo="false" soloSafe="false">
          <trackOutput outputID="10007" type="trackID"/>
          <trackInput inputID="1"/>
          <component componentGuid="4cf9df06-a92f-4424-97dc-1e864ae6d243" componentID="Audition.Fader" id="trackFader" name="volume" powered="true">
            <parameter index="0" name="volume" parameterValue="1"/>
            <parameter index="1" name="static gain" parameterValue="1"/>
          </component>
          <component componentGuid="d9c58f90-6099-4bc3-94b8-529fe8e68f83" componentID="Audition.Mute" id="trackMute" name="Mute" powered="true">
            <parameter index="0" parameterValue="0"/>
            <parameter index="1" name="mute" parameterValue="0"/>
          </component>
          <component componentGuid="1fbfcefc-0ec0-4665-bbca-c55c8a8adf7d" componentID="Audition.StereoPanner" id="trackPan" name="StereoPanner" powered="true">
            <parameter index="0" name="Pan" parameterValue="0"/>
          </component>
          <component componentGuid="6c0c720f-78d3-4c9a-b9f7-289e90c0ed9c" componentID="Audition.EQ" id="trackEQ" name="EQ" powered="false">
            <parameter index="0" name="Low Shelf Frequency" parameterValue="0.0009078529546968638896942138671875"/>
            <parameter index="1" name="Low Shelf Gain" parameterValue="0.5"/>
            <parameter index="2" name="High Shelf Frequency" parameterValue="0.816159784793853759765625"/>
            <parameter index="3" name="High Shelf Gain" parameterValue="0.5"/>
            <parameter index="4" name="EQ Band 1 Center Frequency" parameterValue="0.0013617794029414653778076171875"/>
            <parameter index="5" name="EQ Band 1 Q" parameterValue="0.000199989997781813144683837890625"/>
            <parameter index="6" name="EQ Band 1 Gain" parameterValue="0.5"/>
            <parameter index="7" name="EQ Band 1 Enable" parameterValue="1"/>
            <parameter index="8" name="EQ Band 2 Center Frequency" parameterValue="0.008170676417648792266845703125"/>
            <parameter index="9" name="EQ Band 2 Q" parameterValue="0.000199989997781813144683837890625"/>
            <parameter index="10" name="EQ Band 2 Gain" parameterValue="0.5"/>
            <parameter index="11" name="EQ Band 2 Enable" parameterValue="1"/>
            <parameter index="12" name="EQ Band 3 Center Frequency" parameterValue="0.0354062654078006744384765625"/>
            <parameter index="13" name="EQ Band 3 Q" parameterValue="0.000199989997781813144683837890625"/>
            <parameter index="14" name="EQ Band 3 Gain" parameterValue="0.5"/>
            <parameter index="15" name="EQ Band 3 Enable" parameterValue="1"/>
            <parameter index="16" name="EQ Band 4 Center Frequency" parameterValue="0.144348621368408203125"/>
            <parameter index="17" name="EQ Band 4 Q" parameterValue="0.000199989997781813144683837890625"/>
            <parameter index="18" name="EQ Band 4 Gain" parameterValue="0.5"/>
            <parameter index="19" name="EQ Band 4 Enable" parameterValue="1"/>
            <parameter index="20" name="EQ Band 5 Center Frequency" parameterValue="0.580118000507354736328125"/>
            <parameter index="21" name="EQ Band 5 Q" parameterValue="0.000199989997781813144683837890625"/>
            <parameter index="22" name="EQ Band 5 Gain" parameterValue="0.5"/>
            <parameter index="23" name="EQ Band 5 Enable" parameterValue="1"/>
            <parameter index="24" name="Gain" parameterValue="0.666666686534881591796875"/>
            <parameter index="25" name="ConstantQ" parameterValue="1"/>
            <parameter index="26" name="Low Shelf Filter Order" parameterValue="0"/>
            <parameter index="27" name="High Shelf Filter Order" parameterValue="0"/>
            <parameter index="28" name="Ultra-Quiet Mode" parameterValue="0"/>
            <parameter index="29" name="Low Shelf Enable" parameterValue="1"/>
            <parameter index="30" name="High Shelf Enable" parameterValue="1"/>
            <parameter index="31" name="Original Sample Rate" parameterValue="0.22968749701976776123046875"/>
            <parameter index="32" name="EQ Band 1 Bandwidth" parameterValue="0.002499990165233612060546875"/>
            <parameter index="33" name="EQ Band 2 Bandwidth" parameterValue="0.0099999904632568359375"/>
            <parameter index="34" name="EQ Band 3 Bandwidth" parameterValue="0.0399999916553497314453125"/>
            <parameter index="35" name="EQ Band 4 Bandwidth" parameterValue="0.15999998152256011962890625"/>
            <parameter index="36" name="EQ Band 5 Bandwidth" parameterValue="0.63999998569488525390625"/>
            <parameter index="37" name="High-Pass Filter Enable" parameterValue="0"/>
            <parameter index="38" name="High-Pass Cutoff Frequency" parameterValue="0"/>
            <parameter index="39" name="High-Pass Slope" parameterValue="0.4000000059604644775390625"/>
            <parameter index="40" name="Low-Pass Filter Enable" parameterValue="0"/>
            <parameter index="41" name="Low-Pass Cutoff Frequency" parameterValue="0.906945049762725830078125"/>
            <parameter index="42" name="Low-Pass Slope" parameterValue="0.4000000059604644775390625"/>
            <parameter index="43" name="Bypass" parameterValue="0"/>
            <parameter index="44" name="LowGraphRange" parameterValue="1"/>
          </component>
        </trackAudioParameters>
        <effectsRack preFader="true">
          <component componentGuid="deb75b6e-6a65-4a82-a802-70cb97aab222" componentID="Audition.ComponentGroup" id="rackMix" powered="true">
            <parameter index="0" parameterValue="0"/>
            <parameter index="1" parameterValue="0"/>
          </component>
          <component componentGuid="f289239b-1520-4a07-b4c8-a9d0ef520ea7" id="rackInput" powered="true">
            <parameter index="0" parameterValue="1"/>
            <parameter index="1" parameterValue="0"/>
          </component>
          <component componentGuid="b98647c9-73e2-48f6-b881-93af5d99e99f" id="rackOutput" powered="true">
            <parameter index="0" parameterValue="1"/>
            <parameter index="1" parameterValue="0"/>
          </component>
          <slot powered="true" slotIndex="0">
            <component componentGuid="aac412ea-6355-4534-ad6e-29ab5b791f60" componentID="f76dad9c-77da-477a-9939-eefefc5c23bd" name="Dynamics Processing" presetName="(Default)">
              <busConfig><![CDATA[{"in":[{"layout":[100,101],"name":"","type":0},{"layout":[100,101],"name":"Side-Chain In","type":1}],"out":[{"layout":[100,101],"name":"","type":0}]}]]></busConfig>
              <channelMap direction="input">
                <channel index="0" sourceIndex="0"/>
                <channel index="1" sourceIndex="1"/>
              </channelMap>
              <parameter index="0" name="Level Detector - Attack Time" parameterValue="0.00200000009499490261077880859375"/>
              <parameter index="1" name="Level Detector - Release Time" parameterValue="0.0500000007450580596923828125"/>
              <parameter index="2" name="Gain Processor - Attack Time" parameterValue="0.048000000417232513427734375"/>
              <parameter index="3" name="Gain Processor - Release Time" parameterValue="0.0500000007450580596923828125"/>
              <parameter index="4" name="Lookahead Time" parameterValue="0.006000000052154064178466796875"/>
              <parameter index="5" name="Input Gain" parameterValue="0.5"/>
              <parameter index="6" name="Output Gain" parameterValue="0.5"/>
              <parameter index="7" name="Low Cutoff" parameterValue="0"/>
              <parameter index="8" name="High Cutoff" parameterValue="1"/>
              <parameter index="9" name="Lock Filter" parameterValue="0"/>
              <parameter index="10" name="Number of X/Y Pairs" parameterValue="0.857142865657806396484375"/>
              <parameter index="11" name="Link Channels" parameterValue="0"/>
              <parameter index="12" name="Peak/RMS" parameterValue="1"/>
              <parameter index="13" name="Envelope Only" parameterValue="0"/>
              <parameter index="14" name="Spline Curves" parameterValue="1"/>
              <parameter index="15" name="Noise Gating (if expanding more than 50:1)" parameterValue="0"/>
              <parameter index="16" name="Current Tab" parameterValue="1"/>
              <parameter index="17" name="Location1" parameterValue="0"/>
              <parameter index="18" name="Value1" parameterValue="0"/>
              <parameter index="19" name="Location2" parameterValue="0.19122512638568878173828125"/>
              <parameter index="20" name="Value2" parameterValue="0.076490022242069244384765625"/>
              <parameter index="21" name="Location3" parameterValue="0.3059601485729217529296875"/>
              <parameter index="22" name="Value3" parameterValue="0.2508873045444488525390625"/>
              <parameter index="23" name="Location4" parameterValue="0.39245021343231201171875"/>
              <parameter index="24" name="Value4" parameterValue="0.39245021343231201171875"/>
              <parameter index="25" name="Location5" parameterValue="0.659794032573699951171875"/>
              <parameter index="26" name="Value5" parameterValue="0.794669568538665771484375"/>
              <parameter index="27" name="Location6" parameterValue="1"/>
              <parameter index="28" name="Value6" parameterValue="0.98800003528594970703125"/>
              <parameter index="29" name="Location7" parameterValue="0.5"/>
              <parameter index="30" name="Value7" parameterValue="0.5"/>
              <parameter index="31" name="Make-Up Gain" parameterValue="0"/>
            </component>
          </slot>
        </effectsRack>
        <editParameter parameterIndex="0" slotIndex="4294967280"/>
        <audioClip clipAutoCrossfade="true" crossFadeHeadClipID="-1" crossFadeTailClipID="-1" endPoint="1454704" fileID="0" hue="-1" id="0" lockedInTime="false" looped="false" name="Greg" offline="false" select="false" sourceInPoint="9115234" sourceOutPoint="9178526" startPoint="1391412" zOrder="1">
          <properties properties="{&quot;BasicAdjustmentsProperty&quot;:{&quot;type&quot;:&quot;tree::any&quot;,&quot;value&quot;:{&quot;AdjustmentMode&quot;:{&quot;type&quot;:&quot;UTF8String&quot;,&quot;value&quot;:&quot;dialog&quot;},&quot;ClaritySection&quot;:{&quot;type&quot;:&quot;tree::any&quot;,&quot;value&quot;:{&quot;Dynamics&quot;:{&quot;type&quot;:&quot;tree::any&quot;,&quot;value&quot;:{&quot;2&quot;:{&quot;type&quot;:&quot;tree::any&quot;,&quot;value&quot;:{&quot;Value&quot;:{&quot;type&quot;:&quot;float&quot;,&quot;value&quot;:3}}}}},&quot;Enabled&quot;:{&quot;type&quot;:&quot;bool&quot;,&quot;value&quot;:true}}},&quot;ClipType&quot;:{&quot;type&quot;:&quot;std::int32_t&quot;,&quot;value&quot;:1},&quot;EnhanceSpeechSection&quot;:{&quot;type&quot;:&quot;tree::any&quot;,&quot;value&quot;:{&quot;Enabled&quot;:{&quot;type&quot;:&quot;bool&quot;,&quot;value&quot;:true}}},&quot;PresetGuid&quot;:{&quot;type&quot;:&quot;UTF8String&quot;,&quot;value&quot;:&quot;bb717b4a-c0b1-4def-9040-3fb8e83b8a91&quot;},&quot;RestorationSection&quot;:{&quot;type&quot;:&quot;tree::any&quot;,&quot;value&quot;:{&quot;Enabled&quot;:{&quot;type&quot;:&quot;bool&quot;,&quot;value&quot;:true},&quot;ReduceHum&quot;:{&quot;type&quot;:&quot;tree::any&quot;,&quot;value&quot;:{&quot;4&quot;:{&quot;type&quot;:&quot;tree::any&quot;,&quot;value&quot;:{&quot;Value&quot;:{&quot;type&quot;:&quot;float&quot;,&quot;value&quot;:7.143000602722168}}},&quot;9&quot;:{&quot;type&quot;:&quot;tree::any&quot;,&quot;value&quot;:{&quot;Value&quot;:{&quot;type&quot;:&quot;float&quot;,&quot;value&quot;:60}}}}}}},&quot;SoundEffectsSection&quot;:{&quot;type&quot;:&quot;tree::any&quot;,&quot;value&quot;:{&quot;Enabled&quot;:{&quot;type&quot;:&quot;bool&quot;,&quot;value&quot;:true},&quot;Reverb&quot;:{&quot;type&quot;:&quot;tree::any&quot;,&quot;value&quot;:{&quot;3&quot;:{&quot;type&quot;:&quot;tree::any&quot;,&quot;value&quot;:{&quot;Value&quot;:{&quot;type&quot;:&quot;float&quot;,&quot;value&quot;:2}}}}}}},&quot;VolumeSection&quot;:{&quot;type&quot;:&quot;tree::any&quot;,&quot;value&quot;:{&quot;Enabled&quot;:{&quot;type&quot;:&quot;bool&quot;,&quot;value&quot;:true}}}}},&quot;TempData&quot;:{&quot;type&quot;:&quot;tree::any&quot;,&quot;value&quot;:{}}}"/>
          <component componentGuid="20c7be97-3933-4f10-b5cd-b1fe9ae40908" componentID="Audition.Fader" id="clipGain" name="volume" powered="true">
            <parameter index="0" name="volume" parameterValue="1"/>
            <parameter index="1" name="static gain" parameterValue="1"/>
          </component>
          <component componentGuid="b78e002a-669b-446c-b330-4ad1306702af" componentID="Audition.Mute" id="clipMute" name="Mute" powered="true">
            <parameter index="0" parameterValue="0"/>
            <parameter index="1" name="mute" parameterValue="0"/>
          </component>
          <component componentGuid="f5716d80-7cfa-4a92-b776-93cbcc421fb7" componentID="Audition.StereoPanner" id="clipPan" name="StereoPanner" powered="true">
            <parameter index="0" name="Pan" parameterValue="0"/>
          </component>
          <fadeIn crossFadeLinkType="linkedAsymmetric" endPoint="11025" shape="19" startPoint="0" type="log"/>
          <fadeOut crossFadeLinkType="linkedAsymmetric" endPoint="63292" shape="19" startPoint="52267" type="log"/>
          <editParameter parameterIndex="0" slotIndex="4294967280"/>
          <editParameter parameterIndex="0" slotIndex="4294967281"/>
          <channelMap>
            <channel index="0" sourceIndex="0"/>
          </channelMap>
        </audioClip>
        <audioClip clipAutoCrossfade="true" crossFadeHeadClipID="-1" crossFadeTailClipID="-1" endPoint="1729181" fileID="0" hue="-1" id="1" lockedInTime="false" looped="false" name="Greg" offline="false" select="false" sourceInPoint="9397703" sourceOutPoint="9453003" startPoint="1673881" zOrder="2">
          <properties properties="{&quot;BasicAdjustmentsProperty&quot;:{&quot;type&quot;:&quot;tree::any&quot;,&quot;value&quot;:{&quot;AdjustmentMode&quot;:{&quot;type&quot;:&quot;UTF8String&quot;,&quot;value&quot;:&quot;dialog&quot;},&quot;ClaritySection&quot;:{&quot;type&quot;:&quot;tree::any&quot;,&quot;value&quot;:{&quot;Dynamics&quot;:{&quot;type&quot;:&quot;tree::any&quot;,&quot;value&quot;:{&quot;2&quot;:{&quot;type&quot;:&quot;tree::any&quot;,&quot;value&quot;:{&quot;Value&quot;:{&quot;type&quot;:&quot;float&quot;,&quot;value&quot;:3}}}}},&quot;Enabled&quot;:{&quot;type&quot;:&quot;bool&quot;,&quot;value&quot;:true}}},&quot;ClipType&quot;:{&quot;type&quot;:&quot;std::int32_t&quot;,&quot;value&quot;:1},&quot;EnhanceSpeechSection&quot;:{&quot;type&quot;:&quot;tree::any&quot;,&quot;value&quot;:{&quot;Enabled&quot;:{&quot;type&quot;:&quot;bool&quot;,&quot;value&quot;:true}}},&quot;PresetGuid&quot;:{&quot;type&quot;:&quot;UTF8String&quot;,&quot;value&quot;:&quot;bb717b4a-c0b1-4def-9040-3fb8e83b8a91&quot;},&quot;RestorationSection&quot;:{&quot;type&quot;:&quot;tree::any&quot;,&quot;value&quot;:{&quot;Enabled&quot;:{&quot;type&quot;:&quot;bool&quot;,&quot;value&quot;:true},&quot;ReduceHum&quot;:{&quot;type&quot;:&quot;tree::any&quot;,&quot;value&quot;:{&quot;4&quot;:{&quot;type&quot;:&quot;tree::any&quot;,&quot;value&quot;:{&quot;Value&quot;:{&quot;type&quot;:&quot;float&quot;,&quot;value&quot;:7.143000602722168}}},&quot;9&quot;:{&quot;type&quot;:&quot;tree::any&quot;,&quot;value&quot;:{&quot;Value&quot;:{&quot;type&quot;:&quot;float&quot;,&quot;value&quot;:60}}}}}}},&quot;SoundEffectsSection&quot;:{&quot;type&quot;:&quot;tree::any&quot;,&quot;value&quot;:{&quot;Enabled&quot;:{&quot;type&quot;:&quot;bool&quot;,&quot;value&quot;:true},&quot;Reverb&quot;:{&quot;type&quot;:&quot;tree::any&quot;,&quot;value&quot;:{&quot;3&quot;:{&quot;type&quot;:&quot;tree::any&quot;,&quot;value&quot;:{&quot;Value&quot;:{&quot;type&quot;:&quot;float&quot;,&quot;value&quot;:2}}}}}}},&quot;VolumeSection&quot;:{&quot;type&quot;:&quot;tree::any&quot;,&quot;value&quot;:{&quot;Enabled&quot;:{&quot;type&quot;:&quot;bool&quot;,&quot;value&quot;:true}}}}}}"/>
          <component componentGuid="5c895f62-6af7-48de-a5e9-10b0d39bfb78" componentID="Audition.Fader" id="clipGain" name="volume" powered="true">
            <parameter index="0" name="volume" parameterValue="1"/>
            <parameter index="1" name="static gain" parameterValue="1"/>
          </component>
          <component componentGuid="4203c389-e54f-402a-ba6c-cf00d835daf2" componentID="Audition.Mute" id="clipMute" name="Mute" powered="true">
            <parameter index="0" parameterValue="0"/>
            <parameter index="1" name="mute" parameterValue="0"/>
          </component>
          <component componentGuid="7b063aaa-4bed-41fd-9570-0b4c9dc62392" componentID="Audition.StereoPanner" id="clipPan" name="StereoPanner" powered="true">
            <parameter index="0" name="Pan" parameterValue="0"/>
          </component>
          <fadeIn crossFadeLinkType="linkedAsymmetric" endPoint="11025" shape="19" startPoint="0" type="log"/>
          <fadeOut crossFadeLinkType="linkedAsymmetric" endPoint="55300" shape="19" startPoint="44275" type="log"/>
          <editParameter parameterIndex="0" slotIndex="4294967280"/>
          <editParameter parameterIndex="0" slotIndex="4294967281"/>
          <channelMap>
            <channel index="0" sourceIndex="0"/>
          </channelMap>
        </audioClip>
        <audioClip clipAutoCrossfade="true" crossFadeHeadClipID="-1" crossFadeTailClipID="-1" endPoint="2139437" fileID="0" hue="-1" id="2" lockedInTime="false" looped="false" name="Greg" offline="false" select="false" sourceInPoint="9790865" sourceOutPoint="9863258" startPoint="2067044" zOrder="0">
          <properties properties="{&quot;BasicAdjustmentsProperty&quot;:{&quot;type&quot;:&quot;tree::any&quot;,&quot;value&quot;:{&quot;AdjustmentMode&quot;:{&quot;type&quot;:&quot;UTF8String&quot;,&quot;value&quot;:&quot;dialog&quot;},&quot;ClaritySection&quot;:{&quot;type&quot;:&quot;tree::any&quot;,&quot;value&quot;:{&quot;Dynamics&quot;:{&quot;type&quot;:&quot;tree::any&quot;,&quot;value&quot;:{&quot;2&quot;:{&quot;type&quot;:&quot;tree::any&quot;,&quot;value&quot;:{&quot;Value&quot;:{&quot;type&quot;:&quot;float&quot;,&quot;value&quot;:3}}}}},&quot;Enabled&quot;:{&quot;type&quot;:&quot;bool&quot;,&quot;value&quot;:true}}},&quot;ClipType&quot;:{&quot;type&quot;:&quot;std::int32_t&quot;,&quot;value&quot;:1},&quot;EnhanceSpeechSection&quot;:{&quot;type&quot;:&quot;tree::any&quot;,&quot;value&quot;:{&quot;Enabled&quot;:{&quot;type&quot;:&quot;bool&quot;,&quot;value&quot;:true}}},&quot;PresetGuid&quot;:{&quot;type&quot;:&quot;UTF8String&quot;,&quot;value&quot;:&quot;bb717b4a-c0b1-4def-9040-3fb8e83b8a91&quot;},&quot;RestorationSection&quot;:{&quot;type&quot;:&quot;tree::any&quot;,&quot;value&quot;:{&quot;Enabled&quot;:{&quot;type&quot;:&quot;bool&quot;,&quot;value&quot;:true},&quot;ReduceHum&quot;:{&quot;type&quot;:&quot;tree::any&quot;,&quot;value&quot;:{&quot;4&quot;:{&quot;type&quot;:&quot;tree::any&quot;,&quot;value&quot;:{&quot;Value&quot;:{&quot;type&quot;:&quot;float&quot;,&quot;value&quot;:7.143000602722168}}},&quot;9&quot;:{&quot;type&quot;:&quot;tree::any&quot;,&quot;value&quot;:{&quot;Value&quot;:{&quot;type&quot;:&quot;float&quot;,&quot;value&quot;:60}}}}}}},&quot;SoundEffectsSection&quot;:{&quot;type&quot;:&quot;tree::any&quot;,&quot;value&quot;:{&quot;Enabled&quot;:{&quot;type&quot;:&quot;bool&quot;,&quot;value&quot;:true},&quot;Reverb&quot;:{&quot;type&quot;:&quot;tree::any&quot;,&quot;value&quot;:{&quot;3&quot;:{&quot;type&quot;:&quot;tree::any&quot;,&quot;value&quot;:{&quot;Value&quot;:{&quot;type&quot;:&quot;float&quot;,&quot;value&quot;:2}}}}}}},&quot;VolumeSection&quot;:{&quot;type&quot;:&quot;tree::any&quot;,&quot;value&quot;:{&quot;Enabled&quot;:{&quot;type&quot;:&quot;bool&quot;,&quot;value&quot;:true}}}}}}"/>
          <component componentGuid="f8d8a6b0-40d8-4ecd-8759-b7e3606631fb" componentID="Audition.Fader" id="clipGain" name="volume" powered="true">
            <parameter index="0" name="volume" parameterValue="1"/>
            <parameter index="1" name="static gain" parameterValue="1"/>
          </component>
          <component componentGuid="327d3a40-303e-480a-9f43-d2c287b11f0c" componentID="Audition.Mute" id="clipMute" name="Mute" powered="true">
            <parameter index="0" parameterValue="0"/>
            <parameter index="1" name="mute" parameterValue="0"/>
          </component>
          <component componentGuid="8d797cc7-5e84-4685-a46c-01c6d008cb72" componentID="Audition.StereoPanner" id="clipPan" name="StereoPanner" powered="true">
            <parameter index="0" name="Pan" parameterValue="0"/>
          </component>
          <fadeIn crossFadeLinkType="linkedAsymmetric" endPoint="11025" shape="19" startPoint="0" type="log"/>
          <fadeOut crossFadeLinkType="linkedAsymmetric" endPoint="72393" shape="19" startPoint="61368" type="log"/>
          <editParameter parameterIndex="0" slotIndex="4294967280"/>
          <editParameter parameterIndex="0" slotIndex="4294967281"/>
          <channelMap>
            <channel index="0" sourceIndex="0"/>
          </channelMap>
        </audioClip>
        <audioClip clipAutoCrossfade="true" crossFadeHeadClipID="-1" crossFadeTailClipID="-1" endPoint="9822355" fileID="0" hue="-1" id="3" lockedInTime="false" looped="false" name="Greg" offline="false" select="false" sourceInPoint="9963285" sourceOutPoint="17546176" startPoint="2239464" zOrder="3">
          <properties properties="{&quot;BasicAdjustmentsProperty&quot;:{&quot;type&quot;:&quot;tree::any&quot;,&quot;value&quot;:{&quot;AdjustmentMode&quot;:{&quot;type&quot;:&quot;UTF8String&quot;,&quot;value&quot;:&quot;dialog&quot;},&quot;ClaritySection&quot;:{&quot;type&quot;:&quot;tree::any&quot;,&quot;value&quot;:{&quot;Dynamics&quot;:{&quot;type&quot;:&quot;tree::any&quot;,&quot;value&quot;:{&quot;2&quot;:{&quot;type&quot;:&quot;tree::any&quot;,&quot;value&quot;:{&quot;Value&quot;:{&quot;type&quot;:&quot;float&quot;,&quot;value&quot;:3}}}}},&quot;Enabled&quot;:{&quot;type&quot;:&quot;bool&quot;,&quot;value&quot;:true}}},&quot;ClipType&quot;:{&quot;type&quot;:&quot;std::int32_t&quot;,&quot;value&quot;:1},&quot;EnhanceSpeechSection&quot;:{&quot;type&quot;:&quot;tree::any&quot;,&quot;value&quot;:{&quot;Enabled&quot;:{&quot;type&quot;:&quot;bool&quot;,&quot;value&quot;:true}}},&quot;PresetGuid&quot;:{&quot;type&quot;:&quot;UTF8String&quot;,&quot;value&quot;:&quot;bb717b4a-c0b1-4def-9040-3fb8e83b8a91&quot;},&quot;RestorationSection&quot;:{&quot;type&quot;:&quot;tree::any&quot;,&quot;value&quot;:{&quot;Enabled&quot;:{&quot;type&quot;:&quot;bool&quot;,&quot;value&quot;:true},&quot;ReduceHum&quot;:{&quot;type&quot;:&quot;tree::any&quot;,&quot;value&quot;:{&quot;4&quot;:{&quot;type&quot;:&quot;tree::any&quot;,&quot;value&quot;:{&quot;Value&quot;:{&quot;type&quot;:&quot;float&quot;,&quot;value&quot;:7.143000602722168}}},&quot;9&quot;:{&quot;type&quot;:&quot;tree::any&quot;,&quot;value&quot;:{&quot;Value&quot;:{&quot;type&quot;:&quot;float&quot;,&quot;value&quot;:60}}}}}}},&quot;SoundEffectsSection&quot;:{&quot;type&quot;:&quot;tree::any&quot;,&quot;value&quot;:{&quot;Enabled&quot;:{&quot;type&quot;:&quot;bool&quot;,&quot;value&quot;:true},&quot;Reverb&quot;:{&quot;type&quot;:&quot;tree::any&quot;,&quot;value&quot;:{&quot;3&quot;:{&quot;type&quot;:&quot;tree::any&quot;,&quot;value&quot;:{&quot;Value&quot;:{&quot;type&quot;:&quot;float&quot;,&quot;value&quot;:2}}}}}}},&quot;VolumeSection&quot;:{&quot;type&quot;:&quot;tree::any&quot;,&quot;value&quot;:{&quot;Enabled&quot;:{&quot;type&quot;:&quot;bool&quot;,&quot;value&quot;:true}}}}}}"/>
          <component componentGuid="c9ff0dad-80d4-470b-975c-c706eacbca6d" componentID="Audition.Fader" id="clipGain" name="volume" powered="true">
            <parameter index="0" name="volume" parameterValue="1"/>
            <parameter index="1" name="static gain" parameterValue="1"/>
          </component>
          <component componentGuid="6188cd73-ab23-47ae-9f84-de6f90567c4b" componentID="Audition.Mute" id="clipMute" name="Mute" powered="true">
            <parameter index="0" parameterValue="0"/>
            <parameter index="1" name="mute" parameterValue="0"/>
          </component>
          <component componentGuid="9c1bbb75-e1d8-4c27-8a54-165f256934c1" componentID="Audition.StereoPanner" id="clipPan" name="StereoPanner" powered="true">
            <parameter index="0" name="Pan" parameterValue="0"/>
          </component>
          <fadeIn crossFadeLinkType="linkedAsymmetric" endPoint="11025" shape="19" startPoint="0" type="log"/>
          <fadeOut crossFadeLinkType="linkedAsymmetric" endPoint="7582891" shape="19" startPoint="7582891" type="log"/>
          <editParameter parameterIndex="0" slotIndex="4294967280"/>
          <editParameter parameterIndex="0" slotIndex="4294967281"/>
          <channelMap>
            <channel index="0" sourceIndex="0"/>
          </channelMap>
        </audioClip>
        <audioClip clipAutoCrossfade="true" crossFadeHeadClipID="-1" crossFadeTailClipID="5" endPoint="10485766" fileID="0" hue="-1" id="4" lockedInTime="false" looped="false" name="Greg" offline="false" select="false" sourceInPoint="17745200" sourceOutPoint="18243463" startPoint="9987503" zOrder="4">
          <properties properties="{&quot;BasicAdjustmentsProperty&quot;:{&quot;type&quot;:&quot;tree::any&quot;,&quot;value&quot;:{&quot;AdjustmentMode&quot;:{&quot;type&quot;:&quot;UTF8String&quot;,&quot;value&quot;:&quot;dialog&quot;},&quot;ClaritySection&quot;:{&quot;type&quot;:&quot;tree::any&quot;,&quot;value&quot;:{&quot;Dynamics&quot;:{&quot;type&quot;:&quot;tree::any&quot;,&quot;value&quot;:{&quot;2&quot;:{&quot;type&quot;:&quot;tree::any&quot;,&quot;value&quot;:{&quot;Value&quot;:{&quot;type&quot;:&quot;float&quot;,&quot;value&quot;:3}}}}},&quot;Enabled&quot;:{&quot;type&quot;:&quot;bool&quot;,&quot;value&quot;:true}}},&quot;ClipType&quot;:{&quot;type&quot;:&quot;std::int32_t&quot;,&quot;value&quot;:1},&quot;EnhanceSpeechSection&quot;:{&quot;type&quot;:&quot;tree::any&quot;,&quot;value&quot;:{&quot;Enabled&quot;:{&quot;type&quot;:&quot;bool&quot;,&quot;value&quot;:true}}},&quot;PresetGuid&quot;:{&quot;type&quot;:&quot;UTF8String&quot;,&quot;value&quot;:&quot;bb717b4a-c0b1-4def-9040-3fb8e83b8a91&quot;},&quot;RestorationSection&quot;:{&quot;type&quot;:&quot;tree::any&quot;,&quot;value&quot;:{&quot;Enabled&quot;:{&quot;type&quot;:&quot;bool&quot;,&quot;value&quot;:true},&quot;ReduceHum&quot;:{&quot;type&quot;:&quot;tree::any&quot;,&quot;value&quot;:{&quot;4&quot;:{&quot;type&quot;:&quot;tree::any&quot;,&quot;value&quot;:{&quot;Value&quot;:{&quot;type&quot;:&quot;float&quot;,&quot;value&quot;:7.143000602722168}}},&quot;9&quot;:{&quot;type&quot;:&quot;tree::any&quot;,&quot;value&quot;:{&quot;Value&quot;:{&quot;type&quot;:&quot;float&quot;,&quot;value&quot;:60}}}}}}},&quot;SoundEffectsSection&quot;:{&quot;type&quot;:&quot;tree::any&quot;,&quot;value&quot;:{&quot;Enabled&quot;:{&quot;type&quot;:&quot;bool&quot;,&quot;value&quot;:true},&quot;Reverb&quot;:{&quot;type&quot;:&quot;tree::any&quot;,&quot;value&quot;:{&quot;3&quot;:{&quot;type&quot;:&quot;tree::any&quot;,&quot;value&quot;:{&quot;Value&quot;:{&quot;type&quot;:&quot;float&quot;,&quot;value&quot;:2}}}}}}},&quot;VolumeSection&quot;:{&quot;type&quot;:&quot;tree::any&quot;,&quot;value&quot;:{&quot;Enabled&quot;:{&quot;type&quot;:&quot;bool&quot;,&quot;value&quot;:true}}}}}}"/>
          <component componentGuid="641867ea-93cb-40b0-9e32-83e8501bd677" componentID="Audition.Fader" id="clipGain" name="volume" powered="true">
            <parameter index="0" name="volume" parameterValue="1"/>
            <parameter index="1" name="static gain" parameterValue="1"/>
          </component>
          <component componentGuid="0a854b63-d174-4fb8-a727-99392058325b" componentID="Audition.Mute" id="clipMute" name="Mute" powered="true">
            <parameter index="0" parameterValue="0"/>
            <parameter index="1" name="mute" parameterValue="0"/>
          </component>
          <component componentGuid="b2cc050d-9820-477a-a40e-69967f747eed" componentID="Audition.StereoPanner" id="clipPan" name="StereoPanner" powered="true">
            <parameter index="0" name="Pan" parameterValue="0"/>
          </component>
          <fadeIn crossFadeLinkType="linkedAsymmetric" endPoint="0" shape="19" startPoint="0" type="log"/>
          <fadeOut crossFadeLinkType="linkedAsymmetric" endPoint="498263" shape="19" startPoint="473915" type="log"/>
          <editParameter parameterIndex="0" slotIndex="4294967280"/>
          <editParameter parameterIndex="0" slotIndex="4294967281"/>
          <channelMap>
            <channel index="0" sourceIndex="0"/>
          </channelMap>
        </audioClip>
        <audioClip clipAutoCrossfade="true" crossFadeHeadClipID="4" crossFadeTailClipID="-1" endPoint="10755365" fileID="0" hue="-1" id="5" lockedInTime="false" looped="false" name="Greg" offline="false" select="false" sourceInPoint="18243463" sourceOutPoint="18537410" startPoint="10461418" zOrder="5">
          <properties properties="{&quot;BasicAdjustmentsProperty&quot;:{&quot;type&quot;:&quot;tree::any&quot;,&quot;value&quot;:{&quot;AdjustmentMode&quot;:{&quot;type&quot;:&quot;UTF8String&quot;,&quot;value&quot;:&quot;dialog&quot;},&quot;ClaritySection&quot;:{&quot;type&quot;:&quot;tree::any&quot;,&quot;value&quot;:{&quot;Dynamics&quot;:{&quot;type&quot;:&quot;tree::any&quot;,&quot;value&quot;:{&quot;2&quot;:{&quot;type&quot;:&quot;tree::any&quot;,&quot;value&quot;:{&quot;Value&quot;:{&quot;type&quot;:&quot;float&quot;,&quot;value&quot;:3}}}}},&quot;Enabled&quot;:{&quot;type&quot;:&quot;bool&quot;,&quot;value&quot;:true}}},&quot;ClipType&quot;:{&quot;type&quot;:&quot;std::int32_t&quot;,&quot;value&quot;:1},&quot;EnhanceSpeechSection&quot;:{&quot;type&quot;:&quot;tree::any&quot;,&quot;value&quot;:{&quot;Enabled&quot;:{&quot;type&quot;:&quot;bool&quot;,&quot;value&quot;:true}}},&quot;PresetGuid&quot;:{&quot;type&quot;:&quot;UTF8String&quot;,&quot;value&quot;:&quot;bb717b4a-c0b1-4def-9040-3fb8e83b8a91&quot;},&quot;RestorationSection&quot;:{&quot;type&quot;:&quot;tree::any&quot;,&quot;value&quot;:{&quot;Enabled&quot;:{&quot;type&quot;:&quot;bool&quot;,&quot;value&quot;:true},&quot;ReduceHum&quot;:{&quot;type&quot;:&quot;tree::any&quot;,&quot;value&quot;:{&quot;4&quot;:{&quot;type&quot;:&quot;tree::any&quot;,&quot;value&quot;:{&quot;Value&quot;:{&quot;type&quot;:&quot;float&quot;,&quot;value&quot;:7.143000602722168}}},&quot;9&quot;:{&quot;type&quot;:&quot;tree::any&quot;,&quot;value&quot;:{&quot;Value&quot;:{&quot;type&quot;:&quot;float&quot;,&quot;value&quot;:60}}}}}}},&quot;SoundEffectsSection&quot;:{&quot;type&quot;:&quot;tree::any&quot;,&quot;value&quot;:{&quot;Enabled&quot;:{&quot;type&quot;:&quot;bool&quot;,&quot;value&quot;:true},&quot;Reverb&quot;:{&quot;type&quot;:&quot;tree::any&quot;,&quot;value&quot;:{&quot;3&quot;:{&quot;type&quot;:&quot;tree::any&quot;,&quot;value&quot;:{&quot;Value&quot;:{&quot;type&quot;:&quot;float&quot;,&quot;value&quot;:2}}}}}}},&quot;VolumeSection&quot;:{&quot;type&quot;:&quot;tree::any&quot;,&quot;value&quot;:{&quot;Enabled&quot;:{&quot;type&quot;:&quot;bool&quot;,&quot;value&quot;:true}}}}}}"/>
          <component componentGuid="9d79ebf3-b020-44cd-93da-5aed997e604c" componentID="Audition.Fader" id="clipGain" name="volume" powered="true">
            <parameter index="0" name="volume" parameterValue="1"/>
            <parameter index="1" name="static gain" parameterValue="1"/>
          </component>
          <component componentGuid="cf4eff8f-4f75-44d8-a602-d29237840865" componentID="Audition.Mute" id="clipMute" name="Mute" powered="true">
            <parameter index="0" parameterValue="0"/>
            <parameter index="1" name="mute" parameterValue="0"/>
          </component>
          <component componentGuid="b6141ccb-4e8b-454f-9ccb-9a667dccb1af" componentID="Audition.StereoPanner" id="clipPan" name="StereoPanner" powered="true">
            <parameter index="0" name="Pan" parameterValue="0"/>
          </component>
          <fadeIn crossFadeLinkType="linkedAsymmetric" endPoint="24348" shape="18" startPoint="0" type="log"/>
          <fadeOut crossFadeLinkType="linkedAsymmetric" endPoint="293947" shape="19" startPoint="293947" type="log"/>
          <editParameter parameterIndex="0" slotIndex="4294967280"/>
          <editParameter parameterIndex="0" slotIndex="4294967281"/>
          <channelMap>
            <channel index="0" sourceIndex="0"/>
          </channelMap>
        </audioClip>
        <audioClip clipAutoCrossfade="true" crossFadeHeadClipID="-1" crossFadeTailClipID="-1" endPoint="11961854" fileID="0" hue="-1" id="6" lockedInTime="false" looped="false" name="Greg" offline="false" select="false" sourceInPoint="18613631" sourceOutPoint="19743899" startPoint="10831586" zOrder="6">
          <properties properties="{&quot;BasicAdjustmentsProperty&quot;:{&quot;type&quot;:&quot;tree::any&quot;,&quot;value&quot;:{&quot;AdjustmentMode&quot;:{&quot;type&quot;:&quot;UTF8String&quot;,&quot;value&quot;:&quot;dialog&quot;},&quot;ClaritySection&quot;:{&quot;type&quot;:&quot;tree::any&quot;,&quot;value&quot;:{&quot;Dynamics&quot;:{&quot;type&quot;:&quot;tree::any&quot;,&quot;value&quot;:{&quot;2&quot;:{&quot;type&quot;:&quot;tree::any&quot;,&quot;value&quot;:{&quot;Value&quot;:{&quot;type&quot;:&quot;float&quot;,&quot;value&quot;:3}}}}},&quot;Enabled&quot;:{&quot;type&quot;:&quot;bool&quot;,&quot;value&quot;:true}}},&quot;ClipType&quot;:{&quot;type&quot;:&quot;std::int32_t&quot;,&quot;value&quot;:1},&quot;EnhanceSpeechSection&quot;:{&quot;type&quot;:&quot;tree::any&quot;,&quot;value&quot;:{&quot;Enabled&quot;:{&quot;type&quot;:&quot;bool&quot;,&quot;value&quot;:true}}},&quot;PresetGuid&quot;:{&quot;type&quot;:&quot;UTF8String&quot;,&quot;value&quot;:&quot;bb717b4a-c0b1-4def-9040-3fb8e83b8a91&quot;},&quot;RestorationSection&quot;:{&quot;type&quot;:&quot;tree::any&quot;,&quot;value&quot;:{&quot;Enabled&quot;:{&quot;type&quot;:&quot;bool&quot;,&quot;value&quot;:true},&quot;ReduceHum&quot;:{&quot;type&quot;:&quot;tree::any&quot;,&quot;value&quot;:{&quot;4&quot;:{&quot;type&quot;:&quot;tree::any&quot;,&quot;value&quot;:{&quot;Value&quot;:{&quot;type&quot;:&quot;float&quot;,&quot;value&quot;:7.143000602722168}}},&quot;9&quot;:{&quot;type&quot;:&quot;tree::any&quot;,&quot;value&quot;:{&quot;Value&quot;:{&quot;type&quot;:&quot;float&quot;,&quot;value&quot;:60}}}}}}},&quot;SoundEffectsSection&quot;:{&quot;type&quot;:&quot;tree::any&quot;,&quot;value&quot;:{&quot;Enabled&quot;:{&quot;type&quot;:&quot;bool&quot;,&quot;value&quot;:true},&quot;Reverb&quot;:{&quot;type&quot;:&quot;tree::any&quot;,&quot;value&quot;:{&quot;3&quot;:{&quot;type&quot;:&quot;tree::any&quot;,&quot;value&quot;:{&quot;Value&quot;:{&quot;type&quot;:&quot;float&quot;,&quot;value&quot;:2}}}}}}},&quot;VolumeSection&quot;:{&quot;type&quot;:&quot;tree::any&quot;,&quot;value&quot;:{&quot;Enabled&quot;:{&quot;type&quot;:&quot;bool&quot;,&quot;value&quot;:true}}}}}}"/>
          <component componentGuid="4e5c91d5-29d6-4893-b8d2-be39b12047b8" componentID="Audition.Fader" id="clipGain" name="volume" powered="true">
            <parameter index="0" name="volume" parameterValue="1"/>
            <parameter index="1" name="static gain" parameterValue="1"/>
          </component>
          <component componentGuid="042590d4-2f46-45b0-bd79-b057cb75b7cc" componentID="Audition.Mute" id="clipMute" name="Mute" powered="true">
            <parameter index="0" parameterValue="0"/>
            <parameter index="1" name="mute" parameterValue="0"/>
          </component>
          <component componentGuid="2bdc19ab-a8ac-4d52-9932-fce9355ae554" componentID="Audition.StereoPanner" id="clipPan" name="StereoPanner" powered="true">
            <parameter index="0" name="Pan" parameterValue="0"/>
          </component>
          <fadeIn crossFadeLinkType="linkedAsymmetric" endPoint="0" shape="19" startPoint="0" type="log"/>
          <fadeOut crossFadeLinkType="linkedAsymmetric" endPoint="1130268" shape="19" startPoint="1130268" type="log"/>
          <editParameter parameterIndex="0" slotIndex="4294967280"/>
          <editParameter parameterIndex="0" slotIndex="4294967281"/>
          <channelMap>
            <channel index="0" sourceIndex="0"/>
          </channelMap>
        </audioClip>
        <audioClip clipAutoCrossfade="true" crossFadeHeadClipID="-1" crossFadeTailClipID="-1" endPoint="13025428" fileID="0" hue="-1" id="7" lockedInTime="false" looped="false" name="Greg" offline="false" select="false" sourceInPoint="19792597" sourceOutPoint="20856171" startPoint="11961854" zOrder="7">
          <properties properties="{&quot;BasicAdjustmentsProperty&quot;:{&quot;type&quot;:&quot;tree::any&quot;,&quot;value&quot;:{&quot;AdjustmentMode&quot;:{&quot;type&quot;:&quot;UTF8String&quot;,&quot;value&quot;:&quot;dialog&quot;},&quot;ClaritySection&quot;:{&quot;type&quot;:&quot;tree::any&quot;,&quot;value&quot;:{&quot;Dynamics&quot;:{&quot;type&quot;:&quot;tree::any&quot;,&quot;value&quot;:{&quot;2&quot;:{&quot;type&quot;:&quot;tree::any&quot;,&quot;value&quot;:{&quot;Value&quot;:{&quot;type&quot;:&quot;float&quot;,&quot;value&quot;:3}}}}},&quot;Enabled&quot;:{&quot;type&quot;:&quot;bool&quot;,&quot;value&quot;:true}}},&quot;ClipType&quot;:{&quot;type&quot;:&quot;std::int32_t&quot;,&quot;value&quot;:1},&quot;EnhanceSpeechSection&quot;:{&quot;type&quot;:&quot;tree::any&quot;,&quot;value&quot;:{&quot;Enabled&quot;:{&quot;type&quot;:&quot;bool&quot;,&quot;value&quot;:true}}},&quot;PresetGuid&quot;:{&quot;type&quot;:&quot;UTF8String&quot;,&quot;value&quot;:&quot;bb717b4a-c0b1-4def-9040-3fb8e83b8a91&quot;},&quot;RestorationSection&quot;:{&quot;type&quot;:&quot;tree::any&quot;,&quot;value&quot;:{&quot;Enabled&quot;:{&quot;type&quot;:&quot;bool&quot;,&quot;value&quot;:true},&quot;ReduceHum&quot;:{&quot;type&quot;:&quot;tree::any&quot;,&quot;value&quot;:{&quot;4&quot;:{&quot;type&quot;:&quot;tree::any&quot;,&quot;value&quot;:{&quot;Value&quot;:{&quot;type&quot;:&quot;float&quot;,&quot;value&quot;:7.143000602722168}}},&quot;9&quot;:{&quot;type&quot;:&quot;tree::any&quot;,&quot;value&quot;:{&quot;Value&quot;:{&quot;type&quot;:&quot;float&quot;,&quot;value&quot;:60}}}}}}},&quot;SoundEffectsSection&quot;:{&quot;type&quot;:&quot;tree::any&quot;,&quot;value&quot;:{&quot;Enabled&quot;:{&quot;type&quot;:&quot;bool&quot;,&quot;value&quot;:true},&quot;Reverb&quot;:{&quot;type&quot;:&quot;tree::any&quot;,&quot;value&quot;:{&quot;3&quot;:{&quot;type&quot;:&quot;tree::any&quot;,&quot;value&quot;:{&quot;Value&quot;:{&quot;type&quot;:&quot;float&quot;,&quot;value&quot;:2}}}}}}},&quot;VolumeSection&quot;:{&quot;type&quot;:&quot;tree::any&quot;,&quot;value&quot;:{&quot;Enabled&quot;:{&quot;type&quot;:&quot;bool&quot;,&quot;value&quot;:true}}}}}}"/>
          <component componentGuid="1518cb21-9c7d-4bb7-815c-5bbd6dc9266c" componentID="Audition.Fader" id="clipGain" name="volume" powered="true">
            <parameter index="0" name="volume" parameterValue="1"/>
            <parameter index="1" name="static gain" parameterValue="1"/>
          </component>
          <component componentGuid="2745b59c-fbfc-4962-83ec-a98b9d7b4b3f" componentID="Audition.Mute" id="clipMute" name="Mute" powered="true">
            <parameter index="0" parameterValue="0"/>
            <parameter index="1" name="mute" parameterValue="0"/>
          </component>
          <component componentGuid="b70ab55e-84c2-4529-a8f5-4ded6df93653" componentID="Audition.StereoPanner" id="clipPan" name="StereoPanner" powered="true">
            <parameter index="0" name="Pan" parameterValue="0"/>
          </component>
          <fadeIn crossFadeLinkType="linkedAsymmetric" endPoint="0" shape="19" startPoint="0" type="log"/>
          <fadeOut crossFadeLinkType="linkedAsymmetric" endPoint="1063574" shape="19" startPoint="1063574" type="log"/>
          <editParameter parameterIndex="0" slotIndex="4294967280"/>
          <editParameter parameterIndex="0" slotIndex="4294967281"/>
          <channelMap>
            <channel index="0" sourceIndex="0"/>
          </channelMap>
        </audioClip>
        <audioClip clipAutoCrossfade="true" crossFadeHeadClipID="-1" crossFadeTailClipID="-1" endPoint="26570770" fileID="0" hue="-1" id="8" lockedInTime="false" looped="false" name="Greg" offline="false" select="false" sourceInPoint="23377294" sourceOutPoint="36922636" startPoint="13025428" zOrder="9">
          <properties properties="{&quot;BasicAdjustmentsProperty&quot;:{&quot;type&quot;:&quot;tree::any&quot;,&quot;value&quot;:{&quot;AdjustmentMode&quot;:{&quot;type&quot;:&quot;UTF8String&quot;,&quot;value&quot;:&quot;dialog&quot;},&quot;ClaritySection&quot;:{&quot;type&quot;:&quot;tree::any&quot;,&quot;value&quot;:{&quot;Dynamics&quot;:{&quot;type&quot;:&quot;tree::any&quot;,&quot;value&quot;:{&quot;2&quot;:{&quot;type&quot;:&quot;tree::any&quot;,&quot;value&quot;:{&quot;Value&quot;:{&quot;type&quot;:&quot;float&quot;,&quot;value&quot;:3}}}}},&quot;Enabled&quot;:{&quot;type&quot;:&quot;bool&quot;,&quot;value&quot;:true}}},&quot;ClipType&quot;:{&quot;type&quot;:&quot;std::int32_t&quot;,&quot;value&quot;:1},&quot;EnhanceSpeechSection&quot;:{&quot;type&quot;:&quot;tree::any&quot;,&quot;value&quot;:{&quot;Enabled&quot;:{&quot;type&quot;:&quot;bool&quot;,&quot;value&quot;:true}}},&quot;PresetGuid&quot;:{&quot;type&quot;:&quot;UTF8String&quot;,&quot;value&quot;:&quot;bb717b4a-c0b1-4def-9040-3fb8e83b8a91&quot;},&quot;RestorationSection&quot;:{&quot;type&quot;:&quot;tree::any&quot;,&quot;value&quot;:{&quot;Enabled&quot;:{&quot;type&quot;:&quot;bool&quot;,&quot;value&quot;:true},&quot;ReduceHum&quot;:{&quot;type&quot;:&quot;tree::any&quot;,&quot;value&quot;:{&quot;4&quot;:{&quot;type&quot;:&quot;tree::any&quot;,&quot;value&quot;:{&quot;Value&quot;:{&quot;type&quot;:&quot;float&quot;,&quot;value&quot;:7.143000602722168}}},&quot;9&quot;:{&quot;type&quot;:&quot;tree::any&quot;,&quot;value&quot;:{&quot;Value&quot;:{&quot;type&quot;:&quot;float&quot;,&quot;value&quot;:60}}}}}}},&quot;SoundEffectsSection&quot;:{&quot;type&quot;:&quot;tree::any&quot;,&quot;value&quot;:{&quot;Enabled&quot;:{&quot;type&quot;:&quot;bool&quot;,&quot;value&quot;:true},&quot;Reverb&quot;:{&quot;type&quot;:&quot;tree::any&quot;,&quot;value&quot;:{&quot;3&quot;:{&quot;type&quot;:&quot;tree::any&quot;,&quot;value&quot;:{&quot;Value&quot;:{&quot;type&quot;:&quot;float&quot;,&quot;value&quot;:2}}}}}}},&quot;VolumeSection&quot;:{&quot;type&quot;:&quot;tree::any&quot;,&quot;value&quot;:{&quot;Enabled&quot;:{&quot;type&quot;:&quot;bool&quot;,&quot;value&quot;:true}}}}}}"/>
          <component componentGuid="2caf922c-4503-4d22-8272-fcd50c0dd7af" componentID="Audition.Fader" id="clipGain" name="volume" powered="true">
            <parameter index="0" name="volume" parameterValue="1"/>
            <parameter index="1" name="static gain" parameterValue="1"/>
          </component>
          <component componentGuid="59555eda-e406-45bf-98c8-efb3e2b4cb54" componentID="Audition.Mute" id="clipMute" name="Mute" powered="true">
            <parameter index="0" parameterValue="0"/>
            <parameter index="1" name="mute" parameterValue="0"/>
          </component>
          <component componentGuid="353c53ec-5498-4c8a-8352-8b12832ee900" componentID="Audition.StereoPanner" id="clipPan" name="StereoPanner" powered="true">
            <parameter index="0" name="Pan" parameterValue="0"/>
          </component>
          <fadeIn crossFadeLinkType="linkedAsymmetric" endPoint="0" shape="19" startPoint="0" type="log"/>
          <fadeOut crossFadeLinkType="linkedAsymmetric" endPoint="13545342" shape="19" startPoint="13534317" type="log"/>
          <editParameter parameterIndex="0" slotIndex="4294967280"/>
          <editParameter parameterIndex="0" slotIndex="4294967281"/>
          <channelMap>
            <channel index="0" sourceIndex="0"/>
          </channelMap>
        </audioClip>
        <audioClip clipAutoCrossfade="true" crossFadeHeadClipID="-1" crossFadeTailClipID="-1" endPoint="44892680" fileID="0" hue="-1" id="9" lockedInTime="false" looped="false" name="Greg" offline="false" select="false" sourceInPoint="37538207" sourceOutPoint="55245778" startPoint="27185109" zOrder="8">
          <properties properties="{&quot;BasicAdjustmentsProperty&quot;:{&quot;type&quot;:&quot;tree::any&quot;,&quot;value&quot;:{&quot;AdjustmentMode&quot;:{&quot;type&quot;:&quot;UTF8String&quot;,&quot;value&quot;:&quot;dialog&quot;},&quot;ClaritySection&quot;:{&quot;type&quot;:&quot;tree::any&quot;,&quot;value&quot;:{&quot;Dynamics&quot;:{&quot;type&quot;:&quot;tree::any&quot;,&quot;value&quot;:{&quot;2&quot;:{&quot;type&quot;:&quot;tree::any&quot;,&quot;value&quot;:{&quot;Value&quot;:{&quot;type&quot;:&quot;float&quot;,&quot;value&quot;:3}}}}},&quot;Enabled&quot;:{&quot;type&quot;:&quot;bool&quot;,&quot;value&quot;:true}}},&quot;ClipType&quot;:{&quot;type&quot;:&quot;std::int32_t&quot;,&quot;value&quot;:1},&quot;EnhanceSpeechSection&quot;:{&quot;type&quot;:&quot;tree::any&quot;,&quot;value&quot;:{&quot;Enabled&quot;:{&quot;type&quot;:&quot;bool&quot;,&quot;value&quot;:true}}},&quot;PresetGuid&quot;:{&quot;type&quot;:&quot;UTF8String&quot;,&quot;value&quot;:&quot;bb717b4a-c0b1-4def-9040-3fb8e83b8a91&quot;},&quot;RestorationSection&quot;:{&quot;type&quot;:&quot;tree::any&quot;,&quot;value&quot;:{&quot;Enabled&quot;:{&quot;type&quot;:&quot;bool&quot;,&quot;value&quot;:true},&quot;ReduceHum&quot;:{&quot;type&quot;:&quot;tree::any&quot;,&quot;value&quot;:{&quot;4&quot;:{&quot;type&quot;:&quot;tree::any&quot;,&quot;value&quot;:{&quot;Value&quot;:{&quot;type&quot;:&quot;float&quot;,&quot;value&quot;:7.143000602722168}}},&quot;9&quot;:{&quot;type&quot;:&quot;tree::any&quot;,&quot;value&quot;:{&quot;Value&quot;:{&quot;type&quot;:&quot;float&quot;,&quot;value&quot;:60}}}}}}},&quot;SoundEffectsSection&quot;:{&quot;type&quot;:&quot;tree::any&quot;,&quot;value&quot;:{&quot;Enabled&quot;:{&quot;type&quot;:&quot;bool&quot;,&quot;value&quot;:true},&quot;Reverb&quot;:{&quot;type&quot;:&quot;tree::any&quot;,&quot;value&quot;:{&quot;3&quot;:{&quot;type&quot;:&quot;tree::any&quot;,&quot;value&quot;:{&quot;Value&quot;:{&quot;type&quot;:&quot;float&quot;,&quot;value&quot;:2}}}}}}},&quot;VolumeSection&quot;:{&quot;type&quot;:&quot;tree::any&quot;,&quot;value&quot;:{&quot;Enabled&quot;:{&quot;type&quot;:&quot;bool&quot;,&quot;value&quot;:true}}}}}}"/>
          <component componentGuid="b11a7d7e-af15-45f5-8a9b-7c7ce02e7182" componentID="Audition.Fader" id="clipGain" name="volume" powered="true">
            <parameter index="0" name="volume" parameterValue="1"/>
            <parameter index="1" name="static gain" parameterValue="1"/>
          </component>
          <component componentGuid="514ee3da-5acc-4b4b-9179-8e5bc6ac355f" componentID="Audition.Mute" id="clipMute" name="Mute" powered="true">
            <parameter index="0" parameterValue="0"/>
            <parameter index="1" name="mute" parameterValue="0"/>
          </component>
          <component componentGuid="e6a8e7fa-8dac-475b-866f-66755be652b0" componentID="Audition.StereoPanner" id="clipPan" name="StereoPanner" powered="true">
            <parameter index="0" name="Pan" parameterValue="0"/>
          </component>
          <fadeIn crossFadeLinkType="linkedAsymmetric" endPoint="0" shape="19" startPoint="0" type="log"/>
          <fadeOut crossFadeLinkType="linkedAsymmetric" endPoint="17707571" shape="19" startPoint="17707571" type="log"/>
          <editParameter parameterIndex="0" slotIndex="4294967280"/>
          <editParameter parameterIndex="0" slotIndex="4294967281"/>
          <channelMap>
            <channel index="0" sourceIndex="0"/>
          </channelMap>
        </audioClip>
        <audioClip clipAutoCrossfade="true" crossFadeHeadClipID="-1" crossFadeTailClipID="11" endPoint="52485656" fileID="0" hue="-1" id="10" lockedInTime="false" looped="false" name="Greg" offline="false" select="false" sourceInPoint="55459627" sourceOutPoint="62906410" startPoint="45038873" zOrder="10">
          <properties properties="{&quot;BasicAdjustmentsProperty&quot;:{&quot;type&quot;:&quot;tree::any&quot;,&quot;value&quot;:{&quot;AdjustmentMode&quot;:{&quot;type&quot;:&quot;UTF8String&quot;,&quot;value&quot;:&quot;dialog&quot;},&quot;ClaritySection&quot;:{&quot;type&quot;:&quot;tree::any&quot;,&quot;value&quot;:{&quot;Dynamics&quot;:{&quot;type&quot;:&quot;tree::any&quot;,&quot;value&quot;:{&quot;2&quot;:{&quot;type&quot;:&quot;tree::any&quot;,&quot;value&quot;:{&quot;Value&quot;:{&quot;type&quot;:&quot;float&quot;,&quot;value&quot;:3}}}}},&quot;Enabled&quot;:{&quot;type&quot;:&quot;bool&quot;,&quot;value&quot;:true}}},&quot;ClipType&quot;:{&quot;type&quot;:&quot;std::int32_t&quot;,&quot;value&quot;:1},&quot;EnhanceSpeechSection&quot;:{&quot;type&quot;:&quot;tree::any&quot;,&quot;value&quot;:{&quot;Enabled&quot;:{&quot;type&quot;:&quot;bool&quot;,&quot;value&quot;:true}}},&quot;PresetGuid&quot;:{&quot;type&quot;:&quot;UTF8String&quot;,&quot;value&quot;:&quot;bb717b4a-c0b1-4def-9040-3fb8e83b8a91&quot;},&quot;RestorationSection&quot;:{&quot;type&quot;:&quot;tree::any&quot;,&quot;value&quot;:{&quot;Enabled&quot;:{&quot;type&quot;:&quot;bool&quot;,&quot;value&quot;:true},&quot;ReduceHum&quot;:{&quot;type&quot;:&quot;tree::any&quot;,&quot;value&quot;:{&quot;4&quot;:{&quot;type&quot;:&quot;tree::any&quot;,&quot;value&quot;:{&quot;Value&quot;:{&quot;type&quot;:&quot;float&quot;,&quot;value&quot;:7.143000602722168}}},&quot;9&quot;:{&quot;type&quot;:&quot;tree::any&quot;,&quot;value&quot;:{&quot;Value&quot;:{&quot;type&quot;:&quot;float&quot;,&quot;value&quot;:60}}}}}}},&quot;SoundEffectsSection&quot;:{&quot;type&quot;:&quot;tree::any&quot;,&quot;value&quot;:{&quot;Enabled&quot;:{&quot;type&quot;:&quot;bool&quot;,&quot;value&quot;:true},&quot;Reverb&quot;:{&quot;type&quot;:&quot;tree::any&quot;,&quot;value&quot;:{&quot;3&quot;:{&quot;type&quot;:&quot;tree::any&quot;,&quot;value&quot;:{&quot;Value&quot;:{&quot;type&quot;:&quot;float&quot;,&quot;value&quot;:2}}}}}}},&quot;VolumeSection&quot;:{&quot;type&quot;:&quot;tree::any&quot;,&quot;value&quot;:{&quot;Enabled&quot;:{&quot;type&quot;:&quot;bool&quot;,&quot;value&quot;:true}}}}}}"/>
          <component componentGuid="6334a9bf-8a4b-4541-94d2-c543eb464acb" componentID="Audition.Fader" id="clipGain" name="volume" powered="true">
            <parameter index="0" name="volume" parameterValue="1"/>
            <parameter index="1" name="static gain" parameterValue="1"/>
          </component>
          <component componentGuid="f644d4ff-0bc7-4a22-b861-705d9eb97b52" componentID="Audition.Mute" id="clipMute" name="Mute" powered="true">
            <parameter index="0" parameterValue="0"/>
            <parameter index="1" name="mute" parameterValue="0"/>
          </component>
          <component componentGuid="4b6167d1-e9b4-40c9-a4c1-fd648599f8e6" componentID="Audition.StereoPanner" id="clipPan" name="StereoPanner" powered="true">
            <parameter index="0" name="Pan" parameterValue="0"/>
          </component>
          <fadeIn crossFadeLinkType="linkedAsymmetric" endPoint="0" shape="19" startPoint="0" type="log"/>
          <fadeOut crossFadeLinkType="linkedAsymmetric" endPoint="7446783" shape="19" startPoint="7440127" type="log"/>
          <editParameter parameterIndex="0" slotIndex="4294967280"/>
          <editParameter parameterIndex="0" slotIndex="4294967281"/>
          <channelMap>
            <channel index="0" sourceIndex="0"/>
          </channelMap>
        </audioClip>
        <audioClip clipAutoCrossfade="true" crossFadeHeadClipID="10" crossFadeTailClipID="12" endPoint="52536598" fileID="0" hue="-1" id="11" lockedInTime="false" looped="false" name="Greg" offline="false" select="false" sourceInPoint="62927901" sourceOutPoint="62985499" startPoint="52479000" zOrder="11">
          <properties properties="{&quot;BasicAdjustmentsProperty&quot;:{&quot;type&quot;:&quot;tree::any&quot;,&quot;value&quot;:{&quot;AdjustmentMode&quot;:{&quot;type&quot;:&quot;UTF8String&quot;,&quot;value&quot;:&quot;dialog&quot;},&quot;ClaritySection&quot;:{&quot;type&quot;:&quot;tree::any&quot;,&quot;value&quot;:{&quot;Dynamics&quot;:{&quot;type&quot;:&quot;tree::any&quot;,&quot;value&quot;:{&quot;2&quot;:{&quot;type&quot;:&quot;tree::any&quot;,&quot;value&quot;:{&quot;Value&quot;:{&quot;type&quot;:&quot;float&quot;,&quot;value&quot;:3}}}}},&quot;Enabled&quot;:{&quot;type&quot;:&quot;bool&quot;,&quot;value&quot;:true}}},&quot;ClipType&quot;:{&quot;type&quot;:&quot;std::int32_t&quot;,&quot;value&quot;:1},&quot;EnhanceSpeechSection&quot;:{&quot;type&quot;:&quot;tree::any&quot;,&quot;value&quot;:{&quot;Enabled&quot;:{&quot;type&quot;:&quot;bool&quot;,&quot;value&quot;:true}}},&quot;PresetGuid&quot;:{&quot;type&quot;:&quot;UTF8String&quot;,&quot;value&quot;:&quot;bb717b4a-c0b1-4def-9040-3fb8e83b8a91&quot;},&quot;RestorationSection&quot;:{&quot;type&quot;:&quot;tree::any&quot;,&quot;value&quot;:{&quot;Enabled&quot;:{&quot;type&quot;:&quot;bool&quot;,&quot;value&quot;:true},&quot;ReduceHum&quot;:{&quot;type&quot;:&quot;tree::any&quot;,&quot;value&quot;:{&quot;4&quot;:{&quot;type&quot;:&quot;tree::any&quot;,&quot;value&quot;:{&quot;Value&quot;:{&quot;type&quot;:&quot;float&quot;,&quot;value&quot;:7.143000602722168}}},&quot;9&quot;:{&quot;type&quot;:&quot;tree::any&quot;,&quot;value&quot;:{&quot;Value&quot;:{&quot;type&quot;:&quot;float&quot;,&quot;value&quot;:60}}}}}}},&quot;SoundEffectsSection&quot;:{&quot;type&quot;:&quot;tree::any&quot;,&quot;value&quot;:{&quot;Enabled&quot;:{&quot;type&quot;:&quot;bool&quot;,&quot;value&quot;:true},&quot;Reverb&quot;:{&quot;type&quot;:&quot;tree::any&quot;,&quot;value&quot;:{&quot;3&quot;:{&quot;type&quot;:&quot;tree::any&quot;,&quot;value&quot;:{&quot;Value&quot;:{&quot;type&quot;:&quot;float&quot;,&quot;value&quot;:2}}}}}}},&quot;VolumeSection&quot;:{&quot;type&quot;:&quot;tree::any&quot;,&quot;value&quot;:{&quot;Enabled&quot;:{&quot;type&quot;:&quot;bool&quot;,&quot;value&quot;:true}}}}}}"/>
          <component componentGuid="25170839-a4f2-4b99-8157-a23c33a18def" componentID="Audition.Fader" id="clipGain" name="volume" powered="true">
            <parameter index="0" name="volume" parameterValue="1"/>
            <parameter index="1" name="static gain" parameterValue="1"/>
          </component>
          <component componentGuid="979aef7d-2026-40ec-9da4-9253b58c2956" componentID="Audition.Mute" id="clipMute" name="Mute" powered="true">
            <parameter index="0" parameterValue="0"/>
            <parameter index="1" name="mute" parameterValue="0"/>
          </component>
          <component componentGuid="4ca690df-41b9-4298-8e2b-578a5aa682ec" componentID="Audition.StereoPanner" id="clipPan" name="StereoPanner" powered="true">
            <parameter index="0" name="Pan" parameterValue="0"/>
          </component>
          <fadeIn crossFadeLinkType="linkedAsymmetric" endPoint="6656" shape="18" startPoint="0" type="log"/>
          <fadeOut crossFadeLinkType="linkedAsymmetric" endPoint="57598" shape="19" startPoint="50435" type="log"/>
          <editParameter parameterIndex="0" slotIndex="4294967280"/>
          <editParameter parameterIndex="0" slotIndex="4294967281"/>
          <channelMap>
            <channel index="0" sourceIndex="0"/>
          </channelMap>
        </audioClip>
        <audioClip clipAutoCrossfade="true" crossFadeHeadClipID="11" crossFadeTailClipID="-1" endPoint="66262782" fileID="0" hue="-1" id="12" lockedInTime="false" looped="false" name="Greg" offline="false" select="false" sourceInPoint="62985499" sourceOutPoint="76718846" startPoint="52529435" zOrder="12">
          <properties properties="{&quot;BasicAdjustmentsProperty&quot;:{&quot;type&quot;:&quot;tree::any&quot;,&quot;value&quot;:{&quot;AdjustmentMode&quot;:{&quot;type&quot;:&quot;UTF8String&quot;,&quot;value&quot;:&quot;dialog&quot;},&quot;ClaritySection&quot;:{&quot;type&quot;:&quot;tree::any&quot;,&quot;value&quot;:{&quot;Dynamics&quot;:{&quot;type&quot;:&quot;tree::any&quot;,&quot;value&quot;:{&quot;2&quot;:{&quot;type&quot;:&quot;tree::any&quot;,&quot;value&quot;:{&quot;Value&quot;:{&quot;type&quot;:&quot;float&quot;,&quot;value&quot;:3}}}}},&quot;Enabled&quot;:{&quot;type&quot;:&quot;bool&quot;,&quot;value&quot;:true}}},&quot;ClipType&quot;:{&quot;type&quot;:&quot;std::int32_t&quot;,&quot;value&quot;:1},&quot;EnhanceSpeechSection&quot;:{&quot;type&quot;:&quot;tree::any&quot;,&quot;value&quot;:{&quot;Enabled&quot;:{&quot;type&quot;:&quot;bool&quot;,&quot;value&quot;:true}}},&quot;PresetGuid&quot;:{&quot;type&quot;:&quot;UTF8String&quot;,&quot;value&quot;:&quot;bb717b4a-c0b1-4def-9040-3fb8e83b8a91&quot;},&quot;RestorationSection&quot;:{&quot;type&quot;:&quot;tree::any&quot;,&quot;value&quot;:{&quot;Enabled&quot;:{&quot;type&quot;:&quot;bool&quot;,&quot;value&quot;:true},&quot;ReduceHum&quot;:{&quot;type&quot;:&quot;tree::any&quot;,&quot;value&quot;:{&quot;4&quot;:{&quot;type&quot;:&quot;tree::any&quot;,&quot;value&quot;:{&quot;Value&quot;:{&quot;type&quot;:&quot;float&quot;,&quot;value&quot;:7.143000602722168}}},&quot;9&quot;:{&quot;type&quot;:&quot;tree::any&quot;,&quot;value&quot;:{&quot;Value&quot;:{&quot;type&quot;:&quot;float&quot;,&quot;value&quot;:60}}}}}}},&quot;SoundEffectsSection&quot;:{&quot;type&quot;:&quot;tree::any&quot;,&quot;value&quot;:{&quot;Enabled&quot;:{&quot;type&quot;:&quot;bool&quot;,&quot;value&quot;:true},&quot;Reverb&quot;:{&quot;type&quot;:&quot;tree::any&quot;,&quot;value&quot;:{&quot;3&quot;:{&quot;type&quot;:&quot;tree::any&quot;,&quot;value&quot;:{&quot;Value&quot;:{&quot;type&quot;:&quot;float&quot;,&quot;value&quot;:2}}}}}}},&quot;VolumeSection&quot;:{&quot;type&quot;:&quot;tree::any&quot;,&quot;value&quot;:{&quot;Enabled&quot;:{&quot;type&quot;:&quot;bool&quot;,&quot;value&quot;:true}}}}}}"/>
          <component componentGuid="6539576b-5190-4d27-a424-7c8af4794b5f" componentID="Audition.Fader" id="clipGain" name="volume" powered="true">
            <parameter index="0" name="volume" parameterValue="1"/>
            <parameter index="1" name="static gain" parameterValue="1"/>
          </component>
          <component componentGuid="54c6a6a3-836a-429e-92ff-4136ef7957e4" componentID="Audition.Mute" id="clipMute" name="Mute" powered="true">
            <parameter index="0" parameterValue="0"/>
            <parameter index="1" name="mute" parameterValue="0"/>
          </component>
          <component componentGuid="697765d6-d45c-4ccd-8f1c-23c15cf111c9" componentID="Audition.StereoPanner" id="clipPan" name="StereoPanner" powered="true">
            <parameter index="0" name="Pan" parameterValue="0"/>
          </component>
          <fadeIn crossFadeLinkType="linkedAsymmetric" endPoint="7163" shape="18" startPoint="0" type="log"/>
          <fadeOut crossFadeLinkType="linkedAsymmetric" endPoint="13733347" shape="19" startPoint="13733347" type="log"/>
          <editParameter parameterIndex="0" slotIndex="4294967280"/>
          <editParameter parameterIndex="0" slotIndex="4294967281"/>
          <channelMap>
            <channel index="0" sourceIndex="0"/>
          </channelMap>
        </audioClip>
        <audioClip clipAutoCrossfade="true" crossFadeHeadClipID="-1" crossFadeTailClipID="-1" endPoint="67233329" fileID="0" hue="-1" id="13" lockedInTime="false" looped="false" name="Greg" offline="false" select="false" sourceInPoint="76753869" sourceOutPoint="77724416" startPoint="66262782" zOrder="13">
          <properties properties="{&quot;BasicAdjustmentsProperty&quot;:{&quot;type&quot;:&quot;tree::any&quot;,&quot;value&quot;:{&quot;AdjustmentMode&quot;:{&quot;type&quot;:&quot;UTF8String&quot;,&quot;value&quot;:&quot;dialog&quot;},&quot;ClaritySection&quot;:{&quot;type&quot;:&quot;tree::any&quot;,&quot;value&quot;:{&quot;Dynamics&quot;:{&quot;type&quot;:&quot;tree::any&quot;,&quot;value&quot;:{&quot;2&quot;:{&quot;type&quot;:&quot;tree::any&quot;,&quot;value&quot;:{&quot;Value&quot;:{&quot;type&quot;:&quot;float&quot;,&quot;value&quot;:3}}}}},&quot;Enabled&quot;:{&quot;type&quot;:&quot;bool&quot;,&quot;value&quot;:true}}},&quot;ClipType&quot;:{&quot;type&quot;:&quot;std::int32_t&quot;,&quot;value&quot;:1},&quot;EnhanceSpeechSection&quot;:{&quot;type&quot;:&quot;tree::any&quot;,&quot;value&quot;:{&quot;Enabled&quot;:{&quot;type&quot;:&quot;bool&quot;,&quot;value&quot;:true}}},&quot;PresetGuid&quot;:{&quot;type&quot;:&quot;UTF8String&quot;,&quot;value&quot;:&quot;bb717b4a-c0b1-4def-9040-3fb8e83b8a91&quot;},&quot;RestorationSection&quot;:{&quot;type&quot;:&quot;tree::any&quot;,&quot;value&quot;:{&quot;Enabled&quot;:{&quot;type&quot;:&quot;bool&quot;,&quot;value&quot;:true},&quot;ReduceHum&quot;:{&quot;type&quot;:&quot;tree::any&quot;,&quot;value&quot;:{&quot;4&quot;:{&quot;type&quot;:&quot;tree::any&quot;,&quot;value&quot;:{&quot;Value&quot;:{&quot;type&quot;:&quot;float&quot;,&quot;value&quot;:7.143000602722168}}},&quot;9&quot;:{&quot;type&quot;:&quot;tree::any&quot;,&quot;value&quot;:{&quot;Value&quot;:{&quot;type&quot;:&quot;float&quot;,&quot;value&quot;:60}}}}}}},&quot;SoundEffectsSection&quot;:{&quot;type&quot;:&quot;tree::any&quot;,&quot;value&quot;:{&quot;Enabled&quot;:{&quot;type&quot;:&quot;bool&quot;,&quot;value&quot;:true},&quot;Reverb&quot;:{&quot;type&quot;:&quot;tree::any&quot;,&quot;value&quot;:{&quot;3&quot;:{&quot;type&quot;:&quot;tree::any&quot;,&quot;value&quot;:{&quot;Value&quot;:{&quot;type&quot;:&quot;float&quot;,&quot;value&quot;:2}}}}}}},&quot;VolumeSection&quot;:{&quot;type&quot;:&quot;tree::any&quot;,&quot;value&quot;:{&quot;Enabled&quot;:{&quot;type&quot;:&quot;bool&quot;,&quot;value&quot;:true}}}}}}"/>
          <component componentGuid="8323fc78-6c03-48b3-ac16-28a28b6c7505" componentID="Audition.Fader" id="clipGain" name="volume" powered="true">
            <parameter index="0" name="volume" parameterValue="1"/>
            <parameter index="1" name="static gain" parameterValue="1"/>
          </component>
          <component componentGuid="816d41e4-6682-438b-bb41-5e397e4ee77c" componentID="Audition.Mute" id="clipMute" name="Mute" powered="true">
            <parameter index="0" parameterValue="0"/>
            <parameter index="1" name="mute" parameterValue="0"/>
          </component>
          <component componentGuid="ba3ae5bb-3a4e-444a-99ba-5c39166e8b96" componentID="Audition.StereoPanner" id="clipPan" name="StereoPanner" powered="true">
            <parameter index="0" name="Pan" parameterValue="0"/>
          </component>
          <fadeIn crossFadeLinkType="linkedAsymmetric" endPoint="0" shape="19" startPoint="0" type="log"/>
          <fadeOut crossFadeLinkType="linkedAsymmetric" endPoint="970547" shape="19" startPoint="970547" type="log"/>
          <editParameter parameterIndex="0" slotIndex="4294967280"/>
          <editParameter parameterIndex="0" slotIndex="4294967281"/>
          <channelMap>
            <channel index="0" sourceIndex="0"/>
          </channelMap>
        </audioClip>
        <audioClip clipAutoCrossfade="true" crossFadeHeadClipID="-1" crossFadeTailClipID="15" endPoint="67508467" fileID="0" hue="-1" id="14" lockedInTime="false" looped="false" name="Greg" offline="false" select="false" sourceInPoint="77772969" sourceOutPoint="78048107" startPoint="67233329" zOrder="14">
          <properties properties="{&quot;BasicAdjustmentsProperty&quot;:{&quot;type&quot;:&quot;tree::any&quot;,&quot;value&quot;:{&quot;AdjustmentMode&quot;:{&quot;type&quot;:&quot;UTF8String&quot;,&quot;value&quot;:&quot;dialog&quot;},&quot;ClaritySection&quot;:{&quot;type&quot;:&quot;tree::any&quot;,&quot;value&quot;:{&quot;Dynamics&quot;:{&quot;type&quot;:&quot;tree::any&quot;,&quot;value&quot;:{&quot;2&quot;:{&quot;type&quot;:&quot;tree::any&quot;,&quot;value&quot;:{&quot;Value&quot;:{&quot;type&quot;:&quot;float&quot;,&quot;value&quot;:3}}}}},&quot;Enabled&quot;:{&quot;type&quot;:&quot;bool&quot;,&quot;value&quot;:true}}},&quot;ClipType&quot;:{&quot;type&quot;:&quot;std::int32_t&quot;,&quot;value&quot;:1},&quot;EnhanceSpeechSection&quot;:{&quot;type&quot;:&quot;tree::any&quot;,&quot;value&quot;:{&quot;Enabled&quot;:{&quot;type&quot;:&quot;bool&quot;,&quot;value&quot;:true}}},&quot;PresetGuid&quot;:{&quot;type&quot;:&quot;UTF8String&quot;,&quot;value&quot;:&quot;bb717b4a-c0b1-4def-9040-3fb8e83b8a91&quot;},&quot;RestorationSection&quot;:{&quot;type&quot;:&quot;tree::any&quot;,&quot;value&quot;:{&quot;Enabled&quot;:{&quot;type&quot;:&quot;bool&quot;,&quot;value&quot;:true},&quot;ReduceHum&quot;:{&quot;type&quot;:&quot;tree::any&quot;,&quot;value&quot;:{&quot;4&quot;:{&quot;type&quot;:&quot;tree::any&quot;,&quot;value&quot;:{&quot;Value&quot;:{&quot;type&quot;:&quot;float&quot;,&quot;value&quot;:7.143000602722168}}},&quot;9&quot;:{&quot;type&quot;:&quot;tree::any&quot;,&quot;value&quot;:{&quot;Value&quot;:{&quot;type&quot;:&quot;float&quot;,&quot;value&quot;:60}}}}}}},&quot;SoundEffectsSection&quot;:{&quot;type&quot;:&quot;tree::any&quot;,&quot;value&quot;:{&quot;Enabled&quot;:{&quot;type&quot;:&quot;bool&quot;,&quot;value&quot;:true},&quot;Reverb&quot;:{&quot;type&quot;:&quot;tree::any&quot;,&quot;value&quot;:{&quot;3&quot;:{&quot;type&quot;:&quot;tree::any&quot;,&quot;value&quot;:{&quot;Value&quot;:{&quot;type&quot;:&quot;float&quot;,&quot;value&quot;:2}}}}}}},&quot;VolumeSection&quot;:{&quot;type&quot;:&quot;tree::any&quot;,&quot;value&quot;:{&quot;Enabled&quot;:{&quot;type&quot;:&quot;bool&quot;,&quot;value&quot;:true}}}}}}"/>
          <component componentGuid="43d50695-0a9e-4ab3-920a-9f019cd28676" componentID="Audition.Fader" id="clipGain" name="volume" powered="true">
            <parameter index="0" name="volume" parameterValue="1"/>
            <parameter index="1" name="static gain" parameterValue="1"/>
          </component>
          <component componentGuid="bdd3c5a0-d3a2-41f6-8a97-a643996a8fa3" componentID="Audition.Mute" id="clipMute" name="Mute" powered="true">
            <parameter index="0" parameterValue="0"/>
            <parameter index="1" name="mute" parameterValue="0"/>
          </component>
          <component componentGuid="db82df61-0e4a-4331-b75e-228de28b5100" componentID="Audition.StereoPanner" id="clipPan" name="StereoPanner" powered="true">
            <parameter index="0" name="Pan" parameterValue="0"/>
          </component>
          <fadeIn crossFadeLinkType="linkedAsymmetric" endPoint="0" shape="19" startPoint="0" type="log"/>
          <fadeOut crossFadeLinkType="linkedAsymmetric" endPoint="275138" shape="19" startPoint="268771" type="log"/>
          <editParameter parameterIndex="0" slotIndex="4294967280"/>
          <editParameter parameterIndex="0" slotIndex="4294967281"/>
          <channelMap>
            <channel index="0" sourceIndex="0"/>
          </channelMap>
        </audioClip>
        <audioClip clipAutoCrossfade="true" crossFadeHeadClipID="14" crossFadeTailClipID="16" endPoint="67580900" fileID="0" hue="-1" id="15" lockedInTime="false" looped="false" name="Greg" offline="false" select="false" sourceInPoint="78080742" sourceOutPoint="78159542" startPoint="67502100" zOrder="15">
          <properties properties="{&quot;BasicAdjustmentsProperty&quot;:{&quot;type&quot;:&quot;tree::any&quot;,&quot;value&quot;:{&quot;AdjustmentMode&quot;:{&quot;type&quot;:&quot;UTF8String&quot;,&quot;value&quot;:&quot;dialog&quot;},&quot;ClaritySection&quot;:{&quot;type&quot;:&quot;tree::any&quot;,&quot;value&quot;:{&quot;Dynamics&quot;:{&quot;type&quot;:&quot;tree::any&quot;,&quot;value&quot;:{&quot;2&quot;:{&quot;type&quot;:&quot;tree::any&quot;,&quot;value&quot;:{&quot;Value&quot;:{&quot;type&quot;:&quot;float&quot;,&quot;value&quot;:3}}}}},&quot;Enabled&quot;:{&quot;type&quot;:&quot;bool&quot;,&quot;value&quot;:true}}},&quot;ClipType&quot;:{&quot;type&quot;:&quot;std::int32_t&quot;,&quot;value&quot;:1},&quot;EnhanceSpeechSection&quot;:{&quot;type&quot;:&quot;tree::any&quot;,&quot;value&quot;:{&quot;Enabled&quot;:{&quot;type&quot;:&quot;bool&quot;,&quot;value&quot;:true}}},&quot;PresetGuid&quot;:{&quot;type&quot;:&quot;UTF8String&quot;,&quot;value&quot;:&quot;bb717b4a-c0b1-4def-9040-3fb8e83b8a91&quot;},&quot;RestorationSection&quot;:{&quot;type&quot;:&quot;tree::any&quot;,&quot;value&quot;:{&quot;Enabled&quot;:{&quot;type&quot;:&quot;bool&quot;,&quot;value&quot;:true},&quot;ReduceHum&quot;:{&quot;type&quot;:&quot;tree::any&quot;,&quot;value&quot;:{&quot;4&quot;:{&quot;type&quot;:&quot;tree::any&quot;,&quot;value&quot;:{&quot;Value&quot;:{&quot;type&quot;:&quot;float&quot;,&quot;value&quot;:7.143000602722168}}},&quot;9&quot;:{&quot;type&quot;:&quot;tree::any&quot;,&quot;value&quot;:{&quot;Value&quot;:{&quot;type&quot;:&quot;float&quot;,&quot;value&quot;:60}}}}}}},&quot;SoundEffectsSection&quot;:{&quot;type&quot;:&quot;tree::any&quot;,&quot;value&quot;:{&quot;Enabled&quot;:{&quot;type&quot;:&quot;bool&quot;,&quot;value&quot;:true},&quot;Reverb&quot;:{&quot;type&quot;:&quot;tree::any&quot;,&quot;value&quot;:{&quot;3&quot;:{&quot;type&quot;:&quot;tree::any&quot;,&quot;value&quot;:{&quot;Value&quot;:{&quot;type&quot;:&quot;float&quot;,&quot;value&quot;:2}}}}}}},&quot;VolumeSection&quot;:{&quot;type&quot;:&quot;tree::any&quot;,&quot;value&quot;:{&quot;Enabled&quot;:{&quot;type&quot;:&quot;bool&quot;,&quot;value&quot;:true}}}}}}"/>
          <component componentGuid="665a1971-4dcb-44e4-95ff-77e7ba2b3823" componentID="Audition.Fader" id="clipGain" name="volume" powered="true">
            <parameter index="0" name="volume" parameterValue="1"/>
            <parameter index="1" name="static gain" parameterValue="1"/>
          </component>
          <component componentGuid="8f7efb05-07f9-41b5-8e8c-a73c8668c0d6" componentID="Audition.Mute" id="clipMute" name="Mute" powered="true">
            <parameter index="0" parameterValue="0"/>
            <parameter index="1" name="mute" parameterValue="0"/>
          </component>
          <component componentGuid="9501efe6-1cb7-4fd0-9f08-9f622aa4dc2a" componentID="Audition.StereoPanner" id="clipPan" name="StereoPanner" powered="true">
            <parameter index="0" name="Pan" parameterValue="0"/>
          </component>
          <fadeIn crossFadeLinkType="linkedAsymmetric" endPoint="6367" shape="18" startPoint="0" type="log"/>
          <fadeOut crossFadeLinkType="linkedAsymmetric" endPoint="78800" shape="19" startPoint="65269" type="log"/>
          <editParameter parameterIndex="0" slotIndex="4294967280"/>
          <editParameter parameterIndex="0" slotIndex="4294967281"/>
          <channelMap>
            <channel index="0" sourceIndex="0"/>
          </channelMap>
        </audioClip>
        <audioClip clipAutoCrossfade="true" crossFadeHeadClipID="15" crossFadeTailClipID="17" endPoint="67679069" fileID="0" hue="-1" id="16" lockedInTime="false" looped="false" name="Greg" offline="false" select="false" sourceInPoint="78159542" sourceOutPoint="78271242" startPoint="67567369" zOrder="16">
          <properties properties="{&quot;BasicAdjustmentsProperty&quot;:{&quot;type&quot;:&quot;tree::any&quot;,&quot;value&quot;:{&quot;AdjustmentMode&quot;:{&quot;type&quot;:&quot;UTF8String&quot;,&quot;value&quot;:&quot;dialog&quot;},&quot;ClaritySection&quot;:{&quot;type&quot;:&quot;tree::any&quot;,&quot;value&quot;:{&quot;Dynamics&quot;:{&quot;type&quot;:&quot;tree::any&quot;,&quot;value&quot;:{&quot;2&quot;:{&quot;type&quot;:&quot;tree::any&quot;,&quot;value&quot;:{&quot;Value&quot;:{&quot;type&quot;:&quot;float&quot;,&quot;value&quot;:3}}}}},&quot;Enabled&quot;:{&quot;type&quot;:&quot;bool&quot;,&quot;value&quot;:true}}},&quot;ClipType&quot;:{&quot;type&quot;:&quot;std::int32_t&quot;,&quot;value&quot;:1},&quot;EnhanceSpeechSection&quot;:{&quot;type&quot;:&quot;tree::any&quot;,&quot;value&quot;:{&quot;Enabled&quot;:{&quot;type&quot;:&quot;bool&quot;,&quot;value&quot;:true}}},&quot;PresetGuid&quot;:{&quot;type&quot;:&quot;UTF8String&quot;,&quot;value&quot;:&quot;bb717b4a-c0b1-4def-9040-3fb8e83b8a91&quot;},&quot;RestorationSection&quot;:{&quot;type&quot;:&quot;tree::any&quot;,&quot;value&quot;:{&quot;Enabled&quot;:{&quot;type&quot;:&quot;bool&quot;,&quot;value&quot;:true},&quot;ReduceHum&quot;:{&quot;type&quot;:&quot;tree::any&quot;,&quot;value&quot;:{&quot;4&quot;:{&quot;type&quot;:&quot;tree::any&quot;,&quot;value&quot;:{&quot;Value&quot;:{&quot;type&quot;:&quot;float&quot;,&quot;value&quot;:7.143000602722168}}},&quot;9&quot;:{&quot;type&quot;:&quot;tree::any&quot;,&quot;value&quot;:{&quot;Value&quot;:{&quot;type&quot;:&quot;float&quot;,&quot;value&quot;:60}}}}}}},&quot;SoundEffectsSection&quot;:{&quot;type&quot;:&quot;tree::any&quot;,&quot;value&quot;:{&quot;Enabled&quot;:{&quot;type&quot;:&quot;bool&quot;,&quot;value&quot;:true},&quot;Reverb&quot;:{&quot;type&quot;:&quot;tree::any&quot;,&quot;value&quot;:{&quot;3&quot;:{&quot;type&quot;:&quot;tree::any&quot;,&quot;value&quot;:{&quot;Value&quot;:{&quot;type&quot;:&quot;float&quot;,&quot;value&quot;:2}}}}}}},&quot;VolumeSection&quot;:{&quot;type&quot;:&quot;tree::any&quot;,&quot;value&quot;:{&quot;Enabled&quot;:{&quot;type&quot;:&quot;bool&quot;,&quot;value&quot;:true}}}}}}"/>
          <component componentGuid="c9b2c644-c4b6-40e4-8d3d-eeae49bf22c2" componentID="Audition.Fader" id="clipGain" name="volume" powered="true">
            <parameter index="0" name="volume" parameterValue="1"/>
            <parameter index="1" name="static gain" parameterValue="1"/>
          </component>
          <component componentGuid="58e6c8d2-893a-4e01-8cfd-ecb30dba8561" componentID="Audition.Mute" id="clipMute" name="Mute" powered="true">
            <parameter index="0" parameterValue="0"/>
            <parameter index="1" name="mute" parameterValue="0"/>
          </component>
          <component componentGuid="0a59dd51-2d8b-497c-beb7-01fa5159cf72" componentID="Audition.StereoPanner" id="clipPan" name="StereoPanner" powered="true">
            <parameter index="0" name="Pan" parameterValue="0"/>
          </component>
          <fadeIn crossFadeLinkType="linkedAsymmetric" endPoint="13531" shape="18" startPoint="0" type="log"/>
          <fadeOut crossFadeLinkType="linkedAsymmetric" endPoint="111700" shape="19" startPoint="98700" type="log"/>
          <editParameter parameterIndex="0" slotIndex="4294967280"/>
          <editParameter parameterIndex="0" slotIndex="4294967281"/>
          <channelMap>
            <channel index="0" sourceIndex="0"/>
          </channelMap>
        </audioClip>
        <audioClip clipAutoCrossfade="true" crossFadeHeadClipID="16" crossFadeTailClipID="-1" endPoint="79912556" fileID="0" hue="-1" id="17" lockedInTime="false" looped="false" name="Greg" offline="false" select="false" sourceInPoint="78855215" sourceOutPoint="91101702" startPoint="67666069" zOrder="17">
          <properties properties="{&quot;BasicAdjustmentsProperty&quot;:{&quot;type&quot;:&quot;tree::any&quot;,&quot;value&quot;:{&quot;AdjustmentMode&quot;:{&quot;type&quot;:&quot;UTF8String&quot;,&quot;value&quot;:&quot;dialog&quot;},&quot;ClaritySection&quot;:{&quot;type&quot;:&quot;tree::any&quot;,&quot;value&quot;:{&quot;Dynamics&quot;:{&quot;type&quot;:&quot;tree::any&quot;,&quot;value&quot;:{&quot;2&quot;:{&quot;type&quot;:&quot;tree::any&quot;,&quot;value&quot;:{&quot;Value&quot;:{&quot;type&quot;:&quot;float&quot;,&quot;value&quot;:3}}}}},&quot;Enabled&quot;:{&quot;type&quot;:&quot;bool&quot;,&quot;value&quot;:true}}},&quot;ClipType&quot;:{&quot;type&quot;:&quot;std::int32_t&quot;,&quot;value&quot;:1},&quot;EnhanceSpeechSection&quot;:{&quot;type&quot;:&quot;tree::any&quot;,&quot;value&quot;:{&quot;Enabled&quot;:{&quot;type&quot;:&quot;bool&quot;,&quot;value&quot;:true}}},&quot;PresetGuid&quot;:{&quot;type&quot;:&quot;UTF8String&quot;,&quot;value&quot;:&quot;bb717b4a-c0b1-4def-9040-3fb8e83b8a91&quot;},&quot;RestorationSection&quot;:{&quot;type&quot;:&quot;tree::any&quot;,&quot;value&quot;:{&quot;Enabled&quot;:{&quot;type&quot;:&quot;bool&quot;,&quot;value&quot;:true},&quot;ReduceHum&quot;:{&quot;type&quot;:&quot;tree::any&quot;,&quot;value&quot;:{&quot;4&quot;:{&quot;type&quot;:&quot;tree::any&quot;,&quot;value&quot;:{&quot;Value&quot;:{&quot;type&quot;:&quot;float&quot;,&quot;value&quot;:7.143000602722168}}},&quot;9&quot;:{&quot;type&quot;:&quot;tree::any&quot;,&quot;value&quot;:{&quot;Value&quot;:{&quot;type&quot;:&quot;float&quot;,&quot;value&quot;:60}}}}}}},&quot;SoundEffectsSection&quot;:{&quot;type&quot;:&quot;tree::any&quot;,&quot;value&quot;:{&quot;Enabled&quot;:{&quot;type&quot;:&quot;bool&quot;,&quot;value&quot;:true},&quot;Reverb&quot;:{&quot;type&quot;:&quot;tree::any&quot;,&quot;value&quot;:{&quot;3&quot;:{&quot;type&quot;:&quot;tree::any&quot;,&quot;value&quot;:{&quot;Value&quot;:{&quot;type&quot;:&quot;float&quot;,&quot;value&quot;:2}}}}}}},&quot;VolumeSection&quot;:{&quot;type&quot;:&quot;tree::any&quot;,&quot;value&quot;:{&quot;Enabled&quot;:{&quot;type&quot;:&quot;bool&quot;,&quot;value&quot;:true}}}}}}"/>
          <component componentGuid="d0351c25-c40f-490a-9fa3-6acdbb83c9b7" componentID="Audition.Fader" id="clipGain" name="volume" powered="true">
            <parameter index="0" name="volume" parameterValue="1"/>
            <parameter index="1" name="static gain" parameterValue="1"/>
          </component>
          <component componentGuid="93cfb1cd-a910-4dc9-adbc-084042c57f83" componentID="Audition.Mute" id="clipMute" name="Mute" powered="true">
            <parameter index="0" parameterValue="0"/>
            <parameter index="1" name="mute" parameterValue="0"/>
          </component>
          <component componentGuid="e7c75d3e-0d4c-4926-ad14-972272be758b" componentID="Audition.StereoPanner" id="clipPan" name="StereoPanner" powered="true">
            <parameter index="0" name="Pan" parameterValue="0"/>
          </component>
          <fadeIn crossFadeLinkType="linkedAsymmetric" endPoint="13000" shape="18" startPoint="0" type="log"/>
          <fadeOut crossFadeLinkType="linkedAsymmetric" endPoint="12246487" shape="19" startPoint="12235462" type="log"/>
          <editParameter parameterIndex="0" slotIndex="4294967280"/>
          <editParameter parameterIndex="0" slotIndex="4294967281"/>
          <channelMap>
            <channel index="0" sourceIndex="0"/>
          </channelMap>
        </audioClip>
        <audioClip clipAutoCrossfade="true" crossFadeHeadClipID="-1" crossFadeTailClipID="-1" endPoint="80409127" fileID="0" hue="-1" id="18" lockedInTime="false" looped="false" name="Greg" offline="false" select="false" sourceInPoint="91493741" sourceOutPoint="91684164" startPoint="80218704" zOrder="19">
          <properties properties="{&quot;BasicAdjustmentsProperty&quot;:{&quot;type&quot;:&quot;tree::any&quot;,&quot;value&quot;:{&quot;AdjustmentMode&quot;:{&quot;type&quot;:&quot;UTF8String&quot;,&quot;value&quot;:&quot;dialog&quot;},&quot;ClaritySection&quot;:{&quot;type&quot;:&quot;tree::any&quot;,&quot;value&quot;:{&quot;Dynamics&quot;:{&quot;type&quot;:&quot;tree::any&quot;,&quot;value&quot;:{&quot;2&quot;:{&quot;type&quot;:&quot;tree::any&quot;,&quot;value&quot;:{&quot;Value&quot;:{&quot;type&quot;:&quot;float&quot;,&quot;value&quot;:3}}}}},&quot;Enabled&quot;:{&quot;type&quot;:&quot;bool&quot;,&quot;value&quot;:true}}},&quot;ClipType&quot;:{&quot;type&quot;:&quot;std::int32_t&quot;,&quot;value&quot;:1},&quot;EnhanceSpeechSection&quot;:{&quot;type&quot;:&quot;tree::any&quot;,&quot;value&quot;:{&quot;Enabled&quot;:{&quot;type&quot;:&quot;bool&quot;,&quot;value&quot;:true}}},&quot;PresetGuid&quot;:{&quot;type&quot;:&quot;UTF8String&quot;,&quot;value&quot;:&quot;bb717b4a-c0b1-4def-9040-3fb8e83b8a91&quot;},&quot;RestorationSection&quot;:{&quot;type&quot;:&quot;tree::any&quot;,&quot;value&quot;:{&quot;Enabled&quot;:{&quot;type&quot;:&quot;bool&quot;,&quot;value&quot;:true},&quot;ReduceHum&quot;:{&quot;type&quot;:&quot;tree::any&quot;,&quot;value&quot;:{&quot;4&quot;:{&quot;type&quot;:&quot;tree::any&quot;,&quot;value&quot;:{&quot;Value&quot;:{&quot;type&quot;:&quot;float&quot;,&quot;value&quot;:7.143000602722168}}},&quot;9&quot;:{&quot;type&quot;:&quot;tree::any&quot;,&quot;value&quot;:{&quot;Value&quot;:{&quot;type&quot;:&quot;float&quot;,&quot;value&quot;:60}}}}}}},&quot;SoundEffectsSection&quot;:{&quot;type&quot;:&quot;tree::any&quot;,&quot;value&quot;:{&quot;Enabled&quot;:{&quot;type&quot;:&quot;bool&quot;,&quot;value&quot;:true},&quot;Reverb&quot;:{&quot;type&quot;:&quot;tree::any&quot;,&quot;value&quot;:{&quot;3&quot;:{&quot;type&quot;:&quot;tree::any&quot;,&quot;value&quot;:{&quot;Value&quot;:{&quot;type&quot;:&quot;float&quot;,&quot;value&quot;:2}}}}}}},&quot;VolumeSection&quot;:{&quot;type&quot;:&quot;tree::any&quot;,&quot;value&quot;:{&quot;Enabled&quot;:{&quot;type&quot;:&quot;bool&quot;,&quot;value&quot;:true}}}}}}"/>
          <component componentGuid="e8ccef85-03f5-45e7-b005-5707d5155175" componentID="Audition.Fader" id="clipGain" name="volume" powered="true">
            <parameter index="0" name="volume" parameterValue="1"/>
            <parameter index="1" name="static gain" parameterValue="1"/>
          </component>
          <component componentGuid="c107bede-dd4a-4d58-9676-62d242cf26ce" componentID="Audition.Mute" id="clipMute" name="Mute" powered="true">
            <parameter index="0" parameterValue="0"/>
            <parameter index="1" name="mute" parameterValue="0"/>
          </component>
          <component componentGuid="d44eb106-d504-49a7-84d8-8fcd12248525" componentID="Audition.StereoPanner" id="clipPan" name="StereoPanner" powered="true">
            <parameter index="0" name="Pan" parameterValue="0"/>
          </component>
          <fadeIn crossFadeLinkType="linkedAsymmetric" endPoint="0" shape="19" startPoint="0" type="log"/>
          <fadeOut crossFadeLinkType="linkedAsymmetric" endPoint="190423" shape="19" startPoint="179398" type="log"/>
          <editParameter parameterIndex="0" slotIndex="4294967280"/>
          <editParameter parameterIndex="0" slotIndex="4294967281"/>
          <channelMap>
            <channel index="0" sourceIndex="0"/>
          </channelMap>
        </audioClip>
        <audioClip clipAutoCrossfade="true" crossFadeHeadClipID="-1" crossFadeTailClipID="20" endPoint="82732000" fileID="0" hue="-1" id="19" lockedInTime="false" looped="false" name="Greg" offline="false" select="false" sourceInPoint="91739334" sourceOutPoint="94008360" startPoint="80462974" zOrder="18">
          <properties properties="{&quot;BasicAdjustmentsProperty&quot;:{&quot;type&quot;:&quot;tree::any&quot;,&quot;value&quot;:{&quot;AdjustmentMode&quot;:{&quot;type&quot;:&quot;UTF8String&quot;,&quot;value&quot;:&quot;dialog&quot;},&quot;ClaritySection&quot;:{&quot;type&quot;:&quot;tree::any&quot;,&quot;value&quot;:{&quot;Dynamics&quot;:{&quot;type&quot;:&quot;tree::any&quot;,&quot;value&quot;:{&quot;2&quot;:{&quot;type&quot;:&quot;tree::any&quot;,&quot;value&quot;:{&quot;Value&quot;:{&quot;type&quot;:&quot;float&quot;,&quot;value&quot;:3}}}}},&quot;Enabled&quot;:{&quot;type&quot;:&quot;bool&quot;,&quot;value&quot;:true}}},&quot;ClipType&quot;:{&quot;type&quot;:&quot;std::int32_t&quot;,&quot;value&quot;:1},&quot;EnhanceSpeechSection&quot;:{&quot;type&quot;:&quot;tree::any&quot;,&quot;value&quot;:{&quot;Enabled&quot;:{&quot;type&quot;:&quot;bool&quot;,&quot;value&quot;:true}}},&quot;PresetGuid&quot;:{&quot;type&quot;:&quot;UTF8String&quot;,&quot;value&quot;:&quot;bb717b4a-c0b1-4def-9040-3fb8e83b8a91&quot;},&quot;RestorationSection&quot;:{&quot;type&quot;:&quot;tree::any&quot;,&quot;value&quot;:{&quot;Enabled&quot;:{&quot;type&quot;:&quot;bool&quot;,&quot;value&quot;:true},&quot;ReduceHum&quot;:{&quot;type&quot;:&quot;tree::any&quot;,&quot;value&quot;:{&quot;4&quot;:{&quot;type&quot;:&quot;tree::any&quot;,&quot;value&quot;:{&quot;Value&quot;:{&quot;type&quot;:&quot;float&quot;,&quot;value&quot;:7.143000602722168}}},&quot;9&quot;:{&quot;type&quot;:&quot;tree::any&quot;,&quot;value&quot;:{&quot;Value&quot;:{&quot;type&quot;:&quot;float&quot;,&quot;value&quot;:60}}}}}}},&quot;SoundEffectsSection&quot;:{&quot;type&quot;:&quot;tree::any&quot;,&quot;value&quot;:{&quot;Enabled&quot;:{&quot;type&quot;:&quot;bool&quot;,&quot;value&quot;:true},&quot;Reverb&quot;:{&quot;type&quot;:&quot;tree::any&quot;,&quot;value&quot;:{&quot;3&quot;:{&quot;type&quot;:&quot;tree::any&quot;,&quot;value&quot;:{&quot;Value&quot;:{&quot;type&quot;:&quot;float&quot;,&quot;value&quot;:2}}}}}}},&quot;VolumeSection&quot;:{&quot;type&quot;:&quot;tree::any&quot;,&quot;value&quot;:{&quot;Enabled&quot;:{&quot;type&quot;:&quot;bool&quot;,&quot;value&quot;:true}}}}}}"/>
          <component componentGuid="40aaf989-c22d-40a4-ad03-3bfd97839e0a" componentID="Audition.Fader" id="clipGain" name="volume" powered="true">
            <parameter index="0" name="volume" parameterValue="1"/>
            <parameter index="1" name="static gain" parameterValue="1"/>
          </component>
          <component componentGuid="ea4b53d8-f3ee-4616-bb81-0769b5c28c94" componentID="Audition.Mute" id="clipMute" name="Mute" powered="true">
            <parameter index="0" parameterValue="0"/>
            <parameter index="1" name="mute" parameterValue="0"/>
          </component>
          <component componentGuid="57a216f7-276c-432d-baa3-b6c314e21c4c" componentID="Audition.StereoPanner" id="clipPan" name="StereoPanner" powered="true">
            <parameter index="0" name="Pan" parameterValue="0"/>
          </component>
          <fadeIn crossFadeLinkType="linkedAsymmetric" endPoint="11025" shape="19" startPoint="0" type="log"/>
          <fadeOut crossFadeLinkType="linkedAsymmetric" endPoint="2269026" shape="19" startPoint="2267948" type="log"/>
          <editParameter parameterIndex="0" slotIndex="4294967280"/>
          <editParameter parameterIndex="0" slotIndex="4294967281"/>
          <channelMap>
            <channel index="0" sourceIndex="0"/>
          </channelMap>
        </audioClip>
        <audioClip clipAutoCrossfade="true" crossFadeHeadClipID="19" crossFadeTailClipID="-1" endPoint="83733155" fileID="0" hue="-1" id="20" lockedInTime="false" looped="false" name="Greg" offline="false" select="false" sourceInPoint="94066624" sourceOutPoint="95068857" startPoint="82730922" zOrder="20">
          <properties properties="{&quot;BasicAdjustmentsProperty&quot;:{&quot;type&quot;:&quot;tree::any&quot;,&quot;value&quot;:{&quot;AdjustmentMode&quot;:{&quot;type&quot;:&quot;UTF8String&quot;,&quot;value&quot;:&quot;dialog&quot;},&quot;ClaritySection&quot;:{&quot;type&quot;:&quot;tree::any&quot;,&quot;value&quot;:{&quot;Dynamics&quot;:{&quot;type&quot;:&quot;tree::any&quot;,&quot;value&quot;:{&quot;2&quot;:{&quot;type&quot;:&quot;tree::any&quot;,&quot;value&quot;:{&quot;Value&quot;:{&quot;type&quot;:&quot;float&quot;,&quot;value&quot;:3}}}}},&quot;Enabled&quot;:{&quot;type&quot;:&quot;bool&quot;,&quot;value&quot;:true}}},&quot;ClipType&quot;:{&quot;type&quot;:&quot;std::int32_t&quot;,&quot;value&quot;:1},&quot;EnhanceSpeechSection&quot;:{&quot;type&quot;:&quot;tree::any&quot;,&quot;value&quot;:{&quot;Enabled&quot;:{&quot;type&quot;:&quot;bool&quot;,&quot;value&quot;:true}}},&quot;PresetGuid&quot;:{&quot;type&quot;:&quot;UTF8String&quot;,&quot;value&quot;:&quot;bb717b4a-c0b1-4def-9040-3fb8e83b8a91&quot;},&quot;RestorationSection&quot;:{&quot;type&quot;:&quot;tree::any&quot;,&quot;value&quot;:{&quot;Enabled&quot;:{&quot;type&quot;:&quot;bool&quot;,&quot;value&quot;:true},&quot;ReduceHum&quot;:{&quot;type&quot;:&quot;tree::any&quot;,&quot;value&quot;:{&quot;4&quot;:{&quot;type&quot;:&quot;tree::any&quot;,&quot;value&quot;:{&quot;Value&quot;:{&quot;type&quot;:&quot;float&quot;,&quot;value&quot;:7.143000602722168}}},&quot;9&quot;:{&quot;type&quot;:&quot;tree::any&quot;,&quot;value&quot;:{&quot;Value&quot;:{&quot;type&quot;:&quot;float&quot;,&quot;value&quot;:60}}}}}}},&quot;SoundEffectsSection&quot;:{&quot;type&quot;:&quot;tree::any&quot;,&quot;value&quot;:{&quot;Enabled&quot;:{&quot;type&quot;:&quot;bool&quot;,&quot;value&quot;:true},&quot;Reverb&quot;:{&quot;type&quot;:&quot;tree::any&quot;,&quot;value&quot;:{&quot;3&quot;:{&quot;type&quot;:&quot;tree::any&quot;,&quot;value&quot;:{&quot;Value&quot;:{&quot;type&quot;:&quot;float&quot;,&quot;value&quot;:2}}}}}}},&quot;VolumeSection&quot;:{&quot;type&quot;:&quot;tree::any&quot;,&quot;value&quot;:{&quot;Enabled&quot;:{&quot;type&quot;:&quot;bool&quot;,&quot;value&quot;:true}}}}}}"/>
          <component componentGuid="20af0ed7-1961-437d-a3a2-5821dced2be7" componentID="Audition.Fader" id="clipGain" name="volume" powered="true">
            <parameter index="0" name="volume" parameterValue="1"/>
            <parameter index="1" name="static gain" parameterValue="1"/>
          </component>
          <component componentGuid="7a4c3e80-21d1-4c25-b411-d236ab2294ce" componentID="Audition.Mute" id="clipMute" name="Mute" powered="true">
            <parameter index="0" parameterValue="0"/>
            <parameter index="1" name="mute" parameterValue="0"/>
          </component>
          <component componentGuid="c9feffcf-41ff-4c9a-a3eb-d28260cc1935" componentID="Audition.StereoPanner" id="clipPan" name="StereoPanner" powered="true">
            <parameter index="0" name="Pan" parameterValue="0"/>
          </component>
          <fadeIn crossFadeLinkType="linkedAsymmetric" endPoint="1078" shape="18" startPoint="0" type="log"/>
          <fadeOut crossFadeLinkType="linkedAsymmetric" endPoint="1002233" shape="19" startPoint="1002233" type="log"/>
          <editParameter parameterIndex="0" slotIndex="4294967280"/>
          <editParameter parameterIndex="0" slotIndex="4294967281"/>
          <channelMap>
            <channel index="0" sourceIndex="0"/>
          </channelMap>
        </audioClip>
        <audioClip clipAutoCrossfade="true" crossFadeHeadClipID="-1" crossFadeTailClipID="-1" endPoint="96482651" fileID="0" hue="-1" id="21" lockedInTime="false" looped="false" name="Greg" offline="false" select="false" sourceInPoint="95108390" sourceOutPoint="107857886" startPoint="83733155" zOrder="21">
          <properties properties="{&quot;BasicAdjustmentsProperty&quot;:{&quot;type&quot;:&quot;tree::any&quot;,&quot;value&quot;:{&quot;AdjustmentMode&quot;:{&quot;type&quot;:&quot;UTF8String&quot;,&quot;value&quot;:&quot;dialog&quot;},&quot;ClaritySection&quot;:{&quot;type&quot;:&quot;tree::any&quot;,&quot;value&quot;:{&quot;Dynamics&quot;:{&quot;type&quot;:&quot;tree::any&quot;,&quot;value&quot;:{&quot;2&quot;:{&quot;type&quot;:&quot;tree::any&quot;,&quot;value&quot;:{&quot;Value&quot;:{&quot;type&quot;:&quot;float&quot;,&quot;value&quot;:3}}}}},&quot;Enabled&quot;:{&quot;type&quot;:&quot;bool&quot;,&quot;value&quot;:true}}},&quot;ClipType&quot;:{&quot;type&quot;:&quot;std::int32_t&quot;,&quot;value&quot;:1},&quot;EnhanceSpeechSection&quot;:{&quot;type&quot;:&quot;tree::any&quot;,&quot;value&quot;:{&quot;Enabled&quot;:{&quot;type&quot;:&quot;bool&quot;,&quot;value&quot;:true}}},&quot;PresetGuid&quot;:{&quot;type&quot;:&quot;UTF8String&quot;,&quot;value&quot;:&quot;bb717b4a-c0b1-4def-9040-3fb8e83b8a91&quot;},&quot;RestorationSection&quot;:{&quot;type&quot;:&quot;tree::any&quot;,&quot;value&quot;:{&quot;Enabled&quot;:{&quot;type&quot;:&quot;bool&quot;,&quot;value&quot;:true},&quot;ReduceHum&quot;:{&quot;type&quot;:&quot;tree::any&quot;,&quot;value&quot;:{&quot;4&quot;:{&quot;type&quot;:&quot;tree::any&quot;,&quot;value&quot;:{&quot;Value&quot;:{&quot;type&quot;:&quot;float&quot;,&quot;value&quot;:7.143000602722168}}},&quot;9&quot;:{&quot;type&quot;:&quot;tree::any&quot;,&quot;value&quot;:{&quot;Value&quot;:{&quot;type&quot;:&quot;float&quot;,&quot;value&quot;:60}}}}}}},&quot;SoundEffectsSection&quot;:{&quot;type&quot;:&quot;tree::any&quot;,&quot;value&quot;:{&quot;Enabled&quot;:{&quot;type&quot;:&quot;bool&quot;,&quot;value&quot;:true},&quot;Reverb&quot;:{&quot;type&quot;:&quot;tree::any&quot;,&quot;value&quot;:{&quot;3&quot;:{&quot;type&quot;:&quot;tree::any&quot;,&quot;value&quot;:{&quot;Value&quot;:{&quot;type&quot;:&quot;float&quot;,&quot;value&quot;:2}}}}}}},&quot;VolumeSection&quot;:{&quot;type&quot;:&quot;tree::any&quot;,&quot;value&quot;:{&quot;Enabled&quot;:{&quot;type&quot;:&quot;bool&quot;,&quot;value&quot;:true}}}}}}"/>
          <component componentGuid="dc54a690-1904-4ca2-860d-11790df38bd0" componentID="Audition.Fader" id="clipGain" name="volume" powered="true">
            <parameter index="0" name="volume" parameterValue="1"/>
            <parameter index="1" name="static gain" parameterValue="1"/>
          </component>
          <component componentGuid="935f695a-ff45-4075-82c6-188610b63671" componentID="Audition.Mute" id="clipMute" name="Mute" powered="true">
            <parameter index="0" parameterValue="0"/>
            <parameter index="1" name="mute" parameterValue="0"/>
          </component>
          <component componentGuid="00e0fe89-4101-4e47-a566-f1f7043fa982" componentID="Audition.StereoPanner" id="clipPan" name="StereoPanner" powered="true">
            <parameter index="0" name="Pan" parameterValue="0"/>
          </component>
          <fadeIn crossFadeLinkType="linkedAsymmetric" endPoint="0" shape="19" startPoint="0" type="log"/>
          <fadeOut crossFadeLinkType="linkedAsymmetric" endPoint="12749496" shape="19" startPoint="12749496" type="log"/>
          <editParameter parameterIndex="0" slotIndex="4294967280"/>
          <editParameter parameterIndex="0" slotIndex="4294967281"/>
          <channelMap>
            <channel index="0" sourceIndex="0"/>
          </channelMap>
        </audioClip>
        <audioClip clipAutoCrossfade="true" crossFadeHeadClipID="-1" crossFadeTailClipID="-1" endPoint="98734046" fileID="0" hue="-1" id="22" lockedInTime="false" looped="false" name="Greg" offline="false" select="false" sourceInPoint="108014691" sourceOutPoint="110266086" startPoint="96482651" zOrder="26">
          <properties properties="{&quot;BasicAdjustmentsProperty&quot;:{&quot;type&quot;:&quot;tree::any&quot;,&quot;value&quot;:{&quot;AdjustmentMode&quot;:{&quot;type&quot;:&quot;UTF8String&quot;,&quot;value&quot;:&quot;dialog&quot;},&quot;ClaritySection&quot;:{&quot;type&quot;:&quot;tree::any&quot;,&quot;value&quot;:{&quot;Dynamics&quot;:{&quot;type&quot;:&quot;tree::any&quot;,&quot;value&quot;:{&quot;2&quot;:{&quot;type&quot;:&quot;tree::any&quot;,&quot;value&quot;:{&quot;Value&quot;:{&quot;type&quot;:&quot;float&quot;,&quot;value&quot;:3}}}}},&quot;Enabled&quot;:{&quot;type&quot;:&quot;bool&quot;,&quot;value&quot;:true}}},&quot;ClipType&quot;:{&quot;type&quot;:&quot;std::int32_t&quot;,&quot;value&quot;:1},&quot;EnhanceSpeechSection&quot;:{&quot;type&quot;:&quot;tree::any&quot;,&quot;value&quot;:{&quot;Enabled&quot;:{&quot;type&quot;:&quot;bool&quot;,&quot;value&quot;:true}}},&quot;PresetGuid&quot;:{&quot;type&quot;:&quot;UTF8String&quot;,&quot;value&quot;:&quot;bb717b4a-c0b1-4def-9040-3fb8e83b8a91&quot;},&quot;RestorationSection&quot;:{&quot;type&quot;:&quot;tree::any&quot;,&quot;value&quot;:{&quot;Enabled&quot;:{&quot;type&quot;:&quot;bool&quot;,&quot;value&quot;:true},&quot;ReduceHum&quot;:{&quot;type&quot;:&quot;tree::any&quot;,&quot;value&quot;:{&quot;4&quot;:{&quot;type&quot;:&quot;tree::any&quot;,&quot;value&quot;:{&quot;Value&quot;:{&quot;type&quot;:&quot;float&quot;,&quot;value&quot;:7.143000602722168}}},&quot;9&quot;:{&quot;type&quot;:&quot;tree::any&quot;,&quot;value&quot;:{&quot;Value&quot;:{&quot;type&quot;:&quot;float&quot;,&quot;value&quot;:60}}}}}}},&quot;SoundEffectsSection&quot;:{&quot;type&quot;:&quot;tree::any&quot;,&quot;value&quot;:{&quot;Enabled&quot;:{&quot;type&quot;:&quot;bool&quot;,&quot;value&quot;:true},&quot;Reverb&quot;:{&quot;type&quot;:&quot;tree::any&quot;,&quot;value&quot;:{&quot;3&quot;:{&quot;type&quot;:&quot;tree::any&quot;,&quot;value&quot;:{&quot;Value&quot;:{&quot;type&quot;:&quot;float&quot;,&quot;value&quot;:2}}}}}}},&quot;VolumeSection&quot;:{&quot;type&quot;:&quot;tree::any&quot;,&quot;value&quot;:{&quot;Enabled&quot;:{&quot;type&quot;:&quot;bool&quot;,&quot;value&quot;:true}}}}}}"/>
          <component componentGuid="cbaa06d4-f255-4316-849d-fd730ace009f" componentID="Audition.Fader" id="clipGain" name="volume" powered="true">
            <parameter index="0" name="volume" parameterValue="1"/>
            <parameter index="1" name="static gain" parameterValue="1"/>
          </component>
          <component componentGuid="052abcd3-1e71-44f7-b593-160240f07d3f" componentID="Audition.Mute" id="clipMute" name="Mute" powered="true">
            <parameter index="0" parameterValue="0"/>
            <parameter index="1" name="mute" parameterValue="0"/>
          </component>
          <component componentGuid="3cda2eb8-e584-46f7-b2ff-eba5ff93af21" componentID="Audition.StereoPanner" id="clipPan" name="StereoPanner" powered="true">
            <parameter index="0" name="Pan" parameterValue="0"/>
          </component>
          <fadeIn crossFadeLinkType="linkedAsymmetric" endPoint="0" shape="19" startPoint="0" type="log"/>
          <fadeOut crossFadeLinkType="linkedAsymmetric" endPoint="2251395" shape="19" startPoint="2240370" type="log"/>
          <editParameter parameterIndex="0" slotIndex="4294967280"/>
          <editParameter parameterIndex="0" slotIndex="4294967281"/>
          <channelMap>
            <channel index="0" sourceIndex="0"/>
          </channelMap>
        </audioClip>
        <audioClip clipAutoCrossfade="true" crossFadeHeadClipID="-1" crossFadeTailClipID="-1" endPoint="100149532" fileID="0" hue="-1" id="23" lockedInTime="false" looped="false" name="Greg" offline="false" select="false" sourceInPoint="110328229" sourceOutPoint="111683337" startPoint="98794424" zOrder="27">
          <properties properties="{&quot;BasicAdjustmentsProperty&quot;:{&quot;type&quot;:&quot;tree::any&quot;,&quot;value&quot;:{&quot;AdjustmentMode&quot;:{&quot;type&quot;:&quot;UTF8String&quot;,&quot;value&quot;:&quot;dialog&quot;},&quot;ClaritySection&quot;:{&quot;type&quot;:&quot;tree::any&quot;,&quot;value&quot;:{&quot;Dynamics&quot;:{&quot;type&quot;:&quot;tree::any&quot;,&quot;value&quot;:{&quot;2&quot;:{&quot;type&quot;:&quot;tree::any&quot;,&quot;value&quot;:{&quot;Value&quot;:{&quot;type&quot;:&quot;float&quot;,&quot;value&quot;:3}}}}},&quot;Enabled&quot;:{&quot;type&quot;:&quot;bool&quot;,&quot;value&quot;:true}}},&quot;ClipType&quot;:{&quot;type&quot;:&quot;std::int32_t&quot;,&quot;value&quot;:1},&quot;EnhanceSpeechSection&quot;:{&quot;type&quot;:&quot;tree::any&quot;,&quot;value&quot;:{&quot;Enabled&quot;:{&quot;type&quot;:&quot;bool&quot;,&quot;value&quot;:true}}},&quot;PresetGuid&quot;:{&quot;type&quot;:&quot;UTF8String&quot;,&quot;value&quot;:&quot;bb717b4a-c0b1-4def-9040-3fb8e83b8a91&quot;},&quot;RestorationSection&quot;:{&quot;type&quot;:&quot;tree::any&quot;,&quot;value&quot;:{&quot;Enabled&quot;:{&quot;type&quot;:&quot;bool&quot;,&quot;value&quot;:true},&quot;ReduceHum&quot;:{&quot;type&quot;:&quot;tree::any&quot;,&quot;value&quot;:{&quot;4&quot;:{&quot;type&quot;:&quot;tree::any&quot;,&quot;value&quot;:{&quot;Value&quot;:{&quot;type&quot;:&quot;float&quot;,&quot;value&quot;:7.143000602722168}}},&quot;9&quot;:{&quot;type&quot;:&quot;tree::any&quot;,&quot;value&quot;:{&quot;Value&quot;:{&quot;type&quot;:&quot;float&quot;,&quot;value&quot;:60}}}}}}},&quot;SoundEffectsSection&quot;:{&quot;type&quot;:&quot;tree::any&quot;,&quot;value&quot;:{&quot;Enabled&quot;:{&quot;type&quot;:&quot;bool&quot;,&quot;value&quot;:true},&quot;Reverb&quot;:{&quot;type&quot;:&quot;tree::any&quot;,&quot;value&quot;:{&quot;3&quot;:{&quot;type&quot;:&quot;tree::any&quot;,&quot;value&quot;:{&quot;Value&quot;:{&quot;type&quot;:&quot;float&quot;,&quot;value&quot;:2}}}}}}},&quot;VolumeSection&quot;:{&quot;type&quot;:&quot;tree::any&quot;,&quot;value&quot;:{&quot;Enabled&quot;:{&quot;type&quot;:&quot;bool&quot;,&quot;value&quot;:true}}}}}}"/>
          <component componentGuid="54ab5c6d-3787-40fe-b736-f3f577f2f8c3" componentID="Audition.Fader" id="clipGain" name="volume" powered="true">
            <parameter index="0" name="volume" parameterValue="1"/>
            <parameter index="1" name="static gain" parameterValue="1"/>
          </component>
          <component componentGuid="acc5bf9a-600a-4fff-9c3a-8a9d32317565" componentID="Audition.Mute" id="clipMute" name="Mute" powered="true">
            <parameter index="0" parameterValue="0"/>
            <parameter index="1" name="mute" parameterValue="0"/>
          </component>
          <component componentGuid="27834f07-aaa0-464c-87b4-65c9365957a0" componentID="Audition.StereoPanner" id="clipPan" name="StereoPanner" powered="true">
            <parameter index="0" name="Pan" parameterValue="0"/>
          </component>
          <fadeIn crossFadeLinkType="linkedAsymmetric" endPoint="11025" shape="19" startPoint="0" type="log"/>
          <fadeOut crossFadeLinkType="linkedAsymmetric" endPoint="1355108" shape="19" startPoint="1344083" type="log"/>
          <editParameter parameterIndex="0" slotIndex="4294967280"/>
          <editParameter parameterIndex="0" slotIndex="4294967281"/>
          <channelMap>
            <channel index="0" sourceIndex="0"/>
          </channelMap>
        </audioClip>
        <audioClip clipAutoCrossfade="true" crossFadeHeadClipID="-1" crossFadeTailClipID="-1" endPoint="100279669" fileID="0" hue="-1" id="24" lockedInTime="false" looped="false" name="Greg" offline="false" select="false" sourceInPoint="111750648" sourceOutPoint="111813475" startPoint="100216842" zOrder="28">
          <properties properties="{&quot;BasicAdjustmentsProperty&quot;:{&quot;type&quot;:&quot;tree::any&quot;,&quot;value&quot;:{&quot;AdjustmentMode&quot;:{&quot;type&quot;:&quot;UTF8String&quot;,&quot;value&quot;:&quot;dialog&quot;},&quot;ClaritySection&quot;:{&quot;type&quot;:&quot;tree::any&quot;,&quot;value&quot;:{&quot;Dynamics&quot;:{&quot;type&quot;:&quot;tree::any&quot;,&quot;value&quot;:{&quot;2&quot;:{&quot;type&quot;:&quot;tree::any&quot;,&quot;value&quot;:{&quot;Value&quot;:{&quot;type&quot;:&quot;float&quot;,&quot;value&quot;:3}}}}},&quot;Enabled&quot;:{&quot;type&quot;:&quot;bool&quot;,&quot;value&quot;:true}}},&quot;ClipType&quot;:{&quot;type&quot;:&quot;std::int32_t&quot;,&quot;value&quot;:1},&quot;EnhanceSpeechSection&quot;:{&quot;type&quot;:&quot;tree::any&quot;,&quot;value&quot;:{&quot;Enabled&quot;:{&quot;type&quot;:&quot;bool&quot;,&quot;value&quot;:true}}},&quot;PresetGuid&quot;:{&quot;type&quot;:&quot;UTF8String&quot;,&quot;value&quot;:&quot;bb717b4a-c0b1-4def-9040-3fb8e83b8a91&quot;},&quot;RestorationSection&quot;:{&quot;type&quot;:&quot;tree::any&quot;,&quot;value&quot;:{&quot;Enabled&quot;:{&quot;type&quot;:&quot;bool&quot;,&quot;value&quot;:true},&quot;ReduceHum&quot;:{&quot;type&quot;:&quot;tree::any&quot;,&quot;value&quot;:{&quot;4&quot;:{&quot;type&quot;:&quot;tree::any&quot;,&quot;value&quot;:{&quot;Value&quot;:{&quot;type&quot;:&quot;float&quot;,&quot;value&quot;:7.143000602722168}}},&quot;9&quot;:{&quot;type&quot;:&quot;tree::any&quot;,&quot;value&quot;:{&quot;Value&quot;:{&quot;type&quot;:&quot;float&quot;,&quot;value&quot;:60}}}}}}},&quot;SoundEffectsSection&quot;:{&quot;type&quot;:&quot;tree::any&quot;,&quot;value&quot;:{&quot;Enabled&quot;:{&quot;type&quot;:&quot;bool&quot;,&quot;value&quot;:true},&quot;Reverb&quot;:{&quot;type&quot;:&quot;tree::any&quot;,&quot;value&quot;:{&quot;3&quot;:{&quot;type&quot;:&quot;tree::any&quot;,&quot;value&quot;:{&quot;Value&quot;:{&quot;type&quot;:&quot;float&quot;,&quot;value&quot;:2}}}}}}},&quot;VolumeSection&quot;:{&quot;type&quot;:&quot;tree::any&quot;,&quot;value&quot;:{&quot;Enabled&quot;:{&quot;type&quot;:&quot;bool&quot;,&quot;value&quot;:true}}}}}}"/>
          <component componentGuid="5766d2bd-fda4-4884-b197-2c1858e66198" componentID="Audition.Fader" id="clipGain" name="volume" powered="true">
            <parameter index="0" name="volume" parameterValue="1"/>
            <parameter index="1" name="static gain" parameterValue="1"/>
          </component>
          <component componentGuid="e25e1270-45a1-46f0-b2e2-f3789b25939d" componentID="Audition.Mute" id="clipMute" name="Mute" powered="true">
            <parameter index="0" parameterValue="0"/>
            <parameter index="1" name="mute" parameterValue="0"/>
          </component>
          <component componentGuid="2d6d45ca-3052-40ea-91cd-1d5afceeb8b2" componentID="Audition.StereoPanner" id="clipPan" name="StereoPanner" powered="true">
            <parameter index="0" name="Pan" parameterValue="0"/>
          </component>
          <fadeIn crossFadeLinkType="linkedAsymmetric" endPoint="11025" shape="19" startPoint="0" type="log"/>
          <fadeOut crossFadeLinkType="linkedAsymmetric" endPoint="62827" shape="19" startPoint="62827" type="log"/>
          <editParameter parameterIndex="0" slotIndex="4294967280"/>
          <editParameter parameterIndex="0" slotIndex="4294967281"/>
          <channelMap>
            <channel index="0" sourceIndex="0"/>
          </channelMap>
        </audioClip>
        <audioClip clipAutoCrossfade="true" crossFadeHeadClipID="-1" crossFadeTailClipID="-1" endPoint="101028844" fileID="0" hue="-1" id="25" lockedInTime="false" looped="false" name="Greg" offline="false" select="false" sourceInPoint="112128008" sourceOutPoint="112562649" startPoint="100594203" zOrder="25">
          <properties properties="{&quot;BasicAdjustmentsProperty&quot;:{&quot;type&quot;:&quot;tree::any&quot;,&quot;value&quot;:{&quot;AdjustmentMode&quot;:{&quot;type&quot;:&quot;UTF8String&quot;,&quot;value&quot;:&quot;dialog&quot;},&quot;ClaritySection&quot;:{&quot;type&quot;:&quot;tree::any&quot;,&quot;value&quot;:{&quot;Dynamics&quot;:{&quot;type&quot;:&quot;tree::any&quot;,&quot;value&quot;:{&quot;2&quot;:{&quot;type&quot;:&quot;tree::any&quot;,&quot;value&quot;:{&quot;Value&quot;:{&quot;type&quot;:&quot;float&quot;,&quot;value&quot;:3}}}}},&quot;Enabled&quot;:{&quot;type&quot;:&quot;bool&quot;,&quot;value&quot;:true}}},&quot;ClipType&quot;:{&quot;type&quot;:&quot;std::int32_t&quot;,&quot;value&quot;:1},&quot;EnhanceSpeechSection&quot;:{&quot;type&quot;:&quot;tree::any&quot;,&quot;value&quot;:{&quot;Enabled&quot;:{&quot;type&quot;:&quot;bool&quot;,&quot;value&quot;:true}}},&quot;PresetGuid&quot;:{&quot;type&quot;:&quot;UTF8String&quot;,&quot;value&quot;:&quot;bb717b4a-c0b1-4def-9040-3fb8e83b8a91&quot;},&quot;RestorationSection&quot;:{&quot;type&quot;:&quot;tree::any&quot;,&quot;value&quot;:{&quot;Enabled&quot;:{&quot;type&quot;:&quot;bool&quot;,&quot;value&quot;:true},&quot;ReduceHum&quot;:{&quot;type&quot;:&quot;tree::any&quot;,&quot;value&quot;:{&quot;4&quot;:{&quot;type&quot;:&quot;tree::any&quot;,&quot;value&quot;:{&quot;Value&quot;:{&quot;type&quot;:&quot;float&quot;,&quot;value&quot;:7.143000602722168}}},&quot;9&quot;:{&quot;type&quot;:&quot;tree::any&quot;,&quot;value&quot;:{&quot;Value&quot;:{&quot;type&quot;:&quot;float&quot;,&quot;value&quot;:60}}}}}}},&quot;SoundEffectsSection&quot;:{&quot;type&quot;:&quot;tree::any&quot;,&quot;value&quot;:{&quot;Enabled&quot;:{&quot;type&quot;:&quot;bool&quot;,&quot;value&quot;:true},&quot;Reverb&quot;:{&quot;type&quot;:&quot;tree::any&quot;,&quot;value&quot;:{&quot;3&quot;:{&quot;type&quot;:&quot;tree::any&quot;,&quot;value&quot;:{&quot;Value&quot;:{&quot;type&quot;:&quot;float&quot;,&quot;value&quot;:2}}}}}}},&quot;VolumeSection&quot;:{&quot;type&quot;:&quot;tree::any&quot;,&quot;value&quot;:{&quot;Enabled&quot;:{&quot;type&quot;:&quot;bool&quot;,&quot;value&quot;:true}}}}}}"/>
          <component componentGuid="68e182b8-ba2c-43bf-9758-90899c1e6098" componentID="Audition.Fader" id="clipGain" name="volume" powered="true">
            <parameter index="0" name="volume" parameterValue="1"/>
            <parameter index="1" name="static gain" parameterValue="1"/>
          </component>
          <component componentGuid="5570e56e-d87d-4d7b-9a26-9c9e8509efde" componentID="Audition.Mute" id="clipMute" name="Mute" powered="true">
            <parameter index="0" parameterValue="0"/>
            <parameter index="1" name="mute" parameterValue="0"/>
          </component>
          <component componentGuid="2a4a77ff-257f-44d6-b869-409c97c7f843" componentID="Audition.StereoPanner" id="clipPan" name="StereoPanner" powered="true">
            <parameter index="0" name="Pan" parameterValue="0"/>
          </component>
          <fadeIn crossFadeLinkType="linkedAsymmetric" endPoint="11025" shape="19" startPoint="0" type="log"/>
          <fadeOut crossFadeLinkType="linkedAsymmetric" endPoint="434641" shape="19" startPoint="423616" type="log"/>
          <editParameter parameterIndex="0" slotIndex="4294967280"/>
          <editParameter parameterIndex="0" slotIndex="4294967281"/>
          <channelMap>
            <channel index="0" sourceIndex="0"/>
          </channelMap>
        </audioClip>
        <audioClip clipAutoCrossfade="true" crossFadeHeadClipID="-1" crossFadeTailClipID="-1" endPoint="107603507" fileID="0" hue="-1" id="26" lockedInTime="false" looped="false" name="Greg" offline="false" select="false" sourceInPoint="112930043" sourceOutPoint="119137311" startPoint="101396239" zOrder="22">
          <properties properties="{&quot;BasicAdjustmentsProperty&quot;:{&quot;type&quot;:&quot;tree::any&quot;,&quot;value&quot;:{&quot;AdjustmentMode&quot;:{&quot;type&quot;:&quot;UTF8String&quot;,&quot;value&quot;:&quot;dialog&quot;},&quot;ClaritySection&quot;:{&quot;type&quot;:&quot;tree::any&quot;,&quot;value&quot;:{&quot;Dynamics&quot;:{&quot;type&quot;:&quot;tree::any&quot;,&quot;value&quot;:{&quot;2&quot;:{&quot;type&quot;:&quot;tree::any&quot;,&quot;value&quot;:{&quot;Value&quot;:{&quot;type&quot;:&quot;float&quot;,&quot;value&quot;:3}}}}},&quot;Enabled&quot;:{&quot;type&quot;:&quot;bool&quot;,&quot;value&quot;:true}}},&quot;ClipType&quot;:{&quot;type&quot;:&quot;std::int32_t&quot;,&quot;value&quot;:1},&quot;EnhanceSpeechSection&quot;:{&quot;type&quot;:&quot;tree::any&quot;,&quot;value&quot;:{&quot;Enabled&quot;:{&quot;type&quot;:&quot;bool&quot;,&quot;value&quot;:true}}},&quot;PresetGuid&quot;:{&quot;type&quot;:&quot;UTF8String&quot;,&quot;value&quot;:&quot;bb717b4a-c0b1-4def-9040-3fb8e83b8a91&quot;},&quot;RestorationSection&quot;:{&quot;type&quot;:&quot;tree::any&quot;,&quot;value&quot;:{&quot;Enabled&quot;:{&quot;type&quot;:&quot;bool&quot;,&quot;value&quot;:true},&quot;ReduceHum&quot;:{&quot;type&quot;:&quot;tree::any&quot;,&quot;value&quot;:{&quot;4&quot;:{&quot;type&quot;:&quot;tree::any&quot;,&quot;value&quot;:{&quot;Value&quot;:{&quot;type&quot;:&quot;float&quot;,&quot;value&quot;:7.143000602722168}}},&quot;9&quot;:{&quot;type&quot;:&quot;tree::any&quot;,&quot;value&quot;:{&quot;Value&quot;:{&quot;type&quot;:&quot;float&quot;,&quot;value&quot;:60}}}}}}},&quot;SoundEffectsSection&quot;:{&quot;type&quot;:&quot;tree::any&quot;,&quot;value&quot;:{&quot;Enabled&quot;:{&quot;type&quot;:&quot;bool&quot;,&quot;value&quot;:true},&quot;Reverb&quot;:{&quot;type&quot;:&quot;tree::any&quot;,&quot;value&quot;:{&quot;3&quot;:{&quot;type&quot;:&quot;tree::any&quot;,&quot;value&quot;:{&quot;Value&quot;:{&quot;type&quot;:&quot;float&quot;,&quot;value&quot;:2}}}}}}},&quot;VolumeSection&quot;:{&quot;type&quot;:&quot;tree::any&quot;,&quot;value&quot;:{&quot;Enabled&quot;:{&quot;type&quot;:&quot;bool&quot;,&quot;value&quot;:true}}}}}}"/>
          <component componentGuid="c56e9567-02f2-4597-ad8e-fcdc83faef53" componentID="Audition.Fader" id="clipGain" name="volume" powered="true">
            <parameter index="0" name="volume" parameterValue="1"/>
            <parameter index="1" name="static gain" parameterValue="1"/>
          </component>
          <component componentGuid="678df342-0286-448a-a880-2b9d40d637b5" componentID="Audition.Mute" id="clipMute" name="Mute" powered="true">
            <parameter index="0" parameterValue="0"/>
            <parameter index="1" name="mute" parameterValue="0"/>
          </component>
          <component componentGuid="d2319378-21be-4a6a-90b5-6d3d048f6289" componentID="Audition.StereoPanner" id="clipPan" name="StereoPanner" powered="true">
            <parameter index="0" name="Pan" parameterValue="0"/>
          </component>
          <fadeIn crossFadeLinkType="linkedAsymmetric" endPoint="11025" shape="19" startPoint="0" type="log"/>
          <fadeOut crossFadeLinkType="linkedAsymmetric" endPoint="6207268" shape="19" startPoint="6196243" type="log"/>
          <editParameter parameterIndex="0" slotIndex="4294967280"/>
          <editParameter parameterIndex="0" slotIndex="4294967281"/>
          <channelMap>
            <channel index="0" sourceIndex="0"/>
          </channelMap>
        </audioClip>
        <audioClip clipAutoCrossfade="true" crossFadeHeadClipID="-1" crossFadeTailClipID="-1" endPoint="117520860" fileID="0" hue="-1" id="27" lockedInTime="false" looped="false" name="Greg" offline="false" select="false" sourceInPoint="119188482" sourceOutPoint="129054665" startPoint="107654677" zOrder="29">
          <properties properties="{&quot;BasicAdjustmentsProperty&quot;:{&quot;type&quot;:&quot;tree::any&quot;,&quot;value&quot;:{&quot;AdjustmentMode&quot;:{&quot;type&quot;:&quot;UTF8String&quot;,&quot;value&quot;:&quot;dialog&quot;},&quot;ClaritySection&quot;:{&quot;type&quot;:&quot;tree::any&quot;,&quot;value&quot;:{&quot;Dynamics&quot;:{&quot;type&quot;:&quot;tree::any&quot;,&quot;value&quot;:{&quot;2&quot;:{&quot;type&quot;:&quot;tree::any&quot;,&quot;value&quot;:{&quot;Value&quot;:{&quot;type&quot;:&quot;float&quot;,&quot;value&quot;:3}}}}},&quot;Enabled&quot;:{&quot;type&quot;:&quot;bool&quot;,&quot;value&quot;:true}}},&quot;ClipType&quot;:{&quot;type&quot;:&quot;std::int32_t&quot;,&quot;value&quot;:1},&quot;EnhanceSpeechSection&quot;:{&quot;type&quot;:&quot;tree::any&quot;,&quot;value&quot;:{&quot;Enabled&quot;:{&quot;type&quot;:&quot;bool&quot;,&quot;value&quot;:true}}},&quot;PresetGuid&quot;:{&quot;type&quot;:&quot;UTF8String&quot;,&quot;value&quot;:&quot;bb717b4a-c0b1-4def-9040-3fb8e83b8a91&quot;},&quot;RestorationSection&quot;:{&quot;type&quot;:&quot;tree::any&quot;,&quot;value&quot;:{&quot;Enabled&quot;:{&quot;type&quot;:&quot;bool&quot;,&quot;value&quot;:true},&quot;ReduceHum&quot;:{&quot;type&quot;:&quot;tree::any&quot;,&quot;value&quot;:{&quot;4&quot;:{&quot;type&quot;:&quot;tree::any&quot;,&quot;value&quot;:{&quot;Value&quot;:{&quot;type&quot;:&quot;float&quot;,&quot;value&quot;:7.143000602722168}}},&quot;9&quot;:{&quot;type&quot;:&quot;tree::any&quot;,&quot;value&quot;:{&quot;Value&quot;:{&quot;type&quot;:&quot;float&quot;,&quot;value&quot;:60}}}}}}},&quot;SoundEffectsSection&quot;:{&quot;type&quot;:&quot;tree::any&quot;,&quot;value&quot;:{&quot;Enabled&quot;:{&quot;type&quot;:&quot;bool&quot;,&quot;value&quot;:true},&quot;Reverb&quot;:{&quot;type&quot;:&quot;tree::any&quot;,&quot;value&quot;:{&quot;3&quot;:{&quot;type&quot;:&quot;tree::any&quot;,&quot;value&quot;:{&quot;Value&quot;:{&quot;type&quot;:&quot;float&quot;,&quot;value&quot;:2}}}}}}},&quot;VolumeSection&quot;:{&quot;type&quot;:&quot;tree::any&quot;,&quot;value&quot;:{&quot;Enabled&quot;:{&quot;type&quot;:&quot;bool&quot;,&quot;value&quot;:true}}}}}}"/>
          <component componentGuid="f6e2a100-da6a-454b-a2bc-bf23b1337375" componentID="Audition.Fader" id="clipGain" name="volume" powered="true">
            <parameter index="0" name="volume" parameterValue="1"/>
            <parameter index="1" name="static gain" parameterValue="1"/>
          </component>
          <component componentGuid="a3bd3809-baf0-492d-b49b-baab7ad29852" componentID="Audition.Mute" id="clipMute" name="Mute" powered="true">
            <parameter index="0" parameterValue="0"/>
            <parameter index="1" name="mute" parameterValue="0"/>
          </component>
          <component componentGuid="7661ad8d-7487-41d9-9a76-1879a3b653a5" componentID="Audition.StereoPanner" id="clipPan" name="StereoPanner" powered="true">
            <parameter index="0" name="Pan" parameterValue="0"/>
          </component>
          <fadeIn crossFadeLinkType="linkedAsymmetric" endPoint="11025" shape="19" startPoint="0" type="log"/>
          <fadeOut crossFadeLinkType="linkedAsymmetric" endPoint="9866183" shape="19" startPoint="9855158" type="log"/>
          <editParameter parameterIndex="0" slotIndex="4294967280"/>
          <editParameter parameterIndex="0" slotIndex="4294967281"/>
          <channelMap>
            <channel index="0" sourceIndex="0"/>
          </channelMap>
        </audioClip>
        <audioClip clipAutoCrossfade="true" crossFadeHeadClipID="-1" crossFadeTailClipID="29" endPoint="124586504" fileID="0" hue="-1" id="28" lockedInTime="false" looped="false" name="Greg" offline="false" select="false" sourceInPoint="129113487" sourceOutPoint="136119427" startPoint="117580564" zOrder="30">
          <properties properties="{&quot;BasicAdjustmentsProperty&quot;:{&quot;type&quot;:&quot;tree::any&quot;,&quot;value&quot;:{&quot;AdjustmentMode&quot;:{&quot;type&quot;:&quot;UTF8String&quot;,&quot;value&quot;:&quot;dialog&quot;},&quot;ClaritySection&quot;:{&quot;type&quot;:&quot;tree::any&quot;,&quot;value&quot;:{&quot;Dynamics&quot;:{&quot;type&quot;:&quot;tree::any&quot;,&quot;value&quot;:{&quot;2&quot;:{&quot;type&quot;:&quot;tree::any&quot;,&quot;value&quot;:{&quot;Value&quot;:{&quot;type&quot;:&quot;float&quot;,&quot;value&quot;:3}}}}},&quot;Enabled&quot;:{&quot;type&quot;:&quot;bool&quot;,&quot;value&quot;:true}}},&quot;ClipType&quot;:{&quot;type&quot;:&quot;std::int32_t&quot;,&quot;value&quot;:1},&quot;EnhanceSpeechSection&quot;:{&quot;type&quot;:&quot;tree::any&quot;,&quot;value&quot;:{&quot;Enabled&quot;:{&quot;type&quot;:&quot;bool&quot;,&quot;value&quot;:true}}},&quot;PresetGuid&quot;:{&quot;type&quot;:&quot;UTF8String&quot;,&quot;value&quot;:&quot;bb717b4a-c0b1-4def-9040-3fb8e83b8a91&quot;},&quot;RestorationSection&quot;:{&quot;type&quot;:&quot;tree::any&quot;,&quot;value&quot;:{&quot;Enabled&quot;:{&quot;type&quot;:&quot;bool&quot;,&quot;value&quot;:true},&quot;ReduceHum&quot;:{&quot;type&quot;:&quot;tree::any&quot;,&quot;value&quot;:{&quot;4&quot;:{&quot;type&quot;:&quot;tree::any&quot;,&quot;value&quot;:{&quot;Value&quot;:{&quot;type&quot;:&quot;float&quot;,&quot;value&quot;:7.143000602722168}}},&quot;9&quot;:{&quot;type&quot;:&quot;tree::any&quot;,&quot;value&quot;:{&quot;Value&quot;:{&quot;type&quot;:&quot;float&quot;,&quot;value&quot;:60}}}}}}},&quot;SoundEffectsSection&quot;:{&quot;type&quot;:&quot;tree::any&quot;,&quot;value&quot;:{&quot;Enabled&quot;:{&quot;type&quot;:&quot;bool&quot;,&quot;value&quot;:true},&quot;Reverb&quot;:{&quot;type&quot;:&quot;tree::any&quot;,&quot;value&quot;:{&quot;3&quot;:{&quot;type&quot;:&quot;tree::any&quot;,&quot;value&quot;:{&quot;Value&quot;:{&quot;type&quot;:&quot;float&quot;,&quot;value&quot;:2}}}}}}},&quot;VolumeSection&quot;:{&quot;type&quot;:&quot;tree::any&quot;,&quot;value&quot;:{&quot;Enabled&quot;:{&quot;type&quot;:&quot;bool&quot;,&quot;value&quot;:true}}}}},&quot;TempData&quot;:{&quot;type&quot;:&quot;tree::any&quot;,&quot;value&quot;:{}}}"/>
          <component componentGuid="4d6fa8f3-121f-4212-8b3e-bc8110b3d749" componentID="Audition.Fader" id="clipGain" name="volume" powered="true">
            <parameter index="0" name="volume" parameterValue="1"/>
            <parameter index="1" name="static gain" parameterValue="1"/>
          </component>
          <component componentGuid="e4dced94-aea8-4e6e-9ac9-dbc08707cc3a" componentID="Audition.Mute" id="clipMute" name="Mute" powered="true">
            <parameter index="0" parameterValue="0"/>
            <parameter index="1" name="mute" parameterValue="0"/>
          </component>
          <component componentGuid="4b6a44cc-267d-4115-a724-e4c0c3abf34c" componentID="Audition.StereoPanner" id="clipPan" name="StereoPanner" powered="true">
            <parameter index="0" name="Pan" parameterValue="0"/>
          </component>
          <fadeIn crossFadeLinkType="linkedAsymmetric" endPoint="11025" shape="19" startPoint="0" type="log"/>
          <fadeOut crossFadeLinkType="linkedAsymmetric" endPoint="7005940" shape="19" startPoint="6995063" type="log"/>
          <editParameter parameterIndex="0" slotIndex="4294967280"/>
          <editParameter parameterIndex="0" slotIndex="4294967281"/>
          <channelMap>
            <channel index="0" sourceIndex="0"/>
          </channelMap>
        </audioClip>
        <audioClip clipAutoCrossfade="true" crossFadeHeadClipID="28" crossFadeTailClipID="-1" endPoint="125179961" fileID="0" hue="-1" id="29" lockedInTime="false" looped="false" name="Greg" offline="false" select="false" sourceInPoint="138138346" sourceOutPoint="138742680" startPoint="124575627" zOrder="166">
          <properties properties="{&quot;BasicAdjustmentsProperty&quot;:{&quot;type&quot;:&quot;tree::any&quot;,&quot;value&quot;:{&quot;AdjustmentMode&quot;:{&quot;type&quot;:&quot;UTF8String&quot;,&quot;value&quot;:&quot;dialog&quot;},&quot;ClaritySection&quot;:{&quot;type&quot;:&quot;tree::any&quot;,&quot;value&quot;:{&quot;Dynamics&quot;:{&quot;type&quot;:&quot;tree::any&quot;,&quot;value&quot;:{&quot;2&quot;:{&quot;type&quot;:&quot;tree::any&quot;,&quot;value&quot;:{&quot;Value&quot;:{&quot;type&quot;:&quot;float&quot;,&quot;value&quot;:3}}}}},&quot;Enabled&quot;:{&quot;type&quot;:&quot;bool&quot;,&quot;value&quot;:true}}},&quot;ClipType&quot;:{&quot;type&quot;:&quot;std::int32_t&quot;,&quot;value&quot;:1},&quot;EnhanceSpeechSection&quot;:{&quot;type&quot;:&quot;tree::any&quot;,&quot;value&quot;:{&quot;Enabled&quot;:{&quot;type&quot;:&quot;bool&quot;,&quot;value&quot;:true}}},&quot;PresetGuid&quot;:{&quot;type&quot;:&quot;UTF8String&quot;,&quot;value&quot;:&quot;bb717b4a-c0b1-4def-9040-3fb8e83b8a91&quot;},&quot;RestorationSection&quot;:{&quot;type&quot;:&quot;tree::any&quot;,&quot;value&quot;:{&quot;Enabled&quot;:{&quot;type&quot;:&quot;bool&quot;,&quot;value&quot;:true},&quot;ReduceHum&quot;:{&quot;type&quot;:&quot;tree::any&quot;,&quot;value&quot;:{&quot;4&quot;:{&quot;type&quot;:&quot;tree::any&quot;,&quot;value&quot;:{&quot;Value&quot;:{&quot;type&quot;:&quot;float&quot;,&quot;value&quot;:7.143000602722168}}},&quot;9&quot;:{&quot;type&quot;:&quot;tree::any&quot;,&quot;value&quot;:{&quot;Value&quot;:{&quot;type&quot;:&quot;float&quot;,&quot;value&quot;:60}}}}}}},&quot;SoundEffectsSection&quot;:{&quot;type&quot;:&quot;tree::any&quot;,&quot;value&quot;:{&quot;Enabled&quot;:{&quot;type&quot;:&quot;bool&quot;,&quot;value&quot;:true},&quot;Reverb&quot;:{&quot;type&quot;:&quot;tree::any&quot;,&quot;value&quot;:{&quot;3&quot;:{&quot;type&quot;:&quot;tree::any&quot;,&quot;value&quot;:{&quot;Value&quot;:{&quot;type&quot;:&quot;float&quot;,&quot;value&quot;:2}}}}}}},&quot;VolumeSection&quot;:{&quot;type&quot;:&quot;tree::any&quot;,&quot;value&quot;:{&quot;Enabled&quot;:{&quot;type&quot;:&quot;bool&quot;,&quot;value&quot;:true}}}}},&quot;TempData&quot;:{&quot;type&quot;:&quot;tree::any&quot;,&quot;value&quot;:{}}}"/>
          <component componentGuid="acc70cee-d781-42b0-8b0b-78fb2f2cdc54" componentID="Audition.Fader" id="clipGain" name="volume" powered="true">
            <parameter index="0" name="volume" parameterValue="1"/>
            <parameter index="1" name="static gain" parameterValue="1"/>
          </component>
          <component componentGuid="fd95590d-af8e-4d98-a4a9-5301d4bac690" componentID="Audition.Mute" id="clipMute" name="Mute" powered="true">
            <parameter index="0" parameterValue="0"/>
            <parameter index="1" name="mute" parameterValue="0"/>
          </component>
          <component componentGuid="136faef7-df32-4cf8-b4a0-166f2b2058bf" componentID="Audition.StereoPanner" id="clipPan" name="StereoPanner" powered="true">
            <parameter index="0" name="Pan" parameterValue="0"/>
          </component>
          <fadeIn crossFadeLinkType="linkedAsymmetric" endPoint="10877" shape="18" startPoint="0" type="log"/>
          <fadeOut crossFadeLinkType="linkedAsymmetric" endPoint="604334" shape="19" startPoint="593309" type="log"/>
          <editParameter parameterIndex="0" slotIndex="4294967280"/>
          <editParameter parameterIndex="0" slotIndex="4294967281"/>
          <channelMap>
            <channel index="0" sourceIndex="0"/>
          </channelMap>
        </audioClip>
        <audioClip clipAutoCrossfade="true" crossFadeHeadClipID="-1" crossFadeTailClipID="-1" endPoint="126475251" fileID="0" hue="-1" id="30" lockedInTime="false" looped="false" name="Greg" offline="false" select="false" sourceInPoint="139133074" sourceOutPoint="140038853" startPoint="125569472" zOrder="170">
          <properties properties="{&quot;BasicAdjustmentsProperty&quot;:{&quot;type&quot;:&quot;tree::any&quot;,&quot;value&quot;:{&quot;AdjustmentMode&quot;:{&quot;type&quot;:&quot;UTF8String&quot;,&quot;value&quot;:&quot;dialog&quot;},&quot;ClaritySection&quot;:{&quot;type&quot;:&quot;tree::any&quot;,&quot;value&quot;:{&quot;Dynamics&quot;:{&quot;type&quot;:&quot;tree::any&quot;,&quot;value&quot;:{&quot;2&quot;:{&quot;type&quot;:&quot;tree::any&quot;,&quot;value&quot;:{&quot;Value&quot;:{&quot;type&quot;:&quot;float&quot;,&quot;value&quot;:3}}}}},&quot;Enabled&quot;:{&quot;type&quot;:&quot;bool&quot;,&quot;value&quot;:true}}},&quot;ClipType&quot;:{&quot;type&quot;:&quot;std::int32_t&quot;,&quot;value&quot;:1},&quot;EnhanceSpeechSection&quot;:{&quot;type&quot;:&quot;tree::any&quot;,&quot;value&quot;:{&quot;Enabled&quot;:{&quot;type&quot;:&quot;bool&quot;,&quot;value&quot;:true}}},&quot;PresetGuid&quot;:{&quot;type&quot;:&quot;UTF8String&quot;,&quot;value&quot;:&quot;bb717b4a-c0b1-4def-9040-3fb8e83b8a91&quot;},&quot;RestorationSection&quot;:{&quot;type&quot;:&quot;tree::any&quot;,&quot;value&quot;:{&quot;Enabled&quot;:{&quot;type&quot;:&quot;bool&quot;,&quot;value&quot;:true},&quot;ReduceHum&quot;:{&quot;type&quot;:&quot;tree::any&quot;,&quot;value&quot;:{&quot;4&quot;:{&quot;type&quot;:&quot;tree::any&quot;,&quot;value&quot;:{&quot;Value&quot;:{&quot;type&quot;:&quot;float&quot;,&quot;value&quot;:7.143000602722168}}},&quot;9&quot;:{&quot;type&quot;:&quot;tree::any&quot;,&quot;value&quot;:{&quot;Value&quot;:{&quot;type&quot;:&quot;float&quot;,&quot;value&quot;:60}}}}}}},&quot;SoundEffectsSection&quot;:{&quot;type&quot;:&quot;tree::any&quot;,&quot;value&quot;:{&quot;Enabled&quot;:{&quot;type&quot;:&quot;bool&quot;,&quot;value&quot;:true},&quot;Reverb&quot;:{&quot;type&quot;:&quot;tree::any&quot;,&quot;value&quot;:{&quot;3&quot;:{&quot;type&quot;:&quot;tree::any&quot;,&quot;value&quot;:{&quot;Value&quot;:{&quot;type&quot;:&quot;float&quot;,&quot;value&quot;:2}}}}}}},&quot;VolumeSection&quot;:{&quot;type&quot;:&quot;tree::any&quot;,&quot;value&quot;:{&quot;Enabled&quot;:{&quot;type&quot;:&quot;bool&quot;,&quot;value&quot;:true}}}}},&quot;TempData&quot;:{&quot;type&quot;:&quot;tree::any&quot;,&quot;value&quot;:{}}}"/>
          <component componentGuid="7b3665f4-8fca-488a-be55-71bb3e224b69" componentID="Audition.Fader" id="clipGain" name="volume" powered="true">
            <parameter index="0" name="volume" parameterValue="1"/>
            <parameter index="1" name="static gain" parameterValue="1"/>
          </component>
          <component componentGuid="ca75ae3e-a9ff-4628-aa99-f252df9698bd" componentID="Audition.Mute" id="clipMute" name="Mute" powered="true">
            <parameter index="0" parameterValue="0"/>
            <parameter index="1" name="mute" parameterValue="0"/>
          </component>
          <component componentGuid="359c6828-70d6-4c1f-8423-683d99a4ce52" componentID="Audition.StereoPanner" id="clipPan" name="StereoPanner" powered="true">
            <parameter index="0" name="Pan" parameterValue="0"/>
          </component>
          <fadeIn crossFadeLinkType="linkedAsymmetric" endPoint="11025" shape="19" startPoint="0" type="log"/>
          <fadeOut crossFadeLinkType="linkedAsymmetric" endPoint="905779" shape="19" startPoint="894754" type="log"/>
          <editParameter parameterIndex="0" slotIndex="4294967280"/>
          <editParameter parameterIndex="0" slotIndex="4294967281"/>
          <channelMap>
            <channel index="0" sourceIndex="0"/>
          </channelMap>
        </audioClip>
        <audioClip clipAutoCrossfade="true" crossFadeHeadClipID="-1" crossFadeTailClipID="-1" endPoint="127206268" fileID="0" hue="-1" id="31" lockedInTime="false" looped="false" name="Greg" offline="false" select="false" sourceInPoint="140109360" sourceOutPoint="140769870" startPoint="126545758" zOrder="168">
          <properties properties="{&quot;BasicAdjustmentsProperty&quot;:{&quot;type&quot;:&quot;tree::any&quot;,&quot;value&quot;:{&quot;AdjustmentMode&quot;:{&quot;type&quot;:&quot;UTF8String&quot;,&quot;value&quot;:&quot;dialog&quot;},&quot;ClaritySection&quot;:{&quot;type&quot;:&quot;tree::any&quot;,&quot;value&quot;:{&quot;Dynamics&quot;:{&quot;type&quot;:&quot;tree::any&quot;,&quot;value&quot;:{&quot;2&quot;:{&quot;type&quot;:&quot;tree::any&quot;,&quot;value&quot;:{&quot;Value&quot;:{&quot;type&quot;:&quot;float&quot;,&quot;value&quot;:3}}}}},&quot;Enabled&quot;:{&quot;type&quot;:&quot;bool&quot;,&quot;value&quot;:true}}},&quot;ClipType&quot;:{&quot;type&quot;:&quot;std::int32_t&quot;,&quot;value&quot;:1},&quot;EnhanceSpeechSection&quot;:{&quot;type&quot;:&quot;tree::any&quot;,&quot;value&quot;:{&quot;Enabled&quot;:{&quot;type&quot;:&quot;bool&quot;,&quot;value&quot;:true}}},&quot;PresetGuid&quot;:{&quot;type&quot;:&quot;UTF8String&quot;,&quot;value&quot;:&quot;bb717b4a-c0b1-4def-9040-3fb8e83b8a91&quot;},&quot;RestorationSection&quot;:{&quot;type&quot;:&quot;tree::any&quot;,&quot;value&quot;:{&quot;Enabled&quot;:{&quot;type&quot;:&quot;bool&quot;,&quot;value&quot;:true},&quot;ReduceHum&quot;:{&quot;type&quot;:&quot;tree::any&quot;,&quot;value&quot;:{&quot;4&quot;:{&quot;type&quot;:&quot;tree::any&quot;,&quot;value&quot;:{&quot;Value&quot;:{&quot;type&quot;:&quot;float&quot;,&quot;value&quot;:7.143000602722168}}},&quot;9&quot;:{&quot;type&quot;:&quot;tree::any&quot;,&quot;value&quot;:{&quot;Value&quot;:{&quot;type&quot;:&quot;float&quot;,&quot;value&quot;:60}}}}}}},&quot;SoundEffectsSection&quot;:{&quot;type&quot;:&quot;tree::any&quot;,&quot;value&quot;:{&quot;Enabled&quot;:{&quot;type&quot;:&quot;bool&quot;,&quot;value&quot;:true},&quot;Reverb&quot;:{&quot;type&quot;:&quot;tree::any&quot;,&quot;value&quot;:{&quot;3&quot;:{&quot;type&quot;:&quot;tree::any&quot;,&quot;value&quot;:{&quot;Value&quot;:{&quot;type&quot;:&quot;float&quot;,&quot;value&quot;:2}}}}}}},&quot;VolumeSection&quot;:{&quot;type&quot;:&quot;tree::any&quot;,&quot;value&quot;:{&quot;Enabled&quot;:{&quot;type&quot;:&quot;bool&quot;,&quot;value&quot;:true}}}}},&quot;TempData&quot;:{&quot;type&quot;:&quot;tree::any&quot;,&quot;value&quot;:{}}}"/>
          <component componentGuid="8410afff-4a5b-48e7-b606-2c5aafbe326e" componentID="Audition.Fader" id="clipGain" name="volume" powered="true">
            <parameter index="0" name="volume" parameterValue="1"/>
            <parameter index="1" name="static gain" parameterValue="1"/>
          </component>
          <component componentGuid="c89844a8-2b22-4fb1-a10c-e25434f1bf8c" componentID="Audition.Mute" id="clipMute" name="Mute" powered="true">
            <parameter index="0" parameterValue="0"/>
            <parameter index="1" name="mute" parameterValue="0"/>
          </component>
          <component componentGuid="a70313ab-fbe7-4045-837b-dca1b336cd1b" componentID="Audition.StereoPanner" id="clipPan" name="StereoPanner" powered="true">
            <parameter index="0" name="Pan" parameterValue="0"/>
          </component>
          <fadeIn crossFadeLinkType="linkedAsymmetric" endPoint="11025" shape="19" startPoint="0" type="log"/>
          <fadeOut crossFadeLinkType="linkedAsymmetric" endPoint="660510" shape="19" startPoint="649485" type="log"/>
          <editParameter parameterIndex="0" slotIndex="4294967280"/>
          <editParameter parameterIndex="0" slotIndex="4294967281"/>
          <channelMap>
            <channel index="0" sourceIndex="0"/>
          </channelMap>
        </audioClip>
        <audioClip clipAutoCrossfade="true" crossFadeHeadClipID="-1" crossFadeTailClipID="-1" endPoint="128301663" fileID="0" hue="-1" id="32" lockedInTime="false" looped="false" name="Greg" offline="false" select="false" sourceInPoint="141797578" sourceOutPoint="141865263" startPoint="128233978" zOrder="172">
          <properties properties="{&quot;BasicAdjustmentsProperty&quot;:{&quot;type&quot;:&quot;tree::any&quot;,&quot;value&quot;:{&quot;AdjustmentMode&quot;:{&quot;type&quot;:&quot;UTF8String&quot;,&quot;value&quot;:&quot;dialog&quot;},&quot;ClaritySection&quot;:{&quot;type&quot;:&quot;tree::any&quot;,&quot;value&quot;:{&quot;Dynamics&quot;:{&quot;type&quot;:&quot;tree::any&quot;,&quot;value&quot;:{&quot;2&quot;:{&quot;type&quot;:&quot;tree::any&quot;,&quot;value&quot;:{&quot;Value&quot;:{&quot;type&quot;:&quot;float&quot;,&quot;value&quot;:3}}}}},&quot;Enabled&quot;:{&quot;type&quot;:&quot;bool&quot;,&quot;value&quot;:true}}},&quot;ClipType&quot;:{&quot;type&quot;:&quot;std::int32_t&quot;,&quot;value&quot;:1},&quot;EnhanceSpeechSection&quot;:{&quot;type&quot;:&quot;tree::any&quot;,&quot;value&quot;:{&quot;Enabled&quot;:{&quot;type&quot;:&quot;bool&quot;,&quot;value&quot;:true}}},&quot;PresetGuid&quot;:{&quot;type&quot;:&quot;UTF8String&quot;,&quot;value&quot;:&quot;bb717b4a-c0b1-4def-9040-3fb8e83b8a91&quot;},&quot;RestorationSection&quot;:{&quot;type&quot;:&quot;tree::any&quot;,&quot;value&quot;:{&quot;Enabled&quot;:{&quot;type&quot;:&quot;bool&quot;,&quot;value&quot;:true},&quot;ReduceHum&quot;:{&quot;type&quot;:&quot;tree::any&quot;,&quot;value&quot;:{&quot;4&quot;:{&quot;type&quot;:&quot;tree::any&quot;,&quot;value&quot;:{&quot;Value&quot;:{&quot;type&quot;:&quot;float&quot;,&quot;value&quot;:7.143000602722168}}},&quot;9&quot;:{&quot;type&quot;:&quot;tree::any&quot;,&quot;value&quot;:{&quot;Value&quot;:{&quot;type&quot;:&quot;float&quot;,&quot;value&quot;:60}}}}}}},&quot;SoundEffectsSection&quot;:{&quot;type&quot;:&quot;tree::any&quot;,&quot;value&quot;:{&quot;Enabled&quot;:{&quot;type&quot;:&quot;bool&quot;,&quot;value&quot;:true},&quot;Reverb&quot;:{&quot;type&quot;:&quot;tree::any&quot;,&quot;value&quot;:{&quot;3&quot;:{&quot;type&quot;:&quot;tree::any&quot;,&quot;value&quot;:{&quot;Value&quot;:{&quot;type&quot;:&quot;float&quot;,&quot;value&quot;:2}}}}}}},&quot;VolumeSection&quot;:{&quot;type&quot;:&quot;tree::any&quot;,&quot;value&quot;:{&quot;Enabled&quot;:{&quot;type&quot;:&quot;bool&quot;,&quot;value&quot;:true}}}}},&quot;TempData&quot;:{&quot;type&quot;:&quot;tree::any&quot;,&quot;value&quot;:{}}}"/>
          <component componentGuid="10a50bf2-77d1-424f-a02a-580e869d756b" componentID="Audition.Fader" id="clipGain" name="volume" powered="true">
            <parameter index="0" name="volume" parameterValue="1"/>
            <parameter index="1" name="static gain" parameterValue="1"/>
          </component>
          <component componentGuid="35432c38-da6f-4df7-83fa-f9e7120dae51" componentID="Audition.Mute" id="clipMute" name="Mute" powered="true">
            <parameter index="0" parameterValue="0"/>
            <parameter index="1" name="mute" parameterValue="0"/>
          </component>
          <component componentGuid="ff34ab13-3d8d-44ac-a51f-b65e28cf8096" componentID="Audition.StereoPanner" id="clipPan" name="StereoPanner" powered="true">
            <parameter index="0" name="Pan" parameterValue="0"/>
          </component>
          <fadeIn crossFadeLinkType="linkedAsymmetric" endPoint="11025" shape="19" startPoint="0" type="log"/>
          <fadeOut crossFadeLinkType="linkedAsymmetric" endPoint="67685" shape="19" startPoint="56660" type="log"/>
          <editParameter parameterIndex="0" slotIndex="4294967280"/>
          <editParameter parameterIndex="0" slotIndex="4294967281"/>
          <channelMap>
            <channel index="0" sourceIndex="0"/>
          </channelMap>
        </audioClip>
        <audioClip clipAutoCrossfade="true" crossFadeHeadClipID="-1" crossFadeTailClipID="-1" endPoint="128671132" fileID="0" hue="-1" id="33" lockedInTime="false" looped="false" name="Greg" offline="false" select="false" sourceInPoint="142084429" sourceOutPoint="142234732" startPoint="128520829" zOrder="178">
          <properties properties="{&quot;BasicAdjustmentsProperty&quot;:{&quot;type&quot;:&quot;tree::any&quot;,&quot;value&quot;:{&quot;AdjustmentMode&quot;:{&quot;type&quot;:&quot;UTF8String&quot;,&quot;value&quot;:&quot;dialog&quot;},&quot;ClaritySection&quot;:{&quot;type&quot;:&quot;tree::any&quot;,&quot;value&quot;:{&quot;Dynamics&quot;:{&quot;type&quot;:&quot;tree::any&quot;,&quot;value&quot;:{&quot;2&quot;:{&quot;type&quot;:&quot;tree::any&quot;,&quot;value&quot;:{&quot;Value&quot;:{&quot;type&quot;:&quot;float&quot;,&quot;value&quot;:3}}}}},&quot;Enabled&quot;:{&quot;type&quot;:&quot;bool&quot;,&quot;value&quot;:true}}},&quot;ClipType&quot;:{&quot;type&quot;:&quot;std::int32_t&quot;,&quot;value&quot;:1},&quot;EnhanceSpeechSection&quot;:{&quot;type&quot;:&quot;tree::any&quot;,&quot;value&quot;:{&quot;Enabled&quot;:{&quot;type&quot;:&quot;bool&quot;,&quot;value&quot;:true}}},&quot;PresetGuid&quot;:{&quot;type&quot;:&quot;UTF8String&quot;,&quot;value&quot;:&quot;bb717b4a-c0b1-4def-9040-3fb8e83b8a91&quot;},&quot;RestorationSection&quot;:{&quot;type&quot;:&quot;tree::any&quot;,&quot;value&quot;:{&quot;Enabled&quot;:{&quot;type&quot;:&quot;bool&quot;,&quot;value&quot;:true},&quot;ReduceHum&quot;:{&quot;type&quot;:&quot;tree::any&quot;,&quot;value&quot;:{&quot;4&quot;:{&quot;type&quot;:&quot;tree::any&quot;,&quot;value&quot;:{&quot;Value&quot;:{&quot;type&quot;:&quot;float&quot;,&quot;value&quot;:7.143000602722168}}},&quot;9&quot;:{&quot;type&quot;:&quot;tree::any&quot;,&quot;value&quot;:{&quot;Value&quot;:{&quot;type&quot;:&quot;float&quot;,&quot;value&quot;:60}}}}}}},&quot;SoundEffectsSection&quot;:{&quot;type&quot;:&quot;tree::any&quot;,&quot;value&quot;:{&quot;Enabled&quot;:{&quot;type&quot;:&quot;bool&quot;,&quot;value&quot;:true},&quot;Reverb&quot;:{&quot;type&quot;:&quot;tree::any&quot;,&quot;value&quot;:{&quot;3&quot;:{&quot;type&quot;:&quot;tree::any&quot;,&quot;value&quot;:{&quot;Value&quot;:{&quot;type&quot;:&quot;float&quot;,&quot;value&quot;:2}}}}}}},&quot;VolumeSection&quot;:{&quot;type&quot;:&quot;tree::any&quot;,&quot;value&quot;:{&quot;Enabled&quot;:{&quot;type&quot;:&quot;bool&quot;,&quot;value&quot;:true}}}}},&quot;TempData&quot;:{&quot;type&quot;:&quot;tree::any&quot;,&quot;value&quot;:{}}}"/>
          <component componentGuid="18fb03a3-1665-4b44-bf77-af942e9b0fca" componentID="Audition.Fader" id="clipGain" name="volume" powered="true">
            <parameter index="0" name="volume" parameterValue="1"/>
            <parameter index="1" name="static gain" parameterValue="1"/>
          </component>
          <component componentGuid="5fd1dbc3-b94a-4111-a44e-d9e72622ac70" componentID="Audition.Mute" id="clipMute" name="Mute" powered="true">
            <parameter index="0" parameterValue="0"/>
            <parameter index="1" name="mute" parameterValue="0"/>
          </component>
          <component componentGuid="24608f3b-104b-4074-bbde-7a442e123f19" componentID="Audition.StereoPanner" id="clipPan" name="StereoPanner" powered="true">
            <parameter index="0" name="Pan" parameterValue="0"/>
          </component>
          <fadeIn crossFadeLinkType="linkedAsymmetric" endPoint="11025" shape="19" startPoint="0" type="log"/>
          <fadeOut crossFadeLinkType="linkedAsymmetric" endPoint="150303" shape="19" startPoint="150303" type="log"/>
          <editParameter parameterIndex="0" slotIndex="4294967280"/>
          <editParameter parameterIndex="0" slotIndex="4294967281"/>
          <channelMap>
            <channel index="0" sourceIndex="0"/>
          </channelMap>
        </audioClip>
        <audioClip clipAutoCrossfade="true" crossFadeHeadClipID="-1" crossFadeTailClipID="-1" endPoint="134029890" fileID="0" hue="-1" id="34" lockedInTime="false" looped="false" name="Greg" offline="false" select="false" sourceInPoint="146213707" sourceOutPoint="147639657" startPoint="132603940" zOrder="205">
          <properties properties="{&quot;BasicAdjustmentsProperty&quot;:{&quot;type&quot;:&quot;tree::any&quot;,&quot;value&quot;:{&quot;AdjustmentMode&quot;:{&quot;type&quot;:&quot;UTF8String&quot;,&quot;value&quot;:&quot;dialog&quot;},&quot;ClaritySection&quot;:{&quot;type&quot;:&quot;tree::any&quot;,&quot;value&quot;:{&quot;Dynamics&quot;:{&quot;type&quot;:&quot;tree::any&quot;,&quot;value&quot;:{&quot;2&quot;:{&quot;type&quot;:&quot;tree::any&quot;,&quot;value&quot;:{&quot;Value&quot;:{&quot;type&quot;:&quot;float&quot;,&quot;value&quot;:3}}}}},&quot;Enabled&quot;:{&quot;type&quot;:&quot;bool&quot;,&quot;value&quot;:true}}},&quot;ClipType&quot;:{&quot;type&quot;:&quot;std::int32_t&quot;,&quot;value&quot;:1},&quot;EnhanceSpeechSection&quot;:{&quot;type&quot;:&quot;tree::any&quot;,&quot;value&quot;:{&quot;Enabled&quot;:{&quot;type&quot;:&quot;bool&quot;,&quot;value&quot;:true}}},&quot;PresetGuid&quot;:{&quot;type&quot;:&quot;UTF8String&quot;,&quot;value&quot;:&quot;bb717b4a-c0b1-4def-9040-3fb8e83b8a91&quot;},&quot;RestorationSection&quot;:{&quot;type&quot;:&quot;tree::any&quot;,&quot;value&quot;:{&quot;Enabled&quot;:{&quot;type&quot;:&quot;bool&quot;,&quot;value&quot;:true},&quot;ReduceHum&quot;:{&quot;type&quot;:&quot;tree::any&quot;,&quot;value&quot;:{&quot;4&quot;:{&quot;type&quot;:&quot;tree::any&quot;,&quot;value&quot;:{&quot;Value&quot;:{&quot;type&quot;:&quot;float&quot;,&quot;value&quot;:7.143000602722168}}},&quot;9&quot;:{&quot;type&quot;:&quot;tree::any&quot;,&quot;value&quot;:{&quot;Value&quot;:{&quot;type&quot;:&quot;float&quot;,&quot;value&quot;:60}}}}}}},&quot;SoundEffectsSection&quot;:{&quot;type&quot;:&quot;tree::any&quot;,&quot;value&quot;:{&quot;Enabled&quot;:{&quot;type&quot;:&quot;bool&quot;,&quot;value&quot;:true},&quot;Reverb&quot;:{&quot;type&quot;:&quot;tree::any&quot;,&quot;value&quot;:{&quot;3&quot;:{&quot;type&quot;:&quot;tree::any&quot;,&quot;value&quot;:{&quot;Value&quot;:{&quot;type&quot;:&quot;float&quot;,&quot;value&quot;:2}}}}}}},&quot;VolumeSection&quot;:{&quot;type&quot;:&quot;tree::any&quot;,&quot;value&quot;:{&quot;Enabled&quot;:{&quot;type&quot;:&quot;bool&quot;,&quot;value&quot;:true}}}}},&quot;TempData&quot;:{&quot;type&quot;:&quot;tree::any&quot;,&quot;value&quot;:{}}}"/>
          <component componentGuid="c3017aa3-21c1-4bde-8eca-017772e55fca" componentID="Audition.Fader" id="clipGain" name="volume" powered="true">
            <parameter index="0" name="volume" parameterValue="1"/>
            <parameter index="1" name="static gain" parameterValue="1"/>
          </component>
          <component componentGuid="55694846-4608-4286-9b32-15ec90e22c88" componentID="Audition.Mute" id="clipMute" name="Mute" powered="true">
            <parameter index="0" parameterValue="0"/>
            <parameter index="1" name="mute" parameterValue="0"/>
          </component>
          <component componentGuid="8efd017f-a7ff-4c38-9c61-8ef58730f6bc" componentID="Audition.StereoPanner" id="clipPan" name="StereoPanner" powered="true">
            <parameter index="0" name="Pan" parameterValue="0"/>
          </component>
          <fadeIn crossFadeLinkType="linkedAsymmetric" endPoint="11025" shape="19" startPoint="0" type="log"/>
          <fadeOut crossFadeLinkType="linkedAsymmetric" endPoint="1425950" shape="19" startPoint="1414925" type="log"/>
          <editParameter parameterIndex="0" slotIndex="4294967280"/>
          <editParameter parameterIndex="0" slotIndex="4294967281"/>
          <channelMap>
            <channel index="0" sourceIndex="0"/>
          </channelMap>
        </audioClip>
        <audioClip clipAutoCrossfade="true" crossFadeHeadClipID="-1" crossFadeTailClipID="-1" endPoint="137280487" fileID="0" hue="-1" id="35" lockedInTime="false" looped="false" name="Greg" offline="false" select="false" sourceInPoint="147686556" sourceOutPoint="150891577" startPoint="134075466" zOrder="201">
          <properties properties="{&quot;BasicAdjustmentsProperty&quot;:{&quot;type&quot;:&quot;tree::any&quot;,&quot;value&quot;:{&quot;AdjustmentMode&quot;:{&quot;type&quot;:&quot;UTF8String&quot;,&quot;value&quot;:&quot;dialog&quot;},&quot;ClaritySection&quot;:{&quot;type&quot;:&quot;tree::any&quot;,&quot;value&quot;:{&quot;Dynamics&quot;:{&quot;type&quot;:&quot;tree::any&quot;,&quot;value&quot;:{&quot;2&quot;:{&quot;type&quot;:&quot;tree::any&quot;,&quot;value&quot;:{&quot;Value&quot;:{&quot;type&quot;:&quot;float&quot;,&quot;value&quot;:3}}}}},&quot;Enabled&quot;:{&quot;type&quot;:&quot;bool&quot;,&quot;value&quot;:true}}},&quot;ClipType&quot;:{&quot;type&quot;:&quot;std::int32_t&quot;,&quot;value&quot;:1},&quot;EnhanceSpeechSection&quot;:{&quot;type&quot;:&quot;tree::any&quot;,&quot;value&quot;:{&quot;Enabled&quot;:{&quot;type&quot;:&quot;bool&quot;,&quot;value&quot;:true}}},&quot;PresetGuid&quot;:{&quot;type&quot;:&quot;UTF8String&quot;,&quot;value&quot;:&quot;bb717b4a-c0b1-4def-9040-3fb8e83b8a91&quot;},&quot;RestorationSection&quot;:{&quot;type&quot;:&quot;tree::any&quot;,&quot;value&quot;:{&quot;Enabled&quot;:{&quot;type&quot;:&quot;bool&quot;,&quot;value&quot;:true},&quot;ReduceHum&quot;:{&quot;type&quot;:&quot;tree::any&quot;,&quot;value&quot;:{&quot;4&quot;:{&quot;type&quot;:&quot;tree::any&quot;,&quot;value&quot;:{&quot;Value&quot;:{&quot;type&quot;:&quot;float&quot;,&quot;value&quot;:7.143000602722168}}},&quot;9&quot;:{&quot;type&quot;:&quot;tree::any&quot;,&quot;value&quot;:{&quot;Value&quot;:{&quot;type&quot;:&quot;float&quot;,&quot;value&quot;:60}}}}}}},&quot;SoundEffectsSection&quot;:{&quot;type&quot;:&quot;tree::any&quot;,&quot;value&quot;:{&quot;Enabled&quot;:{&quot;type&quot;:&quot;bool&quot;,&quot;value&quot;:true},&quot;Reverb&quot;:{&quot;type&quot;:&quot;tree::any&quot;,&quot;value&quot;:{&quot;3&quot;:{&quot;type&quot;:&quot;tree::any&quot;,&quot;value&quot;:{&quot;Value&quot;:{&quot;type&quot;:&quot;float&quot;,&quot;value&quot;:2}}}}}}},&quot;VolumeSection&quot;:{&quot;type&quot;:&quot;tree::any&quot;,&quot;value&quot;:{&quot;Enabled&quot;:{&quot;type&quot;:&quot;bool&quot;,&quot;value&quot;:true}}}}},&quot;TempData&quot;:{&quot;type&quot;:&quot;tree::any&quot;,&quot;value&quot;:{}}}"/>
          <component componentGuid="bdf8d705-5936-4e4c-9127-dba8da7e5280" componentID="Audition.Fader" id="clipGain" name="volume" powered="true">
            <parameter index="0" name="volume" parameterValue="1"/>
            <parameter index="1" name="static gain" parameterValue="1"/>
          </component>
          <component componentGuid="e8b3e16a-3ae7-452c-9249-a6443ddbca94" componentID="Audition.Mute" id="clipMute" name="Mute" powered="true">
            <parameter index="0" parameterValue="0"/>
            <parameter index="1" name="mute" parameterValue="0"/>
          </component>
          <component componentGuid="ec919533-4001-427a-a19d-6fbf421c7bab" componentID="Audition.StereoPanner" id="clipPan" name="StereoPanner" powered="true">
            <parameter index="0" name="Pan" parameterValue="0"/>
          </component>
          <fadeIn crossFadeLinkType="linkedAsymmetric" endPoint="11025" shape="19" startPoint="0" type="log"/>
          <fadeOut crossFadeLinkType="linkedAsymmetric" endPoint="3205021" shape="19" startPoint="3193996" type="log"/>
          <editParameter parameterIndex="0" slotIndex="4294967280"/>
          <editParameter parameterIndex="0" slotIndex="4294967281"/>
          <channelMap>
            <channel index="0" sourceIndex="0"/>
          </channelMap>
        </audioClip>
        <audioClip clipAutoCrossfade="true" crossFadeHeadClipID="-1" crossFadeTailClipID="-1" endPoint="138282343" fileID="0" hue="-1" id="36" lockedInTime="false" looped="false" name="Greg" offline="false" select="false" sourceInPoint="151819690" sourceOutPoint="151893432" startPoint="138208601" zOrder="206">
          <properties properties="{&quot;BasicAdjustmentsProperty&quot;:{&quot;type&quot;:&quot;tree::any&quot;,&quot;value&quot;:{&quot;AdjustmentMode&quot;:{&quot;type&quot;:&quot;UTF8String&quot;,&quot;value&quot;:&quot;dialog&quot;},&quot;ClaritySection&quot;:{&quot;type&quot;:&quot;tree::any&quot;,&quot;value&quot;:{&quot;Dynamics&quot;:{&quot;type&quot;:&quot;tree::any&quot;,&quot;value&quot;:{&quot;2&quot;:{&quot;type&quot;:&quot;tree::any&quot;,&quot;value&quot;:{&quot;Value&quot;:{&quot;type&quot;:&quot;float&quot;,&quot;value&quot;:3}}}}},&quot;Enabled&quot;:{&quot;type&quot;:&quot;bool&quot;,&quot;value&quot;:true}}},&quot;ClipType&quot;:{&quot;type&quot;:&quot;std::int32_t&quot;,&quot;value&quot;:1},&quot;EnhanceSpeechSection&quot;:{&quot;type&quot;:&quot;tree::any&quot;,&quot;value&quot;:{&quot;Enabled&quot;:{&quot;type&quot;:&quot;bool&quot;,&quot;value&quot;:true}}},&quot;PresetGuid&quot;:{&quot;type&quot;:&quot;UTF8String&quot;,&quot;value&quot;:&quot;bb717b4a-c0b1-4def-9040-3fb8e83b8a91&quot;},&quot;RestorationSection&quot;:{&quot;type&quot;:&quot;tree::any&quot;,&quot;value&quot;:{&quot;Enabled&quot;:{&quot;type&quot;:&quot;bool&quot;,&quot;value&quot;:true},&quot;ReduceHum&quot;:{&quot;type&quot;:&quot;tree::any&quot;,&quot;value&quot;:{&quot;4&quot;:{&quot;type&quot;:&quot;tree::any&quot;,&quot;value&quot;:{&quot;Value&quot;:{&quot;type&quot;:&quot;float&quot;,&quot;value&quot;:7.143000602722168}}},&quot;9&quot;:{&quot;type&quot;:&quot;tree::any&quot;,&quot;value&quot;:{&quot;Value&quot;:{&quot;type&quot;:&quot;float&quot;,&quot;value&quot;:60}}}}}}},&quot;SoundEffectsSection&quot;:{&quot;type&quot;:&quot;tree::any&quot;,&quot;value&quot;:{&quot;Enabled&quot;:{&quot;type&quot;:&quot;bool&quot;,&quot;value&quot;:true},&quot;Reverb&quot;:{&quot;type&quot;:&quot;tree::any&quot;,&quot;value&quot;:{&quot;3&quot;:{&quot;type&quot;:&quot;tree::any&quot;,&quot;value&quot;:{&quot;Value&quot;:{&quot;type&quot;:&quot;float&quot;,&quot;value&quot;:2}}}}}}},&quot;VolumeSection&quot;:{&quot;type&quot;:&quot;tree::any&quot;,&quot;value&quot;:{&quot;Enabled&quot;:{&quot;type&quot;:&quot;bool&quot;,&quot;value&quot;:true}}}}},&quot;TempData&quot;:{&quot;type&quot;:&quot;tree::any&quot;,&quot;value&quot;:{}}}"/>
          <component componentGuid="0432f813-ff43-4a7a-ae98-2d4dd440bb98" componentID="Audition.Fader" id="clipGain" name="volume" powered="true">
            <parameter index="0" name="volume" parameterValue="1"/>
            <parameter index="1" name="static gain" parameterValue="1"/>
          </component>
          <component componentGuid="009f6879-6a03-4996-8a2f-8dcf020daf28" componentID="Audition.Mute" id="clipMute" name="Mute" powered="true">
            <parameter index="0" parameterValue="0"/>
            <parameter index="1" name="mute" parameterValue="0"/>
          </component>
          <component componentGuid="1da03ed1-de9c-4671-92ee-e8d1c565e84f" componentID="Audition.StereoPanner" id="clipPan" name="StereoPanner" powered="true">
            <parameter index="0" name="Pan" parameterValue="0"/>
          </component>
          <fadeIn crossFadeLinkType="linkedAsymmetric" endPoint="11025" shape="19" startPoint="0" type="log"/>
          <fadeOut crossFadeLinkType="linkedAsymmetric" endPoint="73742" shape="19" startPoint="62717" type="log"/>
          <editParameter parameterIndex="0" slotIndex="4294967280"/>
          <editParameter parameterIndex="0" slotIndex="4294967281"/>
          <channelMap>
            <channel index="0" sourceIndex="0"/>
          </channelMap>
        </audioClip>
      </audioTrack>
      <audioTrack automationLaneOpenState="false" id="10002" index="2" select="false" visible="true">
        <trackParameters trackHeight="229" trackHue="267" trackMinimized="false">
          <name>Emily</name>
        </trackParameters>
        <trackAudioParameters audioChannelType="stereo" automationMode="1" monitoring="false" recordArmed="false" solo="false" soloSafe="false">
          <trackOutput outputID="10007" type="trackID"/>
          <trackInput inputID="1"/>
          <component componentGuid="40861051-40ae-4448-9c4a-e1b4ddc9be2f" componentID="Audition.Fader" id="trackFader" name="volume" powered="true">
            <parameter index="0" name="volume" parameterValue="1"/>
            <parameter index="1" name="static gain" parameterValue="1"/>
          </component>
          <component componentGuid="d7bb231a-c3a5-4215-abaa-220c7f06db0d" componentID="Audition.Mute" id="trackMute" name="Mute" powered="true">
            <parameter index="0" parameterValue="0"/>
            <parameter index="1" name="mute" parameterValue="0"/>
          </component>
          <component componentGuid="5dae2327-3f39-4489-83d2-01e230ef1c36" componentID="Audition.StereoPanner" id="trackPan" name="StereoPanner" powered="true">
            <parameter index="0" name="Pan" parameterValue="-10"/>
          </component>
          <component componentGuid="c39053e4-b293-4271-a49f-60ed80a9a343" componentID="Audition.EQ" id="trackEQ" name="EQ" powered="false">
            <parameter index="0" name="Low Shelf Frequency" parameterValue="0.0009078529546968638896942138671875"/>
            <parameter index="1" name="Low Shelf Gain" parameterValue="0.5"/>
            <parameter index="2" name="High Shelf Frequency" parameterValue="0.816159784793853759765625"/>
            <parameter index="3" name="High Shelf Gain" parameterValue="0.5"/>
            <parameter index="4" name="EQ Band 1 Center Frequency" parameterValue="0.0013617794029414653778076171875"/>
            <parameter index="5" name="EQ Band 1 Q" parameterValue="0.000199989997781813144683837890625"/>
            <parameter index="6" name="EQ Band 1 Gain" parameterValue="0.5"/>
            <parameter index="7" name="EQ Band 1 Enable" parameterValue="1"/>
            <parameter index="8" name="EQ Band 2 Center Frequency" parameterValue="0.008170676417648792266845703125"/>
            <parameter index="9" name="EQ Band 2 Q" parameterValue="0.000199989997781813144683837890625"/>
            <parameter index="10" name="EQ Band 2 Gain" parameterValue="0.5"/>
            <parameter index="11" name="EQ Band 2 Enable" parameterValue="1"/>
            <parameter index="12" name="EQ Band 3 Center Frequency" parameterValue="0.0354062654078006744384765625"/>
            <parameter index="13" name="EQ Band 3 Q" parameterValue="0.000199989997781813144683837890625"/>
            <parameter index="14" name="EQ Band 3 Gain" parameterValue="0.5"/>
            <parameter index="15" name="EQ Band 3 Enable" parameterValue="1"/>
            <parameter index="16" name="EQ Band 4 Center Frequency" parameterValue="0.144348621368408203125"/>
            <parameter index="17" name="EQ Band 4 Q" parameterValue="0.000199989997781813144683837890625"/>
            <parameter index="18" name="EQ Band 4 Gain" parameterValue="0.5"/>
            <parameter index="19" name="EQ Band 4 Enable" parameterValue="1"/>
            <parameter index="20" name="EQ Band 5 Center Frequency" parameterValue="0.580118000507354736328125"/>
            <parameter index="21" name="EQ Band 5 Q" parameterValue="0.000199989997781813144683837890625"/>
            <parameter index="22" name="EQ Band 5 Gain" parameterValue="0.5"/>
            <parameter index="23" name="EQ Band 5 Enable" parameterValue="1"/>
            <parameter index="24" name="Gain" parameterValue="0.666666686534881591796875"/>
            <parameter index="25" name="ConstantQ" parameterValue="1"/>
            <parameter index="26" name="Low Shelf Filter Order" parameterValue="0"/>
            <parameter index="27" name="High Shelf Filter Order" parameterValue="0"/>
            <parameter index="28" name="Ultra-Quiet Mode" parameterValue="0"/>
            <parameter index="29" name="Low Shelf Enable" parameterValue="1"/>
            <parameter index="30" name="High Shelf Enable" parameterValue="1"/>
            <parameter index="31" name="Original Sample Rate" parameterValue="0.22968749701976776123046875"/>
            <parameter index="32" name="EQ Band 1 Bandwidth" parameterValue="0.002499990165233612060546875"/>
            <parameter index="33" name="EQ Band 2 Bandwidth" parameterValue="0.0099999904632568359375"/>
            <parameter index="34" name="EQ Band 3 Bandwidth" parameterValue="0.0399999916553497314453125"/>
            <parameter index="35" name="EQ Band 4 Bandwidth" parameterValue="0.15999998152256011962890625"/>
            <parameter index="36" name="EQ Band 5 Bandwidth" parameterValue="0.63999998569488525390625"/>
            <parameter index="37" name="High-Pass Filter Enable" parameterValue="0"/>
            <parameter index="38" name="High-Pass Cutoff Frequency" parameterValue="0"/>
            <parameter index="39" name="High-Pass Slope" parameterValue="0.4000000059604644775390625"/>
            <parameter index="40" name="Low-Pass Filter Enable" parameterValue="0"/>
            <parameter index="41" name="Low-Pass Cutoff Frequency" parameterValue="0.906945049762725830078125"/>
            <parameter index="42" name="Low-Pass Slope" parameterValue="0.4000000059604644775390625"/>
            <parameter index="43" name="Bypass" parameterValue="0"/>
            <parameter index="44" name="LowGraphRange" parameterValue="1"/>
          </component>
        </trackAudioParameters>
        <effectsRack preFader="true">
          <component componentGuid="8013f244-629f-48d0-a88b-1ca19ec498d0" componentID="Audition.ComponentGroup" id="rackMix" powered="true">
            <parameter index="0" parameterValue="0"/>
            <parameter index="1" parameterValue="0"/>
          </component>
          <component componentGuid="0973792a-e50b-4214-904f-b34744b67d40" id="rackInput" powered="true">
            <parameter index="0" parameterValue="1"/>
            <parameter index="1" parameterValue="0"/>
          </component>
          <component componentGuid="8ba68d35-d121-42e4-852d-87bd5b47a2d6" id="rackOutput" powered="true">
            <parameter index="0" parameterValue="1"/>
            <parameter index="1" parameterValue="0"/>
          </component>
          <slot powered="true" slotIndex="0">
            <component componentGuid="f36a2d32-ee38-4fc7-99c5-adbd8b66153c" componentID="f76dad9c-77da-477a-9939-eefefc5c23bd" name="Dynamics Processing" presetName="(Default)">
              <busConfig><![CDATA[{"in":[{"layout":[100,101],"name":"","type":0},{"layout":[100,101],"name":"Side-Chain In","type":1}],"out":[{"layout":[100,101],"name":"","type":0}]}]]></busConfig>
              <channelMap direction="input">
                <channel index="0" sourceIndex="0"/>
                <channel index="1" sourceIndex="1"/>
              </channelMap>
              <parameter index="0" name="Level Detector - Attack Time" parameterValue="0.00200000009499490261077880859375"/>
              <parameter index="1" name="Level Detector - Release Time" parameterValue="0.0500000007450580596923828125"/>
              <parameter index="2" name="Gain Processor - Attack Time" parameterValue="0.048000000417232513427734375"/>
              <parameter index="3" name="Gain Processor - Release Time" parameterValue="0.0500000007450580596923828125"/>
              <parameter index="4" name="Lookahead Time" parameterValue="0.006000000052154064178466796875"/>
              <parameter index="5" name="Input Gain" parameterValue="0.5"/>
              <parameter index="6" name="Output Gain" parameterValue="0.5"/>
              <parameter index="7" name="Low Cutoff" parameterValue="0"/>
              <parameter index="8" name="High Cutoff" parameterValue="1"/>
              <parameter index="9" name="Lock Filter" parameterValue="0"/>
              <parameter index="10" name="Number of X/Y Pairs" parameterValue="0.857142865657806396484375"/>
              <parameter index="11" name="Link Channels" parameterValue="0"/>
              <parameter index="12" name="Peak/RMS" parameterValue="1"/>
              <parameter index="13" name="Envelope Only" parameterValue="0"/>
              <parameter index="14" name="Spline Curves" parameterValue="1"/>
              <parameter index="15" name="Noise Gating (if expanding more than 50:1)" parameterValue="0"/>
              <parameter index="16" name="Current Tab" parameterValue="1"/>
              <parameter index="17" name="Location1" parameterValue="0"/>
              <parameter index="18" name="Value1" parameterValue="0"/>
              <parameter index="19" name="Location2" parameterValue="0.1923006474971771240234375"/>
              <parameter index="20" name="Value2" parameterValue="0.0769202411174774169921875"/>
              <parameter index="21" name="Location3" parameterValue="0.3076810538768768310546875"/>
              <parameter index="22" name="Value3" parameterValue="0.2522984445095062255859375"/>
              <parameter index="23" name="Location4" parameterValue="0.394601285457611083984375"/>
              <parameter index="24" name="Value4" parameterValue="0.394601285457611083984375"/>
              <parameter index="25" name="Location5" parameterValue="0.62390124797821044921875"/>
              <parameter index="26" name="Value5" parameterValue="0.775458276271820068359375"/>
              <parameter index="27" name="Location6" parameterValue="1"/>
              <parameter index="28" name="Value6" parameterValue="0.98800003528594970703125"/>
              <parameter index="29" name="Location7" parameterValue="0.5"/>
              <parameter index="30" name="Value7" parameterValue="0.5"/>
              <parameter index="31" name="Make-Up Gain" parameterValue="0"/>
            </component>
          </slot>
        </effectsRack>
        <editParameter parameterIndex="0" slotIndex="4294967280"/>
        <audioClip clipAutoCrossfade="true" crossFadeHeadClipID="-1" crossFadeTailClipID="-1" endPoint="2390136" fileID="1" hue="-1" id="0" lockedInTime="false" looped="false" name="Emily" offline="false" select="false" sourceInPoint="8368446" sourceOutPoint="10317582" startPoint="441000" zOrder="3">
          <properties properties="{&quot;BasicAdjustmentsProperty&quot;:{&quot;type&quot;:&quot;tree::any&quot;,&quot;value&quot;:{&quot;AdjustmentMode&quot;:{&quot;type&quot;:&quot;UTF8String&quot;,&quot;value&quot;:&quot;dialog&quot;},&quot;ClaritySection&quot;:{&quot;type&quot;:&quot;tree::any&quot;,&quot;value&quot;:{&quot;Dynamics&quot;:{&quot;type&quot;:&quot;tree::any&quot;,&quot;value&quot;:{&quot;2&quot;:{&quot;type&quot;:&quot;tree::any&quot;,&quot;value&quot;:{&quot;Value&quot;:{&quot;type&quot;:&quot;float&quot;,&quot;value&quot;:3}}}}},&quot;Enabled&quot;:{&quot;type&quot;:&quot;bool&quot;,&quot;value&quot;:true}}},&quot;ClipType&quot;:{&quot;type&quot;:&quot;std::int32_t&quot;,&quot;value&quot;:1},&quot;EnhanceSpeechSection&quot;:{&quot;type&quot;:&quot;tree::any&quot;,&quot;value&quot;:{&quot;Enabled&quot;:{&quot;type&quot;:&quot;bool&quot;,&quot;value&quot;:true}}},&quot;PresetGuid&quot;:{&quot;type&quot;:&quot;UTF8String&quot;,&quot;value&quot;:&quot;bb717b4a-c0b1-4def-9040-3fb8e83b8a91&quot;},&quot;RestorationSection&quot;:{&quot;type&quot;:&quot;tree::any&quot;,&quot;value&quot;:{&quot;Enabled&quot;:{&quot;type&quot;:&quot;bool&quot;,&quot;value&quot;:true},&quot;ReduceHum&quot;:{&quot;type&quot;:&quot;tree::any&quot;,&quot;value&quot;:{&quot;4&quot;:{&quot;type&quot;:&quot;tree::any&quot;,&quot;value&quot;:{&quot;Value&quot;:{&quot;type&quot;:&quot;float&quot;,&quot;value&quot;:7.143000602722168}}},&quot;9&quot;:{&quot;type&quot;:&quot;tree::any&quot;,&quot;value&quot;:{&quot;Value&quot;:{&quot;type&quot;:&quot;float&quot;,&quot;value&quot;:60}}}}}}},&quot;SoundEffectsSection&quot;:{&quot;type&quot;:&quot;tree::any&quot;,&quot;value&quot;:{&quot;Enabled&quot;:{&quot;type&quot;:&quot;bool&quot;,&quot;value&quot;:true},&quot;Reverb&quot;:{&quot;type&quot;:&quot;tree::any&quot;,&quot;value&quot;:{&quot;3&quot;:{&quot;type&quot;:&quot;tree::any&quot;,&quot;value&quot;:{&quot;Value&quot;:{&quot;type&quot;:&quot;float&quot;,&quot;value&quot;:2}}}}}}},&quot;VolumeSection&quot;:{&quot;type&quot;:&quot;tree::any&quot;,&quot;value&quot;:{&quot;Enabled&quot;:{&quot;type&quot;:&quot;bool&quot;,&quot;value&quot;:true}}}}},&quot;TempData&quot;:{&quot;type&quot;:&quot;tree::any&quot;,&quot;value&quot;:{}}}"/>
          <component componentGuid="4a8ae5a6-4aaf-4865-81e2-d39536504e4b" componentID="Audition.Fader" id="clipGain" name="volume" powered="true">
            <parameter index="0" name="volume" parameterValue="1"/>
            <parameter index="1" name="static gain" parameterValue="1"/>
          </component>
          <component componentGuid="190b8fc2-0827-46d9-a6ac-7ef87649e23a" componentID="Audition.Mute" id="clipMute" name="Mute" powered="true">
            <parameter index="0" parameterValue="0"/>
            <parameter index="1" name="mute" parameterValue="0"/>
          </component>
          <component componentGuid="2431a309-90ec-4c78-8e55-aec3c5d11c42" componentID="Audition.StereoPanner" id="clipPan" name="StereoPanner" powered="true">
            <parameter index="0" name="Pan" parameterValue="0"/>
          </component>
          <fadeIn crossFadeLinkType="linkedAsymmetric" endPoint="0" shape="19" startPoint="0" type="log"/>
          <fadeOut crossFadeLinkType="linkedAsymmetric" endPoint="1949136" shape="19" startPoint="1938111" type="log"/>
          <editParameter parameterIndex="0" slotIndex="4294967280"/>
          <editParameter parameterIndex="0" slotIndex="4294967281"/>
          <channelMap>
            <channel index="0" sourceIndex="0"/>
          </channelMap>
        </audioClip>
        <audioClip clipAutoCrossfade="true" crossFadeHeadClipID="-1" crossFadeTailClipID="-1" endPoint="4064340" fileID="1" hue="-1" id="1" lockedInTime="false" looped="false" name="Emily" offline="false" select="false" sourceInPoint="11917426" sourceOutPoint="11991786" startPoint="3989980" zOrder="0">
          <properties properties="{&quot;BasicAdjustmentsProperty&quot;:{&quot;type&quot;:&quot;tree::any&quot;,&quot;value&quot;:{&quot;AdjustmentMode&quot;:{&quot;type&quot;:&quot;UTF8String&quot;,&quot;value&quot;:&quot;dialog&quot;},&quot;ClaritySection&quot;:{&quot;type&quot;:&quot;tree::any&quot;,&quot;value&quot;:{&quot;Dynamics&quot;:{&quot;type&quot;:&quot;tree::any&quot;,&quot;value&quot;:{&quot;2&quot;:{&quot;type&quot;:&quot;tree::any&quot;,&quot;value&quot;:{&quot;Value&quot;:{&quot;type&quot;:&quot;float&quot;,&quot;value&quot;:3}}}}},&quot;Enabled&quot;:{&quot;type&quot;:&quot;bool&quot;,&quot;value&quot;:true}}},&quot;ClipType&quot;:{&quot;type&quot;:&quot;std::int32_t&quot;,&quot;value&quot;:1},&quot;EnhanceSpeechSection&quot;:{&quot;type&quot;:&quot;tree::any&quot;,&quot;value&quot;:{&quot;Enabled&quot;:{&quot;type&quot;:&quot;bool&quot;,&quot;value&quot;:true}}},&quot;PresetGuid&quot;:{&quot;type&quot;:&quot;UTF8String&quot;,&quot;value&quot;:&quot;bb717b4a-c0b1-4def-9040-3fb8e83b8a91&quot;},&quot;RestorationSection&quot;:{&quot;type&quot;:&quot;tree::any&quot;,&quot;value&quot;:{&quot;Enabled&quot;:{&quot;type&quot;:&quot;bool&quot;,&quot;value&quot;:true},&quot;ReduceHum&quot;:{&quot;type&quot;:&quot;tree::any&quot;,&quot;value&quot;:{&quot;4&quot;:{&quot;type&quot;:&quot;tree::any&quot;,&quot;value&quot;:{&quot;Value&quot;:{&quot;type&quot;:&quot;float&quot;,&quot;value&quot;:7.143000602722168}}},&quot;9&quot;:{&quot;type&quot;:&quot;tree::any&quot;,&quot;value&quot;:{&quot;Value&quot;:{&quot;type&quot;:&quot;float&quot;,&quot;value&quot;:60}}}}}}},&quot;SoundEffectsSection&quot;:{&quot;type&quot;:&quot;tree::any&quot;,&quot;value&quot;:{&quot;Enabled&quot;:{&quot;type&quot;:&quot;bool&quot;,&quot;value&quot;:true},&quot;Reverb&quot;:{&quot;type&quot;:&quot;tree::any&quot;,&quot;value&quot;:{&quot;3&quot;:{&quot;type&quot;:&quot;tree::any&quot;,&quot;value&quot;:{&quot;Value&quot;:{&quot;type&quot;:&quot;float&quot;,&quot;value&quot;:2}}}}}}},&quot;VolumeSection&quot;:{&quot;type&quot;:&quot;tree::any&quot;,&quot;value&quot;:{&quot;Enabled&quot;:{&quot;type&quot;:&quot;bool&quot;,&quot;value&quot;:true}}}}}}"/>
          <component componentGuid="fc38d2a6-e0d5-485c-aa53-88e0c8ed84d3" componentID="Audition.Fader" id="clipGain" name="volume" powered="true">
            <parameter index="0" name="volume" parameterValue="1"/>
            <parameter index="1" name="static gain" parameterValue="1"/>
          </component>
          <component componentGuid="5276e098-aaf9-46a4-b77a-99fb7e52eefa" componentID="Audition.Mute" id="clipMute" name="Mute" powered="true">
            <parameter index="0" parameterValue="0"/>
            <parameter index="1" name="mute" parameterValue="0"/>
          </component>
          <component componentGuid="f7d69590-5cae-4893-b119-2321c2658069" componentID="Audition.StereoPanner" id="clipPan" name="StereoPanner" powered="true">
            <parameter index="0" name="Pan" parameterValue="0"/>
          </component>
          <fadeIn crossFadeLinkType="linkedAsymmetric" endPoint="11025" shape="19" startPoint="0" type="log"/>
          <fadeOut crossFadeLinkType="linkedAsymmetric" endPoint="74360" shape="19" startPoint="63335" type="log"/>
          <editParameter parameterIndex="0" slotIndex="4294967280"/>
          <editParameter parameterIndex="0" slotIndex="4294967281"/>
          <channelMap>
            <channel index="0" sourceIndex="0"/>
          </channelMap>
        </audioClip>
        <audioClip clipAutoCrossfade="true" crossFadeHeadClipID="-1" crossFadeTailClipID="-1" endPoint="5373776" fileID="1" hue="-1" id="2" lockedInTime="false" looped="false" name="Emily" offline="false" select="false" sourceInPoint="13180937" sourceOutPoint="13301221" startPoint="5253492" zOrder="2">
          <properties properties="{&quot;BasicAdjustmentsProperty&quot;:{&quot;type&quot;:&quot;tree::any&quot;,&quot;value&quot;:{&quot;AdjustmentMode&quot;:{&quot;type&quot;:&quot;UTF8String&quot;,&quot;value&quot;:&quot;dialog&quot;},&quot;ClaritySection&quot;:{&quot;type&quot;:&quot;tree::any&quot;,&quot;value&quot;:{&quot;Dynamics&quot;:{&quot;type&quot;:&quot;tree::any&quot;,&quot;value&quot;:{&quot;2&quot;:{&quot;type&quot;:&quot;tree::any&quot;,&quot;value&quot;:{&quot;Value&quot;:{&quot;type&quot;:&quot;float&quot;,&quot;value&quot;:3}}}}},&quot;Enabled&quot;:{&quot;type&quot;:&quot;bool&quot;,&quot;value&quot;:true}}},&quot;ClipType&quot;:{&quot;type&quot;:&quot;std::int32_t&quot;,&quot;value&quot;:1},&quot;EnhanceSpeechSection&quot;:{&quot;type&quot;:&quot;tree::any&quot;,&quot;value&quot;:{&quot;Enabled&quot;:{&quot;type&quot;:&quot;bool&quot;,&quot;value&quot;:true}}},&quot;PresetGuid&quot;:{&quot;type&quot;:&quot;UTF8String&quot;,&quot;value&quot;:&quot;bb717b4a-c0b1-4def-9040-3fb8e83b8a91&quot;},&quot;RestorationSection&quot;:{&quot;type&quot;:&quot;tree::any&quot;,&quot;value&quot;:{&quot;Enabled&quot;:{&quot;type&quot;:&quot;bool&quot;,&quot;value&quot;:true},&quot;ReduceHum&quot;:{&quot;type&quot;:&quot;tree::any&quot;,&quot;value&quot;:{&quot;4&quot;:{&quot;type&quot;:&quot;tree::any&quot;,&quot;value&quot;:{&quot;Value&quot;:{&quot;type&quot;:&quot;float&quot;,&quot;value&quot;:7.143000602722168}}},&quot;9&quot;:{&quot;type&quot;:&quot;tree::any&quot;,&quot;value&quot;:{&quot;Value&quot;:{&quot;type&quot;:&quot;float&quot;,&quot;value&quot;:60}}}}}}},&quot;SoundEffectsSection&quot;:{&quot;type&quot;:&quot;tree::any&quot;,&quot;value&quot;:{&quot;Enabled&quot;:{&quot;type&quot;:&quot;bool&quot;,&quot;value&quot;:true},&quot;Reverb&quot;:{&quot;type&quot;:&quot;tree::any&quot;,&quot;value&quot;:{&quot;3&quot;:{&quot;type&quot;:&quot;tree::any&quot;,&quot;value&quot;:{&quot;Value&quot;:{&quot;type&quot;:&quot;float&quot;,&quot;value&quot;:2}}}}}}},&quot;VolumeSection&quot;:{&quot;type&quot;:&quot;tree::any&quot;,&quot;value&quot;:{&quot;Enabled&quot;:{&quot;type&quot;:&quot;bool&quot;,&quot;value&quot;:true}}}}}}"/>
          <component componentGuid="442f166f-b6d9-4aa6-bf8a-83a08ecab01d" componentID="Audition.Fader" id="clipGain" name="volume" powered="true">
            <parameter index="0" name="volume" parameterValue="1"/>
            <parameter index="1" name="static gain" parameterValue="1"/>
          </component>
          <component componentGuid="275203a4-f10f-4bee-b60d-c070d82a0f45" componentID="Audition.Mute" id="clipMute" name="Mute" powered="true">
            <parameter index="0" parameterValue="0"/>
            <parameter index="1" name="mute" parameterValue="0"/>
          </component>
          <component componentGuid="cc088550-e3d2-4176-86b6-bf4bff5e8c29" componentID="Audition.StereoPanner" id="clipPan" name="StereoPanner" powered="true">
            <parameter index="0" name="Pan" parameterValue="0"/>
          </component>
          <fadeIn crossFadeLinkType="linkedAsymmetric" endPoint="11025" shape="19" startPoint="0" type="log"/>
          <fadeOut crossFadeLinkType="linkedAsymmetric" endPoint="120284" shape="19" startPoint="109259" type="log"/>
          <editParameter parameterIndex="0" slotIndex="4294967280"/>
          <editParameter parameterIndex="0" slotIndex="4294967281"/>
          <channelMap>
            <channel index="0" sourceIndex="0"/>
          </channelMap>
        </audioClip>
        <audioClip clipAutoCrossfade="true" crossFadeHeadClipID="-1" crossFadeTailClipID="-1" endPoint="6433320" fileID="1" hue="-1" id="3" lockedInTime="false" looped="false" name="Emily" offline="false" select="false" sourceInPoint="14272506" sourceOutPoint="14361653" startPoint="6344173" zOrder="1">
          <properties properties="{&quot;BasicAdjustmentsProperty&quot;:{&quot;type&quot;:&quot;tree::any&quot;,&quot;value&quot;:{&quot;AdjustmentMode&quot;:{&quot;type&quot;:&quot;UTF8String&quot;,&quot;value&quot;:&quot;dialog&quot;},&quot;ClaritySection&quot;:{&quot;type&quot;:&quot;tree::any&quot;,&quot;value&quot;:{&quot;Dynamics&quot;:{&quot;type&quot;:&quot;tree::any&quot;,&quot;value&quot;:{&quot;2&quot;:{&quot;type&quot;:&quot;tree::any&quot;,&quot;value&quot;:{&quot;Value&quot;:{&quot;type&quot;:&quot;float&quot;,&quot;value&quot;:3}}}}},&quot;Enabled&quot;:{&quot;type&quot;:&quot;bool&quot;,&quot;value&quot;:true}}},&quot;ClipType&quot;:{&quot;type&quot;:&quot;std::int32_t&quot;,&quot;value&quot;:1},&quot;EnhanceSpeechSection&quot;:{&quot;type&quot;:&quot;tree::any&quot;,&quot;value&quot;:{&quot;Enabled&quot;:{&quot;type&quot;:&quot;bool&quot;,&quot;value&quot;:true}}},&quot;PresetGuid&quot;:{&quot;type&quot;:&quot;UTF8String&quot;,&quot;value&quot;:&quot;bb717b4a-c0b1-4def-9040-3fb8e83b8a91&quot;},&quot;RestorationSection&quot;:{&quot;type&quot;:&quot;tree::any&quot;,&quot;value&quot;:{&quot;Enabled&quot;:{&quot;type&quot;:&quot;bool&quot;,&quot;value&quot;:true},&quot;ReduceHum&quot;:{&quot;type&quot;:&quot;tree::any&quot;,&quot;value&quot;:{&quot;4&quot;:{&quot;type&quot;:&quot;tree::any&quot;,&quot;value&quot;:{&quot;Value&quot;:{&quot;type&quot;:&quot;float&quot;,&quot;value&quot;:7.143000602722168}}},&quot;9&quot;:{&quot;type&quot;:&quot;tree::any&quot;,&quot;value&quot;:{&quot;Value&quot;:{&quot;type&quot;:&quot;float&quot;,&quot;value&quot;:60}}}}}}},&quot;SoundEffectsSection&quot;:{&quot;type&quot;:&quot;tree::any&quot;,&quot;value&quot;:{&quot;Enabled&quot;:{&quot;type&quot;:&quot;bool&quot;,&quot;value&quot;:true},&quot;Reverb&quot;:{&quot;type&quot;:&quot;tree::any&quot;,&quot;value&quot;:{&quot;3&quot;:{&quot;type&quot;:&quot;tree::any&quot;,&quot;value&quot;:{&quot;Value&quot;:{&quot;type&quot;:&quot;float&quot;,&quot;value&quot;:2}}}}}}},&quot;VolumeSection&quot;:{&quot;type&quot;:&quot;tree::any&quot;,&quot;value&quot;:{&quot;Enabled&quot;:{&quot;type&quot;:&quot;bool&quot;,&quot;value&quot;:true}}}}}}"/>
          <component componentGuid="35132fbc-f306-4045-b506-e10a47feef48" componentID="Audition.Fader" id="clipGain" name="volume" powered="true">
            <parameter index="0" name="volume" parameterValue="1"/>
            <parameter index="1" name="static gain" parameterValue="1"/>
          </component>
          <component componentGuid="d2f501c4-7ff7-475b-9958-2850c287c033" componentID="Audition.Mute" id="clipMute" name="Mute" powered="true">
            <parameter index="0" parameterValue="0"/>
            <parameter index="1" name="mute" parameterValue="0"/>
          </component>
          <component componentGuid="b3106fbd-8ced-4ec0-8f7b-d5531116885b" componentID="Audition.StereoPanner" id="clipPan" name="StereoPanner" powered="true">
            <parameter index="0" name="Pan" parameterValue="0"/>
          </component>
          <fadeIn crossFadeLinkType="linkedAsymmetric" endPoint="11025" shape="19" startPoint="0" type="log"/>
          <fadeOut crossFadeLinkType="linkedAsymmetric" endPoint="89147" shape="19" startPoint="78122" type="log"/>
          <editParameter parameterIndex="0" slotIndex="4294967280"/>
          <editParameter parameterIndex="0" slotIndex="4294967281"/>
          <channelMap>
            <channel index="0" sourceIndex="0"/>
          </channelMap>
        </audioClip>
        <audioClip clipAutoCrossfade="true" crossFadeHeadClipID="-1" crossFadeTailClipID="-1" endPoint="13444324" fileID="1" hue="-1" id="4" lockedInTime="false" looped="false" name="Emily" offline="false" select="false" sourceInPoint="23908072" sourceOutPoint="24001013" startPoint="13351383" zOrder="4">
          <properties properties="{&quot;BasicAdjustmentsProperty&quot;:{&quot;type&quot;:&quot;tree::any&quot;,&quot;value&quot;:{&quot;AdjustmentMode&quot;:{&quot;type&quot;:&quot;UTF8String&quot;,&quot;value&quot;:&quot;dialog&quot;},&quot;ClaritySection&quot;:{&quot;type&quot;:&quot;tree::any&quot;,&quot;value&quot;:{&quot;Dynamics&quot;:{&quot;type&quot;:&quot;tree::any&quot;,&quot;value&quot;:{&quot;2&quot;:{&quot;type&quot;:&quot;tree::any&quot;,&quot;value&quot;:{&quot;Value&quot;:{&quot;type&quot;:&quot;float&quot;,&quot;value&quot;:3}}}}},&quot;Enabled&quot;:{&quot;type&quot;:&quot;bool&quot;,&quot;value&quot;:true}}},&quot;ClipType&quot;:{&quot;type&quot;:&quot;std::int32_t&quot;,&quot;value&quot;:1},&quot;EnhanceSpeechSection&quot;:{&quot;type&quot;:&quot;tree::any&quot;,&quot;value&quot;:{&quot;Enabled&quot;:{&quot;type&quot;:&quot;bool&quot;,&quot;value&quot;:true}}},&quot;PresetGuid&quot;:{&quot;type&quot;:&quot;UTF8String&quot;,&quot;value&quot;:&quot;bb717b4a-c0b1-4def-9040-3fb8e83b8a91&quot;},&quot;RestorationSection&quot;:{&quot;type&quot;:&quot;tree::any&quot;,&quot;value&quot;:{&quot;Enabled&quot;:{&quot;type&quot;:&quot;bool&quot;,&quot;value&quot;:true},&quot;ReduceHum&quot;:{&quot;type&quot;:&quot;tree::any&quot;,&quot;value&quot;:{&quot;4&quot;:{&quot;type&quot;:&quot;tree::any&quot;,&quot;value&quot;:{&quot;Value&quot;:{&quot;type&quot;:&quot;float&quot;,&quot;value&quot;:7.143000602722168}}},&quot;9&quot;:{&quot;type&quot;:&quot;tree::any&quot;,&quot;value&quot;:{&quot;Value&quot;:{&quot;type&quot;:&quot;float&quot;,&quot;value&quot;:60}}}}}}},&quot;SoundEffectsSection&quot;:{&quot;type&quot;:&quot;tree::any&quot;,&quot;value&quot;:{&quot;Enabled&quot;:{&quot;type&quot;:&quot;bool&quot;,&quot;value&quot;:true},&quot;Reverb&quot;:{&quot;type&quot;:&quot;tree::any&quot;,&quot;value&quot;:{&quot;3&quot;:{&quot;type&quot;:&quot;tree::any&quot;,&quot;value&quot;:{&quot;Value&quot;:{&quot;type&quot;:&quot;float&quot;,&quot;value&quot;:2}}}}}}},&quot;VolumeSection&quot;:{&quot;type&quot;:&quot;tree::any&quot;,&quot;value&quot;:{&quot;Enabled&quot;:{&quot;type&quot;:&quot;bool&quot;,&quot;value&quot;:true}}}}}}"/>
          <component componentGuid="4f79ce12-9598-4ffc-92ba-c66240bedcf6" componentID="Audition.Fader" id="clipGain" name="volume" powered="true">
            <parameter index="0" name="volume" parameterValue="1"/>
            <parameter index="1" name="static gain" parameterValue="1"/>
          </component>
          <component componentGuid="4945b914-7891-439d-a0fd-10315cf8c33d" componentID="Audition.Mute" id="clipMute" name="Mute" powered="true">
            <parameter index="0" parameterValue="0"/>
            <parameter index="1" name="mute" parameterValue="0"/>
          </component>
          <component componentGuid="34b71696-76cd-4864-a101-9f190685bf3a" componentID="Audition.StereoPanner" id="clipPan" name="StereoPanner" powered="true">
            <parameter index="0" name="Pan" parameterValue="0"/>
          </component>
          <fadeIn crossFadeLinkType="linkedAsymmetric" endPoint="11025" shape="19" startPoint="0" type="log"/>
          <fadeOut crossFadeLinkType="linkedAsymmetric" endPoint="92941" shape="19" startPoint="81916" type="log"/>
          <editParameter parameterIndex="0" slotIndex="4294967280"/>
          <editParameter parameterIndex="0" slotIndex="4294967281"/>
          <channelMap>
            <channel index="0" sourceIndex="0"/>
          </channelMap>
        </audioClip>
        <audioClip clipAutoCrossfade="true" crossFadeHeadClipID="-1" crossFadeTailClipID="-1" endPoint="14518016" fileID="1" hue="-1" id="5" lockedInTime="false" looped="false" name="Emily" offline="false" select="false" sourceInPoint="24797894" sourceOutPoint="25073828" startPoint="14242082" zOrder="5">
          <properties properties="{&quot;BasicAdjustmentsProperty&quot;:{&quot;type&quot;:&quot;tree::any&quot;,&quot;value&quot;:{&quot;AdjustmentMode&quot;:{&quot;type&quot;:&quot;UTF8String&quot;,&quot;value&quot;:&quot;dialog&quot;},&quot;ClaritySection&quot;:{&quot;type&quot;:&quot;tree::any&quot;,&quot;value&quot;:{&quot;Dynamics&quot;:{&quot;type&quot;:&quot;tree::any&quot;,&quot;value&quot;:{&quot;2&quot;:{&quot;type&quot;:&quot;tree::any&quot;,&quot;value&quot;:{&quot;Value&quot;:{&quot;type&quot;:&quot;float&quot;,&quot;value&quot;:3}}}}},&quot;Enabled&quot;:{&quot;type&quot;:&quot;bool&quot;,&quot;value&quot;:true}}},&quot;ClipType&quot;:{&quot;type&quot;:&quot;std::int32_t&quot;,&quot;value&quot;:1},&quot;EnhanceSpeechSection&quot;:{&quot;type&quot;:&quot;tree::any&quot;,&quot;value&quot;:{&quot;Enabled&quot;:{&quot;type&quot;:&quot;bool&quot;,&quot;value&quot;:true}}},&quot;PresetGuid&quot;:{&quot;type&quot;:&quot;UTF8String&quot;,&quot;value&quot;:&quot;bb717b4a-c0b1-4def-9040-3fb8e83b8a91&quot;},&quot;RestorationSection&quot;:{&quot;type&quot;:&quot;tree::any&quot;,&quot;value&quot;:{&quot;Enabled&quot;:{&quot;type&quot;:&quot;bool&quot;,&quot;value&quot;:true},&quot;ReduceHum&quot;:{&quot;type&quot;:&quot;tree::any&quot;,&quot;value&quot;:{&quot;4&quot;:{&quot;type&quot;:&quot;tree::any&quot;,&quot;value&quot;:{&quot;Value&quot;:{&quot;type&quot;:&quot;float&quot;,&quot;value&quot;:7.143000602722168}}},&quot;9&quot;:{&quot;type&quot;:&quot;tree::any&quot;,&quot;value&quot;:{&quot;Value&quot;:{&quot;type&quot;:&quot;float&quot;,&quot;value&quot;:60}}}}}}},&quot;SoundEffectsSection&quot;:{&quot;type&quot;:&quot;tree::any&quot;,&quot;value&quot;:{&quot;Enabled&quot;:{&quot;type&quot;:&quot;bool&quot;,&quot;value&quot;:true},&quot;Reverb&quot;:{&quot;type&quot;:&quot;tree::any&quot;,&quot;value&quot;:{&quot;3&quot;:{&quot;type&quot;:&quot;tree::any&quot;,&quot;value&quot;:{&quot;Value&quot;:{&quot;type&quot;:&quot;float&quot;,&quot;value&quot;:2}}}}}}},&quot;VolumeSection&quot;:{&quot;type&quot;:&quot;tree::any&quot;,&quot;value&quot;:{&quot;Enabled&quot;:{&quot;type&quot;:&quot;bool&quot;,&quot;value&quot;:true}}}}}}"/>
          <component componentGuid="442e2204-e43c-4359-a8ec-b29201b4d925" componentID="Audition.Fader" id="clipGain" name="volume" powered="true">
            <parameter index="0" name="volume" parameterValue="1"/>
            <parameter index="1" name="static gain" parameterValue="1"/>
          </component>
          <component componentGuid="18e3608c-cde8-4dbb-acc6-b7e08edec8f8" componentID="Audition.Mute" id="clipMute" name="Mute" powered="true">
            <parameter index="0" parameterValue="0"/>
            <parameter index="1" name="mute" parameterValue="0"/>
          </component>
          <component componentGuid="6518a747-3530-4d7e-bbd7-e07ae31d5da1" componentID="Audition.StereoPanner" id="clipPan" name="StereoPanner" powered="true">
            <parameter index="0" name="Pan" parameterValue="0"/>
          </component>
          <fadeIn crossFadeLinkType="linkedAsymmetric" endPoint="0" shape="19" startPoint="0" type="log"/>
          <fadeOut crossFadeLinkType="linkedAsymmetric" endPoint="275934" shape="19" startPoint="275934" type="log"/>
          <editParameter parameterIndex="0" slotIndex="4294967280"/>
          <editParameter parameterIndex="0" slotIndex="4294967281"/>
          <channelMap>
            <channel index="0" sourceIndex="0"/>
          </channelMap>
        </audioClip>
        <audioClip clipAutoCrossfade="true" crossFadeHeadClipID="-1" crossFadeTailClipID="-1" endPoint="19643328" fileID="1" hue="-1" id="6" lockedInTime="false" looped="false" name="Emily" offline="false" select="false" sourceInPoint="29828410" sourceOutPoint="30200012" startPoint="19271726" zOrder="8">
          <properties properties="{&quot;BasicAdjustmentsProperty&quot;:{&quot;type&quot;:&quot;tree::any&quot;,&quot;value&quot;:{&quot;AdjustmentMode&quot;:{&quot;type&quot;:&quot;UTF8String&quot;,&quot;value&quot;:&quot;dialog&quot;},&quot;ClaritySection&quot;:{&quot;type&quot;:&quot;tree::any&quot;,&quot;value&quot;:{&quot;Dynamics&quot;:{&quot;type&quot;:&quot;tree::any&quot;,&quot;value&quot;:{&quot;2&quot;:{&quot;type&quot;:&quot;tree::any&quot;,&quot;value&quot;:{&quot;Value&quot;:{&quot;type&quot;:&quot;float&quot;,&quot;value&quot;:3}}}}},&quot;Enabled&quot;:{&quot;type&quot;:&quot;bool&quot;,&quot;value&quot;:true}}},&quot;ClipType&quot;:{&quot;type&quot;:&quot;std::int32_t&quot;,&quot;value&quot;:1},&quot;EnhanceSpeechSection&quot;:{&quot;type&quot;:&quot;tree::any&quot;,&quot;value&quot;:{&quot;Enabled&quot;:{&quot;type&quot;:&quot;bool&quot;,&quot;value&quot;:true}}},&quot;PresetGuid&quot;:{&quot;type&quot;:&quot;UTF8String&quot;,&quot;value&quot;:&quot;bb717b4a-c0b1-4def-9040-3fb8e83b8a91&quot;},&quot;RestorationSection&quot;:{&quot;type&quot;:&quot;tree::any&quot;,&quot;value&quot;:{&quot;Enabled&quot;:{&quot;type&quot;:&quot;bool&quot;,&quot;value&quot;:true},&quot;ReduceHum&quot;:{&quot;type&quot;:&quot;tree::any&quot;,&quot;value&quot;:{&quot;4&quot;:{&quot;type&quot;:&quot;tree::any&quot;,&quot;value&quot;:{&quot;Value&quot;:{&quot;type&quot;:&quot;float&quot;,&quot;value&quot;:7.143000602722168}}},&quot;9&quot;:{&quot;type&quot;:&quot;tree::any&quot;,&quot;value&quot;:{&quot;Value&quot;:{&quot;type&quot;:&quot;float&quot;,&quot;value&quot;:60}}}}}}},&quot;SoundEffectsSection&quot;:{&quot;type&quot;:&quot;tree::any&quot;,&quot;value&quot;:{&quot;Enabled&quot;:{&quot;type&quot;:&quot;bool&quot;,&quot;value&quot;:true},&quot;Reverb&quot;:{&quot;type&quot;:&quot;tree::any&quot;,&quot;value&quot;:{&quot;3&quot;:{&quot;type&quot;:&quot;tree::any&quot;,&quot;value&quot;:{&quot;Value&quot;:{&quot;type&quot;:&quot;float&quot;,&quot;value&quot;:2}}}}}}},&quot;VolumeSection&quot;:{&quot;type&quot;:&quot;tree::any&quot;,&quot;value&quot;:{&quot;Enabled&quot;:{&quot;type&quot;:&quot;bool&quot;,&quot;value&quot;:true}}}}}}"/>
          <component componentGuid="87134d42-2ee9-4851-9df7-88aeacec4b71" componentID="Audition.Fader" id="clipGain" name="volume" powered="true">
            <parameter index="0" name="volume" parameterValue="1"/>
            <parameter index="1" name="static gain" parameterValue="1"/>
          </component>
          <component componentGuid="f369a80c-286d-45fc-8fec-d4df86d5033a" componentID="Audition.Mute" id="clipMute" name="Mute" powered="true">
            <parameter index="0" parameterValue="0"/>
            <parameter index="1" name="mute" parameterValue="0"/>
          </component>
          <component componentGuid="66c4b5d4-9572-4130-a5f9-8f430c12067e" componentID="Audition.StereoPanner" id="clipPan" name="StereoPanner" powered="true">
            <parameter index="0" name="Pan" parameterValue="0"/>
          </component>
          <fadeIn crossFadeLinkType="linkedAsymmetric" endPoint="11025" shape="19" startPoint="0" type="log"/>
          <fadeOut crossFadeLinkType="linkedAsymmetric" endPoint="371602" shape="19" startPoint="360577" type="log"/>
          <editParameter parameterIndex="0" slotIndex="4294967280"/>
          <editParameter parameterIndex="0" slotIndex="4294967281"/>
          <channelMap>
            <channel index="0" sourceIndex="0"/>
          </channelMap>
        </audioClip>
        <audioClip clipAutoCrossfade="true" crossFadeHeadClipID="-1" crossFadeTailClipID="-1" endPoint="19797728" fileID="1" hue="-1" id="7" lockedInTime="false" looped="false" name="Emily" offline="false" select="false" sourceInPoint="30293713" sourceOutPoint="30354411" startPoint="19737030" zOrder="6">
          <properties properties="{&quot;BasicAdjustmentsProperty&quot;:{&quot;type&quot;:&quot;tree::any&quot;,&quot;value&quot;:{&quot;AdjustmentMode&quot;:{&quot;type&quot;:&quot;UTF8String&quot;,&quot;value&quot;:&quot;dialog&quot;},&quot;ClaritySection&quot;:{&quot;type&quot;:&quot;tree::any&quot;,&quot;value&quot;:{&quot;Dynamics&quot;:{&quot;type&quot;:&quot;tree::any&quot;,&quot;value&quot;:{&quot;2&quot;:{&quot;type&quot;:&quot;tree::any&quot;,&quot;value&quot;:{&quot;Value&quot;:{&quot;type&quot;:&quot;float&quot;,&quot;value&quot;:3}}}}},&quot;Enabled&quot;:{&quot;type&quot;:&quot;bool&quot;,&quot;value&quot;:true}}},&quot;ClipType&quot;:{&quot;type&quot;:&quot;std::int32_t&quot;,&quot;value&quot;:1},&quot;EnhanceSpeechSection&quot;:{&quot;type&quot;:&quot;tree::any&quot;,&quot;value&quot;:{&quot;Enabled&quot;:{&quot;type&quot;:&quot;bool&quot;,&quot;value&quot;:true}}},&quot;PresetGuid&quot;:{&quot;type&quot;:&quot;UTF8String&quot;,&quot;value&quot;:&quot;bb717b4a-c0b1-4def-9040-3fb8e83b8a91&quot;},&quot;RestorationSection&quot;:{&quot;type&quot;:&quot;tree::any&quot;,&quot;value&quot;:{&quot;Enabled&quot;:{&quot;type&quot;:&quot;bool&quot;,&quot;value&quot;:true},&quot;ReduceHum&quot;:{&quot;type&quot;:&quot;tree::any&quot;,&quot;value&quot;:{&quot;4&quot;:{&quot;type&quot;:&quot;tree::any&quot;,&quot;value&quot;:{&quot;Value&quot;:{&quot;type&quot;:&quot;float&quot;,&quot;value&quot;:7.143000602722168}}},&quot;9&quot;:{&quot;type&quot;:&quot;tree::any&quot;,&quot;value&quot;:{&quot;Value&quot;:{&quot;type&quot;:&quot;float&quot;,&quot;value&quot;:60}}}}}}},&quot;SoundEffectsSection&quot;:{&quot;type&quot;:&quot;tree::any&quot;,&quot;value&quot;:{&quot;Enabled&quot;:{&quot;type&quot;:&quot;bool&quot;,&quot;value&quot;:true},&quot;Reverb&quot;:{&quot;type&quot;:&quot;tree::any&quot;,&quot;value&quot;:{&quot;3&quot;:{&quot;type&quot;:&quot;tree::any&quot;,&quot;value&quot;:{&quot;Value&quot;:{&quot;type&quot;:&quot;float&quot;,&quot;value&quot;:2}}}}}}},&quot;VolumeSection&quot;:{&quot;type&quot;:&quot;tree::any&quot;,&quot;value&quot;:{&quot;Enabled&quot;:{&quot;type&quot;:&quot;bool&quot;,&quot;value&quot;:true}}}}}}"/>
          <component componentGuid="5f94a4fd-8602-4d8d-8507-b58dfe1bf2a4" componentID="Audition.Fader" id="clipGain" name="volume" powered="true">
            <parameter index="0" name="volume" parameterValue="1"/>
            <parameter index="1" name="static gain" parameterValue="1"/>
          </component>
          <component componentGuid="0b5f187a-b24c-46e7-ad85-387dfca63583" componentID="Audition.Mute" id="clipMute" name="Mute" powered="true">
            <parameter index="0" parameterValue="0"/>
            <parameter index="1" name="mute" parameterValue="0"/>
          </component>
          <component componentGuid="3cfa4c5f-6792-49b6-894a-fa46bcad2501" componentID="Audition.StereoPanner" id="clipPan" name="StereoPanner" powered="true">
            <parameter index="0" name="Pan" parameterValue="0"/>
          </component>
          <fadeIn crossFadeLinkType="linkedAsymmetric" endPoint="11025" shape="19" startPoint="0" type="log"/>
          <fadeOut crossFadeLinkType="linkedAsymmetric" endPoint="60698" shape="19" startPoint="49673" type="log"/>
          <editParameter parameterIndex="0" slotIndex="4294967280"/>
          <editParameter parameterIndex="0" slotIndex="4294967281"/>
          <channelMap>
            <channel index="0" sourceIndex="0"/>
          </channelMap>
        </audioClip>
        <audioClip clipAutoCrossfade="true" crossFadeHeadClipID="-1" crossFadeTailClipID="-1" endPoint="20077795" fileID="1" hue="-1" id="8" lockedInTime="false" looped="false" name="Emily" offline="false" select="false" sourceInPoint="30513416" sourceOutPoint="30634477" startPoint="19956734" zOrder="9">
          <properties properties="{&quot;BasicAdjustmentsProperty&quot;:{&quot;type&quot;:&quot;tree::any&quot;,&quot;value&quot;:{&quot;AdjustmentMode&quot;:{&quot;type&quot;:&quot;UTF8String&quot;,&quot;value&quot;:&quot;dialog&quot;},&quot;ClaritySection&quot;:{&quot;type&quot;:&quot;tree::any&quot;,&quot;value&quot;:{&quot;Dynamics&quot;:{&quot;type&quot;:&quot;tree::any&quot;,&quot;value&quot;:{&quot;2&quot;:{&quot;type&quot;:&quot;tree::any&quot;,&quot;value&quot;:{&quot;Value&quot;:{&quot;type&quot;:&quot;float&quot;,&quot;value&quot;:3}}}}},&quot;Enabled&quot;:{&quot;type&quot;:&quot;bool&quot;,&quot;value&quot;:true}}},&quot;ClipType&quot;:{&quot;type&quot;:&quot;std::int32_t&quot;,&quot;value&quot;:1},&quot;EnhanceSpeechSection&quot;:{&quot;type&quot;:&quot;tree::any&quot;,&quot;value&quot;:{&quot;Enabled&quot;:{&quot;type&quot;:&quot;bool&quot;,&quot;value&quot;:true}}},&quot;PresetGuid&quot;:{&quot;type&quot;:&quot;UTF8String&quot;,&quot;value&quot;:&quot;bb717b4a-c0b1-4def-9040-3fb8e83b8a91&quot;},&quot;RestorationSection&quot;:{&quot;type&quot;:&quot;tree::any&quot;,&quot;value&quot;:{&quot;Enabled&quot;:{&quot;type&quot;:&quot;bool&quot;,&quot;value&quot;:true},&quot;ReduceHum&quot;:{&quot;type&quot;:&quot;tree::any&quot;,&quot;value&quot;:{&quot;4&quot;:{&quot;type&quot;:&quot;tree::any&quot;,&quot;value&quot;:{&quot;Value&quot;:{&quot;type&quot;:&quot;float&quot;,&quot;value&quot;:7.143000602722168}}},&quot;9&quot;:{&quot;type&quot;:&quot;tree::any&quot;,&quot;value&quot;:{&quot;Value&quot;:{&quot;type&quot;:&quot;float&quot;,&quot;value&quot;:60}}}}}}},&quot;SoundEffectsSection&quot;:{&quot;type&quot;:&quot;tree::any&quot;,&quot;value&quot;:{&quot;Enabled&quot;:{&quot;type&quot;:&quot;bool&quot;,&quot;value&quot;:true},&quot;Reverb&quot;:{&quot;type&quot;:&quot;tree::any&quot;,&quot;value&quot;:{&quot;3&quot;:{&quot;type&quot;:&quot;tree::any&quot;,&quot;value&quot;:{&quot;Value&quot;:{&quot;type&quot;:&quot;float&quot;,&quot;value&quot;:2}}}}}}},&quot;VolumeSection&quot;:{&quot;type&quot;:&quot;tree::any&quot;,&quot;value&quot;:{&quot;Enabled&quot;:{&quot;type&quot;:&quot;bool&quot;,&quot;value&quot;:true}}}}}}"/>
          <component componentGuid="074d6478-9f04-43c7-8b19-fd8cd63c7303" componentID="Audition.Fader" id="clipGain" name="volume" powered="true">
            <parameter index="0" name="volume" parameterValue="1"/>
            <parameter index="1" name="static gain" parameterValue="1"/>
          </component>
          <component componentGuid="abd33759-cca4-4552-ae05-63296efe6555" componentID="Audition.Mute" id="clipMute" name="Mute" powered="true">
            <parameter index="0" parameterValue="0"/>
            <parameter index="1" name="mute" parameterValue="0"/>
          </component>
          <component componentGuid="e7632043-6d20-46d4-b3f4-3444e738c999" componentID="Audition.StereoPanner" id="clipPan" name="StereoPanner" powered="true">
            <parameter index="0" name="Pan" parameterValue="0"/>
          </component>
          <fadeIn crossFadeLinkType="linkedAsymmetric" endPoint="11025" shape="19" startPoint="0" type="log"/>
          <fadeOut crossFadeLinkType="linkedAsymmetric" endPoint="121061" shape="19" startPoint="110036" type="log"/>
          <editParameter parameterIndex="0" slotIndex="4294967280"/>
          <editParameter parameterIndex="0" slotIndex="4294967281"/>
          <channelMap>
            <channel index="0" sourceIndex="0"/>
          </channelMap>
        </audioClip>
        <audioClip clipAutoCrossfade="true" crossFadeHeadClipID="-1" crossFadeTailClipID="-1" endPoint="20715503" fileID="1" hue="-1" id="9" lockedInTime="false" looped="false" name="Emily" offline="false" select="false" sourceInPoint="31172376" sourceOutPoint="31272187" startPoint="20615692" zOrder="7">
          <properties properties="{&quot;BasicAdjustmentsProperty&quot;:{&quot;type&quot;:&quot;tree::any&quot;,&quot;value&quot;:{&quot;AdjustmentMode&quot;:{&quot;type&quot;:&quot;UTF8String&quot;,&quot;value&quot;:&quot;dialog&quot;},&quot;ClaritySection&quot;:{&quot;type&quot;:&quot;tree::any&quot;,&quot;value&quot;:{&quot;Dynamics&quot;:{&quot;type&quot;:&quot;tree::any&quot;,&quot;value&quot;:{&quot;2&quot;:{&quot;type&quot;:&quot;tree::any&quot;,&quot;value&quot;:{&quot;Value&quot;:{&quot;type&quot;:&quot;float&quot;,&quot;value&quot;:3}}}}},&quot;Enabled&quot;:{&quot;type&quot;:&quot;bool&quot;,&quot;value&quot;:true}}},&quot;ClipType&quot;:{&quot;type&quot;:&quot;std::int32_t&quot;,&quot;value&quot;:1},&quot;EnhanceSpeechSection&quot;:{&quot;type&quot;:&quot;tree::any&quot;,&quot;value&quot;:{&quot;Enabled&quot;:{&quot;type&quot;:&quot;bool&quot;,&quot;value&quot;:true}}},&quot;PresetGuid&quot;:{&quot;type&quot;:&quot;UTF8String&quot;,&quot;value&quot;:&quot;bb717b4a-c0b1-4def-9040-3fb8e83b8a91&quot;},&quot;RestorationSection&quot;:{&quot;type&quot;:&quot;tree::any&quot;,&quot;value&quot;:{&quot;Enabled&quot;:{&quot;type&quot;:&quot;bool&quot;,&quot;value&quot;:true},&quot;ReduceHum&quot;:{&quot;type&quot;:&quot;tree::any&quot;,&quot;value&quot;:{&quot;4&quot;:{&quot;type&quot;:&quot;tree::any&quot;,&quot;value&quot;:{&quot;Value&quot;:{&quot;type&quot;:&quot;float&quot;,&quot;value&quot;:7.143000602722168}}},&quot;9&quot;:{&quot;type&quot;:&quot;tree::any&quot;,&quot;value&quot;:{&quot;Value&quot;:{&quot;type&quot;:&quot;float&quot;,&quot;value&quot;:60}}}}}}},&quot;SoundEffectsSection&quot;:{&quot;type&quot;:&quot;tree::any&quot;,&quot;value&quot;:{&quot;Enabled&quot;:{&quot;type&quot;:&quot;bool&quot;,&quot;value&quot;:true},&quot;Reverb&quot;:{&quot;type&quot;:&quot;tree::any&quot;,&quot;value&quot;:{&quot;3&quot;:{&quot;type&quot;:&quot;tree::any&quot;,&quot;value&quot;:{&quot;Value&quot;:{&quot;type&quot;:&quot;float&quot;,&quot;value&quot;:2}}}}}}},&quot;VolumeSection&quot;:{&quot;type&quot;:&quot;tree::any&quot;,&quot;value&quot;:{&quot;Enabled&quot;:{&quot;type&quot;:&quot;bool&quot;,&quot;value&quot;:true}}}}}}"/>
          <component componentGuid="b6136698-255a-426d-b27b-b5d9e1f0923d" componentID="Audition.Fader" id="clipGain" name="volume" powered="true">
            <parameter index="0" name="volume" parameterValue="1"/>
            <parameter index="1" name="static gain" parameterValue="1"/>
          </component>
          <component componentGuid="b4a081a2-b1e7-4f4c-9339-b9e7fc3dda7e" componentID="Audition.Mute" id="clipMute" name="Mute" powered="true">
            <parameter index="0" parameterValue="0"/>
            <parameter index="1" name="mute" parameterValue="0"/>
          </component>
          <component componentGuid="d9902b26-d474-49bc-9a1f-d5720d725407" componentID="Audition.StereoPanner" id="clipPan" name="StereoPanner" powered="true">
            <parameter index="0" name="Pan" parameterValue="0"/>
          </component>
          <fadeIn crossFadeLinkType="linkedAsymmetric" endPoint="11025" shape="19" startPoint="0" type="log"/>
          <fadeOut crossFadeLinkType="linkedAsymmetric" endPoint="99811" shape="19" startPoint="88786" type="log"/>
          <editParameter parameterIndex="0" slotIndex="4294967280"/>
          <editParameter parameterIndex="0" slotIndex="4294967281"/>
          <channelMap>
            <channel index="0" sourceIndex="0"/>
          </channelMap>
        </audioClip>
        <audioClip clipAutoCrossfade="true" crossFadeHeadClipID="-1" crossFadeTailClipID="-1" endPoint="22514465" fileID="1" hue="-1" id="10" lockedInTime="false" looped="false" name="Emily" offline="false" select="false" sourceInPoint="32974795" sourceOutPoint="33071148" startPoint="22418112" zOrder="10">
          <properties properties="{&quot;BasicAdjustmentsProperty&quot;:{&quot;type&quot;:&quot;tree::any&quot;,&quot;value&quot;:{&quot;AdjustmentMode&quot;:{&quot;type&quot;:&quot;UTF8String&quot;,&quot;value&quot;:&quot;dialog&quot;},&quot;ClaritySection&quot;:{&quot;type&quot;:&quot;tree::any&quot;,&quot;value&quot;:{&quot;Dynamics&quot;:{&quot;type&quot;:&quot;tree::any&quot;,&quot;value&quot;:{&quot;2&quot;:{&quot;type&quot;:&quot;tree::any&quot;,&quot;value&quot;:{&quot;Value&quot;:{&quot;type&quot;:&quot;float&quot;,&quot;value&quot;:3}}}}},&quot;Enabled&quot;:{&quot;type&quot;:&quot;bool&quot;,&quot;value&quot;:true}}},&quot;ClipType&quot;:{&quot;type&quot;:&quot;std::int32_t&quot;,&quot;value&quot;:1},&quot;EnhanceSpeechSection&quot;:{&quot;type&quot;:&quot;tree::any&quot;,&quot;value&quot;:{&quot;Enabled&quot;:{&quot;type&quot;:&quot;bool&quot;,&quot;value&quot;:true}}},&quot;PresetGuid&quot;:{&quot;type&quot;:&quot;UTF8String&quot;,&quot;value&quot;:&quot;bb717b4a-c0b1-4def-9040-3fb8e83b8a91&quot;},&quot;RestorationSection&quot;:{&quot;type&quot;:&quot;tree::any&quot;,&quot;value&quot;:{&quot;Enabled&quot;:{&quot;type&quot;:&quot;bool&quot;,&quot;value&quot;:true},&quot;ReduceHum&quot;:{&quot;type&quot;:&quot;tree::any&quot;,&quot;value&quot;:{&quot;4&quot;:{&quot;type&quot;:&quot;tree::any&quot;,&quot;value&quot;:{&quot;Value&quot;:{&quot;type&quot;:&quot;float&quot;,&quot;value&quot;:7.143000602722168}}},&quot;9&quot;:{&quot;type&quot;:&quot;tree::any&quot;,&quot;value&quot;:{&quot;Value&quot;:{&quot;type&quot;:&quot;float&quot;,&quot;value&quot;:60}}}}}}},&quot;SoundEffectsSection&quot;:{&quot;type&quot;:&quot;tree::any&quot;,&quot;value&quot;:{&quot;Enabled&quot;:{&quot;type&quot;:&quot;bool&quot;,&quot;value&quot;:true},&quot;Reverb&quot;:{&quot;type&quot;:&quot;tree::any&quot;,&quot;value&quot;:{&quot;3&quot;:{&quot;type&quot;:&quot;tree::any&quot;,&quot;value&quot;:{&quot;Value&quot;:{&quot;type&quot;:&quot;float&quot;,&quot;value&quot;:2}}}}}}},&quot;VolumeSection&quot;:{&quot;type&quot;:&quot;tree::any&quot;,&quot;value&quot;:{&quot;Enabled&quot;:{&quot;type&quot;:&quot;bool&quot;,&quot;value&quot;:true}}}}}}"/>
          <component componentGuid="cf618d05-49ed-45d2-aaba-bbc406956301" componentID="Audition.Fader" id="clipGain" name="volume" powered="true">
            <parameter index="0" name="volume" parameterValue="1"/>
            <parameter index="1" name="static gain" parameterValue="1"/>
          </component>
          <component componentGuid="0aa0942c-b480-4b9d-b4e3-e07dae366938" componentID="Audition.Mute" id="clipMute" name="Mute" powered="true">
            <parameter index="0" parameterValue="0"/>
            <parameter index="1" name="mute" parameterValue="0"/>
          </component>
          <component componentGuid="17204931-10ea-46d5-ac4e-31b4d50cde2e" componentID="Audition.StereoPanner" id="clipPan" name="StereoPanner" powered="true">
            <parameter index="0" name="Pan" parameterValue="0"/>
          </component>
          <fadeIn crossFadeLinkType="linkedAsymmetric" endPoint="11025" shape="19" startPoint="0" type="log"/>
          <fadeOut crossFadeLinkType="linkedAsymmetric" endPoint="96353" shape="19" startPoint="85328" type="log"/>
          <editParameter parameterIndex="0" slotIndex="4294967280"/>
          <editParameter parameterIndex="0" slotIndex="4294967281"/>
          <channelMap>
            <channel index="0" sourceIndex="0"/>
          </channelMap>
        </audioClip>
        <audioClip clipAutoCrossfade="true" crossFadeHeadClipID="-1" crossFadeTailClipID="-1" endPoint="24405054" fileID="1" hue="-1" id="11" lockedInTime="false" looped="false" name="Emily" offline="false" select="false" sourceInPoint="34903938" sourceOutPoint="34961737" startPoint="24347255" zOrder="13">
          <properties properties="{&quot;BasicAdjustmentsProperty&quot;:{&quot;type&quot;:&quot;tree::any&quot;,&quot;value&quot;:{&quot;AdjustmentMode&quot;:{&quot;type&quot;:&quot;UTF8String&quot;,&quot;value&quot;:&quot;dialog&quot;},&quot;ClaritySection&quot;:{&quot;type&quot;:&quot;tree::any&quot;,&quot;value&quot;:{&quot;Dynamics&quot;:{&quot;type&quot;:&quot;tree::any&quot;,&quot;value&quot;:{&quot;2&quot;:{&quot;type&quot;:&quot;tree::any&quot;,&quot;value&quot;:{&quot;Value&quot;:{&quot;type&quot;:&quot;float&quot;,&quot;value&quot;:3}}}}},&quot;Enabled&quot;:{&quot;type&quot;:&quot;bool&quot;,&quot;value&quot;:true}}},&quot;ClipType&quot;:{&quot;type&quot;:&quot;std::int32_t&quot;,&quot;value&quot;:1},&quot;EnhanceSpeechSection&quot;:{&quot;type&quot;:&quot;tree::any&quot;,&quot;value&quot;:{&quot;Enabled&quot;:{&quot;type&quot;:&quot;bool&quot;,&quot;value&quot;:true}}},&quot;PresetGuid&quot;:{&quot;type&quot;:&quot;UTF8String&quot;,&quot;value&quot;:&quot;bb717b4a-c0b1-4def-9040-3fb8e83b8a91&quot;},&quot;RestorationSection&quot;:{&quot;type&quot;:&quot;tree::any&quot;,&quot;value&quot;:{&quot;Enabled&quot;:{&quot;type&quot;:&quot;bool&quot;,&quot;value&quot;:true},&quot;ReduceHum&quot;:{&quot;type&quot;:&quot;tree::any&quot;,&quot;value&quot;:{&quot;4&quot;:{&quot;type&quot;:&quot;tree::any&quot;,&quot;value&quot;:{&quot;Value&quot;:{&quot;type&quot;:&quot;float&quot;,&quot;value&quot;:7.143000602722168}}},&quot;9&quot;:{&quot;type&quot;:&quot;tree::any&quot;,&quot;value&quot;:{&quot;Value&quot;:{&quot;type&quot;:&quot;float&quot;,&quot;value&quot;:60}}}}}}},&quot;SoundEffectsSection&quot;:{&quot;type&quot;:&quot;tree::any&quot;,&quot;value&quot;:{&quot;Enabled&quot;:{&quot;type&quot;:&quot;bool&quot;,&quot;value&quot;:true},&quot;Reverb&quot;:{&quot;type&quot;:&quot;tree::any&quot;,&quot;value&quot;:{&quot;3&quot;:{&quot;type&quot;:&quot;tree::any&quot;,&quot;value&quot;:{&quot;Value&quot;:{&quot;type&quot;:&quot;float&quot;,&quot;value&quot;:2}}}}}}},&quot;VolumeSection&quot;:{&quot;type&quot;:&quot;tree::any&quot;,&quot;value&quot;:{&quot;Enabled&quot;:{&quot;type&quot;:&quot;bool&quot;,&quot;value&quot;:true}}}}}}"/>
          <component componentGuid="49de4432-4cae-4856-8e05-5f37c66802cb" componentID="Audition.Fader" id="clipGain" name="volume" powered="true">
            <parameter index="0" name="volume" parameterValue="1"/>
            <parameter index="1" name="static gain" parameterValue="1"/>
          </component>
          <component componentGuid="534900ad-3a19-4606-b1a0-79e03e264c3d" componentID="Audition.Mute" id="clipMute" name="Mute" powered="true">
            <parameter index="0" parameterValue="0"/>
            <parameter index="1" name="mute" parameterValue="0"/>
          </component>
          <component componentGuid="85ca09e9-32ab-488a-a39b-f37a985cd9bd" componentID="Audition.StereoPanner" id="clipPan" name="StereoPanner" powered="true">
            <parameter index="0" name="Pan" parameterValue="0"/>
          </component>
          <fadeIn crossFadeLinkType="linkedAsymmetric" endPoint="11025" shape="19" startPoint="0" type="log"/>
          <fadeOut crossFadeLinkType="linkedAsymmetric" endPoint="57799" shape="19" startPoint="46774" type="log"/>
          <editParameter parameterIndex="0" slotIndex="4294967280"/>
          <editParameter parameterIndex="0" slotIndex="4294967281"/>
          <channelMap>
            <channel index="0" sourceIndex="0"/>
          </channelMap>
        </audioClip>
        <audioClip clipAutoCrossfade="true" crossFadeHeadClipID="-1" crossFadeTailClipID="-1" endPoint="24681405" fileID="1" hue="-1" id="12" lockedInTime="false" looped="false" name="Emily" offline="false" select="false" sourceInPoint="35127628" sourceOutPoint="35238089" startPoint="24570944" zOrder="11">
          <properties properties="{&quot;BasicAdjustmentsProperty&quot;:{&quot;type&quot;:&quot;tree::any&quot;,&quot;value&quot;:{&quot;AdjustmentMode&quot;:{&quot;type&quot;:&quot;UTF8String&quot;,&quot;value&quot;:&quot;dialog&quot;},&quot;ClaritySection&quot;:{&quot;type&quot;:&quot;tree::any&quot;,&quot;value&quot;:{&quot;Dynamics&quot;:{&quot;type&quot;:&quot;tree::any&quot;,&quot;value&quot;:{&quot;2&quot;:{&quot;type&quot;:&quot;tree::any&quot;,&quot;value&quot;:{&quot;Value&quot;:{&quot;type&quot;:&quot;float&quot;,&quot;value&quot;:3}}}}},&quot;Enabled&quot;:{&quot;type&quot;:&quot;bool&quot;,&quot;value&quot;:true}}},&quot;ClipType&quot;:{&quot;type&quot;:&quot;std::int32_t&quot;,&quot;value&quot;:1},&quot;EnhanceSpeechSection&quot;:{&quot;type&quot;:&quot;tree::any&quot;,&quot;value&quot;:{&quot;Enabled&quot;:{&quot;type&quot;:&quot;bool&quot;,&quot;value&quot;:true}}},&quot;PresetGuid&quot;:{&quot;type&quot;:&quot;UTF8String&quot;,&quot;value&quot;:&quot;bb717b4a-c0b1-4def-9040-3fb8e83b8a91&quot;},&quot;RestorationSection&quot;:{&quot;type&quot;:&quot;tree::any&quot;,&quot;value&quot;:{&quot;Enabled&quot;:{&quot;type&quot;:&quot;bool&quot;,&quot;value&quot;:true},&quot;ReduceHum&quot;:{&quot;type&quot;:&quot;tree::any&quot;,&quot;value&quot;:{&quot;4&quot;:{&quot;type&quot;:&quot;tree::any&quot;,&quot;value&quot;:{&quot;Value&quot;:{&quot;type&quot;:&quot;float&quot;,&quot;value&quot;:7.143000602722168}}},&quot;9&quot;:{&quot;type&quot;:&quot;tree::any&quot;,&quot;value&quot;:{&quot;Value&quot;:{&quot;type&quot;:&quot;float&quot;,&quot;value&quot;:60}}}}}}},&quot;SoundEffectsSection&quot;:{&quot;type&quot;:&quot;tree::any&quot;,&quot;value&quot;:{&quot;Enabled&quot;:{&quot;type&quot;:&quot;bool&quot;,&quot;value&quot;:true},&quot;Reverb&quot;:{&quot;type&quot;:&quot;tree::any&quot;,&quot;value&quot;:{&quot;3&quot;:{&quot;type&quot;:&quot;tree::any&quot;,&quot;value&quot;:{&quot;Value&quot;:{&quot;type&quot;:&quot;float&quot;,&quot;value&quot;:2}}}}}}},&quot;VolumeSection&quot;:{&quot;type&quot;:&quot;tree::any&quot;,&quot;value&quot;:{&quot;Enabled&quot;:{&quot;type&quot;:&quot;bool&quot;,&quot;value&quot;:true}}}}}}"/>
          <component componentGuid="dbb4e722-8413-4d9c-9ca2-00c32ea11c3d" componentID="Audition.Fader" id="clipGain" name="volume" powered="true">
            <parameter index="0" name="volume" parameterValue="1"/>
            <parameter index="1" name="static gain" parameterValue="1"/>
          </component>
          <component componentGuid="1f7df5f2-e554-4a32-83e4-29ca9f0ce474" componentID="Audition.Mute" id="clipMute" name="Mute" powered="true">
            <parameter index="0" parameterValue="0"/>
            <parameter index="1" name="mute" parameterValue="0"/>
          </component>
          <component componentGuid="708aa418-0983-44e0-b855-75e52e0fae25" componentID="Audition.StereoPanner" id="clipPan" name="StereoPanner" powered="true">
            <parameter index="0" name="Pan" parameterValue="0"/>
          </component>
          <fadeIn crossFadeLinkType="linkedAsymmetric" endPoint="11025" shape="19" startPoint="0" type="log"/>
          <fadeOut crossFadeLinkType="linkedAsymmetric" endPoint="110461" shape="19" startPoint="99436" type="log"/>
          <editParameter parameterIndex="0" slotIndex="4294967280"/>
          <editParameter parameterIndex="0" slotIndex="4294967281"/>
          <channelMap>
            <channel index="0" sourceIndex="0"/>
          </channelMap>
        </audioClip>
        <audioClip clipAutoCrossfade="true" crossFadeHeadClipID="-1" crossFadeTailClipID="-1" endPoint="25009919" fileID="1" hue="-1" id="13" lockedInTime="false" looped="false" name="Emily" offline="false" select="false" sourceInPoint="35509266" sourceOutPoint="35566602" startPoint="24952583" zOrder="16">
          <properties properties="{&quot;BasicAdjustmentsProperty&quot;:{&quot;type&quot;:&quot;tree::any&quot;,&quot;value&quot;:{&quot;AdjustmentMode&quot;:{&quot;type&quot;:&quot;UTF8String&quot;,&quot;value&quot;:&quot;dialog&quot;},&quot;ClaritySection&quot;:{&quot;type&quot;:&quot;tree::any&quot;,&quot;value&quot;:{&quot;Dynamics&quot;:{&quot;type&quot;:&quot;tree::any&quot;,&quot;value&quot;:{&quot;2&quot;:{&quot;type&quot;:&quot;tree::any&quot;,&quot;value&quot;:{&quot;Value&quot;:{&quot;type&quot;:&quot;float&quot;,&quot;value&quot;:3}}}}},&quot;Enabled&quot;:{&quot;type&quot;:&quot;bool&quot;,&quot;value&quot;:true}}},&quot;ClipType&quot;:{&quot;type&quot;:&quot;std::int32_t&quot;,&quot;value&quot;:1},&quot;EnhanceSpeechSection&quot;:{&quot;type&quot;:&quot;tree::any&quot;,&quot;value&quot;:{&quot;Enabled&quot;:{&quot;type&quot;:&quot;bool&quot;,&quot;value&quot;:true}}},&quot;PresetGuid&quot;:{&quot;type&quot;:&quot;UTF8String&quot;,&quot;value&quot;:&quot;bb717b4a-c0b1-4def-9040-3fb8e83b8a91&quot;},&quot;RestorationSection&quot;:{&quot;type&quot;:&quot;tree::any&quot;,&quot;value&quot;:{&quot;Enabled&quot;:{&quot;type&quot;:&quot;bool&quot;,&quot;value&quot;:true},&quot;ReduceHum&quot;:{&quot;type&quot;:&quot;tree::any&quot;,&quot;value&quot;:{&quot;4&quot;:{&quot;type&quot;:&quot;tree::any&quot;,&quot;value&quot;:{&quot;Value&quot;:{&quot;type&quot;:&quot;float&quot;,&quot;value&quot;:7.143000602722168}}},&quot;9&quot;:{&quot;type&quot;:&quot;tree::any&quot;,&quot;value&quot;:{&quot;Value&quot;:{&quot;type&quot;:&quot;float&quot;,&quot;value&quot;:60}}}}}}},&quot;SoundEffectsSection&quot;:{&quot;type&quot;:&quot;tree::any&quot;,&quot;value&quot;:{&quot;Enabled&quot;:{&quot;type&quot;:&quot;bool&quot;,&quot;value&quot;:true},&quot;Reverb&quot;:{&quot;type&quot;:&quot;tree::any&quot;,&quot;value&quot;:{&quot;3&quot;:{&quot;type&quot;:&quot;tree::any&quot;,&quot;value&quot;:{&quot;Value&quot;:{&quot;type&quot;:&quot;float&quot;,&quot;value&quot;:2}}}}}}},&quot;VolumeSection&quot;:{&quot;type&quot;:&quot;tree::any&quot;,&quot;value&quot;:{&quot;Enabled&quot;:{&quot;type&quot;:&quot;bool&quot;,&quot;value&quot;:true}}}}}}"/>
          <component componentGuid="f846e1a1-0586-4cf3-a340-a2310e558ed8" componentID="Audition.Fader" id="clipGain" name="volume" powered="true">
            <parameter index="0" name="volume" parameterValue="1"/>
            <parameter index="1" name="static gain" parameterValue="1"/>
          </component>
          <component componentGuid="6310f9a2-8cd0-48f4-af9f-76aee0e40c75" componentID="Audition.Mute" id="clipMute" name="Mute" powered="true">
            <parameter index="0" parameterValue="0"/>
            <parameter index="1" name="mute" parameterValue="0"/>
          </component>
          <component componentGuid="484d63a0-28de-4faf-9ad6-1fa7dfc6c8d7" componentID="Audition.StereoPanner" id="clipPan" name="StereoPanner" powered="true">
            <parameter index="0" name="Pan" parameterValue="0"/>
          </component>
          <fadeIn crossFadeLinkType="linkedAsymmetric" endPoint="11025" shape="19" startPoint="0" type="log"/>
          <fadeOut crossFadeLinkType="linkedAsymmetric" endPoint="57336" shape="19" startPoint="46311" type="log"/>
          <editParameter parameterIndex="0" slotIndex="4294967280"/>
          <editParameter parameterIndex="0" slotIndex="4294967281"/>
          <channelMap>
            <channel index="0" sourceIndex="0"/>
          </channelMap>
        </audioClip>
        <audioClip clipAutoCrossfade="true" crossFadeHeadClipID="-1" crossFadeTailClipID="-1" endPoint="27234631" fileID="1" hue="-1" id="14" lockedInTime="false" looped="false" name="Emily" offline="false" select="false" sourceInPoint="36956212" sourceOutPoint="37790865" startPoint="26399978" zOrder="12">
          <properties properties="{&quot;BasicAdjustmentsProperty&quot;:{&quot;type&quot;:&quot;tree::any&quot;,&quot;value&quot;:{&quot;AdjustmentMode&quot;:{&quot;type&quot;:&quot;UTF8String&quot;,&quot;value&quot;:&quot;dialog&quot;},&quot;ClaritySection&quot;:{&quot;type&quot;:&quot;tree::any&quot;,&quot;value&quot;:{&quot;Dynamics&quot;:{&quot;type&quot;:&quot;tree::any&quot;,&quot;value&quot;:{&quot;2&quot;:{&quot;type&quot;:&quot;tree::any&quot;,&quot;value&quot;:{&quot;Value&quot;:{&quot;type&quot;:&quot;float&quot;,&quot;value&quot;:3}}}}},&quot;Enabled&quot;:{&quot;type&quot;:&quot;bool&quot;,&quot;value&quot;:true}}},&quot;ClipType&quot;:{&quot;type&quot;:&quot;std::int32_t&quot;,&quot;value&quot;:1},&quot;EnhanceSpeechSection&quot;:{&quot;type&quot;:&quot;tree::any&quot;,&quot;value&quot;:{&quot;Enabled&quot;:{&quot;type&quot;:&quot;bool&quot;,&quot;value&quot;:true}}},&quot;PresetGuid&quot;:{&quot;type&quot;:&quot;UTF8String&quot;,&quot;value&quot;:&quot;bb717b4a-c0b1-4def-9040-3fb8e83b8a91&quot;},&quot;RestorationSection&quot;:{&quot;type&quot;:&quot;tree::any&quot;,&quot;value&quot;:{&quot;Enabled&quot;:{&quot;type&quot;:&quot;bool&quot;,&quot;value&quot;:true},&quot;ReduceHum&quot;:{&quot;type&quot;:&quot;tree::any&quot;,&quot;value&quot;:{&quot;4&quot;:{&quot;type&quot;:&quot;tree::any&quot;,&quot;value&quot;:{&quot;Value&quot;:{&quot;type&quot;:&quot;float&quot;,&quot;value&quot;:7.143000602722168}}},&quot;9&quot;:{&quot;type&quot;:&quot;tree::any&quot;,&quot;value&quot;:{&quot;Value&quot;:{&quot;type&quot;:&quot;float&quot;,&quot;value&quot;:60}}}}}}},&quot;SoundEffectsSection&quot;:{&quot;type&quot;:&quot;tree::any&quot;,&quot;value&quot;:{&quot;Enabled&quot;:{&quot;type&quot;:&quot;bool&quot;,&quot;value&quot;:true},&quot;Reverb&quot;:{&quot;type&quot;:&quot;tree::any&quot;,&quot;value&quot;:{&quot;3&quot;:{&quot;type&quot;:&quot;tree::any&quot;,&quot;value&quot;:{&quot;Value&quot;:{&quot;type&quot;:&quot;float&quot;,&quot;value&quot;:2}}}}}}},&quot;VolumeSection&quot;:{&quot;type&quot;:&quot;tree::any&quot;,&quot;value&quot;:{&quot;Enabled&quot;:{&quot;type&quot;:&quot;bool&quot;,&quot;value&quot;:true}}}}}}"/>
          <component componentGuid="d22155dd-aed3-4d57-8d28-9cf4b027b6c1" componentID="Audition.Fader" id="clipGain" name="volume" powered="true">
            <parameter index="0" name="volume" parameterValue="1"/>
            <parameter index="1" name="static gain" parameterValue="1"/>
          </component>
          <component componentGuid="cab33c6c-7e87-40e2-877a-e2525e85cc8b" componentID="Audition.Mute" id="clipMute" name="Mute" powered="true">
            <parameter index="0" parameterValue="0"/>
            <parameter index="1" name="mute" parameterValue="0"/>
          </component>
          <component componentGuid="69d1dede-e037-4f15-ae16-98e38db699df" componentID="Audition.StereoPanner" id="clipPan" name="StereoPanner" powered="true">
            <parameter index="0" name="Pan" parameterValue="0"/>
          </component>
          <fadeIn crossFadeLinkType="linkedAsymmetric" endPoint="11025" shape="19" startPoint="0" type="log"/>
          <fadeOut crossFadeLinkType="linkedAsymmetric" endPoint="834653" shape="19" startPoint="823628" type="log"/>
          <editParameter parameterIndex="0" slotIndex="4294967280"/>
          <editParameter parameterIndex="0" slotIndex="4294967281"/>
          <channelMap>
            <channel index="0" sourceIndex="0"/>
          </channelMap>
        </audioClip>
        <audioClip clipAutoCrossfade="true" crossFadeHeadClipID="-1" crossFadeTailClipID="-1" endPoint="28066228" fileID="1" hue="-1" id="15" lockedInTime="false" looped="false" name="Emily" offline="false" select="false" sourceInPoint="38565685" sourceOutPoint="38622462" startPoint="28009451" zOrder="14">
          <properties properties="{&quot;BasicAdjustmentsProperty&quot;:{&quot;type&quot;:&quot;tree::any&quot;,&quot;value&quot;:{&quot;AdjustmentMode&quot;:{&quot;type&quot;:&quot;UTF8String&quot;,&quot;value&quot;:&quot;dialog&quot;},&quot;ClaritySection&quot;:{&quot;type&quot;:&quot;tree::any&quot;,&quot;value&quot;:{&quot;Dynamics&quot;:{&quot;type&quot;:&quot;tree::any&quot;,&quot;value&quot;:{&quot;2&quot;:{&quot;type&quot;:&quot;tree::any&quot;,&quot;value&quot;:{&quot;Value&quot;:{&quot;type&quot;:&quot;float&quot;,&quot;value&quot;:3}}}}},&quot;Enabled&quot;:{&quot;type&quot;:&quot;bool&quot;,&quot;value&quot;:true}}},&quot;ClipType&quot;:{&quot;type&quot;:&quot;std::int32_t&quot;,&quot;value&quot;:1},&quot;EnhanceSpeechSection&quot;:{&quot;type&quot;:&quot;tree::any&quot;,&quot;value&quot;:{&quot;Enabled&quot;:{&quot;type&quot;:&quot;bool&quot;,&quot;value&quot;:true}}},&quot;PresetGuid&quot;:{&quot;type&quot;:&quot;UTF8String&quot;,&quot;value&quot;:&quot;bb717b4a-c0b1-4def-9040-3fb8e83b8a91&quot;},&quot;RestorationSection&quot;:{&quot;type&quot;:&quot;tree::any&quot;,&quot;value&quot;:{&quot;Enabled&quot;:{&quot;type&quot;:&quot;bool&quot;,&quot;value&quot;:true},&quot;ReduceHum&quot;:{&quot;type&quot;:&quot;tree::any&quot;,&quot;value&quot;:{&quot;4&quot;:{&quot;type&quot;:&quot;tree::any&quot;,&quot;value&quot;:{&quot;Value&quot;:{&quot;type&quot;:&quot;float&quot;,&quot;value&quot;:7.143000602722168}}},&quot;9&quot;:{&quot;type&quot;:&quot;tree::any&quot;,&quot;value&quot;:{&quot;Value&quot;:{&quot;type&quot;:&quot;float&quot;,&quot;value&quot;:60}}}}}}},&quot;SoundEffectsSection&quot;:{&quot;type&quot;:&quot;tree::any&quot;,&quot;value&quot;:{&quot;Enabled&quot;:{&quot;type&quot;:&quot;bool&quot;,&quot;value&quot;:true},&quot;Reverb&quot;:{&quot;type&quot;:&quot;tree::any&quot;,&quot;value&quot;:{&quot;3&quot;:{&quot;type&quot;:&quot;tree::any&quot;,&quot;value&quot;:{&quot;Value&quot;:{&quot;type&quot;:&quot;float&quot;,&quot;value&quot;:2}}}}}}},&quot;VolumeSection&quot;:{&quot;type&quot;:&quot;tree::any&quot;,&quot;value&quot;:{&quot;Enabled&quot;:{&quot;type&quot;:&quot;bool&quot;,&quot;value&quot;:true}}}}}}"/>
          <component componentGuid="e6071248-aaf0-40e0-94aa-a117476df6f3" componentID="Audition.Fader" id="clipGain" name="volume" powered="true">
            <parameter index="0" name="volume" parameterValue="1"/>
            <parameter index="1" name="static gain" parameterValue="1"/>
          </component>
          <component componentGuid="dbebc6ff-610b-4cdf-be2b-3273ed8ca66e" componentID="Audition.Mute" id="clipMute" name="Mute" powered="true">
            <parameter index="0" parameterValue="0"/>
            <parameter index="1" name="mute" parameterValue="0"/>
          </component>
          <component componentGuid="338f56c5-ae1b-4293-b27f-c3e45a9726be" componentID="Audition.StereoPanner" id="clipPan" name="StereoPanner" powered="true">
            <parameter index="0" name="Pan" parameterValue="0"/>
          </component>
          <fadeIn crossFadeLinkType="linkedAsymmetric" endPoint="11025" shape="19" startPoint="0" type="log"/>
          <fadeOut crossFadeLinkType="linkedAsymmetric" endPoint="56777" shape="19" startPoint="45752" type="log"/>
          <editParameter parameterIndex="0" slotIndex="4294967280"/>
          <editParameter parameterIndex="0" slotIndex="4294967281"/>
          <channelMap>
            <channel index="0" sourceIndex="0"/>
          </channelMap>
        </audioClip>
        <audioClip clipAutoCrossfade="true" crossFadeHeadClipID="-1" crossFadeTailClipID="-1" endPoint="28408545" fileID="1" hue="-1" id="16" lockedInTime="false" looped="false" name="Emily" offline="false" select="false" sourceInPoint="38908609" sourceOutPoint="38964778" startPoint="28352376" zOrder="15">
          <properties properties="{&quot;BasicAdjustmentsProperty&quot;:{&quot;type&quot;:&quot;tree::any&quot;,&quot;value&quot;:{&quot;AdjustmentMode&quot;:{&quot;type&quot;:&quot;UTF8String&quot;,&quot;value&quot;:&quot;dialog&quot;},&quot;ClaritySection&quot;:{&quot;type&quot;:&quot;tree::any&quot;,&quot;value&quot;:{&quot;Dynamics&quot;:{&quot;type&quot;:&quot;tree::any&quot;,&quot;value&quot;:{&quot;2&quot;:{&quot;type&quot;:&quot;tree::any&quot;,&quot;value&quot;:{&quot;Value&quot;:{&quot;type&quot;:&quot;float&quot;,&quot;value&quot;:3}}}}},&quot;Enabled&quot;:{&quot;type&quot;:&quot;bool&quot;,&quot;value&quot;:true}}},&quot;ClipType&quot;:{&quot;type&quot;:&quot;std::int32_t&quot;,&quot;value&quot;:1},&quot;EnhanceSpeechSection&quot;:{&quot;type&quot;:&quot;tree::any&quot;,&quot;value&quot;:{&quot;Enabled&quot;:{&quot;type&quot;:&quot;bool&quot;,&quot;value&quot;:true}}},&quot;PresetGuid&quot;:{&quot;type&quot;:&quot;UTF8String&quot;,&quot;value&quot;:&quot;bb717b4a-c0b1-4def-9040-3fb8e83b8a91&quot;},&quot;RestorationSection&quot;:{&quot;type&quot;:&quot;tree::any&quot;,&quot;value&quot;:{&quot;Enabled&quot;:{&quot;type&quot;:&quot;bool&quot;,&quot;value&quot;:true},&quot;ReduceHum&quot;:{&quot;type&quot;:&quot;tree::any&quot;,&quot;value&quot;:{&quot;4&quot;:{&quot;type&quot;:&quot;tree::any&quot;,&quot;value&quot;:{&quot;Value&quot;:{&quot;type&quot;:&quot;float&quot;,&quot;value&quot;:7.143000602722168}}},&quot;9&quot;:{&quot;type&quot;:&quot;tree::any&quot;,&quot;value&quot;:{&quot;Value&quot;:{&quot;type&quot;:&quot;float&quot;,&quot;value&quot;:60}}}}}}},&quot;SoundEffectsSection&quot;:{&quot;type&quot;:&quot;tree::any&quot;,&quot;value&quot;:{&quot;Enabled&quot;:{&quot;type&quot;:&quot;bool&quot;,&quot;value&quot;:true},&quot;Reverb&quot;:{&quot;type&quot;:&quot;tree::any&quot;,&quot;value&quot;:{&quot;3&quot;:{&quot;type&quot;:&quot;tree::any&quot;,&quot;value&quot;:{&quot;Value&quot;:{&quot;type&quot;:&quot;float&quot;,&quot;value&quot;:2}}}}}}},&quot;VolumeSection&quot;:{&quot;type&quot;:&quot;tree::any&quot;,&quot;value&quot;:{&quot;Enabled&quot;:{&quot;type&quot;:&quot;bool&quot;,&quot;value&quot;:true}}}}}}"/>
          <component componentGuid="48ebcf8b-81f1-4a4f-a9c4-f07e20cca825" componentID="Audition.Fader" id="clipGain" name="volume" powered="true">
            <parameter index="0" name="volume" parameterValue="1"/>
            <parameter index="1" name="static gain" parameterValue="1"/>
          </component>
          <component componentGuid="8e506d73-cc48-4e25-bee3-d25d9b905427" componentID="Audition.Mute" id="clipMute" name="Mute" powered="true">
            <parameter index="0" parameterValue="0"/>
            <parameter index="1" name="mute" parameterValue="0"/>
          </component>
          <component componentGuid="f4f4356d-3bf4-4e87-8eda-665a6f850101" componentID="Audition.StereoPanner" id="clipPan" name="StereoPanner" powered="true">
            <parameter index="0" name="Pan" parameterValue="0"/>
          </component>
          <fadeIn crossFadeLinkType="linkedAsymmetric" endPoint="11025" shape="19" startPoint="0" type="log"/>
          <fadeOut crossFadeLinkType="linkedAsymmetric" endPoint="56169" shape="19" startPoint="45144" type="log"/>
          <editParameter parameterIndex="0" slotIndex="4294967280"/>
          <editParameter parameterIndex="0" slotIndex="4294967281"/>
          <channelMap>
            <channel index="0" sourceIndex="0"/>
          </channelMap>
        </audioClip>
        <audioClip clipAutoCrossfade="true" crossFadeHeadClipID="-1" crossFadeTailClipID="-1" endPoint="30926839" fileID="1" hue="-1" id="17" lockedInTime="false" looped="false" name="Emily" offline="false" select="false" sourceInPoint="41428829" sourceOutPoint="41483074" startPoint="30872594" zOrder="19">
          <properties properties="{&quot;BasicAdjustmentsProperty&quot;:{&quot;type&quot;:&quot;tree::any&quot;,&quot;value&quot;:{&quot;AdjustmentMode&quot;:{&quot;type&quot;:&quot;UTF8String&quot;,&quot;value&quot;:&quot;dialog&quot;},&quot;ClaritySection&quot;:{&quot;type&quot;:&quot;tree::any&quot;,&quot;value&quot;:{&quot;Dynamics&quot;:{&quot;type&quot;:&quot;tree::any&quot;,&quot;value&quot;:{&quot;2&quot;:{&quot;type&quot;:&quot;tree::any&quot;,&quot;value&quot;:{&quot;Value&quot;:{&quot;type&quot;:&quot;float&quot;,&quot;value&quot;:3}}}}},&quot;Enabled&quot;:{&quot;type&quot;:&quot;bool&quot;,&quot;value&quot;:true}}},&quot;ClipType&quot;:{&quot;type&quot;:&quot;std::int32_t&quot;,&quot;value&quot;:1},&quot;EnhanceSpeechSection&quot;:{&quot;type&quot;:&quot;tree::any&quot;,&quot;value&quot;:{&quot;Enabled&quot;:{&quot;type&quot;:&quot;bool&quot;,&quot;value&quot;:true}}},&quot;PresetGuid&quot;:{&quot;type&quot;:&quot;UTF8String&quot;,&quot;value&quot;:&quot;bb717b4a-c0b1-4def-9040-3fb8e83b8a91&quot;},&quot;RestorationSection&quot;:{&quot;type&quot;:&quot;tree::any&quot;,&quot;value&quot;:{&quot;Enabled&quot;:{&quot;type&quot;:&quot;bool&quot;,&quot;value&quot;:true},&quot;ReduceHum&quot;:{&quot;type&quot;:&quot;tree::any&quot;,&quot;value&quot;:{&quot;4&quot;:{&quot;type&quot;:&quot;tree::any&quot;,&quot;value&quot;:{&quot;Value&quot;:{&quot;type&quot;:&quot;float&quot;,&quot;value&quot;:7.143000602722168}}},&quot;9&quot;:{&quot;type&quot;:&quot;tree::any&quot;,&quot;value&quot;:{&quot;Value&quot;:{&quot;type&quot;:&quot;float&quot;,&quot;value&quot;:60}}}}}}},&quot;SoundEffectsSection&quot;:{&quot;type&quot;:&quot;tree::any&quot;,&quot;value&quot;:{&quot;Enabled&quot;:{&quot;type&quot;:&quot;bool&quot;,&quot;value&quot;:true},&quot;Reverb&quot;:{&quot;type&quot;:&quot;tree::any&quot;,&quot;value&quot;:{&quot;3&quot;:{&quot;type&quot;:&quot;tree::any&quot;,&quot;value&quot;:{&quot;Value&quot;:{&quot;type&quot;:&quot;float&quot;,&quot;value&quot;:2}}}}}}},&quot;VolumeSection&quot;:{&quot;type&quot;:&quot;tree::any&quot;,&quot;value&quot;:{&quot;Enabled&quot;:{&quot;type&quot;:&quot;bool&quot;,&quot;value&quot;:true}}}}}}"/>
          <component componentGuid="2597a0ce-863a-443c-928a-a46d4f83a03e" componentID="Audition.Fader" id="clipGain" name="volume" powered="true">
            <parameter index="0" name="volume" parameterValue="1"/>
            <parameter index="1" name="static gain" parameterValue="1"/>
          </component>
          <component componentGuid="b900c2eb-1f80-4f73-bf31-7280de29ab07" componentID="Audition.Mute" id="clipMute" name="Mute" powered="true">
            <parameter index="0" parameterValue="0"/>
            <parameter index="1" name="mute" parameterValue="0"/>
          </component>
          <component componentGuid="f8b4fb13-52c5-443b-9ea9-577576eb3343" componentID="Audition.StereoPanner" id="clipPan" name="StereoPanner" powered="true">
            <parameter index="0" name="Pan" parameterValue="0"/>
          </component>
          <fadeIn crossFadeLinkType="linkedAsymmetric" endPoint="11025" shape="19" startPoint="0" type="log"/>
          <fadeOut crossFadeLinkType="linkedAsymmetric" endPoint="54245" shape="19" startPoint="43220" type="log"/>
          <editParameter parameterIndex="0" slotIndex="4294967280"/>
          <editParameter parameterIndex="0" slotIndex="4294967281"/>
          <channelMap>
            <channel index="0" sourceIndex="0"/>
          </channelMap>
        </audioClip>
        <audioClip clipAutoCrossfade="true" crossFadeHeadClipID="-1" crossFadeTailClipID="-1" endPoint="31678010" fileID="1" hue="-1" id="18" lockedInTime="false" looped="false" name="Emily" offline="false" select="false" sourceInPoint="41978775" sourceOutPoint="42235550" startPoint="31421235" zOrder="17">
          <properties properties="{&quot;BasicAdjustmentsProperty&quot;:{&quot;type&quot;:&quot;tree::any&quot;,&quot;value&quot;:{&quot;AdjustmentMode&quot;:{&quot;type&quot;:&quot;UTF8String&quot;,&quot;value&quot;:&quot;dialog&quot;},&quot;ClaritySection&quot;:{&quot;type&quot;:&quot;tree::any&quot;,&quot;value&quot;:{&quot;Dynamics&quot;:{&quot;type&quot;:&quot;tree::any&quot;,&quot;value&quot;:{&quot;2&quot;:{&quot;type&quot;:&quot;tree::any&quot;,&quot;value&quot;:{&quot;Value&quot;:{&quot;type&quot;:&quot;float&quot;,&quot;value&quot;:3}}}}},&quot;Enabled&quot;:{&quot;type&quot;:&quot;bool&quot;,&quot;value&quot;:true}}},&quot;ClipType&quot;:{&quot;type&quot;:&quot;std::int32_t&quot;,&quot;value&quot;:1},&quot;EnhanceSpeechSection&quot;:{&quot;type&quot;:&quot;tree::any&quot;,&quot;value&quot;:{&quot;Enabled&quot;:{&quot;type&quot;:&quot;bool&quot;,&quot;value&quot;:true}}},&quot;PresetGuid&quot;:{&quot;type&quot;:&quot;UTF8String&quot;,&quot;value&quot;:&quot;bb717b4a-c0b1-4def-9040-3fb8e83b8a91&quot;},&quot;RestorationSection&quot;:{&quot;type&quot;:&quot;tree::any&quot;,&quot;value&quot;:{&quot;Enabled&quot;:{&quot;type&quot;:&quot;bool&quot;,&quot;value&quot;:true},&quot;ReduceHum&quot;:{&quot;type&quot;:&quot;tree::any&quot;,&quot;value&quot;:{&quot;4&quot;:{&quot;type&quot;:&quot;tree::any&quot;,&quot;value&quot;:{&quot;Value&quot;:{&quot;type&quot;:&quot;float&quot;,&quot;value&quot;:7.143000602722168}}},&quot;9&quot;:{&quot;type&quot;:&quot;tree::any&quot;,&quot;value&quot;:{&quot;Value&quot;:{&quot;type&quot;:&quot;float&quot;,&quot;value&quot;:60}}}}}}},&quot;SoundEffectsSection&quot;:{&quot;type&quot;:&quot;tree::any&quot;,&quot;value&quot;:{&quot;Enabled&quot;:{&quot;type&quot;:&quot;bool&quot;,&quot;value&quot;:true},&quot;Reverb&quot;:{&quot;type&quot;:&quot;tree::any&quot;,&quot;value&quot;:{&quot;3&quot;:{&quot;type&quot;:&quot;tree::any&quot;,&quot;value&quot;:{&quot;Value&quot;:{&quot;type&quot;:&quot;float&quot;,&quot;value&quot;:2}}}}}}},&quot;VolumeSection&quot;:{&quot;type&quot;:&quot;tree::any&quot;,&quot;value&quot;:{&quot;Enabled&quot;:{&quot;type&quot;:&quot;bool&quot;,&quot;value&quot;:true}}}}}}"/>
          <component componentGuid="57890a8f-b984-44d3-ba07-f19a2062430e" componentID="Audition.Fader" id="clipGain" name="volume" powered="true">
            <parameter index="0" name="volume" parameterValue="1"/>
            <parameter index="1" name="static gain" parameterValue="1"/>
          </component>
          <component componentGuid="ee0dec08-5419-4632-8ca7-0877b9192977" componentID="Audition.Mute" id="clipMute" name="Mute" powered="true">
            <parameter index="0" parameterValue="0"/>
            <parameter index="1" name="mute" parameterValue="0"/>
          </component>
          <component componentGuid="ab3888ec-9e69-46a8-9147-0a1f09f088da" componentID="Audition.StereoPanner" id="clipPan" name="StereoPanner" powered="true">
            <parameter index="0" name="Pan" parameterValue="0"/>
          </component>
          <fadeIn crossFadeLinkType="linkedAsymmetric" endPoint="0" shape="19" startPoint="0" type="log"/>
          <fadeOut crossFadeLinkType="linkedAsymmetric" endPoint="256775" shape="19" startPoint="245750" type="log"/>
          <editParameter parameterIndex="0" slotIndex="4294967280"/>
          <editParameter parameterIndex="0" slotIndex="4294967281"/>
          <channelMap>
            <channel index="0" sourceIndex="0"/>
          </channelMap>
        </audioClip>
        <audioClip clipAutoCrossfade="true" crossFadeHeadClipID="-1" crossFadeTailClipID="-1" endPoint="32869561" fileID="1" hue="-1" id="19" lockedInTime="false" looped="false" name="Emily" offline="false" select="false" sourceInPoint="43290826" sourceOutPoint="43425353" startPoint="32735034" zOrder="18">
          <properties properties="{&quot;BasicAdjustmentsProperty&quot;:{&quot;type&quot;:&quot;tree::any&quot;,&quot;value&quot;:{&quot;AdjustmentMode&quot;:{&quot;type&quot;:&quot;UTF8String&quot;,&quot;value&quot;:&quot;dialog&quot;},&quot;ClaritySection&quot;:{&quot;type&quot;:&quot;tree::any&quot;,&quot;value&quot;:{&quot;Dynamics&quot;:{&quot;type&quot;:&quot;tree::any&quot;,&quot;value&quot;:{&quot;2&quot;:{&quot;type&quot;:&quot;tree::any&quot;,&quot;value&quot;:{&quot;Value&quot;:{&quot;type&quot;:&quot;float&quot;,&quot;value&quot;:3}}}}},&quot;Enabled&quot;:{&quot;type&quot;:&quot;bool&quot;,&quot;value&quot;:true}}},&quot;ClipType&quot;:{&quot;type&quot;:&quot;std::int32_t&quot;,&quot;value&quot;:1},&quot;EnhanceSpeechSection&quot;:{&quot;type&quot;:&quot;tree::any&quot;,&quot;value&quot;:{&quot;Enabled&quot;:{&quot;type&quot;:&quot;bool&quot;,&quot;value&quot;:true}}},&quot;PresetGuid&quot;:{&quot;type&quot;:&quot;UTF8String&quot;,&quot;value&quot;:&quot;bb717b4a-c0b1-4def-9040-3fb8e83b8a91&quot;},&quot;RestorationSection&quot;:{&quot;type&quot;:&quot;tree::any&quot;,&quot;value&quot;:{&quot;Enabled&quot;:{&quot;type&quot;:&quot;bool&quot;,&quot;value&quot;:true},&quot;ReduceHum&quot;:{&quot;type&quot;:&quot;tree::any&quot;,&quot;value&quot;:{&quot;4&quot;:{&quot;type&quot;:&quot;tree::any&quot;,&quot;value&quot;:{&quot;Value&quot;:{&quot;type&quot;:&quot;float&quot;,&quot;value&quot;:7.143000602722168}}},&quot;9&quot;:{&quot;type&quot;:&quot;tree::any&quot;,&quot;value&quot;:{&quot;Value&quot;:{&quot;type&quot;:&quot;float&quot;,&quot;value&quot;:60}}}}}}},&quot;SoundEffectsSection&quot;:{&quot;type&quot;:&quot;tree::any&quot;,&quot;value&quot;:{&quot;Enabled&quot;:{&quot;type&quot;:&quot;bool&quot;,&quot;value&quot;:true},&quot;Reverb&quot;:{&quot;type&quot;:&quot;tree::any&quot;,&quot;value&quot;:{&quot;3&quot;:{&quot;type&quot;:&quot;tree::any&quot;,&quot;value&quot;:{&quot;Value&quot;:{&quot;type&quot;:&quot;float&quot;,&quot;value&quot;:2}}}}}}},&quot;VolumeSection&quot;:{&quot;type&quot;:&quot;tree::any&quot;,&quot;value&quot;:{&quot;Enabled&quot;:{&quot;type&quot;:&quot;bool&quot;,&quot;value&quot;:true}}}}}}"/>
          <component componentGuid="05f51666-b4bb-4e60-a029-e5092abc8974" componentID="Audition.Fader" id="clipGain" name="volume" powered="true">
            <parameter index="0" name="volume" parameterValue="1"/>
            <parameter index="1" name="static gain" parameterValue="1"/>
          </component>
          <component componentGuid="94f8a954-e491-42b8-a86e-776c1fc58b1f" componentID="Audition.Mute" id="clipMute" name="Mute" powered="true">
            <parameter index="0" parameterValue="0"/>
            <parameter index="1" name="mute" parameterValue="0"/>
          </component>
          <component componentGuid="c8c0e1ce-d24a-4d69-bc48-e85b1e3b444f" componentID="Audition.StereoPanner" id="clipPan" name="StereoPanner" powered="true">
            <parameter index="0" name="Pan" parameterValue="0"/>
          </component>
          <fadeIn crossFadeLinkType="linkedAsymmetric" endPoint="11025" shape="19" startPoint="0" type="log"/>
          <fadeOut crossFadeLinkType="linkedAsymmetric" endPoint="134527" shape="19" startPoint="123502" type="log"/>
          <editParameter parameterIndex="0" slotIndex="4294967280"/>
          <editParameter parameterIndex="0" slotIndex="4294967281"/>
          <channelMap>
            <channel index="0" sourceIndex="0"/>
          </channelMap>
        </audioClip>
        <audioClip clipAutoCrossfade="true" crossFadeHeadClipID="-1" crossFadeTailClipID="-1" endPoint="34652079" fileID="1" hue="-1" id="20" lockedInTime="false" looped="false" name="Emily" offline="false" select="false" sourceInPoint="45123738" sourceOutPoint="45207871" startPoint="34567946" zOrder="20">
          <properties properties="{&quot;BasicAdjustmentsProperty&quot;:{&quot;type&quot;:&quot;tree::any&quot;,&quot;value&quot;:{&quot;AdjustmentMode&quot;:{&quot;type&quot;:&quot;UTF8String&quot;,&quot;value&quot;:&quot;dialog&quot;},&quot;ClaritySection&quot;:{&quot;type&quot;:&quot;tree::any&quot;,&quot;value&quot;:{&quot;Dynamics&quot;:{&quot;type&quot;:&quot;tree::any&quot;,&quot;value&quot;:{&quot;2&quot;:{&quot;type&quot;:&quot;tree::any&quot;,&quot;value&quot;:{&quot;Value&quot;:{&quot;type&quot;:&quot;float&quot;,&quot;value&quot;:3}}}}},&quot;Enabled&quot;:{&quot;type&quot;:&quot;bool&quot;,&quot;value&quot;:true}}},&quot;ClipType&quot;:{&quot;type&quot;:&quot;std::int32_t&quot;,&quot;value&quot;:1},&quot;EnhanceSpeechSection&quot;:{&quot;type&quot;:&quot;tree::any&quot;,&quot;value&quot;:{&quot;Enabled&quot;:{&quot;type&quot;:&quot;bool&quot;,&quot;value&quot;:true}}},&quot;PresetGuid&quot;:{&quot;type&quot;:&quot;UTF8String&quot;,&quot;value&quot;:&quot;bb717b4a-c0b1-4def-9040-3fb8e83b8a91&quot;},&quot;RestorationSection&quot;:{&quot;type&quot;:&quot;tree::any&quot;,&quot;value&quot;:{&quot;Enabled&quot;:{&quot;type&quot;:&quot;bool&quot;,&quot;value&quot;:true},&quot;ReduceHum&quot;:{&quot;type&quot;:&quot;tree::any&quot;,&quot;value&quot;:{&quot;4&quot;:{&quot;type&quot;:&quot;tree::any&quot;,&quot;value&quot;:{&quot;Value&quot;:{&quot;type&quot;:&quot;float&quot;,&quot;value&quot;:7.143000602722168}}},&quot;9&quot;:{&quot;type&quot;:&quot;tree::any&quot;,&quot;value&quot;:{&quot;Value&quot;:{&quot;type&quot;:&quot;float&quot;,&quot;value&quot;:60}}}}}}},&quot;SoundEffectsSection&quot;:{&quot;type&quot;:&quot;tree::any&quot;,&quot;value&quot;:{&quot;Enabled&quot;:{&quot;type&quot;:&quot;bool&quot;,&quot;value&quot;:true},&quot;Reverb&quot;:{&quot;type&quot;:&quot;tree::any&quot;,&quot;value&quot;:{&quot;3&quot;:{&quot;type&quot;:&quot;tree::any&quot;,&quot;value&quot;:{&quot;Value&quot;:{&quot;type&quot;:&quot;float&quot;,&quot;value&quot;:2}}}}}}},&quot;VolumeSection&quot;:{&quot;type&quot;:&quot;tree::any&quot;,&quot;value&quot;:{&quot;Enabled&quot;:{&quot;type&quot;:&quot;bool&quot;,&quot;value&quot;:true}}}}}}"/>
          <component componentGuid="be71d5c3-55a0-49a3-9874-3ea5101c58e7" componentID="Audition.Fader" id="clipGain" name="volume" powered="true">
            <parameter index="0" name="volume" parameterValue="1"/>
            <parameter index="1" name="static gain" parameterValue="1"/>
          </component>
          <component componentGuid="5d239b81-789b-4de8-80fb-5978b20d36e8" componentID="Audition.Mute" id="clipMute" name="Mute" powered="true">
            <parameter index="0" parameterValue="0"/>
            <parameter index="1" name="mute" parameterValue="0"/>
          </component>
          <component componentGuid="2cebe09f-ca60-4e9a-8a32-27858a0292ef" componentID="Audition.StereoPanner" id="clipPan" name="StereoPanner" powered="true">
            <parameter index="0" name="Pan" parameterValue="0"/>
          </component>
          <fadeIn crossFadeLinkType="linkedAsymmetric" endPoint="11025" shape="19" startPoint="0" type="log"/>
          <fadeOut crossFadeLinkType="linkedAsymmetric" endPoint="84133" shape="19" startPoint="73108" type="log"/>
          <editParameter parameterIndex="0" slotIndex="4294967280"/>
          <editParameter parameterIndex="0" slotIndex="4294967281"/>
          <channelMap>
            <channel index="0" sourceIndex="0"/>
          </channelMap>
        </audioClip>
        <audioClip clipAutoCrossfade="true" crossFadeHeadClipID="-1" crossFadeTailClipID="-1" endPoint="41578281" fileID="1" hue="-1" id="21" lockedInTime="false" looped="false" name="Emily" offline="false" select="false" sourceInPoint="52022571" sourceOutPoint="52135066" startPoint="41465786" zOrder="23">
          <properties properties="{&quot;BasicAdjustmentsProperty&quot;:{&quot;type&quot;:&quot;tree::any&quot;,&quot;value&quot;:{&quot;AdjustmentMode&quot;:{&quot;type&quot;:&quot;UTF8String&quot;,&quot;value&quot;:&quot;dialog&quot;},&quot;ClaritySection&quot;:{&quot;type&quot;:&quot;tree::any&quot;,&quot;value&quot;:{&quot;Dynamics&quot;:{&quot;type&quot;:&quot;tree::any&quot;,&quot;value&quot;:{&quot;2&quot;:{&quot;type&quot;:&quot;tree::any&quot;,&quot;value&quot;:{&quot;Value&quot;:{&quot;type&quot;:&quot;float&quot;,&quot;value&quot;:3}}}}},&quot;Enabled&quot;:{&quot;type&quot;:&quot;bool&quot;,&quot;value&quot;:true}}},&quot;ClipType&quot;:{&quot;type&quot;:&quot;std::int32_t&quot;,&quot;value&quot;:1},&quot;EnhanceSpeechSection&quot;:{&quot;type&quot;:&quot;tree::any&quot;,&quot;value&quot;:{&quot;Enabled&quot;:{&quot;type&quot;:&quot;bool&quot;,&quot;value&quot;:true}}},&quot;PresetGuid&quot;:{&quot;type&quot;:&quot;UTF8String&quot;,&quot;value&quot;:&quot;bb717b4a-c0b1-4def-9040-3fb8e83b8a91&quot;},&quot;RestorationSection&quot;:{&quot;type&quot;:&quot;tree::any&quot;,&quot;value&quot;:{&quot;Enabled&quot;:{&quot;type&quot;:&quot;bool&quot;,&quot;value&quot;:true},&quot;ReduceHum&quot;:{&quot;type&quot;:&quot;tree::any&quot;,&quot;value&quot;:{&quot;4&quot;:{&quot;type&quot;:&quot;tree::any&quot;,&quot;value&quot;:{&quot;Value&quot;:{&quot;type&quot;:&quot;float&quot;,&quot;value&quot;:7.143000602722168}}},&quot;9&quot;:{&quot;type&quot;:&quot;tree::any&quot;,&quot;value&quot;:{&quot;Value&quot;:{&quot;type&quot;:&quot;float&quot;,&quot;value&quot;:60}}}}}}},&quot;SoundEffectsSection&quot;:{&quot;type&quot;:&quot;tree::any&quot;,&quot;value&quot;:{&quot;Enabled&quot;:{&quot;type&quot;:&quot;bool&quot;,&quot;value&quot;:true},&quot;Reverb&quot;:{&quot;type&quot;:&quot;tree::any&quot;,&quot;value&quot;:{&quot;3&quot;:{&quot;type&quot;:&quot;tree::any&quot;,&quot;value&quot;:{&quot;Value&quot;:{&quot;type&quot;:&quot;float&quot;,&quot;value&quot;:2}}}}}}},&quot;VolumeSection&quot;:{&quot;type&quot;:&quot;tree::any&quot;,&quot;value&quot;:{&quot;Enabled&quot;:{&quot;type&quot;:&quot;bool&quot;,&quot;value&quot;:true}}}}}}"/>
          <component componentGuid="730af792-c5d3-4e5b-b642-f29e90eafed3" componentID="Audition.Fader" id="clipGain" name="volume" powered="true">
            <parameter index="0" name="volume" parameterValue="1"/>
            <parameter index="1" name="static gain" parameterValue="1"/>
          </component>
          <component componentGuid="d6a391d4-2313-4684-9989-e99b2e8ceb56" componentID="Audition.Mute" id="clipMute" name="Mute" powered="true">
            <parameter index="0" parameterValue="0"/>
            <parameter index="1" name="mute" parameterValue="0"/>
          </component>
          <component componentGuid="7d96da45-96eb-4c5c-82fd-2b0d23c60831" componentID="Audition.StereoPanner" id="clipPan" name="StereoPanner" powered="true">
            <parameter index="0" name="Pan" parameterValue="0"/>
          </component>
          <fadeIn crossFadeLinkType="linkedAsymmetric" endPoint="11025" shape="19" startPoint="0" type="log"/>
          <fadeOut crossFadeLinkType="linkedAsymmetric" endPoint="112495" shape="19" startPoint="112495" type="log"/>
          <editParameter parameterIndex="0" slotIndex="4294967280"/>
          <editParameter parameterIndex="0" slotIndex="4294967281"/>
          <channelMap>
            <channel index="0" sourceIndex="0"/>
          </channelMap>
        </audioClip>
        <audioClip clipAutoCrossfade="true" crossFadeHeadClipID="-1" crossFadeTailClipID="-1" endPoint="42581568" fileID="1" hue="-1" id="22" lockedInTime="false" looped="false" name="Emily" offline="false" select="false" sourceInPoint="52929425" sourceOutPoint="53138339" startPoint="42372654" zOrder="24">
          <properties properties="{&quot;BasicAdjustmentsProperty&quot;:{&quot;type&quot;:&quot;tree::any&quot;,&quot;value&quot;:{&quot;AdjustmentMode&quot;:{&quot;type&quot;:&quot;UTF8String&quot;,&quot;value&quot;:&quot;dialog&quot;},&quot;ClaritySection&quot;:{&quot;type&quot;:&quot;tree::any&quot;,&quot;value&quot;:{&quot;Dynamics&quot;:{&quot;type&quot;:&quot;tree::any&quot;,&quot;value&quot;:{&quot;2&quot;:{&quot;type&quot;:&quot;tree::any&quot;,&quot;value&quot;:{&quot;Value&quot;:{&quot;type&quot;:&quot;float&quot;,&quot;value&quot;:3}}}}},&quot;Enabled&quot;:{&quot;type&quot;:&quot;bool&quot;,&quot;value&quot;:true}}},&quot;ClipType&quot;:{&quot;type&quot;:&quot;std::int32_t&quot;,&quot;value&quot;:1},&quot;EnhanceSpeechSection&quot;:{&quot;type&quot;:&quot;tree::any&quot;,&quot;value&quot;:{&quot;Enabled&quot;:{&quot;type&quot;:&quot;bool&quot;,&quot;value&quot;:true}}},&quot;PresetGuid&quot;:{&quot;type&quot;:&quot;UTF8String&quot;,&quot;value&quot;:&quot;bb717b4a-c0b1-4def-9040-3fb8e83b8a91&quot;},&quot;RestorationSection&quot;:{&quot;type&quot;:&quot;tree::any&quot;,&quot;value&quot;:{&quot;Enabled&quot;:{&quot;type&quot;:&quot;bool&quot;,&quot;value&quot;:true},&quot;ReduceHum&quot;:{&quot;type&quot;:&quot;tree::any&quot;,&quot;value&quot;:{&quot;4&quot;:{&quot;type&quot;:&quot;tree::any&quot;,&quot;value&quot;:{&quot;Value&quot;:{&quot;type&quot;:&quot;float&quot;,&quot;value&quot;:7.143000602722168}}},&quot;9&quot;:{&quot;type&quot;:&quot;tree::any&quot;,&quot;value&quot;:{&quot;Value&quot;:{&quot;type&quot;:&quot;float&quot;,&quot;value&quot;:60}}}}}}},&quot;SoundEffectsSection&quot;:{&quot;type&quot;:&quot;tree::any&quot;,&quot;value&quot;:{&quot;Enabled&quot;:{&quot;type&quot;:&quot;bool&quot;,&quot;value&quot;:true},&quot;Reverb&quot;:{&quot;type&quot;:&quot;tree::any&quot;,&quot;value&quot;:{&quot;3&quot;:{&quot;type&quot;:&quot;tree::any&quot;,&quot;value&quot;:{&quot;Value&quot;:{&quot;type&quot;:&quot;float&quot;,&quot;value&quot;:2}}}}}}},&quot;VolumeSection&quot;:{&quot;type&quot;:&quot;tree::any&quot;,&quot;value&quot;:{&quot;Enabled&quot;:{&quot;type&quot;:&quot;bool&quot;,&quot;value&quot;:true}}}}}}"/>
          <component componentGuid="07bdb59e-0afa-488c-bff5-76761616bd7d" componentID="Audition.Fader" id="clipGain" name="volume" powered="true">
            <parameter index="0" name="volume" parameterValue="1"/>
            <parameter index="1" name="static gain" parameterValue="1"/>
          </component>
          <component componentGuid="e962aa09-91f1-419b-a57b-6639136b098b" componentID="Audition.Mute" id="clipMute" name="Mute" powered="true">
            <parameter index="0" parameterValue="0"/>
            <parameter index="1" name="mute" parameterValue="0"/>
          </component>
          <component componentGuid="cda927ba-66cf-4086-9fa6-6c03e2c26470" componentID="Audition.StereoPanner" id="clipPan" name="StereoPanner" powered="true">
            <parameter index="0" name="Pan" parameterValue="0"/>
          </component>
          <fadeIn crossFadeLinkType="linkedAsymmetric" endPoint="0" shape="19" startPoint="0" type="log"/>
          <fadeOut crossFadeLinkType="linkedAsymmetric" endPoint="208914" shape="19" startPoint="197889" type="log"/>
          <editParameter parameterIndex="0" slotIndex="4294967280"/>
          <editParameter parameterIndex="0" slotIndex="4294967281"/>
          <channelMap>
            <channel index="0" sourceIndex="0"/>
          </channelMap>
        </audioClip>
        <audioClip clipAutoCrossfade="true" crossFadeHeadClipID="-1" crossFadeTailClipID="-1" endPoint="44234857" fileID="1" hue="-1" id="23" lockedInTime="false" looped="false" name="Emily" offline="false" select="false" sourceInPoint="54696585" sourceOutPoint="54811252" startPoint="44120190" zOrder="22">
          <properties properties="{&quot;BasicAdjustmentsProperty&quot;:{&quot;type&quot;:&quot;tree::any&quot;,&quot;value&quot;:{&quot;AdjustmentMode&quot;:{&quot;type&quot;:&quot;UTF8String&quot;,&quot;value&quot;:&quot;dialog&quot;},&quot;ClaritySection&quot;:{&quot;type&quot;:&quot;tree::any&quot;,&quot;value&quot;:{&quot;Dynamics&quot;:{&quot;type&quot;:&quot;tree::any&quot;,&quot;value&quot;:{&quot;2&quot;:{&quot;type&quot;:&quot;tree::any&quot;,&quot;value&quot;:{&quot;Value&quot;:{&quot;type&quot;:&quot;float&quot;,&quot;value&quot;:3}}}}},&quot;Enabled&quot;:{&quot;type&quot;:&quot;bool&quot;,&quot;value&quot;:true}}},&quot;ClipType&quot;:{&quot;type&quot;:&quot;std::int32_t&quot;,&quot;value&quot;:1},&quot;EnhanceSpeechSection&quot;:{&quot;type&quot;:&quot;tree::any&quot;,&quot;value&quot;:{&quot;Enabled&quot;:{&quot;type&quot;:&quot;bool&quot;,&quot;value&quot;:true}}},&quot;PresetGuid&quot;:{&quot;type&quot;:&quot;UTF8String&quot;,&quot;value&quot;:&quot;bb717b4a-c0b1-4def-9040-3fb8e83b8a91&quot;},&quot;RestorationSection&quot;:{&quot;type&quot;:&quot;tree::any&quot;,&quot;value&quot;:{&quot;Enabled&quot;:{&quot;type&quot;:&quot;bool&quot;,&quot;value&quot;:true},&quot;ReduceHum&quot;:{&quot;type&quot;:&quot;tree::any&quot;,&quot;value&quot;:{&quot;4&quot;:{&quot;type&quot;:&quot;tree::any&quot;,&quot;value&quot;:{&quot;Value&quot;:{&quot;type&quot;:&quot;float&quot;,&quot;value&quot;:7.143000602722168}}},&quot;9&quot;:{&quot;type&quot;:&quot;tree::any&quot;,&quot;value&quot;:{&quot;Value&quot;:{&quot;type&quot;:&quot;float&quot;,&quot;value&quot;:60}}}}}}},&quot;SoundEffectsSection&quot;:{&quot;type&quot;:&quot;tree::any&quot;,&quot;value&quot;:{&quot;Enabled&quot;:{&quot;type&quot;:&quot;bool&quot;,&quot;value&quot;:true},&quot;Reverb&quot;:{&quot;type&quot;:&quot;tree::any&quot;,&quot;value&quot;:{&quot;3&quot;:{&quot;type&quot;:&quot;tree::any&quot;,&quot;value&quot;:{&quot;Value&quot;:{&quot;type&quot;:&quot;float&quot;,&quot;value&quot;:2}}}}}}},&quot;VolumeSection&quot;:{&quot;type&quot;:&quot;tree::any&quot;,&quot;value&quot;:{&quot;Enabled&quot;:{&quot;type&quot;:&quot;bool&quot;,&quot;value&quot;:true}}}}}}"/>
          <component componentGuid="e2cad176-eb64-4b38-b266-d0e4fe51c69a" componentID="Audition.Fader" id="clipGain" name="volume" powered="true">
            <parameter index="0" name="volume" parameterValue="1"/>
            <parameter index="1" name="static gain" parameterValue="1"/>
          </component>
          <component componentGuid="62fcd959-bb1e-43a8-a088-6844ad666e4e" componentID="Audition.Mute" id="clipMute" name="Mute" powered="true">
            <parameter index="0" parameterValue="0"/>
            <parameter index="1" name="mute" parameterValue="0"/>
          </component>
          <component componentGuid="92f40d2d-35fe-4ddd-8df0-5f4fdb5a80e2" componentID="Audition.StereoPanner" id="clipPan" name="StereoPanner" powered="true">
            <parameter index="0" name="Pan" parameterValue="0"/>
          </component>
          <fadeIn crossFadeLinkType="linkedAsymmetric" endPoint="11025" shape="19" startPoint="0" type="log"/>
          <fadeOut crossFadeLinkType="linkedAsymmetric" endPoint="114667" shape="19" startPoint="103642" type="log"/>
          <editParameter parameterIndex="0" slotIndex="4294967280"/>
          <editParameter parameterIndex="0" slotIndex="4294967281"/>
          <channelMap>
            <channel index="0" sourceIndex="0"/>
          </channelMap>
        </audioClip>
        <audioClip clipAutoCrossfade="true" crossFadeHeadClipID="-1" crossFadeTailClipID="-1" endPoint="44724737" fileID="1" hue="-1" id="24" lockedInTime="false" looped="false" name="Emily" offline="false" select="false" sourceInPoint="55245819" sourceOutPoint="55301131" startPoint="44669425" zOrder="21">
          <properties properties="{&quot;BasicAdjustmentsProperty&quot;:{&quot;type&quot;:&quot;tree::any&quot;,&quot;value&quot;:{&quot;AdjustmentMode&quot;:{&quot;type&quot;:&quot;UTF8String&quot;,&quot;value&quot;:&quot;dialog&quot;},&quot;ClaritySection&quot;:{&quot;type&quot;:&quot;tree::any&quot;,&quot;value&quot;:{&quot;Dynamics&quot;:{&quot;type&quot;:&quot;tree::any&quot;,&quot;value&quot;:{&quot;2&quot;:{&quot;type&quot;:&quot;tree::any&quot;,&quot;value&quot;:{&quot;Value&quot;:{&quot;type&quot;:&quot;float&quot;,&quot;value&quot;:3}}}}},&quot;Enabled&quot;:{&quot;type&quot;:&quot;bool&quot;,&quot;value&quot;:true}}},&quot;ClipType&quot;:{&quot;type&quot;:&quot;std::int32_t&quot;,&quot;value&quot;:1},&quot;EnhanceSpeechSection&quot;:{&quot;type&quot;:&quot;tree::any&quot;,&quot;value&quot;:{&quot;Enabled&quot;:{&quot;type&quot;:&quot;bool&quot;,&quot;value&quot;:true}}},&quot;PresetGuid&quot;:{&quot;type&quot;:&quot;UTF8String&quot;,&quot;value&quot;:&quot;bb717b4a-c0b1-4def-9040-3fb8e83b8a91&quot;},&quot;RestorationSection&quot;:{&quot;type&quot;:&quot;tree::any&quot;,&quot;value&quot;:{&quot;Enabled&quot;:{&quot;type&quot;:&quot;bool&quot;,&quot;value&quot;:true},&quot;ReduceHum&quot;:{&quot;type&quot;:&quot;tree::any&quot;,&quot;value&quot;:{&quot;4&quot;:{&quot;type&quot;:&quot;tree::any&quot;,&quot;value&quot;:{&quot;Value&quot;:{&quot;type&quot;:&quot;float&quot;,&quot;value&quot;:7.143000602722168}}},&quot;9&quot;:{&quot;type&quot;:&quot;tree::any&quot;,&quot;value&quot;:{&quot;Value&quot;:{&quot;type&quot;:&quot;float&quot;,&quot;value&quot;:60}}}}}}},&quot;SoundEffectsSection&quot;:{&quot;type&quot;:&quot;tree::any&quot;,&quot;value&quot;:{&quot;Enabled&quot;:{&quot;type&quot;:&quot;bool&quot;,&quot;value&quot;:true},&quot;Reverb&quot;:{&quot;type&quot;:&quot;tree::any&quot;,&quot;value&quot;:{&quot;3&quot;:{&quot;type&quot;:&quot;tree::any&quot;,&quot;value&quot;:{&quot;Value&quot;:{&quot;type&quot;:&quot;float&quot;,&quot;value&quot;:2}}}}}}},&quot;VolumeSection&quot;:{&quot;type&quot;:&quot;tree::any&quot;,&quot;value&quot;:{&quot;Enabled&quot;:{&quot;type&quot;:&quot;bool&quot;,&quot;value&quot;:true}}}}}}"/>
          <component componentGuid="7135c755-b3fc-4ae6-a5e6-b1c315a5eda1" componentID="Audition.Fader" id="clipGain" name="volume" powered="true">
            <parameter index="0" name="volume" parameterValue="1"/>
            <parameter index="1" name="static gain" parameterValue="1"/>
          </component>
          <component componentGuid="5b600f9a-3198-433d-97e3-713073799f63" componentID="Audition.Mute" id="clipMute" name="Mute" powered="true">
            <parameter index="0" parameterValue="0"/>
            <parameter index="1" name="mute" parameterValue="0"/>
          </component>
          <component componentGuid="5692cc94-d595-4db3-9c26-0741ca276cda" componentID="Audition.StereoPanner" id="clipPan" name="StereoPanner" powered="true">
            <parameter index="0" name="Pan" parameterValue="0"/>
          </component>
          <fadeIn crossFadeLinkType="linkedAsymmetric" endPoint="11025" shape="19" startPoint="0" type="log"/>
          <fadeOut crossFadeLinkType="linkedAsymmetric" endPoint="55312" shape="19" startPoint="44287" type="log"/>
          <editParameter parameterIndex="0" slotIndex="4294967280"/>
          <editParameter parameterIndex="0" slotIndex="4294967281"/>
          <channelMap>
            <channel index="0" sourceIndex="0"/>
          </channelMap>
        </audioClip>
        <audioClip clipAutoCrossfade="true" crossFadeHeadClipID="-1" crossFadeTailClipID="-1" endPoint="45158698" fileID="1" hue="-1" id="25" lockedInTime="false" looped="false" name="Emily" offline="false" select="false" sourceInPoint="55469389" sourceOutPoint="55782243" startPoint="44845844" zOrder="25">
          <properties properties="{&quot;BasicAdjustmentsProperty&quot;:{&quot;type&quot;:&quot;tree::any&quot;,&quot;value&quot;:{&quot;AdjustmentMode&quot;:{&quot;type&quot;:&quot;UTF8String&quot;,&quot;value&quot;:&quot;dialog&quot;},&quot;ClaritySection&quot;:{&quot;type&quot;:&quot;tree::any&quot;,&quot;value&quot;:{&quot;Dynamics&quot;:{&quot;type&quot;:&quot;tree::any&quot;,&quot;value&quot;:{&quot;2&quot;:{&quot;type&quot;:&quot;tree::any&quot;,&quot;value&quot;:{&quot;Value&quot;:{&quot;type&quot;:&quot;float&quot;,&quot;value&quot;:3}}}}},&quot;Enabled&quot;:{&quot;type&quot;:&quot;bool&quot;,&quot;value&quot;:true}}},&quot;ClipType&quot;:{&quot;type&quot;:&quot;std::int32_t&quot;,&quot;value&quot;:1},&quot;EnhanceSpeechSection&quot;:{&quot;type&quot;:&quot;tree::any&quot;,&quot;value&quot;:{&quot;Enabled&quot;:{&quot;type&quot;:&quot;bool&quot;,&quot;value&quot;:true}}},&quot;PresetGuid&quot;:{&quot;type&quot;:&quot;UTF8String&quot;,&quot;value&quot;:&quot;bb717b4a-c0b1-4def-9040-3fb8e83b8a91&quot;},&quot;RestorationSection&quot;:{&quot;type&quot;:&quot;tree::any&quot;,&quot;value&quot;:{&quot;Enabled&quot;:{&quot;type&quot;:&quot;bool&quot;,&quot;value&quot;:true},&quot;ReduceHum&quot;:{&quot;type&quot;:&quot;tree::any&quot;,&quot;value&quot;:{&quot;4&quot;:{&quot;type&quot;:&quot;tree::any&quot;,&quot;value&quot;:{&quot;Value&quot;:{&quot;type&quot;:&quot;float&quot;,&quot;value&quot;:7.143000602722168}}},&quot;9&quot;:{&quot;type&quot;:&quot;tree::any&quot;,&quot;value&quot;:{&quot;Value&quot;:{&quot;type&quot;:&quot;float&quot;,&quot;value&quot;:60}}}}}}},&quot;SoundEffectsSection&quot;:{&quot;type&quot;:&quot;tree::any&quot;,&quot;value&quot;:{&quot;Enabled&quot;:{&quot;type&quot;:&quot;bool&quot;,&quot;value&quot;:true},&quot;Reverb&quot;:{&quot;type&quot;:&quot;tree::any&quot;,&quot;value&quot;:{&quot;3&quot;:{&quot;type&quot;:&quot;tree::any&quot;,&quot;value&quot;:{&quot;Value&quot;:{&quot;type&quot;:&quot;float&quot;,&quot;value&quot;:2}}}}}}},&quot;VolumeSection&quot;:{&quot;type&quot;:&quot;tree::any&quot;,&quot;value&quot;:{&quot;Enabled&quot;:{&quot;type&quot;:&quot;bool&quot;,&quot;value&quot;:true}}}}}}"/>
          <component componentGuid="cdf911f5-3946-457e-b19e-9aefeaadceb8" componentID="Audition.Fader" id="clipGain" name="volume" powered="true">
            <parameter index="0" name="volume" parameterValue="1"/>
            <parameter index="1" name="static gain" parameterValue="1"/>
          </component>
          <component componentGuid="8f182eda-21a7-4e36-9c1f-d8028a76dbb3" componentID="Audition.Mute" id="clipMute" name="Mute" powered="true">
            <parameter index="0" parameterValue="0"/>
            <parameter index="1" name="mute" parameterValue="0"/>
          </component>
          <component componentGuid="653d1f97-e17e-4e78-9557-18ed863797af" componentID="Audition.StereoPanner" id="clipPan" name="StereoPanner" powered="true">
            <parameter index="0" name="Pan" parameterValue="0"/>
          </component>
          <fadeIn crossFadeLinkType="linkedAsymmetric" endPoint="11025" shape="19" startPoint="0" type="log"/>
          <fadeOut crossFadeLinkType="linkedAsymmetric" endPoint="312854" shape="19" startPoint="301829" type="log"/>
          <editParameter parameterIndex="0" slotIndex="4294967280"/>
          <editParameter parameterIndex="0" slotIndex="4294967281"/>
          <channelMap>
            <channel index="0" sourceIndex="0"/>
          </channelMap>
        </audioClip>
        <audioClip clipAutoCrossfade="true" crossFadeHeadClipID="-1" crossFadeTailClipID="-1" endPoint="46467629" fileID="1" hue="-1" id="26" lockedInTime="false" looped="false" name="Emily" offline="false" select="false" sourceInPoint="57004008" sourceOutPoint="57091174" startPoint="46380463" zOrder="26">
          <properties properties="{&quot;BasicAdjustmentsProperty&quot;:{&quot;type&quot;:&quot;tree::any&quot;,&quot;value&quot;:{&quot;AdjustmentMode&quot;:{&quot;type&quot;:&quot;UTF8String&quot;,&quot;value&quot;:&quot;dialog&quot;},&quot;ClaritySection&quot;:{&quot;type&quot;:&quot;tree::any&quot;,&quot;value&quot;:{&quot;Dynamics&quot;:{&quot;type&quot;:&quot;tree::any&quot;,&quot;value&quot;:{&quot;2&quot;:{&quot;type&quot;:&quot;tree::any&quot;,&quot;value&quot;:{&quot;Value&quot;:{&quot;type&quot;:&quot;float&quot;,&quot;value&quot;:3}}}}},&quot;Enabled&quot;:{&quot;type&quot;:&quot;bool&quot;,&quot;value&quot;:true}}},&quot;ClipType&quot;:{&quot;type&quot;:&quot;std::int32_t&quot;,&quot;value&quot;:1},&quot;EnhanceSpeechSection&quot;:{&quot;type&quot;:&quot;tree::any&quot;,&quot;value&quot;:{&quot;Enabled&quot;:{&quot;type&quot;:&quot;bool&quot;,&quot;value&quot;:true}}},&quot;PresetGuid&quot;:{&quot;type&quot;:&quot;UTF8String&quot;,&quot;value&quot;:&quot;bb717b4a-c0b1-4def-9040-3fb8e83b8a91&quot;},&quot;RestorationSection&quot;:{&quot;type&quot;:&quot;tree::any&quot;,&quot;value&quot;:{&quot;Enabled&quot;:{&quot;type&quot;:&quot;bool&quot;,&quot;value&quot;:true},&quot;ReduceHum&quot;:{&quot;type&quot;:&quot;tree::any&quot;,&quot;value&quot;:{&quot;4&quot;:{&quot;type&quot;:&quot;tree::any&quot;,&quot;value&quot;:{&quot;Value&quot;:{&quot;type&quot;:&quot;float&quot;,&quot;value&quot;:7.143000602722168}}},&quot;9&quot;:{&quot;type&quot;:&quot;tree::any&quot;,&quot;value&quot;:{&quot;Value&quot;:{&quot;type&quot;:&quot;float&quot;,&quot;value&quot;:60}}}}}}},&quot;SoundEffectsSection&quot;:{&quot;type&quot;:&quot;tree::any&quot;,&quot;value&quot;:{&quot;Enabled&quot;:{&quot;type&quot;:&quot;bool&quot;,&quot;value&quot;:true},&quot;Reverb&quot;:{&quot;type&quot;:&quot;tree::any&quot;,&quot;value&quot;:{&quot;3&quot;:{&quot;type&quot;:&quot;tree::any&quot;,&quot;value&quot;:{&quot;Value&quot;:{&quot;type&quot;:&quot;float&quot;,&quot;value&quot;:2}}}}}}},&quot;VolumeSection&quot;:{&quot;type&quot;:&quot;tree::any&quot;,&quot;value&quot;:{&quot;Enabled&quot;:{&quot;type&quot;:&quot;bool&quot;,&quot;value&quot;:true}}}}}}"/>
          <component componentGuid="9e8ce4ac-d17c-42aa-87f8-e0981bf1a108" componentID="Audition.Fader" id="clipGain" name="volume" powered="true">
            <parameter index="0" name="volume" parameterValue="1"/>
            <parameter index="1" name="static gain" parameterValue="1"/>
          </component>
          <component componentGuid="77cb20d3-aa98-4de3-aca4-df2c5e69ae10" componentID="Audition.Mute" id="clipMute" name="Mute" powered="true">
            <parameter index="0" parameterValue="0"/>
            <parameter index="1" name="mute" parameterValue="0"/>
          </component>
          <component componentGuid="39c6f1c8-313a-4bb1-a59d-75ae2188cd63" componentID="Audition.StereoPanner" id="clipPan" name="StereoPanner" powered="true">
            <parameter index="0" name="Pan" parameterValue="0"/>
          </component>
          <fadeIn crossFadeLinkType="linkedAsymmetric" endPoint="11025" shape="19" startPoint="0" type="log"/>
          <fadeOut crossFadeLinkType="linkedAsymmetric" endPoint="87166" shape="19" startPoint="87166" type="log"/>
          <editParameter parameterIndex="0" slotIndex="4294967280"/>
          <editParameter parameterIndex="0" slotIndex="4294967281"/>
          <channelMap>
            <channel index="0" sourceIndex="0"/>
          </channelMap>
        </audioClip>
        <audioClip clipAutoCrossfade="true" crossFadeHeadClipID="-1" crossFadeTailClipID="-1" endPoint="48049196" fileID="1" hue="-1" id="27" lockedInTime="false" looped="false" name="Emily" offline="false" select="false" sourceInPoint="58513606" sourceOutPoint="58673193" startPoint="47889609" zOrder="28">
          <properties properties="{&quot;BasicAdjustmentsProperty&quot;:{&quot;type&quot;:&quot;tree::any&quot;,&quot;value&quot;:{&quot;AdjustmentMode&quot;:{&quot;type&quot;:&quot;UTF8String&quot;,&quot;value&quot;:&quot;dialog&quot;},&quot;ClaritySection&quot;:{&quot;type&quot;:&quot;tree::any&quot;,&quot;value&quot;:{&quot;Dynamics&quot;:{&quot;type&quot;:&quot;tree::any&quot;,&quot;value&quot;:{&quot;2&quot;:{&quot;type&quot;:&quot;tree::any&quot;,&quot;value&quot;:{&quot;Value&quot;:{&quot;type&quot;:&quot;float&quot;,&quot;value&quot;:3}}}}},&quot;Enabled&quot;:{&quot;type&quot;:&quot;bool&quot;,&quot;value&quot;:true}}},&quot;ClipType&quot;:{&quot;type&quot;:&quot;std::int32_t&quot;,&quot;value&quot;:1},&quot;EnhanceSpeechSection&quot;:{&quot;type&quot;:&quot;tree::any&quot;,&quot;value&quot;:{&quot;Enabled&quot;:{&quot;type&quot;:&quot;bool&quot;,&quot;value&quot;:true}}},&quot;PresetGuid&quot;:{&quot;type&quot;:&quot;UTF8String&quot;,&quot;value&quot;:&quot;bb717b4a-c0b1-4def-9040-3fb8e83b8a91&quot;},&quot;RestorationSection&quot;:{&quot;type&quot;:&quot;tree::any&quot;,&quot;value&quot;:{&quot;Enabled&quot;:{&quot;type&quot;:&quot;bool&quot;,&quot;value&quot;:true},&quot;ReduceHum&quot;:{&quot;type&quot;:&quot;tree::any&quot;,&quot;value&quot;:{&quot;4&quot;:{&quot;type&quot;:&quot;tree::any&quot;,&quot;value&quot;:{&quot;Value&quot;:{&quot;type&quot;:&quot;float&quot;,&quot;value&quot;:7.143000602722168}}},&quot;9&quot;:{&quot;type&quot;:&quot;tree::any&quot;,&quot;value&quot;:{&quot;Value&quot;:{&quot;type&quot;:&quot;float&quot;,&quot;value&quot;:60}}}}}}},&quot;SoundEffectsSection&quot;:{&quot;type&quot;:&quot;tree::any&quot;,&quot;value&quot;:{&quot;Enabled&quot;:{&quot;type&quot;:&quot;bool&quot;,&quot;value&quot;:true},&quot;Reverb&quot;:{&quot;type&quot;:&quot;tree::any&quot;,&quot;value&quot;:{&quot;3&quot;:{&quot;type&quot;:&quot;tree::any&quot;,&quot;value&quot;:{&quot;Value&quot;:{&quot;type&quot;:&quot;float&quot;,&quot;value&quot;:2}}}}}}},&quot;VolumeSection&quot;:{&quot;type&quot;:&quot;tree::any&quot;,&quot;value&quot;:{&quot;Enabled&quot;:{&quot;type&quot;:&quot;bool&quot;,&quot;value&quot;:true}}}}}}"/>
          <component componentGuid="a2d19995-13e8-452b-a79c-1e2f8ab1016f" componentID="Audition.Fader" id="clipGain" name="volume" powered="true">
            <parameter index="0" name="volume" parameterValue="1"/>
            <parameter index="1" name="static gain" parameterValue="1"/>
          </component>
          <component componentGuid="b4b592eb-8078-434f-9501-dc20ef5cdcd6" componentID="Audition.Mute" id="clipMute" name="Mute" powered="true">
            <parameter index="0" parameterValue="0"/>
            <parameter index="1" name="mute" parameterValue="0"/>
          </component>
          <component componentGuid="3c9874c7-b63b-476a-a173-7eea1efe92a4" componentID="Audition.StereoPanner" id="clipPan" name="StereoPanner" powered="true">
            <parameter index="0" name="Pan" parameterValue="0"/>
          </component>
          <fadeIn crossFadeLinkType="linkedAsymmetric" endPoint="11025" shape="19" startPoint="0" type="log"/>
          <fadeOut crossFadeLinkType="linkedAsymmetric" endPoint="159587" shape="19" startPoint="148562" type="log"/>
          <editParameter parameterIndex="0" slotIndex="4294967280"/>
          <editParameter parameterIndex="0" slotIndex="4294967281"/>
          <channelMap>
            <channel index="0" sourceIndex="0"/>
          </channelMap>
        </audioClip>
        <audioClip clipAutoCrossfade="true" crossFadeHeadClipID="-1" crossFadeTailClipID="-1" endPoint="49809021" fileID="1" hue="-1" id="28" lockedInTime="false" looped="false" name="Emily" offline="false" select="false" sourceInPoint="60212835" sourceOutPoint="60434267" startPoint="49587589" zOrder="27">
          <properties properties="{&quot;BasicAdjustmentsProperty&quot;:{&quot;type&quot;:&quot;tree::any&quot;,&quot;value&quot;:{&quot;AdjustmentMode&quot;:{&quot;type&quot;:&quot;UTF8String&quot;,&quot;value&quot;:&quot;dialog&quot;},&quot;ClaritySection&quot;:{&quot;type&quot;:&quot;tree::any&quot;,&quot;value&quot;:{&quot;Dynamics&quot;:{&quot;type&quot;:&quot;tree::any&quot;,&quot;value&quot;:{&quot;2&quot;:{&quot;type&quot;:&quot;tree::any&quot;,&quot;value&quot;:{&quot;Value&quot;:{&quot;type&quot;:&quot;float&quot;,&quot;value&quot;:3}}}}},&quot;Enabled&quot;:{&quot;type&quot;:&quot;bool&quot;,&quot;value&quot;:true}}},&quot;ClipType&quot;:{&quot;type&quot;:&quot;std::int32_t&quot;,&quot;value&quot;:1},&quot;EnhanceSpeechSection&quot;:{&quot;type&quot;:&quot;tree::any&quot;,&quot;value&quot;:{&quot;Enabled&quot;:{&quot;type&quot;:&quot;bool&quot;,&quot;value&quot;:true}}},&quot;PresetGuid&quot;:{&quot;type&quot;:&quot;UTF8String&quot;,&quot;value&quot;:&quot;bb717b4a-c0b1-4def-9040-3fb8e83b8a91&quot;},&quot;RestorationSection&quot;:{&quot;type&quot;:&quot;tree::any&quot;,&quot;value&quot;:{&quot;Enabled&quot;:{&quot;type&quot;:&quot;bool&quot;,&quot;value&quot;:true},&quot;ReduceHum&quot;:{&quot;type&quot;:&quot;tree::any&quot;,&quot;value&quot;:{&quot;4&quot;:{&quot;type&quot;:&quot;tree::any&quot;,&quot;value&quot;:{&quot;Value&quot;:{&quot;type&quot;:&quot;float&quot;,&quot;value&quot;:7.143000602722168}}},&quot;9&quot;:{&quot;type&quot;:&quot;tree::any&quot;,&quot;value&quot;:{&quot;Value&quot;:{&quot;type&quot;:&quot;float&quot;,&quot;value&quot;:60}}}}}}},&quot;SoundEffectsSection&quot;:{&quot;type&quot;:&quot;tree::any&quot;,&quot;value&quot;:{&quot;Enabled&quot;:{&quot;type&quot;:&quot;bool&quot;,&quot;value&quot;:true},&quot;Reverb&quot;:{&quot;type&quot;:&quot;tree::any&quot;,&quot;value&quot;:{&quot;3&quot;:{&quot;type&quot;:&quot;tree::any&quot;,&quot;value&quot;:{&quot;Value&quot;:{&quot;type&quot;:&quot;float&quot;,&quot;value&quot;:2}}}}}}},&quot;VolumeSection&quot;:{&quot;type&quot;:&quot;tree::any&quot;,&quot;value&quot;:{&quot;Enabled&quot;:{&quot;type&quot;:&quot;bool&quot;,&quot;value&quot;:true}}}}}}"/>
          <component componentGuid="b8dda422-5db7-45ed-b007-5547d6796e68" componentID="Audition.Fader" id="clipGain" name="volume" powered="true">
            <parameter index="0" name="volume" parameterValue="1"/>
            <parameter index="1" name="static gain" parameterValue="1"/>
          </component>
          <component componentGuid="616f2ced-553b-4c72-b655-ca658b85b9e6" componentID="Audition.Mute" id="clipMute" name="Mute" powered="true">
            <parameter index="0" parameterValue="0"/>
            <parameter index="1" name="mute" parameterValue="0"/>
          </component>
          <component componentGuid="0591e7f4-0772-4961-935a-e2065a730123" componentID="Audition.StereoPanner" id="clipPan" name="StereoPanner" powered="true">
            <parameter index="0" name="Pan" parameterValue="0"/>
          </component>
          <fadeIn crossFadeLinkType="linkedAsymmetric" endPoint="11025" shape="19" startPoint="0" type="log"/>
          <fadeOut crossFadeLinkType="linkedAsymmetric" endPoint="221432" shape="19" startPoint="210407" type="log"/>
          <editParameter parameterIndex="0" slotIndex="4294967280"/>
          <editParameter parameterIndex="0" slotIndex="4294967281"/>
          <channelMap>
            <channel index="0" sourceIndex="0"/>
          </channelMap>
        </audioClip>
        <audioClip clipAutoCrossfade="true" crossFadeHeadClipID="-1" crossFadeTailClipID="-1" endPoint="51228297" fileID="1" hue="-1" id="29" lockedInTime="false" looped="false" name="Emily" offline="false" select="false" sourceInPoint="61659698" sourceOutPoint="61852587" startPoint="51035408" zOrder="29">
          <properties properties="{&quot;BasicAdjustmentsProperty&quot;:{&quot;type&quot;:&quot;tree::any&quot;,&quot;value&quot;:{&quot;AdjustmentMode&quot;:{&quot;type&quot;:&quot;UTF8String&quot;,&quot;value&quot;:&quot;dialog&quot;},&quot;ClaritySection&quot;:{&quot;type&quot;:&quot;tree::any&quot;,&quot;value&quot;:{&quot;Dynamics&quot;:{&quot;type&quot;:&quot;tree::any&quot;,&quot;value&quot;:{&quot;2&quot;:{&quot;type&quot;:&quot;tree::any&quot;,&quot;value&quot;:{&quot;Value&quot;:{&quot;type&quot;:&quot;float&quot;,&quot;value&quot;:3}}}}},&quot;Enabled&quot;:{&quot;type&quot;:&quot;bool&quot;,&quot;value&quot;:true}}},&quot;ClipType&quot;:{&quot;type&quot;:&quot;std::int32_t&quot;,&quot;value&quot;:1},&quot;EnhanceSpeechSection&quot;:{&quot;type&quot;:&quot;tree::any&quot;,&quot;value&quot;:{&quot;Enabled&quot;:{&quot;type&quot;:&quot;bool&quot;,&quot;value&quot;:true}}},&quot;PresetGuid&quot;:{&quot;type&quot;:&quot;UTF8String&quot;,&quot;value&quot;:&quot;bb717b4a-c0b1-4def-9040-3fb8e83b8a91&quot;},&quot;RestorationSection&quot;:{&quot;type&quot;:&quot;tree::any&quot;,&quot;value&quot;:{&quot;Enabled&quot;:{&quot;type&quot;:&quot;bool&quot;,&quot;value&quot;:true},&quot;ReduceHum&quot;:{&quot;type&quot;:&quot;tree::any&quot;,&quot;value&quot;:{&quot;4&quot;:{&quot;type&quot;:&quot;tree::any&quot;,&quot;value&quot;:{&quot;Value&quot;:{&quot;type&quot;:&quot;float&quot;,&quot;value&quot;:7.143000602722168}}},&quot;9&quot;:{&quot;type&quot;:&quot;tree::any&quot;,&quot;value&quot;:{&quot;Value&quot;:{&quot;type&quot;:&quot;float&quot;,&quot;value&quot;:60}}}}}}},&quot;SoundEffectsSection&quot;:{&quot;type&quot;:&quot;tree::any&quot;,&quot;value&quot;:{&quot;Enabled&quot;:{&quot;type&quot;:&quot;bool&quot;,&quot;value&quot;:true},&quot;Reverb&quot;:{&quot;type&quot;:&quot;tree::any&quot;,&quot;value&quot;:{&quot;3&quot;:{&quot;type&quot;:&quot;tree::any&quot;,&quot;value&quot;:{&quot;Value&quot;:{&quot;type&quot;:&quot;float&quot;,&quot;value&quot;:2}}}}}}},&quot;VolumeSection&quot;:{&quot;type&quot;:&quot;tree::any&quot;,&quot;value&quot;:{&quot;Enabled&quot;:{&quot;type&quot;:&quot;bool&quot;,&quot;value&quot;:true}}}}}}"/>
          <component componentGuid="e04a9ccb-cdde-4d14-be81-4f1937b6249b" componentID="Audition.Fader" id="clipGain" name="volume" powered="true">
            <parameter index="0" name="volume" parameterValue="1"/>
            <parameter index="1" name="static gain" parameterValue="1"/>
          </component>
          <component componentGuid="f3a1ac4c-77cb-4b1a-b1f5-6ba46d38c109" componentID="Audition.Mute" id="clipMute" name="Mute" powered="true">
            <parameter index="0" parameterValue="0"/>
            <parameter index="1" name="mute" parameterValue="0"/>
          </component>
          <component componentGuid="9090c52e-07d9-4156-82cd-f7766e14f844" componentID="Audition.StereoPanner" id="clipPan" name="StereoPanner" powered="true">
            <parameter index="0" name="Pan" parameterValue="0"/>
          </component>
          <fadeIn crossFadeLinkType="linkedAsymmetric" endPoint="0" shape="19" startPoint="0" type="log"/>
          <fadeOut crossFadeLinkType="linkedAsymmetric" endPoint="192889" shape="19" startPoint="192889" type="log"/>
          <editParameter parameterIndex="0" slotIndex="4294967280"/>
          <editParameter parameterIndex="0" slotIndex="4294967281"/>
          <channelMap>
            <channel index="0" sourceIndex="0"/>
          </channelMap>
        </audioClip>
        <audioClip clipAutoCrossfade="true" crossFadeHeadClipID="-1" crossFadeTailClipID="-1" endPoint="52702771" fileID="1" hue="-1" id="30" lockedInTime="false" looped="false" name="Emily" offline="false" select="false" sourceInPoint="63226095" sourceOutPoint="63362893" startPoint="52565973" zOrder="30">
          <properties properties="{&quot;BasicAdjustmentsProperty&quot;:{&quot;type&quot;:&quot;tree::any&quot;,&quot;value&quot;:{&quot;AdjustmentMode&quot;:{&quot;type&quot;:&quot;UTF8String&quot;,&quot;value&quot;:&quot;dialog&quot;},&quot;ClaritySection&quot;:{&quot;type&quot;:&quot;tree::any&quot;,&quot;value&quot;:{&quot;Dynamics&quot;:{&quot;type&quot;:&quot;tree::any&quot;,&quot;value&quot;:{&quot;2&quot;:{&quot;type&quot;:&quot;tree::any&quot;,&quot;value&quot;:{&quot;Value&quot;:{&quot;type&quot;:&quot;float&quot;,&quot;value&quot;:3}}}}},&quot;Enabled&quot;:{&quot;type&quot;:&quot;bool&quot;,&quot;value&quot;:true}}},&quot;ClipType&quot;:{&quot;type&quot;:&quot;std::int32_t&quot;,&quot;value&quot;:1},&quot;EnhanceSpeechSection&quot;:{&quot;type&quot;:&quot;tree::any&quot;,&quot;value&quot;:{&quot;Enabled&quot;:{&quot;type&quot;:&quot;bool&quot;,&quot;value&quot;:true}}},&quot;PresetGuid&quot;:{&quot;type&quot;:&quot;UTF8String&quot;,&quot;value&quot;:&quot;bb717b4a-c0b1-4def-9040-3fb8e83b8a91&quot;},&quot;RestorationSection&quot;:{&quot;type&quot;:&quot;tree::any&quot;,&quot;value&quot;:{&quot;Enabled&quot;:{&quot;type&quot;:&quot;bool&quot;,&quot;value&quot;:true},&quot;ReduceHum&quot;:{&quot;type&quot;:&quot;tree::any&quot;,&quot;value&quot;:{&quot;4&quot;:{&quot;type&quot;:&quot;tree::any&quot;,&quot;value&quot;:{&quot;Value&quot;:{&quot;type&quot;:&quot;float&quot;,&quot;value&quot;:7.143000602722168}}},&quot;9&quot;:{&quot;type&quot;:&quot;tree::any&quot;,&quot;value&quot;:{&quot;Value&quot;:{&quot;type&quot;:&quot;float&quot;,&quot;value&quot;:60}}}}}}},&quot;SoundEffectsSection&quot;:{&quot;type&quot;:&quot;tree::any&quot;,&quot;value&quot;:{&quot;Enabled&quot;:{&quot;type&quot;:&quot;bool&quot;,&quot;value&quot;:true},&quot;Reverb&quot;:{&quot;type&quot;:&quot;tree::any&quot;,&quot;value&quot;:{&quot;3&quot;:{&quot;type&quot;:&quot;tree::any&quot;,&quot;value&quot;:{&quot;Value&quot;:{&quot;type&quot;:&quot;float&quot;,&quot;value&quot;:2}}}}}}},&quot;VolumeSection&quot;:{&quot;type&quot;:&quot;tree::any&quot;,&quot;value&quot;:{&quot;Enabled&quot;:{&quot;type&quot;:&quot;bool&quot;,&quot;value&quot;:true}}}}}}"/>
          <component componentGuid="a411aff5-a226-4a48-8fd3-9ed55215d76a" componentID="Audition.Fader" id="clipGain" name="volume" powered="true">
            <parameter index="0" name="volume" parameterValue="1"/>
            <parameter index="1" name="static gain" parameterValue="1"/>
          </component>
          <component componentGuid="6c5bb169-d3be-4c4d-ad35-13eef3843f7e" componentID="Audition.Mute" id="clipMute" name="Mute" powered="true">
            <parameter index="0" parameterValue="0"/>
            <parameter index="1" name="mute" parameterValue="0"/>
          </component>
          <component componentGuid="73692a31-9d79-4cd8-9a19-cd6c972b0769" componentID="Audition.StereoPanner" id="clipPan" name="StereoPanner" powered="true">
            <parameter index="0" name="Pan" parameterValue="0"/>
          </component>
          <fadeIn crossFadeLinkType="linkedAsymmetric" endPoint="11025" shape="19" startPoint="0" type="log"/>
          <fadeOut crossFadeLinkType="linkedAsymmetric" endPoint="136798" shape="19" startPoint="125773" type="log"/>
          <editParameter parameterIndex="0" slotIndex="4294967280"/>
          <editParameter parameterIndex="0" slotIndex="4294967281"/>
          <channelMap>
            <channel index="0" sourceIndex="0"/>
          </channelMap>
        </audioClip>
        <audioClip clipAutoCrossfade="true" crossFadeHeadClipID="-1" crossFadeTailClipID="-1" endPoint="55634663" fileID="1" hue="-1" id="31" lockedInTime="false" looped="false" name="Emily" offline="false" select="false" sourceInPoint="66233807" sourceOutPoint="66294783" startPoint="55573687" zOrder="32">
          <properties properties="{&quot;BasicAdjustmentsProperty&quot;:{&quot;type&quot;:&quot;tree::any&quot;,&quot;value&quot;:{&quot;AdjustmentMode&quot;:{&quot;type&quot;:&quot;UTF8String&quot;,&quot;value&quot;:&quot;dialog&quot;},&quot;ClaritySection&quot;:{&quot;type&quot;:&quot;tree::any&quot;,&quot;value&quot;:{&quot;Dynamics&quot;:{&quot;type&quot;:&quot;tree::any&quot;,&quot;value&quot;:{&quot;2&quot;:{&quot;type&quot;:&quot;tree::any&quot;,&quot;value&quot;:{&quot;Value&quot;:{&quot;type&quot;:&quot;float&quot;,&quot;value&quot;:3}}}}},&quot;Enabled&quot;:{&quot;type&quot;:&quot;bool&quot;,&quot;value&quot;:true}}},&quot;ClipType&quot;:{&quot;type&quot;:&quot;std::int32_t&quot;,&quot;value&quot;:1},&quot;EnhanceSpeechSection&quot;:{&quot;type&quot;:&quot;tree::any&quot;,&quot;value&quot;:{&quot;Enabled&quot;:{&quot;type&quot;:&quot;bool&quot;,&quot;value&quot;:true}}},&quot;PresetGuid&quot;:{&quot;type&quot;:&quot;UTF8String&quot;,&quot;value&quot;:&quot;bb717b4a-c0b1-4def-9040-3fb8e83b8a91&quot;},&quot;RestorationSection&quot;:{&quot;type&quot;:&quot;tree::any&quot;,&quot;value&quot;:{&quot;Enabled&quot;:{&quot;type&quot;:&quot;bool&quot;,&quot;value&quot;:true},&quot;ReduceHum&quot;:{&quot;type&quot;:&quot;tree::any&quot;,&quot;value&quot;:{&quot;4&quot;:{&quot;type&quot;:&quot;tree::any&quot;,&quot;value&quot;:{&quot;Value&quot;:{&quot;type&quot;:&quot;float&quot;,&quot;value&quot;:7.143000602722168}}},&quot;9&quot;:{&quot;type&quot;:&quot;tree::any&quot;,&quot;value&quot;:{&quot;Value&quot;:{&quot;type&quot;:&quot;float&quot;,&quot;value&quot;:60}}}}}}},&quot;SoundEffectsSection&quot;:{&quot;type&quot;:&quot;tree::any&quot;,&quot;value&quot;:{&quot;Enabled&quot;:{&quot;type&quot;:&quot;bool&quot;,&quot;value&quot;:true},&quot;Reverb&quot;:{&quot;type&quot;:&quot;tree::any&quot;,&quot;value&quot;:{&quot;3&quot;:{&quot;type&quot;:&quot;tree::any&quot;,&quot;value&quot;:{&quot;Value&quot;:{&quot;type&quot;:&quot;float&quot;,&quot;value&quot;:2}}}}}}},&quot;VolumeSection&quot;:{&quot;type&quot;:&quot;tree::any&quot;,&quot;value&quot;:{&quot;Enabled&quot;:{&quot;type&quot;:&quot;bool&quot;,&quot;value&quot;:true}}}}}}"/>
          <component componentGuid="aac1f0e2-c55c-4c63-97e5-bd8c48acaf81" componentID="Audition.Fader" id="clipGain" name="volume" powered="true">
            <parameter index="0" name="volume" parameterValue="1"/>
            <parameter index="1" name="static gain" parameterValue="1"/>
          </component>
          <component componentGuid="b8a8bf68-9940-4285-b892-063069dfdcd0" componentID="Audition.Mute" id="clipMute" name="Mute" powered="true">
            <parameter index="0" parameterValue="0"/>
            <parameter index="1" name="mute" parameterValue="0"/>
          </component>
          <component componentGuid="9ea32861-2580-4ade-9095-681ccf8e062e" componentID="Audition.StereoPanner" id="clipPan" name="StereoPanner" powered="true">
            <parameter index="0" name="Pan" parameterValue="0"/>
          </component>
          <fadeIn crossFadeLinkType="linkedAsymmetric" endPoint="11025" shape="19" startPoint="0" type="log"/>
          <fadeOut crossFadeLinkType="linkedAsymmetric" endPoint="60976" shape="19" startPoint="60976" type="log"/>
          <editParameter parameterIndex="0" slotIndex="4294967280"/>
          <editParameter parameterIndex="0" slotIndex="4294967281"/>
          <channelMap>
            <channel index="0" sourceIndex="0"/>
          </channelMap>
        </audioClip>
        <audioClip clipAutoCrossfade="true" crossFadeHeadClipID="-1" crossFadeTailClipID="-1" endPoint="57495757" fileID="1" hue="-1" id="32" lockedInTime="false" looped="false" name="Emily" offline="false" select="false" sourceInPoint="68054774" sourceOutPoint="68156826" startPoint="57393705" zOrder="31">
          <properties properties="{&quot;BasicAdjustmentsProperty&quot;:{&quot;type&quot;:&quot;tree::any&quot;,&quot;value&quot;:{&quot;AdjustmentMode&quot;:{&quot;type&quot;:&quot;UTF8String&quot;,&quot;value&quot;:&quot;dialog&quot;},&quot;ClaritySection&quot;:{&quot;type&quot;:&quot;tree::any&quot;,&quot;value&quot;:{&quot;Dynamics&quot;:{&quot;type&quot;:&quot;tree::any&quot;,&quot;value&quot;:{&quot;2&quot;:{&quot;type&quot;:&quot;tree::any&quot;,&quot;value&quot;:{&quot;Value&quot;:{&quot;type&quot;:&quot;float&quot;,&quot;value&quot;:3}}}}},&quot;Enabled&quot;:{&quot;type&quot;:&quot;bool&quot;,&quot;value&quot;:true}}},&quot;ClipType&quot;:{&quot;type&quot;:&quot;std::int32_t&quot;,&quot;value&quot;:1},&quot;EnhanceSpeechSection&quot;:{&quot;type&quot;:&quot;tree::any&quot;,&quot;value&quot;:{&quot;Enabled&quot;:{&quot;type&quot;:&quot;bool&quot;,&quot;value&quot;:true}}},&quot;PresetGuid&quot;:{&quot;type&quot;:&quot;UTF8String&quot;,&quot;value&quot;:&quot;bb717b4a-c0b1-4def-9040-3fb8e83b8a91&quot;},&quot;RestorationSection&quot;:{&quot;type&quot;:&quot;tree::any&quot;,&quot;value&quot;:{&quot;Enabled&quot;:{&quot;type&quot;:&quot;bool&quot;,&quot;value&quot;:true},&quot;ReduceHum&quot;:{&quot;type&quot;:&quot;tree::any&quot;,&quot;value&quot;:{&quot;4&quot;:{&quot;type&quot;:&quot;tree::any&quot;,&quot;value&quot;:{&quot;Value&quot;:{&quot;type&quot;:&quot;float&quot;,&quot;value&quot;:7.143000602722168}}},&quot;9&quot;:{&quot;type&quot;:&quot;tree::any&quot;,&quot;value&quot;:{&quot;Value&quot;:{&quot;type&quot;:&quot;float&quot;,&quot;value&quot;:60}}}}}}},&quot;SoundEffectsSection&quot;:{&quot;type&quot;:&quot;tree::any&quot;,&quot;value&quot;:{&quot;Enabled&quot;:{&quot;type&quot;:&quot;bool&quot;,&quot;value&quot;:true},&quot;Reverb&quot;:{&quot;type&quot;:&quot;tree::any&quot;,&quot;value&quot;:{&quot;3&quot;:{&quot;type&quot;:&quot;tree::any&quot;,&quot;value&quot;:{&quot;Value&quot;:{&quot;type&quot;:&quot;float&quot;,&quot;value&quot;:2}}}}}}},&quot;VolumeSection&quot;:{&quot;type&quot;:&quot;tree::any&quot;,&quot;value&quot;:{&quot;Enabled&quot;:{&quot;type&quot;:&quot;bool&quot;,&quot;value&quot;:true}}}}}}"/>
          <component componentGuid="4c916647-a709-4b60-8aaf-acacc15b6d62" componentID="Audition.Fader" id="clipGain" name="volume" powered="true">
            <parameter index="0" name="volume" parameterValue="1"/>
            <parameter index="1" name="static gain" parameterValue="1"/>
          </component>
          <component componentGuid="6fde738d-7447-4d95-959b-cd0fb5a97244" componentID="Audition.Mute" id="clipMute" name="Mute" powered="true">
            <parameter index="0" parameterValue="0"/>
            <parameter index="1" name="mute" parameterValue="0"/>
          </component>
          <component componentGuid="0018faf8-c866-4bf1-8485-251a087fbf3b" componentID="Audition.StereoPanner" id="clipPan" name="StereoPanner" powered="true">
            <parameter index="0" name="Pan" parameterValue="0"/>
          </component>
          <fadeIn crossFadeLinkType="linkedAsymmetric" endPoint="11025" shape="19" startPoint="0" type="log"/>
          <fadeOut crossFadeLinkType="linkedAsymmetric" endPoint="102052" shape="19" startPoint="102052" type="log"/>
          <editParameter parameterIndex="0" slotIndex="4294967280"/>
          <editParameter parameterIndex="0" slotIndex="4294967281"/>
          <channelMap>
            <channel index="0" sourceIndex="0"/>
          </channelMap>
        </audioClip>
        <audioClip clipAutoCrossfade="true" crossFadeHeadClipID="-1" crossFadeTailClipID="-1" endPoint="64162925" fileID="1" hue="-1" id="33" lockedInTime="false" looped="false" name="Emily" offline="false" select="false" sourceInPoint="74663575" sourceOutPoint="74823993" startPoint="64002507" zOrder="33">
          <properties properties="{&quot;BasicAdjustmentsProperty&quot;:{&quot;type&quot;:&quot;tree::any&quot;,&quot;value&quot;:{&quot;AdjustmentMode&quot;:{&quot;type&quot;:&quot;UTF8String&quot;,&quot;value&quot;:&quot;dialog&quot;},&quot;ClaritySection&quot;:{&quot;type&quot;:&quot;tree::any&quot;,&quot;value&quot;:{&quot;Dynamics&quot;:{&quot;type&quot;:&quot;tree::any&quot;,&quot;value&quot;:{&quot;2&quot;:{&quot;type&quot;:&quot;tree::any&quot;,&quot;value&quot;:{&quot;Value&quot;:{&quot;type&quot;:&quot;float&quot;,&quot;value&quot;:3}}}}},&quot;Enabled&quot;:{&quot;type&quot;:&quot;bool&quot;,&quot;value&quot;:true}}},&quot;ClipType&quot;:{&quot;type&quot;:&quot;std::int32_t&quot;,&quot;value&quot;:1},&quot;EnhanceSpeechSection&quot;:{&quot;type&quot;:&quot;tree::any&quot;,&quot;value&quot;:{&quot;Enabled&quot;:{&quot;type&quot;:&quot;bool&quot;,&quot;value&quot;:true}}},&quot;PresetGuid&quot;:{&quot;type&quot;:&quot;UTF8String&quot;,&quot;value&quot;:&quot;bb717b4a-c0b1-4def-9040-3fb8e83b8a91&quot;},&quot;RestorationSection&quot;:{&quot;type&quot;:&quot;tree::any&quot;,&quot;value&quot;:{&quot;Enabled&quot;:{&quot;type&quot;:&quot;bool&quot;,&quot;value&quot;:true},&quot;ReduceHum&quot;:{&quot;type&quot;:&quot;tree::any&quot;,&quot;value&quot;:{&quot;4&quot;:{&quot;type&quot;:&quot;tree::any&quot;,&quot;value&quot;:{&quot;Value&quot;:{&quot;type&quot;:&quot;float&quot;,&quot;value&quot;:7.143000602722168}}},&quot;9&quot;:{&quot;type&quot;:&quot;tree::any&quot;,&quot;value&quot;:{&quot;Value&quot;:{&quot;type&quot;:&quot;float&quot;,&quot;value&quot;:60}}}}}}},&quot;SoundEffectsSection&quot;:{&quot;type&quot;:&quot;tree::any&quot;,&quot;value&quot;:{&quot;Enabled&quot;:{&quot;type&quot;:&quot;bool&quot;,&quot;value&quot;:true},&quot;Reverb&quot;:{&quot;type&quot;:&quot;tree::any&quot;,&quot;value&quot;:{&quot;3&quot;:{&quot;type&quot;:&quot;tree::any&quot;,&quot;value&quot;:{&quot;Value&quot;:{&quot;type&quot;:&quot;float&quot;,&quot;value&quot;:2}}}}}}},&quot;VolumeSection&quot;:{&quot;type&quot;:&quot;tree::any&quot;,&quot;value&quot;:{&quot;Enabled&quot;:{&quot;type&quot;:&quot;bool&quot;,&quot;value&quot;:true}}}}}}"/>
          <component componentGuid="ac7353b8-a778-4ecd-999a-46d0e87531ce" componentID="Audition.Fader" id="clipGain" name="volume" powered="true">
            <parameter index="0" name="volume" parameterValue="1"/>
            <parameter index="1" name="static gain" parameterValue="1"/>
          </component>
          <component componentGuid="7d759906-1fcb-4d55-abce-3839a5603a2e" componentID="Audition.Mute" id="clipMute" name="Mute" powered="true">
            <parameter index="0" parameterValue="0"/>
            <parameter index="1" name="mute" parameterValue="0"/>
          </component>
          <component componentGuid="61573843-5376-4878-9a25-9c00cc2946ac" componentID="Audition.StereoPanner" id="clipPan" name="StereoPanner" powered="true">
            <parameter index="0" name="Pan" parameterValue="0"/>
          </component>
          <fadeIn crossFadeLinkType="linkedAsymmetric" endPoint="0" shape="19" startPoint="0" type="log"/>
          <fadeOut crossFadeLinkType="linkedAsymmetric" endPoint="160418" shape="19" startPoint="149393" type="log"/>
          <editParameter parameterIndex="0" slotIndex="4294967280"/>
          <editParameter parameterIndex="0" slotIndex="4294967281"/>
          <channelMap>
            <channel index="0" sourceIndex="0"/>
          </channelMap>
        </audioClip>
        <audioClip clipAutoCrossfade="true" crossFadeHeadClipID="-1" crossFadeTailClipID="-1" endPoint="69572517" fileID="1" hue="-1" id="34" lockedInTime="false" looped="false" name="Emily" offline="false" select="false" sourceInPoint="80813681" sourceOutPoint="80966618" startPoint="69419580" zOrder="35">
          <properties properties="{&quot;BasicAdjustmentsProperty&quot;:{&quot;type&quot;:&quot;tree::any&quot;,&quot;value&quot;:{&quot;AdjustmentMode&quot;:{&quot;type&quot;:&quot;UTF8String&quot;,&quot;value&quot;:&quot;dialog&quot;},&quot;ClaritySection&quot;:{&quot;type&quot;:&quot;tree::any&quot;,&quot;value&quot;:{&quot;Dynamics&quot;:{&quot;type&quot;:&quot;tree::any&quot;,&quot;value&quot;:{&quot;2&quot;:{&quot;type&quot;:&quot;tree::any&quot;,&quot;value&quot;:{&quot;Value&quot;:{&quot;type&quot;:&quot;float&quot;,&quot;value&quot;:3}}}}},&quot;Enabled&quot;:{&quot;type&quot;:&quot;bool&quot;,&quot;value&quot;:true}}},&quot;ClipType&quot;:{&quot;type&quot;:&quot;std::int32_t&quot;,&quot;value&quot;:1},&quot;EnhanceSpeechSection&quot;:{&quot;type&quot;:&quot;tree::any&quot;,&quot;value&quot;:{&quot;Enabled&quot;:{&quot;type&quot;:&quot;bool&quot;,&quot;value&quot;:true}}},&quot;PresetGuid&quot;:{&quot;type&quot;:&quot;UTF8String&quot;,&quot;value&quot;:&quot;bb717b4a-c0b1-4def-9040-3fb8e83b8a91&quot;},&quot;RestorationSection&quot;:{&quot;type&quot;:&quot;tree::any&quot;,&quot;value&quot;:{&quot;Enabled&quot;:{&quot;type&quot;:&quot;bool&quot;,&quot;value&quot;:true},&quot;ReduceHum&quot;:{&quot;type&quot;:&quot;tree::any&quot;,&quot;value&quot;:{&quot;4&quot;:{&quot;type&quot;:&quot;tree::any&quot;,&quot;value&quot;:{&quot;Value&quot;:{&quot;type&quot;:&quot;float&quot;,&quot;value&quot;:7.143000602722168}}},&quot;9&quot;:{&quot;type&quot;:&quot;tree::any&quot;,&quot;value&quot;:{&quot;Value&quot;:{&quot;type&quot;:&quot;float&quot;,&quot;value&quot;:60}}}}}}},&quot;SoundEffectsSection&quot;:{&quot;type&quot;:&quot;tree::any&quot;,&quot;value&quot;:{&quot;Enabled&quot;:{&quot;type&quot;:&quot;bool&quot;,&quot;value&quot;:true},&quot;Reverb&quot;:{&quot;type&quot;:&quot;tree::any&quot;,&quot;value&quot;:{&quot;3&quot;:{&quot;type&quot;:&quot;tree::any&quot;,&quot;value&quot;:{&quot;Value&quot;:{&quot;type&quot;:&quot;float&quot;,&quot;value&quot;:2}}}}}}},&quot;VolumeSection&quot;:{&quot;type&quot;:&quot;tree::any&quot;,&quot;value&quot;:{&quot;Enabled&quot;:{&quot;type&quot;:&quot;bool&quot;,&quot;value&quot;:true}}}}}}"/>
          <component componentGuid="0763612c-ce58-4eae-99a5-ce94a31bb93f" componentID="Audition.Fader" id="clipGain" name="volume" powered="true">
            <parameter index="0" name="volume" parameterValue="1"/>
            <parameter index="1" name="static gain" parameterValue="1"/>
          </component>
          <component componentGuid="5fbe7063-c343-49ae-aae4-66ab6faa0ac2" componentID="Audition.Mute" id="clipMute" name="Mute" powered="true">
            <parameter index="0" parameterValue="0"/>
            <parameter index="1" name="mute" parameterValue="0"/>
          </component>
          <component componentGuid="e84ba31e-8ef4-47bd-aa84-1b3132150ec3" componentID="Audition.StereoPanner" id="clipPan" name="StereoPanner" powered="true">
            <parameter index="0" name="Pan" parameterValue="0"/>
          </component>
          <fadeIn crossFadeLinkType="linkedAsymmetric" endPoint="0" shape="19" startPoint="0" type="log"/>
          <fadeOut crossFadeLinkType="linkedAsymmetric" endPoint="152937" shape="19" startPoint="141912" type="log"/>
          <editParameter parameterIndex="0" slotIndex="4294967280"/>
          <editParameter parameterIndex="0" slotIndex="4294967281"/>
          <channelMap>
            <channel index="0" sourceIndex="0"/>
          </channelMap>
        </audioClip>
        <audioClip clipAutoCrossfade="true" crossFadeHeadClipID="-1" crossFadeTailClipID="-1" endPoint="71832974" fileID="1" hue="-1" id="35" lockedInTime="false" looped="false" name="Emily" offline="false" select="false" sourceInPoint="83111266" sourceOutPoint="83227075" startPoint="71717165" zOrder="34">
          <properties properties="{&quot;BasicAdjustmentsProperty&quot;:{&quot;type&quot;:&quot;tree::any&quot;,&quot;value&quot;:{&quot;AdjustmentMode&quot;:{&quot;type&quot;:&quot;UTF8String&quot;,&quot;value&quot;:&quot;dialog&quot;},&quot;ClaritySection&quot;:{&quot;type&quot;:&quot;tree::any&quot;,&quot;value&quot;:{&quot;Dynamics&quot;:{&quot;type&quot;:&quot;tree::any&quot;,&quot;value&quot;:{&quot;2&quot;:{&quot;type&quot;:&quot;tree::any&quot;,&quot;value&quot;:{&quot;Value&quot;:{&quot;type&quot;:&quot;float&quot;,&quot;value&quot;:3}}}}},&quot;Enabled&quot;:{&quot;type&quot;:&quot;bool&quot;,&quot;value&quot;:true}}},&quot;ClipType&quot;:{&quot;type&quot;:&quot;std::int32_t&quot;,&quot;value&quot;:1},&quot;EnhanceSpeechSection&quot;:{&quot;type&quot;:&quot;tree::any&quot;,&quot;value&quot;:{&quot;Enabled&quot;:{&quot;type&quot;:&quot;bool&quot;,&quot;value&quot;:true}}},&quot;PresetGuid&quot;:{&quot;type&quot;:&quot;UTF8String&quot;,&quot;value&quot;:&quot;bb717b4a-c0b1-4def-9040-3fb8e83b8a91&quot;},&quot;RestorationSection&quot;:{&quot;type&quot;:&quot;tree::any&quot;,&quot;value&quot;:{&quot;Enabled&quot;:{&quot;type&quot;:&quot;bool&quot;,&quot;value&quot;:true},&quot;ReduceHum&quot;:{&quot;type&quot;:&quot;tree::any&quot;,&quot;value&quot;:{&quot;4&quot;:{&quot;type&quot;:&quot;tree::any&quot;,&quot;value&quot;:{&quot;Value&quot;:{&quot;type&quot;:&quot;float&quot;,&quot;value&quot;:7.143000602722168}}},&quot;9&quot;:{&quot;type&quot;:&quot;tree::any&quot;,&quot;value&quot;:{&quot;Value&quot;:{&quot;type&quot;:&quot;float&quot;,&quot;value&quot;:60}}}}}}},&quot;SoundEffectsSection&quot;:{&quot;type&quot;:&quot;tree::any&quot;,&quot;value&quot;:{&quot;Enabled&quot;:{&quot;type&quot;:&quot;bool&quot;,&quot;value&quot;:true},&quot;Reverb&quot;:{&quot;type&quot;:&quot;tree::any&quot;,&quot;value&quot;:{&quot;3&quot;:{&quot;type&quot;:&quot;tree::any&quot;,&quot;value&quot;:{&quot;Value&quot;:{&quot;type&quot;:&quot;float&quot;,&quot;value&quot;:2}}}}}}},&quot;VolumeSection&quot;:{&quot;type&quot;:&quot;tree::any&quot;,&quot;value&quot;:{&quot;Enabled&quot;:{&quot;type&quot;:&quot;bool&quot;,&quot;value&quot;:true}}}}}}"/>
          <component componentGuid="d1534b95-b048-448a-940f-38662fdacf20" componentID="Audition.Fader" id="clipGain" name="volume" powered="true">
            <parameter index="0" name="volume" parameterValue="1"/>
            <parameter index="1" name="static gain" parameterValue="1"/>
          </component>
          <component componentGuid="55bef683-a16c-4152-a2c1-f434f5abdf92" componentID="Audition.Mute" id="clipMute" name="Mute" powered="true">
            <parameter index="0" parameterValue="0"/>
            <parameter index="1" name="mute" parameterValue="0"/>
          </component>
          <component componentGuid="5d824032-d138-440d-8b46-e86fd9715a3c" componentID="Audition.StereoPanner" id="clipPan" name="StereoPanner" powered="true">
            <parameter index="0" name="Pan" parameterValue="0"/>
          </component>
          <fadeIn crossFadeLinkType="linkedAsymmetric" endPoint="11025" shape="19" startPoint="0" type="log"/>
          <fadeOut crossFadeLinkType="linkedAsymmetric" endPoint="115809" shape="19" startPoint="104784" type="log"/>
          <editParameter parameterIndex="0" slotIndex="4294967280"/>
          <editParameter parameterIndex="0" slotIndex="4294967281"/>
          <channelMap>
            <channel index="0" sourceIndex="0"/>
          </channelMap>
        </audioClip>
        <audioClip clipAutoCrossfade="true" crossFadeHeadClipID="-1" crossFadeTailClipID="-1" endPoint="73515977" fileID="1" hue="-1" id="36" lockedInTime="false" looped="false" name="Emily" offline="false" select="false" sourceInPoint="84654636" sourceOutPoint="84909675" startPoint="73260938" zOrder="36">
          <properties properties="{&quot;BasicAdjustmentsProperty&quot;:{&quot;type&quot;:&quot;tree::any&quot;,&quot;value&quot;:{&quot;AdjustmentMode&quot;:{&quot;type&quot;:&quot;UTF8String&quot;,&quot;value&quot;:&quot;dialog&quot;},&quot;ClaritySection&quot;:{&quot;type&quot;:&quot;tree::any&quot;,&quot;value&quot;:{&quot;Dynamics&quot;:{&quot;type&quot;:&quot;tree::any&quot;,&quot;value&quot;:{&quot;2&quot;:{&quot;type&quot;:&quot;tree::any&quot;,&quot;value&quot;:{&quot;Value&quot;:{&quot;type&quot;:&quot;float&quot;,&quot;value&quot;:3}}}}},&quot;Enabled&quot;:{&quot;type&quot;:&quot;bool&quot;,&quot;value&quot;:true}}},&quot;ClipType&quot;:{&quot;type&quot;:&quot;std::int32_t&quot;,&quot;value&quot;:1},&quot;EnhanceSpeechSection&quot;:{&quot;type&quot;:&quot;tree::any&quot;,&quot;value&quot;:{&quot;Enabled&quot;:{&quot;type&quot;:&quot;bool&quot;,&quot;value&quot;:true}}},&quot;PresetGuid&quot;:{&quot;type&quot;:&quot;UTF8String&quot;,&quot;value&quot;:&quot;bb717b4a-c0b1-4def-9040-3fb8e83b8a91&quot;},&quot;RestorationSection&quot;:{&quot;type&quot;:&quot;tree::any&quot;,&quot;value&quot;:{&quot;Enabled&quot;:{&quot;type&quot;:&quot;bool&quot;,&quot;value&quot;:true},&quot;ReduceHum&quot;:{&quot;type&quot;:&quot;tree::any&quot;,&quot;value&quot;:{&quot;4&quot;:{&quot;type&quot;:&quot;tree::any&quot;,&quot;value&quot;:{&quot;Value&quot;:{&quot;type&quot;:&quot;float&quot;,&quot;value&quot;:7.143000602722168}}},&quot;9&quot;:{&quot;type&quot;:&quot;tree::any&quot;,&quot;value&quot;:{&quot;Value&quot;:{&quot;type&quot;:&quot;float&quot;,&quot;value&quot;:60}}}}}}},&quot;SoundEffectsSection&quot;:{&quot;type&quot;:&quot;tree::any&quot;,&quot;value&quot;:{&quot;Enabled&quot;:{&quot;type&quot;:&quot;bool&quot;,&quot;value&quot;:true},&quot;Reverb&quot;:{&quot;type&quot;:&quot;tree::any&quot;,&quot;value&quot;:{&quot;3&quot;:{&quot;type&quot;:&quot;tree::any&quot;,&quot;value&quot;:{&quot;Value&quot;:{&quot;type&quot;:&quot;float&quot;,&quot;value&quot;:2}}}}}}},&quot;VolumeSection&quot;:{&quot;type&quot;:&quot;tree::any&quot;,&quot;value&quot;:{&quot;Enabled&quot;:{&quot;type&quot;:&quot;bool&quot;,&quot;value&quot;:true}}}}}}"/>
          <component componentGuid="21570249-0e00-4cda-84fd-28242f0b6f70" componentID="Audition.Fader" id="clipGain" name="volume" powered="true">
            <parameter index="0" name="volume" parameterValue="1"/>
            <parameter index="1" name="static gain" parameterValue="1"/>
          </component>
          <component componentGuid="9cb6b8c5-5542-4332-ac02-7de1d851416c" componentID="Audition.Mute" id="clipMute" name="Mute" powered="true">
            <parameter index="0" parameterValue="0"/>
            <parameter index="1" name="mute" parameterValue="0"/>
          </component>
          <component componentGuid="016c37e4-0288-421b-8b23-4de59b3238f4" componentID="Audition.StereoPanner" id="clipPan" name="StereoPanner" powered="true">
            <parameter index="0" name="Pan" parameterValue="0"/>
          </component>
          <fadeIn crossFadeLinkType="linkedAsymmetric" endPoint="11025" shape="19" startPoint="0" type="log"/>
          <fadeOut crossFadeLinkType="linkedAsymmetric" endPoint="255039" shape="19" startPoint="244014" type="log"/>
          <editParameter parameterIndex="0" slotIndex="4294967280"/>
          <editParameter parameterIndex="0" slotIndex="4294967281"/>
          <channelMap>
            <channel index="0" sourceIndex="0"/>
          </channelMap>
        </audioClip>
        <audioClip clipAutoCrossfade="true" crossFadeHeadClipID="-1" crossFadeTailClipID="-1" endPoint="74324061" fileID="1" hue="-1" id="37" lockedInTime="false" looped="false" name="Emily" offline="false" select="false" sourceInPoint="85661115" sourceOutPoint="85717760" startPoint="74267416" zOrder="37">
          <properties properties="{&quot;BasicAdjustmentsProperty&quot;:{&quot;type&quot;:&quot;tree::any&quot;,&quot;value&quot;:{&quot;AdjustmentMode&quot;:{&quot;type&quot;:&quot;UTF8String&quot;,&quot;value&quot;:&quot;dialog&quot;},&quot;ClaritySection&quot;:{&quot;type&quot;:&quot;tree::any&quot;,&quot;value&quot;:{&quot;Dynamics&quot;:{&quot;type&quot;:&quot;tree::any&quot;,&quot;value&quot;:{&quot;2&quot;:{&quot;type&quot;:&quot;tree::any&quot;,&quot;value&quot;:{&quot;Value&quot;:{&quot;type&quot;:&quot;float&quot;,&quot;value&quot;:3}}}}},&quot;Enabled&quot;:{&quot;type&quot;:&quot;bool&quot;,&quot;value&quot;:true}}},&quot;ClipType&quot;:{&quot;type&quot;:&quot;std::int32_t&quot;,&quot;value&quot;:1},&quot;EnhanceSpeechSection&quot;:{&quot;type&quot;:&quot;tree::any&quot;,&quot;value&quot;:{&quot;Enabled&quot;:{&quot;type&quot;:&quot;bool&quot;,&quot;value&quot;:true}}},&quot;PresetGuid&quot;:{&quot;type&quot;:&quot;UTF8String&quot;,&quot;value&quot;:&quot;bb717b4a-c0b1-4def-9040-3fb8e83b8a91&quot;},&quot;RestorationSection&quot;:{&quot;type&quot;:&quot;tree::any&quot;,&quot;value&quot;:{&quot;Enabled&quot;:{&quot;type&quot;:&quot;bool&quot;,&quot;value&quot;:true},&quot;ReduceHum&quot;:{&quot;type&quot;:&quot;tree::any&quot;,&quot;value&quot;:{&quot;4&quot;:{&quot;type&quot;:&quot;tree::any&quot;,&quot;value&quot;:{&quot;Value&quot;:{&quot;type&quot;:&quot;float&quot;,&quot;value&quot;:7.143000602722168}}},&quot;9&quot;:{&quot;type&quot;:&quot;tree::any&quot;,&quot;value&quot;:{&quot;Value&quot;:{&quot;type&quot;:&quot;float&quot;,&quot;value&quot;:60}}}}}}},&quot;SoundEffectsSection&quot;:{&quot;type&quot;:&quot;tree::any&quot;,&quot;value&quot;:{&quot;Enabled&quot;:{&quot;type&quot;:&quot;bool&quot;,&quot;value&quot;:true},&quot;Reverb&quot;:{&quot;type&quot;:&quot;tree::any&quot;,&quot;value&quot;:{&quot;3&quot;:{&quot;type&quot;:&quot;tree::any&quot;,&quot;value&quot;:{&quot;Value&quot;:{&quot;type&quot;:&quot;float&quot;,&quot;value&quot;:2}}}}}}},&quot;VolumeSection&quot;:{&quot;type&quot;:&quot;tree::any&quot;,&quot;value&quot;:{&quot;Enabled&quot;:{&quot;type&quot;:&quot;bool&quot;,&quot;value&quot;:true}}}}}}"/>
          <component componentGuid="f0357ae0-7b5b-4814-b29b-54898334e899" componentID="Audition.Fader" id="clipGain" name="volume" powered="true">
            <parameter index="0" name="volume" parameterValue="1"/>
            <parameter index="1" name="static gain" parameterValue="1"/>
          </component>
          <component componentGuid="be5361e3-58a1-4fe6-b538-22aa3355f274" componentID="Audition.Mute" id="clipMute" name="Mute" powered="true">
            <parameter index="0" parameterValue="0"/>
            <parameter index="1" name="mute" parameterValue="0"/>
          </component>
          <component componentGuid="469caa3b-ce0a-4331-88d6-5602144f8b78" componentID="Audition.StereoPanner" id="clipPan" name="StereoPanner" powered="true">
            <parameter index="0" name="Pan" parameterValue="0"/>
          </component>
          <fadeIn crossFadeLinkType="linkedAsymmetric" endPoint="11025" shape="19" startPoint="0" type="log"/>
          <fadeOut crossFadeLinkType="linkedAsymmetric" endPoint="56645" shape="19" startPoint="45620" type="log"/>
          <editParameter parameterIndex="0" slotIndex="4294967280"/>
          <editParameter parameterIndex="0" slotIndex="4294967281"/>
          <channelMap>
            <channel index="0" sourceIndex="0"/>
          </channelMap>
        </audioClip>
        <audioClip clipAutoCrossfade="true" crossFadeHeadClipID="-1" crossFadeTailClipID="-1" endPoint="75609367" fileID="1" hue="-1" id="38" lockedInTime="false" looped="false" name="Emily" offline="false" select="false" sourceInPoint="86944051" sourceOutPoint="87003067" startPoint="75550351" zOrder="38">
          <properties properties="{&quot;BasicAdjustmentsProperty&quot;:{&quot;type&quot;:&quot;tree::any&quot;,&quot;value&quot;:{&quot;AdjustmentMode&quot;:{&quot;type&quot;:&quot;UTF8String&quot;,&quot;value&quot;:&quot;dialog&quot;},&quot;ClaritySection&quot;:{&quot;type&quot;:&quot;tree::any&quot;,&quot;value&quot;:{&quot;Dynamics&quot;:{&quot;type&quot;:&quot;tree::any&quot;,&quot;value&quot;:{&quot;2&quot;:{&quot;type&quot;:&quot;tree::any&quot;,&quot;value&quot;:{&quot;Value&quot;:{&quot;type&quot;:&quot;float&quot;,&quot;value&quot;:3}}}}},&quot;Enabled&quot;:{&quot;type&quot;:&quot;bool&quot;,&quot;value&quot;:true}}},&quot;ClipType&quot;:{&quot;type&quot;:&quot;std::int32_t&quot;,&quot;value&quot;:1},&quot;EnhanceSpeechSection&quot;:{&quot;type&quot;:&quot;tree::any&quot;,&quot;value&quot;:{&quot;Enabled&quot;:{&quot;type&quot;:&quot;bool&quot;,&quot;value&quot;:true}}},&quot;PresetGuid&quot;:{&quot;type&quot;:&quot;UTF8String&quot;,&quot;value&quot;:&quot;bb717b4a-c0b1-4def-9040-3fb8e83b8a91&quot;},&quot;RestorationSection&quot;:{&quot;type&quot;:&quot;tree::any&quot;,&quot;value&quot;:{&quot;Enabled&quot;:{&quot;type&quot;:&quot;bool&quot;,&quot;value&quot;:true},&quot;ReduceHum&quot;:{&quot;type&quot;:&quot;tree::any&quot;,&quot;value&quot;:{&quot;4&quot;:{&quot;type&quot;:&quot;tree::any&quot;,&quot;value&quot;:{&quot;Value&quot;:{&quot;type&quot;:&quot;float&quot;,&quot;value&quot;:7.143000602722168}}},&quot;9&quot;:{&quot;type&quot;:&quot;tree::any&quot;,&quot;value&quot;:{&quot;Value&quot;:{&quot;type&quot;:&quot;float&quot;,&quot;value&quot;:60}}}}}}},&quot;SoundEffectsSection&quot;:{&quot;type&quot;:&quot;tree::any&quot;,&quot;value&quot;:{&quot;Enabled&quot;:{&quot;type&quot;:&quot;bool&quot;,&quot;value&quot;:true},&quot;Reverb&quot;:{&quot;type&quot;:&quot;tree::any&quot;,&quot;value&quot;:{&quot;3&quot;:{&quot;type&quot;:&quot;tree::any&quot;,&quot;value&quot;:{&quot;Value&quot;:{&quot;type&quot;:&quot;float&quot;,&quot;value&quot;:2}}}}}}},&quot;VolumeSection&quot;:{&quot;type&quot;:&quot;tree::any&quot;,&quot;value&quot;:{&quot;Enabled&quot;:{&quot;type&quot;:&quot;bool&quot;,&quot;value&quot;:true}}}}}}"/>
          <component componentGuid="1aef04cb-5eb5-46e5-b12a-4dfcd8d2c164" componentID="Audition.Fader" id="clipGain" name="volume" powered="true">
            <parameter index="0" name="volume" parameterValue="1"/>
            <parameter index="1" name="static gain" parameterValue="1"/>
          </component>
          <component componentGuid="e7d47f69-3c90-4aec-9d87-99883b140253" componentID="Audition.Mute" id="clipMute" name="Mute" powered="true">
            <parameter index="0" parameterValue="0"/>
            <parameter index="1" name="mute" parameterValue="0"/>
          </component>
          <component componentGuid="79b2b48c-5e1a-4733-9e94-bfe1be5361db" componentID="Audition.StereoPanner" id="clipPan" name="StereoPanner" powered="true">
            <parameter index="0" name="Pan" parameterValue="0"/>
          </component>
          <fadeIn crossFadeLinkType="linkedAsymmetric" endPoint="11025" shape="19" startPoint="0" type="log"/>
          <fadeOut crossFadeLinkType="linkedAsymmetric" endPoint="59016" shape="19" startPoint="47991" type="log"/>
          <editParameter parameterIndex="0" slotIndex="4294967280"/>
          <editParameter parameterIndex="0" slotIndex="4294967281"/>
          <channelMap>
            <channel index="0" sourceIndex="0"/>
          </channelMap>
        </audioClip>
        <audioClip clipAutoCrossfade="true" crossFadeHeadClipID="-1" crossFadeTailClipID="-1" endPoint="76507975" fileID="1" hue="-1" id="39" lockedInTime="false" looped="false" name="Emily" offline="false" select="false" sourceInPoint="87842809" sourceOutPoint="87901675" startPoint="76449109" zOrder="41">
          <properties properties="{&quot;BasicAdjustmentsProperty&quot;:{&quot;type&quot;:&quot;tree::any&quot;,&quot;value&quot;:{&quot;AdjustmentMode&quot;:{&quot;type&quot;:&quot;UTF8String&quot;,&quot;value&quot;:&quot;dialog&quot;},&quot;ClaritySection&quot;:{&quot;type&quot;:&quot;tree::any&quot;,&quot;value&quot;:{&quot;Dynamics&quot;:{&quot;type&quot;:&quot;tree::any&quot;,&quot;value&quot;:{&quot;2&quot;:{&quot;type&quot;:&quot;tree::any&quot;,&quot;value&quot;:{&quot;Value&quot;:{&quot;type&quot;:&quot;float&quot;,&quot;value&quot;:3}}}}},&quot;Enabled&quot;:{&quot;type&quot;:&quot;bool&quot;,&quot;value&quot;:true}}},&quot;ClipType&quot;:{&quot;type&quot;:&quot;std::int32_t&quot;,&quot;value&quot;:1},&quot;EnhanceSpeechSection&quot;:{&quot;type&quot;:&quot;tree::any&quot;,&quot;value&quot;:{&quot;Enabled&quot;:{&quot;type&quot;:&quot;bool&quot;,&quot;value&quot;:true}}},&quot;PresetGuid&quot;:{&quot;type&quot;:&quot;UTF8String&quot;,&quot;value&quot;:&quot;bb717b4a-c0b1-4def-9040-3fb8e83b8a91&quot;},&quot;RestorationSection&quot;:{&quot;type&quot;:&quot;tree::any&quot;,&quot;value&quot;:{&quot;Enabled&quot;:{&quot;type&quot;:&quot;bool&quot;,&quot;value&quot;:true},&quot;ReduceHum&quot;:{&quot;type&quot;:&quot;tree::any&quot;,&quot;value&quot;:{&quot;4&quot;:{&quot;type&quot;:&quot;tree::any&quot;,&quot;value&quot;:{&quot;Value&quot;:{&quot;type&quot;:&quot;float&quot;,&quot;value&quot;:7.143000602722168}}},&quot;9&quot;:{&quot;type&quot;:&quot;tree::any&quot;,&quot;value&quot;:{&quot;Value&quot;:{&quot;type&quot;:&quot;float&quot;,&quot;value&quot;:60}}}}}}},&quot;SoundEffectsSection&quot;:{&quot;type&quot;:&quot;tree::any&quot;,&quot;value&quot;:{&quot;Enabled&quot;:{&quot;type&quot;:&quot;bool&quot;,&quot;value&quot;:true},&quot;Reverb&quot;:{&quot;type&quot;:&quot;tree::any&quot;,&quot;value&quot;:{&quot;3&quot;:{&quot;type&quot;:&quot;tree::any&quot;,&quot;value&quot;:{&quot;Value&quot;:{&quot;type&quot;:&quot;float&quot;,&quot;value&quot;:2}}}}}}},&quot;VolumeSection&quot;:{&quot;type&quot;:&quot;tree::any&quot;,&quot;value&quot;:{&quot;Enabled&quot;:{&quot;type&quot;:&quot;bool&quot;,&quot;value&quot;:true}}}}}}"/>
          <component componentGuid="459ae37d-3577-4363-83b4-f19cb67e1083" componentID="Audition.Fader" id="clipGain" name="volume" powered="true">
            <parameter index="0" name="volume" parameterValue="1"/>
            <parameter index="1" name="static gain" parameterValue="1"/>
          </component>
          <component componentGuid="4b1b0397-c95f-46ab-8e28-d4595c49326e" componentID="Audition.Mute" id="clipMute" name="Mute" powered="true">
            <parameter index="0" parameterValue="0"/>
            <parameter index="1" name="mute" parameterValue="0"/>
          </component>
          <component componentGuid="e805e91c-dfe0-4bce-94bf-3ce4f23d949c" componentID="Audition.StereoPanner" id="clipPan" name="StereoPanner" powered="true">
            <parameter index="0" name="Pan" parameterValue="0"/>
          </component>
          <fadeIn crossFadeLinkType="linkedAsymmetric" endPoint="11025" shape="19" startPoint="0" type="log"/>
          <fadeOut crossFadeLinkType="linkedAsymmetric" endPoint="58866" shape="19" startPoint="47841" type="log"/>
          <editParameter parameterIndex="0" slotIndex="4294967280"/>
          <editParameter parameterIndex="0" slotIndex="4294967281"/>
          <channelMap>
            <channel index="0" sourceIndex="0"/>
          </channelMap>
        </audioClip>
        <audioClip clipAutoCrossfade="true" crossFadeHeadClipID="-1" crossFadeTailClipID="-1" endPoint="78546922" fileID="1" hue="-1" id="40" lockedInTime="false" looped="false" name="Emily" offline="false" select="false" sourceInPoint="89844402" sourceOutPoint="89940621" startPoint="78450703" zOrder="40">
          <properties properties="{&quot;BasicAdjustmentsProperty&quot;:{&quot;type&quot;:&quot;tree::any&quot;,&quot;value&quot;:{&quot;AdjustmentMode&quot;:{&quot;type&quot;:&quot;UTF8String&quot;,&quot;value&quot;:&quot;dialog&quot;},&quot;ClaritySection&quot;:{&quot;type&quot;:&quot;tree::any&quot;,&quot;value&quot;:{&quot;Dynamics&quot;:{&quot;type&quot;:&quot;tree::any&quot;,&quot;value&quot;:{&quot;2&quot;:{&quot;type&quot;:&quot;tree::any&quot;,&quot;value&quot;:{&quot;Value&quot;:{&quot;type&quot;:&quot;float&quot;,&quot;value&quot;:3}}}}},&quot;Enabled&quot;:{&quot;type&quot;:&quot;bool&quot;,&quot;value&quot;:true}}},&quot;ClipType&quot;:{&quot;type&quot;:&quot;std::int32_t&quot;,&quot;value&quot;:1},&quot;EnhanceSpeechSection&quot;:{&quot;type&quot;:&quot;tree::any&quot;,&quot;value&quot;:{&quot;Enabled&quot;:{&quot;type&quot;:&quot;bool&quot;,&quot;value&quot;:true}}},&quot;PresetGuid&quot;:{&quot;type&quot;:&quot;UTF8String&quot;,&quot;value&quot;:&quot;bb717b4a-c0b1-4def-9040-3fb8e83b8a91&quot;},&quot;RestorationSection&quot;:{&quot;type&quot;:&quot;tree::any&quot;,&quot;value&quot;:{&quot;Enabled&quot;:{&quot;type&quot;:&quot;bool&quot;,&quot;value&quot;:true},&quot;ReduceHum&quot;:{&quot;type&quot;:&quot;tree::any&quot;,&quot;value&quot;:{&quot;4&quot;:{&quot;type&quot;:&quot;tree::any&quot;,&quot;value&quot;:{&quot;Value&quot;:{&quot;type&quot;:&quot;float&quot;,&quot;value&quot;:7.143000602722168}}},&quot;9&quot;:{&quot;type&quot;:&quot;tree::any&quot;,&quot;value&quot;:{&quot;Value&quot;:{&quot;type&quot;:&quot;float&quot;,&quot;value&quot;:60}}}}}}},&quot;SoundEffectsSection&quot;:{&quot;type&quot;:&quot;tree::any&quot;,&quot;value&quot;:{&quot;Enabled&quot;:{&quot;type&quot;:&quot;bool&quot;,&quot;value&quot;:true},&quot;Reverb&quot;:{&quot;type&quot;:&quot;tree::any&quot;,&quot;value&quot;:{&quot;3&quot;:{&quot;type&quot;:&quot;tree::any&quot;,&quot;value&quot;:{&quot;Value&quot;:{&quot;type&quot;:&quot;float&quot;,&quot;value&quot;:2}}}}}}},&quot;VolumeSection&quot;:{&quot;type&quot;:&quot;tree::any&quot;,&quot;value&quot;:{&quot;Enabled&quot;:{&quot;type&quot;:&quot;bool&quot;,&quot;value&quot;:true}}}}}}"/>
          <component componentGuid="f75f44ff-3da5-4353-af85-b8ece2945917" componentID="Audition.Fader" id="clipGain" name="volume" powered="true">
            <parameter index="0" name="volume" parameterValue="1"/>
            <parameter index="1" name="static gain" parameterValue="1"/>
          </component>
          <component componentGuid="1842946d-0d33-467b-a8f9-1e24464bf1c3" componentID="Audition.Mute" id="clipMute" name="Mute" powered="true">
            <parameter index="0" parameterValue="0"/>
            <parameter index="1" name="mute" parameterValue="0"/>
          </component>
          <component componentGuid="d532f0a9-cdad-46e0-98d9-2f28212afacf" componentID="Audition.StereoPanner" id="clipPan" name="StereoPanner" powered="true">
            <parameter index="0" name="Pan" parameterValue="0"/>
          </component>
          <fadeIn crossFadeLinkType="linkedAsymmetric" endPoint="11025" shape="19" startPoint="0" type="log"/>
          <fadeOut crossFadeLinkType="linkedAsymmetric" endPoint="96219" shape="19" startPoint="85194" type="log"/>
          <editParameter parameterIndex="0" slotIndex="4294967280"/>
          <editParameter parameterIndex="0" slotIndex="4294967281"/>
          <channelMap>
            <channel index="0" sourceIndex="0"/>
          </channelMap>
        </audioClip>
        <audioClip clipAutoCrossfade="true" crossFadeHeadClipID="-1" crossFadeTailClipID="-1" endPoint="80057919" fileID="1" hue="-1" id="41" lockedInTime="false" looped="false" name="Emily" offline="false" select="false" sourceInPoint="91175989" sourceOutPoint="91451178" startPoint="79782730" zOrder="39">
          <properties properties="{&quot;BasicAdjustmentsProperty&quot;:{&quot;type&quot;:&quot;tree::any&quot;,&quot;value&quot;:{&quot;AdjustmentMode&quot;:{&quot;type&quot;:&quot;UTF8String&quot;,&quot;value&quot;:&quot;dialog&quot;},&quot;ClaritySection&quot;:{&quot;type&quot;:&quot;tree::any&quot;,&quot;value&quot;:{&quot;Dynamics&quot;:{&quot;type&quot;:&quot;tree::any&quot;,&quot;value&quot;:{&quot;2&quot;:{&quot;type&quot;:&quot;tree::any&quot;,&quot;value&quot;:{&quot;Value&quot;:{&quot;type&quot;:&quot;float&quot;,&quot;value&quot;:3}}}}},&quot;Enabled&quot;:{&quot;type&quot;:&quot;bool&quot;,&quot;value&quot;:true}}},&quot;ClipType&quot;:{&quot;type&quot;:&quot;std::int32_t&quot;,&quot;value&quot;:1},&quot;EnhanceSpeechSection&quot;:{&quot;type&quot;:&quot;tree::any&quot;,&quot;value&quot;:{&quot;Enabled&quot;:{&quot;type&quot;:&quot;bool&quot;,&quot;value&quot;:true}}},&quot;PresetGuid&quot;:{&quot;type&quot;:&quot;UTF8String&quot;,&quot;value&quot;:&quot;bb717b4a-c0b1-4def-9040-3fb8e83b8a91&quot;},&quot;RestorationSection&quot;:{&quot;type&quot;:&quot;tree::any&quot;,&quot;value&quot;:{&quot;Enabled&quot;:{&quot;type&quot;:&quot;bool&quot;,&quot;value&quot;:true},&quot;ReduceHum&quot;:{&quot;type&quot;:&quot;tree::any&quot;,&quot;value&quot;:{&quot;4&quot;:{&quot;type&quot;:&quot;tree::any&quot;,&quot;value&quot;:{&quot;Value&quot;:{&quot;type&quot;:&quot;float&quot;,&quot;value&quot;:7.143000602722168}}},&quot;9&quot;:{&quot;type&quot;:&quot;tree::any&quot;,&quot;value&quot;:{&quot;Value&quot;:{&quot;type&quot;:&quot;float&quot;,&quot;value&quot;:60}}}}}}},&quot;SoundEffectsSection&quot;:{&quot;type&quot;:&quot;tree::any&quot;,&quot;value&quot;:{&quot;Enabled&quot;:{&quot;type&quot;:&quot;bool&quot;,&quot;value&quot;:true},&quot;Reverb&quot;:{&quot;type&quot;:&quot;tree::any&quot;,&quot;value&quot;:{&quot;3&quot;:{&quot;type&quot;:&quot;tree::any&quot;,&quot;value&quot;:{&quot;Value&quot;:{&quot;type&quot;:&quot;float&quot;,&quot;value&quot;:2}}}}}}},&quot;VolumeSection&quot;:{&quot;type&quot;:&quot;tree::any&quot;,&quot;value&quot;:{&quot;Enabled&quot;:{&quot;type&quot;:&quot;bool&quot;,&quot;value&quot;:true}}}}}}"/>
          <component componentGuid="4069e1d0-c586-4a4e-afcf-6bd1c949f737" componentID="Audition.Fader" id="clipGain" name="volume" powered="true">
            <parameter index="0" name="volume" parameterValue="1"/>
            <parameter index="1" name="static gain" parameterValue="1"/>
          </component>
          <component componentGuid="3838016a-36c1-48c2-a58f-fea995f8f86d" componentID="Audition.Mute" id="clipMute" name="Mute" powered="true">
            <parameter index="0" parameterValue="0"/>
            <parameter index="1" name="mute" parameterValue="0"/>
          </component>
          <component componentGuid="8df1be4e-262b-4e58-abe3-cb10b8157c1e" componentID="Audition.StereoPanner" id="clipPan" name="StereoPanner" powered="true">
            <parameter index="0" name="Pan" parameterValue="0"/>
          </component>
          <fadeIn crossFadeLinkType="linkedAsymmetric" endPoint="11025" shape="19" startPoint="0" type="log"/>
          <fadeOut crossFadeLinkType="linkedAsymmetric" endPoint="275189" shape="19" startPoint="275189" type="log"/>
          <editParameter parameterIndex="0" slotIndex="4294967280"/>
          <editParameter parameterIndex="0" slotIndex="4294967281"/>
          <channelMap>
            <channel index="0" sourceIndex="0"/>
          </channelMap>
        </audioClip>
        <audioClip clipAutoCrossfade="true" crossFadeHeadClipID="-1" crossFadeTailClipID="-1" endPoint="80869529" fileID="1" hue="-1" id="42" lockedInTime="false" looped="false" name="Emily" offline="false" select="false" sourceInPoint="91534754" sourceOutPoint="92346364" startPoint="80057919" zOrder="42">
          <properties properties="{&quot;BasicAdjustmentsProperty&quot;:{&quot;type&quot;:&quot;tree::any&quot;,&quot;value&quot;:{&quot;AdjustmentMode&quot;:{&quot;type&quot;:&quot;UTF8String&quot;,&quot;value&quot;:&quot;dialog&quot;},&quot;ClaritySection&quot;:{&quot;type&quot;:&quot;tree::any&quot;,&quot;value&quot;:{&quot;Dynamics&quot;:{&quot;type&quot;:&quot;tree::any&quot;,&quot;value&quot;:{&quot;2&quot;:{&quot;type&quot;:&quot;tree::any&quot;,&quot;value&quot;:{&quot;Value&quot;:{&quot;type&quot;:&quot;float&quot;,&quot;value&quot;:3}}}}},&quot;Enabled&quot;:{&quot;type&quot;:&quot;bool&quot;,&quot;value&quot;:true}}},&quot;ClipType&quot;:{&quot;type&quot;:&quot;std::int32_t&quot;,&quot;value&quot;:1},&quot;EnhanceSpeechSection&quot;:{&quot;type&quot;:&quot;tree::any&quot;,&quot;value&quot;:{&quot;Enabled&quot;:{&quot;type&quot;:&quot;bool&quot;,&quot;value&quot;:true}}},&quot;PresetGuid&quot;:{&quot;type&quot;:&quot;UTF8String&quot;,&quot;value&quot;:&quot;bb717b4a-c0b1-4def-9040-3fb8e83b8a91&quot;},&quot;RestorationSection&quot;:{&quot;type&quot;:&quot;tree::any&quot;,&quot;value&quot;:{&quot;Enabled&quot;:{&quot;type&quot;:&quot;bool&quot;,&quot;value&quot;:true},&quot;ReduceHum&quot;:{&quot;type&quot;:&quot;tree::any&quot;,&quot;value&quot;:{&quot;4&quot;:{&quot;type&quot;:&quot;tree::any&quot;,&quot;value&quot;:{&quot;Value&quot;:{&quot;type&quot;:&quot;float&quot;,&quot;value&quot;:7.143000602722168}}},&quot;9&quot;:{&quot;type&quot;:&quot;tree::any&quot;,&quot;value&quot;:{&quot;Value&quot;:{&quot;type&quot;:&quot;float&quot;,&quot;value&quot;:60}}}}}}},&quot;SoundEffectsSection&quot;:{&quot;type&quot;:&quot;tree::any&quot;,&quot;value&quot;:{&quot;Enabled&quot;:{&quot;type&quot;:&quot;bool&quot;,&quot;value&quot;:true},&quot;Reverb&quot;:{&quot;type&quot;:&quot;tree::any&quot;,&quot;value&quot;:{&quot;3&quot;:{&quot;type&quot;:&quot;tree::any&quot;,&quot;value&quot;:{&quot;Value&quot;:{&quot;type&quot;:&quot;float&quot;,&quot;value&quot;:2}}}}}}},&quot;VolumeSection&quot;:{&quot;type&quot;:&quot;tree::any&quot;,&quot;value&quot;:{&quot;Enabled&quot;:{&quot;type&quot;:&quot;bool&quot;,&quot;value&quot;:true}}}}}}"/>
          <component componentGuid="44ba942b-ca29-441d-a411-685f7e472e29" componentID="Audition.Fader" id="clipGain" name="volume" powered="true">
            <parameter index="0" name="volume" parameterValue="1"/>
            <parameter index="1" name="static gain" parameterValue="1"/>
          </component>
          <component componentGuid="65561594-07ac-43f2-afbf-ad15b7e0c4f0" componentID="Audition.Mute" id="clipMute" name="Mute" powered="true">
            <parameter index="0" parameterValue="0"/>
            <parameter index="1" name="mute" parameterValue="0"/>
          </component>
          <component componentGuid="43386abe-7695-4f40-ac29-3fb6537c89b3" componentID="Audition.StereoPanner" id="clipPan" name="StereoPanner" powered="true">
            <parameter index="0" name="Pan" parameterValue="0"/>
          </component>
          <fadeIn crossFadeLinkType="linkedAsymmetric" endPoint="0" shape="19" startPoint="0" type="log"/>
          <fadeOut crossFadeLinkType="linkedAsymmetric" endPoint="811610" shape="19" startPoint="800585" type="log"/>
          <editParameter parameterIndex="0" slotIndex="4294967280"/>
          <editParameter parameterIndex="0" slotIndex="4294967281"/>
          <channelMap>
            <channel index="0" sourceIndex="0"/>
          </channelMap>
        </audioClip>
        <audioClip clipAutoCrossfade="true" crossFadeHeadClipID="-1" crossFadeTailClipID="-1" endPoint="81099086" fileID="1" hue="-1" id="43" lockedInTime="false" looped="false" name="Emily" offline="false" select="false" sourceInPoint="92521561" sourceOutPoint="92575919" startPoint="81044728" zOrder="43">
          <properties properties="{&quot;BasicAdjustmentsProperty&quot;:{&quot;type&quot;:&quot;tree::any&quot;,&quot;value&quot;:{&quot;AdjustmentMode&quot;:{&quot;type&quot;:&quot;UTF8String&quot;,&quot;value&quot;:&quot;dialog&quot;},&quot;ClaritySection&quot;:{&quot;type&quot;:&quot;tree::any&quot;,&quot;value&quot;:{&quot;Dynamics&quot;:{&quot;type&quot;:&quot;tree::any&quot;,&quot;value&quot;:{&quot;2&quot;:{&quot;type&quot;:&quot;tree::any&quot;,&quot;value&quot;:{&quot;Value&quot;:{&quot;type&quot;:&quot;float&quot;,&quot;value&quot;:3}}}}},&quot;Enabled&quot;:{&quot;type&quot;:&quot;bool&quot;,&quot;value&quot;:true}}},&quot;ClipType&quot;:{&quot;type&quot;:&quot;std::int32_t&quot;,&quot;value&quot;:1},&quot;EnhanceSpeechSection&quot;:{&quot;type&quot;:&quot;tree::any&quot;,&quot;value&quot;:{&quot;Enabled&quot;:{&quot;type&quot;:&quot;bool&quot;,&quot;value&quot;:true}}},&quot;PresetGuid&quot;:{&quot;type&quot;:&quot;UTF8String&quot;,&quot;value&quot;:&quot;bb717b4a-c0b1-4def-9040-3fb8e83b8a91&quot;},&quot;RestorationSection&quot;:{&quot;type&quot;:&quot;tree::any&quot;,&quot;value&quot;:{&quot;Enabled&quot;:{&quot;type&quot;:&quot;bool&quot;,&quot;value&quot;:true},&quot;ReduceHum&quot;:{&quot;type&quot;:&quot;tree::any&quot;,&quot;value&quot;:{&quot;4&quot;:{&quot;type&quot;:&quot;tree::any&quot;,&quot;value&quot;:{&quot;Value&quot;:{&quot;type&quot;:&quot;float&quot;,&quot;value&quot;:7.143000602722168}}},&quot;9&quot;:{&quot;type&quot;:&quot;tree::any&quot;,&quot;value&quot;:{&quot;Value&quot;:{&quot;type&quot;:&quot;float&quot;,&quot;value&quot;:60}}}}}}},&quot;SoundEffectsSection&quot;:{&quot;type&quot;:&quot;tree::any&quot;,&quot;value&quot;:{&quot;Enabled&quot;:{&quot;type&quot;:&quot;bool&quot;,&quot;value&quot;:true},&quot;Reverb&quot;:{&quot;type&quot;:&quot;tree::any&quot;,&quot;value&quot;:{&quot;3&quot;:{&quot;type&quot;:&quot;tree::any&quot;,&quot;value&quot;:{&quot;Value&quot;:{&quot;type&quot;:&quot;float&quot;,&quot;value&quot;:2}}}}}}},&quot;VolumeSection&quot;:{&quot;type&quot;:&quot;tree::any&quot;,&quot;value&quot;:{&quot;Enabled&quot;:{&quot;type&quot;:&quot;bool&quot;,&quot;value&quot;:true}}}}}}"/>
          <component componentGuid="c9faa3d9-ee76-44e1-ab44-05df95903ef4" componentID="Audition.Fader" id="clipGain" name="volume" powered="true">
            <parameter index="0" name="volume" parameterValue="1"/>
            <parameter index="1" name="static gain" parameterValue="1"/>
          </component>
          <component componentGuid="010079ba-fe38-4f43-958f-abd669caafcc" componentID="Audition.Mute" id="clipMute" name="Mute" powered="true">
            <parameter index="0" parameterValue="0"/>
            <parameter index="1" name="mute" parameterValue="0"/>
          </component>
          <component componentGuid="e7d30557-4f7b-489b-b719-a4855697f842" componentID="Audition.StereoPanner" id="clipPan" name="StereoPanner" powered="true">
            <parameter index="0" name="Pan" parameterValue="0"/>
          </component>
          <fadeIn crossFadeLinkType="linkedAsymmetric" endPoint="11025" shape="19" startPoint="0" type="log"/>
          <fadeOut crossFadeLinkType="linkedAsymmetric" endPoint="54358" shape="19" startPoint="43333" type="log"/>
          <editParameter parameterIndex="0" slotIndex="4294967280"/>
          <editParameter parameterIndex="0" slotIndex="4294967281"/>
          <channelMap>
            <channel index="0" sourceIndex="0"/>
          </channelMap>
        </audioClip>
        <audioClip clipAutoCrossfade="true" crossFadeHeadClipID="-1" crossFadeTailClipID="-1" endPoint="83132201" fileID="1" hue="-1" id="44" lockedInTime="false" looped="false" name="Emily" offline="false" select="false" sourceInPoint="94360896" sourceOutPoint="94668780" startPoint="82824317" zOrder="45">
          <properties properties="{&quot;BasicAdjustmentsProperty&quot;:{&quot;type&quot;:&quot;tree::any&quot;,&quot;value&quot;:{&quot;AdjustmentMode&quot;:{&quot;type&quot;:&quot;UTF8String&quot;,&quot;value&quot;:&quot;dialog&quot;},&quot;ClaritySection&quot;:{&quot;type&quot;:&quot;tree::any&quot;,&quot;value&quot;:{&quot;Dynamics&quot;:{&quot;type&quot;:&quot;tree::any&quot;,&quot;value&quot;:{&quot;2&quot;:{&quot;type&quot;:&quot;tree::any&quot;,&quot;value&quot;:{&quot;Value&quot;:{&quot;type&quot;:&quot;float&quot;,&quot;value&quot;:3}}}}},&quot;Enabled&quot;:{&quot;type&quot;:&quot;bool&quot;,&quot;value&quot;:true}}},&quot;ClipType&quot;:{&quot;type&quot;:&quot;std::int32_t&quot;,&quot;value&quot;:1},&quot;EnhanceSpeechSection&quot;:{&quot;type&quot;:&quot;tree::any&quot;,&quot;value&quot;:{&quot;Enabled&quot;:{&quot;type&quot;:&quot;bool&quot;,&quot;value&quot;:true}}},&quot;PresetGuid&quot;:{&quot;type&quot;:&quot;UTF8String&quot;,&quot;value&quot;:&quot;bb717b4a-c0b1-4def-9040-3fb8e83b8a91&quot;},&quot;RestorationSection&quot;:{&quot;type&quot;:&quot;tree::any&quot;,&quot;value&quot;:{&quot;Enabled&quot;:{&quot;type&quot;:&quot;bool&quot;,&quot;value&quot;:true},&quot;ReduceHum&quot;:{&quot;type&quot;:&quot;tree::any&quot;,&quot;value&quot;:{&quot;4&quot;:{&quot;type&quot;:&quot;tree::any&quot;,&quot;value&quot;:{&quot;Value&quot;:{&quot;type&quot;:&quot;float&quot;,&quot;value&quot;:7.143000602722168}}},&quot;9&quot;:{&quot;type&quot;:&quot;tree::any&quot;,&quot;value&quot;:{&quot;Value&quot;:{&quot;type&quot;:&quot;float&quot;,&quot;value&quot;:60}}}}}}},&quot;SoundEffectsSection&quot;:{&quot;type&quot;:&quot;tree::any&quot;,&quot;value&quot;:{&quot;Enabled&quot;:{&quot;type&quot;:&quot;bool&quot;,&quot;value&quot;:true},&quot;Reverb&quot;:{&quot;type&quot;:&quot;tree::any&quot;,&quot;value&quot;:{&quot;3&quot;:{&quot;type&quot;:&quot;tree::any&quot;,&quot;value&quot;:{&quot;Value&quot;:{&quot;type&quot;:&quot;float&quot;,&quot;value&quot;:2}}}}}}},&quot;VolumeSection&quot;:{&quot;type&quot;:&quot;tree::any&quot;,&quot;value&quot;:{&quot;Enabled&quot;:{&quot;type&quot;:&quot;bool&quot;,&quot;value&quot;:true}}}}}}"/>
          <component componentGuid="95123803-8d63-4ce5-bf2d-80329eaa8d0c" componentID="Audition.Fader" id="clipGain" name="volume" powered="true">
            <parameter index="0" name="volume" parameterValue="1"/>
            <parameter index="1" name="static gain" parameterValue="1"/>
          </component>
          <component componentGuid="c0b35b60-fb76-4f45-9246-155dded06531" componentID="Audition.Mute" id="clipMute" name="Mute" powered="true">
            <parameter index="0" parameterValue="0"/>
            <parameter index="1" name="mute" parameterValue="0"/>
          </component>
          <component componentGuid="7781cc48-560a-4bee-b2a1-1b6bfb89e3af" componentID="Audition.StereoPanner" id="clipPan" name="StereoPanner" powered="true">
            <parameter index="0" name="Pan" parameterValue="0"/>
          </component>
          <fadeIn crossFadeLinkType="linkedAsymmetric" endPoint="11025" shape="19" startPoint="0" type="log"/>
          <fadeOut crossFadeLinkType="linkedAsymmetric" endPoint="307884" shape="-17" startPoint="272862" type="log"/>
          <editParameter parameterIndex="0" slotIndex="4294967280"/>
          <editParameter parameterIndex="0" slotIndex="4294967281"/>
          <channelMap>
            <channel index="0" sourceIndex="0"/>
          </channelMap>
        </audioClip>
        <audioClip clipAutoCrossfade="true" crossFadeHeadClipID="-1" crossFadeTailClipID="-1" endPoint="83274824" fileID="1" hue="-1" id="45" lockedInTime="false" looped="false" name="Emily" offline="false" select="false" sourceInPoint="94753153" sourceOutPoint="94811403" startPoint="83216574" zOrder="44">
          <properties properties="{&quot;BasicAdjustmentsProperty&quot;:{&quot;type&quot;:&quot;tree::any&quot;,&quot;value&quot;:{&quot;AdjustmentMode&quot;:{&quot;type&quot;:&quot;UTF8String&quot;,&quot;value&quot;:&quot;dialog&quot;},&quot;ClaritySection&quot;:{&quot;type&quot;:&quot;tree::any&quot;,&quot;value&quot;:{&quot;Dynamics&quot;:{&quot;type&quot;:&quot;tree::any&quot;,&quot;value&quot;:{&quot;2&quot;:{&quot;type&quot;:&quot;tree::any&quot;,&quot;value&quot;:{&quot;Value&quot;:{&quot;type&quot;:&quot;float&quot;,&quot;value&quot;:3}}}}},&quot;Enabled&quot;:{&quot;type&quot;:&quot;bool&quot;,&quot;value&quot;:true}}},&quot;ClipType&quot;:{&quot;type&quot;:&quot;std::int32_t&quot;,&quot;value&quot;:1},&quot;EnhanceSpeechSection&quot;:{&quot;type&quot;:&quot;tree::any&quot;,&quot;value&quot;:{&quot;Enabled&quot;:{&quot;type&quot;:&quot;bool&quot;,&quot;value&quot;:true}}},&quot;PresetGuid&quot;:{&quot;type&quot;:&quot;UTF8String&quot;,&quot;value&quot;:&quot;bb717b4a-c0b1-4def-9040-3fb8e83b8a91&quot;},&quot;RestorationSection&quot;:{&quot;type&quot;:&quot;tree::any&quot;,&quot;value&quot;:{&quot;Enabled&quot;:{&quot;type&quot;:&quot;bool&quot;,&quot;value&quot;:true},&quot;ReduceHum&quot;:{&quot;type&quot;:&quot;tree::any&quot;,&quot;value&quot;:{&quot;4&quot;:{&quot;type&quot;:&quot;tree::any&quot;,&quot;value&quot;:{&quot;Value&quot;:{&quot;type&quot;:&quot;float&quot;,&quot;value&quot;:7.143000602722168}}},&quot;9&quot;:{&quot;type&quot;:&quot;tree::any&quot;,&quot;value&quot;:{&quot;Value&quot;:{&quot;type&quot;:&quot;float&quot;,&quot;value&quot;:60}}}}}}},&quot;SoundEffectsSection&quot;:{&quot;type&quot;:&quot;tree::any&quot;,&quot;value&quot;:{&quot;Enabled&quot;:{&quot;type&quot;:&quot;bool&quot;,&quot;value&quot;:true},&quot;Reverb&quot;:{&quot;type&quot;:&quot;tree::any&quot;,&quot;value&quot;:{&quot;3&quot;:{&quot;type&quot;:&quot;tree::any&quot;,&quot;value&quot;:{&quot;Value&quot;:{&quot;type&quot;:&quot;float&quot;,&quot;value&quot;:2}}}}}}},&quot;VolumeSection&quot;:{&quot;type&quot;:&quot;tree::any&quot;,&quot;value&quot;:{&quot;Enabled&quot;:{&quot;type&quot;:&quot;bool&quot;,&quot;value&quot;:true}}}}}}"/>
          <component componentGuid="49ab2e1b-a858-440f-89ac-c1e858e33ac5" componentID="Audition.Fader" id="clipGain" name="volume" powered="true">
            <parameter index="0" name="volume" parameterValue="1"/>
            <parameter index="1" name="static gain" parameterValue="1"/>
          </component>
          <component componentGuid="31d514df-ac39-4e8f-8220-8aca1f1f2eac" componentID="Audition.Mute" id="clipMute" name="Mute" powered="true">
            <parameter index="0" parameterValue="0"/>
            <parameter index="1" name="mute" parameterValue="0"/>
          </component>
          <component componentGuid="07863bb5-9a2d-4502-8f98-cf3c162bfe21" componentID="Audition.StereoPanner" id="clipPan" name="StereoPanner" powered="true">
            <parameter index="0" name="Pan" parameterValue="0"/>
          </component>
          <fadeIn crossFadeLinkType="linkedAsymmetric" endPoint="0" shape="19" startPoint="0" type="log"/>
          <fadeOut crossFadeLinkType="linkedAsymmetric" endPoint="58250" shape="19" startPoint="47225" type="log"/>
          <editParameter parameterIndex="0" slotIndex="4294967280"/>
          <editParameter parameterIndex="0" slotIndex="4294967281"/>
          <channelMap>
            <channel index="0" sourceIndex="0"/>
          </channelMap>
        </audioClip>
        <audioClip clipAutoCrossfade="true" crossFadeHeadClipID="-1" crossFadeTailClipID="-1" endPoint="84138597" fileID="1" hue="-1" id="46" lockedInTime="false" looped="false" name="Emily" offline="false" select="false" sourceInPoint="95659922" sourceOutPoint="95714709" startPoint="84083810" zOrder="46">
          <properties properties="{&quot;BasicAdjustmentsProperty&quot;:{&quot;type&quot;:&quot;tree::any&quot;,&quot;value&quot;:{&quot;AdjustmentMode&quot;:{&quot;type&quot;:&quot;UTF8String&quot;,&quot;value&quot;:&quot;dialog&quot;},&quot;ClaritySection&quot;:{&quot;type&quot;:&quot;tree::any&quot;,&quot;value&quot;:{&quot;Dynamics&quot;:{&quot;type&quot;:&quot;tree::any&quot;,&quot;value&quot;:{&quot;2&quot;:{&quot;type&quot;:&quot;tree::any&quot;,&quot;value&quot;:{&quot;Value&quot;:{&quot;type&quot;:&quot;float&quot;,&quot;value&quot;:3}}}}},&quot;Enabled&quot;:{&quot;type&quot;:&quot;bool&quot;,&quot;value&quot;:true}}},&quot;ClipType&quot;:{&quot;type&quot;:&quot;std::int32_t&quot;,&quot;value&quot;:1},&quot;EnhanceSpeechSection&quot;:{&quot;type&quot;:&quot;tree::any&quot;,&quot;value&quot;:{&quot;Enabled&quot;:{&quot;type&quot;:&quot;bool&quot;,&quot;value&quot;:true}}},&quot;PresetGuid&quot;:{&quot;type&quot;:&quot;UTF8String&quot;,&quot;value&quot;:&quot;bb717b4a-c0b1-4def-9040-3fb8e83b8a91&quot;},&quot;RestorationSection&quot;:{&quot;type&quot;:&quot;tree::any&quot;,&quot;value&quot;:{&quot;Enabled&quot;:{&quot;type&quot;:&quot;bool&quot;,&quot;value&quot;:true},&quot;ReduceHum&quot;:{&quot;type&quot;:&quot;tree::any&quot;,&quot;value&quot;:{&quot;4&quot;:{&quot;type&quot;:&quot;tree::any&quot;,&quot;value&quot;:{&quot;Value&quot;:{&quot;type&quot;:&quot;float&quot;,&quot;value&quot;:7.143000602722168}}},&quot;9&quot;:{&quot;type&quot;:&quot;tree::any&quot;,&quot;value&quot;:{&quot;Value&quot;:{&quot;type&quot;:&quot;float&quot;,&quot;value&quot;:60}}}}}}},&quot;SoundEffectsSection&quot;:{&quot;type&quot;:&quot;tree::any&quot;,&quot;value&quot;:{&quot;Enabled&quot;:{&quot;type&quot;:&quot;bool&quot;,&quot;value&quot;:true},&quot;Reverb&quot;:{&quot;type&quot;:&quot;tree::any&quot;,&quot;value&quot;:{&quot;3&quot;:{&quot;type&quot;:&quot;tree::any&quot;,&quot;value&quot;:{&quot;Value&quot;:{&quot;type&quot;:&quot;float&quot;,&quot;value&quot;:2}}}}}}},&quot;VolumeSection&quot;:{&quot;type&quot;:&quot;tree::any&quot;,&quot;value&quot;:{&quot;Enabled&quot;:{&quot;type&quot;:&quot;bool&quot;,&quot;value&quot;:true}}}}}}"/>
          <component componentGuid="310aa284-0cf4-4e06-8074-0b5a49cb58a7" componentID="Audition.Fader" id="clipGain" name="volume" powered="true">
            <parameter index="0" name="volume" parameterValue="1"/>
            <parameter index="1" name="static gain" parameterValue="1"/>
          </component>
          <component componentGuid="866d5786-99dd-4889-9bb4-403731abf8f8" componentID="Audition.Mute" id="clipMute" name="Mute" powered="true">
            <parameter index="0" parameterValue="0"/>
            <parameter index="1" name="mute" parameterValue="0"/>
          </component>
          <component componentGuid="85553173-d3c0-40d7-9f72-1426e10af7f7" componentID="Audition.StereoPanner" id="clipPan" name="StereoPanner" powered="true">
            <parameter index="0" name="Pan" parameterValue="0"/>
          </component>
          <fadeIn crossFadeLinkType="linkedAsymmetric" endPoint="11025" shape="19" startPoint="0" type="log"/>
          <fadeOut crossFadeLinkType="linkedAsymmetric" endPoint="54787" shape="19" startPoint="43762" type="log"/>
          <editParameter parameterIndex="0" slotIndex="4294967280"/>
          <editParameter parameterIndex="0" slotIndex="4294967281"/>
          <channelMap>
            <channel index="0" sourceIndex="0"/>
          </channelMap>
        </audioClip>
        <audioClip clipAutoCrossfade="true" crossFadeHeadClipID="-1" crossFadeTailClipID="-1" endPoint="85549961" fileID="1" hue="-1" id="47" lockedInTime="false" looped="false" name="Emily" offline="false" select="false" sourceInPoint="97005871" sourceOutPoint="97126073" startPoint="85429759" zOrder="49">
          <properties properties="{&quot;BasicAdjustmentsProperty&quot;:{&quot;type&quot;:&quot;tree::any&quot;,&quot;value&quot;:{&quot;AdjustmentMode&quot;:{&quot;type&quot;:&quot;UTF8String&quot;,&quot;value&quot;:&quot;dialog&quot;},&quot;ClaritySection&quot;:{&quot;type&quot;:&quot;tree::any&quot;,&quot;value&quot;:{&quot;Dynamics&quot;:{&quot;type&quot;:&quot;tree::any&quot;,&quot;value&quot;:{&quot;2&quot;:{&quot;type&quot;:&quot;tree::any&quot;,&quot;value&quot;:{&quot;Value&quot;:{&quot;type&quot;:&quot;float&quot;,&quot;value&quot;:3}}}}},&quot;Enabled&quot;:{&quot;type&quot;:&quot;bool&quot;,&quot;value&quot;:true}}},&quot;ClipType&quot;:{&quot;type&quot;:&quot;std::int32_t&quot;,&quot;value&quot;:1},&quot;EnhanceSpeechSection&quot;:{&quot;type&quot;:&quot;tree::any&quot;,&quot;value&quot;:{&quot;Enabled&quot;:{&quot;type&quot;:&quot;bool&quot;,&quot;value&quot;:true}}},&quot;PresetGuid&quot;:{&quot;type&quot;:&quot;UTF8String&quot;,&quot;value&quot;:&quot;bb717b4a-c0b1-4def-9040-3fb8e83b8a91&quot;},&quot;RestorationSection&quot;:{&quot;type&quot;:&quot;tree::any&quot;,&quot;value&quot;:{&quot;Enabled&quot;:{&quot;type&quot;:&quot;bool&quot;,&quot;value&quot;:true},&quot;ReduceHum&quot;:{&quot;type&quot;:&quot;tree::any&quot;,&quot;value&quot;:{&quot;4&quot;:{&quot;type&quot;:&quot;tree::any&quot;,&quot;value&quot;:{&quot;Value&quot;:{&quot;type&quot;:&quot;float&quot;,&quot;value&quot;:7.143000602722168}}},&quot;9&quot;:{&quot;type&quot;:&quot;tree::any&quot;,&quot;value&quot;:{&quot;Value&quot;:{&quot;type&quot;:&quot;float&quot;,&quot;value&quot;:60}}}}}}},&quot;SoundEffectsSection&quot;:{&quot;type&quot;:&quot;tree::any&quot;,&quot;value&quot;:{&quot;Enabled&quot;:{&quot;type&quot;:&quot;bool&quot;,&quot;value&quot;:true},&quot;Reverb&quot;:{&quot;type&quot;:&quot;tree::any&quot;,&quot;value&quot;:{&quot;3&quot;:{&quot;type&quot;:&quot;tree::any&quot;,&quot;value&quot;:{&quot;Value&quot;:{&quot;type&quot;:&quot;float&quot;,&quot;value&quot;:2}}}}}}},&quot;VolumeSection&quot;:{&quot;type&quot;:&quot;tree::any&quot;,&quot;value&quot;:{&quot;Enabled&quot;:{&quot;type&quot;:&quot;bool&quot;,&quot;value&quot;:true}}}}}}"/>
          <component componentGuid="48d61cb0-11ad-44d0-8b0b-215a390d391c" componentID="Audition.Fader" id="clipGain" name="volume" powered="true">
            <parameter index="0" name="volume" parameterValue="1"/>
            <parameter index="1" name="static gain" parameterValue="1"/>
          </component>
          <component componentGuid="e1e133ca-3cbe-49d6-b68e-f69d89fe53b7" componentID="Audition.Mute" id="clipMute" name="Mute" powered="true">
            <parameter index="0" parameterValue="0"/>
            <parameter index="1" name="mute" parameterValue="0"/>
          </component>
          <component componentGuid="eb1c1c55-0497-4c10-b58e-d4c37f00f582" componentID="Audition.StereoPanner" id="clipPan" name="StereoPanner" powered="true">
            <parameter index="0" name="Pan" parameterValue="0"/>
          </component>
          <fadeIn crossFadeLinkType="linkedAsymmetric" endPoint="11025" shape="19" startPoint="0" type="log"/>
          <fadeOut crossFadeLinkType="linkedAsymmetric" endPoint="120202" shape="19" startPoint="109177" type="log"/>
          <editParameter parameterIndex="0" slotIndex="4294967280"/>
          <editParameter parameterIndex="0" slotIndex="4294967281"/>
          <channelMap>
            <channel index="0" sourceIndex="0"/>
          </channelMap>
        </audioClip>
        <audioClip clipAutoCrossfade="true" crossFadeHeadClipID="-1" crossFadeTailClipID="-1" endPoint="86095847" fileID="1" hue="-1" id="48" lockedInTime="false" looped="false" name="Emily" offline="false" select="false" sourceInPoint="97609667" sourceOutPoint="97671957" startPoint="86033557" zOrder="50">
          <properties properties="{&quot;BasicAdjustmentsProperty&quot;:{&quot;type&quot;:&quot;tree::any&quot;,&quot;value&quot;:{&quot;AdjustmentMode&quot;:{&quot;type&quot;:&quot;UTF8String&quot;,&quot;value&quot;:&quot;dialog&quot;},&quot;ClaritySection&quot;:{&quot;type&quot;:&quot;tree::any&quot;,&quot;value&quot;:{&quot;Dynamics&quot;:{&quot;type&quot;:&quot;tree::any&quot;,&quot;value&quot;:{&quot;2&quot;:{&quot;type&quot;:&quot;tree::any&quot;,&quot;value&quot;:{&quot;Value&quot;:{&quot;type&quot;:&quot;float&quot;,&quot;value&quot;:3}}}}},&quot;Enabled&quot;:{&quot;type&quot;:&quot;bool&quot;,&quot;value&quot;:true}}},&quot;ClipType&quot;:{&quot;type&quot;:&quot;std::int32_t&quot;,&quot;value&quot;:1},&quot;EnhanceSpeechSection&quot;:{&quot;type&quot;:&quot;tree::any&quot;,&quot;value&quot;:{&quot;Enabled&quot;:{&quot;type&quot;:&quot;bool&quot;,&quot;value&quot;:true}}},&quot;PresetGuid&quot;:{&quot;type&quot;:&quot;UTF8String&quot;,&quot;value&quot;:&quot;bb717b4a-c0b1-4def-9040-3fb8e83b8a91&quot;},&quot;RestorationSection&quot;:{&quot;type&quot;:&quot;tree::any&quot;,&quot;value&quot;:{&quot;Enabled&quot;:{&quot;type&quot;:&quot;bool&quot;,&quot;value&quot;:true},&quot;ReduceHum&quot;:{&quot;type&quot;:&quot;tree::any&quot;,&quot;value&quot;:{&quot;4&quot;:{&quot;type&quot;:&quot;tree::any&quot;,&quot;value&quot;:{&quot;Value&quot;:{&quot;type&quot;:&quot;float&quot;,&quot;value&quot;:7.143000602722168}}},&quot;9&quot;:{&quot;type&quot;:&quot;tree::any&quot;,&quot;value&quot;:{&quot;Value&quot;:{&quot;type&quot;:&quot;float&quot;,&quot;value&quot;:60}}}}}}},&quot;SoundEffectsSection&quot;:{&quot;type&quot;:&quot;tree::any&quot;,&quot;value&quot;:{&quot;Enabled&quot;:{&quot;type&quot;:&quot;bool&quot;,&quot;value&quot;:true},&quot;Reverb&quot;:{&quot;type&quot;:&quot;tree::any&quot;,&quot;value&quot;:{&quot;3&quot;:{&quot;type&quot;:&quot;tree::any&quot;,&quot;value&quot;:{&quot;Value&quot;:{&quot;type&quot;:&quot;float&quot;,&quot;value&quot;:2}}}}}}},&quot;VolumeSection&quot;:{&quot;type&quot;:&quot;tree::any&quot;,&quot;value&quot;:{&quot;Enabled&quot;:{&quot;type&quot;:&quot;bool&quot;,&quot;value&quot;:true}}}}}}"/>
          <component componentGuid="a6f4d80a-f169-4410-8bc5-8ee5a9ceabe2" componentID="Audition.Fader" id="clipGain" name="volume" powered="true">
            <parameter index="0" name="volume" parameterValue="1"/>
            <parameter index="1" name="static gain" parameterValue="1"/>
          </component>
          <component componentGuid="510cc140-f4d6-4ecd-9129-b807eeeb8a99" componentID="Audition.Mute" id="clipMute" name="Mute" powered="true">
            <parameter index="0" parameterValue="0"/>
            <parameter index="1" name="mute" parameterValue="0"/>
          </component>
          <component componentGuid="c5c093d3-7649-4d7d-9189-91f0424d12ec" componentID="Audition.StereoPanner" id="clipPan" name="StereoPanner" powered="true">
            <parameter index="0" name="Pan" parameterValue="0"/>
          </component>
          <fadeIn crossFadeLinkType="linkedAsymmetric" endPoint="11025" shape="19" startPoint="0" type="log"/>
          <fadeOut crossFadeLinkType="linkedAsymmetric" endPoint="62290" shape="19" startPoint="51265" type="log"/>
          <editParameter parameterIndex="0" slotIndex="4294967280"/>
          <editParameter parameterIndex="0" slotIndex="4294967281"/>
          <channelMap>
            <channel index="0" sourceIndex="0"/>
          </channelMap>
        </audioClip>
        <audioClip clipAutoCrossfade="true" crossFadeHeadClipID="-1" crossFadeTailClipID="-1" endPoint="86200587" fileID="1" hue="-1" id="49" lockedInTime="false" looped="false" name="Emily" offline="false" select="false" sourceInPoint="97718598" sourceOutPoint="97776699" startPoint="86142486" zOrder="51">
          <properties properties="{&quot;BasicAdjustmentsProperty&quot;:{&quot;type&quot;:&quot;tree::any&quot;,&quot;value&quot;:{&quot;AdjustmentMode&quot;:{&quot;type&quot;:&quot;UTF8String&quot;,&quot;value&quot;:&quot;dialog&quot;},&quot;ClaritySection&quot;:{&quot;type&quot;:&quot;tree::any&quot;,&quot;value&quot;:{&quot;Dynamics&quot;:{&quot;type&quot;:&quot;tree::any&quot;,&quot;value&quot;:{&quot;2&quot;:{&quot;type&quot;:&quot;tree::any&quot;,&quot;value&quot;:{&quot;Value&quot;:{&quot;type&quot;:&quot;float&quot;,&quot;value&quot;:3}}}}},&quot;Enabled&quot;:{&quot;type&quot;:&quot;bool&quot;,&quot;value&quot;:true}}},&quot;ClipType&quot;:{&quot;type&quot;:&quot;std::int32_t&quot;,&quot;value&quot;:1},&quot;EnhanceSpeechSection&quot;:{&quot;type&quot;:&quot;tree::any&quot;,&quot;value&quot;:{&quot;Enabled&quot;:{&quot;type&quot;:&quot;bool&quot;,&quot;value&quot;:true}}},&quot;PresetGuid&quot;:{&quot;type&quot;:&quot;UTF8String&quot;,&quot;value&quot;:&quot;bb717b4a-c0b1-4def-9040-3fb8e83b8a91&quot;},&quot;RestorationSection&quot;:{&quot;type&quot;:&quot;tree::any&quot;,&quot;value&quot;:{&quot;Enabled&quot;:{&quot;type&quot;:&quot;bool&quot;,&quot;value&quot;:true},&quot;ReduceHum&quot;:{&quot;type&quot;:&quot;tree::any&quot;,&quot;value&quot;:{&quot;4&quot;:{&quot;type&quot;:&quot;tree::any&quot;,&quot;value&quot;:{&quot;Value&quot;:{&quot;type&quot;:&quot;float&quot;,&quot;value&quot;:7.143000602722168}}},&quot;9&quot;:{&quot;type&quot;:&quot;tree::any&quot;,&quot;value&quot;:{&quot;Value&quot;:{&quot;type&quot;:&quot;float&quot;,&quot;value&quot;:60}}}}}}},&quot;SoundEffectsSection&quot;:{&quot;type&quot;:&quot;tree::any&quot;,&quot;value&quot;:{&quot;Enabled&quot;:{&quot;type&quot;:&quot;bool&quot;,&quot;value&quot;:true},&quot;Reverb&quot;:{&quot;type&quot;:&quot;tree::any&quot;,&quot;value&quot;:{&quot;3&quot;:{&quot;type&quot;:&quot;tree::any&quot;,&quot;value&quot;:{&quot;Value&quot;:{&quot;type&quot;:&quot;float&quot;,&quot;value&quot;:2}}}}}}},&quot;VolumeSection&quot;:{&quot;type&quot;:&quot;tree::any&quot;,&quot;value&quot;:{&quot;Enabled&quot;:{&quot;type&quot;:&quot;bool&quot;,&quot;value&quot;:true}}}}}}"/>
          <component componentGuid="fe6d8ea8-c902-4f04-b715-54451522b926" componentID="Audition.Fader" id="clipGain" name="volume" powered="true">
            <parameter index="0" name="volume" parameterValue="1"/>
            <parameter index="1" name="static gain" parameterValue="1"/>
          </component>
          <component componentGuid="f3f22290-25e5-4448-9cf9-1cf65430b1ed" componentID="Audition.Mute" id="clipMute" name="Mute" powered="true">
            <parameter index="0" parameterValue="0"/>
            <parameter index="1" name="mute" parameterValue="0"/>
          </component>
          <component componentGuid="4fcaf099-6ef4-4f7c-b1de-9e10bd014897" componentID="Audition.StereoPanner" id="clipPan" name="StereoPanner" powered="true">
            <parameter index="0" name="Pan" parameterValue="0"/>
          </component>
          <fadeIn crossFadeLinkType="linkedAsymmetric" endPoint="11025" shape="19" startPoint="0" type="log"/>
          <fadeOut crossFadeLinkType="linkedAsymmetric" endPoint="58101" shape="19" startPoint="47076" type="log"/>
          <editParameter parameterIndex="0" slotIndex="4294967280"/>
          <editParameter parameterIndex="0" slotIndex="4294967281"/>
          <channelMap>
            <channel index="0" sourceIndex="0"/>
          </channelMap>
        </audioClip>
        <audioClip clipAutoCrossfade="true" crossFadeHeadClipID="-1" crossFadeTailClipID="-1" endPoint="86469102" fileID="1" hue="-1" id="50" lockedInTime="false" looped="false" name="Emily" offline="false" select="false" sourceInPoint="97973992" sourceOutPoint="98045213" startPoint="86397881" zOrder="48">
          <properties properties="{&quot;BasicAdjustmentsProperty&quot;:{&quot;type&quot;:&quot;tree::any&quot;,&quot;value&quot;:{&quot;AdjustmentMode&quot;:{&quot;type&quot;:&quot;UTF8String&quot;,&quot;value&quot;:&quot;dialog&quot;},&quot;ClaritySection&quot;:{&quot;type&quot;:&quot;tree::any&quot;,&quot;value&quot;:{&quot;Dynamics&quot;:{&quot;type&quot;:&quot;tree::any&quot;,&quot;value&quot;:{&quot;2&quot;:{&quot;type&quot;:&quot;tree::any&quot;,&quot;value&quot;:{&quot;Value&quot;:{&quot;type&quot;:&quot;float&quot;,&quot;value&quot;:3}}}}},&quot;Enabled&quot;:{&quot;type&quot;:&quot;bool&quot;,&quot;value&quot;:true}}},&quot;ClipType&quot;:{&quot;type&quot;:&quot;std::int32_t&quot;,&quot;value&quot;:1},&quot;EnhanceSpeechSection&quot;:{&quot;type&quot;:&quot;tree::any&quot;,&quot;value&quot;:{&quot;Enabled&quot;:{&quot;type&quot;:&quot;bool&quot;,&quot;value&quot;:true}}},&quot;PresetGuid&quot;:{&quot;type&quot;:&quot;UTF8String&quot;,&quot;value&quot;:&quot;bb717b4a-c0b1-4def-9040-3fb8e83b8a91&quot;},&quot;RestorationSection&quot;:{&quot;type&quot;:&quot;tree::any&quot;,&quot;value&quot;:{&quot;Enabled&quot;:{&quot;type&quot;:&quot;bool&quot;,&quot;value&quot;:true},&quot;ReduceHum&quot;:{&quot;type&quot;:&quot;tree::any&quot;,&quot;value&quot;:{&quot;4&quot;:{&quot;type&quot;:&quot;tree::any&quot;,&quot;value&quot;:{&quot;Value&quot;:{&quot;type&quot;:&quot;float&quot;,&quot;value&quot;:7.143000602722168}}},&quot;9&quot;:{&quot;type&quot;:&quot;tree::any&quot;,&quot;value&quot;:{&quot;Value&quot;:{&quot;type&quot;:&quot;float&quot;,&quot;value&quot;:60}}}}}}},&quot;SoundEffectsSection&quot;:{&quot;type&quot;:&quot;tree::any&quot;,&quot;value&quot;:{&quot;Enabled&quot;:{&quot;type&quot;:&quot;bool&quot;,&quot;value&quot;:true},&quot;Reverb&quot;:{&quot;type&quot;:&quot;tree::any&quot;,&quot;value&quot;:{&quot;3&quot;:{&quot;type&quot;:&quot;tree::any&quot;,&quot;value&quot;:{&quot;Value&quot;:{&quot;type&quot;:&quot;float&quot;,&quot;value&quot;:2}}}}}}},&quot;VolumeSection&quot;:{&quot;type&quot;:&quot;tree::any&quot;,&quot;value&quot;:{&quot;Enabled&quot;:{&quot;type&quot;:&quot;bool&quot;,&quot;value&quot;:true}}}}}}"/>
          <component componentGuid="cc42938d-ae9b-4f69-bb10-975b9cabb7a5" componentID="Audition.Fader" id="clipGain" name="volume" powered="true">
            <parameter index="0" name="volume" parameterValue="1"/>
            <parameter index="1" name="static gain" parameterValue="1"/>
          </component>
          <component componentGuid="2664ce31-6a31-4a58-b1fa-bfb7be205244" componentID="Audition.Mute" id="clipMute" name="Mute" powered="true">
            <parameter index="0" parameterValue="0"/>
            <parameter index="1" name="mute" parameterValue="0"/>
          </component>
          <component componentGuid="1ac39eb6-19ac-449a-addc-8ceb4ff2aff6" componentID="Audition.StereoPanner" id="clipPan" name="StereoPanner" powered="true">
            <parameter index="0" name="Pan" parameterValue="0"/>
          </component>
          <fadeIn crossFadeLinkType="linkedAsymmetric" endPoint="11025" shape="19" startPoint="0" type="log"/>
          <fadeOut crossFadeLinkType="linkedAsymmetric" endPoint="71221" shape="19" startPoint="60196" type="log"/>
          <editParameter parameterIndex="0" slotIndex="4294967280"/>
          <editParameter parameterIndex="0" slotIndex="4294967281"/>
          <channelMap>
            <channel index="0" sourceIndex="0"/>
          </channelMap>
        </audioClip>
        <audioClip clipAutoCrossfade="true" crossFadeHeadClipID="-1" crossFadeTailClipID="-1" endPoint="88406489" fileID="1" hue="-1" id="51" lockedInTime="false" looped="false" name="Emily" offline="false" select="false" sourceInPoint="99834369" sourceOutPoint="99981960" startPoint="88258898" zOrder="47">
          <properties properties="{&quot;BasicAdjustmentsProperty&quot;:{&quot;type&quot;:&quot;tree::any&quot;,&quot;value&quot;:{&quot;AdjustmentMode&quot;:{&quot;type&quot;:&quot;UTF8String&quot;,&quot;value&quot;:&quot;dialog&quot;},&quot;ClaritySection&quot;:{&quot;type&quot;:&quot;tree::any&quot;,&quot;value&quot;:{&quot;Dynamics&quot;:{&quot;type&quot;:&quot;tree::any&quot;,&quot;value&quot;:{&quot;2&quot;:{&quot;type&quot;:&quot;tree::any&quot;,&quot;value&quot;:{&quot;Value&quot;:{&quot;type&quot;:&quot;float&quot;,&quot;value&quot;:3}}}}},&quot;Enabled&quot;:{&quot;type&quot;:&quot;bool&quot;,&quot;value&quot;:true}}},&quot;ClipType&quot;:{&quot;type&quot;:&quot;std::int32_t&quot;,&quot;value&quot;:1},&quot;EnhanceSpeechSection&quot;:{&quot;type&quot;:&quot;tree::any&quot;,&quot;value&quot;:{&quot;Enabled&quot;:{&quot;type&quot;:&quot;bool&quot;,&quot;value&quot;:true}}},&quot;PresetGuid&quot;:{&quot;type&quot;:&quot;UTF8String&quot;,&quot;value&quot;:&quot;bb717b4a-c0b1-4def-9040-3fb8e83b8a91&quot;},&quot;RestorationSection&quot;:{&quot;type&quot;:&quot;tree::any&quot;,&quot;value&quot;:{&quot;Enabled&quot;:{&quot;type&quot;:&quot;bool&quot;,&quot;value&quot;:true},&quot;ReduceHum&quot;:{&quot;type&quot;:&quot;tree::any&quot;,&quot;value&quot;:{&quot;4&quot;:{&quot;type&quot;:&quot;tree::any&quot;,&quot;value&quot;:{&quot;Value&quot;:{&quot;type&quot;:&quot;float&quot;,&quot;value&quot;:7.143000602722168}}},&quot;9&quot;:{&quot;type&quot;:&quot;tree::any&quot;,&quot;value&quot;:{&quot;Value&quot;:{&quot;type&quot;:&quot;float&quot;,&quot;value&quot;:60}}}}}}},&quot;SoundEffectsSection&quot;:{&quot;type&quot;:&quot;tree::any&quot;,&quot;value&quot;:{&quot;Enabled&quot;:{&quot;type&quot;:&quot;bool&quot;,&quot;value&quot;:true},&quot;Reverb&quot;:{&quot;type&quot;:&quot;tree::any&quot;,&quot;value&quot;:{&quot;3&quot;:{&quot;type&quot;:&quot;tree::any&quot;,&quot;value&quot;:{&quot;Value&quot;:{&quot;type&quot;:&quot;float&quot;,&quot;value&quot;:2}}}}}}},&quot;VolumeSection&quot;:{&quot;type&quot;:&quot;tree::any&quot;,&quot;value&quot;:{&quot;Enabled&quot;:{&quot;type&quot;:&quot;bool&quot;,&quot;value&quot;:true}}}}}}"/>
          <component componentGuid="b56812b5-f6dd-484a-8a13-1dfe4c742627" componentID="Audition.Fader" id="clipGain" name="volume" powered="true">
            <parameter index="0" name="volume" parameterValue="1"/>
            <parameter index="1" name="static gain" parameterValue="1"/>
          </component>
          <component componentGuid="e6ded54e-6dee-4944-8a3f-7da2a4e7855b" componentID="Audition.Mute" id="clipMute" name="Mute" powered="true">
            <parameter index="0" parameterValue="0"/>
            <parameter index="1" name="mute" parameterValue="0"/>
          </component>
          <component componentGuid="02243fbf-9765-4f4d-b8f0-3eeb5a26ba24" componentID="Audition.StereoPanner" id="clipPan" name="StereoPanner" powered="true">
            <parameter index="0" name="Pan" parameterValue="0"/>
          </component>
          <fadeIn crossFadeLinkType="linkedAsymmetric" endPoint="11025" shape="19" startPoint="0" type="log"/>
          <fadeOut crossFadeLinkType="linkedAsymmetric" endPoint="147591" shape="19" startPoint="136566" type="log"/>
          <editParameter parameterIndex="0" slotIndex="4294967280"/>
          <editParameter parameterIndex="0" slotIndex="4294967281"/>
          <channelMap>
            <channel index="0" sourceIndex="0"/>
          </channelMap>
        </audioClip>
        <audioClip clipAutoCrossfade="true" crossFadeHeadClipID="-1" crossFadeTailClipID="-1" endPoint="89759565" fileID="1" hue="-1" id="52" lockedInTime="false" looped="false" name="Emily" offline="false" select="false" sourceInPoint="101272604" sourceOutPoint="101335038" startPoint="89697131" zOrder="52">
          <properties properties="{&quot;BasicAdjustmentsProperty&quot;:{&quot;type&quot;:&quot;tree::any&quot;,&quot;value&quot;:{&quot;AdjustmentMode&quot;:{&quot;type&quot;:&quot;UTF8String&quot;,&quot;value&quot;:&quot;dialog&quot;},&quot;ClaritySection&quot;:{&quot;type&quot;:&quot;tree::any&quot;,&quot;value&quot;:{&quot;Dynamics&quot;:{&quot;type&quot;:&quot;tree::any&quot;,&quot;value&quot;:{&quot;2&quot;:{&quot;type&quot;:&quot;tree::any&quot;,&quot;value&quot;:{&quot;Value&quot;:{&quot;type&quot;:&quot;float&quot;,&quot;value&quot;:3}}}}},&quot;Enabled&quot;:{&quot;type&quot;:&quot;bool&quot;,&quot;value&quot;:true}}},&quot;ClipType&quot;:{&quot;type&quot;:&quot;std::int32_t&quot;,&quot;value&quot;:1},&quot;EnhanceSpeechSection&quot;:{&quot;type&quot;:&quot;tree::any&quot;,&quot;value&quot;:{&quot;Enabled&quot;:{&quot;type&quot;:&quot;bool&quot;,&quot;value&quot;:true}}},&quot;PresetGuid&quot;:{&quot;type&quot;:&quot;UTF8String&quot;,&quot;value&quot;:&quot;bb717b4a-c0b1-4def-9040-3fb8e83b8a91&quot;},&quot;RestorationSection&quot;:{&quot;type&quot;:&quot;tree::any&quot;,&quot;value&quot;:{&quot;Enabled&quot;:{&quot;type&quot;:&quot;bool&quot;,&quot;value&quot;:true},&quot;ReduceHum&quot;:{&quot;type&quot;:&quot;tree::any&quot;,&quot;value&quot;:{&quot;4&quot;:{&quot;type&quot;:&quot;tree::any&quot;,&quot;value&quot;:{&quot;Value&quot;:{&quot;type&quot;:&quot;float&quot;,&quot;value&quot;:7.143000602722168}}},&quot;9&quot;:{&quot;type&quot;:&quot;tree::any&quot;,&quot;value&quot;:{&quot;Value&quot;:{&quot;type&quot;:&quot;float&quot;,&quot;value&quot;:60}}}}}}},&quot;SoundEffectsSection&quot;:{&quot;type&quot;:&quot;tree::any&quot;,&quot;value&quot;:{&quot;Enabled&quot;:{&quot;type&quot;:&quot;bool&quot;,&quot;value&quot;:true},&quot;Reverb&quot;:{&quot;type&quot;:&quot;tree::any&quot;,&quot;value&quot;:{&quot;3&quot;:{&quot;type&quot;:&quot;tree::any&quot;,&quot;value&quot;:{&quot;Value&quot;:{&quot;type&quot;:&quot;float&quot;,&quot;value&quot;:2}}}}}}},&quot;VolumeSection&quot;:{&quot;type&quot;:&quot;tree::any&quot;,&quot;value&quot;:{&quot;Enabled&quot;:{&quot;type&quot;:&quot;bool&quot;,&quot;value&quot;:true}}}}}}"/>
          <component componentGuid="e7b4b6f4-1b1b-4b36-9ef8-e4b2ff78f497" componentID="Audition.Fader" id="clipGain" name="volume" powered="true">
            <parameter index="0" name="volume" parameterValue="1"/>
            <parameter index="1" name="static gain" parameterValue="1"/>
          </component>
          <component componentGuid="b6131701-1b13-44b7-ac1b-4e894b9839bd" componentID="Audition.Mute" id="clipMute" name="Mute" powered="true">
            <parameter index="0" parameterValue="0"/>
            <parameter index="1" name="mute" parameterValue="0"/>
          </component>
          <component componentGuid="70530edc-4fdf-4f98-b800-30096a51ef50" componentID="Audition.StereoPanner" id="clipPan" name="StereoPanner" powered="true">
            <parameter index="0" name="Pan" parameterValue="0"/>
          </component>
          <fadeIn crossFadeLinkType="linkedAsymmetric" endPoint="11025" shape="19" startPoint="0" type="log"/>
          <fadeOut crossFadeLinkType="linkedAsymmetric" endPoint="62434" shape="19" startPoint="51409" type="log"/>
          <editParameter parameterIndex="0" slotIndex="4294967280"/>
          <editParameter parameterIndex="0" slotIndex="4294967281"/>
          <channelMap>
            <channel index="0" sourceIndex="0"/>
          </channelMap>
        </audioClip>
        <audioClip clipAutoCrossfade="true" crossFadeHeadClipID="-1" crossFadeTailClipID="-1" endPoint="91367534" fileID="1" hue="-1" id="53" lockedInTime="false" looped="false" name="Emily" offline="false" select="false" sourceInPoint="102846886" sourceOutPoint="102917217" startPoint="91297203" zOrder="53">
          <properties properties="{&quot;BasicAdjustmentsProperty&quot;:{&quot;type&quot;:&quot;tree::any&quot;,&quot;value&quot;:{&quot;AdjustmentMode&quot;:{&quot;type&quot;:&quot;UTF8String&quot;,&quot;value&quot;:&quot;dialog&quot;},&quot;ClaritySection&quot;:{&quot;type&quot;:&quot;tree::any&quot;,&quot;value&quot;:{&quot;Dynamics&quot;:{&quot;type&quot;:&quot;tree::any&quot;,&quot;value&quot;:{&quot;2&quot;:{&quot;type&quot;:&quot;tree::any&quot;,&quot;value&quot;:{&quot;Value&quot;:{&quot;type&quot;:&quot;float&quot;,&quot;value&quot;:3}}}}},&quot;Enabled&quot;:{&quot;type&quot;:&quot;bool&quot;,&quot;value&quot;:true}}},&quot;ClipType&quot;:{&quot;type&quot;:&quot;std::int32_t&quot;,&quot;value&quot;:1},&quot;EnhanceSpeechSection&quot;:{&quot;type&quot;:&quot;tree::any&quot;,&quot;value&quot;:{&quot;Enabled&quot;:{&quot;type&quot;:&quot;bool&quot;,&quot;value&quot;:true}}},&quot;PresetGuid&quot;:{&quot;type&quot;:&quot;UTF8String&quot;,&quot;value&quot;:&quot;bb717b4a-c0b1-4def-9040-3fb8e83b8a91&quot;},&quot;RestorationSection&quot;:{&quot;type&quot;:&quot;tree::any&quot;,&quot;value&quot;:{&quot;Enabled&quot;:{&quot;type&quot;:&quot;bool&quot;,&quot;value&quot;:true},&quot;ReduceHum&quot;:{&quot;type&quot;:&quot;tree::any&quot;,&quot;value&quot;:{&quot;4&quot;:{&quot;type&quot;:&quot;tree::any&quot;,&quot;value&quot;:{&quot;Value&quot;:{&quot;type&quot;:&quot;float&quot;,&quot;value&quot;:7.143000602722168}}},&quot;9&quot;:{&quot;type&quot;:&quot;tree::any&quot;,&quot;value&quot;:{&quot;Value&quot;:{&quot;type&quot;:&quot;float&quot;,&quot;value&quot;:60}}}}}}},&quot;SoundEffectsSection&quot;:{&quot;type&quot;:&quot;tree::any&quot;,&quot;value&quot;:{&quot;Enabled&quot;:{&quot;type&quot;:&quot;bool&quot;,&quot;value&quot;:true},&quot;Reverb&quot;:{&quot;type&quot;:&quot;tree::any&quot;,&quot;value&quot;:{&quot;3&quot;:{&quot;type&quot;:&quot;tree::any&quot;,&quot;value&quot;:{&quot;Value&quot;:{&quot;type&quot;:&quot;float&quot;,&quot;value&quot;:2}}}}}}},&quot;VolumeSection&quot;:{&quot;type&quot;:&quot;tree::any&quot;,&quot;value&quot;:{&quot;Enabled&quot;:{&quot;type&quot;:&quot;bool&quot;,&quot;value&quot;:true}}}}}}"/>
          <component componentGuid="17690ac0-186d-4f17-ac5a-37393c97fc67" componentID="Audition.Fader" id="clipGain" name="volume" powered="true">
            <parameter index="0" name="volume" parameterValue="1"/>
            <parameter index="1" name="static gain" parameterValue="1"/>
          </component>
          <component componentGuid="61eb9990-beec-41ae-80a6-a03c68fae015" componentID="Audition.Mute" id="clipMute" name="Mute" powered="true">
            <parameter index="0" parameterValue="0"/>
            <parameter index="1" name="mute" parameterValue="0"/>
          </component>
          <component componentGuid="2fe090a2-249b-4cb5-b68d-9f707a5624da" componentID="Audition.StereoPanner" id="clipPan" name="StereoPanner" powered="true">
            <parameter index="0" name="Pan" parameterValue="0"/>
          </component>
          <fadeIn crossFadeLinkType="linkedAsymmetric" endPoint="0" shape="19" startPoint="0" type="log"/>
          <fadeOut crossFadeLinkType="linkedAsymmetric" endPoint="70331" shape="19" startPoint="59306" type="log"/>
          <editParameter parameterIndex="0" slotIndex="4294967280"/>
          <editParameter parameterIndex="0" slotIndex="4294967281"/>
          <channelMap>
            <channel index="0" sourceIndex="0"/>
          </channelMap>
        </audioClip>
        <audioClip clipAutoCrossfade="true" crossFadeHeadClipID="-1" crossFadeTailClipID="-1" endPoint="91528949" fileID="1" hue="-1" id="54" lockedInTime="false" looped="false" name="Emily" offline="false" select="false" sourceInPoint="102965067" sourceOutPoint="103078633" startPoint="91415383" zOrder="54">
          <properties properties="{&quot;BasicAdjustmentsProperty&quot;:{&quot;type&quot;:&quot;tree::any&quot;,&quot;value&quot;:{&quot;AdjustmentMode&quot;:{&quot;type&quot;:&quot;UTF8String&quot;,&quot;value&quot;:&quot;dialog&quot;},&quot;ClaritySection&quot;:{&quot;type&quot;:&quot;tree::any&quot;,&quot;value&quot;:{&quot;Dynamics&quot;:{&quot;type&quot;:&quot;tree::any&quot;,&quot;value&quot;:{&quot;2&quot;:{&quot;type&quot;:&quot;tree::any&quot;,&quot;value&quot;:{&quot;Value&quot;:{&quot;type&quot;:&quot;float&quot;,&quot;value&quot;:3}}}}},&quot;Enabled&quot;:{&quot;type&quot;:&quot;bool&quot;,&quot;value&quot;:true}}},&quot;ClipType&quot;:{&quot;type&quot;:&quot;std::int32_t&quot;,&quot;value&quot;:1},&quot;EnhanceSpeechSection&quot;:{&quot;type&quot;:&quot;tree::any&quot;,&quot;value&quot;:{&quot;Enabled&quot;:{&quot;type&quot;:&quot;bool&quot;,&quot;value&quot;:true}}},&quot;PresetGuid&quot;:{&quot;type&quot;:&quot;UTF8String&quot;,&quot;value&quot;:&quot;bb717b4a-c0b1-4def-9040-3fb8e83b8a91&quot;},&quot;RestorationSection&quot;:{&quot;type&quot;:&quot;tree::any&quot;,&quot;value&quot;:{&quot;Enabled&quot;:{&quot;type&quot;:&quot;bool&quot;,&quot;value&quot;:true},&quot;ReduceHum&quot;:{&quot;type&quot;:&quot;tree::any&quot;,&quot;value&quot;:{&quot;4&quot;:{&quot;type&quot;:&quot;tree::any&quot;,&quot;value&quot;:{&quot;Value&quot;:{&quot;type&quot;:&quot;float&quot;,&quot;value&quot;:7.143000602722168}}},&quot;9&quot;:{&quot;type&quot;:&quot;tree::any&quot;,&quot;value&quot;:{&quot;Value&quot;:{&quot;type&quot;:&quot;float&quot;,&quot;value&quot;:60}}}}}}},&quot;SoundEffectsSection&quot;:{&quot;type&quot;:&quot;tree::any&quot;,&quot;value&quot;:{&quot;Enabled&quot;:{&quot;type&quot;:&quot;bool&quot;,&quot;value&quot;:true},&quot;Reverb&quot;:{&quot;type&quot;:&quot;tree::any&quot;,&quot;value&quot;:{&quot;3&quot;:{&quot;type&quot;:&quot;tree::any&quot;,&quot;value&quot;:{&quot;Value&quot;:{&quot;type&quot;:&quot;float&quot;,&quot;value&quot;:2}}}}}}},&quot;VolumeSection&quot;:{&quot;type&quot;:&quot;tree::any&quot;,&quot;value&quot;:{&quot;Enabled&quot;:{&quot;type&quot;:&quot;bool&quot;,&quot;value&quot;:true}}}}}}"/>
          <component componentGuid="215c4d08-7cdc-4a0e-af9d-4a4f24be110f" componentID="Audition.Fader" id="clipGain" name="volume" powered="true">
            <parameter index="0" name="volume" parameterValue="1"/>
            <parameter index="1" name="static gain" parameterValue="1"/>
          </component>
          <component componentGuid="fa7ff1bd-e404-4aeb-84ae-2671e21e9048" componentID="Audition.Mute" id="clipMute" name="Mute" powered="true">
            <parameter index="0" parameterValue="0"/>
            <parameter index="1" name="mute" parameterValue="0"/>
          </component>
          <component componentGuid="0860d902-75a1-4925-ab5b-bf2022f2ba75" componentID="Audition.StereoPanner" id="clipPan" name="StereoPanner" powered="true">
            <parameter index="0" name="Pan" parameterValue="0"/>
          </component>
          <fadeIn crossFadeLinkType="linkedAsymmetric" endPoint="11025" shape="19" startPoint="0" type="log"/>
          <fadeOut crossFadeLinkType="linkedAsymmetric" endPoint="113566" shape="19" startPoint="102541" type="log"/>
          <editParameter parameterIndex="0" slotIndex="4294967280"/>
          <editParameter parameterIndex="0" slotIndex="4294967281"/>
          <channelMap>
            <channel index="0" sourceIndex="0"/>
          </channelMap>
        </audioClip>
        <audioClip clipAutoCrossfade="true" crossFadeHeadClipID="-1" crossFadeTailClipID="-1" endPoint="92556843" fileID="1" hue="-1" id="55" lockedInTime="false" looped="false" name="Emily" offline="false" select="false" sourceInPoint="104053957" sourceOutPoint="104106528" startPoint="92504272" zOrder="55">
          <properties properties="{&quot;BasicAdjustmentsProperty&quot;:{&quot;type&quot;:&quot;tree::any&quot;,&quot;value&quot;:{&quot;AdjustmentMode&quot;:{&quot;type&quot;:&quot;UTF8String&quot;,&quot;value&quot;:&quot;dialog&quot;},&quot;ClaritySection&quot;:{&quot;type&quot;:&quot;tree::any&quot;,&quot;value&quot;:{&quot;Dynamics&quot;:{&quot;type&quot;:&quot;tree::any&quot;,&quot;value&quot;:{&quot;2&quot;:{&quot;type&quot;:&quot;tree::any&quot;,&quot;value&quot;:{&quot;Value&quot;:{&quot;type&quot;:&quot;float&quot;,&quot;value&quot;:3}}}}},&quot;Enabled&quot;:{&quot;type&quot;:&quot;bool&quot;,&quot;value&quot;:true}}},&quot;ClipType&quot;:{&quot;type&quot;:&quot;std::int32_t&quot;,&quot;value&quot;:1},&quot;EnhanceSpeechSection&quot;:{&quot;type&quot;:&quot;tree::any&quot;,&quot;value&quot;:{&quot;Enabled&quot;:{&quot;type&quot;:&quot;bool&quot;,&quot;value&quot;:true}}},&quot;PresetGuid&quot;:{&quot;type&quot;:&quot;UTF8String&quot;,&quot;value&quot;:&quot;bb717b4a-c0b1-4def-9040-3fb8e83b8a91&quot;},&quot;RestorationSection&quot;:{&quot;type&quot;:&quot;tree::any&quot;,&quot;value&quot;:{&quot;Enabled&quot;:{&quot;type&quot;:&quot;bool&quot;,&quot;value&quot;:true},&quot;ReduceHum&quot;:{&quot;type&quot;:&quot;tree::any&quot;,&quot;value&quot;:{&quot;4&quot;:{&quot;type&quot;:&quot;tree::any&quot;,&quot;value&quot;:{&quot;Value&quot;:{&quot;type&quot;:&quot;float&quot;,&quot;value&quot;:7.143000602722168}}},&quot;9&quot;:{&quot;type&quot;:&quot;tree::any&quot;,&quot;value&quot;:{&quot;Value&quot;:{&quot;type&quot;:&quot;float&quot;,&quot;value&quot;:60}}}}}}},&quot;SoundEffectsSection&quot;:{&quot;type&quot;:&quot;tree::any&quot;,&quot;value&quot;:{&quot;Enabled&quot;:{&quot;type&quot;:&quot;bool&quot;,&quot;value&quot;:true},&quot;Reverb&quot;:{&quot;type&quot;:&quot;tree::any&quot;,&quot;value&quot;:{&quot;3&quot;:{&quot;type&quot;:&quot;tree::any&quot;,&quot;value&quot;:{&quot;Value&quot;:{&quot;type&quot;:&quot;float&quot;,&quot;value&quot;:2}}}}}}},&quot;VolumeSection&quot;:{&quot;type&quot;:&quot;tree::any&quot;,&quot;value&quot;:{&quot;Enabled&quot;:{&quot;type&quot;:&quot;bool&quot;,&quot;value&quot;:true}}}}}}"/>
          <component componentGuid="a1eec564-e567-46ef-8d20-35e514385909" componentID="Audition.Fader" id="clipGain" name="volume" powered="true">
            <parameter index="0" name="volume" parameterValue="1"/>
            <parameter index="1" name="static gain" parameterValue="1"/>
          </component>
          <component componentGuid="f286c657-12bc-4c80-847c-c8304c908391" componentID="Audition.Mute" id="clipMute" name="Mute" powered="true">
            <parameter index="0" parameterValue="0"/>
            <parameter index="1" name="mute" parameterValue="0"/>
          </component>
          <component componentGuid="52475367-a812-47f4-9cc5-e1c0fcf9fcbf" componentID="Audition.StereoPanner" id="clipPan" name="StereoPanner" powered="true">
            <parameter index="0" name="Pan" parameterValue="0"/>
          </component>
          <fadeIn crossFadeLinkType="linkedAsymmetric" endPoint="11025" shape="19" startPoint="0" type="log"/>
          <fadeOut crossFadeLinkType="linkedAsymmetric" endPoint="52571" shape="19" startPoint="41546" type="log"/>
          <editParameter parameterIndex="0" slotIndex="4294967280"/>
          <editParameter parameterIndex="0" slotIndex="4294967281"/>
          <channelMap>
            <channel index="0" sourceIndex="0"/>
          </channelMap>
        </audioClip>
        <audioClip clipAutoCrossfade="true" crossFadeHeadClipID="-1" crossFadeTailClipID="-1" endPoint="98123089" fileID="1" hue="-1" id="56" lockedInTime="false" looped="false" name="Emily" offline="false" select="false" sourceInPoint="109666183" sourceOutPoint="109857309" startPoint="97931963" zOrder="58">
          <properties properties="{&quot;BasicAdjustmentsProperty&quot;:{&quot;type&quot;:&quot;tree::any&quot;,&quot;value&quot;:{&quot;AdjustmentMode&quot;:{&quot;type&quot;:&quot;UTF8String&quot;,&quot;value&quot;:&quot;dialog&quot;},&quot;ClaritySection&quot;:{&quot;type&quot;:&quot;tree::any&quot;,&quot;value&quot;:{&quot;Dynamics&quot;:{&quot;type&quot;:&quot;tree::any&quot;,&quot;value&quot;:{&quot;2&quot;:{&quot;type&quot;:&quot;tree::any&quot;,&quot;value&quot;:{&quot;Value&quot;:{&quot;type&quot;:&quot;float&quot;,&quot;value&quot;:3}}}}},&quot;Enabled&quot;:{&quot;type&quot;:&quot;bool&quot;,&quot;value&quot;:true}}},&quot;ClipType&quot;:{&quot;type&quot;:&quot;std::int32_t&quot;,&quot;value&quot;:1},&quot;EnhanceSpeechSection&quot;:{&quot;type&quot;:&quot;tree::any&quot;,&quot;value&quot;:{&quot;Enabled&quot;:{&quot;type&quot;:&quot;bool&quot;,&quot;value&quot;:true}}},&quot;PresetGuid&quot;:{&quot;type&quot;:&quot;UTF8String&quot;,&quot;value&quot;:&quot;bb717b4a-c0b1-4def-9040-3fb8e83b8a91&quot;},&quot;RestorationSection&quot;:{&quot;type&quot;:&quot;tree::any&quot;,&quot;value&quot;:{&quot;Enabled&quot;:{&quot;type&quot;:&quot;bool&quot;,&quot;value&quot;:true},&quot;ReduceHum&quot;:{&quot;type&quot;:&quot;tree::any&quot;,&quot;value&quot;:{&quot;4&quot;:{&quot;type&quot;:&quot;tree::any&quot;,&quot;value&quot;:{&quot;Value&quot;:{&quot;type&quot;:&quot;float&quot;,&quot;value&quot;:7.143000602722168}}},&quot;9&quot;:{&quot;type&quot;:&quot;tree::any&quot;,&quot;value&quot;:{&quot;Value&quot;:{&quot;type&quot;:&quot;float&quot;,&quot;value&quot;:60}}}}}}},&quot;SoundEffectsSection&quot;:{&quot;type&quot;:&quot;tree::any&quot;,&quot;value&quot;:{&quot;Enabled&quot;:{&quot;type&quot;:&quot;bool&quot;,&quot;value&quot;:true},&quot;Reverb&quot;:{&quot;type&quot;:&quot;tree::any&quot;,&quot;value&quot;:{&quot;3&quot;:{&quot;type&quot;:&quot;tree::any&quot;,&quot;value&quot;:{&quot;Value&quot;:{&quot;type&quot;:&quot;float&quot;,&quot;value&quot;:2}}}}}}},&quot;VolumeSection&quot;:{&quot;type&quot;:&quot;tree::any&quot;,&quot;value&quot;:{&quot;Enabled&quot;:{&quot;type&quot;:&quot;bool&quot;,&quot;value&quot;:true}}}}}}"/>
          <component componentGuid="ca2f846f-cb43-4a20-a62e-eeaaa863c0e0" componentID="Audition.Fader" id="clipGain" name="volume" powered="true">
            <parameter index="0" name="volume" parameterValue="1"/>
            <parameter index="1" name="static gain" parameterValue="1"/>
          </component>
          <component componentGuid="0eec1ebf-2883-46e2-82bd-b60584159564" componentID="Audition.Mute" id="clipMute" name="Mute" powered="true">
            <parameter index="0" parameterValue="0"/>
            <parameter index="1" name="mute" parameterValue="0"/>
          </component>
          <component componentGuid="4a5fec9e-2f22-4797-a307-06dd80f09c59" componentID="Audition.StereoPanner" id="clipPan" name="StereoPanner" powered="true">
            <parameter index="0" name="Pan" parameterValue="0"/>
          </component>
          <fadeIn crossFadeLinkType="linkedAsymmetric" endPoint="11025" shape="19" startPoint="0" type="log"/>
          <fadeOut crossFadeLinkType="linkedAsymmetric" endPoint="191126" shape="19" startPoint="180101" type="log"/>
          <editParameter parameterIndex="0" slotIndex="4294967280"/>
          <editParameter parameterIndex="0" slotIndex="4294967281"/>
          <channelMap>
            <channel index="0" sourceIndex="0"/>
          </channelMap>
        </audioClip>
        <audioClip clipAutoCrossfade="true" crossFadeHeadClipID="-1" crossFadeTailClipID="-1" endPoint="99101229" fileID="1" hue="-1" id="57" lockedInTime="false" looped="false" name="Emily" offline="false" select="false" sourceInPoint="110320737" sourceOutPoint="110833745" startPoint="98588221" zOrder="56">
          <properties properties="{&quot;BasicAdjustmentsProperty&quot;:{&quot;type&quot;:&quot;tree::any&quot;,&quot;value&quot;:{&quot;AdjustmentMode&quot;:{&quot;type&quot;:&quot;UTF8String&quot;,&quot;value&quot;:&quot;dialog&quot;},&quot;ClaritySection&quot;:{&quot;type&quot;:&quot;tree::any&quot;,&quot;value&quot;:{&quot;Dynamics&quot;:{&quot;type&quot;:&quot;tree::any&quot;,&quot;value&quot;:{&quot;2&quot;:{&quot;type&quot;:&quot;tree::any&quot;,&quot;value&quot;:{&quot;Value&quot;:{&quot;type&quot;:&quot;float&quot;,&quot;value&quot;:3}}}}},&quot;Enabled&quot;:{&quot;type&quot;:&quot;bool&quot;,&quot;value&quot;:true}}},&quot;ClipType&quot;:{&quot;type&quot;:&quot;std::int32_t&quot;,&quot;value&quot;:1},&quot;EnhanceSpeechSection&quot;:{&quot;type&quot;:&quot;tree::any&quot;,&quot;value&quot;:{&quot;Enabled&quot;:{&quot;type&quot;:&quot;bool&quot;,&quot;value&quot;:true}}},&quot;PresetGuid&quot;:{&quot;type&quot;:&quot;UTF8String&quot;,&quot;value&quot;:&quot;bb717b4a-c0b1-4def-9040-3fb8e83b8a91&quot;},&quot;RestorationSection&quot;:{&quot;type&quot;:&quot;tree::any&quot;,&quot;value&quot;:{&quot;Enabled&quot;:{&quot;type&quot;:&quot;bool&quot;,&quot;value&quot;:true},&quot;ReduceHum&quot;:{&quot;type&quot;:&quot;tree::any&quot;,&quot;value&quot;:{&quot;4&quot;:{&quot;type&quot;:&quot;tree::any&quot;,&quot;value&quot;:{&quot;Value&quot;:{&quot;type&quot;:&quot;float&quot;,&quot;value&quot;:7.143000602722168}}},&quot;9&quot;:{&quot;type&quot;:&quot;tree::any&quot;,&quot;value&quot;:{&quot;Value&quot;:{&quot;type&quot;:&quot;float&quot;,&quot;value&quot;:60}}}}}}},&quot;SoundEffectsSection&quot;:{&quot;type&quot;:&quot;tree::any&quot;,&quot;value&quot;:{&quot;Enabled&quot;:{&quot;type&quot;:&quot;bool&quot;,&quot;value&quot;:true},&quot;Reverb&quot;:{&quot;type&quot;:&quot;tree::any&quot;,&quot;value&quot;:{&quot;3&quot;:{&quot;type&quot;:&quot;tree::any&quot;,&quot;value&quot;:{&quot;Value&quot;:{&quot;type&quot;:&quot;float&quot;,&quot;value&quot;:2}}}}}}},&quot;VolumeSection&quot;:{&quot;type&quot;:&quot;tree::any&quot;,&quot;value&quot;:{&quot;Enabled&quot;:{&quot;type&quot;:&quot;bool&quot;,&quot;value&quot;:true}}}}}}"/>
          <component componentGuid="c214efa4-db87-48e2-85c1-d08b661105e7" componentID="Audition.Fader" id="clipGain" name="volume" powered="true">
            <parameter index="0" name="volume" parameterValue="1"/>
            <parameter index="1" name="static gain" parameterValue="1"/>
          </component>
          <component componentGuid="0da8659f-a4cd-404d-a01c-88ee447d657d" componentID="Audition.Mute" id="clipMute" name="Mute" powered="true">
            <parameter index="0" parameterValue="0"/>
            <parameter index="1" name="mute" parameterValue="0"/>
          </component>
          <component componentGuid="592fb5dc-00ec-4d50-be56-6222ec7ccf4b" componentID="Audition.StereoPanner" id="clipPan" name="StereoPanner" powered="true">
            <parameter index="0" name="Pan" parameterValue="0"/>
          </component>
          <fadeIn crossFadeLinkType="linkedAsymmetric" endPoint="11025" shape="19" startPoint="0" type="log"/>
          <fadeOut crossFadeLinkType="linkedAsymmetric" endPoint="513008" shape="19" startPoint="501983" type="log"/>
          <editParameter parameterIndex="0" slotIndex="4294967280"/>
          <editParameter parameterIndex="0" slotIndex="4294967281"/>
          <channelMap>
            <channel index="0" sourceIndex="0"/>
          </channelMap>
        </audioClip>
        <audioClip clipAutoCrossfade="true" crossFadeHeadClipID="-1" crossFadeTailClipID="-1" endPoint="99559994" fileID="1" hue="-1" id="58" lockedInTime="false" looped="false" name="Emily" offline="false" select="false" sourceInPoint="110982099" sourceOutPoint="111292948" startPoint="99249145" zOrder="61">
          <properties properties="{&quot;BasicAdjustmentsProperty&quot;:{&quot;type&quot;:&quot;tree::any&quot;,&quot;value&quot;:{&quot;AdjustmentMode&quot;:{&quot;type&quot;:&quot;UTF8String&quot;,&quot;value&quot;:&quot;dialog&quot;},&quot;ClaritySection&quot;:{&quot;type&quot;:&quot;tree::any&quot;,&quot;value&quot;:{&quot;Dynamics&quot;:{&quot;type&quot;:&quot;tree::any&quot;,&quot;value&quot;:{&quot;2&quot;:{&quot;type&quot;:&quot;tree::any&quot;,&quot;value&quot;:{&quot;Value&quot;:{&quot;type&quot;:&quot;float&quot;,&quot;value&quot;:3}}}}},&quot;Enabled&quot;:{&quot;type&quot;:&quot;bool&quot;,&quot;value&quot;:true}}},&quot;ClipType&quot;:{&quot;type&quot;:&quot;std::int32_t&quot;,&quot;value&quot;:1},&quot;EnhanceSpeechSection&quot;:{&quot;type&quot;:&quot;tree::any&quot;,&quot;value&quot;:{&quot;Enabled&quot;:{&quot;type&quot;:&quot;bool&quot;,&quot;value&quot;:true}}},&quot;PresetGuid&quot;:{&quot;type&quot;:&quot;UTF8String&quot;,&quot;value&quot;:&quot;bb717b4a-c0b1-4def-9040-3fb8e83b8a91&quot;},&quot;RestorationSection&quot;:{&quot;type&quot;:&quot;tree::any&quot;,&quot;value&quot;:{&quot;Enabled&quot;:{&quot;type&quot;:&quot;bool&quot;,&quot;value&quot;:true},&quot;ReduceHum&quot;:{&quot;type&quot;:&quot;tree::any&quot;,&quot;value&quot;:{&quot;4&quot;:{&quot;type&quot;:&quot;tree::any&quot;,&quot;value&quot;:{&quot;Value&quot;:{&quot;type&quot;:&quot;float&quot;,&quot;value&quot;:7.143000602722168}}},&quot;9&quot;:{&quot;type&quot;:&quot;tree::any&quot;,&quot;value&quot;:{&quot;Value&quot;:{&quot;type&quot;:&quot;float&quot;,&quot;value&quot;:60}}}}}}},&quot;SoundEffectsSection&quot;:{&quot;type&quot;:&quot;tree::any&quot;,&quot;value&quot;:{&quot;Enabled&quot;:{&quot;type&quot;:&quot;bool&quot;,&quot;value&quot;:true},&quot;Reverb&quot;:{&quot;type&quot;:&quot;tree::any&quot;,&quot;value&quot;:{&quot;3&quot;:{&quot;type&quot;:&quot;tree::any&quot;,&quot;value&quot;:{&quot;Value&quot;:{&quot;type&quot;:&quot;float&quot;,&quot;value&quot;:2}}}}}}},&quot;VolumeSection&quot;:{&quot;type&quot;:&quot;tree::any&quot;,&quot;value&quot;:{&quot;Enabled&quot;:{&quot;type&quot;:&quot;bool&quot;,&quot;value&quot;:true}}}}}}"/>
          <component componentGuid="ded431af-f087-4c7e-8fc4-541a055948bd" componentID="Audition.Fader" id="clipGain" name="volume" powered="true">
            <parameter index="0" name="volume" parameterValue="1"/>
            <parameter index="1" name="static gain" parameterValue="1"/>
          </component>
          <component componentGuid="522fb22a-8c8f-4bab-8756-7c4ac31249f3" componentID="Audition.Mute" id="clipMute" name="Mute" powered="true">
            <parameter index="0" parameterValue="0"/>
            <parameter index="1" name="mute" parameterValue="0"/>
          </component>
          <component componentGuid="23d7b8de-8c82-44a6-8b97-b9d205cb87b0" componentID="Audition.StereoPanner" id="clipPan" name="StereoPanner" powered="true">
            <parameter index="0" name="Pan" parameterValue="0"/>
          </component>
          <fadeIn crossFadeLinkType="linkedAsymmetric" endPoint="11025" shape="19" startPoint="0" type="log"/>
          <fadeOut crossFadeLinkType="linkedAsymmetric" endPoint="310849" shape="19" startPoint="299824" type="log"/>
          <editParameter parameterIndex="0" slotIndex="4294967280"/>
          <editParameter parameterIndex="0" slotIndex="4294967281"/>
          <channelMap>
            <channel index="0" sourceIndex="0"/>
          </channelMap>
        </audioClip>
        <audioClip clipAutoCrossfade="true" crossFadeHeadClipID="-1" crossFadeTailClipID="-1" endPoint="100118862" fileID="1" hue="-1" id="59" lockedInTime="false" looped="false" name="Emily" offline="false" select="false" sourceInPoint="111510296" sourceOutPoint="111851775" startPoint="99777383" zOrder="57">
          <properties properties="{&quot;BasicAdjustmentsProperty&quot;:{&quot;type&quot;:&quot;tree::any&quot;,&quot;value&quot;:{&quot;AdjustmentMode&quot;:{&quot;type&quot;:&quot;UTF8String&quot;,&quot;value&quot;:&quot;dialog&quot;},&quot;ClaritySection&quot;:{&quot;type&quot;:&quot;tree::any&quot;,&quot;value&quot;:{&quot;Dynamics&quot;:{&quot;type&quot;:&quot;tree::any&quot;,&quot;value&quot;:{&quot;2&quot;:{&quot;type&quot;:&quot;tree::any&quot;,&quot;value&quot;:{&quot;Value&quot;:{&quot;type&quot;:&quot;float&quot;,&quot;value&quot;:3}}}}},&quot;Enabled&quot;:{&quot;type&quot;:&quot;bool&quot;,&quot;value&quot;:true}}},&quot;ClipType&quot;:{&quot;type&quot;:&quot;std::int32_t&quot;,&quot;value&quot;:1},&quot;EnhanceSpeechSection&quot;:{&quot;type&quot;:&quot;tree::any&quot;,&quot;value&quot;:{&quot;Enabled&quot;:{&quot;type&quot;:&quot;bool&quot;,&quot;value&quot;:true}}},&quot;PresetGuid&quot;:{&quot;type&quot;:&quot;UTF8String&quot;,&quot;value&quot;:&quot;bb717b4a-c0b1-4def-9040-3fb8e83b8a91&quot;},&quot;RestorationSection&quot;:{&quot;type&quot;:&quot;tree::any&quot;,&quot;value&quot;:{&quot;Enabled&quot;:{&quot;type&quot;:&quot;bool&quot;,&quot;value&quot;:true},&quot;ReduceHum&quot;:{&quot;type&quot;:&quot;tree::any&quot;,&quot;value&quot;:{&quot;4&quot;:{&quot;type&quot;:&quot;tree::any&quot;,&quot;value&quot;:{&quot;Value&quot;:{&quot;type&quot;:&quot;float&quot;,&quot;value&quot;:7.143000602722168}}},&quot;9&quot;:{&quot;type&quot;:&quot;tree::any&quot;,&quot;value&quot;:{&quot;Value&quot;:{&quot;type&quot;:&quot;float&quot;,&quot;value&quot;:60}}}}}}},&quot;SoundEffectsSection&quot;:{&quot;type&quot;:&quot;tree::any&quot;,&quot;value&quot;:{&quot;Enabled&quot;:{&quot;type&quot;:&quot;bool&quot;,&quot;value&quot;:true},&quot;Reverb&quot;:{&quot;type&quot;:&quot;tree::any&quot;,&quot;value&quot;:{&quot;3&quot;:{&quot;type&quot;:&quot;tree::any&quot;,&quot;value&quot;:{&quot;Value&quot;:{&quot;type&quot;:&quot;float&quot;,&quot;value&quot;:2}}}}}}},&quot;VolumeSection&quot;:{&quot;type&quot;:&quot;tree::any&quot;,&quot;value&quot;:{&quot;Enabled&quot;:{&quot;type&quot;:&quot;bool&quot;,&quot;value&quot;:true}}}}}}"/>
          <component componentGuid="3147af79-46cf-48b1-ae29-75e16ae16ec9" componentID="Audition.Fader" id="clipGain" name="volume" powered="true">
            <parameter index="0" name="volume" parameterValue="1"/>
            <parameter index="1" name="static gain" parameterValue="1"/>
          </component>
          <component componentGuid="dfa74236-3ff9-431b-a60b-1fc0ff67f2ec" componentID="Audition.Mute" id="clipMute" name="Mute" powered="true">
            <parameter index="0" parameterValue="0"/>
            <parameter index="1" name="mute" parameterValue="0"/>
          </component>
          <component componentGuid="d8ea0b6f-f9c7-4060-92ad-4528d8377a6f" componentID="Audition.StereoPanner" id="clipPan" name="StereoPanner" powered="true">
            <parameter index="0" name="Pan" parameterValue="0"/>
          </component>
          <fadeIn crossFadeLinkType="linkedAsymmetric" endPoint="11025" shape="19" startPoint="0" type="log"/>
          <fadeOut crossFadeLinkType="linkedAsymmetric" endPoint="341479" shape="19" startPoint="330454" type="log"/>
          <editParameter parameterIndex="0" slotIndex="4294967280"/>
          <editParameter parameterIndex="0" slotIndex="4294967281"/>
          <channelMap>
            <channel index="0" sourceIndex="0"/>
          </channelMap>
        </audioClip>
        <audioClip clipAutoCrossfade="true" crossFadeHeadClipID="-1" crossFadeTailClipID="-1" endPoint="101662091" fileID="1" hue="-1" id="60" lockedInTime="false" looped="false" name="Emily" offline="false" select="false" sourceInPoint="113338957" sourceOutPoint="113395003" startPoint="101606045" zOrder="60">
          <properties properties="{&quot;BasicAdjustmentsProperty&quot;:{&quot;type&quot;:&quot;tree::any&quot;,&quot;value&quot;:{&quot;AdjustmentMode&quot;:{&quot;type&quot;:&quot;UTF8String&quot;,&quot;value&quot;:&quot;dialog&quot;},&quot;ClaritySection&quot;:{&quot;type&quot;:&quot;tree::any&quot;,&quot;value&quot;:{&quot;Dynamics&quot;:{&quot;type&quot;:&quot;tree::any&quot;,&quot;value&quot;:{&quot;2&quot;:{&quot;type&quot;:&quot;tree::any&quot;,&quot;value&quot;:{&quot;Value&quot;:{&quot;type&quot;:&quot;float&quot;,&quot;value&quot;:3}}}}},&quot;Enabled&quot;:{&quot;type&quot;:&quot;bool&quot;,&quot;value&quot;:true}}},&quot;ClipType&quot;:{&quot;type&quot;:&quot;std::int32_t&quot;,&quot;value&quot;:1},&quot;EnhanceSpeechSection&quot;:{&quot;type&quot;:&quot;tree::any&quot;,&quot;value&quot;:{&quot;Enabled&quot;:{&quot;type&quot;:&quot;bool&quot;,&quot;value&quot;:true}}},&quot;PresetGuid&quot;:{&quot;type&quot;:&quot;UTF8String&quot;,&quot;value&quot;:&quot;bb717b4a-c0b1-4def-9040-3fb8e83b8a91&quot;},&quot;RestorationSection&quot;:{&quot;type&quot;:&quot;tree::any&quot;,&quot;value&quot;:{&quot;Enabled&quot;:{&quot;type&quot;:&quot;bool&quot;,&quot;value&quot;:true},&quot;ReduceHum&quot;:{&quot;type&quot;:&quot;tree::any&quot;,&quot;value&quot;:{&quot;4&quot;:{&quot;type&quot;:&quot;tree::any&quot;,&quot;value&quot;:{&quot;Value&quot;:{&quot;type&quot;:&quot;float&quot;,&quot;value&quot;:7.143000602722168}}},&quot;9&quot;:{&quot;type&quot;:&quot;tree::any&quot;,&quot;value&quot;:{&quot;Value&quot;:{&quot;type&quot;:&quot;float&quot;,&quot;value&quot;:60}}}}}}},&quot;SoundEffectsSection&quot;:{&quot;type&quot;:&quot;tree::any&quot;,&quot;value&quot;:{&quot;Enabled&quot;:{&quot;type&quot;:&quot;bool&quot;,&quot;value&quot;:true},&quot;Reverb&quot;:{&quot;type&quot;:&quot;tree::any&quot;,&quot;value&quot;:{&quot;3&quot;:{&quot;type&quot;:&quot;tree::any&quot;,&quot;value&quot;:{&quot;Value&quot;:{&quot;type&quot;:&quot;float&quot;,&quot;value&quot;:2}}}}}}},&quot;VolumeSection&quot;:{&quot;type&quot;:&quot;tree::any&quot;,&quot;value&quot;:{&quot;Enabled&quot;:{&quot;type&quot;:&quot;bool&quot;,&quot;value&quot;:true}}}}}}"/>
          <component componentGuid="bf3781af-bf13-4c2f-9fa8-f799439741f1" componentID="Audition.Fader" id="clipGain" name="volume" powered="true">
            <parameter index="0" name="volume" parameterValue="1"/>
            <parameter index="1" name="static gain" parameterValue="1"/>
          </component>
          <component componentGuid="840b2463-a83e-4369-a1c9-3008ef7b7318" componentID="Audition.Mute" id="clipMute" name="Mute" powered="true">
            <parameter index="0" parameterValue="0"/>
            <parameter index="1" name="mute" parameterValue="0"/>
          </component>
          <component componentGuid="384d88b2-56bb-4a7c-9923-a451948d70e5" componentID="Audition.StereoPanner" id="clipPan" name="StereoPanner" powered="true">
            <parameter index="0" name="Pan" parameterValue="0"/>
          </component>
          <fadeIn crossFadeLinkType="linkedAsymmetric" endPoint="11025" shape="19" startPoint="0" type="log"/>
          <fadeOut crossFadeLinkType="linkedAsymmetric" endPoint="56046" shape="19" startPoint="45021" type="log"/>
          <editParameter parameterIndex="0" slotIndex="4294967280"/>
          <editParameter parameterIndex="0" slotIndex="4294967281"/>
          <channelMap>
            <channel index="0" sourceIndex="0"/>
          </channelMap>
        </audioClip>
        <audioClip clipAutoCrossfade="true" crossFadeHeadClipID="-1" crossFadeTailClipID="-1" endPoint="106238008" fileID="1" hue="-1" id="61" lockedInTime="false" looped="false" name="Emily" offline="false" select="false" sourceInPoint="117870938" sourceOutPoint="117970921" startPoint="106138025" zOrder="59">
          <properties properties="{&quot;BasicAdjustmentsProperty&quot;:{&quot;type&quot;:&quot;tree::any&quot;,&quot;value&quot;:{&quot;AdjustmentMode&quot;:{&quot;type&quot;:&quot;UTF8String&quot;,&quot;value&quot;:&quot;dialog&quot;},&quot;ClaritySection&quot;:{&quot;type&quot;:&quot;tree::any&quot;,&quot;value&quot;:{&quot;Dynamics&quot;:{&quot;type&quot;:&quot;tree::any&quot;,&quot;value&quot;:{&quot;2&quot;:{&quot;type&quot;:&quot;tree::any&quot;,&quot;value&quot;:{&quot;Value&quot;:{&quot;type&quot;:&quot;float&quot;,&quot;value&quot;:3}}}}},&quot;Enabled&quot;:{&quot;type&quot;:&quot;bool&quot;,&quot;value&quot;:true}}},&quot;ClipType&quot;:{&quot;type&quot;:&quot;std::int32_t&quot;,&quot;value&quot;:1},&quot;EnhanceSpeechSection&quot;:{&quot;type&quot;:&quot;tree::any&quot;,&quot;value&quot;:{&quot;Enabled&quot;:{&quot;type&quot;:&quot;bool&quot;,&quot;value&quot;:true}}},&quot;PresetGuid&quot;:{&quot;type&quot;:&quot;UTF8String&quot;,&quot;value&quot;:&quot;bb717b4a-c0b1-4def-9040-3fb8e83b8a91&quot;},&quot;RestorationSection&quot;:{&quot;type&quot;:&quot;tree::any&quot;,&quot;value&quot;:{&quot;Enabled&quot;:{&quot;type&quot;:&quot;bool&quot;,&quot;value&quot;:true},&quot;ReduceHum&quot;:{&quot;type&quot;:&quot;tree::any&quot;,&quot;value&quot;:{&quot;4&quot;:{&quot;type&quot;:&quot;tree::any&quot;,&quot;value&quot;:{&quot;Value&quot;:{&quot;type&quot;:&quot;float&quot;,&quot;value&quot;:7.143000602722168}}},&quot;9&quot;:{&quot;type&quot;:&quot;tree::any&quot;,&quot;value&quot;:{&quot;Value&quot;:{&quot;type&quot;:&quot;float&quot;,&quot;value&quot;:60}}}}}}},&quot;SoundEffectsSection&quot;:{&quot;type&quot;:&quot;tree::any&quot;,&quot;value&quot;:{&quot;Enabled&quot;:{&quot;type&quot;:&quot;bool&quot;,&quot;value&quot;:true},&quot;Reverb&quot;:{&quot;type&quot;:&quot;tree::any&quot;,&quot;value&quot;:{&quot;3&quot;:{&quot;type&quot;:&quot;tree::any&quot;,&quot;value&quot;:{&quot;Value&quot;:{&quot;type&quot;:&quot;float&quot;,&quot;value&quot;:2}}}}}}},&quot;VolumeSection&quot;:{&quot;type&quot;:&quot;tree::any&quot;,&quot;value&quot;:{&quot;Enabled&quot;:{&quot;type&quot;:&quot;bool&quot;,&quot;value&quot;:true}}}}}}"/>
          <component componentGuid="7ce64a16-891c-4113-838f-66b8c274a0c8" componentID="Audition.Fader" id="clipGain" name="volume" powered="true">
            <parameter index="0" name="volume" parameterValue="1"/>
            <parameter index="1" name="static gain" parameterValue="1"/>
          </component>
          <component componentGuid="3688a1a2-ddc4-447c-b71d-b0b904c27d3f" componentID="Audition.Mute" id="clipMute" name="Mute" powered="true">
            <parameter index="0" parameterValue="0"/>
            <parameter index="1" name="mute" parameterValue="0"/>
          </component>
          <component componentGuid="01cd8828-56af-4eef-86e0-7300af8e00c8" componentID="Audition.StereoPanner" id="clipPan" name="StereoPanner" powered="true">
            <parameter index="0" name="Pan" parameterValue="0"/>
          </component>
          <fadeIn crossFadeLinkType="linkedAsymmetric" endPoint="11025" shape="19" startPoint="0" type="log"/>
          <fadeOut crossFadeLinkType="linkedAsymmetric" endPoint="99983" shape="19" startPoint="88958" type="log"/>
          <editParameter parameterIndex="0" slotIndex="4294967280"/>
          <editParameter parameterIndex="0" slotIndex="4294967281"/>
          <channelMap>
            <channel index="0" sourceIndex="0"/>
          </channelMap>
        </audioClip>
        <audioClip clipAutoCrossfade="true" crossFadeHeadClipID="-1" crossFadeTailClipID="-1" endPoint="108149013" fileID="1" hue="-1" id="62" lockedInTime="false" looped="false" name="Emily" offline="false" select="false" sourceInPoint="118708176" sourceOutPoint="119883021" startPoint="106974168" zOrder="62">
          <properties properties="{&quot;BasicAdjustmentsProperty&quot;:{&quot;type&quot;:&quot;tree::any&quot;,&quot;value&quot;:{&quot;AdjustmentMode&quot;:{&quot;type&quot;:&quot;UTF8String&quot;,&quot;value&quot;:&quot;dialog&quot;},&quot;ClaritySection&quot;:{&quot;type&quot;:&quot;tree::any&quot;,&quot;value&quot;:{&quot;Dynamics&quot;:{&quot;type&quot;:&quot;tree::any&quot;,&quot;value&quot;:{&quot;2&quot;:{&quot;type&quot;:&quot;tree::any&quot;,&quot;value&quot;:{&quot;Value&quot;:{&quot;type&quot;:&quot;float&quot;,&quot;value&quot;:3}}}}},&quot;Enabled&quot;:{&quot;type&quot;:&quot;bool&quot;,&quot;value&quot;:true}}},&quot;ClipType&quot;:{&quot;type&quot;:&quot;std::int32_t&quot;,&quot;value&quot;:1},&quot;EnhanceSpeechSection&quot;:{&quot;type&quot;:&quot;tree::any&quot;,&quot;value&quot;:{&quot;Enabled&quot;:{&quot;type&quot;:&quot;bool&quot;,&quot;value&quot;:true}}},&quot;PresetGuid&quot;:{&quot;type&quot;:&quot;UTF8String&quot;,&quot;value&quot;:&quot;bb717b4a-c0b1-4def-9040-3fb8e83b8a91&quot;},&quot;RestorationSection&quot;:{&quot;type&quot;:&quot;tree::any&quot;,&quot;value&quot;:{&quot;Enabled&quot;:{&quot;type&quot;:&quot;bool&quot;,&quot;value&quot;:true},&quot;ReduceHum&quot;:{&quot;type&quot;:&quot;tree::any&quot;,&quot;value&quot;:{&quot;4&quot;:{&quot;type&quot;:&quot;tree::any&quot;,&quot;value&quot;:{&quot;Value&quot;:{&quot;type&quot;:&quot;float&quot;,&quot;value&quot;:7.143000602722168}}},&quot;9&quot;:{&quot;type&quot;:&quot;tree::any&quot;,&quot;value&quot;:{&quot;Value&quot;:{&quot;type&quot;:&quot;float&quot;,&quot;value&quot;:60}}}}}}},&quot;SoundEffectsSection&quot;:{&quot;type&quot;:&quot;tree::any&quot;,&quot;value&quot;:{&quot;Enabled&quot;:{&quot;type&quot;:&quot;bool&quot;,&quot;value&quot;:true},&quot;Reverb&quot;:{&quot;type&quot;:&quot;tree::any&quot;,&quot;value&quot;:{&quot;3&quot;:{&quot;type&quot;:&quot;tree::any&quot;,&quot;value&quot;:{&quot;Value&quot;:{&quot;type&quot;:&quot;float&quot;,&quot;value&quot;:2}}}}}}},&quot;VolumeSection&quot;:{&quot;type&quot;:&quot;tree::any&quot;,&quot;value&quot;:{&quot;Enabled&quot;:{&quot;type&quot;:&quot;bool&quot;,&quot;value&quot;:true}}}}}}"/>
          <component componentGuid="c217d52a-0903-4cf2-b59c-8cf85af77796" componentID="Audition.Fader" id="clipGain" name="volume" powered="true">
            <parameter index="0" name="volume" parameterValue="1"/>
            <parameter index="1" name="static gain" parameterValue="1"/>
          </component>
          <component componentGuid="d54cbd97-b429-4c37-9da1-e017089291df" componentID="Audition.Mute" id="clipMute" name="Mute" powered="true">
            <parameter index="0" parameterValue="0"/>
            <parameter index="1" name="mute" parameterValue="0"/>
          </component>
          <component componentGuid="ac87ae22-625b-482e-9af6-aa2f349518fe" componentID="Audition.StereoPanner" id="clipPan" name="StereoPanner" powered="true">
            <parameter index="0" name="Pan" parameterValue="0"/>
          </component>
          <fadeIn crossFadeLinkType="linkedAsymmetric" endPoint="0" shape="19" startPoint="0" type="log"/>
          <fadeOut crossFadeLinkType="linkedAsymmetric" endPoint="1174845" shape="19" startPoint="1130271" type="log"/>
          <editParameter parameterIndex="0" slotIndex="4294967280"/>
          <editParameter parameterIndex="0" slotIndex="4294967281"/>
          <channelMap>
            <channel index="0" sourceIndex="0"/>
          </channelMap>
        </audioClip>
        <audioClip clipAutoCrossfade="true" crossFadeHeadClipID="-1" crossFadeTailClipID="-1" endPoint="108612292" fileID="1" hue="-1" id="63" lockedInTime="false" looped="false" name="Emily" offline="false" select="false" sourceInPoint="120288744" sourceOutPoint="120346300" startPoint="108554736" zOrder="63">
          <properties properties="{&quot;BasicAdjustmentsProperty&quot;:{&quot;type&quot;:&quot;tree::any&quot;,&quot;value&quot;:{&quot;AdjustmentMode&quot;:{&quot;type&quot;:&quot;UTF8String&quot;,&quot;value&quot;:&quot;dialog&quot;},&quot;ClaritySection&quot;:{&quot;type&quot;:&quot;tree::any&quot;,&quot;value&quot;:{&quot;Dynamics&quot;:{&quot;type&quot;:&quot;tree::any&quot;,&quot;value&quot;:{&quot;2&quot;:{&quot;type&quot;:&quot;tree::any&quot;,&quot;value&quot;:{&quot;Value&quot;:{&quot;type&quot;:&quot;float&quot;,&quot;value&quot;:3}}}}},&quot;Enabled&quot;:{&quot;type&quot;:&quot;bool&quot;,&quot;value&quot;:true}}},&quot;ClipType&quot;:{&quot;type&quot;:&quot;std::int32_t&quot;,&quot;value&quot;:1},&quot;EnhanceSpeechSection&quot;:{&quot;type&quot;:&quot;tree::any&quot;,&quot;value&quot;:{&quot;Enabled&quot;:{&quot;type&quot;:&quot;bool&quot;,&quot;value&quot;:true}}},&quot;PresetGuid&quot;:{&quot;type&quot;:&quot;UTF8String&quot;,&quot;value&quot;:&quot;bb717b4a-c0b1-4def-9040-3fb8e83b8a91&quot;},&quot;RestorationSection&quot;:{&quot;type&quot;:&quot;tree::any&quot;,&quot;value&quot;:{&quot;Enabled&quot;:{&quot;type&quot;:&quot;bool&quot;,&quot;value&quot;:true},&quot;ReduceHum&quot;:{&quot;type&quot;:&quot;tree::any&quot;,&quot;value&quot;:{&quot;4&quot;:{&quot;type&quot;:&quot;tree::any&quot;,&quot;value&quot;:{&quot;Value&quot;:{&quot;type&quot;:&quot;float&quot;,&quot;value&quot;:7.143000602722168}}},&quot;9&quot;:{&quot;type&quot;:&quot;tree::any&quot;,&quot;value&quot;:{&quot;Value&quot;:{&quot;type&quot;:&quot;float&quot;,&quot;value&quot;:60}}}}}}},&quot;SoundEffectsSection&quot;:{&quot;type&quot;:&quot;tree::any&quot;,&quot;value&quot;:{&quot;Enabled&quot;:{&quot;type&quot;:&quot;bool&quot;,&quot;value&quot;:true},&quot;Reverb&quot;:{&quot;type&quot;:&quot;tree::any&quot;,&quot;value&quot;:{&quot;3&quot;:{&quot;type&quot;:&quot;tree::any&quot;,&quot;value&quot;:{&quot;Value&quot;:{&quot;type&quot;:&quot;float&quot;,&quot;value&quot;:2}}}}}}},&quot;VolumeSection&quot;:{&quot;type&quot;:&quot;tree::any&quot;,&quot;value&quot;:{&quot;Enabled&quot;:{&quot;type&quot;:&quot;bool&quot;,&quot;value&quot;:true}}}}}}"/>
          <component componentGuid="25f64a6b-4e8a-48c6-8c27-fe749d102490" componentID="Audition.Fader" id="clipGain" name="volume" powered="true">
            <parameter index="0" name="volume" parameterValue="1"/>
            <parameter index="1" name="static gain" parameterValue="1"/>
          </component>
          <component componentGuid="f3f96bef-717e-4964-8fea-4ff309afdf4c" componentID="Audition.Mute" id="clipMute" name="Mute" powered="true">
            <parameter index="0" parameterValue="0"/>
            <parameter index="1" name="mute" parameterValue="0"/>
          </component>
          <component componentGuid="c6d26ed8-2f37-4849-9609-2e905ac10a47" componentID="Audition.StereoPanner" id="clipPan" name="StereoPanner" powered="true">
            <parameter index="0" name="Pan" parameterValue="0"/>
          </component>
          <fadeIn crossFadeLinkType="linkedAsymmetric" endPoint="11025" shape="19" startPoint="0" type="log"/>
          <fadeOut crossFadeLinkType="linkedAsymmetric" endPoint="57556" shape="19" startPoint="46531" type="log"/>
          <editParameter parameterIndex="0" slotIndex="4294967280"/>
          <editParameter parameterIndex="0" slotIndex="4294967281"/>
          <channelMap>
            <channel index="0" sourceIndex="0"/>
          </channelMap>
        </audioClip>
        <audioClip clipAutoCrossfade="true" crossFadeHeadClipID="-1" crossFadeTailClipID="-1" endPoint="109924235" fileID="1" hue="-1" id="64" lockedInTime="false" looped="false" name="Emily" offline="false" select="false" sourceInPoint="121538740" sourceOutPoint="121658244" startPoint="109804731" zOrder="73">
          <properties properties="{&quot;BasicAdjustmentsProperty&quot;:{&quot;type&quot;:&quot;tree::any&quot;,&quot;value&quot;:{&quot;AdjustmentMode&quot;:{&quot;type&quot;:&quot;UTF8String&quot;,&quot;value&quot;:&quot;dialog&quot;},&quot;ClaritySection&quot;:{&quot;type&quot;:&quot;tree::any&quot;,&quot;value&quot;:{&quot;Dynamics&quot;:{&quot;type&quot;:&quot;tree::any&quot;,&quot;value&quot;:{&quot;2&quot;:{&quot;type&quot;:&quot;tree::any&quot;,&quot;value&quot;:{&quot;Value&quot;:{&quot;type&quot;:&quot;float&quot;,&quot;value&quot;:3}}}}},&quot;Enabled&quot;:{&quot;type&quot;:&quot;bool&quot;,&quot;value&quot;:true}}},&quot;ClipType&quot;:{&quot;type&quot;:&quot;std::int32_t&quot;,&quot;value&quot;:1},&quot;EnhanceSpeechSection&quot;:{&quot;type&quot;:&quot;tree::any&quot;,&quot;value&quot;:{&quot;Enabled&quot;:{&quot;type&quot;:&quot;bool&quot;,&quot;value&quot;:true}}},&quot;PresetGuid&quot;:{&quot;type&quot;:&quot;UTF8String&quot;,&quot;value&quot;:&quot;bb717b4a-c0b1-4def-9040-3fb8e83b8a91&quot;},&quot;RestorationSection&quot;:{&quot;type&quot;:&quot;tree::any&quot;,&quot;value&quot;:{&quot;Enabled&quot;:{&quot;type&quot;:&quot;bool&quot;,&quot;value&quot;:true},&quot;ReduceHum&quot;:{&quot;type&quot;:&quot;tree::any&quot;,&quot;value&quot;:{&quot;4&quot;:{&quot;type&quot;:&quot;tree::any&quot;,&quot;value&quot;:{&quot;Value&quot;:{&quot;type&quot;:&quot;float&quot;,&quot;value&quot;:7.143000602722168}}},&quot;9&quot;:{&quot;type&quot;:&quot;tree::any&quot;,&quot;value&quot;:{&quot;Value&quot;:{&quot;type&quot;:&quot;float&quot;,&quot;value&quot;:60}}}}}}},&quot;SoundEffectsSection&quot;:{&quot;type&quot;:&quot;tree::any&quot;,&quot;value&quot;:{&quot;Enabled&quot;:{&quot;type&quot;:&quot;bool&quot;,&quot;value&quot;:true},&quot;Reverb&quot;:{&quot;type&quot;:&quot;tree::any&quot;,&quot;value&quot;:{&quot;3&quot;:{&quot;type&quot;:&quot;tree::any&quot;,&quot;value&quot;:{&quot;Value&quot;:{&quot;type&quot;:&quot;float&quot;,&quot;value&quot;:2}}}}}}},&quot;VolumeSection&quot;:{&quot;type&quot;:&quot;tree::any&quot;,&quot;value&quot;:{&quot;Enabled&quot;:{&quot;type&quot;:&quot;bool&quot;,&quot;value&quot;:true}}}}}}"/>
          <component componentGuid="8c8e2918-12be-461b-80cd-2865001a0f3e" componentID="Audition.Fader" id="clipGain" name="volume" powered="true">
            <parameter index="0" name="volume" parameterValue="1"/>
            <parameter index="1" name="static gain" parameterValue="1"/>
          </component>
          <component componentGuid="34225d60-a6af-48c8-bd2c-8785ea28ee4b" componentID="Audition.Mute" id="clipMute" name="Mute" powered="true">
            <parameter index="0" parameterValue="0"/>
            <parameter index="1" name="mute" parameterValue="0"/>
          </component>
          <component componentGuid="49d6a4ff-43ba-499b-9553-70ca3f5429c4" componentID="Audition.StereoPanner" id="clipPan" name="StereoPanner" powered="true">
            <parameter index="0" name="Pan" parameterValue="0"/>
          </component>
          <fadeIn crossFadeLinkType="linkedAsymmetric" endPoint="11025" shape="19" startPoint="0" type="log"/>
          <fadeOut crossFadeLinkType="linkedAsymmetric" endPoint="119504" shape="19" startPoint="108479" type="log"/>
          <editParameter parameterIndex="0" slotIndex="4294967280"/>
          <editParameter parameterIndex="0" slotIndex="4294967281"/>
          <channelMap>
            <channel index="0" sourceIndex="0"/>
          </channelMap>
        </audioClip>
        <audioClip clipAutoCrossfade="true" crossFadeHeadClipID="-1" crossFadeTailClipID="-1" endPoint="110298926" fileID="1" hue="-1" id="65" lockedInTime="false" looped="false" name="Emily" offline="false" select="false" sourceInPoint="121850086" sourceOutPoint="122032935" startPoint="110116077" zOrder="64">
          <properties properties="{&quot;BasicAdjustmentsProperty&quot;:{&quot;type&quot;:&quot;tree::any&quot;,&quot;value&quot;:{&quot;AdjustmentMode&quot;:{&quot;type&quot;:&quot;UTF8String&quot;,&quot;value&quot;:&quot;dialog&quot;},&quot;ClaritySection&quot;:{&quot;type&quot;:&quot;tree::any&quot;,&quot;value&quot;:{&quot;Dynamics&quot;:{&quot;type&quot;:&quot;tree::any&quot;,&quot;value&quot;:{&quot;2&quot;:{&quot;type&quot;:&quot;tree::any&quot;,&quot;value&quot;:{&quot;Value&quot;:{&quot;type&quot;:&quot;float&quot;,&quot;value&quot;:3}}}}},&quot;Enabled&quot;:{&quot;type&quot;:&quot;bool&quot;,&quot;value&quot;:true}}},&quot;ClipType&quot;:{&quot;type&quot;:&quot;std::int32_t&quot;,&quot;value&quot;:1},&quot;EnhanceSpeechSection&quot;:{&quot;type&quot;:&quot;tree::any&quot;,&quot;value&quot;:{&quot;Enabled&quot;:{&quot;type&quot;:&quot;bool&quot;,&quot;value&quot;:true}}},&quot;PresetGuid&quot;:{&quot;type&quot;:&quot;UTF8String&quot;,&quot;value&quot;:&quot;bb717b4a-c0b1-4def-9040-3fb8e83b8a91&quot;},&quot;RestorationSection&quot;:{&quot;type&quot;:&quot;tree::any&quot;,&quot;value&quot;:{&quot;Enabled&quot;:{&quot;type&quot;:&quot;bool&quot;,&quot;value&quot;:true},&quot;ReduceHum&quot;:{&quot;type&quot;:&quot;tree::any&quot;,&quot;value&quot;:{&quot;4&quot;:{&quot;type&quot;:&quot;tree::any&quot;,&quot;value&quot;:{&quot;Value&quot;:{&quot;type&quot;:&quot;float&quot;,&quot;value&quot;:7.143000602722168}}},&quot;9&quot;:{&quot;type&quot;:&quot;tree::any&quot;,&quot;value&quot;:{&quot;Value&quot;:{&quot;type&quot;:&quot;float&quot;,&quot;value&quot;:60}}}}}}},&quot;SoundEffectsSection&quot;:{&quot;type&quot;:&quot;tree::any&quot;,&quot;value&quot;:{&quot;Enabled&quot;:{&quot;type&quot;:&quot;bool&quot;,&quot;value&quot;:true},&quot;Reverb&quot;:{&quot;type&quot;:&quot;tree::any&quot;,&quot;value&quot;:{&quot;3&quot;:{&quot;type&quot;:&quot;tree::any&quot;,&quot;value&quot;:{&quot;Value&quot;:{&quot;type&quot;:&quot;float&quot;,&quot;value&quot;:2}}}}}}},&quot;VolumeSection&quot;:{&quot;type&quot;:&quot;tree::any&quot;,&quot;value&quot;:{&quot;Enabled&quot;:{&quot;type&quot;:&quot;bool&quot;,&quot;value&quot;:true}}}}}}"/>
          <component componentGuid="4e4317be-bb1a-460a-932f-f008febdcf65" componentID="Audition.Fader" id="clipGain" name="volume" powered="true">
            <parameter index="0" name="volume" parameterValue="1"/>
            <parameter index="1" name="static gain" parameterValue="1"/>
          </component>
          <component componentGuid="dc509ce9-0f12-4d07-a3cc-27c49927fd40" componentID="Audition.Mute" id="clipMute" name="Mute" powered="true">
            <parameter index="0" parameterValue="0"/>
            <parameter index="1" name="mute" parameterValue="0"/>
          </component>
          <component componentGuid="64d866e9-b3a1-4a76-855f-eb8dad273fc1" componentID="Audition.StereoPanner" id="clipPan" name="StereoPanner" powered="true">
            <parameter index="0" name="Pan" parameterValue="0"/>
          </component>
          <fadeIn crossFadeLinkType="linkedAsymmetric" endPoint="11025" shape="19" startPoint="0" type="log"/>
          <fadeOut crossFadeLinkType="linkedAsymmetric" endPoint="182849" shape="19" startPoint="171824" type="log"/>
          <editParameter parameterIndex="0" slotIndex="4294967280"/>
          <editParameter parameterIndex="0" slotIndex="4294967281"/>
          <channelMap>
            <channel index="0" sourceIndex="0"/>
          </channelMap>
        </audioClip>
        <audioClip clipAutoCrossfade="true" crossFadeHeadClipID="-1" crossFadeTailClipID="-1" endPoint="110832060" fileID="1" hue="-1" id="66" lockedInTime="false" looped="false" name="Emily" offline="false" select="false" sourceInPoint="122365140" sourceOutPoint="122565837" startPoint="110631363" zOrder="65">
          <properties properties="{&quot;BasicAdjustmentsProperty&quot;:{&quot;type&quot;:&quot;tree::any&quot;,&quot;value&quot;:{&quot;AdjustmentMode&quot;:{&quot;type&quot;:&quot;UTF8String&quot;,&quot;value&quot;:&quot;dialog&quot;},&quot;ClaritySection&quot;:{&quot;type&quot;:&quot;tree::any&quot;,&quot;value&quot;:{&quot;Dynamics&quot;:{&quot;type&quot;:&quot;tree::any&quot;,&quot;value&quot;:{&quot;2&quot;:{&quot;type&quot;:&quot;tree::any&quot;,&quot;value&quot;:{&quot;Value&quot;:{&quot;type&quot;:&quot;float&quot;,&quot;value&quot;:3}}}}},&quot;Enabled&quot;:{&quot;type&quot;:&quot;bool&quot;,&quot;value&quot;:true}}},&quot;ClipType&quot;:{&quot;type&quot;:&quot;std::int32_t&quot;,&quot;value&quot;:1},&quot;EnhanceSpeechSection&quot;:{&quot;type&quot;:&quot;tree::any&quot;,&quot;value&quot;:{&quot;Enabled&quot;:{&quot;type&quot;:&quot;bool&quot;,&quot;value&quot;:true}}},&quot;PresetGuid&quot;:{&quot;type&quot;:&quot;UTF8String&quot;,&quot;value&quot;:&quot;bb717b4a-c0b1-4def-9040-3fb8e83b8a91&quot;},&quot;RestorationSection&quot;:{&quot;type&quot;:&quot;tree::any&quot;,&quot;value&quot;:{&quot;Enabled&quot;:{&quot;type&quot;:&quot;bool&quot;,&quot;value&quot;:true},&quot;ReduceHum&quot;:{&quot;type&quot;:&quot;tree::any&quot;,&quot;value&quot;:{&quot;4&quot;:{&quot;type&quot;:&quot;tree::any&quot;,&quot;value&quot;:{&quot;Value&quot;:{&quot;type&quot;:&quot;float&quot;,&quot;value&quot;:7.143000602722168}}},&quot;9&quot;:{&quot;type&quot;:&quot;tree::any&quot;,&quot;value&quot;:{&quot;Value&quot;:{&quot;type&quot;:&quot;float&quot;,&quot;value&quot;:60}}}}}}},&quot;SoundEffectsSection&quot;:{&quot;type&quot;:&quot;tree::any&quot;,&quot;value&quot;:{&quot;Enabled&quot;:{&quot;type&quot;:&quot;bool&quot;,&quot;value&quot;:true},&quot;Reverb&quot;:{&quot;type&quot;:&quot;tree::any&quot;,&quot;value&quot;:{&quot;3&quot;:{&quot;type&quot;:&quot;tree::any&quot;,&quot;value&quot;:{&quot;Value&quot;:{&quot;type&quot;:&quot;float&quot;,&quot;value&quot;:2}}}}}}},&quot;VolumeSection&quot;:{&quot;type&quot;:&quot;tree::any&quot;,&quot;value&quot;:{&quot;Enabled&quot;:{&quot;type&quot;:&quot;bool&quot;,&quot;value&quot;:true}}}}}}"/>
          <component componentGuid="4dc9fafb-99f8-43bd-a888-3d1d04e982dd" componentID="Audition.Fader" id="clipGain" name="volume" powered="true">
            <parameter index="0" name="volume" parameterValue="1"/>
            <parameter index="1" name="static gain" parameterValue="1"/>
          </component>
          <component componentGuid="a9770d6e-29f4-49f1-b3ad-2e5fcae1b4fc" componentID="Audition.Mute" id="clipMute" name="Mute" powered="true">
            <parameter index="0" parameterValue="0"/>
            <parameter index="1" name="mute" parameterValue="0"/>
          </component>
          <component componentGuid="4d6f0e97-d4c8-4eac-a376-be2228b46004" componentID="Audition.StereoPanner" id="clipPan" name="StereoPanner" powered="true">
            <parameter index="0" name="Pan" parameterValue="0"/>
          </component>
          <fadeIn crossFadeLinkType="linkedAsymmetric" endPoint="0" shape="19" startPoint="0" type="log"/>
          <fadeOut crossFadeLinkType="linkedAsymmetric" endPoint="200697" shape="19" startPoint="189672" type="log"/>
          <editParameter parameterIndex="0" slotIndex="4294967280"/>
          <editParameter parameterIndex="0" slotIndex="4294967281"/>
          <channelMap>
            <channel index="0" sourceIndex="0"/>
          </channelMap>
        </audioClip>
        <audioClip clipAutoCrossfade="true" crossFadeHeadClipID="-1" crossFadeTailClipID="-1" endPoint="112492733" fileID="1" hue="-1" id="67" lockedInTime="false" looped="false" name="Emily" offline="false" select="false" sourceInPoint="123976259" sourceOutPoint="124225209" startPoint="112243783" zOrder="70">
          <properties properties="{&quot;BasicAdjustmentsProperty&quot;:{&quot;type&quot;:&quot;tree::any&quot;,&quot;value&quot;:{&quot;AdjustmentMode&quot;:{&quot;type&quot;:&quot;UTF8String&quot;,&quot;value&quot;:&quot;dialog&quot;},&quot;ClaritySection&quot;:{&quot;type&quot;:&quot;tree::any&quot;,&quot;value&quot;:{&quot;Dynamics&quot;:{&quot;type&quot;:&quot;tree::any&quot;,&quot;value&quot;:{&quot;2&quot;:{&quot;type&quot;:&quot;tree::any&quot;,&quot;value&quot;:{&quot;Value&quot;:{&quot;type&quot;:&quot;float&quot;,&quot;value&quot;:3}}}}},&quot;Enabled&quot;:{&quot;type&quot;:&quot;bool&quot;,&quot;value&quot;:true}}},&quot;ClipType&quot;:{&quot;type&quot;:&quot;std::int32_t&quot;,&quot;value&quot;:1},&quot;EnhanceSpeechSection&quot;:{&quot;type&quot;:&quot;tree::any&quot;,&quot;value&quot;:{&quot;Enabled&quot;:{&quot;type&quot;:&quot;bool&quot;,&quot;value&quot;:true}}},&quot;PresetGuid&quot;:{&quot;type&quot;:&quot;UTF8String&quot;,&quot;value&quot;:&quot;bb717b4a-c0b1-4def-9040-3fb8e83b8a91&quot;},&quot;RestorationSection&quot;:{&quot;type&quot;:&quot;tree::any&quot;,&quot;value&quot;:{&quot;Enabled&quot;:{&quot;type&quot;:&quot;bool&quot;,&quot;value&quot;:true},&quot;ReduceHum&quot;:{&quot;type&quot;:&quot;tree::any&quot;,&quot;value&quot;:{&quot;4&quot;:{&quot;type&quot;:&quot;tree::any&quot;,&quot;value&quot;:{&quot;Value&quot;:{&quot;type&quot;:&quot;float&quot;,&quot;value&quot;:7.143000602722168}}},&quot;9&quot;:{&quot;type&quot;:&quot;tree::any&quot;,&quot;value&quot;:{&quot;Value&quot;:{&quot;type&quot;:&quot;float&quot;,&quot;value&quot;:60}}}}}}},&quot;SoundEffectsSection&quot;:{&quot;type&quot;:&quot;tree::any&quot;,&quot;value&quot;:{&quot;Enabled&quot;:{&quot;type&quot;:&quot;bool&quot;,&quot;value&quot;:true},&quot;Reverb&quot;:{&quot;type&quot;:&quot;tree::any&quot;,&quot;value&quot;:{&quot;3&quot;:{&quot;type&quot;:&quot;tree::any&quot;,&quot;value&quot;:{&quot;Value&quot;:{&quot;type&quot;:&quot;float&quot;,&quot;value&quot;:2}}}}}}},&quot;VolumeSection&quot;:{&quot;type&quot;:&quot;tree::any&quot;,&quot;value&quot;:{&quot;Enabled&quot;:{&quot;type&quot;:&quot;bool&quot;,&quot;value&quot;:true}}}}}}"/>
          <component componentGuid="9c8d7197-65f1-4e41-a665-d8e47c5b3ef6" componentID="Audition.Fader" id="clipGain" name="volume" powered="true">
            <parameter index="0" name="volume" parameterValue="1"/>
            <parameter index="1" name="static gain" parameterValue="1"/>
          </component>
          <component componentGuid="c6610cbb-444c-416f-b31f-573b79968d2e" componentID="Audition.Mute" id="clipMute" name="Mute" powered="true">
            <parameter index="0" parameterValue="0"/>
            <parameter index="1" name="mute" parameterValue="0"/>
          </component>
          <component componentGuid="71ef0712-8ebb-4ca0-b1ea-9fa6c4ac732a" componentID="Audition.StereoPanner" id="clipPan" name="StereoPanner" powered="true">
            <parameter index="0" name="Pan" parameterValue="0"/>
          </component>
          <fadeIn crossFadeLinkType="linkedAsymmetric" endPoint="11025" shape="19" startPoint="0" type="log"/>
          <fadeOut crossFadeLinkType="linkedAsymmetric" endPoint="248950" shape="19" startPoint="237925" type="log"/>
          <editParameter parameterIndex="0" slotIndex="4294967280"/>
          <editParameter parameterIndex="0" slotIndex="4294967281"/>
          <channelMap>
            <channel index="0" sourceIndex="0"/>
          </channelMap>
        </audioClip>
        <audioClip clipAutoCrossfade="true" crossFadeHeadClipID="-1" crossFadeTailClipID="-1" endPoint="113090262" fileID="1" hue="-1" id="68" lockedInTime="false" looped="false" name="Emily" offline="false" select="false" sourceInPoint="124708998" sourceOutPoint="124822739" startPoint="112976521" zOrder="71">
          <properties properties="{&quot;BasicAdjustmentsProperty&quot;:{&quot;type&quot;:&quot;tree::any&quot;,&quot;value&quot;:{&quot;AdjustmentMode&quot;:{&quot;type&quot;:&quot;UTF8String&quot;,&quot;value&quot;:&quot;dialog&quot;},&quot;ClaritySection&quot;:{&quot;type&quot;:&quot;tree::any&quot;,&quot;value&quot;:{&quot;Dynamics&quot;:{&quot;type&quot;:&quot;tree::any&quot;,&quot;value&quot;:{&quot;2&quot;:{&quot;type&quot;:&quot;tree::any&quot;,&quot;value&quot;:{&quot;Value&quot;:{&quot;type&quot;:&quot;float&quot;,&quot;value&quot;:3}}}}},&quot;Enabled&quot;:{&quot;type&quot;:&quot;bool&quot;,&quot;value&quot;:true}}},&quot;ClipType&quot;:{&quot;type&quot;:&quot;std::int32_t&quot;,&quot;value&quot;:1},&quot;EnhanceSpeechSection&quot;:{&quot;type&quot;:&quot;tree::any&quot;,&quot;value&quot;:{&quot;Enabled&quot;:{&quot;type&quot;:&quot;bool&quot;,&quot;value&quot;:true}}},&quot;PresetGuid&quot;:{&quot;type&quot;:&quot;UTF8String&quot;,&quot;value&quot;:&quot;bb717b4a-c0b1-4def-9040-3fb8e83b8a91&quot;},&quot;RestorationSection&quot;:{&quot;type&quot;:&quot;tree::any&quot;,&quot;value&quot;:{&quot;Enabled&quot;:{&quot;type&quot;:&quot;bool&quot;,&quot;value&quot;:true},&quot;ReduceHum&quot;:{&quot;type&quot;:&quot;tree::any&quot;,&quot;value&quot;:{&quot;4&quot;:{&quot;type&quot;:&quot;tree::any&quot;,&quot;value&quot;:{&quot;Value&quot;:{&quot;type&quot;:&quot;float&quot;,&quot;value&quot;:7.143000602722168}}},&quot;9&quot;:{&quot;type&quot;:&quot;tree::any&quot;,&quot;value&quot;:{&quot;Value&quot;:{&quot;type&quot;:&quot;float&quot;,&quot;value&quot;:60}}}}}}},&quot;SoundEffectsSection&quot;:{&quot;type&quot;:&quot;tree::any&quot;,&quot;value&quot;:{&quot;Enabled&quot;:{&quot;type&quot;:&quot;bool&quot;,&quot;value&quot;:true},&quot;Reverb&quot;:{&quot;type&quot;:&quot;tree::any&quot;,&quot;value&quot;:{&quot;3&quot;:{&quot;type&quot;:&quot;tree::any&quot;,&quot;value&quot;:{&quot;Value&quot;:{&quot;type&quot;:&quot;float&quot;,&quot;value&quot;:2}}}}}}},&quot;VolumeSection&quot;:{&quot;type&quot;:&quot;tree::any&quot;,&quot;value&quot;:{&quot;Enabled&quot;:{&quot;type&quot;:&quot;bool&quot;,&quot;value&quot;:true}}}}}}"/>
          <component componentGuid="691964f6-6a00-4d85-b384-b5fc555d163b" componentID="Audition.Fader" id="clipGain" name="volume" powered="true">
            <parameter index="0" name="volume" parameterValue="1"/>
            <parameter index="1" name="static gain" parameterValue="1"/>
          </component>
          <component componentGuid="3c36b6d2-f40b-48b1-9609-79a90f328aaa" componentID="Audition.Mute" id="clipMute" name="Mute" powered="true">
            <parameter index="0" parameterValue="0"/>
            <parameter index="1" name="mute" parameterValue="0"/>
          </component>
          <component componentGuid="2cd3afbf-c867-4f33-bb34-e43795b0fe98" componentID="Audition.StereoPanner" id="clipPan" name="StereoPanner" powered="true">
            <parameter index="0" name="Pan" parameterValue="0"/>
          </component>
          <fadeIn crossFadeLinkType="linkedAsymmetric" endPoint="11025" shape="19" startPoint="0" type="log"/>
          <fadeOut crossFadeLinkType="linkedAsymmetric" endPoint="113741" shape="19" startPoint="102716" type="log"/>
          <editParameter parameterIndex="0" slotIndex="4294967280"/>
          <editParameter parameterIndex="0" slotIndex="4294967281"/>
          <channelMap>
            <channel index="0" sourceIndex="0"/>
          </channelMap>
        </audioClip>
        <audioClip clipAutoCrossfade="true" crossFadeHeadClipID="-1" crossFadeTailClipID="-1" endPoint="113892361" fileID="1" hue="-1" id="69" lockedInTime="false" looped="false" name="Emily" offline="false" select="false" sourceInPoint="125478887" sourceOutPoint="125624939" startPoint="113746309" zOrder="72">
          <properties properties="{&quot;BasicAdjustmentsProperty&quot;:{&quot;type&quot;:&quot;tree::any&quot;,&quot;value&quot;:{&quot;AdjustmentMode&quot;:{&quot;type&quot;:&quot;UTF8String&quot;,&quot;value&quot;:&quot;dialog&quot;},&quot;ClaritySection&quot;:{&quot;type&quot;:&quot;tree::any&quot;,&quot;value&quot;:{&quot;Dynamics&quot;:{&quot;type&quot;:&quot;tree::any&quot;,&quot;value&quot;:{&quot;2&quot;:{&quot;type&quot;:&quot;tree::any&quot;,&quot;value&quot;:{&quot;Value&quot;:{&quot;type&quot;:&quot;float&quot;,&quot;value&quot;:3}}}}},&quot;Enabled&quot;:{&quot;type&quot;:&quot;bool&quot;,&quot;value&quot;:true}}},&quot;ClipType&quot;:{&quot;type&quot;:&quot;std::int32_t&quot;,&quot;value&quot;:1},&quot;EnhanceSpeechSection&quot;:{&quot;type&quot;:&quot;tree::any&quot;,&quot;value&quot;:{&quot;Enabled&quot;:{&quot;type&quot;:&quot;bool&quot;,&quot;value&quot;:true}}},&quot;PresetGuid&quot;:{&quot;type&quot;:&quot;UTF8String&quot;,&quot;value&quot;:&quot;bb717b4a-c0b1-4def-9040-3fb8e83b8a91&quot;},&quot;RestorationSection&quot;:{&quot;type&quot;:&quot;tree::any&quot;,&quot;value&quot;:{&quot;Enabled&quot;:{&quot;type&quot;:&quot;bool&quot;,&quot;value&quot;:true},&quot;ReduceHum&quot;:{&quot;type&quot;:&quot;tree::any&quot;,&quot;value&quot;:{&quot;4&quot;:{&quot;type&quot;:&quot;tree::any&quot;,&quot;value&quot;:{&quot;Value&quot;:{&quot;type&quot;:&quot;float&quot;,&quot;value&quot;:7.143000602722168}}},&quot;9&quot;:{&quot;type&quot;:&quot;tree::any&quot;,&quot;value&quot;:{&quot;Value&quot;:{&quot;type&quot;:&quot;float&quot;,&quot;value&quot;:60}}}}}}},&quot;SoundEffectsSection&quot;:{&quot;type&quot;:&quot;tree::any&quot;,&quot;value&quot;:{&quot;Enabled&quot;:{&quot;type&quot;:&quot;bool&quot;,&quot;value&quot;:true},&quot;Reverb&quot;:{&quot;type&quot;:&quot;tree::any&quot;,&quot;value&quot;:{&quot;3&quot;:{&quot;type&quot;:&quot;tree::any&quot;,&quot;value&quot;:{&quot;Value&quot;:{&quot;type&quot;:&quot;float&quot;,&quot;value&quot;:2}}}}}}},&quot;VolumeSection&quot;:{&quot;type&quot;:&quot;tree::any&quot;,&quot;value&quot;:{&quot;Enabled&quot;:{&quot;type&quot;:&quot;bool&quot;,&quot;value&quot;:true}}}}}}"/>
          <component componentGuid="91cddeb0-fb6f-43dd-b29c-d9bacbec0c48" componentID="Audition.Fader" id="clipGain" name="volume" powered="true">
            <parameter index="0" name="volume" parameterValue="1"/>
            <parameter index="1" name="static gain" parameterValue="1"/>
          </component>
          <component componentGuid="7ec8bdd7-b7f9-43ad-946f-69a8ba070164" componentID="Audition.Mute" id="clipMute" name="Mute" powered="true">
            <parameter index="0" parameterValue="0"/>
            <parameter index="1" name="mute" parameterValue="0"/>
          </component>
          <component componentGuid="2af5965f-d712-444a-a455-cecca69b5eba" componentID="Audition.StereoPanner" id="clipPan" name="StereoPanner" powered="true">
            <parameter index="0" name="Pan" parameterValue="0"/>
          </component>
          <fadeIn crossFadeLinkType="linkedAsymmetric" endPoint="11025" shape="19" startPoint="0" type="log"/>
          <fadeOut crossFadeLinkType="linkedAsymmetric" endPoint="146052" shape="19" startPoint="146052" type="log"/>
          <editParameter parameterIndex="0" slotIndex="4294967280"/>
          <editParameter parameterIndex="0" slotIndex="4294967281"/>
          <channelMap>
            <channel index="0" sourceIndex="0"/>
          </channelMap>
        </audioClip>
        <audioClip clipAutoCrossfade="true" crossFadeHeadClipID="-1" crossFadeTailClipID="-1" endPoint="115397015" fileID="1" hue="-1" id="70" lockedInTime="false" looped="false" name="Emily" offline="false" select="false" sourceInPoint="127002880" sourceOutPoint="127130422" startPoint="115269473" zOrder="66">
          <properties properties="{&quot;BasicAdjustmentsProperty&quot;:{&quot;type&quot;:&quot;tree::any&quot;,&quot;value&quot;:{&quot;AdjustmentMode&quot;:{&quot;type&quot;:&quot;UTF8String&quot;,&quot;value&quot;:&quot;dialog&quot;},&quot;ClaritySection&quot;:{&quot;type&quot;:&quot;tree::any&quot;,&quot;value&quot;:{&quot;Dynamics&quot;:{&quot;type&quot;:&quot;tree::any&quot;,&quot;value&quot;:{&quot;2&quot;:{&quot;type&quot;:&quot;tree::any&quot;,&quot;value&quot;:{&quot;Value&quot;:{&quot;type&quot;:&quot;float&quot;,&quot;value&quot;:3}}}}},&quot;Enabled&quot;:{&quot;type&quot;:&quot;bool&quot;,&quot;value&quot;:true}}},&quot;ClipType&quot;:{&quot;type&quot;:&quot;std::int32_t&quot;,&quot;value&quot;:1},&quot;EnhanceSpeechSection&quot;:{&quot;type&quot;:&quot;tree::any&quot;,&quot;value&quot;:{&quot;Enabled&quot;:{&quot;type&quot;:&quot;bool&quot;,&quot;value&quot;:true}}},&quot;PresetGuid&quot;:{&quot;type&quot;:&quot;UTF8String&quot;,&quot;value&quot;:&quot;bb717b4a-c0b1-4def-9040-3fb8e83b8a91&quot;},&quot;RestorationSection&quot;:{&quot;type&quot;:&quot;tree::any&quot;,&quot;value&quot;:{&quot;Enabled&quot;:{&quot;type&quot;:&quot;bool&quot;,&quot;value&quot;:true},&quot;ReduceHum&quot;:{&quot;type&quot;:&quot;tree::any&quot;,&quot;value&quot;:{&quot;4&quot;:{&quot;type&quot;:&quot;tree::any&quot;,&quot;value&quot;:{&quot;Value&quot;:{&quot;type&quot;:&quot;float&quot;,&quot;value&quot;:7.143000602722168}}},&quot;9&quot;:{&quot;type&quot;:&quot;tree::any&quot;,&quot;value&quot;:{&quot;Value&quot;:{&quot;type&quot;:&quot;float&quot;,&quot;value&quot;:60}}}}}}},&quot;SoundEffectsSection&quot;:{&quot;type&quot;:&quot;tree::any&quot;,&quot;value&quot;:{&quot;Enabled&quot;:{&quot;type&quot;:&quot;bool&quot;,&quot;value&quot;:true},&quot;Reverb&quot;:{&quot;type&quot;:&quot;tree::any&quot;,&quot;value&quot;:{&quot;3&quot;:{&quot;type&quot;:&quot;tree::any&quot;,&quot;value&quot;:{&quot;Value&quot;:{&quot;type&quot;:&quot;float&quot;,&quot;value&quot;:2}}}}}}},&quot;VolumeSection&quot;:{&quot;type&quot;:&quot;tree::any&quot;,&quot;value&quot;:{&quot;Enabled&quot;:{&quot;type&quot;:&quot;bool&quot;,&quot;value&quot;:true}}}}}}"/>
          <component componentGuid="b7cca63e-6fe0-4d86-98e3-ae6a601f9d72" componentID="Audition.Fader" id="clipGain" name="volume" powered="true">
            <parameter index="0" name="volume" parameterValue="1"/>
            <parameter index="1" name="static gain" parameterValue="1"/>
          </component>
          <component componentGuid="6e94f070-1e30-4151-b0ce-0c27f4478dfa" componentID="Audition.Mute" id="clipMute" name="Mute" powered="true">
            <parameter index="0" parameterValue="0"/>
            <parameter index="1" name="mute" parameterValue="0"/>
          </component>
          <component componentGuid="331882af-312a-4d80-b057-1f03082d5c77" componentID="Audition.StereoPanner" id="clipPan" name="StereoPanner" powered="true">
            <parameter index="0" name="Pan" parameterValue="0"/>
          </component>
          <fadeIn crossFadeLinkType="linkedAsymmetric" endPoint="11025" shape="19" startPoint="0" type="log"/>
          <fadeOut crossFadeLinkType="linkedAsymmetric" endPoint="127542" shape="19" startPoint="127542" type="log"/>
          <editParameter parameterIndex="0" slotIndex="4294967280"/>
          <editParameter parameterIndex="0" slotIndex="4294967281"/>
          <channelMap>
            <channel index="0" sourceIndex="0"/>
          </channelMap>
        </audioClip>
        <audioClip clipAutoCrossfade="true" crossFadeHeadClipID="-1" crossFadeTailClipID="-1" endPoint="116117780" fileID="1" hue="-1" id="71" lockedInTime="false" looped="false" name="Emily" offline="false" select="false" sourceInPoint="127336860" sourceOutPoint="127851619" startPoint="115603021" zOrder="80">
          <properties properties="{&quot;BasicAdjustmentsProperty&quot;:{&quot;type&quot;:&quot;tree::any&quot;,&quot;value&quot;:{&quot;AdjustmentMode&quot;:{&quot;type&quot;:&quot;UTF8String&quot;,&quot;value&quot;:&quot;dialog&quot;},&quot;ClaritySection&quot;:{&quot;type&quot;:&quot;tree::any&quot;,&quot;value&quot;:{&quot;Dynamics&quot;:{&quot;type&quot;:&quot;tree::any&quot;,&quot;value&quot;:{&quot;2&quot;:{&quot;type&quot;:&quot;tree::any&quot;,&quot;value&quot;:{&quot;Value&quot;:{&quot;type&quot;:&quot;float&quot;,&quot;value&quot;:3}}}}},&quot;Enabled&quot;:{&quot;type&quot;:&quot;bool&quot;,&quot;value&quot;:true}}},&quot;ClipType&quot;:{&quot;type&quot;:&quot;std::int32_t&quot;,&quot;value&quot;:1},&quot;EnhanceSpeechSection&quot;:{&quot;type&quot;:&quot;tree::any&quot;,&quot;value&quot;:{&quot;Enabled&quot;:{&quot;type&quot;:&quot;bool&quot;,&quot;value&quot;:true}}},&quot;PresetGuid&quot;:{&quot;type&quot;:&quot;UTF8String&quot;,&quot;value&quot;:&quot;bb717b4a-c0b1-4def-9040-3fb8e83b8a91&quot;},&quot;RestorationSection&quot;:{&quot;type&quot;:&quot;tree::any&quot;,&quot;value&quot;:{&quot;Enabled&quot;:{&quot;type&quot;:&quot;bool&quot;,&quot;value&quot;:true},&quot;ReduceHum&quot;:{&quot;type&quot;:&quot;tree::any&quot;,&quot;value&quot;:{&quot;4&quot;:{&quot;type&quot;:&quot;tree::any&quot;,&quot;value&quot;:{&quot;Value&quot;:{&quot;type&quot;:&quot;float&quot;,&quot;value&quot;:7.143000602722168}}},&quot;9&quot;:{&quot;type&quot;:&quot;tree::any&quot;,&quot;value&quot;:{&quot;Value&quot;:{&quot;type&quot;:&quot;float&quot;,&quot;value&quot;:60}}}}}}},&quot;SoundEffectsSection&quot;:{&quot;type&quot;:&quot;tree::any&quot;,&quot;value&quot;:{&quot;Enabled&quot;:{&quot;type&quot;:&quot;bool&quot;,&quot;value&quot;:true},&quot;Reverb&quot;:{&quot;type&quot;:&quot;tree::any&quot;,&quot;value&quot;:{&quot;3&quot;:{&quot;type&quot;:&quot;tree::any&quot;,&quot;value&quot;:{&quot;Value&quot;:{&quot;type&quot;:&quot;float&quot;,&quot;value&quot;:2}}}}}}},&quot;VolumeSection&quot;:{&quot;type&quot;:&quot;tree::any&quot;,&quot;value&quot;:{&quot;Enabled&quot;:{&quot;type&quot;:&quot;bool&quot;,&quot;value&quot;:true}}}}}}"/>
          <component componentGuid="c17c7719-a15a-41f6-850c-a8e9332d357d" componentID="Audition.Fader" id="clipGain" name="volume" powered="true">
            <parameter index="0" name="volume" parameterValue="1"/>
            <parameter index="1" name="static gain" parameterValue="1"/>
          </component>
          <component componentGuid="1ead57e6-32f3-4c72-a0fa-369a614d409f" componentID="Audition.Mute" id="clipMute" name="Mute" powered="true">
            <parameter index="0" parameterValue="0"/>
            <parameter index="1" name="mute" parameterValue="0"/>
          </component>
          <component componentGuid="d4f50d9d-65dc-408c-8cc9-52e9e375ec05" componentID="Audition.StereoPanner" id="clipPan" name="StereoPanner" powered="true">
            <parameter index="0" name="Pan" parameterValue="0"/>
          </component>
          <fadeIn crossFadeLinkType="linkedAsymmetric" endPoint="11025" shape="19" startPoint="0" type="log"/>
          <fadeOut crossFadeLinkType="linkedAsymmetric" endPoint="514759" shape="19" startPoint="503734" type="log"/>
          <editParameter parameterIndex="0" slotIndex="4294967280"/>
          <editParameter parameterIndex="0" slotIndex="4294967281"/>
          <channelMap>
            <channel index="0" sourceIndex="0"/>
          </channelMap>
        </audioClip>
        <audioClip clipAutoCrossfade="true" crossFadeHeadClipID="-1" crossFadeTailClipID="-1" endPoint="116683052" fileID="1" hue="-1" id="72" lockedInTime="false" looped="false" name="Emily" offline="false" select="false" sourceInPoint="128206263" sourceOutPoint="128416901" startPoint="116472414" zOrder="81">
          <properties properties="{&quot;BasicAdjustmentsProperty&quot;:{&quot;type&quot;:&quot;tree::any&quot;,&quot;value&quot;:{&quot;AdjustmentMode&quot;:{&quot;type&quot;:&quot;UTF8String&quot;,&quot;value&quot;:&quot;dialog&quot;},&quot;ClaritySection&quot;:{&quot;type&quot;:&quot;tree::any&quot;,&quot;value&quot;:{&quot;Dynamics&quot;:{&quot;type&quot;:&quot;tree::any&quot;,&quot;value&quot;:{&quot;2&quot;:{&quot;type&quot;:&quot;tree::any&quot;,&quot;value&quot;:{&quot;Value&quot;:{&quot;type&quot;:&quot;float&quot;,&quot;value&quot;:3}}}}},&quot;Enabled&quot;:{&quot;type&quot;:&quot;bool&quot;,&quot;value&quot;:true}}},&quot;ClipType&quot;:{&quot;type&quot;:&quot;std::int32_t&quot;,&quot;value&quot;:1},&quot;EnhanceSpeechSection&quot;:{&quot;type&quot;:&quot;tree::any&quot;,&quot;value&quot;:{&quot;Enabled&quot;:{&quot;type&quot;:&quot;bool&quot;,&quot;value&quot;:true}}},&quot;PresetGuid&quot;:{&quot;type&quot;:&quot;UTF8String&quot;,&quot;value&quot;:&quot;bb717b4a-c0b1-4def-9040-3fb8e83b8a91&quot;},&quot;RestorationSection&quot;:{&quot;type&quot;:&quot;tree::any&quot;,&quot;value&quot;:{&quot;Enabled&quot;:{&quot;type&quot;:&quot;bool&quot;,&quot;value&quot;:true},&quot;ReduceHum&quot;:{&quot;type&quot;:&quot;tree::any&quot;,&quot;value&quot;:{&quot;4&quot;:{&quot;type&quot;:&quot;tree::any&quot;,&quot;value&quot;:{&quot;Value&quot;:{&quot;type&quot;:&quot;float&quot;,&quot;value&quot;:7.143000602722168}}},&quot;9&quot;:{&quot;type&quot;:&quot;tree::any&quot;,&quot;value&quot;:{&quot;Value&quot;:{&quot;type&quot;:&quot;float&quot;,&quot;value&quot;:60}}}}}}},&quot;SoundEffectsSection&quot;:{&quot;type&quot;:&quot;tree::any&quot;,&quot;value&quot;:{&quot;Enabled&quot;:{&quot;type&quot;:&quot;bool&quot;,&quot;value&quot;:true},&quot;Reverb&quot;:{&quot;type&quot;:&quot;tree::any&quot;,&quot;value&quot;:{&quot;3&quot;:{&quot;type&quot;:&quot;tree::any&quot;,&quot;value&quot;:{&quot;Value&quot;:{&quot;type&quot;:&quot;float&quot;,&quot;value&quot;:2}}}}}}},&quot;VolumeSection&quot;:{&quot;type&quot;:&quot;tree::any&quot;,&quot;value&quot;:{&quot;Enabled&quot;:{&quot;type&quot;:&quot;bool&quot;,&quot;value&quot;:true}}}}}}"/>
          <component componentGuid="6ee22e37-3ec1-42fe-8af3-3c7b1350c807" componentID="Audition.Fader" id="clipGain" name="volume" powered="true">
            <parameter index="0" name="volume" parameterValue="1"/>
            <parameter index="1" name="static gain" parameterValue="1"/>
          </component>
          <component componentGuid="80b3a650-fa71-49e0-bd2c-b010e40d9dd7" componentID="Audition.Mute" id="clipMute" name="Mute" powered="true">
            <parameter index="0" parameterValue="0"/>
            <parameter index="1" name="mute" parameterValue="0"/>
          </component>
          <component componentGuid="8626a039-a80f-456e-a6cd-647dc641e5bb" componentID="Audition.StereoPanner" id="clipPan" name="StereoPanner" powered="true">
            <parameter index="0" name="Pan" parameterValue="0"/>
          </component>
          <fadeIn crossFadeLinkType="linkedAsymmetric" endPoint="11025" shape="19" startPoint="0" type="log"/>
          <fadeOut crossFadeLinkType="linkedAsymmetric" endPoint="210638" shape="19" startPoint="199613" type="log"/>
          <editParameter parameterIndex="0" slotIndex="4294967280"/>
          <editParameter parameterIndex="0" slotIndex="4294967281"/>
          <channelMap>
            <channel index="0" sourceIndex="0"/>
          </channelMap>
        </audioClip>
        <audioClip clipAutoCrossfade="true" crossFadeHeadClipID="-1" crossFadeTailClipID="-1" endPoint="117040330" fileID="1" hue="-1" id="73" lockedInTime="false" looped="false" name="Emily" offline="false" select="false" sourceInPoint="128596768" sourceOutPoint="128774181" startPoint="116862917" zOrder="82">
          <properties properties="{&quot;BasicAdjustmentsProperty&quot;:{&quot;type&quot;:&quot;tree::any&quot;,&quot;value&quot;:{&quot;AdjustmentMode&quot;:{&quot;type&quot;:&quot;UTF8String&quot;,&quot;value&quot;:&quot;dialog&quot;},&quot;ClaritySection&quot;:{&quot;type&quot;:&quot;tree::any&quot;,&quot;value&quot;:{&quot;Dynamics&quot;:{&quot;type&quot;:&quot;tree::any&quot;,&quot;value&quot;:{&quot;2&quot;:{&quot;type&quot;:&quot;tree::any&quot;,&quot;value&quot;:{&quot;Value&quot;:{&quot;type&quot;:&quot;float&quot;,&quot;value&quot;:3}}}}},&quot;Enabled&quot;:{&quot;type&quot;:&quot;bool&quot;,&quot;value&quot;:true}}},&quot;ClipType&quot;:{&quot;type&quot;:&quot;std::int32_t&quot;,&quot;value&quot;:1},&quot;EnhanceSpeechSection&quot;:{&quot;type&quot;:&quot;tree::any&quot;,&quot;value&quot;:{&quot;Enabled&quot;:{&quot;type&quot;:&quot;bool&quot;,&quot;value&quot;:true}}},&quot;PresetGuid&quot;:{&quot;type&quot;:&quot;UTF8String&quot;,&quot;value&quot;:&quot;bb717b4a-c0b1-4def-9040-3fb8e83b8a91&quot;},&quot;RestorationSection&quot;:{&quot;type&quot;:&quot;tree::any&quot;,&quot;value&quot;:{&quot;Enabled&quot;:{&quot;type&quot;:&quot;bool&quot;,&quot;value&quot;:true},&quot;ReduceHum&quot;:{&quot;type&quot;:&quot;tree::any&quot;,&quot;value&quot;:{&quot;4&quot;:{&quot;type&quot;:&quot;tree::any&quot;,&quot;value&quot;:{&quot;Value&quot;:{&quot;type&quot;:&quot;float&quot;,&quot;value&quot;:7.143000602722168}}},&quot;9&quot;:{&quot;type&quot;:&quot;tree::any&quot;,&quot;value&quot;:{&quot;Value&quot;:{&quot;type&quot;:&quot;float&quot;,&quot;value&quot;:60}}}}}}},&quot;SoundEffectsSection&quot;:{&quot;type&quot;:&quot;tree::any&quot;,&quot;value&quot;:{&quot;Enabled&quot;:{&quot;type&quot;:&quot;bool&quot;,&quot;value&quot;:true},&quot;Reverb&quot;:{&quot;type&quot;:&quot;tree::any&quot;,&quot;value&quot;:{&quot;3&quot;:{&quot;type&quot;:&quot;tree::any&quot;,&quot;value&quot;:{&quot;Value&quot;:{&quot;type&quot;:&quot;float&quot;,&quot;value&quot;:2}}}}}}},&quot;VolumeSection&quot;:{&quot;type&quot;:&quot;tree::any&quot;,&quot;value&quot;:{&quot;Enabled&quot;:{&quot;type&quot;:&quot;bool&quot;,&quot;value&quot;:true}}}}}}"/>
          <component componentGuid="41569dbc-b933-4138-a938-e4eb1b8a7ad0" componentID="Audition.Fader" id="clipGain" name="volume" powered="true">
            <parameter index="0" name="volume" parameterValue="1"/>
            <parameter index="1" name="static gain" parameterValue="1"/>
          </component>
          <component componentGuid="28b58637-c0ef-4cf9-9760-8e9cb719df4e" componentID="Audition.Mute" id="clipMute" name="Mute" powered="true">
            <parameter index="0" parameterValue="0"/>
            <parameter index="1" name="mute" parameterValue="0"/>
          </component>
          <component componentGuid="76cbb163-47c2-4596-a0aa-df76bb6e156f" componentID="Audition.StereoPanner" id="clipPan" name="StereoPanner" powered="true">
            <parameter index="0" name="Pan" parameterValue="0"/>
          </component>
          <fadeIn crossFadeLinkType="linkedAsymmetric" endPoint="0" shape="19" startPoint="0" type="log"/>
          <fadeOut crossFadeLinkType="linkedAsymmetric" endPoint="177413" shape="19" startPoint="166388" type="log"/>
          <editParameter parameterIndex="0" slotIndex="4294967280"/>
          <editParameter parameterIndex="0" slotIndex="4294967281"/>
          <channelMap>
            <channel index="0" sourceIndex="0"/>
          </channelMap>
        </audioClip>
        <audioClip clipAutoCrossfade="true" crossFadeHeadClipID="-1" crossFadeTailClipID="-1" endPoint="117754291" fileID="1" hue="-1" id="74" lockedInTime="false" looped="false" name="Emily" offline="false" select="false" sourceInPoint="128984054" sourceOutPoint="129487690" startPoint="117250655" zOrder="76">
          <properties properties="{&quot;BasicAdjustmentsProperty&quot;:{&quot;type&quot;:&quot;tree::any&quot;,&quot;value&quot;:{&quot;AdjustmentMode&quot;:{&quot;type&quot;:&quot;UTF8String&quot;,&quot;value&quot;:&quot;dialog&quot;},&quot;ClaritySection&quot;:{&quot;type&quot;:&quot;tree::any&quot;,&quot;value&quot;:{&quot;Dynamics&quot;:{&quot;type&quot;:&quot;tree::any&quot;,&quot;value&quot;:{&quot;2&quot;:{&quot;type&quot;:&quot;tree::any&quot;,&quot;value&quot;:{&quot;Value&quot;:{&quot;type&quot;:&quot;float&quot;,&quot;value&quot;:3}}}}},&quot;Enabled&quot;:{&quot;type&quot;:&quot;bool&quot;,&quot;value&quot;:true}}},&quot;ClipType&quot;:{&quot;type&quot;:&quot;std::int32_t&quot;,&quot;value&quot;:1},&quot;EnhanceSpeechSection&quot;:{&quot;type&quot;:&quot;tree::any&quot;,&quot;value&quot;:{&quot;Enabled&quot;:{&quot;type&quot;:&quot;bool&quot;,&quot;value&quot;:true}}},&quot;PresetGuid&quot;:{&quot;type&quot;:&quot;UTF8String&quot;,&quot;value&quot;:&quot;bb717b4a-c0b1-4def-9040-3fb8e83b8a91&quot;},&quot;RestorationSection&quot;:{&quot;type&quot;:&quot;tree::any&quot;,&quot;value&quot;:{&quot;Enabled&quot;:{&quot;type&quot;:&quot;bool&quot;,&quot;value&quot;:true},&quot;ReduceHum&quot;:{&quot;type&quot;:&quot;tree::any&quot;,&quot;value&quot;:{&quot;4&quot;:{&quot;type&quot;:&quot;tree::any&quot;,&quot;value&quot;:{&quot;Value&quot;:{&quot;type&quot;:&quot;float&quot;,&quot;value&quot;:7.143000602722168}}},&quot;9&quot;:{&quot;type&quot;:&quot;tree::any&quot;,&quot;value&quot;:{&quot;Value&quot;:{&quot;type&quot;:&quot;float&quot;,&quot;value&quot;:60}}}}}}},&quot;SoundEffectsSection&quot;:{&quot;type&quot;:&quot;tree::any&quot;,&quot;value&quot;:{&quot;Enabled&quot;:{&quot;type&quot;:&quot;bool&quot;,&quot;value&quot;:true},&quot;Reverb&quot;:{&quot;type&quot;:&quot;tree::any&quot;,&quot;value&quot;:{&quot;3&quot;:{&quot;type&quot;:&quot;tree::any&quot;,&quot;value&quot;:{&quot;Value&quot;:{&quot;type&quot;:&quot;float&quot;,&quot;value&quot;:2}}}}}}},&quot;VolumeSection&quot;:{&quot;type&quot;:&quot;tree::any&quot;,&quot;value&quot;:{&quot;Enabled&quot;:{&quot;type&quot;:&quot;bool&quot;,&quot;value&quot;:true}}}}}}"/>
          <component componentGuid="06b5b53b-67c6-4773-88cf-f96132d1138d" componentID="Audition.Fader" id="clipGain" name="volume" powered="true">
            <parameter index="0" name="volume" parameterValue="1"/>
            <parameter index="1" name="static gain" parameterValue="1"/>
          </component>
          <component componentGuid="e29d9e5a-9a6c-4ce1-8f44-f7ffd73a4ec7" componentID="Audition.Mute" id="clipMute" name="Mute" powered="true">
            <parameter index="0" parameterValue="0"/>
            <parameter index="1" name="mute" parameterValue="0"/>
          </component>
          <component componentGuid="fa2dcbc6-7d36-474a-a4c7-3c94f3434f97" componentID="Audition.StereoPanner" id="clipPan" name="StereoPanner" powered="true">
            <parameter index="0" name="Pan" parameterValue="0"/>
          </component>
          <fadeIn crossFadeLinkType="linkedAsymmetric" endPoint="11025" shape="19" startPoint="0" type="log"/>
          <fadeOut crossFadeLinkType="linkedAsymmetric" endPoint="503636" shape="19" startPoint="492611" type="log"/>
          <editParameter parameterIndex="0" slotIndex="4294967280"/>
          <editParameter parameterIndex="0" slotIndex="4294967281"/>
          <channelMap>
            <channel index="0" sourceIndex="0"/>
          </channelMap>
        </audioClip>
        <audioClip clipAutoCrossfade="true" crossFadeHeadClipID="-1" crossFadeTailClipID="-1" endPoint="118053370" fileID="1" hue="-1" id="75" lockedInTime="false" looped="false" name="Emily" offline="false" select="false" sourceInPoint="129645841" sourceOutPoint="129786727" startPoint="117912484" zOrder="75">
          <properties properties="{&quot;BasicAdjustmentsProperty&quot;:{&quot;type&quot;:&quot;tree::any&quot;,&quot;value&quot;:{&quot;AdjustmentMode&quot;:{&quot;type&quot;:&quot;UTF8String&quot;,&quot;value&quot;:&quot;dialog&quot;},&quot;ClaritySection&quot;:{&quot;type&quot;:&quot;tree::any&quot;,&quot;value&quot;:{&quot;Dynamics&quot;:{&quot;type&quot;:&quot;tree::any&quot;,&quot;value&quot;:{&quot;2&quot;:{&quot;type&quot;:&quot;tree::any&quot;,&quot;value&quot;:{&quot;Value&quot;:{&quot;type&quot;:&quot;float&quot;,&quot;value&quot;:3}}}}},&quot;Enabled&quot;:{&quot;type&quot;:&quot;bool&quot;,&quot;value&quot;:true}}},&quot;ClipType&quot;:{&quot;type&quot;:&quot;std::int32_t&quot;,&quot;value&quot;:1},&quot;EnhanceSpeechSection&quot;:{&quot;type&quot;:&quot;tree::any&quot;,&quot;value&quot;:{&quot;Enabled&quot;:{&quot;type&quot;:&quot;bool&quot;,&quot;value&quot;:true}}},&quot;PresetGuid&quot;:{&quot;type&quot;:&quot;UTF8String&quot;,&quot;value&quot;:&quot;bb717b4a-c0b1-4def-9040-3fb8e83b8a91&quot;},&quot;RestorationSection&quot;:{&quot;type&quot;:&quot;tree::any&quot;,&quot;value&quot;:{&quot;Enabled&quot;:{&quot;type&quot;:&quot;bool&quot;,&quot;value&quot;:true},&quot;ReduceHum&quot;:{&quot;type&quot;:&quot;tree::any&quot;,&quot;value&quot;:{&quot;4&quot;:{&quot;type&quot;:&quot;tree::any&quot;,&quot;value&quot;:{&quot;Value&quot;:{&quot;type&quot;:&quot;float&quot;,&quot;value&quot;:7.143000602722168}}},&quot;9&quot;:{&quot;type&quot;:&quot;tree::any&quot;,&quot;value&quot;:{&quot;Value&quot;:{&quot;type&quot;:&quot;float&quot;,&quot;value&quot;:60}}}}}}},&quot;SoundEffectsSection&quot;:{&quot;type&quot;:&quot;tree::any&quot;,&quot;value&quot;:{&quot;Enabled&quot;:{&quot;type&quot;:&quot;bool&quot;,&quot;value&quot;:true},&quot;Reverb&quot;:{&quot;type&quot;:&quot;tree::any&quot;,&quot;value&quot;:{&quot;3&quot;:{&quot;type&quot;:&quot;tree::any&quot;,&quot;value&quot;:{&quot;Value&quot;:{&quot;type&quot;:&quot;float&quot;,&quot;value&quot;:2}}}}}}},&quot;VolumeSection&quot;:{&quot;type&quot;:&quot;tree::any&quot;,&quot;value&quot;:{&quot;Enabled&quot;:{&quot;type&quot;:&quot;bool&quot;,&quot;value&quot;:true}}}}}}"/>
          <component componentGuid="b77add28-8934-42d1-b49d-33d30b15047f" componentID="Audition.Fader" id="clipGain" name="volume" powered="true">
            <parameter index="0" name="volume" parameterValue="1"/>
            <parameter index="1" name="static gain" parameterValue="1"/>
          </component>
          <component componentGuid="cb628e34-5dea-40cd-b735-f02d07373af8" componentID="Audition.Mute" id="clipMute" name="Mute" powered="true">
            <parameter index="0" parameterValue="0"/>
            <parameter index="1" name="mute" parameterValue="0"/>
          </component>
          <component componentGuid="c5ee8679-72c7-4cf1-ad61-0c49062ad2b7" componentID="Audition.StereoPanner" id="clipPan" name="StereoPanner" powered="true">
            <parameter index="0" name="Pan" parameterValue="0"/>
          </component>
          <fadeIn crossFadeLinkType="linkedAsymmetric" endPoint="0" shape="19" startPoint="0" type="log"/>
          <fadeOut crossFadeLinkType="linkedAsymmetric" endPoint="140886" shape="19" startPoint="140886" type="log"/>
          <editParameter parameterIndex="0" slotIndex="4294967280"/>
          <editParameter parameterIndex="0" slotIndex="4294967281"/>
          <channelMap>
            <channel index="0" sourceIndex="0"/>
          </channelMap>
        </audioClip>
        <audioClip clipAutoCrossfade="true" crossFadeHeadClipID="-1" crossFadeTailClipID="-1" endPoint="120658573" fileID="1" hue="-1" id="76" lockedInTime="false" looped="false" name="Emily" offline="false" select="false" sourceInPoint="132248136" sourceOutPoint="132391973" startPoint="120514736" zOrder="86">
          <properties properties="{&quot;BasicAdjustmentsProperty&quot;:{&quot;type&quot;:&quot;tree::any&quot;,&quot;value&quot;:{&quot;AdjustmentMode&quot;:{&quot;type&quot;:&quot;UTF8String&quot;,&quot;value&quot;:&quot;dialog&quot;},&quot;ClaritySection&quot;:{&quot;type&quot;:&quot;tree::any&quot;,&quot;value&quot;:{&quot;Dynamics&quot;:{&quot;type&quot;:&quot;tree::any&quot;,&quot;value&quot;:{&quot;2&quot;:{&quot;type&quot;:&quot;tree::any&quot;,&quot;value&quot;:{&quot;Value&quot;:{&quot;type&quot;:&quot;float&quot;,&quot;value&quot;:3}}}}},&quot;Enabled&quot;:{&quot;type&quot;:&quot;bool&quot;,&quot;value&quot;:true}}},&quot;ClipType&quot;:{&quot;type&quot;:&quot;std::int32_t&quot;,&quot;value&quot;:1},&quot;EnhanceSpeechSection&quot;:{&quot;type&quot;:&quot;tree::any&quot;,&quot;value&quot;:{&quot;Enabled&quot;:{&quot;type&quot;:&quot;bool&quot;,&quot;value&quot;:true}}},&quot;PresetGuid&quot;:{&quot;type&quot;:&quot;UTF8String&quot;,&quot;value&quot;:&quot;bb717b4a-c0b1-4def-9040-3fb8e83b8a91&quot;},&quot;RestorationSection&quot;:{&quot;type&quot;:&quot;tree::any&quot;,&quot;value&quot;:{&quot;Enabled&quot;:{&quot;type&quot;:&quot;bool&quot;,&quot;value&quot;:true},&quot;ReduceHum&quot;:{&quot;type&quot;:&quot;tree::any&quot;,&quot;value&quot;:{&quot;4&quot;:{&quot;type&quot;:&quot;tree::any&quot;,&quot;value&quot;:{&quot;Value&quot;:{&quot;type&quot;:&quot;float&quot;,&quot;value&quot;:7.143000602722168}}},&quot;9&quot;:{&quot;type&quot;:&quot;tree::any&quot;,&quot;value&quot;:{&quot;Value&quot;:{&quot;type&quot;:&quot;float&quot;,&quot;value&quot;:60}}}}}}},&quot;SoundEffectsSection&quot;:{&quot;type&quot;:&quot;tree::any&quot;,&quot;value&quot;:{&quot;Enabled&quot;:{&quot;type&quot;:&quot;bool&quot;,&quot;value&quot;:true},&quot;Reverb&quot;:{&quot;type&quot;:&quot;tree::any&quot;,&quot;value&quot;:{&quot;3&quot;:{&quot;type&quot;:&quot;tree::any&quot;,&quot;value&quot;:{&quot;Value&quot;:{&quot;type&quot;:&quot;float&quot;,&quot;value&quot;:2}}}}}}},&quot;VolumeSection&quot;:{&quot;type&quot;:&quot;tree::any&quot;,&quot;value&quot;:{&quot;Enabled&quot;:{&quot;type&quot;:&quot;bool&quot;,&quot;value&quot;:true}}}}}}"/>
          <component componentGuid="390a2c32-8a88-4e6a-9c40-f6bb9d25badf" componentID="Audition.Fader" id="clipGain" name="volume" powered="true">
            <parameter index="0" name="volume" parameterValue="1"/>
            <parameter index="1" name="static gain" parameterValue="1"/>
          </component>
          <component componentGuid="b1ef0904-284c-490e-924d-705d39cdd2a9" componentID="Audition.Mute" id="clipMute" name="Mute" powered="true">
            <parameter index="0" parameterValue="0"/>
            <parameter index="1" name="mute" parameterValue="0"/>
          </component>
          <component componentGuid="d7ef4c27-578d-4573-8c34-74be2d394415" componentID="Audition.StereoPanner" id="clipPan" name="StereoPanner" powered="true">
            <parameter index="0" name="Pan" parameterValue="0"/>
          </component>
          <fadeIn crossFadeLinkType="linkedAsymmetric" endPoint="11025" shape="19" startPoint="0" type="log"/>
          <fadeOut crossFadeLinkType="linkedAsymmetric" endPoint="143837" shape="19" startPoint="143837" type="log"/>
          <editParameter parameterIndex="0" slotIndex="4294967280"/>
          <editParameter parameterIndex="0" slotIndex="4294967281"/>
          <channelMap>
            <channel index="0" sourceIndex="0"/>
          </channelMap>
        </audioClip>
        <audioClip clipAutoCrossfade="true" crossFadeHeadClipID="-1" crossFadeTailClipID="-1" endPoint="125110411" fileID="1" hue="-1" id="77" lockedInTime="false" looped="false" name="Emily" offline="false" select="false" sourceInPoint="138337495" sourceOutPoint="138872279" startPoint="124575627" zOrder="169">
          <properties properties="{&quot;BasicAdjustmentsProperty&quot;:{&quot;type&quot;:&quot;tree::any&quot;,&quot;value&quot;:{&quot;AdjustmentMode&quot;:{&quot;type&quot;:&quot;UTF8String&quot;,&quot;value&quot;:&quot;dialog&quot;},&quot;ClaritySection&quot;:{&quot;type&quot;:&quot;tree::any&quot;,&quot;value&quot;:{&quot;Dynamics&quot;:{&quot;type&quot;:&quot;tree::any&quot;,&quot;value&quot;:{&quot;2&quot;:{&quot;type&quot;:&quot;tree::any&quot;,&quot;value&quot;:{&quot;Value&quot;:{&quot;type&quot;:&quot;float&quot;,&quot;value&quot;:3}}}}},&quot;Enabled&quot;:{&quot;type&quot;:&quot;bool&quot;,&quot;value&quot;:true}}},&quot;ClipType&quot;:{&quot;type&quot;:&quot;std::int32_t&quot;,&quot;value&quot;:1},&quot;EnhanceSpeechSection&quot;:{&quot;type&quot;:&quot;tree::any&quot;,&quot;value&quot;:{&quot;Enabled&quot;:{&quot;type&quot;:&quot;bool&quot;,&quot;value&quot;:true}}},&quot;PresetGuid&quot;:{&quot;type&quot;:&quot;UTF8String&quot;,&quot;value&quot;:&quot;bb717b4a-c0b1-4def-9040-3fb8e83b8a91&quot;},&quot;RestorationSection&quot;:{&quot;type&quot;:&quot;tree::any&quot;,&quot;value&quot;:{&quot;Enabled&quot;:{&quot;type&quot;:&quot;bool&quot;,&quot;value&quot;:true},&quot;ReduceHum&quot;:{&quot;type&quot;:&quot;tree::any&quot;,&quot;value&quot;:{&quot;4&quot;:{&quot;type&quot;:&quot;tree::any&quot;,&quot;value&quot;:{&quot;Value&quot;:{&quot;type&quot;:&quot;float&quot;,&quot;value&quot;:7.143000602722168}}},&quot;9&quot;:{&quot;type&quot;:&quot;tree::any&quot;,&quot;value&quot;:{&quot;Value&quot;:{&quot;type&quot;:&quot;float&quot;,&quot;value&quot;:60}}}}}}},&quot;SoundEffectsSection&quot;:{&quot;type&quot;:&quot;tree::any&quot;,&quot;value&quot;:{&quot;Enabled&quot;:{&quot;type&quot;:&quot;bool&quot;,&quot;value&quot;:true},&quot;Reverb&quot;:{&quot;type&quot;:&quot;tree::any&quot;,&quot;value&quot;:{&quot;3&quot;:{&quot;type&quot;:&quot;tree::any&quot;,&quot;value&quot;:{&quot;Value&quot;:{&quot;type&quot;:&quot;float&quot;,&quot;value&quot;:2}}}}}}},&quot;VolumeSection&quot;:{&quot;type&quot;:&quot;tree::any&quot;,&quot;value&quot;:{&quot;Enabled&quot;:{&quot;type&quot;:&quot;bool&quot;,&quot;value&quot;:true}}}}},&quot;TempData&quot;:{&quot;type&quot;:&quot;tree::any&quot;,&quot;value&quot;:{}}}"/>
          <component componentGuid="f9f4d347-bfb4-46f0-b877-f8f8825158d0" componentID="Audition.Fader" id="clipGain" name="volume" powered="true">
            <parameter index="0" name="volume" parameterValue="1"/>
            <parameter index="1" name="static gain" parameterValue="1"/>
          </component>
          <component componentGuid="9db66b61-1a6c-48fc-bb0a-db3d7106bc57" componentID="Audition.Mute" id="clipMute" name="Mute" powered="true">
            <parameter index="0" parameterValue="0"/>
            <parameter index="1" name="mute" parameterValue="0"/>
          </component>
          <component componentGuid="3d628092-57e2-4b21-99d3-23cb25411fac" componentID="Audition.StereoPanner" id="clipPan" name="StereoPanner" powered="true">
            <parameter index="0" name="Pan" parameterValue="0"/>
          </component>
          <fadeIn crossFadeLinkType="linkedAsymmetric" endPoint="0" shape="19" startPoint="0" type="log"/>
          <fadeOut crossFadeLinkType="linkedAsymmetric" endPoint="534784" shape="19" startPoint="523759" type="log"/>
          <editParameter parameterIndex="0" slotIndex="4294967280"/>
          <editParameter parameterIndex="0" slotIndex="4294967281"/>
          <channelMap>
            <channel index="0" sourceIndex="0"/>
          </channelMap>
        </audioClip>
        <audioClip clipAutoCrossfade="true" crossFadeHeadClipID="-1" crossFadeTailClipID="-1" endPoint="125843333" fileID="1" hue="-1" id="78" lockedInTime="false" looped="false" name="Emily" offline="false" select="false" sourceInPoint="138937301" sourceOutPoint="139604716" startPoint="125175918" zOrder="166">
          <properties properties="{&quot;BasicAdjustmentsProperty&quot;:{&quot;type&quot;:&quot;tree::any&quot;,&quot;value&quot;:{&quot;AdjustmentMode&quot;:{&quot;type&quot;:&quot;UTF8String&quot;,&quot;value&quot;:&quot;dialog&quot;},&quot;ClaritySection&quot;:{&quot;type&quot;:&quot;tree::any&quot;,&quot;value&quot;:{&quot;Dynamics&quot;:{&quot;type&quot;:&quot;tree::any&quot;,&quot;value&quot;:{&quot;2&quot;:{&quot;type&quot;:&quot;tree::any&quot;,&quot;value&quot;:{&quot;Value&quot;:{&quot;type&quot;:&quot;float&quot;,&quot;value&quot;:3}}}}},&quot;Enabled&quot;:{&quot;type&quot;:&quot;bool&quot;,&quot;value&quot;:true}}},&quot;ClipType&quot;:{&quot;type&quot;:&quot;std::int32_t&quot;,&quot;value&quot;:1},&quot;EnhanceSpeechSection&quot;:{&quot;type&quot;:&quot;tree::any&quot;,&quot;value&quot;:{&quot;Enabled&quot;:{&quot;type&quot;:&quot;bool&quot;,&quot;value&quot;:true}}},&quot;PresetGuid&quot;:{&quot;type&quot;:&quot;UTF8String&quot;,&quot;value&quot;:&quot;bb717b4a-c0b1-4def-9040-3fb8e83b8a91&quot;},&quot;RestorationSection&quot;:{&quot;type&quot;:&quot;tree::any&quot;,&quot;value&quot;:{&quot;Enabled&quot;:{&quot;type&quot;:&quot;bool&quot;,&quot;value&quot;:true},&quot;ReduceHum&quot;:{&quot;type&quot;:&quot;tree::any&quot;,&quot;value&quot;:{&quot;4&quot;:{&quot;type&quot;:&quot;tree::any&quot;,&quot;value&quot;:{&quot;Value&quot;:{&quot;type&quot;:&quot;float&quot;,&quot;value&quot;:7.143000602722168}}},&quot;9&quot;:{&quot;type&quot;:&quot;tree::any&quot;,&quot;value&quot;:{&quot;Value&quot;:{&quot;type&quot;:&quot;float&quot;,&quot;value&quot;:60}}}}}}},&quot;SoundEffectsSection&quot;:{&quot;type&quot;:&quot;tree::any&quot;,&quot;value&quot;:{&quot;Enabled&quot;:{&quot;type&quot;:&quot;bool&quot;,&quot;value&quot;:true},&quot;Reverb&quot;:{&quot;type&quot;:&quot;tree::any&quot;,&quot;value&quot;:{&quot;3&quot;:{&quot;type&quot;:&quot;tree::any&quot;,&quot;value&quot;:{&quot;Value&quot;:{&quot;type&quot;:&quot;float&quot;,&quot;value&quot;:2}}}}}}},&quot;VolumeSection&quot;:{&quot;type&quot;:&quot;tree::any&quot;,&quot;value&quot;:{&quot;Enabled&quot;:{&quot;type&quot;:&quot;bool&quot;,&quot;value&quot;:true}}}}},&quot;TempData&quot;:{&quot;type&quot;:&quot;tree::any&quot;,&quot;value&quot;:{}}}"/>
          <component componentGuid="0a8a355a-2927-49d1-ba17-35af15e84d52" componentID="Audition.Fader" id="clipGain" name="volume" powered="true">
            <parameter index="0" name="volume" parameterValue="1"/>
            <parameter index="1" name="static gain" parameterValue="1"/>
          </component>
          <component componentGuid="06fedd2a-dbe8-4e41-a247-ce8648f79c9b" componentID="Audition.Mute" id="clipMute" name="Mute" powered="true">
            <parameter index="0" parameterValue="0"/>
            <parameter index="1" name="mute" parameterValue="0"/>
          </component>
          <component componentGuid="3b97e7d6-ab53-4c3f-810c-d5bfdf874da7" componentID="Audition.StereoPanner" id="clipPan" name="StereoPanner" powered="true">
            <parameter index="0" name="Pan" parameterValue="0"/>
          </component>
          <fadeIn crossFadeLinkType="linkedAsymmetric" endPoint="11025" shape="19" startPoint="0" type="log"/>
          <fadeOut crossFadeLinkType="linkedAsymmetric" endPoint="667415" shape="19" startPoint="667415" type="log"/>
          <editParameter parameterIndex="0" slotIndex="4294967280"/>
          <editParameter parameterIndex="0" slotIndex="4294967281"/>
          <channelMap>
            <channel index="0" sourceIndex="0"/>
          </channelMap>
        </audioClip>
        <audioClip clipAutoCrossfade="true" crossFadeHeadClipID="-1" crossFadeTailClipID="-1" endPoint="126225800" fileID="1" hue="-1" id="79" lockedInTime="false" looped="false" name="Emily" offline="false" select="false" sourceInPoint="139876074" sourceOutPoint="139987185" startPoint="126114689" zOrder="170">
          <properties properties="{&quot;BasicAdjustmentsProperty&quot;:{&quot;type&quot;:&quot;tree::any&quot;,&quot;value&quot;:{&quot;AdjustmentMode&quot;:{&quot;type&quot;:&quot;UTF8String&quot;,&quot;value&quot;:&quot;dialog&quot;},&quot;ClaritySection&quot;:{&quot;type&quot;:&quot;tree::any&quot;,&quot;value&quot;:{&quot;Dynamics&quot;:{&quot;type&quot;:&quot;tree::any&quot;,&quot;value&quot;:{&quot;2&quot;:{&quot;type&quot;:&quot;tree::any&quot;,&quot;value&quot;:{&quot;Value&quot;:{&quot;type&quot;:&quot;float&quot;,&quot;value&quot;:3}}}}},&quot;Enabled&quot;:{&quot;type&quot;:&quot;bool&quot;,&quot;value&quot;:true}}},&quot;ClipType&quot;:{&quot;type&quot;:&quot;std::int32_t&quot;,&quot;value&quot;:1},&quot;EnhanceSpeechSection&quot;:{&quot;type&quot;:&quot;tree::any&quot;,&quot;value&quot;:{&quot;Enabled&quot;:{&quot;type&quot;:&quot;bool&quot;,&quot;value&quot;:true}}},&quot;PresetGuid&quot;:{&quot;type&quot;:&quot;UTF8String&quot;,&quot;value&quot;:&quot;bb717b4a-c0b1-4def-9040-3fb8e83b8a91&quot;},&quot;RestorationSection&quot;:{&quot;type&quot;:&quot;tree::any&quot;,&quot;value&quot;:{&quot;Enabled&quot;:{&quot;type&quot;:&quot;bool&quot;,&quot;value&quot;:true},&quot;ReduceHum&quot;:{&quot;type&quot;:&quot;tree::any&quot;,&quot;value&quot;:{&quot;4&quot;:{&quot;type&quot;:&quot;tree::any&quot;,&quot;value&quot;:{&quot;Value&quot;:{&quot;type&quot;:&quot;float&quot;,&quot;value&quot;:7.143000602722168}}},&quot;9&quot;:{&quot;type&quot;:&quot;tree::any&quot;,&quot;value&quot;:{&quot;Value&quot;:{&quot;type&quot;:&quot;float&quot;,&quot;value&quot;:60}}}}}}},&quot;SoundEffectsSection&quot;:{&quot;type&quot;:&quot;tree::any&quot;,&quot;value&quot;:{&quot;Enabled&quot;:{&quot;type&quot;:&quot;bool&quot;,&quot;value&quot;:true},&quot;Reverb&quot;:{&quot;type&quot;:&quot;tree::any&quot;,&quot;value&quot;:{&quot;3&quot;:{&quot;type&quot;:&quot;tree::any&quot;,&quot;value&quot;:{&quot;Value&quot;:{&quot;type&quot;:&quot;float&quot;,&quot;value&quot;:2}}}}}}},&quot;VolumeSection&quot;:{&quot;type&quot;:&quot;tree::any&quot;,&quot;value&quot;:{&quot;Enabled&quot;:{&quot;type&quot;:&quot;bool&quot;,&quot;value&quot;:true}}}}},&quot;TempData&quot;:{&quot;type&quot;:&quot;tree::any&quot;,&quot;value&quot;:{}}}"/>
          <component componentGuid="9c991299-3cc5-4ea9-b7af-04effb52b2bd" componentID="Audition.Fader" id="clipGain" name="volume" powered="true">
            <parameter index="0" name="volume" parameterValue="1"/>
            <parameter index="1" name="static gain" parameterValue="1"/>
          </component>
          <component componentGuid="f06a5e24-6150-4cd6-9988-97f4836bdcc2" componentID="Audition.Mute" id="clipMute" name="Mute" powered="true">
            <parameter index="0" parameterValue="0"/>
            <parameter index="1" name="mute" parameterValue="0"/>
          </component>
          <component componentGuid="86db3fc2-8f7c-4206-91e7-0cc59f88cefa" componentID="Audition.StereoPanner" id="clipPan" name="StereoPanner" powered="true">
            <parameter index="0" name="Pan" parameterValue="0"/>
          </component>
          <fadeIn crossFadeLinkType="linkedAsymmetric" endPoint="11025" shape="19" startPoint="0" type="log"/>
          <fadeOut crossFadeLinkType="linkedAsymmetric" endPoint="111111" shape="19" startPoint="100086" type="log"/>
          <editParameter parameterIndex="0" slotIndex="4294967280"/>
          <editParameter parameterIndex="0" slotIndex="4294967281"/>
          <channelMap>
            <channel index="0" sourceIndex="0"/>
          </channelMap>
        </audioClip>
        <audioClip clipAutoCrossfade="true" crossFadeHeadClipID="-1" crossFadeTailClipID="-1" endPoint="127045521" fileID="1" hue="-1" id="80" lockedInTime="false" looped="false" name="Emily" offline="false" select="false" sourceInPoint="140064674" sourceOutPoint="140808233" startPoint="126301962" zOrder="171">
          <properties properties="{&quot;BasicAdjustmentsProperty&quot;:{&quot;type&quot;:&quot;tree::any&quot;,&quot;value&quot;:{&quot;AdjustmentMode&quot;:{&quot;type&quot;:&quot;UTF8String&quot;,&quot;value&quot;:&quot;dialog&quot;},&quot;ClaritySection&quot;:{&quot;type&quot;:&quot;tree::any&quot;,&quot;value&quot;:{&quot;Dynamics&quot;:{&quot;type&quot;:&quot;tree::any&quot;,&quot;value&quot;:{&quot;2&quot;:{&quot;type&quot;:&quot;tree::any&quot;,&quot;value&quot;:{&quot;Value&quot;:{&quot;type&quot;:&quot;float&quot;,&quot;value&quot;:3}}}}},&quot;Enabled&quot;:{&quot;type&quot;:&quot;bool&quot;,&quot;value&quot;:true}}},&quot;ClipType&quot;:{&quot;type&quot;:&quot;std::int32_t&quot;,&quot;value&quot;:1},&quot;EnhanceSpeechSection&quot;:{&quot;type&quot;:&quot;tree::any&quot;,&quot;value&quot;:{&quot;Enabled&quot;:{&quot;type&quot;:&quot;bool&quot;,&quot;value&quot;:true}}},&quot;PresetGuid&quot;:{&quot;type&quot;:&quot;UTF8String&quot;,&quot;value&quot;:&quot;bb717b4a-c0b1-4def-9040-3fb8e83b8a91&quot;},&quot;RestorationSection&quot;:{&quot;type&quot;:&quot;tree::any&quot;,&quot;value&quot;:{&quot;Enabled&quot;:{&quot;type&quot;:&quot;bool&quot;,&quot;value&quot;:true},&quot;ReduceHum&quot;:{&quot;type&quot;:&quot;tree::any&quot;,&quot;value&quot;:{&quot;4&quot;:{&quot;type&quot;:&quot;tree::any&quot;,&quot;value&quot;:{&quot;Value&quot;:{&quot;type&quot;:&quot;float&quot;,&quot;value&quot;:7.143000602722168}}},&quot;9&quot;:{&quot;type&quot;:&quot;tree::any&quot;,&quot;value&quot;:{&quot;Value&quot;:{&quot;type&quot;:&quot;float&quot;,&quot;value&quot;:60}}}}}}},&quot;SoundEffectsSection&quot;:{&quot;type&quot;:&quot;tree::any&quot;,&quot;value&quot;:{&quot;Enabled&quot;:{&quot;type&quot;:&quot;bool&quot;,&quot;value&quot;:true},&quot;Reverb&quot;:{&quot;type&quot;:&quot;tree::any&quot;,&quot;value&quot;:{&quot;3&quot;:{&quot;type&quot;:&quot;tree::any&quot;,&quot;value&quot;:{&quot;Value&quot;:{&quot;type&quot;:&quot;float&quot;,&quot;value&quot;:2}}}}}}},&quot;VolumeSection&quot;:{&quot;type&quot;:&quot;tree::any&quot;,&quot;value&quot;:{&quot;Enabled&quot;:{&quot;type&quot;:&quot;bool&quot;,&quot;value&quot;:true}}}}},&quot;TempData&quot;:{&quot;type&quot;:&quot;tree::any&quot;,&quot;value&quot;:{}}}"/>
          <component componentGuid="51a4582c-8e91-4f12-a389-04ad2f3a8cd7" componentID="Audition.Fader" id="clipGain" name="volume" powered="true">
            <parameter index="0" name="volume" parameterValue="1"/>
            <parameter index="1" name="static gain" parameterValue="1"/>
          </component>
          <component componentGuid="0d0c308d-44e3-46cd-b561-a6862419c14f" componentID="Audition.Mute" id="clipMute" name="Mute" powered="true">
            <parameter index="0" parameterValue="0"/>
            <parameter index="1" name="mute" parameterValue="0"/>
          </component>
          <component componentGuid="480d3e81-f566-46cf-b25a-4d58e1210543" componentID="Audition.StereoPanner" id="clipPan" name="StereoPanner" powered="true">
            <parameter index="0" name="Pan" parameterValue="0"/>
          </component>
          <fadeIn crossFadeLinkType="linkedAsymmetric" endPoint="11025" shape="19" startPoint="0" type="log"/>
          <fadeOut crossFadeLinkType="linkedAsymmetric" endPoint="743559" shape="19" startPoint="732534" type="log"/>
          <editParameter parameterIndex="0" slotIndex="4294967280"/>
          <editParameter parameterIndex="0" slotIndex="4294967281"/>
          <channelMap>
            <channel index="0" sourceIndex="0"/>
          </channelMap>
        </audioClip>
        <audioClip clipAutoCrossfade="true" crossFadeHeadClipID="-1" crossFadeTailClipID="-1" endPoint="127665406" fileID="1" hue="-1" id="81" lockedInTime="false" looped="false" name="Emily" offline="false" select="false" sourceInPoint="141374662" sourceOutPoint="141428118" startPoint="127611950" zOrder="168">
          <properties properties="{&quot;BasicAdjustmentsProperty&quot;:{&quot;type&quot;:&quot;tree::any&quot;,&quot;value&quot;:{&quot;AdjustmentMode&quot;:{&quot;type&quot;:&quot;UTF8String&quot;,&quot;value&quot;:&quot;dialog&quot;},&quot;ClaritySection&quot;:{&quot;type&quot;:&quot;tree::any&quot;,&quot;value&quot;:{&quot;Dynamics&quot;:{&quot;type&quot;:&quot;tree::any&quot;,&quot;value&quot;:{&quot;2&quot;:{&quot;type&quot;:&quot;tree::any&quot;,&quot;value&quot;:{&quot;Value&quot;:{&quot;type&quot;:&quot;float&quot;,&quot;value&quot;:3}}}}},&quot;Enabled&quot;:{&quot;type&quot;:&quot;bool&quot;,&quot;value&quot;:true}}},&quot;ClipType&quot;:{&quot;type&quot;:&quot;std::int32_t&quot;,&quot;value&quot;:1},&quot;EnhanceSpeechSection&quot;:{&quot;type&quot;:&quot;tree::any&quot;,&quot;value&quot;:{&quot;Enabled&quot;:{&quot;type&quot;:&quot;bool&quot;,&quot;value&quot;:true}}},&quot;PresetGuid&quot;:{&quot;type&quot;:&quot;UTF8String&quot;,&quot;value&quot;:&quot;bb717b4a-c0b1-4def-9040-3fb8e83b8a91&quot;},&quot;RestorationSection&quot;:{&quot;type&quot;:&quot;tree::any&quot;,&quot;value&quot;:{&quot;Enabled&quot;:{&quot;type&quot;:&quot;bool&quot;,&quot;value&quot;:true},&quot;ReduceHum&quot;:{&quot;type&quot;:&quot;tree::any&quot;,&quot;value&quot;:{&quot;4&quot;:{&quot;type&quot;:&quot;tree::any&quot;,&quot;value&quot;:{&quot;Value&quot;:{&quot;type&quot;:&quot;float&quot;,&quot;value&quot;:7.143000602722168}}},&quot;9&quot;:{&quot;type&quot;:&quot;tree::any&quot;,&quot;value&quot;:{&quot;Value&quot;:{&quot;type&quot;:&quot;float&quot;,&quot;value&quot;:60}}}}}}},&quot;SoundEffectsSection&quot;:{&quot;type&quot;:&quot;tree::any&quot;,&quot;value&quot;:{&quot;Enabled&quot;:{&quot;type&quot;:&quot;bool&quot;,&quot;value&quot;:true},&quot;Reverb&quot;:{&quot;type&quot;:&quot;tree::any&quot;,&quot;value&quot;:{&quot;3&quot;:{&quot;type&quot;:&quot;tree::any&quot;,&quot;value&quot;:{&quot;Value&quot;:{&quot;type&quot;:&quot;float&quot;,&quot;value&quot;:2}}}}}}},&quot;VolumeSection&quot;:{&quot;type&quot;:&quot;tree::any&quot;,&quot;value&quot;:{&quot;Enabled&quot;:{&quot;type&quot;:&quot;bool&quot;,&quot;value&quot;:true}}}}},&quot;TempData&quot;:{&quot;type&quot;:&quot;tree::any&quot;,&quot;value&quot;:{}}}"/>
          <component componentGuid="3931cf98-27b4-4352-a9d0-132a0e3ade50" componentID="Audition.Fader" id="clipGain" name="volume" powered="true">
            <parameter index="0" name="volume" parameterValue="1"/>
            <parameter index="1" name="static gain" parameterValue="1"/>
          </component>
          <component componentGuid="f28d1427-8c13-4a3e-89b1-118214ad32eb" componentID="Audition.Mute" id="clipMute" name="Mute" powered="true">
            <parameter index="0" parameterValue="0"/>
            <parameter index="1" name="mute" parameterValue="0"/>
          </component>
          <component componentGuid="4db764f9-d968-4135-843b-7e1edf03a978" componentID="Audition.StereoPanner" id="clipPan" name="StereoPanner" powered="true">
            <parameter index="0" name="Pan" parameterValue="0"/>
          </component>
          <fadeIn crossFadeLinkType="linkedAsymmetric" endPoint="11025" shape="19" startPoint="0" type="log"/>
          <fadeOut crossFadeLinkType="linkedAsymmetric" endPoint="53456" shape="19" startPoint="42431" type="log"/>
          <editParameter parameterIndex="0" slotIndex="4294967280"/>
          <editParameter parameterIndex="0" slotIndex="4294967281"/>
          <channelMap>
            <channel index="0" sourceIndex="0"/>
          </channelMap>
        </audioClip>
        <audioClip clipAutoCrossfade="true" crossFadeHeadClipID="-1" crossFadeTailClipID="-1" endPoint="128662111" fileID="1" hue="-1" id="82" lockedInTime="false" looped="false" name="Emily" offline="false" select="false" sourceInPoint="141996866" sourceOutPoint="142424332" startPoint="128234645" zOrder="174">
          <properties properties="{&quot;BasicAdjustmentsProperty&quot;:{&quot;type&quot;:&quot;tree::any&quot;,&quot;value&quot;:{&quot;AdjustmentMode&quot;:{&quot;type&quot;:&quot;UTF8String&quot;,&quot;value&quot;:&quot;dialog&quot;},&quot;ClaritySection&quot;:{&quot;type&quot;:&quot;tree::any&quot;,&quot;value&quot;:{&quot;Dynamics&quot;:{&quot;type&quot;:&quot;tree::any&quot;,&quot;value&quot;:{&quot;2&quot;:{&quot;type&quot;:&quot;tree::any&quot;,&quot;value&quot;:{&quot;Value&quot;:{&quot;type&quot;:&quot;float&quot;,&quot;value&quot;:3}}}}},&quot;Enabled&quot;:{&quot;type&quot;:&quot;bool&quot;,&quot;value&quot;:true}}},&quot;ClipType&quot;:{&quot;type&quot;:&quot;std::int32_t&quot;,&quot;value&quot;:1},&quot;EnhanceSpeechSection&quot;:{&quot;type&quot;:&quot;tree::any&quot;,&quot;value&quot;:{&quot;Enabled&quot;:{&quot;type&quot;:&quot;bool&quot;,&quot;value&quot;:true}}},&quot;PresetGuid&quot;:{&quot;type&quot;:&quot;UTF8String&quot;,&quot;value&quot;:&quot;bb717b4a-c0b1-4def-9040-3fb8e83b8a91&quot;},&quot;RestorationSection&quot;:{&quot;type&quot;:&quot;tree::any&quot;,&quot;value&quot;:{&quot;Enabled&quot;:{&quot;type&quot;:&quot;bool&quot;,&quot;value&quot;:true},&quot;ReduceHum&quot;:{&quot;type&quot;:&quot;tree::any&quot;,&quot;value&quot;:{&quot;4&quot;:{&quot;type&quot;:&quot;tree::any&quot;,&quot;value&quot;:{&quot;Value&quot;:{&quot;type&quot;:&quot;float&quot;,&quot;value&quot;:7.143000602722168}}},&quot;9&quot;:{&quot;type&quot;:&quot;tree::any&quot;,&quot;value&quot;:{&quot;Value&quot;:{&quot;type&quot;:&quot;float&quot;,&quot;value&quot;:60}}}}}}},&quot;SoundEffectsSection&quot;:{&quot;type&quot;:&quot;tree::any&quot;,&quot;value&quot;:{&quot;Enabled&quot;:{&quot;type&quot;:&quot;bool&quot;,&quot;value&quot;:true},&quot;Reverb&quot;:{&quot;type&quot;:&quot;tree::any&quot;,&quot;value&quot;:{&quot;3&quot;:{&quot;type&quot;:&quot;tree::any&quot;,&quot;value&quot;:{&quot;Value&quot;:{&quot;type&quot;:&quot;float&quot;,&quot;value&quot;:2}}}}}}},&quot;VolumeSection&quot;:{&quot;type&quot;:&quot;tree::any&quot;,&quot;value&quot;:{&quot;Enabled&quot;:{&quot;type&quot;:&quot;bool&quot;,&quot;value&quot;:true}}}}},&quot;TempData&quot;:{&quot;type&quot;:&quot;tree::any&quot;,&quot;value&quot;:{}}}"/>
          <component componentGuid="43f8c85d-20d0-462a-8330-9df05697a564" componentID="Audition.Fader" id="clipGain" name="volume" powered="true">
            <parameter index="0" name="volume" parameterValue="1"/>
            <parameter index="1" name="static gain" parameterValue="1"/>
          </component>
          <component componentGuid="a911dfdd-da20-4723-807e-a7c8c34e24b0" componentID="Audition.Mute" id="clipMute" name="Mute" powered="true">
            <parameter index="0" parameterValue="0"/>
            <parameter index="1" name="mute" parameterValue="0"/>
          </component>
          <component componentGuid="bc6b3252-2aa6-471f-8e54-f5426660cd13" componentID="Audition.StereoPanner" id="clipPan" name="StereoPanner" powered="true">
            <parameter index="0" name="Pan" parameterValue="0"/>
          </component>
          <fadeIn crossFadeLinkType="linkedAsymmetric" endPoint="11025" shape="19" startPoint="0" type="log"/>
          <fadeOut crossFadeLinkType="linkedAsymmetric" endPoint="427466" shape="19" startPoint="427466" type="log"/>
          <editParameter parameterIndex="0" slotIndex="4294967280"/>
          <editParameter parameterIndex="0" slotIndex="4294967281"/>
          <channelMap>
            <channel index="0" sourceIndex="0"/>
          </channelMap>
        </audioClip>
        <audioClip clipAutoCrossfade="true" crossFadeHeadClipID="-1" crossFadeTailClipID="-1" endPoint="129015378" fileID="1" hue="-1" id="83" lockedInTime="false" looped="false" name="Emily" offline="false" select="false" sourceInPoint="142739811" sourceOutPoint="142795907" startPoint="128959282" zOrder="200">
          <properties properties="{&quot;BasicAdjustmentsProperty&quot;:{&quot;type&quot;:&quot;tree::any&quot;,&quot;value&quot;:{&quot;AdjustmentMode&quot;:{&quot;type&quot;:&quot;UTF8String&quot;,&quot;value&quot;:&quot;dialog&quot;},&quot;ClaritySection&quot;:{&quot;type&quot;:&quot;tree::any&quot;,&quot;value&quot;:{&quot;Dynamics&quot;:{&quot;type&quot;:&quot;tree::any&quot;,&quot;value&quot;:{&quot;2&quot;:{&quot;type&quot;:&quot;tree::any&quot;,&quot;value&quot;:{&quot;Value&quot;:{&quot;type&quot;:&quot;float&quot;,&quot;value&quot;:3}}}}},&quot;Enabled&quot;:{&quot;type&quot;:&quot;bool&quot;,&quot;value&quot;:true}}},&quot;ClipType&quot;:{&quot;type&quot;:&quot;std::int32_t&quot;,&quot;value&quot;:1},&quot;EnhanceSpeechSection&quot;:{&quot;type&quot;:&quot;tree::any&quot;,&quot;value&quot;:{&quot;Enabled&quot;:{&quot;type&quot;:&quot;bool&quot;,&quot;value&quot;:true}}},&quot;PresetGuid&quot;:{&quot;type&quot;:&quot;UTF8String&quot;,&quot;value&quot;:&quot;bb717b4a-c0b1-4def-9040-3fb8e83b8a91&quot;},&quot;RestorationSection&quot;:{&quot;type&quot;:&quot;tree::any&quot;,&quot;value&quot;:{&quot;Enabled&quot;:{&quot;type&quot;:&quot;bool&quot;,&quot;value&quot;:true},&quot;ReduceHum&quot;:{&quot;type&quot;:&quot;tree::any&quot;,&quot;value&quot;:{&quot;4&quot;:{&quot;type&quot;:&quot;tree::any&quot;,&quot;value&quot;:{&quot;Value&quot;:{&quot;type&quot;:&quot;float&quot;,&quot;value&quot;:7.143000602722168}}},&quot;9&quot;:{&quot;type&quot;:&quot;tree::any&quot;,&quot;value&quot;:{&quot;Value&quot;:{&quot;type&quot;:&quot;float&quot;,&quot;value&quot;:60}}}}}}},&quot;SoundEffectsSection&quot;:{&quot;type&quot;:&quot;tree::any&quot;,&quot;value&quot;:{&quot;Enabled&quot;:{&quot;type&quot;:&quot;bool&quot;,&quot;value&quot;:true},&quot;Reverb&quot;:{&quot;type&quot;:&quot;tree::any&quot;,&quot;value&quot;:{&quot;3&quot;:{&quot;type&quot;:&quot;tree::any&quot;,&quot;value&quot;:{&quot;Value&quot;:{&quot;type&quot;:&quot;float&quot;,&quot;value&quot;:2}}}}}}},&quot;VolumeSection&quot;:{&quot;type&quot;:&quot;tree::any&quot;,&quot;value&quot;:{&quot;Enabled&quot;:{&quot;type&quot;:&quot;bool&quot;,&quot;value&quot;:true}}}}},&quot;TempData&quot;:{&quot;type&quot;:&quot;tree::any&quot;,&quot;value&quot;:{}}}"/>
          <component componentGuid="e9b53cb3-2c3f-4c8d-b43b-7516ea94a6be" componentID="Audition.Fader" id="clipGain" name="volume" powered="true">
            <parameter index="0" name="volume" parameterValue="1"/>
            <parameter index="1" name="static gain" parameterValue="1"/>
          </component>
          <component componentGuid="41143af5-cd59-408f-b456-81306e19842e" componentID="Audition.Mute" id="clipMute" name="Mute" powered="true">
            <parameter index="0" parameterValue="0"/>
            <parameter index="1" name="mute" parameterValue="0"/>
          </component>
          <component componentGuid="d7fa87d1-8010-4841-a066-6e1b6801cc41" componentID="Audition.StereoPanner" id="clipPan" name="StereoPanner" powered="true">
            <parameter index="0" name="Pan" parameterValue="0"/>
          </component>
          <fadeIn crossFadeLinkType="linkedAsymmetric" endPoint="11025" shape="19" startPoint="0" type="log"/>
          <fadeOut crossFadeLinkType="linkedAsymmetric" endPoint="56096" shape="19" startPoint="45071" type="log"/>
          <editParameter parameterIndex="0" slotIndex="4294967280"/>
          <editParameter parameterIndex="0" slotIndex="4294967281"/>
          <channelMap>
            <channel index="0" sourceIndex="0"/>
          </channelMap>
        </audioClip>
        <audioClip clipAutoCrossfade="true" crossFadeHeadClipID="-1" crossFadeTailClipID="-1" endPoint="129834203" fileID="1" hue="-1" id="84" lockedInTime="false" looped="false" name="Emily" offline="false" select="false" sourceInPoint="143124209" sourceOutPoint="143643079" startPoint="129315333" zOrder="210">
          <properties properties="{&quot;BasicAdjustmentsProperty&quot;:{&quot;type&quot;:&quot;tree::any&quot;,&quot;value&quot;:{&quot;AdjustmentMode&quot;:{&quot;type&quot;:&quot;UTF8String&quot;,&quot;value&quot;:&quot;dialog&quot;},&quot;ClaritySection&quot;:{&quot;type&quot;:&quot;tree::any&quot;,&quot;value&quot;:{&quot;Dynamics&quot;:{&quot;type&quot;:&quot;tree::any&quot;,&quot;value&quot;:{&quot;2&quot;:{&quot;type&quot;:&quot;tree::any&quot;,&quot;value&quot;:{&quot;Value&quot;:{&quot;type&quot;:&quot;float&quot;,&quot;value&quot;:3}}}}},&quot;Enabled&quot;:{&quot;type&quot;:&quot;bool&quot;,&quot;value&quot;:true}}},&quot;ClipType&quot;:{&quot;type&quot;:&quot;std::int32_t&quot;,&quot;value&quot;:1},&quot;EnhanceSpeechSection&quot;:{&quot;type&quot;:&quot;tree::any&quot;,&quot;value&quot;:{&quot;Enabled&quot;:{&quot;type&quot;:&quot;bool&quot;,&quot;value&quot;:true}}},&quot;PresetGuid&quot;:{&quot;type&quot;:&quot;UTF8String&quot;,&quot;value&quot;:&quot;bb717b4a-c0b1-4def-9040-3fb8e83b8a91&quot;},&quot;RestorationSection&quot;:{&quot;type&quot;:&quot;tree::any&quot;,&quot;value&quot;:{&quot;Enabled&quot;:{&quot;type&quot;:&quot;bool&quot;,&quot;value&quot;:true},&quot;ReduceHum&quot;:{&quot;type&quot;:&quot;tree::any&quot;,&quot;value&quot;:{&quot;4&quot;:{&quot;type&quot;:&quot;tree::any&quot;,&quot;value&quot;:{&quot;Value&quot;:{&quot;type&quot;:&quot;float&quot;,&quot;value&quot;:7.143000602722168}}},&quot;9&quot;:{&quot;type&quot;:&quot;tree::any&quot;,&quot;value&quot;:{&quot;Value&quot;:{&quot;type&quot;:&quot;float&quot;,&quot;value&quot;:60}}}}}}},&quot;SoundEffectsSection&quot;:{&quot;type&quot;:&quot;tree::any&quot;,&quot;value&quot;:{&quot;Enabled&quot;:{&quot;type&quot;:&quot;bool&quot;,&quot;value&quot;:true},&quot;Reverb&quot;:{&quot;type&quot;:&quot;tree::any&quot;,&quot;value&quot;:{&quot;3&quot;:{&quot;type&quot;:&quot;tree::any&quot;,&quot;value&quot;:{&quot;Value&quot;:{&quot;type&quot;:&quot;float&quot;,&quot;value&quot;:2}}}}}}},&quot;VolumeSection&quot;:{&quot;type&quot;:&quot;tree::any&quot;,&quot;value&quot;:{&quot;Enabled&quot;:{&quot;type&quot;:&quot;bool&quot;,&quot;value&quot;:true}}}}},&quot;TempData&quot;:{&quot;type&quot;:&quot;tree::any&quot;,&quot;value&quot;:{}}}"/>
          <component componentGuid="e250f042-1577-4390-b655-4cba50282075" componentID="Audition.Fader" id="clipGain" name="volume" powered="true">
            <parameter index="0" name="volume" parameterValue="1"/>
            <parameter index="1" name="static gain" parameterValue="1"/>
          </component>
          <component componentGuid="c4fd3ec8-2357-4081-bfc8-6a503926d936" componentID="Audition.Mute" id="clipMute" name="Mute" powered="true">
            <parameter index="0" parameterValue="0"/>
            <parameter index="1" name="mute" parameterValue="0"/>
          </component>
          <component componentGuid="95d11d1d-d4a9-4c98-b6c8-ed5b7a04444d" componentID="Audition.StereoPanner" id="clipPan" name="StereoPanner" powered="true">
            <parameter index="0" name="Pan" parameterValue="0"/>
          </component>
          <fadeIn crossFadeLinkType="linkedAsymmetric" endPoint="0" shape="19" startPoint="0" type="log"/>
          <fadeOut crossFadeLinkType="linkedAsymmetric" endPoint="518870" shape="19" startPoint="518870" type="log"/>
          <editParameter parameterIndex="0" slotIndex="4294967280"/>
          <editParameter parameterIndex="0" slotIndex="4294967281"/>
          <channelMap>
            <channel index="0" sourceIndex="0"/>
          </channelMap>
        </audioClip>
        <audioClip clipAutoCrossfade="true" crossFadeHeadClipID="-1" crossFadeTailClipID="-1" endPoint="130230789" fileID="1" hue="-1" id="85" lockedInTime="false" looped="false" name="Emily" offline="false" select="false" sourceInPoint="143800183" sourceOutPoint="144039668" startPoint="129991304" zOrder="203">
          <properties properties="{&quot;BasicAdjustmentsProperty&quot;:{&quot;type&quot;:&quot;tree::any&quot;,&quot;value&quot;:{&quot;AdjustmentMode&quot;:{&quot;type&quot;:&quot;UTF8String&quot;,&quot;value&quot;:&quot;dialog&quot;},&quot;ClaritySection&quot;:{&quot;type&quot;:&quot;tree::any&quot;,&quot;value&quot;:{&quot;Dynamics&quot;:{&quot;type&quot;:&quot;tree::any&quot;,&quot;value&quot;:{&quot;2&quot;:{&quot;type&quot;:&quot;tree::any&quot;,&quot;value&quot;:{&quot;Value&quot;:{&quot;type&quot;:&quot;float&quot;,&quot;value&quot;:3}}}}},&quot;Enabled&quot;:{&quot;type&quot;:&quot;bool&quot;,&quot;value&quot;:true}}},&quot;ClipType&quot;:{&quot;type&quot;:&quot;std::int32_t&quot;,&quot;value&quot;:1},&quot;EnhanceSpeechSection&quot;:{&quot;type&quot;:&quot;tree::any&quot;,&quot;value&quot;:{&quot;Enabled&quot;:{&quot;type&quot;:&quot;bool&quot;,&quot;value&quot;:true}}},&quot;PresetGuid&quot;:{&quot;type&quot;:&quot;UTF8String&quot;,&quot;value&quot;:&quot;bb717b4a-c0b1-4def-9040-3fb8e83b8a91&quot;},&quot;RestorationSection&quot;:{&quot;type&quot;:&quot;tree::any&quot;,&quot;value&quot;:{&quot;Enabled&quot;:{&quot;type&quot;:&quot;bool&quot;,&quot;value&quot;:true},&quot;ReduceHum&quot;:{&quot;type&quot;:&quot;tree::any&quot;,&quot;value&quot;:{&quot;4&quot;:{&quot;type&quot;:&quot;tree::any&quot;,&quot;value&quot;:{&quot;Value&quot;:{&quot;type&quot;:&quot;float&quot;,&quot;value&quot;:7.143000602722168}}},&quot;9&quot;:{&quot;type&quot;:&quot;tree::any&quot;,&quot;value&quot;:{&quot;Value&quot;:{&quot;type&quot;:&quot;float&quot;,&quot;value&quot;:60}}}}}}},&quot;SoundEffectsSection&quot;:{&quot;type&quot;:&quot;tree::any&quot;,&quot;value&quot;:{&quot;Enabled&quot;:{&quot;type&quot;:&quot;bool&quot;,&quot;value&quot;:true},&quot;Reverb&quot;:{&quot;type&quot;:&quot;tree::any&quot;,&quot;value&quot;:{&quot;3&quot;:{&quot;type&quot;:&quot;tree::any&quot;,&quot;value&quot;:{&quot;Value&quot;:{&quot;type&quot;:&quot;float&quot;,&quot;value&quot;:2}}}}}}},&quot;VolumeSection&quot;:{&quot;type&quot;:&quot;tree::any&quot;,&quot;value&quot;:{&quot;Enabled&quot;:{&quot;type&quot;:&quot;bool&quot;,&quot;value&quot;:true}}}}},&quot;TempData&quot;:{&quot;type&quot;:&quot;tree::any&quot;,&quot;value&quot;:{}}}"/>
          <component componentGuid="57b239bf-55c0-48ea-995a-b0ec23e82e36" componentID="Audition.Fader" id="clipGain" name="volume" powered="true">
            <parameter index="0" name="volume" parameterValue="1"/>
            <parameter index="1" name="static gain" parameterValue="1"/>
          </component>
          <component componentGuid="0cb9fd51-398b-4dd5-b476-dd3a23389d35" componentID="Audition.Mute" id="clipMute" name="Mute" powered="true">
            <parameter index="0" parameterValue="0"/>
            <parameter index="1" name="mute" parameterValue="0"/>
          </component>
          <component componentGuid="09aca1d5-299e-45a0-bc34-6d8c9d225556" componentID="Audition.StereoPanner" id="clipPan" name="StereoPanner" powered="true">
            <parameter index="0" name="Pan" parameterValue="0"/>
          </component>
          <fadeIn crossFadeLinkType="linkedAsymmetric" endPoint="11025" shape="19" startPoint="0" type="log"/>
          <fadeOut crossFadeLinkType="linkedAsymmetric" endPoint="239485" shape="19" startPoint="239485" type="log"/>
          <editParameter parameterIndex="0" slotIndex="4294967280"/>
          <editParameter parameterIndex="0" slotIndex="4294967281"/>
          <channelMap>
            <channel index="0" sourceIndex="0"/>
          </channelMap>
        </audioClip>
        <audioClip clipAutoCrossfade="true" crossFadeHeadClipID="-1" crossFadeTailClipID="-1" endPoint="131724172" fileID="1" hue="-1" id="86" lockedInTime="false" looped="false" name="Emily" offline="false" select="false" sourceInPoint="145313359" sourceOutPoint="145532191" startPoint="131505340" zOrder="204">
          <properties properties="{&quot;BasicAdjustmentsProperty&quot;:{&quot;type&quot;:&quot;tree::any&quot;,&quot;value&quot;:{&quot;AdjustmentMode&quot;:{&quot;type&quot;:&quot;UTF8String&quot;,&quot;value&quot;:&quot;dialog&quot;},&quot;ClaritySection&quot;:{&quot;type&quot;:&quot;tree::any&quot;,&quot;value&quot;:{&quot;Dynamics&quot;:{&quot;type&quot;:&quot;tree::any&quot;,&quot;value&quot;:{&quot;2&quot;:{&quot;type&quot;:&quot;tree::any&quot;,&quot;value&quot;:{&quot;Value&quot;:{&quot;type&quot;:&quot;float&quot;,&quot;value&quot;:3}}}}},&quot;Enabled&quot;:{&quot;type&quot;:&quot;bool&quot;,&quot;value&quot;:true}}},&quot;ClipType&quot;:{&quot;type&quot;:&quot;std::int32_t&quot;,&quot;value&quot;:1},&quot;EnhanceSpeechSection&quot;:{&quot;type&quot;:&quot;tree::any&quot;,&quot;value&quot;:{&quot;Enabled&quot;:{&quot;type&quot;:&quot;bool&quot;,&quot;value&quot;:true}}},&quot;PresetGuid&quot;:{&quot;type&quot;:&quot;UTF8String&quot;,&quot;value&quot;:&quot;bb717b4a-c0b1-4def-9040-3fb8e83b8a91&quot;},&quot;RestorationSection&quot;:{&quot;type&quot;:&quot;tree::any&quot;,&quot;value&quot;:{&quot;Enabled&quot;:{&quot;type&quot;:&quot;bool&quot;,&quot;value&quot;:true},&quot;ReduceHum&quot;:{&quot;type&quot;:&quot;tree::any&quot;,&quot;value&quot;:{&quot;4&quot;:{&quot;type&quot;:&quot;tree::any&quot;,&quot;value&quot;:{&quot;Value&quot;:{&quot;type&quot;:&quot;float&quot;,&quot;value&quot;:7.143000602722168}}},&quot;9&quot;:{&quot;type&quot;:&quot;tree::any&quot;,&quot;value&quot;:{&quot;Value&quot;:{&quot;type&quot;:&quot;float&quot;,&quot;value&quot;:60}}}}}}},&quot;SoundEffectsSection&quot;:{&quot;type&quot;:&quot;tree::any&quot;,&quot;value&quot;:{&quot;Enabled&quot;:{&quot;type&quot;:&quot;bool&quot;,&quot;value&quot;:true},&quot;Reverb&quot;:{&quot;type&quot;:&quot;tree::any&quot;,&quot;value&quot;:{&quot;3&quot;:{&quot;type&quot;:&quot;tree::any&quot;,&quot;value&quot;:{&quot;Value&quot;:{&quot;type&quot;:&quot;float&quot;,&quot;value&quot;:2}}}}}}},&quot;VolumeSection&quot;:{&quot;type&quot;:&quot;tree::any&quot;,&quot;value&quot;:{&quot;Enabled&quot;:{&quot;type&quot;:&quot;bool&quot;,&quot;value&quot;:true}}}}},&quot;TempData&quot;:{&quot;type&quot;:&quot;tree::any&quot;,&quot;value&quot;:{}}}"/>
          <component componentGuid="3a69fcca-d94e-479b-a987-af9bc8a4c1bc" componentID="Audition.Fader" id="clipGain" name="volume" powered="true">
            <parameter index="0" name="volume" parameterValue="1"/>
            <parameter index="1" name="static gain" parameterValue="1"/>
          </component>
          <component componentGuid="275c7358-98ec-470e-985f-fc77c63044c6" componentID="Audition.Mute" id="clipMute" name="Mute" powered="true">
            <parameter index="0" parameterValue="0"/>
            <parameter index="1" name="mute" parameterValue="0"/>
          </component>
          <component componentGuid="87c0ff51-469a-4333-9901-f1ab7549429e" componentID="Audition.StereoPanner" id="clipPan" name="StereoPanner" powered="true">
            <parameter index="0" name="Pan" parameterValue="0"/>
          </component>
          <fadeIn crossFadeLinkType="linkedAsymmetric" endPoint="11025" shape="19" startPoint="0" type="log"/>
          <fadeOut crossFadeLinkType="linkedAsymmetric" endPoint="218832" shape="19" startPoint="218832" type="log"/>
          <editParameter parameterIndex="0" slotIndex="4294967280"/>
          <editParameter parameterIndex="0" slotIndex="4294967281"/>
          <channelMap>
            <channel index="0" sourceIndex="0"/>
          </channelMap>
        </audioClip>
        <audioClip clipAutoCrossfade="true" crossFadeHeadClipID="-1" crossFadeTailClipID="-1" endPoint="132139291" fileID="1" hue="-1" id="87" lockedInTime="false" looped="false" name="Emily" offline="false" select="false" sourceInPoint="145886933" sourceOutPoint="145947311" startPoint="132078913" zOrder="209">
          <properties properties="{&quot;BasicAdjustmentsProperty&quot;:{&quot;type&quot;:&quot;tree::any&quot;,&quot;value&quot;:{&quot;AdjustmentMode&quot;:{&quot;type&quot;:&quot;UTF8String&quot;,&quot;value&quot;:&quot;dialog&quot;},&quot;ClaritySection&quot;:{&quot;type&quot;:&quot;tree::any&quot;,&quot;value&quot;:{&quot;Dynamics&quot;:{&quot;type&quot;:&quot;tree::any&quot;,&quot;value&quot;:{&quot;2&quot;:{&quot;type&quot;:&quot;tree::any&quot;,&quot;value&quot;:{&quot;Value&quot;:{&quot;type&quot;:&quot;float&quot;,&quot;value&quot;:3}}}}},&quot;Enabled&quot;:{&quot;type&quot;:&quot;bool&quot;,&quot;value&quot;:true}}},&quot;ClipType&quot;:{&quot;type&quot;:&quot;std::int32_t&quot;,&quot;value&quot;:1},&quot;EnhanceSpeechSection&quot;:{&quot;type&quot;:&quot;tree::any&quot;,&quot;value&quot;:{&quot;Enabled&quot;:{&quot;type&quot;:&quot;bool&quot;,&quot;value&quot;:true}}},&quot;PresetGuid&quot;:{&quot;type&quot;:&quot;UTF8String&quot;,&quot;value&quot;:&quot;bb717b4a-c0b1-4def-9040-3fb8e83b8a91&quot;},&quot;RestorationSection&quot;:{&quot;type&quot;:&quot;tree::any&quot;,&quot;value&quot;:{&quot;Enabled&quot;:{&quot;type&quot;:&quot;bool&quot;,&quot;value&quot;:true},&quot;ReduceHum&quot;:{&quot;type&quot;:&quot;tree::any&quot;,&quot;value&quot;:{&quot;4&quot;:{&quot;type&quot;:&quot;tree::any&quot;,&quot;value&quot;:{&quot;Value&quot;:{&quot;type&quot;:&quot;float&quot;,&quot;value&quot;:7.143000602722168}}},&quot;9&quot;:{&quot;type&quot;:&quot;tree::any&quot;,&quot;value&quot;:{&quot;Value&quot;:{&quot;type&quot;:&quot;float&quot;,&quot;value&quot;:60}}}}}}},&quot;SoundEffectsSection&quot;:{&quot;type&quot;:&quot;tree::any&quot;,&quot;value&quot;:{&quot;Enabled&quot;:{&quot;type&quot;:&quot;bool&quot;,&quot;value&quot;:true},&quot;Reverb&quot;:{&quot;type&quot;:&quot;tree::any&quot;,&quot;value&quot;:{&quot;3&quot;:{&quot;type&quot;:&quot;tree::any&quot;,&quot;value&quot;:{&quot;Value&quot;:{&quot;type&quot;:&quot;float&quot;,&quot;value&quot;:2}}}}}}},&quot;VolumeSection&quot;:{&quot;type&quot;:&quot;tree::any&quot;,&quot;value&quot;:{&quot;Enabled&quot;:{&quot;type&quot;:&quot;bool&quot;,&quot;value&quot;:true}}}}},&quot;TempData&quot;:{&quot;type&quot;:&quot;tree::any&quot;,&quot;value&quot;:{}}}"/>
          <component componentGuid="bd9080fe-eee4-4e17-a9eb-7182d79802c4" componentID="Audition.Fader" id="clipGain" name="volume" powered="true">
            <parameter index="0" name="volume" parameterValue="1"/>
            <parameter index="1" name="static gain" parameterValue="1"/>
          </component>
          <component componentGuid="fb9e0793-9300-4208-b54c-2725b92b7050" componentID="Audition.Mute" id="clipMute" name="Mute" powered="true">
            <parameter index="0" parameterValue="0"/>
            <parameter index="1" name="mute" parameterValue="0"/>
          </component>
          <component componentGuid="d3a6ce07-c415-498c-910e-b0d8786f80bc" componentID="Audition.StereoPanner" id="clipPan" name="StereoPanner" powered="true">
            <parameter index="0" name="Pan" parameterValue="0"/>
          </component>
          <fadeIn crossFadeLinkType="linkedAsymmetric" endPoint="11025" shape="19" startPoint="0" type="log"/>
          <fadeOut crossFadeLinkType="linkedAsymmetric" endPoint="60378" shape="19" startPoint="49353" type="log"/>
          <editParameter parameterIndex="0" slotIndex="4294967280"/>
          <editParameter parameterIndex="0" slotIndex="4294967281"/>
          <channelMap>
            <channel index="0" sourceIndex="0"/>
          </channelMap>
        </audioClip>
        <audioClip clipAutoCrossfade="true" crossFadeHeadClipID="-1" crossFadeTailClipID="-1" endPoint="132647366" fileID="1" hue="-1" id="88" lockedInTime="false" looped="false" name="Emily" offline="false" select="false" sourceInPoint="146392345" sourceOutPoint="146455387" startPoint="132584324" zOrder="206">
          <properties properties="{&quot;BasicAdjustmentsProperty&quot;:{&quot;type&quot;:&quot;tree::any&quot;,&quot;value&quot;:{&quot;AdjustmentMode&quot;:{&quot;type&quot;:&quot;UTF8String&quot;,&quot;value&quot;:&quot;dialog&quot;},&quot;ClaritySection&quot;:{&quot;type&quot;:&quot;tree::any&quot;,&quot;value&quot;:{&quot;Dynamics&quot;:{&quot;type&quot;:&quot;tree::any&quot;,&quot;value&quot;:{&quot;2&quot;:{&quot;type&quot;:&quot;tree::any&quot;,&quot;value&quot;:{&quot;Value&quot;:{&quot;type&quot;:&quot;float&quot;,&quot;value&quot;:3}}}}},&quot;Enabled&quot;:{&quot;type&quot;:&quot;bool&quot;,&quot;value&quot;:true}}},&quot;ClipType&quot;:{&quot;type&quot;:&quot;std::int32_t&quot;,&quot;value&quot;:1},&quot;EnhanceSpeechSection&quot;:{&quot;type&quot;:&quot;tree::any&quot;,&quot;value&quot;:{&quot;Enabled&quot;:{&quot;type&quot;:&quot;bool&quot;,&quot;value&quot;:true}}},&quot;PresetGuid&quot;:{&quot;type&quot;:&quot;UTF8String&quot;,&quot;value&quot;:&quot;bb717b4a-c0b1-4def-9040-3fb8e83b8a91&quot;},&quot;RestorationSection&quot;:{&quot;type&quot;:&quot;tree::any&quot;,&quot;value&quot;:{&quot;Enabled&quot;:{&quot;type&quot;:&quot;bool&quot;,&quot;value&quot;:true},&quot;ReduceHum&quot;:{&quot;type&quot;:&quot;tree::any&quot;,&quot;value&quot;:{&quot;4&quot;:{&quot;type&quot;:&quot;tree::any&quot;,&quot;value&quot;:{&quot;Value&quot;:{&quot;type&quot;:&quot;float&quot;,&quot;value&quot;:7.143000602722168}}},&quot;9&quot;:{&quot;type&quot;:&quot;tree::any&quot;,&quot;value&quot;:{&quot;Value&quot;:{&quot;type&quot;:&quot;float&quot;,&quot;value&quot;:60}}}}}}},&quot;SoundEffectsSection&quot;:{&quot;type&quot;:&quot;tree::any&quot;,&quot;value&quot;:{&quot;Enabled&quot;:{&quot;type&quot;:&quot;bool&quot;,&quot;value&quot;:true},&quot;Reverb&quot;:{&quot;type&quot;:&quot;tree::any&quot;,&quot;value&quot;:{&quot;3&quot;:{&quot;type&quot;:&quot;tree::any&quot;,&quot;value&quot;:{&quot;Value&quot;:{&quot;type&quot;:&quot;float&quot;,&quot;value&quot;:2}}}}}}},&quot;VolumeSection&quot;:{&quot;type&quot;:&quot;tree::any&quot;,&quot;value&quot;:{&quot;Enabled&quot;:{&quot;type&quot;:&quot;bool&quot;,&quot;value&quot;:true}}}}},&quot;TempData&quot;:{&quot;type&quot;:&quot;tree::any&quot;,&quot;value&quot;:{}}}"/>
          <component componentGuid="078e0a8a-9080-4c2f-b216-159ce6e67bf0" componentID="Audition.Fader" id="clipGain" name="volume" powered="true">
            <parameter index="0" name="volume" parameterValue="1"/>
            <parameter index="1" name="static gain" parameterValue="1"/>
          </component>
          <component componentGuid="ee4fdb49-d748-4b77-b281-e6dd2c383dd5" componentID="Audition.Mute" id="clipMute" name="Mute" powered="true">
            <parameter index="0" parameterValue="0"/>
            <parameter index="1" name="mute" parameterValue="0"/>
          </component>
          <component componentGuid="76118560-1e84-4900-801e-45eeb7fb272e" componentID="Audition.StereoPanner" id="clipPan" name="StereoPanner" powered="true">
            <parameter index="0" name="Pan" parameterValue="0"/>
          </component>
          <fadeIn crossFadeLinkType="linkedAsymmetric" endPoint="11025" shape="19" startPoint="0" type="log"/>
          <fadeOut crossFadeLinkType="linkedAsymmetric" endPoint="63042" shape="19" startPoint="52017" type="log"/>
          <editParameter parameterIndex="0" slotIndex="4294967280"/>
          <editParameter parameterIndex="0" slotIndex="4294967281"/>
          <channelMap>
            <channel index="0" sourceIndex="0"/>
          </channelMap>
        </audioClip>
        <audioClip clipAutoCrossfade="true" crossFadeHeadClipID="-1" crossFadeTailClipID="-1" endPoint="132885604" fileID="1" hue="-1" id="89" lockedInTime="false" looped="false" name="Emily" offline="false" select="false" sourceInPoint="146620566" sourceOutPoint="146693623" startPoint="132812547" zOrder="207">
          <properties properties="{&quot;BasicAdjustmentsProperty&quot;:{&quot;type&quot;:&quot;tree::any&quot;,&quot;value&quot;:{&quot;AdjustmentMode&quot;:{&quot;type&quot;:&quot;UTF8String&quot;,&quot;value&quot;:&quot;dialog&quot;},&quot;ClaritySection&quot;:{&quot;type&quot;:&quot;tree::any&quot;,&quot;value&quot;:{&quot;Dynamics&quot;:{&quot;type&quot;:&quot;tree::any&quot;,&quot;value&quot;:{&quot;2&quot;:{&quot;type&quot;:&quot;tree::any&quot;,&quot;value&quot;:{&quot;Value&quot;:{&quot;type&quot;:&quot;float&quot;,&quot;value&quot;:3}}}}},&quot;Enabled&quot;:{&quot;type&quot;:&quot;bool&quot;,&quot;value&quot;:true}}},&quot;ClipType&quot;:{&quot;type&quot;:&quot;std::int32_t&quot;,&quot;value&quot;:1},&quot;EnhanceSpeechSection&quot;:{&quot;type&quot;:&quot;tree::any&quot;,&quot;value&quot;:{&quot;Enabled&quot;:{&quot;type&quot;:&quot;bool&quot;,&quot;value&quot;:true}}},&quot;PresetGuid&quot;:{&quot;type&quot;:&quot;UTF8String&quot;,&quot;value&quot;:&quot;bb717b4a-c0b1-4def-9040-3fb8e83b8a91&quot;},&quot;RestorationSection&quot;:{&quot;type&quot;:&quot;tree::any&quot;,&quot;value&quot;:{&quot;Enabled&quot;:{&quot;type&quot;:&quot;bool&quot;,&quot;value&quot;:true},&quot;ReduceHum&quot;:{&quot;type&quot;:&quot;tree::any&quot;,&quot;value&quot;:{&quot;4&quot;:{&quot;type&quot;:&quot;tree::any&quot;,&quot;value&quot;:{&quot;Value&quot;:{&quot;type&quot;:&quot;float&quot;,&quot;value&quot;:7.143000602722168}}},&quot;9&quot;:{&quot;type&quot;:&quot;tree::any&quot;,&quot;value&quot;:{&quot;Value&quot;:{&quot;type&quot;:&quot;float&quot;,&quot;value&quot;:60}}}}}}},&quot;SoundEffectsSection&quot;:{&quot;type&quot;:&quot;tree::any&quot;,&quot;value&quot;:{&quot;Enabled&quot;:{&quot;type&quot;:&quot;bool&quot;,&quot;value&quot;:true},&quot;Reverb&quot;:{&quot;type&quot;:&quot;tree::any&quot;,&quot;value&quot;:{&quot;3&quot;:{&quot;type&quot;:&quot;tree::any&quot;,&quot;value&quot;:{&quot;Value&quot;:{&quot;type&quot;:&quot;float&quot;,&quot;value&quot;:2}}}}}}},&quot;VolumeSection&quot;:{&quot;type&quot;:&quot;tree::any&quot;,&quot;value&quot;:{&quot;Enabled&quot;:{&quot;type&quot;:&quot;bool&quot;,&quot;value&quot;:true}}}}},&quot;TempData&quot;:{&quot;type&quot;:&quot;tree::any&quot;,&quot;value&quot;:{}}}"/>
          <component componentGuid="84fa212f-f5ff-4350-99b4-cdc1e9819a9d" componentID="Audition.Fader" id="clipGain" name="volume" powered="true">
            <parameter index="0" name="volume" parameterValue="1"/>
            <parameter index="1" name="static gain" parameterValue="1"/>
          </component>
          <component componentGuid="d8291925-6c58-4bd8-b202-9d71e849ea0b" componentID="Audition.Mute" id="clipMute" name="Mute" powered="true">
            <parameter index="0" parameterValue="0"/>
            <parameter index="1" name="mute" parameterValue="0"/>
          </component>
          <component componentGuid="931ef25c-d39e-435b-8662-1ee98ca32f76" componentID="Audition.StereoPanner" id="clipPan" name="StereoPanner" powered="true">
            <parameter index="0" name="Pan" parameterValue="0"/>
          </component>
          <fadeIn crossFadeLinkType="linkedAsymmetric" endPoint="11025" shape="19" startPoint="0" type="log"/>
          <fadeOut crossFadeLinkType="linkedAsymmetric" endPoint="73057" shape="19" startPoint="62032" type="log"/>
          <editParameter parameterIndex="0" slotIndex="4294967280"/>
          <editParameter parameterIndex="0" slotIndex="4294967281"/>
          <channelMap>
            <channel index="0" sourceIndex="0"/>
          </channelMap>
        </audioClip>
        <audioClip clipAutoCrossfade="true" crossFadeHeadClipID="-1" crossFadeTailClipID="-1" endPoint="133630472" fileID="1" hue="-1" id="90" lockedInTime="false" looped="false" name="Emily" offline="false" select="false" sourceInPoint="147308337" sourceOutPoint="147438492" startPoint="133500317" zOrder="211">
          <properties properties="{&quot;BasicAdjustmentsProperty&quot;:{&quot;type&quot;:&quot;tree::any&quot;,&quot;value&quot;:{&quot;AdjustmentMode&quot;:{&quot;type&quot;:&quot;UTF8String&quot;,&quot;value&quot;:&quot;dialog&quot;},&quot;ClaritySection&quot;:{&quot;type&quot;:&quot;tree::any&quot;,&quot;value&quot;:{&quot;Dynamics&quot;:{&quot;type&quot;:&quot;tree::any&quot;,&quot;value&quot;:{&quot;2&quot;:{&quot;type&quot;:&quot;tree::any&quot;,&quot;value&quot;:{&quot;Value&quot;:{&quot;type&quot;:&quot;float&quot;,&quot;value&quot;:3}}}}},&quot;Enabled&quot;:{&quot;type&quot;:&quot;bool&quot;,&quot;value&quot;:true}}},&quot;ClipType&quot;:{&quot;type&quot;:&quot;std::int32_t&quot;,&quot;value&quot;:1},&quot;EnhanceSpeechSection&quot;:{&quot;type&quot;:&quot;tree::any&quot;,&quot;value&quot;:{&quot;Enabled&quot;:{&quot;type&quot;:&quot;bool&quot;,&quot;value&quot;:true}}},&quot;PresetGuid&quot;:{&quot;type&quot;:&quot;UTF8String&quot;,&quot;value&quot;:&quot;bb717b4a-c0b1-4def-9040-3fb8e83b8a91&quot;},&quot;RestorationSection&quot;:{&quot;type&quot;:&quot;tree::any&quot;,&quot;value&quot;:{&quot;Enabled&quot;:{&quot;type&quot;:&quot;bool&quot;,&quot;value&quot;:true},&quot;ReduceHum&quot;:{&quot;type&quot;:&quot;tree::any&quot;,&quot;value&quot;:{&quot;4&quot;:{&quot;type&quot;:&quot;tree::any&quot;,&quot;value&quot;:{&quot;Value&quot;:{&quot;type&quot;:&quot;float&quot;,&quot;value&quot;:7.143000602722168}}},&quot;9&quot;:{&quot;type&quot;:&quot;tree::any&quot;,&quot;value&quot;:{&quot;Value&quot;:{&quot;type&quot;:&quot;float&quot;,&quot;value&quot;:60}}}}}}},&quot;SoundEffectsSection&quot;:{&quot;type&quot;:&quot;tree::any&quot;,&quot;value&quot;:{&quot;Enabled&quot;:{&quot;type&quot;:&quot;bool&quot;,&quot;value&quot;:true},&quot;Reverb&quot;:{&quot;type&quot;:&quot;tree::any&quot;,&quot;value&quot;:{&quot;3&quot;:{&quot;type&quot;:&quot;tree::any&quot;,&quot;value&quot;:{&quot;Value&quot;:{&quot;type&quot;:&quot;float&quot;,&quot;value&quot;:2}}}}}}},&quot;VolumeSection&quot;:{&quot;type&quot;:&quot;tree::any&quot;,&quot;value&quot;:{&quot;Enabled&quot;:{&quot;type&quot;:&quot;bool&quot;,&quot;value&quot;:true}}}}},&quot;TempData&quot;:{&quot;type&quot;:&quot;tree::any&quot;,&quot;value&quot;:{}}}"/>
          <component componentGuid="c019a120-cbf8-4269-8043-714e971084a7" componentID="Audition.Fader" id="clipGain" name="volume" powered="true">
            <parameter index="0" name="volume" parameterValue="1"/>
            <parameter index="1" name="static gain" parameterValue="1"/>
          </component>
          <component componentGuid="e3663695-9cbb-4ab0-9777-056477e20e56" componentID="Audition.Mute" id="clipMute" name="Mute" powered="true">
            <parameter index="0" parameterValue="0"/>
            <parameter index="1" name="mute" parameterValue="0"/>
          </component>
          <component componentGuid="34fffdc9-963e-4ec8-a57c-34fdd3aec2be" componentID="Audition.StereoPanner" id="clipPan" name="StereoPanner" powered="true">
            <parameter index="0" name="Pan" parameterValue="0"/>
          </component>
          <fadeIn crossFadeLinkType="linkedAsymmetric" endPoint="11025" shape="19" startPoint="0" type="log"/>
          <fadeOut crossFadeLinkType="linkedAsymmetric" endPoint="130155" shape="19" startPoint="119130" type="log"/>
          <editParameter parameterIndex="0" slotIndex="4294967280"/>
          <editParameter parameterIndex="0" slotIndex="4294967281"/>
          <channelMap>
            <channel index="0" sourceIndex="0"/>
          </channelMap>
        </audioClip>
        <audioClip clipAutoCrossfade="true" crossFadeHeadClipID="-1" crossFadeTailClipID="-1" endPoint="134255500" fileID="1" hue="-1" id="91" lockedInTime="false" looped="false" name="Emily" offline="false" select="false" sourceInPoint="147489607" sourceOutPoint="148062908" startPoint="133682199" zOrder="216">
          <properties properties="{&quot;BasicAdjustmentsProperty&quot;:{&quot;type&quot;:&quot;tree::any&quot;,&quot;value&quot;:{&quot;AdjustmentMode&quot;:{&quot;type&quot;:&quot;UTF8String&quot;,&quot;value&quot;:&quot;dialog&quot;},&quot;ClaritySection&quot;:{&quot;type&quot;:&quot;tree::any&quot;,&quot;value&quot;:{&quot;Dynamics&quot;:{&quot;type&quot;:&quot;tree::any&quot;,&quot;value&quot;:{&quot;2&quot;:{&quot;type&quot;:&quot;tree::any&quot;,&quot;value&quot;:{&quot;Value&quot;:{&quot;type&quot;:&quot;float&quot;,&quot;value&quot;:3}}}}},&quot;Enabled&quot;:{&quot;type&quot;:&quot;bool&quot;,&quot;value&quot;:true}}},&quot;ClipType&quot;:{&quot;type&quot;:&quot;std::int32_t&quot;,&quot;value&quot;:1},&quot;EnhanceSpeechSection&quot;:{&quot;type&quot;:&quot;tree::any&quot;,&quot;value&quot;:{&quot;Enabled&quot;:{&quot;type&quot;:&quot;bool&quot;,&quot;value&quot;:true}}},&quot;PresetGuid&quot;:{&quot;type&quot;:&quot;UTF8String&quot;,&quot;value&quot;:&quot;bb717b4a-c0b1-4def-9040-3fb8e83b8a91&quot;},&quot;RestorationSection&quot;:{&quot;type&quot;:&quot;tree::any&quot;,&quot;value&quot;:{&quot;Enabled&quot;:{&quot;type&quot;:&quot;bool&quot;,&quot;value&quot;:true},&quot;ReduceHum&quot;:{&quot;type&quot;:&quot;tree::any&quot;,&quot;value&quot;:{&quot;4&quot;:{&quot;type&quot;:&quot;tree::any&quot;,&quot;value&quot;:{&quot;Value&quot;:{&quot;type&quot;:&quot;float&quot;,&quot;value&quot;:7.143000602722168}}},&quot;9&quot;:{&quot;type&quot;:&quot;tree::any&quot;,&quot;value&quot;:{&quot;Value&quot;:{&quot;type&quot;:&quot;float&quot;,&quot;value&quot;:60}}}}}}},&quot;SoundEffectsSection&quot;:{&quot;type&quot;:&quot;tree::any&quot;,&quot;value&quot;:{&quot;Enabled&quot;:{&quot;type&quot;:&quot;bool&quot;,&quot;value&quot;:true},&quot;Reverb&quot;:{&quot;type&quot;:&quot;tree::any&quot;,&quot;value&quot;:{&quot;3&quot;:{&quot;type&quot;:&quot;tree::any&quot;,&quot;value&quot;:{&quot;Value&quot;:{&quot;type&quot;:&quot;float&quot;,&quot;value&quot;:2}}}}}}},&quot;VolumeSection&quot;:{&quot;type&quot;:&quot;tree::any&quot;,&quot;value&quot;:{&quot;Enabled&quot;:{&quot;type&quot;:&quot;bool&quot;,&quot;value&quot;:true}}}}},&quot;TempData&quot;:{&quot;type&quot;:&quot;tree::any&quot;,&quot;value&quot;:{}}}"/>
          <component componentGuid="a6f7ad3f-f07b-49e4-8b02-b6c5d5f731e7" componentID="Audition.Fader" id="clipGain" name="volume" powered="true">
            <parameter index="0" name="volume" parameterValue="1"/>
            <parameter index="1" name="static gain" parameterValue="1"/>
          </component>
          <component componentGuid="98bb73c4-897f-45b8-8a03-74a8dc2c7edf" componentID="Audition.Mute" id="clipMute" name="Mute" powered="true">
            <parameter index="0" parameterValue="0"/>
            <parameter index="1" name="mute" parameterValue="0"/>
          </component>
          <component componentGuid="221a2b65-318e-47ec-bede-fbb1f5281263" componentID="Audition.StereoPanner" id="clipPan" name="StereoPanner" powered="true">
            <parameter index="0" name="Pan" parameterValue="0"/>
          </component>
          <fadeIn crossFadeLinkType="linkedAsymmetric" endPoint="11025" shape="19" startPoint="0" type="log"/>
          <fadeOut crossFadeLinkType="linkedAsymmetric" endPoint="573301" shape="19" startPoint="573301" type="log"/>
          <editParameter parameterIndex="0" slotIndex="4294967280"/>
          <editParameter parameterIndex="0" slotIndex="4294967281"/>
          <channelMap>
            <channel index="0" sourceIndex="0"/>
          </channelMap>
        </audioClip>
        <audioClip clipAutoCrossfade="true" crossFadeHeadClipID="-1" crossFadeTailClipID="-1" endPoint="134525809" fileID="1" hue="-1" id="92" lockedInTime="false" looped="false" name="Emily" offline="false" select="false" sourceInPoint="148130535" sourceOutPoint="148333217" startPoint="134323127" zOrder="216">
          <properties properties="{&quot;BasicAdjustmentsProperty&quot;:{&quot;type&quot;:&quot;tree::any&quot;,&quot;value&quot;:{&quot;AdjustmentMode&quot;:{&quot;type&quot;:&quot;UTF8String&quot;,&quot;value&quot;:&quot;dialog&quot;},&quot;ClaritySection&quot;:{&quot;type&quot;:&quot;tree::any&quot;,&quot;value&quot;:{&quot;Dynamics&quot;:{&quot;type&quot;:&quot;tree::any&quot;,&quot;value&quot;:{&quot;2&quot;:{&quot;type&quot;:&quot;tree::any&quot;,&quot;value&quot;:{&quot;Value&quot;:{&quot;type&quot;:&quot;float&quot;,&quot;value&quot;:3}}}}},&quot;Enabled&quot;:{&quot;type&quot;:&quot;bool&quot;,&quot;value&quot;:true}}},&quot;ClipType&quot;:{&quot;type&quot;:&quot;std::int32_t&quot;,&quot;value&quot;:1},&quot;EnhanceSpeechSection&quot;:{&quot;type&quot;:&quot;tree::any&quot;,&quot;value&quot;:{&quot;Enabled&quot;:{&quot;type&quot;:&quot;bool&quot;,&quot;value&quot;:true}}},&quot;PresetGuid&quot;:{&quot;type&quot;:&quot;UTF8String&quot;,&quot;value&quot;:&quot;bb717b4a-c0b1-4def-9040-3fb8e83b8a91&quot;},&quot;RestorationSection&quot;:{&quot;type&quot;:&quot;tree::any&quot;,&quot;value&quot;:{&quot;Enabled&quot;:{&quot;type&quot;:&quot;bool&quot;,&quot;value&quot;:true},&quot;ReduceHum&quot;:{&quot;type&quot;:&quot;tree::any&quot;,&quot;value&quot;:{&quot;4&quot;:{&quot;type&quot;:&quot;tree::any&quot;,&quot;value&quot;:{&quot;Value&quot;:{&quot;type&quot;:&quot;float&quot;,&quot;value&quot;:7.143000602722168}}},&quot;9&quot;:{&quot;type&quot;:&quot;tree::any&quot;,&quot;value&quot;:{&quot;Value&quot;:{&quot;type&quot;:&quot;float&quot;,&quot;value&quot;:60}}}}}}},&quot;SoundEffectsSection&quot;:{&quot;type&quot;:&quot;tree::any&quot;,&quot;value&quot;:{&quot;Enabled&quot;:{&quot;type&quot;:&quot;bool&quot;,&quot;value&quot;:true},&quot;Reverb&quot;:{&quot;type&quot;:&quot;tree::any&quot;,&quot;value&quot;:{&quot;3&quot;:{&quot;type&quot;:&quot;tree::any&quot;,&quot;value&quot;:{&quot;Value&quot;:{&quot;type&quot;:&quot;float&quot;,&quot;value&quot;:2}}}}}}},&quot;VolumeSection&quot;:{&quot;type&quot;:&quot;tree::any&quot;,&quot;value&quot;:{&quot;Enabled&quot;:{&quot;type&quot;:&quot;bool&quot;,&quot;value&quot;:true}}}}},&quot;TempData&quot;:{&quot;type&quot;:&quot;tree::any&quot;,&quot;value&quot;:{}}}"/>
          <component componentGuid="66ef79ad-3e48-492a-b4c2-6702d287f83f" componentID="Audition.Fader" id="clipGain" name="volume" powered="true">
            <parameter index="0" name="volume" parameterValue="1"/>
            <parameter index="1" name="static gain" parameterValue="1"/>
          </component>
          <component componentGuid="51a5b105-b69a-4ddd-acab-5967898c03d1" componentID="Audition.Mute" id="clipMute" name="Mute" powered="true">
            <parameter index="0" parameterValue="0"/>
            <parameter index="1" name="mute" parameterValue="0"/>
          </component>
          <component componentGuid="deaf04b8-be67-48c4-af20-699b72308d3d" componentID="Audition.StereoPanner" id="clipPan" name="StereoPanner" powered="true">
            <parameter index="0" name="Pan" parameterValue="0"/>
          </component>
          <fadeIn crossFadeLinkType="linkedAsymmetric" endPoint="0" shape="19" startPoint="0" type="log"/>
          <fadeOut crossFadeLinkType="linkedAsymmetric" endPoint="202682" shape="19" startPoint="202682" type="log"/>
          <editParameter parameterIndex="0" slotIndex="4294967280"/>
          <editParameter parameterIndex="0" slotIndex="4294967281"/>
          <channelMap>
            <channel index="0" sourceIndex="0"/>
          </channelMap>
        </audioClip>
        <audioClip clipAutoCrossfade="true" crossFadeHeadClipID="-1" crossFadeTailClipID="-1" endPoint="138832866" fileID="1" hue="-1" id="93" lockedInTime="false" looped="false" name="Emily" offline="false" select="false" sourceInPoint="150751754" sourceOutPoint="152642103" startPoint="136942517" zOrder="218">
          <properties properties="{&quot;BasicAdjustmentsProperty&quot;:{&quot;type&quot;:&quot;tree::any&quot;,&quot;value&quot;:{&quot;AdjustmentMode&quot;:{&quot;type&quot;:&quot;UTF8String&quot;,&quot;value&quot;:&quot;dialog&quot;},&quot;ClaritySection&quot;:{&quot;type&quot;:&quot;tree::any&quot;,&quot;value&quot;:{&quot;Dynamics&quot;:{&quot;type&quot;:&quot;tree::any&quot;,&quot;value&quot;:{&quot;2&quot;:{&quot;type&quot;:&quot;tree::any&quot;,&quot;value&quot;:{&quot;Value&quot;:{&quot;type&quot;:&quot;float&quot;,&quot;value&quot;:3}}}}},&quot;Enabled&quot;:{&quot;type&quot;:&quot;bool&quot;,&quot;value&quot;:true}}},&quot;ClipType&quot;:{&quot;type&quot;:&quot;std::int32_t&quot;,&quot;value&quot;:1},&quot;EnhanceSpeechSection&quot;:{&quot;type&quot;:&quot;tree::any&quot;,&quot;value&quot;:{&quot;Enabled&quot;:{&quot;type&quot;:&quot;bool&quot;,&quot;value&quot;:true}}},&quot;PresetGuid&quot;:{&quot;type&quot;:&quot;UTF8String&quot;,&quot;value&quot;:&quot;bb717b4a-c0b1-4def-9040-3fb8e83b8a91&quot;},&quot;RestorationSection&quot;:{&quot;type&quot;:&quot;tree::any&quot;,&quot;value&quot;:{&quot;Enabled&quot;:{&quot;type&quot;:&quot;bool&quot;,&quot;value&quot;:true},&quot;ReduceHum&quot;:{&quot;type&quot;:&quot;tree::any&quot;,&quot;value&quot;:{&quot;4&quot;:{&quot;type&quot;:&quot;tree::any&quot;,&quot;value&quot;:{&quot;Value&quot;:{&quot;type&quot;:&quot;float&quot;,&quot;value&quot;:7.143000602722168}}},&quot;9&quot;:{&quot;type&quot;:&quot;tree::any&quot;,&quot;value&quot;:{&quot;Value&quot;:{&quot;type&quot;:&quot;float&quot;,&quot;value&quot;:60}}}}}}},&quot;SoundEffectsSection&quot;:{&quot;type&quot;:&quot;tree::any&quot;,&quot;value&quot;:{&quot;Enabled&quot;:{&quot;type&quot;:&quot;bool&quot;,&quot;value&quot;:true},&quot;Reverb&quot;:{&quot;type&quot;:&quot;tree::any&quot;,&quot;value&quot;:{&quot;3&quot;:{&quot;type&quot;:&quot;tree::any&quot;,&quot;value&quot;:{&quot;Value&quot;:{&quot;type&quot;:&quot;float&quot;,&quot;value&quot;:2}}}}}}},&quot;VolumeSection&quot;:{&quot;type&quot;:&quot;tree::any&quot;,&quot;value&quot;:{&quot;Enabled&quot;:{&quot;type&quot;:&quot;bool&quot;,&quot;value&quot;:true}}}}},&quot;TempData&quot;:{&quot;type&quot;:&quot;tree::any&quot;,&quot;value&quot;:{}}}"/>
          <component componentGuid="b34ec4b6-e033-4dea-a470-b18e546f9756" componentID="Audition.Fader" id="clipGain" name="volume" powered="true">
            <parameter index="0" name="volume" parameterValue="1"/>
            <parameter index="1" name="static gain" parameterValue="1"/>
          </component>
          <component componentGuid="dd6c54bc-d55a-469b-9a77-0599c077d88e" componentID="Audition.Mute" id="clipMute" name="Mute" powered="true">
            <parameter index="0" parameterValue="0"/>
            <parameter index="1" name="mute" parameterValue="0"/>
          </component>
          <component componentGuid="65bdbf0a-6476-43dc-802c-0f3e29a28fd2" componentID="Audition.StereoPanner" id="clipPan" name="StereoPanner" powered="true">
            <parameter index="0" name="Pan" parameterValue="0"/>
          </component>
          <fadeIn crossFadeLinkType="linkedAsymmetric" endPoint="11025" shape="19" startPoint="0" type="log"/>
          <fadeOut crossFadeLinkType="linkedAsymmetric" endPoint="1890349" shape="19" startPoint="1890349" type="log"/>
          <editParameter parameterIndex="0" slotIndex="4294967280"/>
          <editParameter parameterIndex="0" slotIndex="4294967281"/>
          <channelMap>
            <channel index="0" sourceIndex="0"/>
          </channelMap>
        </audioClip>
      </audioTrack>
      <audioTrack automationLaneOpenState="false" id="10003" index="3" select="true" visible="true">
        <trackParameters trackHeight="229" trackHue="51" trackMinimized="false">
          <name>Rachel</name>
        </trackParameters>
        <trackAudioParameters audioChannelType="stereo" automationMode="1" monitoring="false" recordArmed="false" solo="false" soloSafe="false">
          <trackOutput outputID="10007" type="trackID"/>
          <trackInput inputID="1"/>
          <component componentGuid="45af74f7-4438-4c36-939b-0a72d0cacdc2" componentID="Audition.Fader" id="trackFader" name="volume" powered="true">
            <parameter index="0" name="volume" parameterValue="1"/>
            <parameter index="1" name="static gain" parameterValue="1"/>
          </component>
          <component componentGuid="e0f87d8a-711c-466b-9eae-c053855c44c0" componentID="Audition.Mute" id="trackMute" name="Mute" powered="true">
            <parameter index="0" parameterValue="0"/>
            <parameter index="1" name="mute" parameterValue="0"/>
          </component>
          <component componentGuid="fb7cbcd8-4954-4a9f-a7b0-a9f82f906267" componentID="Audition.StereoPanner" id="trackPan" name="StereoPanner" powered="true">
            <parameter index="0" name="Pan" parameterValue="10"/>
          </component>
          <component componentGuid="cc69b100-8e96-4b7a-ae74-833f6273e376" componentID="Audition.EQ" id="trackEQ" name="EQ" powered="false">
            <parameter index="0" name="Low Shelf Frequency" parameterValue="0.0009078529546968638896942138671875"/>
            <parameter index="1" name="Low Shelf Gain" parameterValue="0.5"/>
            <parameter index="2" name="High Shelf Frequency" parameterValue="0.816159784793853759765625"/>
            <parameter index="3" name="High Shelf Gain" parameterValue="0.5"/>
            <parameter index="4" name="EQ Band 1 Center Frequency" parameterValue="0.0013617794029414653778076171875"/>
            <parameter index="5" name="EQ Band 1 Q" parameterValue="0.000199989997781813144683837890625"/>
            <parameter index="6" name="EQ Band 1 Gain" parameterValue="0.5"/>
            <parameter index="7" name="EQ Band 1 Enable" parameterValue="1"/>
            <parameter index="8" name="EQ Band 2 Center Frequency" parameterValue="0.008170676417648792266845703125"/>
            <parameter index="9" name="EQ Band 2 Q" parameterValue="0.000199989997781813144683837890625"/>
            <parameter index="10" name="EQ Band 2 Gain" parameterValue="0.5"/>
            <parameter index="11" name="EQ Band 2 Enable" parameterValue="1"/>
            <parameter index="12" name="EQ Band 3 Center Frequency" parameterValue="0.0354062654078006744384765625"/>
            <parameter index="13" name="EQ Band 3 Q" parameterValue="0.000199989997781813144683837890625"/>
            <parameter index="14" name="EQ Band 3 Gain" parameterValue="0.5"/>
            <parameter index="15" name="EQ Band 3 Enable" parameterValue="1"/>
            <parameter index="16" name="EQ Band 4 Center Frequency" parameterValue="0.144348621368408203125"/>
            <parameter index="17" name="EQ Band 4 Q" parameterValue="0.000199989997781813144683837890625"/>
            <parameter index="18" name="EQ Band 4 Gain" parameterValue="0.5"/>
            <parameter index="19" name="EQ Band 4 Enable" parameterValue="1"/>
            <parameter index="20" name="EQ Band 5 Center Frequency" parameterValue="0.580118000507354736328125"/>
            <parameter index="21" name="EQ Band 5 Q" parameterValue="0.000199989997781813144683837890625"/>
            <parameter index="22" name="EQ Band 5 Gain" parameterValue="0.5"/>
            <parameter index="23" name="EQ Band 5 Enable" parameterValue="1"/>
            <parameter index="24" name="Gain" parameterValue="0.666666686534881591796875"/>
            <parameter index="25" name="ConstantQ" parameterValue="1"/>
            <parameter index="26" name="Low Shelf Filter Order" parameterValue="0"/>
            <parameter index="27" name="High Shelf Filter Order" parameterValue="0"/>
            <parameter index="28" name="Ultra-Quiet Mode" parameterValue="0"/>
            <parameter index="29" name="Low Shelf Enable" parameterValue="1"/>
            <parameter index="30" name="High Shelf Enable" parameterValue="1"/>
            <parameter index="31" name="Original Sample Rate" parameterValue="0.22968749701976776123046875"/>
            <parameter index="32" name="EQ Band 1 Bandwidth" parameterValue="0.002499990165233612060546875"/>
            <parameter index="33" name="EQ Band 2 Bandwidth" parameterValue="0.0099999904632568359375"/>
            <parameter index="34" name="EQ Band 3 Bandwidth" parameterValue="0.0399999916553497314453125"/>
            <parameter index="35" name="EQ Band 4 Bandwidth" parameterValue="0.15999998152256011962890625"/>
            <parameter index="36" name="EQ Band 5 Bandwidth" parameterValue="0.63999998569488525390625"/>
            <parameter index="37" name="High-Pass Filter Enable" parameterValue="0"/>
            <parameter index="38" name="High-Pass Cutoff Frequency" parameterValue="0"/>
            <parameter index="39" name="High-Pass Slope" parameterValue="0.4000000059604644775390625"/>
            <parameter index="40" name="Low-Pass Filter Enable" parameterValue="0"/>
            <parameter index="41" name="Low-Pass Cutoff Frequency" parameterValue="0.906945049762725830078125"/>
            <parameter index="42" name="Low-Pass Slope" parameterValue="0.4000000059604644775390625"/>
            <parameter index="43" name="Bypass" parameterValue="0"/>
            <parameter index="44" name="LowGraphRange" parameterValue="1"/>
          </component>
        </trackAudioParameters>
        <effectsRack preFader="true">
          <component componentGuid="6afc4475-7206-43ed-b065-83f28f8b85a5" componentID="Audition.ComponentGroup" id="rackMix" powered="true">
            <parameter index="0" parameterValue="0"/>
            <parameter index="1" parameterValue="0"/>
          </component>
          <component componentGuid="59a2e546-b104-4345-86b2-0f932584afd8" id="rackInput" powered="true">
            <parameter index="0" parameterValue="1"/>
            <parameter index="1" parameterValue="0"/>
          </component>
          <component componentGuid="1256c7be-a66e-48ce-82e9-f5026e3e2b41" id="rackOutput" powered="true">
            <parameter index="0" parameterValue="1"/>
            <parameter index="1" parameterValue="0"/>
          </component>
          <slot powered="true" slotIndex="0">
            <component componentGuid="d04e903d-9380-4b64-bb54-29b0eb04c567" componentID="f76dad9c-77da-477a-9939-eefefc5c23bd" name="Dynamics Processing" presetName="(Default)">
              <busConfig><![CDATA[{"in":[{"layout":[100,101],"name":"","type":0},{"layout":[100,101],"name":"Side-Chain In","type":1}],"out":[{"layout":[100,101],"name":"","type":0}]}]]></busConfig>
              <channelMap direction="input">
                <channel index="0" sourceIndex="0"/>
                <channel index="1" sourceIndex="1"/>
              </channelMap>
              <parameter index="0" name="Level Detector - Attack Time" parameterValue="0.00200000009499490261077880859375"/>
              <parameter index="1" name="Level Detector - Release Time" parameterValue="0.0500000007450580596923828125"/>
              <parameter index="2" name="Gain Processor - Attack Time" parameterValue="0.048000000417232513427734375"/>
              <parameter index="3" name="Gain Processor - Release Time" parameterValue="0.0500000007450580596923828125"/>
              <parameter index="4" name="Lookahead Time" parameterValue="0.006000000052154064178466796875"/>
              <parameter index="5" name="Input Gain" parameterValue="0.5"/>
              <parameter index="6" name="Output Gain" parameterValue="0.5"/>
              <parameter index="7" name="Low Cutoff" parameterValue="0"/>
              <parameter index="8" name="High Cutoff" parameterValue="1"/>
              <parameter index="9" name="Lock Filter" parameterValue="0"/>
              <parameter index="10" name="Number of X/Y Pairs" parameterValue="0.857142865657806396484375"/>
              <parameter index="11" name="Link Channels" parameterValue="0"/>
              <parameter index="12" name="Peak/RMS" parameterValue="1"/>
              <parameter index="13" name="Envelope Only" parameterValue="0"/>
              <parameter index="14" name="Spline Curves" parameterValue="1"/>
              <parameter index="15" name="Noise Gating (if expanding more than 50:1)" parameterValue="0"/>
              <parameter index="16" name="Current Tab" parameterValue="1"/>
              <parameter index="17" name="Location1" parameterValue="0"/>
              <parameter index="18" name="Value1" parameterValue="0"/>
              <parameter index="19" name="Location2" parameterValue="0.19891418516635894775390625"/>
              <parameter index="20" name="Value2" parameterValue="0.07956565916538238525390625"/>
              <parameter index="21" name="Location3" parameterValue="0.31826269626617431640625"/>
              <parameter index="22" name="Value3" parameterValue="0.260975420475006103515625"/>
              <parameter index="23" name="Location4" parameterValue="0.4078284204006195068359375"/>
              <parameter index="24" name="Value4" parameterValue="0.4078284204006195068359375"/>
              <parameter index="25" name="Location5" parameterValue="0.685686886310577392578125"/>
              <parameter index="26" name="Value5" parameterValue="0.80852854251861572265625"/>
              <parameter index="27" name="Location6" parameterValue="1"/>
              <parameter index="28" name="Value6" parameterValue="0.98800003528594970703125"/>
              <parameter index="29" name="Location7" parameterValue="0.5"/>
              <parameter index="30" name="Value7" parameterValue="0.5"/>
              <parameter index="31" name="Make-Up Gain" parameterValue="0"/>
            </component>
          </slot>
        </effectsRack>
        <editParameter parameterIndex="0" slotIndex="4294967280"/>
        <audioClip clipAutoCrossfade="true" crossFadeHeadClipID="-1" crossFadeTailClipID="-1" endPoint="10089089" fileID="2" hue="-1" id="0" lockedInTime="false" looped="false" name="Rachel" offline="false" select="false" sourceInPoint="17075135" sourceOutPoint="17388448" startPoint="9775776" zOrder="0">
          <properties properties="{&quot;BasicAdjustmentsProperty&quot;:{&quot;type&quot;:&quot;tree::any&quot;,&quot;value&quot;:{&quot;AdjustmentMode&quot;:{&quot;type&quot;:&quot;UTF8String&quot;,&quot;value&quot;:&quot;dialog&quot;},&quot;ClaritySection&quot;:{&quot;type&quot;:&quot;tree::any&quot;,&quot;value&quot;:{&quot;Dynamics&quot;:{&quot;type&quot;:&quot;tree::any&quot;,&quot;value&quot;:{&quot;2&quot;:{&quot;type&quot;:&quot;tree::any&quot;,&quot;value&quot;:{&quot;Value&quot;:{&quot;type&quot;:&quot;float&quot;,&quot;value&quot;:3}}}}},&quot;Enabled&quot;:{&quot;type&quot;:&quot;bool&quot;,&quot;value&quot;:true}}},&quot;ClipType&quot;:{&quot;type&quot;:&quot;std::int32_t&quot;,&quot;value&quot;:1},&quot;EnhanceSpeechSection&quot;:{&quot;type&quot;:&quot;tree::any&quot;,&quot;value&quot;:{&quot;Enabled&quot;:{&quot;type&quot;:&quot;bool&quot;,&quot;value&quot;:true}}},&quot;PresetGuid&quot;:{&quot;type&quot;:&quot;UTF8String&quot;,&quot;value&quot;:&quot;bb717b4a-c0b1-4def-9040-3fb8e83b8a91&quot;},&quot;RestorationSection&quot;:{&quot;type&quot;:&quot;tree::any&quot;,&quot;value&quot;:{&quot;Enabled&quot;:{&quot;type&quot;:&quot;bool&quot;,&quot;value&quot;:true},&quot;ReduceHum&quot;:{&quot;type&quot;:&quot;tree::any&quot;,&quot;value&quot;:{&quot;4&quot;:{&quot;type&quot;:&quot;tree::any&quot;,&quot;value&quot;:{&quot;Value&quot;:{&quot;type&quot;:&quot;float&quot;,&quot;value&quot;:7.143000602722168}}},&quot;9&quot;:{&quot;type&quot;:&quot;tree::any&quot;,&quot;value&quot;:{&quot;Value&quot;:{&quot;type&quot;:&quot;float&quot;,&quot;value&quot;:60}}}}}}},&quot;SoundEffectsSection&quot;:{&quot;type&quot;:&quot;tree::any&quot;,&quot;value&quot;:{&quot;Enabled&quot;:{&quot;type&quot;:&quot;bool&quot;,&quot;value&quot;:true},&quot;Reverb&quot;:{&quot;type&quot;:&quot;tree::any&quot;,&quot;value&quot;:{&quot;3&quot;:{&quot;type&quot;:&quot;tree::any&quot;,&quot;value&quot;:{&quot;Value&quot;:{&quot;type&quot;:&quot;float&quot;,&quot;value&quot;:2}}}}}}},&quot;VolumeSection&quot;:{&quot;type&quot;:&quot;tree::any&quot;,&quot;value&quot;:{&quot;Enabled&quot;:{&quot;type&quot;:&quot;bool&quot;,&quot;value&quot;:true}}}}}}"/>
          <component componentGuid="a5f9e5df-6512-431f-9baf-9e874ae09319" componentID="Audition.Fader" id="clipGain" name="volume" powered="true">
            <parameter index="0" name="volume" parameterValue="1"/>
            <parameter index="1" name="static gain" parameterValue="1"/>
          </component>
          <component componentGuid="56833dd8-92ed-4797-ba72-588db7934dc5" componentID="Audition.Mute" id="clipMute" name="Mute" powered="true">
            <parameter index="0" parameterValue="0"/>
            <parameter index="1" name="mute" parameterValue="0"/>
          </component>
          <component componentGuid="9b1057e4-3061-466e-9eca-79b5c6dbbf0d" componentID="Audition.StereoPanner" id="clipPan" name="StereoPanner" powered="true">
            <parameter index="0" name="Pan" parameterValue="0"/>
          </component>
          <fadeIn crossFadeLinkType="linkedAsymmetric" endPoint="0" shape="19" startPoint="0" type="log"/>
          <fadeOut crossFadeLinkType="linkedAsymmetric" endPoint="313313" shape="19" startPoint="302288" type="log"/>
          <editParameter parameterIndex="0" slotIndex="4294967280"/>
          <editParameter parameterIndex="0" slotIndex="4294967281"/>
          <channelMap>
            <channel index="0" sourceIndex="0"/>
          </channelMap>
        </audioClip>
        <audioClip clipAutoCrossfade="true" crossFadeHeadClipID="-1" crossFadeTailClipID="-1" endPoint="10864720" fileID="2" hue="-1" id="1" lockedInTime="false" looped="false" name="Rachel" offline="false" select="false" sourceInPoint="17840182" sourceOutPoint="18187073" startPoint="10517829" zOrder="1">
          <properties properties="{&quot;BasicAdjustmentsProperty&quot;:{&quot;type&quot;:&quot;tree::any&quot;,&quot;value&quot;:{&quot;AdjustmentMode&quot;:{&quot;type&quot;:&quot;UTF8String&quot;,&quot;value&quot;:&quot;dialog&quot;},&quot;ClaritySection&quot;:{&quot;type&quot;:&quot;tree::any&quot;,&quot;value&quot;:{&quot;Dynamics&quot;:{&quot;type&quot;:&quot;tree::any&quot;,&quot;value&quot;:{&quot;2&quot;:{&quot;type&quot;:&quot;tree::any&quot;,&quot;value&quot;:{&quot;Value&quot;:{&quot;type&quot;:&quot;float&quot;,&quot;value&quot;:3}}}}},&quot;Enabled&quot;:{&quot;type&quot;:&quot;bool&quot;,&quot;value&quot;:true}}},&quot;ClipType&quot;:{&quot;type&quot;:&quot;std::int32_t&quot;,&quot;value&quot;:1},&quot;EnhanceSpeechSection&quot;:{&quot;type&quot;:&quot;tree::any&quot;,&quot;value&quot;:{&quot;Enabled&quot;:{&quot;type&quot;:&quot;bool&quot;,&quot;value&quot;:true}}},&quot;PresetGuid&quot;:{&quot;type&quot;:&quot;UTF8String&quot;,&quot;value&quot;:&quot;bb717b4a-c0b1-4def-9040-3fb8e83b8a91&quot;},&quot;RestorationSection&quot;:{&quot;type&quot;:&quot;tree::any&quot;,&quot;value&quot;:{&quot;Enabled&quot;:{&quot;type&quot;:&quot;bool&quot;,&quot;value&quot;:true},&quot;ReduceHum&quot;:{&quot;type&quot;:&quot;tree::any&quot;,&quot;value&quot;:{&quot;4&quot;:{&quot;type&quot;:&quot;tree::any&quot;,&quot;value&quot;:{&quot;Value&quot;:{&quot;type&quot;:&quot;float&quot;,&quot;value&quot;:7.143000602722168}}},&quot;9&quot;:{&quot;type&quot;:&quot;tree::any&quot;,&quot;value&quot;:{&quot;Value&quot;:{&quot;type&quot;:&quot;float&quot;,&quot;value&quot;:60}}}}}}},&quot;SoundEffectsSection&quot;:{&quot;type&quot;:&quot;tree::any&quot;,&quot;value&quot;:{&quot;Enabled&quot;:{&quot;type&quot;:&quot;bool&quot;,&quot;value&quot;:true},&quot;Reverb&quot;:{&quot;type&quot;:&quot;tree::any&quot;,&quot;value&quot;:{&quot;3&quot;:{&quot;type&quot;:&quot;tree::any&quot;,&quot;value&quot;:{&quot;Value&quot;:{&quot;type&quot;:&quot;float&quot;,&quot;value&quot;:2}}}}}}},&quot;VolumeSection&quot;:{&quot;type&quot;:&quot;tree::any&quot;,&quot;value&quot;:{&quot;Enabled&quot;:{&quot;type&quot;:&quot;bool&quot;,&quot;value&quot;:true}}}}}}"/>
          <component componentGuid="b99357c7-f467-45a4-ab01-98fffa19e92f" componentID="Audition.Fader" id="clipGain" name="volume" powered="true">
            <parameter index="0" name="volume" parameterValue="1"/>
            <parameter index="1" name="static gain" parameterValue="1"/>
          </component>
          <component componentGuid="6a2ab169-5525-45b9-8060-85178580c638" componentID="Audition.Mute" id="clipMute" name="Mute" powered="true">
            <parameter index="0" parameterValue="0"/>
            <parameter index="1" name="mute" parameterValue="0"/>
          </component>
          <component componentGuid="b86c26d6-718c-4b01-855a-f7976c18caf1" componentID="Audition.StereoPanner" id="clipPan" name="StereoPanner" powered="true">
            <parameter index="0" name="Pan" parameterValue="0"/>
          </component>
          <fadeIn crossFadeLinkType="linkedAsymmetric" endPoint="11025" shape="19" startPoint="0" type="log"/>
          <fadeOut crossFadeLinkType="linkedAsymmetric" endPoint="346891" shape="19" startPoint="335866" type="log"/>
          <editParameter parameterIndex="0" slotIndex="4294967280"/>
          <editParameter parameterIndex="0" slotIndex="4294967281"/>
          <channelMap>
            <channel index="0" sourceIndex="0"/>
          </channelMap>
        </audioClip>
        <audioClip clipAutoCrossfade="true" crossFadeHeadClipID="-1" crossFadeTailClipID="-1" endPoint="13466341" fileID="2" hue="-1" id="2" lockedInTime="false" looped="false" name="Rachel" offline="false" select="false" sourceInPoint="23263331" sourceOutPoint="23326303" startPoint="13403369" zOrder="4">
          <properties properties="{&quot;BasicAdjustmentsProperty&quot;:{&quot;type&quot;:&quot;tree::any&quot;,&quot;value&quot;:{&quot;AdjustmentMode&quot;:{&quot;type&quot;:&quot;UTF8String&quot;,&quot;value&quot;:&quot;dialog&quot;},&quot;ClaritySection&quot;:{&quot;type&quot;:&quot;tree::any&quot;,&quot;value&quot;:{&quot;Dynamics&quot;:{&quot;type&quot;:&quot;tree::any&quot;,&quot;value&quot;:{&quot;2&quot;:{&quot;type&quot;:&quot;tree::any&quot;,&quot;value&quot;:{&quot;Value&quot;:{&quot;type&quot;:&quot;float&quot;,&quot;value&quot;:3}}}}},&quot;Enabled&quot;:{&quot;type&quot;:&quot;bool&quot;,&quot;value&quot;:true}}},&quot;ClipType&quot;:{&quot;type&quot;:&quot;std::int32_t&quot;,&quot;value&quot;:1},&quot;EnhanceSpeechSection&quot;:{&quot;type&quot;:&quot;tree::any&quot;,&quot;value&quot;:{&quot;Enabled&quot;:{&quot;type&quot;:&quot;bool&quot;,&quot;value&quot;:true}}},&quot;PresetGuid&quot;:{&quot;type&quot;:&quot;UTF8String&quot;,&quot;value&quot;:&quot;bb717b4a-c0b1-4def-9040-3fb8e83b8a91&quot;},&quot;RestorationSection&quot;:{&quot;type&quot;:&quot;tree::any&quot;,&quot;value&quot;:{&quot;Enabled&quot;:{&quot;type&quot;:&quot;bool&quot;,&quot;value&quot;:true},&quot;ReduceHum&quot;:{&quot;type&quot;:&quot;tree::any&quot;,&quot;value&quot;:{&quot;4&quot;:{&quot;type&quot;:&quot;tree::any&quot;,&quot;value&quot;:{&quot;Value&quot;:{&quot;type&quot;:&quot;float&quot;,&quot;value&quot;:7.143000602722168}}},&quot;9&quot;:{&quot;type&quot;:&quot;tree::any&quot;,&quot;value&quot;:{&quot;Value&quot;:{&quot;type&quot;:&quot;float&quot;,&quot;value&quot;:60}}}}}}},&quot;SoundEffectsSection&quot;:{&quot;type&quot;:&quot;tree::any&quot;,&quot;value&quot;:{&quot;Enabled&quot;:{&quot;type&quot;:&quot;bool&quot;,&quot;value&quot;:true},&quot;Reverb&quot;:{&quot;type&quot;:&quot;tree::any&quot;,&quot;value&quot;:{&quot;3&quot;:{&quot;type&quot;:&quot;tree::any&quot;,&quot;value&quot;:{&quot;Value&quot;:{&quot;type&quot;:&quot;float&quot;,&quot;value&quot;:2}}}}}}},&quot;VolumeSection&quot;:{&quot;type&quot;:&quot;tree::any&quot;,&quot;value&quot;:{&quot;Enabled&quot;:{&quot;type&quot;:&quot;bool&quot;,&quot;value&quot;:true}}}}}}"/>
          <component componentGuid="2752fc4a-a0ed-4d6d-80b1-76537d3f5678" componentID="Audition.Fader" id="clipGain" name="volume" powered="true">
            <parameter index="0" name="volume" parameterValue="1"/>
            <parameter index="1" name="static gain" parameterValue="1"/>
          </component>
          <component componentGuid="70c1d1f7-7b58-4d2c-af6f-40e3192855e2" componentID="Audition.Mute" id="clipMute" name="Mute" powered="true">
            <parameter index="0" parameterValue="0"/>
            <parameter index="1" name="mute" parameterValue="0"/>
          </component>
          <component componentGuid="26340103-18e3-48d5-a780-60c7e98e7035" componentID="Audition.StereoPanner" id="clipPan" name="StereoPanner" powered="true">
            <parameter index="0" name="Pan" parameterValue="0"/>
          </component>
          <fadeIn crossFadeLinkType="linkedAsymmetric" endPoint="11025" shape="19" startPoint="0" type="log"/>
          <fadeOut crossFadeLinkType="linkedAsymmetric" endPoint="62972" shape="19" startPoint="51947" type="log"/>
          <editParameter parameterIndex="0" slotIndex="4294967280"/>
          <editParameter parameterIndex="0" slotIndex="4294967281"/>
          <channelMap>
            <channel index="0" sourceIndex="0"/>
          </channelMap>
        </audioClip>
        <audioClip clipAutoCrossfade="true" crossFadeHeadClipID="-1" crossFadeTailClipID="-1" endPoint="13598942" fileID="2" hue="-1" id="3" lockedInTime="false" looped="false" name="Rachel" offline="false" select="false" sourceInPoint="23405359" sourceOutPoint="23458903" startPoint="13545398" zOrder="2">
          <properties properties="{&quot;BasicAdjustmentsProperty&quot;:{&quot;type&quot;:&quot;tree::any&quot;,&quot;value&quot;:{&quot;AdjustmentMode&quot;:{&quot;type&quot;:&quot;UTF8String&quot;,&quot;value&quot;:&quot;dialog&quot;},&quot;ClaritySection&quot;:{&quot;type&quot;:&quot;tree::any&quot;,&quot;value&quot;:{&quot;Dynamics&quot;:{&quot;type&quot;:&quot;tree::any&quot;,&quot;value&quot;:{&quot;2&quot;:{&quot;type&quot;:&quot;tree::any&quot;,&quot;value&quot;:{&quot;Value&quot;:{&quot;type&quot;:&quot;float&quot;,&quot;value&quot;:3}}}}},&quot;Enabled&quot;:{&quot;type&quot;:&quot;bool&quot;,&quot;value&quot;:true}}},&quot;ClipType&quot;:{&quot;type&quot;:&quot;std::int32_t&quot;,&quot;value&quot;:1},&quot;EnhanceSpeechSection&quot;:{&quot;type&quot;:&quot;tree::any&quot;,&quot;value&quot;:{&quot;Enabled&quot;:{&quot;type&quot;:&quot;bool&quot;,&quot;value&quot;:true}}},&quot;PresetGuid&quot;:{&quot;type&quot;:&quot;UTF8String&quot;,&quot;value&quot;:&quot;bb717b4a-c0b1-4def-9040-3fb8e83b8a91&quot;},&quot;RestorationSection&quot;:{&quot;type&quot;:&quot;tree::any&quot;,&quot;value&quot;:{&quot;Enabled&quot;:{&quot;type&quot;:&quot;bool&quot;,&quot;value&quot;:true},&quot;ReduceHum&quot;:{&quot;type&quot;:&quot;tree::any&quot;,&quot;value&quot;:{&quot;4&quot;:{&quot;type&quot;:&quot;tree::any&quot;,&quot;value&quot;:{&quot;Value&quot;:{&quot;type&quot;:&quot;float&quot;,&quot;value&quot;:7.143000602722168}}},&quot;9&quot;:{&quot;type&quot;:&quot;tree::any&quot;,&quot;value&quot;:{&quot;Value&quot;:{&quot;type&quot;:&quot;float&quot;,&quot;value&quot;:60}}}}}}},&quot;SoundEffectsSection&quot;:{&quot;type&quot;:&quot;tree::any&quot;,&quot;value&quot;:{&quot;Enabled&quot;:{&quot;type&quot;:&quot;bool&quot;,&quot;value&quot;:true},&quot;Reverb&quot;:{&quot;type&quot;:&quot;tree::any&quot;,&quot;value&quot;:{&quot;3&quot;:{&quot;type&quot;:&quot;tree::any&quot;,&quot;value&quot;:{&quot;Value&quot;:{&quot;type&quot;:&quot;float&quot;,&quot;value&quot;:2}}}}}}},&quot;VolumeSection&quot;:{&quot;type&quot;:&quot;tree::any&quot;,&quot;value&quot;:{&quot;Enabled&quot;:{&quot;type&quot;:&quot;bool&quot;,&quot;value&quot;:true}}}}}}"/>
          <component componentGuid="ee0b632f-19be-42ca-849f-ec11b5fe41b0" componentID="Audition.Fader" id="clipGain" name="volume" powered="true">
            <parameter index="0" name="volume" parameterValue="1"/>
            <parameter index="1" name="static gain" parameterValue="1"/>
          </component>
          <component componentGuid="ae4332f1-bdb5-4151-938b-51ef86cf8384" componentID="Audition.Mute" id="clipMute" name="Mute" powered="true">
            <parameter index="0" parameterValue="0"/>
            <parameter index="1" name="mute" parameterValue="0"/>
          </component>
          <component componentGuid="ad52d7cc-773f-4962-99c4-2bb1fe2cf69a" componentID="Audition.StereoPanner" id="clipPan" name="StereoPanner" powered="true">
            <parameter index="0" name="Pan" parameterValue="0"/>
          </component>
          <fadeIn crossFadeLinkType="linkedAsymmetric" endPoint="11025" shape="19" startPoint="0" type="log"/>
          <fadeOut crossFadeLinkType="linkedAsymmetric" endPoint="53544" shape="19" startPoint="53544" type="log"/>
          <editParameter parameterIndex="0" slotIndex="4294967280"/>
          <editParameter parameterIndex="0" slotIndex="4294967281"/>
          <channelMap>
            <channel index="0" sourceIndex="0"/>
          </channelMap>
        </audioClip>
        <audioClip clipAutoCrossfade="true" crossFadeHeadClipID="-1" crossFadeTailClipID="-1" endPoint="14382476" fileID="2" hue="-1" id="4" lockedInTime="false" looped="false" name="Rachel" offline="false" select="false" sourceInPoint="24181475" sourceOutPoint="24242437" startPoint="14321514" zOrder="3">
          <properties properties="{&quot;BasicAdjustmentsProperty&quot;:{&quot;type&quot;:&quot;tree::any&quot;,&quot;value&quot;:{&quot;AdjustmentMode&quot;:{&quot;type&quot;:&quot;UTF8String&quot;,&quot;value&quot;:&quot;dialog&quot;},&quot;ClaritySection&quot;:{&quot;type&quot;:&quot;tree::any&quot;,&quot;value&quot;:{&quot;Dynamics&quot;:{&quot;type&quot;:&quot;tree::any&quot;,&quot;value&quot;:{&quot;2&quot;:{&quot;type&quot;:&quot;tree::any&quot;,&quot;value&quot;:{&quot;Value&quot;:{&quot;type&quot;:&quot;float&quot;,&quot;value&quot;:3}}}}},&quot;Enabled&quot;:{&quot;type&quot;:&quot;bool&quot;,&quot;value&quot;:true}}},&quot;ClipType&quot;:{&quot;type&quot;:&quot;std::int32_t&quot;,&quot;value&quot;:1},&quot;EnhanceSpeechSection&quot;:{&quot;type&quot;:&quot;tree::any&quot;,&quot;value&quot;:{&quot;Enabled&quot;:{&quot;type&quot;:&quot;bool&quot;,&quot;value&quot;:true}}},&quot;PresetGuid&quot;:{&quot;type&quot;:&quot;UTF8String&quot;,&quot;value&quot;:&quot;bb717b4a-c0b1-4def-9040-3fb8e83b8a91&quot;},&quot;RestorationSection&quot;:{&quot;type&quot;:&quot;tree::any&quot;,&quot;value&quot;:{&quot;Enabled&quot;:{&quot;type&quot;:&quot;bool&quot;,&quot;value&quot;:true},&quot;ReduceHum&quot;:{&quot;type&quot;:&quot;tree::any&quot;,&quot;value&quot;:{&quot;4&quot;:{&quot;type&quot;:&quot;tree::any&quot;,&quot;value&quot;:{&quot;Value&quot;:{&quot;type&quot;:&quot;float&quot;,&quot;value&quot;:7.143000602722168}}},&quot;9&quot;:{&quot;type&quot;:&quot;tree::any&quot;,&quot;value&quot;:{&quot;Value&quot;:{&quot;type&quot;:&quot;float&quot;,&quot;value&quot;:60}}}}}}},&quot;SoundEffectsSection&quot;:{&quot;type&quot;:&quot;tree::any&quot;,&quot;value&quot;:{&quot;Enabled&quot;:{&quot;type&quot;:&quot;bool&quot;,&quot;value&quot;:true},&quot;Reverb&quot;:{&quot;type&quot;:&quot;tree::any&quot;,&quot;value&quot;:{&quot;3&quot;:{&quot;type&quot;:&quot;tree::any&quot;,&quot;value&quot;:{&quot;Value&quot;:{&quot;type&quot;:&quot;float&quot;,&quot;value&quot;:2}}}}}}},&quot;VolumeSection&quot;:{&quot;type&quot;:&quot;tree::any&quot;,&quot;value&quot;:{&quot;Enabled&quot;:{&quot;type&quot;:&quot;bool&quot;,&quot;value&quot;:true}}}}}}"/>
          <component componentGuid="1884e7c0-27ce-40fb-96f6-9173017aa7a0" componentID="Audition.Fader" id="clipGain" name="volume" powered="true">
            <parameter index="0" name="volume" parameterValue="1"/>
            <parameter index="1" name="static gain" parameterValue="1"/>
          </component>
          <component componentGuid="d6746c5f-dce3-4099-bc11-466dacd61339" componentID="Audition.Mute" id="clipMute" name="Mute" powered="true">
            <parameter index="0" parameterValue="0"/>
            <parameter index="1" name="mute" parameterValue="0"/>
          </component>
          <component componentGuid="7916436e-004a-4eba-8028-be2e8d7ec6f7" componentID="Audition.StereoPanner" id="clipPan" name="StereoPanner" powered="true">
            <parameter index="0" name="Pan" parameterValue="0"/>
          </component>
          <fadeIn crossFadeLinkType="linkedAsymmetric" endPoint="11025" shape="19" startPoint="0" type="log"/>
          <fadeOut crossFadeLinkType="linkedAsymmetric" endPoint="60962" shape="19" startPoint="49937" type="log"/>
          <editParameter parameterIndex="0" slotIndex="4294967280"/>
          <editParameter parameterIndex="0" slotIndex="4294967281"/>
          <channelMap>
            <channel index="0" sourceIndex="0"/>
          </channelMap>
        </audioClip>
        <audioClip clipAutoCrossfade="true" crossFadeHeadClipID="-1" crossFadeTailClipID="-1" endPoint="44235212" fileID="2" hue="-1" id="5" lockedInTime="false" looped="false" name="Rachel" offline="false" select="false" sourceInPoint="54038999" sourceOutPoint="54135807" startPoint="44138404" zOrder="5">
          <properties properties="{&quot;BasicAdjustmentsProperty&quot;:{&quot;type&quot;:&quot;tree::any&quot;,&quot;value&quot;:{&quot;AdjustmentMode&quot;:{&quot;type&quot;:&quot;UTF8String&quot;,&quot;value&quot;:&quot;dialog&quot;},&quot;ClaritySection&quot;:{&quot;type&quot;:&quot;tree::any&quot;,&quot;value&quot;:{&quot;Dynamics&quot;:{&quot;type&quot;:&quot;tree::any&quot;,&quot;value&quot;:{&quot;2&quot;:{&quot;type&quot;:&quot;tree::any&quot;,&quot;value&quot;:{&quot;Value&quot;:{&quot;type&quot;:&quot;float&quot;,&quot;value&quot;:3}}}}},&quot;Enabled&quot;:{&quot;type&quot;:&quot;bool&quot;,&quot;value&quot;:true}}},&quot;ClipType&quot;:{&quot;type&quot;:&quot;std::int32_t&quot;,&quot;value&quot;:1},&quot;EnhanceSpeechSection&quot;:{&quot;type&quot;:&quot;tree::any&quot;,&quot;value&quot;:{&quot;Enabled&quot;:{&quot;type&quot;:&quot;bool&quot;,&quot;value&quot;:true}}},&quot;PresetGuid&quot;:{&quot;type&quot;:&quot;UTF8String&quot;,&quot;value&quot;:&quot;bb717b4a-c0b1-4def-9040-3fb8e83b8a91&quot;},&quot;RestorationSection&quot;:{&quot;type&quot;:&quot;tree::any&quot;,&quot;value&quot;:{&quot;Enabled&quot;:{&quot;type&quot;:&quot;bool&quot;,&quot;value&quot;:true},&quot;ReduceHum&quot;:{&quot;type&quot;:&quot;tree::any&quot;,&quot;value&quot;:{&quot;4&quot;:{&quot;type&quot;:&quot;tree::any&quot;,&quot;value&quot;:{&quot;Value&quot;:{&quot;type&quot;:&quot;float&quot;,&quot;value&quot;:7.143000602722168}}},&quot;9&quot;:{&quot;type&quot;:&quot;tree::any&quot;,&quot;value&quot;:{&quot;Value&quot;:{&quot;type&quot;:&quot;float&quot;,&quot;value&quot;:60}}}}}}},&quot;SoundEffectsSection&quot;:{&quot;type&quot;:&quot;tree::any&quot;,&quot;value&quot;:{&quot;Enabled&quot;:{&quot;type&quot;:&quot;bool&quot;,&quot;value&quot;:true},&quot;Reverb&quot;:{&quot;type&quot;:&quot;tree::any&quot;,&quot;value&quot;:{&quot;3&quot;:{&quot;type&quot;:&quot;tree::any&quot;,&quot;value&quot;:{&quot;Value&quot;:{&quot;type&quot;:&quot;float&quot;,&quot;value&quot;:2}}}}}}},&quot;VolumeSection&quot;:{&quot;type&quot;:&quot;tree::any&quot;,&quot;value&quot;:{&quot;Enabled&quot;:{&quot;type&quot;:&quot;bool&quot;,&quot;value&quot;:true}}}}}}"/>
          <component componentGuid="4e7dfc75-4ca6-4303-9270-9a943e4a249a" componentID="Audition.Fader" id="clipGain" name="volume" powered="true">
            <parameter index="0" name="volume" parameterValue="1"/>
            <parameter index="1" name="static gain" parameterValue="1"/>
          </component>
          <component componentGuid="dcad0a4b-4b03-4cee-b85b-1ed96112963e" componentID="Audition.Mute" id="clipMute" name="Mute" powered="true">
            <parameter index="0" parameterValue="0"/>
            <parameter index="1" name="mute" parameterValue="0"/>
          </component>
          <component componentGuid="542f1bb7-d09a-4de3-93f4-52b3d37f8f3a" componentID="Audition.StereoPanner" id="clipPan" name="StereoPanner" powered="true">
            <parameter index="0" name="Pan" parameterValue="0"/>
          </component>
          <fadeIn crossFadeLinkType="linkedAsymmetric" endPoint="11025" shape="19" startPoint="0" type="log"/>
          <fadeOut crossFadeLinkType="linkedAsymmetric" endPoint="96808" shape="19" startPoint="96808" type="log"/>
          <editParameter parameterIndex="0" slotIndex="4294967280"/>
          <editParameter parameterIndex="0" slotIndex="4294967281"/>
          <channelMap>
            <channel index="0" sourceIndex="0"/>
          </channelMap>
        </audioClip>
        <audioClip clipAutoCrossfade="true" crossFadeHeadClipID="-1" crossFadeTailClipID="-1" endPoint="46332412" fileID="2" hue="-1" id="6" lockedInTime="false" looped="false" name="Rachel" offline="false" select="false" sourceInPoint="56217080" sourceOutPoint="56280467" startPoint="46269025" zOrder="6">
          <properties properties="{&quot;BasicAdjustmentsProperty&quot;:{&quot;type&quot;:&quot;tree::any&quot;,&quot;value&quot;:{&quot;AdjustmentMode&quot;:{&quot;type&quot;:&quot;UTF8String&quot;,&quot;value&quot;:&quot;dialog&quot;},&quot;ClaritySection&quot;:{&quot;type&quot;:&quot;tree::any&quot;,&quot;value&quot;:{&quot;Dynamics&quot;:{&quot;type&quot;:&quot;tree::any&quot;,&quot;value&quot;:{&quot;2&quot;:{&quot;type&quot;:&quot;tree::any&quot;,&quot;value&quot;:{&quot;Value&quot;:{&quot;type&quot;:&quot;float&quot;,&quot;value&quot;:3}}}}},&quot;Enabled&quot;:{&quot;type&quot;:&quot;bool&quot;,&quot;value&quot;:true}}},&quot;ClipType&quot;:{&quot;type&quot;:&quot;std::int32_t&quot;,&quot;value&quot;:1},&quot;EnhanceSpeechSection&quot;:{&quot;type&quot;:&quot;tree::any&quot;,&quot;value&quot;:{&quot;Enabled&quot;:{&quot;type&quot;:&quot;bool&quot;,&quot;value&quot;:true}}},&quot;PresetGuid&quot;:{&quot;type&quot;:&quot;UTF8String&quot;,&quot;value&quot;:&quot;bb717b4a-c0b1-4def-9040-3fb8e83b8a91&quot;},&quot;RestorationSection&quot;:{&quot;type&quot;:&quot;tree::any&quot;,&quot;value&quot;:{&quot;Enabled&quot;:{&quot;type&quot;:&quot;bool&quot;,&quot;value&quot;:true},&quot;ReduceHum&quot;:{&quot;type&quot;:&quot;tree::any&quot;,&quot;value&quot;:{&quot;4&quot;:{&quot;type&quot;:&quot;tree::any&quot;,&quot;value&quot;:{&quot;Value&quot;:{&quot;type&quot;:&quot;float&quot;,&quot;value&quot;:7.143000602722168}}},&quot;9&quot;:{&quot;type&quot;:&quot;tree::any&quot;,&quot;value&quot;:{&quot;Value&quot;:{&quot;type&quot;:&quot;float&quot;,&quot;value&quot;:60}}}}}}},&quot;SoundEffectsSection&quot;:{&quot;type&quot;:&quot;tree::any&quot;,&quot;value&quot;:{&quot;Enabled&quot;:{&quot;type&quot;:&quot;bool&quot;,&quot;value&quot;:true},&quot;Reverb&quot;:{&quot;type&quot;:&quot;tree::any&quot;,&quot;value&quot;:{&quot;3&quot;:{&quot;type&quot;:&quot;tree::any&quot;,&quot;value&quot;:{&quot;Value&quot;:{&quot;type&quot;:&quot;float&quot;,&quot;value&quot;:2}}}}}}},&quot;VolumeSection&quot;:{&quot;type&quot;:&quot;tree::any&quot;,&quot;value&quot;:{&quot;Enabled&quot;:{&quot;type&quot;:&quot;bool&quot;,&quot;value&quot;:true}}}}}}"/>
          <component componentGuid="7632f718-a39e-4a82-a7c4-78d2b10f351e" componentID="Audition.Fader" id="clipGain" name="volume" powered="true">
            <parameter index="0" name="volume" parameterValue="1"/>
            <parameter index="1" name="static gain" parameterValue="1"/>
          </component>
          <component componentGuid="e246d7e3-c9e5-4f7b-ac96-4a2e7a866449" componentID="Audition.Mute" id="clipMute" name="Mute" powered="true">
            <parameter index="0" parameterValue="0"/>
            <parameter index="1" name="mute" parameterValue="0"/>
          </component>
          <component componentGuid="b2c5972d-f653-467f-aa49-ef1f9b2ee3a5" componentID="Audition.StereoPanner" id="clipPan" name="StereoPanner" powered="true">
            <parameter index="0" name="Pan" parameterValue="0"/>
          </component>
          <fadeIn crossFadeLinkType="linkedAsymmetric" endPoint="11025" shape="19" startPoint="0" type="log"/>
          <fadeOut crossFadeLinkType="linkedAsymmetric" endPoint="63387" shape="19" startPoint="52362" type="log"/>
          <editParameter parameterIndex="0" slotIndex="4294967280"/>
          <editParameter parameterIndex="0" slotIndex="4294967281"/>
          <channelMap>
            <channel index="0" sourceIndex="0"/>
          </channelMap>
        </audioClip>
        <audioClip clipAutoCrossfade="true" crossFadeHeadClipID="-1" crossFadeTailClipID="-1" endPoint="91514935" fileID="2" hue="-1" id="7" lockedInTime="false" looped="false" name="Rachel" offline="false" select="false" sourceInPoint="102292741" sourceOutPoint="102413392" startPoint="91394284" zOrder="7">
          <properties properties="{&quot;BasicAdjustmentsProperty&quot;:{&quot;type&quot;:&quot;tree::any&quot;,&quot;value&quot;:{&quot;AdjustmentMode&quot;:{&quot;type&quot;:&quot;UTF8String&quot;,&quot;value&quot;:&quot;dialog&quot;},&quot;ClaritySection&quot;:{&quot;type&quot;:&quot;tree::any&quot;,&quot;value&quot;:{&quot;Dynamics&quot;:{&quot;type&quot;:&quot;tree::any&quot;,&quot;value&quot;:{&quot;2&quot;:{&quot;type&quot;:&quot;tree::any&quot;,&quot;value&quot;:{&quot;Value&quot;:{&quot;type&quot;:&quot;float&quot;,&quot;value&quot;:3}}}}},&quot;Enabled&quot;:{&quot;type&quot;:&quot;bool&quot;,&quot;value&quot;:true}}},&quot;ClipType&quot;:{&quot;type&quot;:&quot;std::int32_t&quot;,&quot;value&quot;:1},&quot;EnhanceSpeechSection&quot;:{&quot;type&quot;:&quot;tree::any&quot;,&quot;value&quot;:{&quot;Enabled&quot;:{&quot;type&quot;:&quot;bool&quot;,&quot;value&quot;:true}}},&quot;PresetGuid&quot;:{&quot;type&quot;:&quot;UTF8String&quot;,&quot;value&quot;:&quot;bb717b4a-c0b1-4def-9040-3fb8e83b8a91&quot;},&quot;RestorationSection&quot;:{&quot;type&quot;:&quot;tree::any&quot;,&quot;value&quot;:{&quot;Enabled&quot;:{&quot;type&quot;:&quot;bool&quot;,&quot;value&quot;:true},&quot;ReduceHum&quot;:{&quot;type&quot;:&quot;tree::any&quot;,&quot;value&quot;:{&quot;4&quot;:{&quot;type&quot;:&quot;tree::any&quot;,&quot;value&quot;:{&quot;Value&quot;:{&quot;type&quot;:&quot;float&quot;,&quot;value&quot;:7.143000602722168}}},&quot;9&quot;:{&quot;type&quot;:&quot;tree::any&quot;,&quot;value&quot;:{&quot;Value&quot;:{&quot;type&quot;:&quot;float&quot;,&quot;value&quot;:60}}}}}}},&quot;SoundEffectsSection&quot;:{&quot;type&quot;:&quot;tree::any&quot;,&quot;value&quot;:{&quot;Enabled&quot;:{&quot;type&quot;:&quot;bool&quot;,&quot;value&quot;:true},&quot;Reverb&quot;:{&quot;type&quot;:&quot;tree::any&quot;,&quot;value&quot;:{&quot;3&quot;:{&quot;type&quot;:&quot;tree::any&quot;,&quot;value&quot;:{&quot;Value&quot;:{&quot;type&quot;:&quot;float&quot;,&quot;value&quot;:2}}}}}}},&quot;VolumeSection&quot;:{&quot;type&quot;:&quot;tree::any&quot;,&quot;value&quot;:{&quot;Enabled&quot;:{&quot;type&quot;:&quot;bool&quot;,&quot;value&quot;:true}}}}}}"/>
          <component componentGuid="b1224e69-ec14-4000-9d39-a6f23806614d" componentID="Audition.Fader" id="clipGain" name="volume" powered="true">
            <parameter index="0" name="volume" parameterValue="1"/>
            <parameter index="1" name="static gain" parameterValue="1"/>
          </component>
          <component componentGuid="307e4d94-0a2f-4bde-92bf-dc2dffe0e109" componentID="Audition.Mute" id="clipMute" name="Mute" powered="true">
            <parameter index="0" parameterValue="0"/>
            <parameter index="1" name="mute" parameterValue="0"/>
          </component>
          <component componentGuid="d9ee7500-caea-4782-87ff-4cf07f487b83" componentID="Audition.StereoPanner" id="clipPan" name="StereoPanner" powered="true">
            <parameter index="0" name="Pan" parameterValue="0"/>
          </component>
          <fadeIn crossFadeLinkType="linkedAsymmetric" endPoint="11025" shape="19" startPoint="0" type="log"/>
          <fadeOut crossFadeLinkType="linkedAsymmetric" endPoint="120651" shape="19" startPoint="109626" type="log"/>
          <editParameter parameterIndex="0" slotIndex="4294967280"/>
          <editParameter parameterIndex="0" slotIndex="4294967281"/>
          <channelMap>
            <channel index="0" sourceIndex="0"/>
          </channelMap>
        </audioClip>
        <audioClip clipAutoCrossfade="true" crossFadeHeadClipID="-1" crossFadeTailClipID="-1" endPoint="98210125" fileID="2" hue="-1" id="8" lockedInTime="false" looped="false" name="Rachel" offline="false" select="false" sourceInPoint="109190273" sourceOutPoint="109265387" startPoint="98135011" zOrder="8">
          <properties properties="{&quot;BasicAdjustmentsProperty&quot;:{&quot;type&quot;:&quot;tree::any&quot;,&quot;value&quot;:{&quot;AdjustmentMode&quot;:{&quot;type&quot;:&quot;UTF8String&quot;,&quot;value&quot;:&quot;dialog&quot;},&quot;ClaritySection&quot;:{&quot;type&quot;:&quot;tree::any&quot;,&quot;value&quot;:{&quot;Dynamics&quot;:{&quot;type&quot;:&quot;tree::any&quot;,&quot;value&quot;:{&quot;2&quot;:{&quot;type&quot;:&quot;tree::any&quot;,&quot;value&quot;:{&quot;Value&quot;:{&quot;type&quot;:&quot;float&quot;,&quot;value&quot;:3}}}}},&quot;Enabled&quot;:{&quot;type&quot;:&quot;bool&quot;,&quot;value&quot;:true}}},&quot;ClipType&quot;:{&quot;type&quot;:&quot;std::int32_t&quot;,&quot;value&quot;:1},&quot;EnhanceSpeechSection&quot;:{&quot;type&quot;:&quot;tree::any&quot;,&quot;value&quot;:{&quot;Enabled&quot;:{&quot;type&quot;:&quot;bool&quot;,&quot;value&quot;:true}}},&quot;PresetGuid&quot;:{&quot;type&quot;:&quot;UTF8String&quot;,&quot;value&quot;:&quot;bb717b4a-c0b1-4def-9040-3fb8e83b8a91&quot;},&quot;RestorationSection&quot;:{&quot;type&quot;:&quot;tree::any&quot;,&quot;value&quot;:{&quot;Enabled&quot;:{&quot;type&quot;:&quot;bool&quot;,&quot;value&quot;:true},&quot;ReduceHum&quot;:{&quot;type&quot;:&quot;tree::any&quot;,&quot;value&quot;:{&quot;4&quot;:{&quot;type&quot;:&quot;tree::any&quot;,&quot;value&quot;:{&quot;Value&quot;:{&quot;type&quot;:&quot;float&quot;,&quot;value&quot;:7.143000602722168}}},&quot;9&quot;:{&quot;type&quot;:&quot;tree::any&quot;,&quot;value&quot;:{&quot;Value&quot;:{&quot;type&quot;:&quot;float&quot;,&quot;value&quot;:60}}}}}}},&quot;SoundEffectsSection&quot;:{&quot;type&quot;:&quot;tree::any&quot;,&quot;value&quot;:{&quot;Enabled&quot;:{&quot;type&quot;:&quot;bool&quot;,&quot;value&quot;:true},&quot;Reverb&quot;:{&quot;type&quot;:&quot;tree::any&quot;,&quot;value&quot;:{&quot;3&quot;:{&quot;type&quot;:&quot;tree::any&quot;,&quot;value&quot;:{&quot;Value&quot;:{&quot;type&quot;:&quot;float&quot;,&quot;value&quot;:2}}}}}}},&quot;VolumeSection&quot;:{&quot;type&quot;:&quot;tree::any&quot;,&quot;value&quot;:{&quot;Enabled&quot;:{&quot;type&quot;:&quot;bool&quot;,&quot;value&quot;:true}}}}}}"/>
          <component componentGuid="98c24835-dc66-446d-a89a-3f60f2b5a886" componentID="Audition.Fader" id="clipGain" name="volume" powered="true">
            <parameter index="0" name="volume" parameterValue="1"/>
            <parameter index="1" name="static gain" parameterValue="1"/>
          </component>
          <component componentGuid="db008f7b-97cc-457c-84cb-1966cf0586c7" componentID="Audition.Mute" id="clipMute" name="Mute" powered="true">
            <parameter index="0" parameterValue="0"/>
            <parameter index="1" name="mute" parameterValue="0"/>
          </component>
          <component componentGuid="bc5cdb77-bffa-440e-9029-ce34310ce747" componentID="Audition.StereoPanner" id="clipPan" name="StereoPanner" powered="true">
            <parameter index="0" name="Pan" parameterValue="0"/>
          </component>
          <fadeIn crossFadeLinkType="linkedAsymmetric" endPoint="11025" shape="19" startPoint="0" type="log"/>
          <fadeOut crossFadeLinkType="linkedAsymmetric" endPoint="75114" shape="19" startPoint="64089" type="log"/>
          <editParameter parameterIndex="0" slotIndex="4294967280"/>
          <editParameter parameterIndex="0" slotIndex="4294967281"/>
          <channelMap>
            <channel index="0" sourceIndex="0"/>
          </channelMap>
        </audioClip>
        <audioClip clipAutoCrossfade="true" crossFadeHeadClipID="-1" crossFadeTailClipID="-1" endPoint="101684505" fileID="2" hue="-1" id="9" lockedInTime="false" looped="false" name="Rachel" offline="false" select="false" sourceInPoint="111096938" sourceOutPoint="112739768" startPoint="100041675" zOrder="9">
          <properties properties="{&quot;BasicAdjustmentsProperty&quot;:{&quot;type&quot;:&quot;tree::any&quot;,&quot;value&quot;:{&quot;AdjustmentMode&quot;:{&quot;type&quot;:&quot;UTF8String&quot;,&quot;value&quot;:&quot;dialog&quot;},&quot;ClaritySection&quot;:{&quot;type&quot;:&quot;tree::any&quot;,&quot;value&quot;:{&quot;Dynamics&quot;:{&quot;type&quot;:&quot;tree::any&quot;,&quot;value&quot;:{&quot;2&quot;:{&quot;type&quot;:&quot;tree::any&quot;,&quot;value&quot;:{&quot;Value&quot;:{&quot;type&quot;:&quot;float&quot;,&quot;value&quot;:3}}}}},&quot;Enabled&quot;:{&quot;type&quot;:&quot;bool&quot;,&quot;value&quot;:true}}},&quot;ClipType&quot;:{&quot;type&quot;:&quot;std::int32_t&quot;,&quot;value&quot;:1},&quot;EnhanceSpeechSection&quot;:{&quot;type&quot;:&quot;tree::any&quot;,&quot;value&quot;:{&quot;Enabled&quot;:{&quot;type&quot;:&quot;bool&quot;,&quot;value&quot;:true}}},&quot;PresetGuid&quot;:{&quot;type&quot;:&quot;UTF8String&quot;,&quot;value&quot;:&quot;bb717b4a-c0b1-4def-9040-3fb8e83b8a91&quot;},&quot;RestorationSection&quot;:{&quot;type&quot;:&quot;tree::any&quot;,&quot;value&quot;:{&quot;Enabled&quot;:{&quot;type&quot;:&quot;bool&quot;,&quot;value&quot;:true},&quot;ReduceHum&quot;:{&quot;type&quot;:&quot;tree::any&quot;,&quot;value&quot;:{&quot;4&quot;:{&quot;type&quot;:&quot;tree::any&quot;,&quot;value&quot;:{&quot;Value&quot;:{&quot;type&quot;:&quot;float&quot;,&quot;value&quot;:7.143000602722168}}},&quot;9&quot;:{&quot;type&quot;:&quot;tree::any&quot;,&quot;value&quot;:{&quot;Value&quot;:{&quot;type&quot;:&quot;float&quot;,&quot;value&quot;:60}}}}}}},&quot;SoundEffectsSection&quot;:{&quot;type&quot;:&quot;tree::any&quot;,&quot;value&quot;:{&quot;Enabled&quot;:{&quot;type&quot;:&quot;bool&quot;,&quot;value&quot;:true},&quot;Reverb&quot;:{&quot;type&quot;:&quot;tree::any&quot;,&quot;value&quot;:{&quot;3&quot;:{&quot;type&quot;:&quot;tree::any&quot;,&quot;value&quot;:{&quot;Value&quot;:{&quot;type&quot;:&quot;float&quot;,&quot;value&quot;:2}}}}}}},&quot;VolumeSection&quot;:{&quot;type&quot;:&quot;tree::any&quot;,&quot;value&quot;:{&quot;Enabled&quot;:{&quot;type&quot;:&quot;bool&quot;,&quot;value&quot;:true}}}}}}"/>
          <component componentGuid="50f77a9b-ccb3-4ad2-9479-90d7dd89000a" componentID="Audition.Fader" id="clipGain" name="volume" powered="true">
            <parameter index="0" name="volume" parameterValue="1"/>
            <parameter index="1" name="static gain" parameterValue="1"/>
          </component>
          <component componentGuid="8a4e7ebb-0bd9-46d1-aa97-54ff74481add" componentID="Audition.Mute" id="clipMute" name="Mute" powered="true">
            <parameter index="0" parameterValue="0"/>
            <parameter index="1" name="mute" parameterValue="0"/>
          </component>
          <component componentGuid="7d15faad-c540-48b0-9e95-a944191ff48a" componentID="Audition.StereoPanner" id="clipPan" name="StereoPanner" powered="true">
            <parameter index="0" name="Pan" parameterValue="0"/>
          </component>
          <fadeIn crossFadeLinkType="linkedAsymmetric" endPoint="0" shape="19" startPoint="0" type="log"/>
          <fadeOut crossFadeLinkType="linkedAsymmetric" endPoint="1642830" shape="19" startPoint="1631805" type="log"/>
          <editParameter parameterIndex="0" slotIndex="4294967280"/>
          <editParameter parameterIndex="0" slotIndex="4294967281"/>
          <channelMap>
            <channel index="0" sourceIndex="0"/>
          </channelMap>
        </audioClip>
        <audioClip clipAutoCrossfade="true" crossFadeHeadClipID="-1" crossFadeTailClipID="-1" endPoint="102047263" fileID="2" hue="-1" id="10" lockedInTime="false" looped="false" name="Rachel" offline="false" select="false" sourceInPoint="113045227" sourceOutPoint="113102422" startPoint="101990068" zOrder="11">
          <properties properties="{&quot;BasicAdjustmentsProperty&quot;:{&quot;type&quot;:&quot;tree::any&quot;,&quot;value&quot;:{&quot;AdjustmentMode&quot;:{&quot;type&quot;:&quot;UTF8String&quot;,&quot;value&quot;:&quot;dialog&quot;},&quot;ClaritySection&quot;:{&quot;type&quot;:&quot;tree::any&quot;,&quot;value&quot;:{&quot;Dynamics&quot;:{&quot;type&quot;:&quot;tree::any&quot;,&quot;value&quot;:{&quot;2&quot;:{&quot;type&quot;:&quot;tree::any&quot;,&quot;value&quot;:{&quot;Value&quot;:{&quot;type&quot;:&quot;float&quot;,&quot;value&quot;:3}}}}},&quot;Enabled&quot;:{&quot;type&quot;:&quot;bool&quot;,&quot;value&quot;:true}}},&quot;ClipType&quot;:{&quot;type&quot;:&quot;std::int32_t&quot;,&quot;value&quot;:1},&quot;EnhanceSpeechSection&quot;:{&quot;type&quot;:&quot;tree::any&quot;,&quot;value&quot;:{&quot;Enabled&quot;:{&quot;type&quot;:&quot;bool&quot;,&quot;value&quot;:true}}},&quot;PresetGuid&quot;:{&quot;type&quot;:&quot;UTF8String&quot;,&quot;value&quot;:&quot;bb717b4a-c0b1-4def-9040-3fb8e83b8a91&quot;},&quot;RestorationSection&quot;:{&quot;type&quot;:&quot;tree::any&quot;,&quot;value&quot;:{&quot;Enabled&quot;:{&quot;type&quot;:&quot;bool&quot;,&quot;value&quot;:true},&quot;ReduceHum&quot;:{&quot;type&quot;:&quot;tree::any&quot;,&quot;value&quot;:{&quot;4&quot;:{&quot;type&quot;:&quot;tree::any&quot;,&quot;value&quot;:{&quot;Value&quot;:{&quot;type&quot;:&quot;float&quot;,&quot;value&quot;:7.143000602722168}}},&quot;9&quot;:{&quot;type&quot;:&quot;tree::any&quot;,&quot;value&quot;:{&quot;Value&quot;:{&quot;type&quot;:&quot;float&quot;,&quot;value&quot;:60}}}}}}},&quot;SoundEffectsSection&quot;:{&quot;type&quot;:&quot;tree::any&quot;,&quot;value&quot;:{&quot;Enabled&quot;:{&quot;type&quot;:&quot;bool&quot;,&quot;value&quot;:true},&quot;Reverb&quot;:{&quot;type&quot;:&quot;tree::any&quot;,&quot;value&quot;:{&quot;3&quot;:{&quot;type&quot;:&quot;tree::any&quot;,&quot;value&quot;:{&quot;Value&quot;:{&quot;type&quot;:&quot;float&quot;,&quot;value&quot;:2}}}}}}},&quot;VolumeSection&quot;:{&quot;type&quot;:&quot;tree::any&quot;,&quot;value&quot;:{&quot;Enabled&quot;:{&quot;type&quot;:&quot;bool&quot;,&quot;value&quot;:true}}}}}}"/>
          <component componentGuid="8829af74-2095-4c24-ba74-03ae2611dcd1" componentID="Audition.Fader" id="clipGain" name="volume" powered="true">
            <parameter index="0" name="volume" parameterValue="1"/>
            <parameter index="1" name="static gain" parameterValue="1"/>
          </component>
          <component componentGuid="7f1731d4-568e-485f-ad05-9501e709c74c" componentID="Audition.Mute" id="clipMute" name="Mute" powered="true">
            <parameter index="0" parameterValue="0"/>
            <parameter index="1" name="mute" parameterValue="0"/>
          </component>
          <component componentGuid="364f6691-79b0-4876-9394-d5c88388549e" componentID="Audition.StereoPanner" id="clipPan" name="StereoPanner" powered="true">
            <parameter index="0" name="Pan" parameterValue="0"/>
          </component>
          <fadeIn crossFadeLinkType="linkedAsymmetric" endPoint="11025" shape="19" startPoint="0" type="log"/>
          <fadeOut crossFadeLinkType="linkedAsymmetric" endPoint="57195" shape="19" startPoint="46170" type="log"/>
          <editParameter parameterIndex="0" slotIndex="4294967280"/>
          <editParameter parameterIndex="0" slotIndex="4294967281"/>
          <channelMap>
            <channel index="0" sourceIndex="0"/>
          </channelMap>
        </audioClip>
        <audioClip clipAutoCrossfade="true" crossFadeHeadClipID="-1" crossFadeTailClipID="-1" endPoint="102279836" fileID="2" hue="-1" id="11" lockedInTime="false" looped="false" name="Rachel" offline="false" select="false" sourceInPoint="113276002" sourceOutPoint="113334995" startPoint="102220843" zOrder="12">
          <properties properties="{&quot;BasicAdjustmentsProperty&quot;:{&quot;type&quot;:&quot;tree::any&quot;,&quot;value&quot;:{&quot;AdjustmentMode&quot;:{&quot;type&quot;:&quot;UTF8String&quot;,&quot;value&quot;:&quot;dialog&quot;},&quot;ClaritySection&quot;:{&quot;type&quot;:&quot;tree::any&quot;,&quot;value&quot;:{&quot;Dynamics&quot;:{&quot;type&quot;:&quot;tree::any&quot;,&quot;value&quot;:{&quot;2&quot;:{&quot;type&quot;:&quot;tree::any&quot;,&quot;value&quot;:{&quot;Value&quot;:{&quot;type&quot;:&quot;float&quot;,&quot;value&quot;:3}}}}},&quot;Enabled&quot;:{&quot;type&quot;:&quot;bool&quot;,&quot;value&quot;:true}}},&quot;ClipType&quot;:{&quot;type&quot;:&quot;std::int32_t&quot;,&quot;value&quot;:1},&quot;EnhanceSpeechSection&quot;:{&quot;type&quot;:&quot;tree::any&quot;,&quot;value&quot;:{&quot;Enabled&quot;:{&quot;type&quot;:&quot;bool&quot;,&quot;value&quot;:true}}},&quot;PresetGuid&quot;:{&quot;type&quot;:&quot;UTF8String&quot;,&quot;value&quot;:&quot;bb717b4a-c0b1-4def-9040-3fb8e83b8a91&quot;},&quot;RestorationSection&quot;:{&quot;type&quot;:&quot;tree::any&quot;,&quot;value&quot;:{&quot;Enabled&quot;:{&quot;type&quot;:&quot;bool&quot;,&quot;value&quot;:true},&quot;ReduceHum&quot;:{&quot;type&quot;:&quot;tree::any&quot;,&quot;value&quot;:{&quot;4&quot;:{&quot;type&quot;:&quot;tree::any&quot;,&quot;value&quot;:{&quot;Value&quot;:{&quot;type&quot;:&quot;float&quot;,&quot;value&quot;:7.143000602722168}}},&quot;9&quot;:{&quot;type&quot;:&quot;tree::any&quot;,&quot;value&quot;:{&quot;Value&quot;:{&quot;type&quot;:&quot;float&quot;,&quot;value&quot;:60}}}}}}},&quot;SoundEffectsSection&quot;:{&quot;type&quot;:&quot;tree::any&quot;,&quot;value&quot;:{&quot;Enabled&quot;:{&quot;type&quot;:&quot;bool&quot;,&quot;value&quot;:true},&quot;Reverb&quot;:{&quot;type&quot;:&quot;tree::any&quot;,&quot;value&quot;:{&quot;3&quot;:{&quot;type&quot;:&quot;tree::any&quot;,&quot;value&quot;:{&quot;Value&quot;:{&quot;type&quot;:&quot;float&quot;,&quot;value&quot;:2}}}}}}},&quot;VolumeSection&quot;:{&quot;type&quot;:&quot;tree::any&quot;,&quot;value&quot;:{&quot;Enabled&quot;:{&quot;type&quot;:&quot;bool&quot;,&quot;value&quot;:true}}}}}}"/>
          <component componentGuid="c08641d2-3b06-4f1b-a684-7c3b2be5843b" componentID="Audition.Fader" id="clipGain" name="volume" powered="true">
            <parameter index="0" name="volume" parameterValue="1"/>
            <parameter index="1" name="static gain" parameterValue="1"/>
          </component>
          <component componentGuid="e4aa0aac-ed92-4d2f-b0da-9de05359685b" componentID="Audition.Mute" id="clipMute" name="Mute" powered="true">
            <parameter index="0" parameterValue="0"/>
            <parameter index="1" name="mute" parameterValue="0"/>
          </component>
          <component componentGuid="97c4fe1f-44fd-4699-a58c-f3409c70ebcf" componentID="Audition.StereoPanner" id="clipPan" name="StereoPanner" powered="true">
            <parameter index="0" name="Pan" parameterValue="0"/>
          </component>
          <fadeIn crossFadeLinkType="linkedAsymmetric" endPoint="11025" shape="19" startPoint="0" type="log"/>
          <fadeOut crossFadeLinkType="linkedAsymmetric" endPoint="58993" shape="19" startPoint="47968" type="log"/>
          <editParameter parameterIndex="0" slotIndex="4294967280"/>
          <editParameter parameterIndex="0" slotIndex="4294967281"/>
          <channelMap>
            <channel index="0" sourceIndex="0"/>
          </channelMap>
        </audioClip>
        <audioClip clipAutoCrossfade="true" crossFadeHeadClipID="-1" crossFadeTailClipID="-1" endPoint="107251470" fileID="2" hue="-1" id="12" lockedInTime="false" looped="false" name="Rachel" offline="false" select="false" sourceInPoint="118160882" sourceOutPoint="118306629" startPoint="107105723" zOrder="14">
          <properties properties="{&quot;BasicAdjustmentsProperty&quot;:{&quot;type&quot;:&quot;tree::any&quot;,&quot;value&quot;:{&quot;AdjustmentMode&quot;:{&quot;type&quot;:&quot;UTF8String&quot;,&quot;value&quot;:&quot;dialog&quot;},&quot;ClaritySection&quot;:{&quot;type&quot;:&quot;tree::any&quot;,&quot;value&quot;:{&quot;Dynamics&quot;:{&quot;type&quot;:&quot;tree::any&quot;,&quot;value&quot;:{&quot;2&quot;:{&quot;type&quot;:&quot;tree::any&quot;,&quot;value&quot;:{&quot;Value&quot;:{&quot;type&quot;:&quot;float&quot;,&quot;value&quot;:3}}}}},&quot;Enabled&quot;:{&quot;type&quot;:&quot;bool&quot;,&quot;value&quot;:true}}},&quot;ClipType&quot;:{&quot;type&quot;:&quot;std::int32_t&quot;,&quot;value&quot;:1},&quot;EnhanceSpeechSection&quot;:{&quot;type&quot;:&quot;tree::any&quot;,&quot;value&quot;:{&quot;Enabled&quot;:{&quot;type&quot;:&quot;bool&quot;,&quot;value&quot;:true}}},&quot;PresetGuid&quot;:{&quot;type&quot;:&quot;UTF8String&quot;,&quot;value&quot;:&quot;bb717b4a-c0b1-4def-9040-3fb8e83b8a91&quot;},&quot;RestorationSection&quot;:{&quot;type&quot;:&quot;tree::any&quot;,&quot;value&quot;:{&quot;Enabled&quot;:{&quot;type&quot;:&quot;bool&quot;,&quot;value&quot;:true},&quot;ReduceHum&quot;:{&quot;type&quot;:&quot;tree::any&quot;,&quot;value&quot;:{&quot;4&quot;:{&quot;type&quot;:&quot;tree::any&quot;,&quot;value&quot;:{&quot;Value&quot;:{&quot;type&quot;:&quot;float&quot;,&quot;value&quot;:7.143000602722168}}},&quot;9&quot;:{&quot;type&quot;:&quot;tree::any&quot;,&quot;value&quot;:{&quot;Value&quot;:{&quot;type&quot;:&quot;float&quot;,&quot;value&quot;:60}}}}}}},&quot;SoundEffectsSection&quot;:{&quot;type&quot;:&quot;tree::any&quot;,&quot;value&quot;:{&quot;Enabled&quot;:{&quot;type&quot;:&quot;bool&quot;,&quot;value&quot;:true},&quot;Reverb&quot;:{&quot;type&quot;:&quot;tree::any&quot;,&quot;value&quot;:{&quot;3&quot;:{&quot;type&quot;:&quot;tree::any&quot;,&quot;value&quot;:{&quot;Value&quot;:{&quot;type&quot;:&quot;float&quot;,&quot;value&quot;:2}}}}}}},&quot;VolumeSection&quot;:{&quot;type&quot;:&quot;tree::any&quot;,&quot;value&quot;:{&quot;Enabled&quot;:{&quot;type&quot;:&quot;bool&quot;,&quot;value&quot;:true}}}}}}"/>
          <component componentGuid="c4a4f635-9744-45f8-8383-94836a98cb1a" componentID="Audition.Fader" id="clipGain" name="volume" powered="true">
            <parameter index="0" name="volume" parameterValue="1"/>
            <parameter index="1" name="static gain" parameterValue="1"/>
          </component>
          <component componentGuid="84945729-6cc3-4e77-976f-ee4d31302d70" componentID="Audition.Mute" id="clipMute" name="Mute" powered="true">
            <parameter index="0" parameterValue="0"/>
            <parameter index="1" name="mute" parameterValue="0"/>
          </component>
          <component componentGuid="ac188ad5-104e-4854-830f-f7a73c863e08" componentID="Audition.StereoPanner" id="clipPan" name="StereoPanner" powered="true">
            <parameter index="0" name="Pan" parameterValue="0"/>
          </component>
          <fadeIn crossFadeLinkType="linkedAsymmetric" endPoint="11025" shape="19" startPoint="0" type="log"/>
          <fadeOut crossFadeLinkType="linkedAsymmetric" endPoint="145747" shape="19" startPoint="134722" type="log"/>
          <editParameter parameterIndex="0" slotIndex="4294967280"/>
          <editParameter parameterIndex="0" slotIndex="4294967281"/>
          <channelMap>
            <channel index="0" sourceIndex="0"/>
          </channelMap>
        </audioClip>
        <audioClip clipAutoCrossfade="true" crossFadeHeadClipID="-1" crossFadeTailClipID="-1" endPoint="107783709" fileID="2" hue="-1" id="13" lockedInTime="false" looped="false" name="Rachel" offline="false" select="false" sourceInPoint="118465000" sourceOutPoint="118838870" startPoint="107409839" zOrder="13">
          <properties properties="{&quot;BasicAdjustmentsProperty&quot;:{&quot;type&quot;:&quot;tree::any&quot;,&quot;value&quot;:{&quot;AdjustmentMode&quot;:{&quot;type&quot;:&quot;UTF8String&quot;,&quot;value&quot;:&quot;dialog&quot;},&quot;ClaritySection&quot;:{&quot;type&quot;:&quot;tree::any&quot;,&quot;value&quot;:{&quot;Dynamics&quot;:{&quot;type&quot;:&quot;tree::any&quot;,&quot;value&quot;:{&quot;2&quot;:{&quot;type&quot;:&quot;tree::any&quot;,&quot;value&quot;:{&quot;Value&quot;:{&quot;type&quot;:&quot;float&quot;,&quot;value&quot;:3}}}}},&quot;Enabled&quot;:{&quot;type&quot;:&quot;bool&quot;,&quot;value&quot;:true}}},&quot;ClipType&quot;:{&quot;type&quot;:&quot;std::int32_t&quot;,&quot;value&quot;:1},&quot;EnhanceSpeechSection&quot;:{&quot;type&quot;:&quot;tree::any&quot;,&quot;value&quot;:{&quot;Enabled&quot;:{&quot;type&quot;:&quot;bool&quot;,&quot;value&quot;:true}}},&quot;PresetGuid&quot;:{&quot;type&quot;:&quot;UTF8String&quot;,&quot;value&quot;:&quot;bb717b4a-c0b1-4def-9040-3fb8e83b8a91&quot;},&quot;RestorationSection&quot;:{&quot;type&quot;:&quot;tree::any&quot;,&quot;value&quot;:{&quot;Enabled&quot;:{&quot;type&quot;:&quot;bool&quot;,&quot;value&quot;:true},&quot;ReduceHum&quot;:{&quot;type&quot;:&quot;tree::any&quot;,&quot;value&quot;:{&quot;4&quot;:{&quot;type&quot;:&quot;tree::any&quot;,&quot;value&quot;:{&quot;Value&quot;:{&quot;type&quot;:&quot;float&quot;,&quot;value&quot;:7.143000602722168}}},&quot;9&quot;:{&quot;type&quot;:&quot;tree::any&quot;,&quot;value&quot;:{&quot;Value&quot;:{&quot;type&quot;:&quot;float&quot;,&quot;value&quot;:60}}}}}}},&quot;SoundEffectsSection&quot;:{&quot;type&quot;:&quot;tree::any&quot;,&quot;value&quot;:{&quot;Enabled&quot;:{&quot;type&quot;:&quot;bool&quot;,&quot;value&quot;:true},&quot;Reverb&quot;:{&quot;type&quot;:&quot;tree::any&quot;,&quot;value&quot;:{&quot;3&quot;:{&quot;type&quot;:&quot;tree::any&quot;,&quot;value&quot;:{&quot;Value&quot;:{&quot;type&quot;:&quot;float&quot;,&quot;value&quot;:2}}}}}}},&quot;VolumeSection&quot;:{&quot;type&quot;:&quot;tree::any&quot;,&quot;value&quot;:{&quot;Enabled&quot;:{&quot;type&quot;:&quot;bool&quot;,&quot;value&quot;:true}}}}}}"/>
          <component componentGuid="cf8be256-f292-4233-b792-5221479dce59" componentID="Audition.Fader" id="clipGain" name="volume" powered="true">
            <parameter index="0" name="volume" parameterValue="1"/>
            <parameter index="1" name="static gain" parameterValue="1"/>
          </component>
          <component componentGuid="fb382f17-c28b-4b8a-b2b2-66ebd3805232" componentID="Audition.Mute" id="clipMute" name="Mute" powered="true">
            <parameter index="0" parameterValue="0"/>
            <parameter index="1" name="mute" parameterValue="0"/>
          </component>
          <component componentGuid="7f066b65-edb3-48ec-b6ac-3e195decc9b9" componentID="Audition.StereoPanner" id="clipPan" name="StereoPanner" powered="true">
            <parameter index="0" name="Pan" parameterValue="0"/>
          </component>
          <fadeIn crossFadeLinkType="linkedAsymmetric" endPoint="11025" shape="19" startPoint="0" type="log"/>
          <fadeOut crossFadeLinkType="linkedAsymmetric" endPoint="373870" shape="18" startPoint="373870" type="log"/>
          <editParameter parameterIndex="0" slotIndex="4294967280"/>
          <editParameter parameterIndex="0" slotIndex="4294967281"/>
          <channelMap>
            <channel index="0" sourceIndex="0"/>
          </channelMap>
        </audioClip>
        <audioClip clipAutoCrossfade="true" crossFadeHeadClipID="-1" crossFadeTailClipID="-1" endPoint="110814025" fileID="2" hue="-1" id="14" lockedInTime="false" looped="false" name="Rachel" offline="false" select="false" sourceInPoint="121733978" sourceOutPoint="121953039" startPoint="110594964" zOrder="15">
          <properties properties="{&quot;BasicAdjustmentsProperty&quot;:{&quot;type&quot;:&quot;tree::any&quot;,&quot;value&quot;:{&quot;AdjustmentMode&quot;:{&quot;type&quot;:&quot;UTF8String&quot;,&quot;value&quot;:&quot;dialog&quot;},&quot;ClaritySection&quot;:{&quot;type&quot;:&quot;tree::any&quot;,&quot;value&quot;:{&quot;Dynamics&quot;:{&quot;type&quot;:&quot;tree::any&quot;,&quot;value&quot;:{&quot;2&quot;:{&quot;type&quot;:&quot;tree::any&quot;,&quot;value&quot;:{&quot;Value&quot;:{&quot;type&quot;:&quot;float&quot;,&quot;value&quot;:3}}}}},&quot;Enabled&quot;:{&quot;type&quot;:&quot;bool&quot;,&quot;value&quot;:true}}},&quot;ClipType&quot;:{&quot;type&quot;:&quot;std::int32_t&quot;,&quot;value&quot;:1},&quot;EnhanceSpeechSection&quot;:{&quot;type&quot;:&quot;tree::any&quot;,&quot;value&quot;:{&quot;Enabled&quot;:{&quot;type&quot;:&quot;bool&quot;,&quot;value&quot;:true}}},&quot;PresetGuid&quot;:{&quot;type&quot;:&quot;UTF8String&quot;,&quot;value&quot;:&quot;bb717b4a-c0b1-4def-9040-3fb8e83b8a91&quot;},&quot;RestorationSection&quot;:{&quot;type&quot;:&quot;tree::any&quot;,&quot;value&quot;:{&quot;Enabled&quot;:{&quot;type&quot;:&quot;bool&quot;,&quot;value&quot;:true},&quot;ReduceHum&quot;:{&quot;type&quot;:&quot;tree::any&quot;,&quot;value&quot;:{&quot;4&quot;:{&quot;type&quot;:&quot;tree::any&quot;,&quot;value&quot;:{&quot;Value&quot;:{&quot;type&quot;:&quot;float&quot;,&quot;value&quot;:7.143000602722168}}},&quot;9&quot;:{&quot;type&quot;:&quot;tree::any&quot;,&quot;value&quot;:{&quot;Value&quot;:{&quot;type&quot;:&quot;float&quot;,&quot;value&quot;:60}}}}}}},&quot;SoundEffectsSection&quot;:{&quot;type&quot;:&quot;tree::any&quot;,&quot;value&quot;:{&quot;Enabled&quot;:{&quot;type&quot;:&quot;bool&quot;,&quot;value&quot;:true},&quot;Reverb&quot;:{&quot;type&quot;:&quot;tree::any&quot;,&quot;value&quot;:{&quot;3&quot;:{&quot;type&quot;:&quot;tree::any&quot;,&quot;value&quot;:{&quot;Value&quot;:{&quot;type&quot;:&quot;float&quot;,&quot;value&quot;:2}}}}}}},&quot;VolumeSection&quot;:{&quot;type&quot;:&quot;tree::any&quot;,&quot;value&quot;:{&quot;Enabled&quot;:{&quot;type&quot;:&quot;bool&quot;,&quot;value&quot;:true}}}}}}"/>
          <component componentGuid="a02b45c5-b242-49b2-b012-32e6ee6272c6" componentID="Audition.Fader" id="clipGain" name="volume" powered="true">
            <parameter index="0" name="volume" parameterValue="1"/>
            <parameter index="1" name="static gain" parameterValue="1"/>
          </component>
          <component componentGuid="cf43d5c9-019d-4fbc-b47c-fe7c70f0a1f9" componentID="Audition.Mute" id="clipMute" name="Mute" powered="true">
            <parameter index="0" parameterValue="0"/>
            <parameter index="1" name="mute" parameterValue="0"/>
          </component>
          <component componentGuid="b5196775-d242-4fb2-91ca-e1432820ffed" componentID="Audition.StereoPanner" id="clipPan" name="StereoPanner" powered="true">
            <parameter index="0" name="Pan" parameterValue="0"/>
          </component>
          <fadeIn crossFadeLinkType="linkedAsymmetric" endPoint="11025" shape="19" startPoint="0" type="log"/>
          <fadeOut crossFadeLinkType="linkedAsymmetric" endPoint="219061" shape="19" startPoint="208036" type="log"/>
          <editParameter parameterIndex="0" slotIndex="4294967280"/>
          <editParameter parameterIndex="0" slotIndex="4294967281"/>
          <channelMap>
            <channel index="0" sourceIndex="0"/>
          </channelMap>
        </audioClip>
        <audioClip clipAutoCrossfade="true" crossFadeHeadClipID="-1" crossFadeTailClipID="-1" endPoint="113072400" fileID="2" hue="-1" id="15" lockedInTime="false" looped="false" name="Rachel" offline="false" select="false" sourceInPoint="124107872" sourceOutPoint="124184994" startPoint="112995278" zOrder="132">
          <properties properties="{&quot;BasicAdjustmentsProperty&quot;:{&quot;type&quot;:&quot;tree::any&quot;,&quot;value&quot;:{&quot;AdjustmentMode&quot;:{&quot;type&quot;:&quot;UTF8String&quot;,&quot;value&quot;:&quot;dialog&quot;},&quot;ClaritySection&quot;:{&quot;type&quot;:&quot;tree::any&quot;,&quot;value&quot;:{&quot;Dynamics&quot;:{&quot;type&quot;:&quot;tree::any&quot;,&quot;value&quot;:{&quot;2&quot;:{&quot;type&quot;:&quot;tree::any&quot;,&quot;value&quot;:{&quot;Value&quot;:{&quot;type&quot;:&quot;float&quot;,&quot;value&quot;:3}}}}},&quot;Enabled&quot;:{&quot;type&quot;:&quot;bool&quot;,&quot;value&quot;:true}}},&quot;ClipType&quot;:{&quot;type&quot;:&quot;std::int32_t&quot;,&quot;value&quot;:1},&quot;EnhanceSpeechSection&quot;:{&quot;type&quot;:&quot;tree::any&quot;,&quot;value&quot;:{&quot;Enabled&quot;:{&quot;type&quot;:&quot;bool&quot;,&quot;value&quot;:true}}},&quot;PresetGuid&quot;:{&quot;type&quot;:&quot;UTF8String&quot;,&quot;value&quot;:&quot;bb717b4a-c0b1-4def-9040-3fb8e83b8a91&quot;},&quot;RestorationSection&quot;:{&quot;type&quot;:&quot;tree::any&quot;,&quot;value&quot;:{&quot;Enabled&quot;:{&quot;type&quot;:&quot;bool&quot;,&quot;value&quot;:true},&quot;ReduceHum&quot;:{&quot;type&quot;:&quot;tree::any&quot;,&quot;value&quot;:{&quot;4&quot;:{&quot;type&quot;:&quot;tree::any&quot;,&quot;value&quot;:{&quot;Value&quot;:{&quot;type&quot;:&quot;float&quot;,&quot;value&quot;:7.143000602722168}}},&quot;9&quot;:{&quot;type&quot;:&quot;tree::any&quot;,&quot;value&quot;:{&quot;Value&quot;:{&quot;type&quot;:&quot;float&quot;,&quot;value&quot;:60}}}}}}},&quot;SoundEffectsSection&quot;:{&quot;type&quot;:&quot;tree::any&quot;,&quot;value&quot;:{&quot;Enabled&quot;:{&quot;type&quot;:&quot;bool&quot;,&quot;value&quot;:true},&quot;Reverb&quot;:{&quot;type&quot;:&quot;tree::any&quot;,&quot;value&quot;:{&quot;3&quot;:{&quot;type&quot;:&quot;tree::any&quot;,&quot;value&quot;:{&quot;Value&quot;:{&quot;type&quot;:&quot;float&quot;,&quot;value&quot;:2}}}}}}},&quot;VolumeSection&quot;:{&quot;type&quot;:&quot;tree::any&quot;,&quot;value&quot;:{&quot;Enabled&quot;:{&quot;type&quot;:&quot;bool&quot;,&quot;value&quot;:true}}}}}}"/>
          <component componentGuid="da82cda8-8efb-4e22-ad3f-7a512e0aa837" componentID="Audition.Fader" id="clipGain" name="volume" powered="true">
            <parameter index="0" name="volume" parameterValue="1"/>
            <parameter index="1" name="static gain" parameterValue="1"/>
          </component>
          <component componentGuid="84381946-0aa3-41f5-a14a-e82f1fb95e03" componentID="Audition.Mute" id="clipMute" name="Mute" powered="true">
            <parameter index="0" parameterValue="0"/>
            <parameter index="1" name="mute" parameterValue="0"/>
          </component>
          <component componentGuid="5d11e1ed-c068-4b34-8343-f1bbad4307cc" componentID="Audition.StereoPanner" id="clipPan" name="StereoPanner" powered="true">
            <parameter index="0" name="Pan" parameterValue="0"/>
          </component>
          <fadeIn crossFadeLinkType="linkedAsymmetric" endPoint="11025" shape="19" startPoint="0" type="log"/>
          <fadeOut crossFadeLinkType="linkedAsymmetric" endPoint="77122" shape="19" startPoint="77122" type="log"/>
          <editParameter parameterIndex="0" slotIndex="4294967280"/>
          <editParameter parameterIndex="0" slotIndex="4294967281"/>
          <channelMap>
            <channel index="0" sourceIndex="0"/>
          </channelMap>
        </audioClip>
        <audioClip clipAutoCrossfade="true" crossFadeHeadClipID="-1" crossFadeTailClipID="-1" endPoint="125769836" fileID="2" hue="-1" id="16" lockedInTime="false" looped="false" name="Rachel" offline="false" select="false" sourceInPoint="138703618" sourceOutPoint="138853606" startPoint="125619848" zOrder="173">
          <properties properties="{&quot;BasicAdjustmentsProperty&quot;:{&quot;type&quot;:&quot;tree::any&quot;,&quot;value&quot;:{&quot;AdjustmentMode&quot;:{&quot;type&quot;:&quot;UTF8String&quot;,&quot;value&quot;:&quot;dialog&quot;},&quot;ClaritySection&quot;:{&quot;type&quot;:&quot;tree::any&quot;,&quot;value&quot;:{&quot;Dynamics&quot;:{&quot;type&quot;:&quot;tree::any&quot;,&quot;value&quot;:{&quot;2&quot;:{&quot;type&quot;:&quot;tree::any&quot;,&quot;value&quot;:{&quot;Value&quot;:{&quot;type&quot;:&quot;float&quot;,&quot;value&quot;:3}}}}},&quot;Enabled&quot;:{&quot;type&quot;:&quot;bool&quot;,&quot;value&quot;:true}}},&quot;ClipType&quot;:{&quot;type&quot;:&quot;std::int32_t&quot;,&quot;value&quot;:1},&quot;EnhanceSpeechSection&quot;:{&quot;type&quot;:&quot;tree::any&quot;,&quot;value&quot;:{&quot;Enabled&quot;:{&quot;type&quot;:&quot;bool&quot;,&quot;value&quot;:true}}},&quot;PresetGuid&quot;:{&quot;type&quot;:&quot;UTF8String&quot;,&quot;value&quot;:&quot;bb717b4a-c0b1-4def-9040-3fb8e83b8a91&quot;},&quot;RestorationSection&quot;:{&quot;type&quot;:&quot;tree::any&quot;,&quot;value&quot;:{&quot;Enabled&quot;:{&quot;type&quot;:&quot;bool&quot;,&quot;value&quot;:true},&quot;ReduceHum&quot;:{&quot;type&quot;:&quot;tree::any&quot;,&quot;value&quot;:{&quot;4&quot;:{&quot;type&quot;:&quot;tree::any&quot;,&quot;value&quot;:{&quot;Value&quot;:{&quot;type&quot;:&quot;float&quot;,&quot;value&quot;:7.143000602722168}}},&quot;9&quot;:{&quot;type&quot;:&quot;tree::any&quot;,&quot;value&quot;:{&quot;Value&quot;:{&quot;type&quot;:&quot;float&quot;,&quot;value&quot;:60}}}}}}},&quot;SoundEffectsSection&quot;:{&quot;type&quot;:&quot;tree::any&quot;,&quot;value&quot;:{&quot;Enabled&quot;:{&quot;type&quot;:&quot;bool&quot;,&quot;value&quot;:true},&quot;Reverb&quot;:{&quot;type&quot;:&quot;tree::any&quot;,&quot;value&quot;:{&quot;3&quot;:{&quot;type&quot;:&quot;tree::any&quot;,&quot;value&quot;:{&quot;Value&quot;:{&quot;type&quot;:&quot;float&quot;,&quot;value&quot;:2}}}}}}},&quot;VolumeSection&quot;:{&quot;type&quot;:&quot;tree::any&quot;,&quot;value&quot;:{&quot;Enabled&quot;:{&quot;type&quot;:&quot;bool&quot;,&quot;value&quot;:true}}}}},&quot;TempData&quot;:{&quot;type&quot;:&quot;tree::any&quot;,&quot;value&quot;:{}}}"/>
          <component componentGuid="63195dd7-d310-42b9-aec6-1edd6fca7366" componentID="Audition.Fader" id="clipGain" name="volume" powered="true">
            <parameter index="0" name="volume" parameterValue="1"/>
            <parameter index="1" name="static gain" parameterValue="1"/>
          </component>
          <component componentGuid="dfab65ff-98a3-4d80-ab8c-1d4dcc899827" componentID="Audition.Mute" id="clipMute" name="Mute" powered="true">
            <parameter index="0" parameterValue="0"/>
            <parameter index="1" name="mute" parameterValue="0"/>
          </component>
          <component componentGuid="7404ed14-521f-40b7-b543-6415035c2e5f" componentID="Audition.StereoPanner" id="clipPan" name="StereoPanner" powered="true">
            <parameter index="0" name="Pan" parameterValue="0"/>
          </component>
          <fadeIn crossFadeLinkType="linkedAsymmetric" endPoint="11025" shape="19" startPoint="0" type="log"/>
          <fadeOut crossFadeLinkType="linkedAsymmetric" endPoint="149988" shape="19" startPoint="138963" type="log"/>
          <editParameter parameterIndex="0" slotIndex="4294967280"/>
          <editParameter parameterIndex="0" slotIndex="4294967281"/>
          <channelMap>
            <channel index="0" sourceIndex="0"/>
          </channelMap>
        </audioClip>
        <audioClip clipAutoCrossfade="true" crossFadeHeadClipID="-1" crossFadeTailClipID="-1" endPoint="126898783" fileID="2" hue="-1" id="17" lockedInTime="false" looped="false" name="Rachel" offline="false" select="false" sourceInPoint="139857010" sourceOutPoint="139981495" startPoint="126774298" zOrder="171">
          <properties properties="{&quot;BasicAdjustmentsProperty&quot;:{&quot;type&quot;:&quot;tree::any&quot;,&quot;value&quot;:{&quot;AdjustmentMode&quot;:{&quot;type&quot;:&quot;UTF8String&quot;,&quot;value&quot;:&quot;dialog&quot;},&quot;ClaritySection&quot;:{&quot;type&quot;:&quot;tree::any&quot;,&quot;value&quot;:{&quot;Dynamics&quot;:{&quot;type&quot;:&quot;tree::any&quot;,&quot;value&quot;:{&quot;2&quot;:{&quot;type&quot;:&quot;tree::any&quot;,&quot;value&quot;:{&quot;Value&quot;:{&quot;type&quot;:&quot;float&quot;,&quot;value&quot;:3}}}}},&quot;Enabled&quot;:{&quot;type&quot;:&quot;bool&quot;,&quot;value&quot;:true}}},&quot;ClipType&quot;:{&quot;type&quot;:&quot;std::int32_t&quot;,&quot;value&quot;:1},&quot;EnhanceSpeechSection&quot;:{&quot;type&quot;:&quot;tree::any&quot;,&quot;value&quot;:{&quot;Enabled&quot;:{&quot;type&quot;:&quot;bool&quot;,&quot;value&quot;:true}}},&quot;PresetGuid&quot;:{&quot;type&quot;:&quot;UTF8String&quot;,&quot;value&quot;:&quot;bb717b4a-c0b1-4def-9040-3fb8e83b8a91&quot;},&quot;RestorationSection&quot;:{&quot;type&quot;:&quot;tree::any&quot;,&quot;value&quot;:{&quot;Enabled&quot;:{&quot;type&quot;:&quot;bool&quot;,&quot;value&quot;:true},&quot;ReduceHum&quot;:{&quot;type&quot;:&quot;tree::any&quot;,&quot;value&quot;:{&quot;4&quot;:{&quot;type&quot;:&quot;tree::any&quot;,&quot;value&quot;:{&quot;Value&quot;:{&quot;type&quot;:&quot;float&quot;,&quot;value&quot;:7.143000602722168}}},&quot;9&quot;:{&quot;type&quot;:&quot;tree::any&quot;,&quot;value&quot;:{&quot;Value&quot;:{&quot;type&quot;:&quot;float&quot;,&quot;value&quot;:60}}}}}}},&quot;SoundEffectsSection&quot;:{&quot;type&quot;:&quot;tree::any&quot;,&quot;value&quot;:{&quot;Enabled&quot;:{&quot;type&quot;:&quot;bool&quot;,&quot;value&quot;:true},&quot;Reverb&quot;:{&quot;type&quot;:&quot;tree::any&quot;,&quot;value&quot;:{&quot;3&quot;:{&quot;type&quot;:&quot;tree::any&quot;,&quot;value&quot;:{&quot;Value&quot;:{&quot;type&quot;:&quot;float&quot;,&quot;value&quot;:2}}}}}}},&quot;VolumeSection&quot;:{&quot;type&quot;:&quot;tree::any&quot;,&quot;value&quot;:{&quot;Enabled&quot;:{&quot;type&quot;:&quot;bool&quot;,&quot;value&quot;:true}}}}},&quot;TempData&quot;:{&quot;type&quot;:&quot;tree::any&quot;,&quot;value&quot;:{}}}"/>
          <component componentGuid="12659621-95e3-4797-be43-e43a6eedb3ae" componentID="Audition.Fader" id="clipGain" name="volume" powered="true">
            <parameter index="0" name="volume" parameterValue="1"/>
            <parameter index="1" name="static gain" parameterValue="1"/>
          </component>
          <component componentGuid="7637c0e1-14c3-40d7-829a-ac0a16d86ac0" componentID="Audition.Mute" id="clipMute" name="Mute" powered="true">
            <parameter index="0" parameterValue="0"/>
            <parameter index="1" name="mute" parameterValue="0"/>
          </component>
          <component componentGuid="834cf774-0bba-4e16-a79b-016a3831a6f3" componentID="Audition.StereoPanner" id="clipPan" name="StereoPanner" powered="true">
            <parameter index="0" name="Pan" parameterValue="0"/>
          </component>
          <fadeIn crossFadeLinkType="linkedAsymmetric" endPoint="11025" shape="19" startPoint="0" type="log"/>
          <fadeOut crossFadeLinkType="linkedAsymmetric" endPoint="124485" shape="19" startPoint="124485" type="log"/>
          <editParameter parameterIndex="0" slotIndex="4294967280"/>
          <editParameter parameterIndex="0" slotIndex="4294967281"/>
          <channelMap>
            <channel index="0" sourceIndex="0"/>
          </channelMap>
        </audioClip>
        <audioClip clipAutoCrossfade="true" crossFadeHeadClipID="-1" crossFadeTailClipID="-1" endPoint="127011865" fileID="2" hue="-1" id="18" lockedInTime="false" looped="false" name="Rachel" offline="false" select="false" sourceInPoint="140018905" sourceOutPoint="140094577" startPoint="126936193" zOrder="171">
          <properties properties="{&quot;BasicAdjustmentsProperty&quot;:{&quot;type&quot;:&quot;tree::any&quot;,&quot;value&quot;:{&quot;AdjustmentMode&quot;:{&quot;type&quot;:&quot;UTF8String&quot;,&quot;value&quot;:&quot;dialog&quot;},&quot;ClaritySection&quot;:{&quot;type&quot;:&quot;tree::any&quot;,&quot;value&quot;:{&quot;Dynamics&quot;:{&quot;type&quot;:&quot;tree::any&quot;,&quot;value&quot;:{&quot;2&quot;:{&quot;type&quot;:&quot;tree::any&quot;,&quot;value&quot;:{&quot;Value&quot;:{&quot;type&quot;:&quot;float&quot;,&quot;value&quot;:3}}}}},&quot;Enabled&quot;:{&quot;type&quot;:&quot;bool&quot;,&quot;value&quot;:true}}},&quot;ClipType&quot;:{&quot;type&quot;:&quot;std::int32_t&quot;,&quot;value&quot;:1},&quot;EnhanceSpeechSection&quot;:{&quot;type&quot;:&quot;tree::any&quot;,&quot;value&quot;:{&quot;Enabled&quot;:{&quot;type&quot;:&quot;bool&quot;,&quot;value&quot;:true}}},&quot;PresetGuid&quot;:{&quot;type&quot;:&quot;UTF8String&quot;,&quot;value&quot;:&quot;bb717b4a-c0b1-4def-9040-3fb8e83b8a91&quot;},&quot;RestorationSection&quot;:{&quot;type&quot;:&quot;tree::any&quot;,&quot;value&quot;:{&quot;Enabled&quot;:{&quot;type&quot;:&quot;bool&quot;,&quot;value&quot;:true},&quot;ReduceHum&quot;:{&quot;type&quot;:&quot;tree::any&quot;,&quot;value&quot;:{&quot;4&quot;:{&quot;type&quot;:&quot;tree::any&quot;,&quot;value&quot;:{&quot;Value&quot;:{&quot;type&quot;:&quot;float&quot;,&quot;value&quot;:7.143000602722168}}},&quot;9&quot;:{&quot;type&quot;:&quot;tree::any&quot;,&quot;value&quot;:{&quot;Value&quot;:{&quot;type&quot;:&quot;float&quot;,&quot;value&quot;:60}}}}}}},&quot;SoundEffectsSection&quot;:{&quot;type&quot;:&quot;tree::any&quot;,&quot;value&quot;:{&quot;Enabled&quot;:{&quot;type&quot;:&quot;bool&quot;,&quot;value&quot;:true},&quot;Reverb&quot;:{&quot;type&quot;:&quot;tree::any&quot;,&quot;value&quot;:{&quot;3&quot;:{&quot;type&quot;:&quot;tree::any&quot;,&quot;value&quot;:{&quot;Value&quot;:{&quot;type&quot;:&quot;float&quot;,&quot;value&quot;:2}}}}}}},&quot;VolumeSection&quot;:{&quot;type&quot;:&quot;tree::any&quot;,&quot;value&quot;:{&quot;Enabled&quot;:{&quot;type&quot;:&quot;bool&quot;,&quot;value&quot;:true}}}}},&quot;TempData&quot;:{&quot;type&quot;:&quot;tree::any&quot;,&quot;value&quot;:{}}}"/>
          <component componentGuid="dc919c22-26b5-4bb9-a456-5e95e9520fa2" componentID="Audition.Fader" id="clipGain" name="volume" powered="true">
            <parameter index="0" name="volume" parameterValue="1"/>
            <parameter index="1" name="static gain" parameterValue="1"/>
          </component>
          <component componentGuid="b1754867-0c04-42ff-99a0-f429de50e5d0" componentID="Audition.Mute" id="clipMute" name="Mute" powered="true">
            <parameter index="0" parameterValue="0"/>
            <parameter index="1" name="mute" parameterValue="0"/>
          </component>
          <component componentGuid="b4d6fa42-6c7b-446e-bd99-39f0cfd7b588" componentID="Audition.StereoPanner" id="clipPan" name="StereoPanner" powered="true">
            <parameter index="0" name="Pan" parameterValue="0"/>
          </component>
          <fadeIn crossFadeLinkType="linkedAsymmetric" endPoint="0" shape="19" startPoint="0" type="log"/>
          <fadeOut crossFadeLinkType="linkedAsymmetric" endPoint="75672" shape="19" startPoint="64647" type="log"/>
          <editParameter parameterIndex="0" slotIndex="4294967280"/>
          <editParameter parameterIndex="0" slotIndex="4294967281"/>
          <channelMap>
            <channel index="0" sourceIndex="0"/>
          </channelMap>
        </audioClip>
        <audioClip clipAutoCrossfade="true" crossFadeHeadClipID="-1" crossFadeTailClipID="20" endPoint="128919473" fileID="2" hue="-1" id="19" lockedInTime="false" looped="false" name="Rachel" offline="false" select="false" sourceInPoint="140269403" sourceOutPoint="142002185" startPoint="127186691" zOrder="166">
          <properties properties="{&quot;BasicAdjustmentsProperty&quot;:{&quot;type&quot;:&quot;tree::any&quot;,&quot;value&quot;:{&quot;AdjustmentMode&quot;:{&quot;type&quot;:&quot;UTF8String&quot;,&quot;value&quot;:&quot;dialog&quot;},&quot;ClaritySection&quot;:{&quot;type&quot;:&quot;tree::any&quot;,&quot;value&quot;:{&quot;Dynamics&quot;:{&quot;type&quot;:&quot;tree::any&quot;,&quot;value&quot;:{&quot;2&quot;:{&quot;type&quot;:&quot;tree::any&quot;,&quot;value&quot;:{&quot;Value&quot;:{&quot;type&quot;:&quot;float&quot;,&quot;value&quot;:3}}}}},&quot;Enabled&quot;:{&quot;type&quot;:&quot;bool&quot;,&quot;value&quot;:true}}},&quot;ClipType&quot;:{&quot;type&quot;:&quot;std::int32_t&quot;,&quot;value&quot;:1},&quot;EnhanceSpeechSection&quot;:{&quot;type&quot;:&quot;tree::any&quot;,&quot;value&quot;:{&quot;Enabled&quot;:{&quot;type&quot;:&quot;bool&quot;,&quot;value&quot;:true}}},&quot;PresetGuid&quot;:{&quot;type&quot;:&quot;UTF8String&quot;,&quot;value&quot;:&quot;bb717b4a-c0b1-4def-9040-3fb8e83b8a91&quot;},&quot;RestorationSection&quot;:{&quot;type&quot;:&quot;tree::any&quot;,&quot;value&quot;:{&quot;Enabled&quot;:{&quot;type&quot;:&quot;bool&quot;,&quot;value&quot;:true},&quot;ReduceHum&quot;:{&quot;type&quot;:&quot;tree::any&quot;,&quot;value&quot;:{&quot;4&quot;:{&quot;type&quot;:&quot;tree::any&quot;,&quot;value&quot;:{&quot;Value&quot;:{&quot;type&quot;:&quot;float&quot;,&quot;value&quot;:7.143000602722168}}},&quot;9&quot;:{&quot;type&quot;:&quot;tree::any&quot;,&quot;value&quot;:{&quot;Value&quot;:{&quot;type&quot;:&quot;float&quot;,&quot;value&quot;:60}}}}}}},&quot;SoundEffectsSection&quot;:{&quot;type&quot;:&quot;tree::any&quot;,&quot;value&quot;:{&quot;Enabled&quot;:{&quot;type&quot;:&quot;bool&quot;,&quot;value&quot;:true},&quot;Reverb&quot;:{&quot;type&quot;:&quot;tree::any&quot;,&quot;value&quot;:{&quot;3&quot;:{&quot;type&quot;:&quot;tree::any&quot;,&quot;value&quot;:{&quot;Value&quot;:{&quot;type&quot;:&quot;float&quot;,&quot;value&quot;:2}}}}}}},&quot;VolumeSection&quot;:{&quot;type&quot;:&quot;tree::any&quot;,&quot;value&quot;:{&quot;Enabled&quot;:{&quot;type&quot;:&quot;bool&quot;,&quot;value&quot;:true}}}}},&quot;TempData&quot;:{&quot;type&quot;:&quot;tree::any&quot;,&quot;value&quot;:{}}}"/>
          <component componentGuid="94cc8c56-084b-48e8-9450-527625d6f5cb" componentID="Audition.Fader" id="clipGain" name="volume" powered="true">
            <parameter index="0" name="volume" parameterValue="1"/>
            <parameter index="1" name="static gain" parameterValue="1"/>
          </component>
          <component componentGuid="7bf23d1e-3110-44d7-b546-c2d32d949340" componentID="Audition.Mute" id="clipMute" name="Mute" powered="true">
            <parameter index="0" parameterValue="0"/>
            <parameter index="1" name="mute" parameterValue="0"/>
          </component>
          <component componentGuid="8c84e3ad-e352-46ed-a26b-6af112296695" componentID="Audition.StereoPanner" id="clipPan" name="StereoPanner" powered="true">
            <parameter index="0" name="Pan" parameterValue="0"/>
          </component>
          <fadeIn crossFadeLinkType="linkedAsymmetric" endPoint="11025" shape="19" startPoint="0" type="log"/>
          <fadeOut crossFadeLinkType="linkedAsymmetric" endPoint="1732782" shape="19" startPoint="1721910" type="log"/>
          <editParameter parameterIndex="0" slotIndex="4294967280"/>
          <editParameter parameterIndex="0" slotIndex="4294967281"/>
          <channelMap>
            <channel index="0" sourceIndex="0"/>
          </channelMap>
        </audioClip>
        <audioClip clipAutoCrossfade="true" crossFadeHeadClipID="19" crossFadeTailClipID="21" endPoint="128948400" fileID="2" hue="-1" id="20" lockedInTime="false" looped="false" name="Rachel" offline="false" select="false" sourceInPoint="142002185" sourceOutPoint="142041984" startPoint="128908601" zOrder="199">
          <properties properties="{&quot;BasicAdjustmentsProperty&quot;:{&quot;type&quot;:&quot;tree::any&quot;,&quot;value&quot;:{&quot;AdjustmentMode&quot;:{&quot;type&quot;:&quot;UTF8String&quot;,&quot;value&quot;:&quot;dialog&quot;},&quot;ClaritySection&quot;:{&quot;type&quot;:&quot;tree::any&quot;,&quot;value&quot;:{&quot;Dynamics&quot;:{&quot;type&quot;:&quot;tree::any&quot;,&quot;value&quot;:{&quot;2&quot;:{&quot;type&quot;:&quot;tree::any&quot;,&quot;value&quot;:{&quot;Value&quot;:{&quot;type&quot;:&quot;float&quot;,&quot;value&quot;:3}}}}},&quot;Enabled&quot;:{&quot;type&quot;:&quot;bool&quot;,&quot;value&quot;:true}}},&quot;ClipType&quot;:{&quot;type&quot;:&quot;std::int32_t&quot;,&quot;value&quot;:1},&quot;EnhanceSpeechSection&quot;:{&quot;type&quot;:&quot;tree::any&quot;,&quot;value&quot;:{&quot;Enabled&quot;:{&quot;type&quot;:&quot;bool&quot;,&quot;value&quot;:true}}},&quot;PresetGuid&quot;:{&quot;type&quot;:&quot;UTF8String&quot;,&quot;value&quot;:&quot;bb717b4a-c0b1-4def-9040-3fb8e83b8a91&quot;},&quot;RestorationSection&quot;:{&quot;type&quot;:&quot;tree::any&quot;,&quot;value&quot;:{&quot;Enabled&quot;:{&quot;type&quot;:&quot;bool&quot;,&quot;value&quot;:true},&quot;ReduceHum&quot;:{&quot;type&quot;:&quot;tree::any&quot;,&quot;value&quot;:{&quot;4&quot;:{&quot;type&quot;:&quot;tree::any&quot;,&quot;value&quot;:{&quot;Value&quot;:{&quot;type&quot;:&quot;float&quot;,&quot;value&quot;:7.143000602722168}}},&quot;9&quot;:{&quot;type&quot;:&quot;tree::any&quot;,&quot;value&quot;:{&quot;Value&quot;:{&quot;type&quot;:&quot;float&quot;,&quot;value&quot;:60}}}}}}},&quot;SoundEffectsSection&quot;:{&quot;type&quot;:&quot;tree::any&quot;,&quot;value&quot;:{&quot;Enabled&quot;:{&quot;type&quot;:&quot;bool&quot;,&quot;value&quot;:true},&quot;Reverb&quot;:{&quot;type&quot;:&quot;tree::any&quot;,&quot;value&quot;:{&quot;3&quot;:{&quot;type&quot;:&quot;tree::any&quot;,&quot;value&quot;:{&quot;Value&quot;:{&quot;type&quot;:&quot;float&quot;,&quot;value&quot;:2}}}}}}},&quot;VolumeSection&quot;:{&quot;type&quot;:&quot;tree::any&quot;,&quot;value&quot;:{&quot;Enabled&quot;:{&quot;type&quot;:&quot;bool&quot;,&quot;value&quot;:true}}}}},&quot;TempData&quot;:{&quot;type&quot;:&quot;tree::any&quot;,&quot;value&quot;:{}}}"/>
          <component componentGuid="b8a44136-4aed-4a8f-83a5-b25739cfac7e" componentID="Audition.Fader" id="clipGain" name="volume" powered="true">
            <parameter index="0" name="volume" parameterValue="1"/>
            <parameter index="1" name="static gain" parameterValue="1"/>
          </component>
          <component componentGuid="07edf1a2-1fe4-4955-8547-33997e979c2a" componentID="Audition.Mute" id="clipMute" name="Mute" powered="true">
            <parameter index="0" parameterValue="0"/>
            <parameter index="1" name="mute" parameterValue="0"/>
          </component>
          <component componentGuid="dac07c4e-b13c-4ff9-b6e5-de766419cd11" componentID="Audition.StereoPanner" id="clipPan" name="StereoPanner" powered="true">
            <parameter index="0" name="Pan" parameterValue="0"/>
          </component>
          <fadeIn crossFadeLinkType="linkedAsymmetric" endPoint="10872" shape="18" startPoint="0" type="log"/>
          <fadeOut crossFadeLinkType="linkedAsymmetric" endPoint="39799" shape="19" startPoint="32364" type="log"/>
          <editParameter parameterIndex="0" slotIndex="4294967280"/>
          <editParameter parameterIndex="0" slotIndex="4294967281"/>
          <channelMap>
            <channel index="0" sourceIndex="0"/>
          </channelMap>
        </audioClip>
        <audioClip clipAutoCrossfade="true" crossFadeHeadClipID="20" crossFadeTailClipID="22" endPoint="129098566" fileID="2" hue="-1" id="21" lockedInTime="false" looped="false" name="Rachel" offline="false" select="false" sourceInPoint="142041984" sourceOutPoint="142199585" startPoint="128940965" zOrder="200">
          <properties properties="{&quot;BasicAdjustmentsProperty&quot;:{&quot;type&quot;:&quot;tree::any&quot;,&quot;value&quot;:{&quot;AdjustmentMode&quot;:{&quot;type&quot;:&quot;UTF8String&quot;,&quot;value&quot;:&quot;dialog&quot;},&quot;ClaritySection&quot;:{&quot;type&quot;:&quot;tree::any&quot;,&quot;value&quot;:{&quot;Dynamics&quot;:{&quot;type&quot;:&quot;tree::any&quot;,&quot;value&quot;:{&quot;2&quot;:{&quot;type&quot;:&quot;tree::any&quot;,&quot;value&quot;:{&quot;Value&quot;:{&quot;type&quot;:&quot;float&quot;,&quot;value&quot;:3}}}}},&quot;Enabled&quot;:{&quot;type&quot;:&quot;bool&quot;,&quot;value&quot;:true}}},&quot;ClipType&quot;:{&quot;type&quot;:&quot;std::int32_t&quot;,&quot;value&quot;:1},&quot;EnhanceSpeechSection&quot;:{&quot;type&quot;:&quot;tree::any&quot;,&quot;value&quot;:{&quot;Enabled&quot;:{&quot;type&quot;:&quot;bool&quot;,&quot;value&quot;:true}}},&quot;PresetGuid&quot;:{&quot;type&quot;:&quot;UTF8String&quot;,&quot;value&quot;:&quot;bb717b4a-c0b1-4def-9040-3fb8e83b8a91&quot;},&quot;RestorationSection&quot;:{&quot;type&quot;:&quot;tree::any&quot;,&quot;value&quot;:{&quot;Enabled&quot;:{&quot;type&quot;:&quot;bool&quot;,&quot;value&quot;:true},&quot;ReduceHum&quot;:{&quot;type&quot;:&quot;tree::any&quot;,&quot;value&quot;:{&quot;4&quot;:{&quot;type&quot;:&quot;tree::any&quot;,&quot;value&quot;:{&quot;Value&quot;:{&quot;type&quot;:&quot;float&quot;,&quot;value&quot;:7.143000602722168}}},&quot;9&quot;:{&quot;type&quot;:&quot;tree::any&quot;,&quot;value&quot;:{&quot;Value&quot;:{&quot;type&quot;:&quot;float&quot;,&quot;value&quot;:60}}}}}}},&quot;SoundEffectsSection&quot;:{&quot;type&quot;:&quot;tree::any&quot;,&quot;value&quot;:{&quot;Enabled&quot;:{&quot;type&quot;:&quot;bool&quot;,&quot;value&quot;:true},&quot;Reverb&quot;:{&quot;type&quot;:&quot;tree::any&quot;,&quot;value&quot;:{&quot;3&quot;:{&quot;type&quot;:&quot;tree::any&quot;,&quot;value&quot;:{&quot;Value&quot;:{&quot;type&quot;:&quot;float&quot;,&quot;value&quot;:2}}}}}}},&quot;VolumeSection&quot;:{&quot;type&quot;:&quot;tree::any&quot;,&quot;value&quot;:{&quot;Enabled&quot;:{&quot;type&quot;:&quot;bool&quot;,&quot;value&quot;:true}}}}},&quot;TempData&quot;:{&quot;type&quot;:&quot;tree::any&quot;,&quot;value&quot;:{}}}"/>
          <component componentGuid="fe6ac874-e8b3-40e3-9f69-eb0795acfc14" componentID="Audition.Fader" id="clipGain" name="volume" powered="true">
            <parameter index="0" name="volume" parameterValue="1"/>
            <parameter index="1" name="static gain" parameterValue="1"/>
          </component>
          <component componentGuid="d5fe52a5-f328-437c-b9fb-970a3dec417c" componentID="Audition.Mute" id="clipMute" name="Mute" powered="true">
            <parameter index="0" parameterValue="0"/>
            <parameter index="1" name="mute" parameterValue="0"/>
          </component>
          <component componentGuid="2afe229e-8753-42ed-8ce0-b3f210ba5cc6" componentID="Audition.StereoPanner" id="clipPan" name="StereoPanner" powered="true">
            <parameter index="0" name="Pan" parameterValue="0"/>
          </component>
          <fadeIn crossFadeLinkType="linkedAsymmetric" endPoint="7435" shape="18" startPoint="0" type="log"/>
          <fadeOut crossFadeLinkType="linkedAsymmetric" endPoint="157601" shape="19" startPoint="129743" type="log"/>
          <editParameter parameterIndex="0" slotIndex="4294967280"/>
          <editParameter parameterIndex="0" slotIndex="4294967281"/>
          <channelMap>
            <channel index="0" sourceIndex="0"/>
          </channelMap>
        </audioClip>
        <audioClip clipAutoCrossfade="true" crossFadeHeadClipID="21" crossFadeTailClipID="-1" endPoint="132668108" fileID="2" hue="-1" id="22" lockedInTime="false" looped="false" name="Rachel" offline="false" select="false" sourceInPoint="142199585" sourceOutPoint="145796985" startPoint="129070708" zOrder="201">
          <properties properties="{&quot;BasicAdjustmentsProperty&quot;:{&quot;type&quot;:&quot;tree::any&quot;,&quot;value&quot;:{&quot;AdjustmentMode&quot;:{&quot;type&quot;:&quot;UTF8String&quot;,&quot;value&quot;:&quot;dialog&quot;},&quot;ClaritySection&quot;:{&quot;type&quot;:&quot;tree::any&quot;,&quot;value&quot;:{&quot;Dynamics&quot;:{&quot;type&quot;:&quot;tree::any&quot;,&quot;value&quot;:{&quot;2&quot;:{&quot;type&quot;:&quot;tree::any&quot;,&quot;value&quot;:{&quot;Value&quot;:{&quot;type&quot;:&quot;float&quot;,&quot;value&quot;:3}}}}},&quot;Enabled&quot;:{&quot;type&quot;:&quot;bool&quot;,&quot;value&quot;:true}}},&quot;ClipType&quot;:{&quot;type&quot;:&quot;std::int32_t&quot;,&quot;value&quot;:1},&quot;EnhanceSpeechSection&quot;:{&quot;type&quot;:&quot;tree::any&quot;,&quot;value&quot;:{&quot;Enabled&quot;:{&quot;type&quot;:&quot;bool&quot;,&quot;value&quot;:true}}},&quot;PresetGuid&quot;:{&quot;type&quot;:&quot;UTF8String&quot;,&quot;value&quot;:&quot;bb717b4a-c0b1-4def-9040-3fb8e83b8a91&quot;},&quot;RestorationSection&quot;:{&quot;type&quot;:&quot;tree::any&quot;,&quot;value&quot;:{&quot;Enabled&quot;:{&quot;type&quot;:&quot;bool&quot;,&quot;value&quot;:true},&quot;ReduceHum&quot;:{&quot;type&quot;:&quot;tree::any&quot;,&quot;value&quot;:{&quot;4&quot;:{&quot;type&quot;:&quot;tree::any&quot;,&quot;value&quot;:{&quot;Value&quot;:{&quot;type&quot;:&quot;float&quot;,&quot;value&quot;:7.143000602722168}}},&quot;9&quot;:{&quot;type&quot;:&quot;tree::any&quot;,&quot;value&quot;:{&quot;Value&quot;:{&quot;type&quot;:&quot;float&quot;,&quot;value&quot;:60}}}}}}},&quot;SoundEffectsSection&quot;:{&quot;type&quot;:&quot;tree::any&quot;,&quot;value&quot;:{&quot;Enabled&quot;:{&quot;type&quot;:&quot;bool&quot;,&quot;value&quot;:true},&quot;Reverb&quot;:{&quot;type&quot;:&quot;tree::any&quot;,&quot;value&quot;:{&quot;3&quot;:{&quot;type&quot;:&quot;tree::any&quot;,&quot;value&quot;:{&quot;Value&quot;:{&quot;type&quot;:&quot;float&quot;,&quot;value&quot;:2}}}}}}},&quot;VolumeSection&quot;:{&quot;type&quot;:&quot;tree::any&quot;,&quot;value&quot;:{&quot;Enabled&quot;:{&quot;type&quot;:&quot;bool&quot;,&quot;value&quot;:true}}}}},&quot;TempData&quot;:{&quot;type&quot;:&quot;tree::any&quot;,&quot;value&quot;:{}}}"/>
          <component componentGuid="0156d6b4-a9c0-4b85-869b-3aea87276bdc" componentID="Audition.Fader" id="clipGain" name="volume" powered="true">
            <parameter index="0" name="volume" parameterValue="1"/>
            <parameter index="1" name="static gain" parameterValue="1"/>
          </component>
          <component componentGuid="8d24d33c-6b8d-48a3-955c-741e5afe0ee8" componentID="Audition.Mute" id="clipMute" name="Mute" powered="true">
            <parameter index="0" parameterValue="0"/>
            <parameter index="1" name="mute" parameterValue="0"/>
          </component>
          <component componentGuid="e7ad42d3-6a63-4748-bb9e-21e3840386d4" componentID="Audition.StereoPanner" id="clipPan" name="StereoPanner" powered="true">
            <parameter index="0" name="Pan" parameterValue="0"/>
          </component>
          <fadeIn crossFadeLinkType="linkedAsymmetric" endPoint="27858" shape="18" startPoint="0" type="log"/>
          <fadeOut crossFadeLinkType="linkedAsymmetric" endPoint="3597400" shape="19" startPoint="3586375" type="log"/>
          <editParameter parameterIndex="0" slotIndex="4294967280"/>
          <editParameter parameterIndex="0" slotIndex="4294967281"/>
          <channelMap>
            <channel index="0" sourceIndex="0"/>
          </channelMap>
        </audioClip>
        <audioClip clipAutoCrossfade="true" crossFadeHeadClipID="-1" crossFadeTailClipID="-1" endPoint="137084082" fileID="2" hue="-1" id="23" lockedInTime="false" looped="false" name="Rachel" offline="false" select="false" sourceInPoint="150132441" sourceOutPoint="150221626" startPoint="136994897" zOrder="211">
          <properties properties="{&quot;BasicAdjustmentsProperty&quot;:{&quot;type&quot;:&quot;tree::any&quot;,&quot;value&quot;:{&quot;AdjustmentMode&quot;:{&quot;type&quot;:&quot;UTF8String&quot;,&quot;value&quot;:&quot;dialog&quot;},&quot;ClaritySection&quot;:{&quot;type&quot;:&quot;tree::any&quot;,&quot;value&quot;:{&quot;Dynamics&quot;:{&quot;type&quot;:&quot;tree::any&quot;,&quot;value&quot;:{&quot;2&quot;:{&quot;type&quot;:&quot;tree::any&quot;,&quot;value&quot;:{&quot;Value&quot;:{&quot;type&quot;:&quot;float&quot;,&quot;value&quot;:3}}}}},&quot;Enabled&quot;:{&quot;type&quot;:&quot;bool&quot;,&quot;value&quot;:true}}},&quot;ClipType&quot;:{&quot;type&quot;:&quot;std::int32_t&quot;,&quot;value&quot;:1},&quot;EnhanceSpeechSection&quot;:{&quot;type&quot;:&quot;tree::any&quot;,&quot;value&quot;:{&quot;Enabled&quot;:{&quot;type&quot;:&quot;bool&quot;,&quot;value&quot;:true}}},&quot;PresetGuid&quot;:{&quot;type&quot;:&quot;UTF8String&quot;,&quot;value&quot;:&quot;bb717b4a-c0b1-4def-9040-3fb8e83b8a91&quot;},&quot;RestorationSection&quot;:{&quot;type&quot;:&quot;tree::any&quot;,&quot;value&quot;:{&quot;Enabled&quot;:{&quot;type&quot;:&quot;bool&quot;,&quot;value&quot;:true},&quot;ReduceHum&quot;:{&quot;type&quot;:&quot;tree::any&quot;,&quot;value&quot;:{&quot;4&quot;:{&quot;type&quot;:&quot;tree::any&quot;,&quot;value&quot;:{&quot;Value&quot;:{&quot;type&quot;:&quot;float&quot;,&quot;value&quot;:7.143000602722168}}},&quot;9&quot;:{&quot;type&quot;:&quot;tree::any&quot;,&quot;value&quot;:{&quot;Value&quot;:{&quot;type&quot;:&quot;float&quot;,&quot;value&quot;:60}}}}}}},&quot;SoundEffectsSection&quot;:{&quot;type&quot;:&quot;tree::any&quot;,&quot;value&quot;:{&quot;Enabled&quot;:{&quot;type&quot;:&quot;bool&quot;,&quot;value&quot;:true},&quot;Reverb&quot;:{&quot;type&quot;:&quot;tree::any&quot;,&quot;value&quot;:{&quot;3&quot;:{&quot;type&quot;:&quot;tree::any&quot;,&quot;value&quot;:{&quot;Value&quot;:{&quot;type&quot;:&quot;float&quot;,&quot;value&quot;:2}}}}}}},&quot;VolumeSection&quot;:{&quot;type&quot;:&quot;tree::any&quot;,&quot;value&quot;:{&quot;Enabled&quot;:{&quot;type&quot;:&quot;bool&quot;,&quot;value&quot;:true}}}}},&quot;TempData&quot;:{&quot;type&quot;:&quot;tree::any&quot;,&quot;value&quot;:{}}}"/>
          <component componentGuid="33bc9b27-9929-4586-ad1f-613852b9db87" componentID="Audition.Fader" id="clipGain" name="volume" powered="true">
            <parameter index="0" name="volume" parameterValue="1"/>
            <parameter index="1" name="static gain" parameterValue="1"/>
          </component>
          <component componentGuid="9abea2b1-a7d1-4378-8fe8-30eb23b029a1" componentID="Audition.Mute" id="clipMute" name="Mute" powered="true">
            <parameter index="0" parameterValue="0"/>
            <parameter index="1" name="mute" parameterValue="0"/>
          </component>
          <component componentGuid="d82fe7f0-0c37-4c62-ba37-a380fc2d535f" componentID="Audition.StereoPanner" id="clipPan" name="StereoPanner" powered="true">
            <parameter index="0" name="Pan" parameterValue="0"/>
          </component>
          <fadeIn crossFadeLinkType="linkedAsymmetric" endPoint="11025" shape="19" startPoint="0" type="log"/>
          <fadeOut crossFadeLinkType="linkedAsymmetric" endPoint="89185" shape="19" startPoint="78160" type="log"/>
          <editParameter parameterIndex="0" slotIndex="4294967280"/>
          <editParameter parameterIndex="0" slotIndex="4294967281"/>
          <channelMap>
            <channel index="0" sourceIndex="0"/>
          </channelMap>
        </audioClip>
        <audioClip clipAutoCrossfade="true" crossFadeHeadClipID="-1" crossFadeTailClipID="-1" endPoint="137209075" fileID="2" hue="-1" id="24" lockedInTime="false" looped="false" name="Rachel" offline="false" select="false" sourceInPoint="150275350" sourceOutPoint="150346619" startPoint="137137806" zOrder="212">
          <properties properties="{&quot;BasicAdjustmentsProperty&quot;:{&quot;type&quot;:&quot;tree::any&quot;,&quot;value&quot;:{&quot;AdjustmentMode&quot;:{&quot;type&quot;:&quot;UTF8String&quot;,&quot;value&quot;:&quot;dialog&quot;},&quot;ClaritySection&quot;:{&quot;type&quot;:&quot;tree::any&quot;,&quot;value&quot;:{&quot;Dynamics&quot;:{&quot;type&quot;:&quot;tree::any&quot;,&quot;value&quot;:{&quot;2&quot;:{&quot;type&quot;:&quot;tree::any&quot;,&quot;value&quot;:{&quot;Value&quot;:{&quot;type&quot;:&quot;float&quot;,&quot;value&quot;:3}}}}},&quot;Enabled&quot;:{&quot;type&quot;:&quot;bool&quot;,&quot;value&quot;:true}}},&quot;ClipType&quot;:{&quot;type&quot;:&quot;std::int32_t&quot;,&quot;value&quot;:1},&quot;EnhanceSpeechSection&quot;:{&quot;type&quot;:&quot;tree::any&quot;,&quot;value&quot;:{&quot;Enabled&quot;:{&quot;type&quot;:&quot;bool&quot;,&quot;value&quot;:true}}},&quot;PresetGuid&quot;:{&quot;type&quot;:&quot;UTF8String&quot;,&quot;value&quot;:&quot;bb717b4a-c0b1-4def-9040-3fb8e83b8a91&quot;},&quot;RestorationSection&quot;:{&quot;type&quot;:&quot;tree::any&quot;,&quot;value&quot;:{&quot;Enabled&quot;:{&quot;type&quot;:&quot;bool&quot;,&quot;value&quot;:true},&quot;ReduceHum&quot;:{&quot;type&quot;:&quot;tree::any&quot;,&quot;value&quot;:{&quot;4&quot;:{&quot;type&quot;:&quot;tree::any&quot;,&quot;value&quot;:{&quot;Value&quot;:{&quot;type&quot;:&quot;float&quot;,&quot;value&quot;:7.143000602722168}}},&quot;9&quot;:{&quot;type&quot;:&quot;tree::any&quot;,&quot;value&quot;:{&quot;Value&quot;:{&quot;type&quot;:&quot;float&quot;,&quot;value&quot;:60}}}}}}},&quot;SoundEffectsSection&quot;:{&quot;type&quot;:&quot;tree::any&quot;,&quot;value&quot;:{&quot;Enabled&quot;:{&quot;type&quot;:&quot;bool&quot;,&quot;value&quot;:true},&quot;Reverb&quot;:{&quot;type&quot;:&quot;tree::any&quot;,&quot;value&quot;:{&quot;3&quot;:{&quot;type&quot;:&quot;tree::any&quot;,&quot;value&quot;:{&quot;Value&quot;:{&quot;type&quot;:&quot;float&quot;,&quot;value&quot;:2}}}}}}},&quot;VolumeSection&quot;:{&quot;type&quot;:&quot;tree::any&quot;,&quot;value&quot;:{&quot;Enabled&quot;:{&quot;type&quot;:&quot;bool&quot;,&quot;value&quot;:true}}}}},&quot;TempData&quot;:{&quot;type&quot;:&quot;tree::any&quot;,&quot;value&quot;:{}}}"/>
          <component componentGuid="e2fc9cf5-493f-490a-8e0b-be21ddb78945" componentID="Audition.Fader" id="clipGain" name="volume" powered="true">
            <parameter index="0" name="volume" parameterValue="1"/>
            <parameter index="1" name="static gain" parameterValue="1"/>
          </component>
          <component componentGuid="a76721a0-aa35-4c12-8882-8cb4453b4664" componentID="Audition.Mute" id="clipMute" name="Mute" powered="true">
            <parameter index="0" parameterValue="0"/>
            <parameter index="1" name="mute" parameterValue="0"/>
          </component>
          <component componentGuid="d8e4659b-9967-406f-8384-964f7b53256a" componentID="Audition.StereoPanner" id="clipPan" name="StereoPanner" powered="true">
            <parameter index="0" name="Pan" parameterValue="0"/>
          </component>
          <fadeIn crossFadeLinkType="linkedAsymmetric" endPoint="11025" shape="19" startPoint="0" type="log"/>
          <fadeOut crossFadeLinkType="linkedAsymmetric" endPoint="71269" shape="19" startPoint="60244" type="log"/>
          <editParameter parameterIndex="0" slotIndex="4294967280"/>
          <editParameter parameterIndex="0" slotIndex="4294967281"/>
          <channelMap>
            <channel index="0" sourceIndex="0"/>
          </channelMap>
        </audioClip>
      </audioTrack>
      <audioTrack automationLaneOpenState="false" id="10005" index="4" select="false" visible="true">
        <trackParameters trackHeight="229" trackHue="294" trackMinimized="false">
          <name>Skype</name>
        </trackParameters>
        <trackAudioParameters audioChannelType="stereo" automationMode="1" monitoring="false" recordArmed="false" solo="false" soloSafe="false">
          <trackOutput outputID="4" type="hardwareOutput"/>
          <trackInput inputID="1"/>
          <component componentGuid="b557d7f5-82c3-44d2-87a2-048ce239bea9" componentID="Audition.Fader" id="trackFader" name="volume" powered="true">
            <parameter index="0" name="volume" parameterValue="1"/>
            <parameter index="1" name="static gain" parameterValue="1"/>
          </component>
          <component componentGuid="8f7d00e9-d18e-440c-9ad6-838ad09eb816" componentID="Audition.Mute" id="trackMute" name="Mute" powered="true">
            <parameter index="0" parameterValue="0"/>
            <parameter index="1" name="mute" parameterValue="0"/>
          </component>
          <component componentGuid="4d305970-4368-4bec-9697-1ab149c0475b" componentID="Audition.StereoPanner" id="trackPan" name="StereoPanner" powered="true">
            <parameter index="0" name="Pan" parameterValue="0"/>
          </component>
          <component componentGuid="036a4526-d1a6-4f36-9308-037f330a6fda" componentID="Audition.EQ" id="trackEQ" name="EQ" powered="false">
            <parameter index="0" name="Low Shelf Frequency" parameterValue="0.0009078529546968638896942138671875"/>
            <parameter index="1" name="Low Shelf Gain" parameterValue="0.5"/>
            <parameter index="2" name="High Shelf Frequency" parameterValue="0.816159784793853759765625"/>
            <parameter index="3" name="High Shelf Gain" parameterValue="0.5"/>
            <parameter index="4" name="EQ Band 1 Center Frequency" parameterValue="0.0013617794029414653778076171875"/>
            <parameter index="5" name="EQ Band 1 Q" parameterValue="0.000199989997781813144683837890625"/>
            <parameter index="6" name="EQ Band 1 Gain" parameterValue="0.5"/>
            <parameter index="7" name="EQ Band 1 Enable" parameterValue="1"/>
            <parameter index="8" name="EQ Band 2 Center Frequency" parameterValue="0.008170676417648792266845703125"/>
            <parameter index="9" name="EQ Band 2 Q" parameterValue="0.000199989997781813144683837890625"/>
            <parameter index="10" name="EQ Band 2 Gain" parameterValue="0.5"/>
            <parameter index="11" name="EQ Band 2 Enable" parameterValue="1"/>
            <parameter index="12" name="EQ Band 3 Center Frequency" parameterValue="0.0354062654078006744384765625"/>
            <parameter index="13" name="EQ Band 3 Q" parameterValue="0.000199989997781813144683837890625"/>
            <parameter index="14" name="EQ Band 3 Gain" parameterValue="0.5"/>
            <parameter index="15" name="EQ Band 3 Enable" parameterValue="1"/>
            <parameter index="16" name="EQ Band 4 Center Frequency" parameterValue="0.144348621368408203125"/>
            <parameter index="17" name="EQ Band 4 Q" parameterValue="0.000199989997781813144683837890625"/>
            <parameter index="18" name="EQ Band 4 Gain" parameterValue="0.5"/>
            <parameter index="19" name="EQ Band 4 Enable" parameterValue="1"/>
            <parameter index="20" name="EQ Band 5 Center Frequency" parameterValue="0.580118000507354736328125"/>
            <parameter index="21" name="EQ Band 5 Q" parameterValue="0.000199989997781813144683837890625"/>
            <parameter index="22" name="EQ Band 5 Gain" parameterValue="0.5"/>
            <parameter index="23" name="EQ Band 5 Enable" parameterValue="1"/>
            <parameter index="24" name="Gain" parameterValue="0.666666686534881591796875"/>
            <parameter index="25" name="ConstantQ" parameterValue="1"/>
            <parameter index="26" name="Low Shelf Filter Order" parameterValue="0"/>
            <parameter index="27" name="High Shelf Filter Order" parameterValue="0"/>
            <parameter index="28" name="Ultra-Quiet Mode" parameterValue="0"/>
            <parameter index="29" name="Low Shelf Enable" parameterValue="1"/>
            <parameter index="30" name="High Shelf Enable" parameterValue="1"/>
            <parameter index="31" name="Original Sample Rate" parameterValue="0.22968749701976776123046875"/>
            <parameter index="32" name="EQ Band 1 Bandwidth" parameterValue="0.002499990165233612060546875"/>
            <parameter index="33" name="EQ Band 2 Bandwidth" parameterValue="0.0099999904632568359375"/>
            <parameter index="34" name="EQ Band 3 Bandwidth" parameterValue="0.0399999916553497314453125"/>
            <parameter index="35" name="EQ Band 4 Bandwidth" parameterValue="0.15999998152256011962890625"/>
            <parameter index="36" name="EQ Band 5 Bandwidth" parameterValue="0.63999998569488525390625"/>
            <parameter index="37" name="High-Pass Filter Enable" parameterValue="0"/>
            <parameter index="38" name="High-Pass Cutoff Frequency" parameterValue="0"/>
            <parameter index="39" name="High-Pass Slope" parameterValue="0.4000000059604644775390625"/>
            <parameter index="40" name="Low-Pass Filter Enable" parameterValue="0"/>
            <parameter index="41" name="Low-Pass Cutoff Frequency" parameterValue="0.906945049762725830078125"/>
            <parameter index="42" name="Low-Pass Slope" parameterValue="0.4000000059604644775390625"/>
            <parameter index="43" name="Bypass" parameterValue="0"/>
            <parameter index="44" name="LowGraphRange" parameterValue="1"/>
          </component>
        </trackAudioParameters>
        <editParameter parameterIndex="0" slotIndex="4294967280"/>
        <audioClip clipAutoCrossfade="true" crossFadeHeadClipID="-1" crossFadeTailClipID="1" endPoint="9809652" fileID="3" hue="-1" id="0" lockedInTime="false" looped="false" name="Skype" offline="false" select="false" sourceInPoint="8854618" sourceOutPoint="18223270" startPoint="441000" zOrder="0">
          <properties properties="{&quot;BasicAdjustmentsProperty&quot;:{&quot;type&quot;:&quot;tree::any&quot;,&quot;value&quot;:{&quot;AdjustmentMode&quot;:{&quot;type&quot;:&quot;UTF8String&quot;,&quot;value&quot;:&quot;dialog&quot;},&quot;ClaritySection&quot;:{&quot;type&quot;:&quot;tree::any&quot;,&quot;value&quot;:{&quot;Dynamics&quot;:{&quot;type&quot;:&quot;tree::any&quot;,&quot;value&quot;:{&quot;2&quot;:{&quot;type&quot;:&quot;tree::any&quot;,&quot;value&quot;:{&quot;Value&quot;:{&quot;type&quot;:&quot;float&quot;,&quot;value&quot;:3}}}}},&quot;Enabled&quot;:{&quot;type&quot;:&quot;bool&quot;,&quot;value&quot;:true}}},&quot;ClipType&quot;:{&quot;type&quot;:&quot;std::int32_t&quot;,&quot;value&quot;:1},&quot;EnhanceSpeechSection&quot;:{&quot;type&quot;:&quot;tree::any&quot;,&quot;value&quot;:{&quot;Enabled&quot;:{&quot;type&quot;:&quot;bool&quot;,&quot;value&quot;:true}}},&quot;PresetGuid&quot;:{&quot;type&quot;:&quot;UTF8String&quot;,&quot;value&quot;:&quot;bb717b4a-c0b1-4def-9040-3fb8e83b8a91&quot;},&quot;RestorationSection&quot;:{&quot;type&quot;:&quot;tree::any&quot;,&quot;value&quot;:{&quot;Enabled&quot;:{&quot;type&quot;:&quot;bool&quot;,&quot;value&quot;:true},&quot;ReduceHum&quot;:{&quot;type&quot;:&quot;tree::any&quot;,&quot;value&quot;:{&quot;4&quot;:{&quot;type&quot;:&quot;tree::any&quot;,&quot;value&quot;:{&quot;Value&quot;:{&quot;type&quot;:&quot;float&quot;,&quot;value&quot;:7.143000602722168}}},&quot;9&quot;:{&quot;type&quot;:&quot;tree::any&quot;,&quot;value&quot;:{&quot;Value&quot;:{&quot;type&quot;:&quot;float&quot;,&quot;value&quot;:60}}}}}}},&quot;SoundEffectsSection&quot;:{&quot;type&quot;:&quot;tree::any&quot;,&quot;value&quot;:{&quot;Enabled&quot;:{&quot;type&quot;:&quot;bool&quot;,&quot;value&quot;:true},&quot;Reverb&quot;:{&quot;type&quot;:&quot;tree::any&quot;,&quot;value&quot;:{&quot;3&quot;:{&quot;type&quot;:&quot;tree::any&quot;,&quot;value&quot;:{&quot;Value&quot;:{&quot;type&quot;:&quot;float&quot;,&quot;value&quot;:2}}}}}}},&quot;VolumeSection&quot;:{&quot;type&quot;:&quot;tree::any&quot;,&quot;value&quot;:{&quot;Enabled&quot;:{&quot;type&quot;:&quot;bool&quot;,&quot;value&quot;:true}}}}},&quot;TempData&quot;:{&quot;type&quot;:&quot;tree::any&quot;,&quot;value&quot;:{}}}"/>
          <component componentGuid="0120ed9d-d535-44a5-9d9a-63f2edab8046" componentID="Audition.Fader" id="clipGain" name="volume" powered="true">
            <parameter index="0" name="volume" parameterValue="1"/>
            <parameter index="1" name="static gain" parameterValue="1"/>
          </component>
          <component componentGuid="88b40f80-6b1c-4f97-87e5-60965a2cac09" componentID="Audition.Mute" id="clipMute" name="Mute" powered="true">
            <parameter index="0" parameterValue="0"/>
            <parameter index="1" name="mute" parameterValue="0"/>
          </component>
          <component componentGuid="1ab61232-ac51-4227-966f-6899e6d546ae" componentID="Audition.StereoPanner" id="clipPan" name="StereoPanner" powered="true">
            <parameter index="0" name="Pan" parameterValue="0"/>
          </component>
          <fadeIn crossFadeLinkType="linkedAsymmetric" endPoint="0" shape="19" startPoint="0" type="log"/>
          <fadeOut crossFadeLinkType="linkedAsymmetric" endPoint="9368652" shape="19" startPoint="9334776" type="log"/>
          <editParameter parameterIndex="0" slotIndex="4294967280"/>
          <editParameter parameterIndex="0" slotIndex="4294967281"/>
          <channelMap>
            <channel index="0" sourceIndex="0"/>
          </channelMap>
        </audioClip>
        <audioClip clipAutoCrossfade="true" crossFadeHeadClipID="0" crossFadeTailClipID="2" endPoint="10485766" fileID="3" hue="-1" id="1" lockedInTime="false" looped="false" name="Skype" offline="false" select="false" sourceInPoint="18223270" sourceOutPoint="18933260" startPoint="9775776" zOrder="1">
          <properties properties="{&quot;BasicAdjustmentsProperty&quot;:{&quot;type&quot;:&quot;tree::any&quot;,&quot;value&quot;:{&quot;AdjustmentMode&quot;:{&quot;type&quot;:&quot;UTF8String&quot;,&quot;value&quot;:&quot;dialog&quot;},&quot;ClaritySection&quot;:{&quot;type&quot;:&quot;tree::any&quot;,&quot;value&quot;:{&quot;Dynamics&quot;:{&quot;type&quot;:&quot;tree::any&quot;,&quot;value&quot;:{&quot;2&quot;:{&quot;type&quot;:&quot;tree::any&quot;,&quot;value&quot;:{&quot;Value&quot;:{&quot;type&quot;:&quot;float&quot;,&quot;value&quot;:3}}}}},&quot;Enabled&quot;:{&quot;type&quot;:&quot;bool&quot;,&quot;value&quot;:true}}},&quot;ClipType&quot;:{&quot;type&quot;:&quot;std::int32_t&quot;,&quot;value&quot;:1},&quot;EnhanceSpeechSection&quot;:{&quot;type&quot;:&quot;tree::any&quot;,&quot;value&quot;:{&quot;Enabled&quot;:{&quot;type&quot;:&quot;bool&quot;,&quot;value&quot;:true}}},&quot;PresetGuid&quot;:{&quot;type&quot;:&quot;UTF8String&quot;,&quot;value&quot;:&quot;bb717b4a-c0b1-4def-9040-3fb8e83b8a91&quot;},&quot;RestorationSection&quot;:{&quot;type&quot;:&quot;tree::any&quot;,&quot;value&quot;:{&quot;Enabled&quot;:{&quot;type&quot;:&quot;bool&quot;,&quot;value&quot;:true},&quot;ReduceHum&quot;:{&quot;type&quot;:&quot;tree::any&quot;,&quot;value&quot;:{&quot;4&quot;:{&quot;type&quot;:&quot;tree::any&quot;,&quot;value&quot;:{&quot;Value&quot;:{&quot;type&quot;:&quot;float&quot;,&quot;value&quot;:7.143000602722168}}},&quot;9&quot;:{&quot;type&quot;:&quot;tree::any&quot;,&quot;value&quot;:{&quot;Value&quot;:{&quot;type&quot;:&quot;float&quot;,&quot;value&quot;:60}}}}}}},&quot;SoundEffectsSection&quot;:{&quot;type&quot;:&quot;tree::any&quot;,&quot;value&quot;:{&quot;Enabled&quot;:{&quot;type&quot;:&quot;bool&quot;,&quot;value&quot;:true},&quot;Reverb&quot;:{&quot;type&quot;:&quot;tree::any&quot;,&quot;value&quot;:{&quot;3&quot;:{&quot;type&quot;:&quot;tree::any&quot;,&quot;value&quot;:{&quot;Value&quot;:{&quot;type&quot;:&quot;float&quot;,&quot;value&quot;:2}}}}}}},&quot;VolumeSection&quot;:{&quot;type&quot;:&quot;tree::any&quot;,&quot;value&quot;:{&quot;Enabled&quot;:{&quot;type&quot;:&quot;bool&quot;,&quot;value&quot;:true}}}}},&quot;TempData&quot;:{&quot;type&quot;:&quot;tree::any&quot;,&quot;value&quot;:{}}}"/>
          <component componentGuid="5b26b050-f0b4-4977-b640-8efbcb2f3122" componentID="Audition.Fader" id="clipGain" name="volume" powered="true">
            <parameter index="0" name="volume" parameterValue="1"/>
            <parameter index="1" name="static gain" parameterValue="1"/>
          </component>
          <component componentGuid="2f02eeee-8175-4e02-ab98-3ef4dca199e7" componentID="Audition.Mute" id="clipMute" name="Mute" powered="true">
            <parameter index="0" parameterValue="0"/>
            <parameter index="1" name="mute" parameterValue="0"/>
          </component>
          <component componentGuid="b0d946ac-d078-4c5b-9119-38b761ae5b69" componentID="Audition.StereoPanner" id="clipPan" name="StereoPanner" powered="true">
            <parameter index="0" name="Pan" parameterValue="0"/>
          </component>
          <fadeIn crossFadeLinkType="linkedAsymmetric" endPoint="33876" shape="18" startPoint="0" type="log"/>
          <fadeOut crossFadeLinkType="linkedAsymmetric" endPoint="709990" shape="19" startPoint="685642" type="log"/>
          <editParameter parameterIndex="0" slotIndex="4294967280"/>
          <editParameter parameterIndex="0" slotIndex="4294967281"/>
          <channelMap>
            <channel index="0" sourceIndex="0"/>
          </channelMap>
        </audioClip>
        <audioClip clipAutoCrossfade="true" crossFadeHeadClipID="1" crossFadeTailClipID="-1" endPoint="11961854" fileID="3" hue="-1" id="2" lockedInTime="false" looped="false" name="Skype" offline="false" select="false" sourceInPoint="18933260" sourceOutPoint="20433696" startPoint="10461418" zOrder="2">
          <properties properties="{&quot;BasicAdjustmentsProperty&quot;:{&quot;type&quot;:&quot;tree::any&quot;,&quot;value&quot;:{&quot;AdjustmentMode&quot;:{&quot;type&quot;:&quot;UTF8String&quot;,&quot;value&quot;:&quot;dialog&quot;},&quot;ClaritySection&quot;:{&quot;type&quot;:&quot;tree::any&quot;,&quot;value&quot;:{&quot;Dynamics&quot;:{&quot;type&quot;:&quot;tree::any&quot;,&quot;value&quot;:{&quot;2&quot;:{&quot;type&quot;:&quot;tree::any&quot;,&quot;value&quot;:{&quot;Value&quot;:{&quot;type&quot;:&quot;float&quot;,&quot;value&quot;:3}}}}},&quot;Enabled&quot;:{&quot;type&quot;:&quot;bool&quot;,&quot;value&quot;:true}}},&quot;ClipType&quot;:{&quot;type&quot;:&quot;std::int32_t&quot;,&quot;value&quot;:1},&quot;EnhanceSpeechSection&quot;:{&quot;type&quot;:&quot;tree::any&quot;,&quot;value&quot;:{&quot;Enabled&quot;:{&quot;type&quot;:&quot;bool&quot;,&quot;value&quot;:true}}},&quot;PresetGuid&quot;:{&quot;type&quot;:&quot;UTF8String&quot;,&quot;value&quot;:&quot;bb717b4a-c0b1-4def-9040-3fb8e83b8a91&quot;},&quot;RestorationSection&quot;:{&quot;type&quot;:&quot;tree::any&quot;,&quot;value&quot;:{&quot;Enabled&quot;:{&quot;type&quot;:&quot;bool&quot;,&quot;value&quot;:true},&quot;ReduceHum&quot;:{&quot;type&quot;:&quot;tree::any&quot;,&quot;value&quot;:{&quot;4&quot;:{&quot;type&quot;:&quot;tree::any&quot;,&quot;value&quot;:{&quot;Value&quot;:{&quot;type&quot;:&quot;float&quot;,&quot;value&quot;:7.143000602722168}}},&quot;9&quot;:{&quot;type&quot;:&quot;tree::any&quot;,&quot;value&quot;:{&quot;Value&quot;:{&quot;type&quot;:&quot;float&quot;,&quot;value&quot;:60}}}}}}},&quot;SoundEffectsSection&quot;:{&quot;type&quot;:&quot;tree::any&quot;,&quot;value&quot;:{&quot;Enabled&quot;:{&quot;type&quot;:&quot;bool&quot;,&quot;value&quot;:true},&quot;Reverb&quot;:{&quot;type&quot;:&quot;tree::any&quot;,&quot;value&quot;:{&quot;3&quot;:{&quot;type&quot;:&quot;tree::any&quot;,&quot;value&quot;:{&quot;Value&quot;:{&quot;type&quot;:&quot;float&quot;,&quot;value&quot;:2}}}}}}},&quot;VolumeSection&quot;:{&quot;type&quot;:&quot;tree::any&quot;,&quot;value&quot;:{&quot;Enabled&quot;:{&quot;type&quot;:&quot;bool&quot;,&quot;value&quot;:true}}}}},&quot;TempData&quot;:{&quot;type&quot;:&quot;tree::any&quot;,&quot;value&quot;:{}}}"/>
          <component componentGuid="cdb1a959-15d3-48d2-a030-ed8ebff0b92d" componentID="Audition.Fader" id="clipGain" name="volume" powered="true">
            <parameter index="0" name="volume" parameterValue="1"/>
            <parameter index="1" name="static gain" parameterValue="1"/>
          </component>
          <component componentGuid="fa990717-9e28-4830-8915-859503449b8b" componentID="Audition.Mute" id="clipMute" name="Mute" powered="true">
            <parameter index="0" parameterValue="0"/>
            <parameter index="1" name="mute" parameterValue="0"/>
          </component>
          <component componentGuid="c419ea1b-4557-4fc2-a54a-d943b6a4e6d8" componentID="Audition.StereoPanner" id="clipPan" name="StereoPanner" powered="true">
            <parameter index="0" name="Pan" parameterValue="0"/>
          </component>
          <fadeIn crossFadeLinkType="linkedAsymmetric" endPoint="24348" shape="18" startPoint="0" type="log"/>
          <fadeOut crossFadeLinkType="linkedAsymmetric" endPoint="1500436" shape="19" startPoint="1500436" type="log"/>
          <editParameter parameterIndex="0" slotIndex="4294967280"/>
          <editParameter parameterIndex="0" slotIndex="4294967281"/>
          <channelMap>
            <channel index="0" sourceIndex="0"/>
          </channelMap>
        </audioClip>
        <audioClip clipAutoCrossfade="true" crossFadeHeadClipID="-1" crossFadeTailClipID="-1" endPoint="13025428" fileID="3" hue="-1" id="3" lockedInTime="false" looped="false" name="Skype" offline="false" select="false" sourceInPoint="20482394" sourceOutPoint="21545968" startPoint="11961854" zOrder="3">
          <properties properties="{&quot;BasicAdjustmentsProperty&quot;:{&quot;type&quot;:&quot;tree::any&quot;,&quot;value&quot;:{&quot;AdjustmentMode&quot;:{&quot;type&quot;:&quot;UTF8String&quot;,&quot;value&quot;:&quot;dialog&quot;},&quot;ClaritySection&quot;:{&quot;type&quot;:&quot;tree::any&quot;,&quot;value&quot;:{&quot;Dynamics&quot;:{&quot;type&quot;:&quot;tree::any&quot;,&quot;value&quot;:{&quot;2&quot;:{&quot;type&quot;:&quot;tree::any&quot;,&quot;value&quot;:{&quot;Value&quot;:{&quot;type&quot;:&quot;float&quot;,&quot;value&quot;:3}}}}},&quot;Enabled&quot;:{&quot;type&quot;:&quot;bool&quot;,&quot;value&quot;:true}}},&quot;ClipType&quot;:{&quot;type&quot;:&quot;std::int32_t&quot;,&quot;value&quot;:1},&quot;EnhanceSpeechSection&quot;:{&quot;type&quot;:&quot;tree::any&quot;,&quot;value&quot;:{&quot;Enabled&quot;:{&quot;type&quot;:&quot;bool&quot;,&quot;value&quot;:true}}},&quot;PresetGuid&quot;:{&quot;type&quot;:&quot;UTF8String&quot;,&quot;value&quot;:&quot;bb717b4a-c0b1-4def-9040-3fb8e83b8a91&quot;},&quot;RestorationSection&quot;:{&quot;type&quot;:&quot;tree::any&quot;,&quot;value&quot;:{&quot;Enabled&quot;:{&quot;type&quot;:&quot;bool&quot;,&quot;value&quot;:true},&quot;ReduceHum&quot;:{&quot;type&quot;:&quot;tree::any&quot;,&quot;value&quot;:{&quot;4&quot;:{&quot;type&quot;:&quot;tree::any&quot;,&quot;value&quot;:{&quot;Value&quot;:{&quot;type&quot;:&quot;float&quot;,&quot;value&quot;:7.143000602722168}}},&quot;9&quot;:{&quot;type&quot;:&quot;tree::any&quot;,&quot;value&quot;:{&quot;Value&quot;:{&quot;type&quot;:&quot;float&quot;,&quot;value&quot;:60}}}}}}},&quot;SoundEffectsSection&quot;:{&quot;type&quot;:&quot;tree::any&quot;,&quot;value&quot;:{&quot;Enabled&quot;:{&quot;type&quot;:&quot;bool&quot;,&quot;value&quot;:true},&quot;Reverb&quot;:{&quot;type&quot;:&quot;tree::any&quot;,&quot;value&quot;:{&quot;3&quot;:{&quot;type&quot;:&quot;tree::any&quot;,&quot;value&quot;:{&quot;Value&quot;:{&quot;type&quot;:&quot;float&quot;,&quot;value&quot;:2}}}}}}},&quot;VolumeSection&quot;:{&quot;type&quot;:&quot;tree::any&quot;,&quot;value&quot;:{&quot;Enabled&quot;:{&quot;type&quot;:&quot;bool&quot;,&quot;value&quot;:true}}}}},&quot;TempData&quot;:{&quot;type&quot;:&quot;tree::any&quot;,&quot;value&quot;:{}}}"/>
          <component componentGuid="f534cf33-6176-48c5-afb4-0e3c02d52c82" componentID="Audition.Fader" id="clipGain" name="volume" powered="true">
            <parameter index="0" name="volume" parameterValue="1"/>
            <parameter index="1" name="static gain" parameterValue="1"/>
          </component>
          <component componentGuid="18c5bfdd-c139-4c36-932c-64850bae1914" componentID="Audition.Mute" id="clipMute" name="Mute" powered="true">
            <parameter index="0" parameterValue="0"/>
            <parameter index="1" name="mute" parameterValue="0"/>
          </component>
          <component componentGuid="abaf4a02-68be-4f11-b30d-7c3faa83e8df" componentID="Audition.StereoPanner" id="clipPan" name="StereoPanner" powered="true">
            <parameter index="0" name="Pan" parameterValue="0"/>
          </component>
          <fadeIn crossFadeLinkType="linkedAsymmetric" endPoint="0" shape="19" startPoint="0" type="log"/>
          <fadeOut crossFadeLinkType="linkedAsymmetric" endPoint="1063574" shape="19" startPoint="1063574" type="log"/>
          <editParameter parameterIndex="0" slotIndex="4294967280"/>
          <editParameter parameterIndex="0" slotIndex="4294967281"/>
          <channelMap>
            <channel index="0" sourceIndex="0"/>
          </channelMap>
        </audioClip>
        <audioClip clipAutoCrossfade="true" crossFadeHeadClipID="-1" crossFadeTailClipID="5" endPoint="44892680" fileID="3" hue="-1" id="4" lockedInTime="false" looped="false" name="Skype" offline="false" select="false" sourceInPoint="24066589" sourceOutPoint="55933841" startPoint="13025428" zOrder="4">
          <properties properties="{&quot;BasicAdjustmentsProperty&quot;:{&quot;type&quot;:&quot;tree::any&quot;,&quot;value&quot;:{&quot;AdjustmentMode&quot;:{&quot;type&quot;:&quot;UTF8String&quot;,&quot;value&quot;:&quot;dialog&quot;},&quot;ClaritySection&quot;:{&quot;type&quot;:&quot;tree::any&quot;,&quot;value&quot;:{&quot;Dynamics&quot;:{&quot;type&quot;:&quot;tree::any&quot;,&quot;value&quot;:{&quot;2&quot;:{&quot;type&quot;:&quot;tree::any&quot;,&quot;value&quot;:{&quot;Value&quot;:{&quot;type&quot;:&quot;float&quot;,&quot;value&quot;:3}}}}},&quot;Enabled&quot;:{&quot;type&quot;:&quot;bool&quot;,&quot;value&quot;:true}}},&quot;ClipType&quot;:{&quot;type&quot;:&quot;std::int32_t&quot;,&quot;value&quot;:1},&quot;EnhanceSpeechSection&quot;:{&quot;type&quot;:&quot;tree::any&quot;,&quot;value&quot;:{&quot;Enabled&quot;:{&quot;type&quot;:&quot;bool&quot;,&quot;value&quot;:true}}},&quot;PresetGuid&quot;:{&quot;type&quot;:&quot;UTF8String&quot;,&quot;value&quot;:&quot;bb717b4a-c0b1-4def-9040-3fb8e83b8a91&quot;},&quot;RestorationSection&quot;:{&quot;type&quot;:&quot;tree::any&quot;,&quot;value&quot;:{&quot;Enabled&quot;:{&quot;type&quot;:&quot;bool&quot;,&quot;value&quot;:true},&quot;ReduceHum&quot;:{&quot;type&quot;:&quot;tree::any&quot;,&quot;value&quot;:{&quot;4&quot;:{&quot;type&quot;:&quot;tree::any&quot;,&quot;value&quot;:{&quot;Value&quot;:{&quot;type&quot;:&quot;float&quot;,&quot;value&quot;:7.143000602722168}}},&quot;9&quot;:{&quot;type&quot;:&quot;tree::any&quot;,&quot;value&quot;:{&quot;Value&quot;:{&quot;type&quot;:&quot;float&quot;,&quot;value&quot;:60}}}}}}},&quot;SoundEffectsSection&quot;:{&quot;type&quot;:&quot;tree::any&quot;,&quot;value&quot;:{&quot;Enabled&quot;:{&quot;type&quot;:&quot;bool&quot;,&quot;value&quot;:true},&quot;Reverb&quot;:{&quot;type&quot;:&quot;tree::any&quot;,&quot;value&quot;:{&quot;3&quot;:{&quot;type&quot;:&quot;tree::any&quot;,&quot;value&quot;:{&quot;Value&quot;:{&quot;type&quot;:&quot;float&quot;,&quot;value&quot;:2}}}}}}},&quot;VolumeSection&quot;:{&quot;type&quot;:&quot;tree::any&quot;,&quot;value&quot;:{&quot;Enabled&quot;:{&quot;type&quot;:&quot;bool&quot;,&quot;value&quot;:true}}}}},&quot;TempData&quot;:{&quot;type&quot;:&quot;tree::any&quot;,&quot;value&quot;:{}}}"/>
          <component componentGuid="d92dfeeb-586f-4f89-9da6-657429cdda64" componentID="Audition.Fader" id="clipGain" name="volume" powered="true">
            <parameter index="0" name="volume" parameterValue="1"/>
            <parameter index="1" name="static gain" parameterValue="1"/>
          </component>
          <component componentGuid="30fbbcec-11d1-4cde-8ffa-44b1e5ed7a55" componentID="Audition.Mute" id="clipMute" name="Mute" powered="true">
            <parameter index="0" parameterValue="0"/>
            <parameter index="1" name="mute" parameterValue="0"/>
          </component>
          <component componentGuid="cfde5721-aa45-43b7-af18-35a4bcb83e53" componentID="Audition.StereoPanner" id="clipPan" name="StereoPanner" powered="true">
            <parameter index="0" name="Pan" parameterValue="0"/>
          </component>
          <fadeIn crossFadeLinkType="linkedAsymmetric" endPoint="0" shape="19" startPoint="0" type="log"/>
          <fadeOut crossFadeLinkType="linkedAsymmetric" endPoint="31867252" shape="19" startPoint="31799596" type="log"/>
          <editParameter parameterIndex="0" slotIndex="4294967280"/>
          <editParameter parameterIndex="0" slotIndex="4294967281"/>
          <channelMap>
            <channel index="0" sourceIndex="0"/>
          </channelMap>
        </audioClip>
        <audioClip clipAutoCrossfade="true" crossFadeHeadClipID="4" crossFadeTailClipID="6" endPoint="52485656" fileID="3" hue="-1" id="5" lockedInTime="false" looped="false" name="Skype" offline="false" select="false" sourceInPoint="55933841" sourceOutPoint="63594473" startPoint="44825024" zOrder="5">
          <properties properties="{&quot;BasicAdjustmentsProperty&quot;:{&quot;type&quot;:&quot;tree::any&quot;,&quot;value&quot;:{&quot;AdjustmentMode&quot;:{&quot;type&quot;:&quot;UTF8String&quot;,&quot;value&quot;:&quot;dialog&quot;},&quot;ClaritySection&quot;:{&quot;type&quot;:&quot;tree::any&quot;,&quot;value&quot;:{&quot;Dynamics&quot;:{&quot;type&quot;:&quot;tree::any&quot;,&quot;value&quot;:{&quot;2&quot;:{&quot;type&quot;:&quot;tree::any&quot;,&quot;value&quot;:{&quot;Value&quot;:{&quot;type&quot;:&quot;float&quot;,&quot;value&quot;:3}}}}},&quot;Enabled&quot;:{&quot;type&quot;:&quot;bool&quot;,&quot;value&quot;:true}}},&quot;ClipType&quot;:{&quot;type&quot;:&quot;std::int32_t&quot;,&quot;value&quot;:1},&quot;EnhanceSpeechSection&quot;:{&quot;type&quot;:&quot;tree::any&quot;,&quot;value&quot;:{&quot;Enabled&quot;:{&quot;type&quot;:&quot;bool&quot;,&quot;value&quot;:true}}},&quot;PresetGuid&quot;:{&quot;type&quot;:&quot;UTF8String&quot;,&quot;value&quot;:&quot;bb717b4a-c0b1-4def-9040-3fb8e83b8a91&quot;},&quot;RestorationSection&quot;:{&quot;type&quot;:&quot;tree::any&quot;,&quot;value&quot;:{&quot;Enabled&quot;:{&quot;type&quot;:&quot;bool&quot;,&quot;value&quot;:true},&quot;ReduceHum&quot;:{&quot;type&quot;:&quot;tree::any&quot;,&quot;value&quot;:{&quot;4&quot;:{&quot;type&quot;:&quot;tree::any&quot;,&quot;value&quot;:{&quot;Value&quot;:{&quot;type&quot;:&quot;float&quot;,&quot;value&quot;:7.143000602722168}}},&quot;9&quot;:{&quot;type&quot;:&quot;tree::any&quot;,&quot;value&quot;:{&quot;Value&quot;:{&quot;type&quot;:&quot;float&quot;,&quot;value&quot;:60}}}}}}},&quot;SoundEffectsSection&quot;:{&quot;type&quot;:&quot;tree::any&quot;,&quot;value&quot;:{&quot;Enabled&quot;:{&quot;type&quot;:&quot;bool&quot;,&quot;value&quot;:true},&quot;Reverb&quot;:{&quot;type&quot;:&quot;tree::any&quot;,&quot;value&quot;:{&quot;3&quot;:{&quot;type&quot;:&quot;tree::any&quot;,&quot;value&quot;:{&quot;Value&quot;:{&quot;type&quot;:&quot;float&quot;,&quot;value&quot;:2}}}}}}},&quot;VolumeSection&quot;:{&quot;type&quot;:&quot;tree::any&quot;,&quot;value&quot;:{&quot;Enabled&quot;:{&quot;type&quot;:&quot;bool&quot;,&quot;value&quot;:true}}}}},&quot;TempData&quot;:{&quot;type&quot;:&quot;tree::any&quot;,&quot;value&quot;:{}}}"/>
          <component componentGuid="cdfb44bf-52d7-4826-8f01-ce3e6e319433" componentID="Audition.Fader" id="clipGain" name="volume" powered="true">
            <parameter index="0" name="volume" parameterValue="1"/>
            <parameter index="1" name="static gain" parameterValue="1"/>
          </component>
          <component componentGuid="6dbecf9c-fa68-4ecd-8d32-7f6c8779dfc1" componentID="Audition.Mute" id="clipMute" name="Mute" powered="true">
            <parameter index="0" parameterValue="0"/>
            <parameter index="1" name="mute" parameterValue="0"/>
          </component>
          <component componentGuid="941a4b47-ecbb-4513-bc08-a35989269c06" componentID="Audition.StereoPanner" id="clipPan" name="StereoPanner" powered="true">
            <parameter index="0" name="Pan" parameterValue="0"/>
          </component>
          <fadeIn crossFadeLinkType="linkedAsymmetric" endPoint="67656" shape="18" startPoint="0" type="log"/>
          <fadeOut crossFadeLinkType="linkedAsymmetric" endPoint="7660632" shape="19" startPoint="7653976" type="log"/>
          <editParameter parameterIndex="0" slotIndex="4294967280"/>
          <editParameter parameterIndex="0" slotIndex="4294967281"/>
          <channelMap>
            <channel index="0" sourceIndex="0"/>
          </channelMap>
        </audioClip>
        <audioClip clipAutoCrossfade="true" crossFadeHeadClipID="5" crossFadeTailClipID="7" endPoint="52536598" fileID="3" hue="-1" id="6" lockedInTime="false" looped="false" name="Skype" offline="false" select="false" sourceInPoint="63615964" sourceOutPoint="63673562" startPoint="52479000" zOrder="6">
          <properties properties="{&quot;BasicAdjustmentsProperty&quot;:{&quot;type&quot;:&quot;tree::any&quot;,&quot;value&quot;:{&quot;AdjustmentMode&quot;:{&quot;type&quot;:&quot;UTF8String&quot;,&quot;value&quot;:&quot;dialog&quot;},&quot;ClaritySection&quot;:{&quot;type&quot;:&quot;tree::any&quot;,&quot;value&quot;:{&quot;Dynamics&quot;:{&quot;type&quot;:&quot;tree::any&quot;,&quot;value&quot;:{&quot;2&quot;:{&quot;type&quot;:&quot;tree::any&quot;,&quot;value&quot;:{&quot;Value&quot;:{&quot;type&quot;:&quot;float&quot;,&quot;value&quot;:3}}}}},&quot;Enabled&quot;:{&quot;type&quot;:&quot;bool&quot;,&quot;value&quot;:true}}},&quot;ClipType&quot;:{&quot;type&quot;:&quot;std::int32_t&quot;,&quot;value&quot;:1},&quot;EnhanceSpeechSection&quot;:{&quot;type&quot;:&quot;tree::any&quot;,&quot;value&quot;:{&quot;Enabled&quot;:{&quot;type&quot;:&quot;bool&quot;,&quot;value&quot;:true}}},&quot;PresetGuid&quot;:{&quot;type&quot;:&quot;UTF8String&quot;,&quot;value&quot;:&quot;bb717b4a-c0b1-4def-9040-3fb8e83b8a91&quot;},&quot;RestorationSection&quot;:{&quot;type&quot;:&quot;tree::any&quot;,&quot;value&quot;:{&quot;Enabled&quot;:{&quot;type&quot;:&quot;bool&quot;,&quot;value&quot;:true},&quot;ReduceHum&quot;:{&quot;type&quot;:&quot;tree::any&quot;,&quot;value&quot;:{&quot;4&quot;:{&quot;type&quot;:&quot;tree::any&quot;,&quot;value&quot;:{&quot;Value&quot;:{&quot;type&quot;:&quot;float&quot;,&quot;value&quot;:7.143000602722168}}},&quot;9&quot;:{&quot;type&quot;:&quot;tree::any&quot;,&quot;value&quot;:{&quot;Value&quot;:{&quot;type&quot;:&quot;float&quot;,&quot;value&quot;:60}}}}}}},&quot;SoundEffectsSection&quot;:{&quot;type&quot;:&quot;tree::any&quot;,&quot;value&quot;:{&quot;Enabled&quot;:{&quot;type&quot;:&quot;bool&quot;,&quot;value&quot;:true},&quot;Reverb&quot;:{&quot;type&quot;:&quot;tree::any&quot;,&quot;value&quot;:{&quot;3&quot;:{&quot;type&quot;:&quot;tree::any&quot;,&quot;value&quot;:{&quot;Value&quot;:{&quot;type&quot;:&quot;float&quot;,&quot;value&quot;:2}}}}}}},&quot;VolumeSection&quot;:{&quot;type&quot;:&quot;tree::any&quot;,&quot;value&quot;:{&quot;Enabled&quot;:{&quot;type&quot;:&quot;bool&quot;,&quot;value&quot;:true}}}}},&quot;TempData&quot;:{&quot;type&quot;:&quot;tree::any&quot;,&quot;value&quot;:{}}}"/>
          <component componentGuid="8933a9ae-0fb5-44ff-bf1a-06f623517cf6" componentID="Audition.Fader" id="clipGain" name="volume" powered="true">
            <parameter index="0" name="volume" parameterValue="1"/>
            <parameter index="1" name="static gain" parameterValue="1"/>
          </component>
          <component componentGuid="abe4f700-19db-4117-b0af-cb48af63fd33" componentID="Audition.Mute" id="clipMute" name="Mute" powered="true">
            <parameter index="0" parameterValue="0"/>
            <parameter index="1" name="mute" parameterValue="0"/>
          </component>
          <component componentGuid="577f9c48-7f82-4cff-b188-60487f423572" componentID="Audition.StereoPanner" id="clipPan" name="StereoPanner" powered="true">
            <parameter index="0" name="Pan" parameterValue="0"/>
          </component>
          <fadeIn crossFadeLinkType="linkedAsymmetric" endPoint="6656" shape="18" startPoint="0" type="log"/>
          <fadeOut crossFadeLinkType="linkedAsymmetric" endPoint="57598" shape="19" startPoint="50435" type="log"/>
          <editParameter parameterIndex="0" slotIndex="4294967280"/>
          <editParameter parameterIndex="0" slotIndex="4294967281"/>
          <channelMap>
            <channel index="0" sourceIndex="0"/>
          </channelMap>
        </audioClip>
        <audioClip clipAutoCrossfade="true" crossFadeHeadClipID="6" crossFadeTailClipID="-1" endPoint="66262782" fileID="3" hue="-1" id="7" lockedInTime="false" looped="false" name="Skype" offline="false" select="false" sourceInPoint="63673562" sourceOutPoint="77406909" startPoint="52529435" zOrder="7">
          <properties properties="{&quot;BasicAdjustmentsProperty&quot;:{&quot;type&quot;:&quot;tree::any&quot;,&quot;value&quot;:{&quot;AdjustmentMode&quot;:{&quot;type&quot;:&quot;UTF8String&quot;,&quot;value&quot;:&quot;dialog&quot;},&quot;ClaritySection&quot;:{&quot;type&quot;:&quot;tree::any&quot;,&quot;value&quot;:{&quot;Dynamics&quot;:{&quot;type&quot;:&quot;tree::any&quot;,&quot;value&quot;:{&quot;2&quot;:{&quot;type&quot;:&quot;tree::any&quot;,&quot;value&quot;:{&quot;Value&quot;:{&quot;type&quot;:&quot;float&quot;,&quot;value&quot;:3}}}}},&quot;Enabled&quot;:{&quot;type&quot;:&quot;bool&quot;,&quot;value&quot;:true}}},&quot;ClipType&quot;:{&quot;type&quot;:&quot;std::int32_t&quot;,&quot;value&quot;:1},&quot;EnhanceSpeechSection&quot;:{&quot;type&quot;:&quot;tree::any&quot;,&quot;value&quot;:{&quot;Enabled&quot;:{&quot;type&quot;:&quot;bool&quot;,&quot;value&quot;:true}}},&quot;PresetGuid&quot;:{&quot;type&quot;:&quot;UTF8String&quot;,&quot;value&quot;:&quot;bb717b4a-c0b1-4def-9040-3fb8e83b8a91&quot;},&quot;RestorationSection&quot;:{&quot;type&quot;:&quot;tree::any&quot;,&quot;value&quot;:{&quot;Enabled&quot;:{&quot;type&quot;:&quot;bool&quot;,&quot;value&quot;:true},&quot;ReduceHum&quot;:{&quot;type&quot;:&quot;tree::any&quot;,&quot;value&quot;:{&quot;4&quot;:{&quot;type&quot;:&quot;tree::any&quot;,&quot;value&quot;:{&quot;Value&quot;:{&quot;type&quot;:&quot;float&quot;,&quot;value&quot;:7.143000602722168}}},&quot;9&quot;:{&quot;type&quot;:&quot;tree::any&quot;,&quot;value&quot;:{&quot;Value&quot;:{&quot;type&quot;:&quot;float&quot;,&quot;value&quot;:60}}}}}}},&quot;SoundEffectsSection&quot;:{&quot;type&quot;:&quot;tree::any&quot;,&quot;value&quot;:{&quot;Enabled&quot;:{&quot;type&quot;:&quot;bool&quot;,&quot;value&quot;:true},&quot;Reverb&quot;:{&quot;type&quot;:&quot;tree::any&quot;,&quot;value&quot;:{&quot;3&quot;:{&quot;type&quot;:&quot;tree::any&quot;,&quot;value&quot;:{&quot;Value&quot;:{&quot;type&quot;:&quot;float&quot;,&quot;value&quot;:2}}}}}}},&quot;VolumeSection&quot;:{&quot;type&quot;:&quot;tree::any&quot;,&quot;value&quot;:{&quot;Enabled&quot;:{&quot;type&quot;:&quot;bool&quot;,&quot;value&quot;:true}}}}},&quot;TempData&quot;:{&quot;type&quot;:&quot;tree::any&quot;,&quot;value&quot;:{}}}"/>
          <component componentGuid="a76045d9-554c-4dba-8f9f-bf25c9e34f62" componentID="Audition.Fader" id="clipGain" name="volume" powered="true">
            <parameter index="0" name="volume" parameterValue="1"/>
            <parameter index="1" name="static gain" parameterValue="1"/>
          </component>
          <component componentGuid="83a33046-764e-4ed5-8537-d8cf601e33c1" componentID="Audition.Mute" id="clipMute" name="Mute" powered="true">
            <parameter index="0" parameterValue="0"/>
            <parameter index="1" name="mute" parameterValue="0"/>
          </component>
          <component componentGuid="923bcad6-8c2c-47bd-a799-212acc152f30" componentID="Audition.StereoPanner" id="clipPan" name="StereoPanner" powered="true">
            <parameter index="0" name="Pan" parameterValue="0"/>
          </component>
          <fadeIn crossFadeLinkType="linkedAsymmetric" endPoint="7163" shape="18" startPoint="0" type="log"/>
          <fadeOut crossFadeLinkType="linkedAsymmetric" endPoint="13733347" shape="19" startPoint="13733347" type="log"/>
          <editParameter parameterIndex="0" slotIndex="4294967280"/>
          <editParameter parameterIndex="0" slotIndex="4294967281"/>
          <channelMap>
            <channel index="0" sourceIndex="0"/>
          </channelMap>
        </audioClip>
        <audioClip clipAutoCrossfade="true" crossFadeHeadClipID="-1" crossFadeTailClipID="-1" endPoint="67233329" fileID="3" hue="-1" id="8" lockedInTime="false" looped="false" name="Skype" offline="false" select="false" sourceInPoint="77441932" sourceOutPoint="78412479" startPoint="66262782" zOrder="8">
          <properties properties="{&quot;BasicAdjustmentsProperty&quot;:{&quot;type&quot;:&quot;tree::any&quot;,&quot;value&quot;:{&quot;AdjustmentMode&quot;:{&quot;type&quot;:&quot;UTF8String&quot;,&quot;value&quot;:&quot;dialog&quot;},&quot;ClaritySection&quot;:{&quot;type&quot;:&quot;tree::any&quot;,&quot;value&quot;:{&quot;Dynamics&quot;:{&quot;type&quot;:&quot;tree::any&quot;,&quot;value&quot;:{&quot;2&quot;:{&quot;type&quot;:&quot;tree::any&quot;,&quot;value&quot;:{&quot;Value&quot;:{&quot;type&quot;:&quot;float&quot;,&quot;value&quot;:3}}}}},&quot;Enabled&quot;:{&quot;type&quot;:&quot;bool&quot;,&quot;value&quot;:true}}},&quot;ClipType&quot;:{&quot;type&quot;:&quot;std::int32_t&quot;,&quot;value&quot;:1},&quot;EnhanceSpeechSection&quot;:{&quot;type&quot;:&quot;tree::any&quot;,&quot;value&quot;:{&quot;Enabled&quot;:{&quot;type&quot;:&quot;bool&quot;,&quot;value&quot;:true}}},&quot;PresetGuid&quot;:{&quot;type&quot;:&quot;UTF8String&quot;,&quot;value&quot;:&quot;bb717b4a-c0b1-4def-9040-3fb8e83b8a91&quot;},&quot;RestorationSection&quot;:{&quot;type&quot;:&quot;tree::any&quot;,&quot;value&quot;:{&quot;Enabled&quot;:{&quot;type&quot;:&quot;bool&quot;,&quot;value&quot;:true},&quot;ReduceHum&quot;:{&quot;type&quot;:&quot;tree::any&quot;,&quot;value&quot;:{&quot;4&quot;:{&quot;type&quot;:&quot;tree::any&quot;,&quot;value&quot;:{&quot;Value&quot;:{&quot;type&quot;:&quot;float&quot;,&quot;value&quot;:7.143000602722168}}},&quot;9&quot;:{&quot;type&quot;:&quot;tree::any&quot;,&quot;value&quot;:{&quot;Value&quot;:{&quot;type&quot;:&quot;float&quot;,&quot;value&quot;:60}}}}}}},&quot;SoundEffectsSection&quot;:{&quot;type&quot;:&quot;tree::any&quot;,&quot;value&quot;:{&quot;Enabled&quot;:{&quot;type&quot;:&quot;bool&quot;,&quot;value&quot;:true},&quot;Reverb&quot;:{&quot;type&quot;:&quot;tree::any&quot;,&quot;value&quot;:{&quot;3&quot;:{&quot;type&quot;:&quot;tree::any&quot;,&quot;value&quot;:{&quot;Value&quot;:{&quot;type&quot;:&quot;float&quot;,&quot;value&quot;:2}}}}}}},&quot;VolumeSection&quot;:{&quot;type&quot;:&quot;tree::any&quot;,&quot;value&quot;:{&quot;Enabled&quot;:{&quot;type&quot;:&quot;bool&quot;,&quot;value&quot;:true}}}}},&quot;TempData&quot;:{&quot;type&quot;:&quot;tree::any&quot;,&quot;value&quot;:{}}}"/>
          <component componentGuid="9313ee86-999c-40dc-9819-f936fda22197" componentID="Audition.Fader" id="clipGain" name="volume" powered="true">
            <parameter index="0" name="volume" parameterValue="1"/>
            <parameter index="1" name="static gain" parameterValue="1"/>
          </component>
          <component componentGuid="6b6213c2-4805-4732-9607-cc04b6c94150" componentID="Audition.Mute" id="clipMute" name="Mute" powered="true">
            <parameter index="0" parameterValue="0"/>
            <parameter index="1" name="mute" parameterValue="0"/>
          </component>
          <component componentGuid="15e87a98-55ad-4a1f-afe7-ccf09de79d19" componentID="Audition.StereoPanner" id="clipPan" name="StereoPanner" powered="true">
            <parameter index="0" name="Pan" parameterValue="0"/>
          </component>
          <fadeIn crossFadeLinkType="linkedAsymmetric" endPoint="0" shape="19" startPoint="0" type="log"/>
          <fadeOut crossFadeLinkType="linkedAsymmetric" endPoint="970547" shape="19" startPoint="970547" type="log"/>
          <editParameter parameterIndex="0" slotIndex="4294967280"/>
          <editParameter parameterIndex="0" slotIndex="4294967281"/>
          <channelMap>
            <channel index="0" sourceIndex="0"/>
          </channelMap>
        </audioClip>
        <audioClip clipAutoCrossfade="true" crossFadeHeadClipID="-1" crossFadeTailClipID="10" endPoint="67508467" fileID="3" hue="-1" id="9" lockedInTime="false" looped="false" name="Skype" offline="false" select="false" sourceInPoint="78461032" sourceOutPoint="78736170" startPoint="67233329" zOrder="9">
          <properties properties="{&quot;BasicAdjustmentsProperty&quot;:{&quot;type&quot;:&quot;tree::any&quot;,&quot;value&quot;:{&quot;AdjustmentMode&quot;:{&quot;type&quot;:&quot;UTF8String&quot;,&quot;value&quot;:&quot;dialog&quot;},&quot;ClaritySection&quot;:{&quot;type&quot;:&quot;tree::any&quot;,&quot;value&quot;:{&quot;Dynamics&quot;:{&quot;type&quot;:&quot;tree::any&quot;,&quot;value&quot;:{&quot;2&quot;:{&quot;type&quot;:&quot;tree::any&quot;,&quot;value&quot;:{&quot;Value&quot;:{&quot;type&quot;:&quot;float&quot;,&quot;value&quot;:3}}}}},&quot;Enabled&quot;:{&quot;type&quot;:&quot;bool&quot;,&quot;value&quot;:true}}},&quot;ClipType&quot;:{&quot;type&quot;:&quot;std::int32_t&quot;,&quot;value&quot;:1},&quot;EnhanceSpeechSection&quot;:{&quot;type&quot;:&quot;tree::any&quot;,&quot;value&quot;:{&quot;Enabled&quot;:{&quot;type&quot;:&quot;bool&quot;,&quot;value&quot;:true}}},&quot;PresetGuid&quot;:{&quot;type&quot;:&quot;UTF8String&quot;,&quot;value&quot;:&quot;bb717b4a-c0b1-4def-9040-3fb8e83b8a91&quot;},&quot;RestorationSection&quot;:{&quot;type&quot;:&quot;tree::any&quot;,&quot;value&quot;:{&quot;Enabled&quot;:{&quot;type&quot;:&quot;bool&quot;,&quot;value&quot;:true},&quot;ReduceHum&quot;:{&quot;type&quot;:&quot;tree::any&quot;,&quot;value&quot;:{&quot;4&quot;:{&quot;type&quot;:&quot;tree::any&quot;,&quot;value&quot;:{&quot;Value&quot;:{&quot;type&quot;:&quot;float&quot;,&quot;value&quot;:7.143000602722168}}},&quot;9&quot;:{&quot;type&quot;:&quot;tree::any&quot;,&quot;value&quot;:{&quot;Value&quot;:{&quot;type&quot;:&quot;float&quot;,&quot;value&quot;:60}}}}}}},&quot;SoundEffectsSection&quot;:{&quot;type&quot;:&quot;tree::any&quot;,&quot;value&quot;:{&quot;Enabled&quot;:{&quot;type&quot;:&quot;bool&quot;,&quot;value&quot;:true},&quot;Reverb&quot;:{&quot;type&quot;:&quot;tree::any&quot;,&quot;value&quot;:{&quot;3&quot;:{&quot;type&quot;:&quot;tree::any&quot;,&quot;value&quot;:{&quot;Value&quot;:{&quot;type&quot;:&quot;float&quot;,&quot;value&quot;:2}}}}}}},&quot;VolumeSection&quot;:{&quot;type&quot;:&quot;tree::any&quot;,&quot;value&quot;:{&quot;Enabled&quot;:{&quot;type&quot;:&quot;bool&quot;,&quot;value&quot;:true}}}}},&quot;TempData&quot;:{&quot;type&quot;:&quot;tree::any&quot;,&quot;value&quot;:{}}}"/>
          <component componentGuid="b38f0134-b955-4fc8-9257-e586606d3607" componentID="Audition.Fader" id="clipGain" name="volume" powered="true">
            <parameter index="0" name="volume" parameterValue="1"/>
            <parameter index="1" name="static gain" parameterValue="1"/>
          </component>
          <component componentGuid="09524b34-57c5-4eca-874f-b07fa6d1ea97" componentID="Audition.Mute" id="clipMute" name="Mute" powered="true">
            <parameter index="0" parameterValue="0"/>
            <parameter index="1" name="mute" parameterValue="0"/>
          </component>
          <component componentGuid="d751a9f4-f683-4afb-ad06-a36aa2bb86f4" componentID="Audition.StereoPanner" id="clipPan" name="StereoPanner" powered="true">
            <parameter index="0" name="Pan" parameterValue="0"/>
          </component>
          <fadeIn crossFadeLinkType="linkedAsymmetric" endPoint="0" shape="19" startPoint="0" type="log"/>
          <fadeOut crossFadeLinkType="linkedAsymmetric" endPoint="275138" shape="19" startPoint="268771" type="log"/>
          <editParameter parameterIndex="0" slotIndex="4294967280"/>
          <editParameter parameterIndex="0" slotIndex="4294967281"/>
          <channelMap>
            <channel index="0" sourceIndex="0"/>
          </channelMap>
        </audioClip>
        <audioClip clipAutoCrossfade="true" crossFadeHeadClipID="9" crossFadeTailClipID="11" endPoint="67580900" fileID="3" hue="-1" id="10" lockedInTime="false" looped="false" name="Skype" offline="false" select="false" sourceInPoint="78768805" sourceOutPoint="78847605" startPoint="67502100" zOrder="10">
          <properties properties="{&quot;BasicAdjustmentsProperty&quot;:{&quot;type&quot;:&quot;tree::any&quot;,&quot;value&quot;:{&quot;AdjustmentMode&quot;:{&quot;type&quot;:&quot;UTF8String&quot;,&quot;value&quot;:&quot;dialog&quot;},&quot;ClaritySection&quot;:{&quot;type&quot;:&quot;tree::any&quot;,&quot;value&quot;:{&quot;Dynamics&quot;:{&quot;type&quot;:&quot;tree::any&quot;,&quot;value&quot;:{&quot;2&quot;:{&quot;type&quot;:&quot;tree::any&quot;,&quot;value&quot;:{&quot;Value&quot;:{&quot;type&quot;:&quot;float&quot;,&quot;value&quot;:3}}}}},&quot;Enabled&quot;:{&quot;type&quot;:&quot;bool&quot;,&quot;value&quot;:true}}},&quot;ClipType&quot;:{&quot;type&quot;:&quot;std::int32_t&quot;,&quot;value&quot;:1},&quot;EnhanceSpeechSection&quot;:{&quot;type&quot;:&quot;tree::any&quot;,&quot;value&quot;:{&quot;Enabled&quot;:{&quot;type&quot;:&quot;bool&quot;,&quot;value&quot;:true}}},&quot;PresetGuid&quot;:{&quot;type&quot;:&quot;UTF8String&quot;,&quot;value&quot;:&quot;bb717b4a-c0b1-4def-9040-3fb8e83b8a91&quot;},&quot;RestorationSection&quot;:{&quot;type&quot;:&quot;tree::any&quot;,&quot;value&quot;:{&quot;Enabled&quot;:{&quot;type&quot;:&quot;bool&quot;,&quot;value&quot;:true},&quot;ReduceHum&quot;:{&quot;type&quot;:&quot;tree::any&quot;,&quot;value&quot;:{&quot;4&quot;:{&quot;type&quot;:&quot;tree::any&quot;,&quot;value&quot;:{&quot;Value&quot;:{&quot;type&quot;:&quot;float&quot;,&quot;value&quot;:7.143000602722168}}},&quot;9&quot;:{&quot;type&quot;:&quot;tree::any&quot;,&quot;value&quot;:{&quot;Value&quot;:{&quot;type&quot;:&quot;float&quot;,&quot;value&quot;:60}}}}}}},&quot;SoundEffectsSection&quot;:{&quot;type&quot;:&quot;tree::any&quot;,&quot;value&quot;:{&quot;Enabled&quot;:{&quot;type&quot;:&quot;bool&quot;,&quot;value&quot;:true},&quot;Reverb&quot;:{&quot;type&quot;:&quot;tree::any&quot;,&quot;value&quot;:{&quot;3&quot;:{&quot;type&quot;:&quot;tree::any&quot;,&quot;value&quot;:{&quot;Value&quot;:{&quot;type&quot;:&quot;float&quot;,&quot;value&quot;:2}}}}}}},&quot;VolumeSection&quot;:{&quot;type&quot;:&quot;tree::any&quot;,&quot;value&quot;:{&quot;Enabled&quot;:{&quot;type&quot;:&quot;bool&quot;,&quot;value&quot;:true}}}}},&quot;TempData&quot;:{&quot;type&quot;:&quot;tree::any&quot;,&quot;value&quot;:{}}}"/>
          <component componentGuid="7b6706a9-0e29-4ef3-b53a-5dfe2fc75075" componentID="Audition.Fader" id="clipGain" name="volume" powered="true">
            <parameter index="0" name="volume" parameterValue="1"/>
            <parameter index="1" name="static gain" parameterValue="1"/>
          </component>
          <component componentGuid="c903c1ae-a744-4005-bdde-8dc38037d37d" componentID="Audition.Mute" id="clipMute" name="Mute" powered="true">
            <parameter index="0" parameterValue="0"/>
            <parameter index="1" name="mute" parameterValue="0"/>
          </component>
          <component componentGuid="3c51c990-2cb8-44c7-b107-80c6a58c06db" componentID="Audition.StereoPanner" id="clipPan" name="StereoPanner" powered="true">
            <parameter index="0" name="Pan" parameterValue="0"/>
          </component>
          <fadeIn crossFadeLinkType="linkedAsymmetric" endPoint="6367" shape="18" startPoint="0" type="log"/>
          <fadeOut crossFadeLinkType="linkedAsymmetric" endPoint="78800" shape="19" startPoint="65269" type="log"/>
          <editParameter parameterIndex="0" slotIndex="4294967280"/>
          <editParameter parameterIndex="0" slotIndex="4294967281"/>
          <channelMap>
            <channel index="0" sourceIndex="0"/>
          </channelMap>
        </audioClip>
        <audioClip clipAutoCrossfade="true" crossFadeHeadClipID="10" crossFadeTailClipID="12" endPoint="67679069" fileID="3" hue="-1" id="11" lockedInTime="false" looped="false" name="Skype" offline="false" select="false" sourceInPoint="78847605" sourceOutPoint="78959305" startPoint="67567369" zOrder="11">
          <properties properties="{&quot;BasicAdjustmentsProperty&quot;:{&quot;type&quot;:&quot;tree::any&quot;,&quot;value&quot;:{&quot;AdjustmentMode&quot;:{&quot;type&quot;:&quot;UTF8String&quot;,&quot;value&quot;:&quot;dialog&quot;},&quot;ClaritySection&quot;:{&quot;type&quot;:&quot;tree::any&quot;,&quot;value&quot;:{&quot;Dynamics&quot;:{&quot;type&quot;:&quot;tree::any&quot;,&quot;value&quot;:{&quot;2&quot;:{&quot;type&quot;:&quot;tree::any&quot;,&quot;value&quot;:{&quot;Value&quot;:{&quot;type&quot;:&quot;float&quot;,&quot;value&quot;:3}}}}},&quot;Enabled&quot;:{&quot;type&quot;:&quot;bool&quot;,&quot;value&quot;:true}}},&quot;ClipType&quot;:{&quot;type&quot;:&quot;std::int32_t&quot;,&quot;value&quot;:1},&quot;EnhanceSpeechSection&quot;:{&quot;type&quot;:&quot;tree::any&quot;,&quot;value&quot;:{&quot;Enabled&quot;:{&quot;type&quot;:&quot;bool&quot;,&quot;value&quot;:true}}},&quot;PresetGuid&quot;:{&quot;type&quot;:&quot;UTF8String&quot;,&quot;value&quot;:&quot;bb717b4a-c0b1-4def-9040-3fb8e83b8a91&quot;},&quot;RestorationSection&quot;:{&quot;type&quot;:&quot;tree::any&quot;,&quot;value&quot;:{&quot;Enabled&quot;:{&quot;type&quot;:&quot;bool&quot;,&quot;value&quot;:true},&quot;ReduceHum&quot;:{&quot;type&quot;:&quot;tree::any&quot;,&quot;value&quot;:{&quot;4&quot;:{&quot;type&quot;:&quot;tree::any&quot;,&quot;value&quot;:{&quot;Value&quot;:{&quot;type&quot;:&quot;float&quot;,&quot;value&quot;:7.143000602722168}}},&quot;9&quot;:{&quot;type&quot;:&quot;tree::any&quot;,&quot;value&quot;:{&quot;Value&quot;:{&quot;type&quot;:&quot;float&quot;,&quot;value&quot;:60}}}}}}},&quot;SoundEffectsSection&quot;:{&quot;type&quot;:&quot;tree::any&quot;,&quot;value&quot;:{&quot;Enabled&quot;:{&quot;type&quot;:&quot;bool&quot;,&quot;value&quot;:true},&quot;Reverb&quot;:{&quot;type&quot;:&quot;tree::any&quot;,&quot;value&quot;:{&quot;3&quot;:{&quot;type&quot;:&quot;tree::any&quot;,&quot;value&quot;:{&quot;Value&quot;:{&quot;type&quot;:&quot;float&quot;,&quot;value&quot;:2}}}}}}},&quot;VolumeSection&quot;:{&quot;type&quot;:&quot;tree::any&quot;,&quot;value&quot;:{&quot;Enabled&quot;:{&quot;type&quot;:&quot;bool&quot;,&quot;value&quot;:true}}}}},&quot;TempData&quot;:{&quot;type&quot;:&quot;tree::any&quot;,&quot;value&quot;:{}}}"/>
          <component componentGuid="f0fa8f16-6d78-45ba-96aa-783d20f40d63" componentID="Audition.Fader" id="clipGain" name="volume" powered="true">
            <parameter index="0" name="volume" parameterValue="1"/>
            <parameter index="1" name="static gain" parameterValue="1"/>
          </component>
          <component componentGuid="ba0074ea-49f8-47c4-b97a-789aeec35f50" componentID="Audition.Mute" id="clipMute" name="Mute" powered="true">
            <parameter index="0" parameterValue="0"/>
            <parameter index="1" name="mute" parameterValue="0"/>
          </component>
          <component componentGuid="1f805d5c-a4fe-4322-94bf-773b196b5b0c" componentID="Audition.StereoPanner" id="clipPan" name="StereoPanner" powered="true">
            <parameter index="0" name="Pan" parameterValue="0"/>
          </component>
          <fadeIn crossFadeLinkType="linkedAsymmetric" endPoint="13531" shape="18" startPoint="0" type="log"/>
          <fadeOut crossFadeLinkType="linkedAsymmetric" endPoint="111700" shape="19" startPoint="98700" type="log"/>
          <editParameter parameterIndex="0" slotIndex="4294967280"/>
          <editParameter parameterIndex="0" slotIndex="4294967281"/>
          <channelMap>
            <channel index="0" sourceIndex="0"/>
          </channelMap>
        </audioClip>
        <audioClip clipAutoCrossfade="true" crossFadeHeadClipID="11" crossFadeTailClipID="-1" endPoint="80057919" fileID="3" hue="-1" id="12" lockedInTime="false" looped="false" name="Skype" offline="false" select="false" sourceInPoint="79543278" sourceOutPoint="91935128" startPoint="67666069" zOrder="12">
          <properties properties="{&quot;BasicAdjustmentsProperty&quot;:{&quot;type&quot;:&quot;tree::any&quot;,&quot;value&quot;:{&quot;AdjustmentMode&quot;:{&quot;type&quot;:&quot;UTF8String&quot;,&quot;value&quot;:&quot;dialog&quot;},&quot;ClaritySection&quot;:{&quot;type&quot;:&quot;tree::any&quot;,&quot;value&quot;:{&quot;Dynamics&quot;:{&quot;type&quot;:&quot;tree::any&quot;,&quot;value&quot;:{&quot;2&quot;:{&quot;type&quot;:&quot;tree::any&quot;,&quot;value&quot;:{&quot;Value&quot;:{&quot;type&quot;:&quot;float&quot;,&quot;value&quot;:3}}}}},&quot;Enabled&quot;:{&quot;type&quot;:&quot;bool&quot;,&quot;value&quot;:true}}},&quot;ClipType&quot;:{&quot;type&quot;:&quot;std::int32_t&quot;,&quot;value&quot;:1},&quot;EnhanceSpeechSection&quot;:{&quot;type&quot;:&quot;tree::any&quot;,&quot;value&quot;:{&quot;Enabled&quot;:{&quot;type&quot;:&quot;bool&quot;,&quot;value&quot;:true}}},&quot;PresetGuid&quot;:{&quot;type&quot;:&quot;UTF8String&quot;,&quot;value&quot;:&quot;bb717b4a-c0b1-4def-9040-3fb8e83b8a91&quot;},&quot;RestorationSection&quot;:{&quot;type&quot;:&quot;tree::any&quot;,&quot;value&quot;:{&quot;Enabled&quot;:{&quot;type&quot;:&quot;bool&quot;,&quot;value&quot;:true},&quot;ReduceHum&quot;:{&quot;type&quot;:&quot;tree::any&quot;,&quot;value&quot;:{&quot;4&quot;:{&quot;type&quot;:&quot;tree::any&quot;,&quot;value&quot;:{&quot;Value&quot;:{&quot;type&quot;:&quot;float&quot;,&quot;value&quot;:7.143000602722168}}},&quot;9&quot;:{&quot;type&quot;:&quot;tree::any&quot;,&quot;value&quot;:{&quot;Value&quot;:{&quot;type&quot;:&quot;float&quot;,&quot;value&quot;:60}}}}}}},&quot;SoundEffectsSection&quot;:{&quot;type&quot;:&quot;tree::any&quot;,&quot;value&quot;:{&quot;Enabled&quot;:{&quot;type&quot;:&quot;bool&quot;,&quot;value&quot;:true},&quot;Reverb&quot;:{&quot;type&quot;:&quot;tree::any&quot;,&quot;value&quot;:{&quot;3&quot;:{&quot;type&quot;:&quot;tree::any&quot;,&quot;value&quot;:{&quot;Value&quot;:{&quot;type&quot;:&quot;float&quot;,&quot;value&quot;:2}}}}}}},&quot;VolumeSection&quot;:{&quot;type&quot;:&quot;tree::any&quot;,&quot;value&quot;:{&quot;Enabled&quot;:{&quot;type&quot;:&quot;bool&quot;,&quot;value&quot;:true}}}}},&quot;TempData&quot;:{&quot;type&quot;:&quot;tree::any&quot;,&quot;value&quot;:{}}}"/>
          <component componentGuid="84716f9a-4473-4865-bf33-97b00acc4ec4" componentID="Audition.Fader" id="clipGain" name="volume" powered="true">
            <parameter index="0" name="volume" parameterValue="1"/>
            <parameter index="1" name="static gain" parameterValue="1"/>
          </component>
          <component componentGuid="68acdde4-6a39-4f30-b906-2bfe34c2437c" componentID="Audition.Mute" id="clipMute" name="Mute" powered="true">
            <parameter index="0" parameterValue="0"/>
            <parameter index="1" name="mute" parameterValue="0"/>
          </component>
          <component componentGuid="16ca8c05-c96f-4ab3-9f3b-65899477dfb3" componentID="Audition.StereoPanner" id="clipPan" name="StereoPanner" powered="true">
            <parameter index="0" name="Pan" parameterValue="0"/>
          </component>
          <fadeIn crossFadeLinkType="linkedAsymmetric" endPoint="13000" shape="18" startPoint="0" type="log"/>
          <fadeOut crossFadeLinkType="linkedAsymmetric" endPoint="12391850" shape="19" startPoint="12391850" type="log"/>
          <editParameter parameterIndex="0" slotIndex="4294967280"/>
          <editParameter parameterIndex="0" slotIndex="4294967281"/>
          <channelMap>
            <channel index="0" sourceIndex="0"/>
          </channelMap>
        </audioClip>
        <audioClip clipAutoCrossfade="true" crossFadeHeadClipID="-1" crossFadeTailClipID="14" endPoint="82754649" fileID="3" hue="-1" id="13" lockedInTime="false" looped="false" name="Skype" offline="false" select="false" sourceInPoint="92018704" sourceOutPoint="94715434" startPoint="80057919" zOrder="13">
          <properties properties="{&quot;BasicAdjustmentsProperty&quot;:{&quot;type&quot;:&quot;tree::any&quot;,&quot;value&quot;:{&quot;AdjustmentMode&quot;:{&quot;type&quot;:&quot;UTF8String&quot;,&quot;value&quot;:&quot;dialog&quot;},&quot;ClaritySection&quot;:{&quot;type&quot;:&quot;tree::any&quot;,&quot;value&quot;:{&quot;Dynamics&quot;:{&quot;type&quot;:&quot;tree::any&quot;,&quot;value&quot;:{&quot;2&quot;:{&quot;type&quot;:&quot;tree::any&quot;,&quot;value&quot;:{&quot;Value&quot;:{&quot;type&quot;:&quot;float&quot;,&quot;value&quot;:3}}}}},&quot;Enabled&quot;:{&quot;type&quot;:&quot;bool&quot;,&quot;value&quot;:true}}},&quot;ClipType&quot;:{&quot;type&quot;:&quot;std::int32_t&quot;,&quot;value&quot;:1},&quot;EnhanceSpeechSection&quot;:{&quot;type&quot;:&quot;tree::any&quot;,&quot;value&quot;:{&quot;Enabled&quot;:{&quot;type&quot;:&quot;bool&quot;,&quot;value&quot;:true}}},&quot;PresetGuid&quot;:{&quot;type&quot;:&quot;UTF8String&quot;,&quot;value&quot;:&quot;bb717b4a-c0b1-4def-9040-3fb8e83b8a91&quot;},&quot;RestorationSection&quot;:{&quot;type&quot;:&quot;tree::any&quot;,&quot;value&quot;:{&quot;Enabled&quot;:{&quot;type&quot;:&quot;bool&quot;,&quot;value&quot;:true},&quot;ReduceHum&quot;:{&quot;type&quot;:&quot;tree::any&quot;,&quot;value&quot;:{&quot;4&quot;:{&quot;type&quot;:&quot;tree::any&quot;,&quot;value&quot;:{&quot;Value&quot;:{&quot;type&quot;:&quot;float&quot;,&quot;value&quot;:7.143000602722168}}},&quot;9&quot;:{&quot;type&quot;:&quot;tree::any&quot;,&quot;value&quot;:{&quot;Value&quot;:{&quot;type&quot;:&quot;float&quot;,&quot;value&quot;:60}}}}}}},&quot;SoundEffectsSection&quot;:{&quot;type&quot;:&quot;tree::any&quot;,&quot;value&quot;:{&quot;Enabled&quot;:{&quot;type&quot;:&quot;bool&quot;,&quot;value&quot;:true},&quot;Reverb&quot;:{&quot;type&quot;:&quot;tree::any&quot;,&quot;value&quot;:{&quot;3&quot;:{&quot;type&quot;:&quot;tree::any&quot;,&quot;value&quot;:{&quot;Value&quot;:{&quot;type&quot;:&quot;float&quot;,&quot;value&quot;:2}}}}}}},&quot;VolumeSection&quot;:{&quot;type&quot;:&quot;tree::any&quot;,&quot;value&quot;:{&quot;Enabled&quot;:{&quot;type&quot;:&quot;bool&quot;,&quot;value&quot;:true}}}}},&quot;TempData&quot;:{&quot;type&quot;:&quot;tree::any&quot;,&quot;value&quot;:{}}}"/>
          <component componentGuid="a76bf0f4-66b1-4ab5-b0fb-7e16ce514094" componentID="Audition.Fader" id="clipGain" name="volume" powered="true">
            <parameter index="0" name="volume" parameterValue="1"/>
            <parameter index="1" name="static gain" parameterValue="1"/>
          </component>
          <component componentGuid="274fb2dc-68a2-4c85-aa9b-1d871299a445" componentID="Audition.Mute" id="clipMute" name="Mute" powered="true">
            <parameter index="0" parameterValue="0"/>
            <parameter index="1" name="mute" parameterValue="0"/>
          </component>
          <component componentGuid="11ee50a0-c791-4738-a2b3-cf14aa35fa51" componentID="Audition.StereoPanner" id="clipPan" name="StereoPanner" powered="true">
            <parameter index="0" name="Pan" parameterValue="0"/>
          </component>
          <fadeIn crossFadeLinkType="linkedAsymmetric" endPoint="0" shape="19" startPoint="0" type="log"/>
          <fadeOut crossFadeLinkType="linkedAsymmetric" endPoint="2696730" shape="19" startPoint="2637829" type="log"/>
          <editParameter parameterIndex="0" slotIndex="4294967280"/>
          <editParameter parameterIndex="0" slotIndex="4294967281"/>
          <channelMap>
            <channel index="0" sourceIndex="0"/>
          </channelMap>
        </audioClip>
        <audioClip clipAutoCrossfade="true" crossFadeHeadClipID="13" crossFadeTailClipID="-1" endPoint="83733155" fileID="3" hue="-1" id="14" lockedInTime="false" looped="false" name="Skype" offline="false" select="false" sourceInPoint="94715434" sourceOutPoint="95752841" startPoint="82695748" zOrder="14">
          <properties properties="{&quot;BasicAdjustmentsProperty&quot;:{&quot;type&quot;:&quot;tree::any&quot;,&quot;value&quot;:{&quot;AdjustmentMode&quot;:{&quot;type&quot;:&quot;UTF8String&quot;,&quot;value&quot;:&quot;dialog&quot;},&quot;ClaritySection&quot;:{&quot;type&quot;:&quot;tree::any&quot;,&quot;value&quot;:{&quot;Dynamics&quot;:{&quot;type&quot;:&quot;tree::any&quot;,&quot;value&quot;:{&quot;2&quot;:{&quot;type&quot;:&quot;tree::any&quot;,&quot;value&quot;:{&quot;Value&quot;:{&quot;type&quot;:&quot;float&quot;,&quot;value&quot;:3}}}}},&quot;Enabled&quot;:{&quot;type&quot;:&quot;bool&quot;,&quot;value&quot;:true}}},&quot;ClipType&quot;:{&quot;type&quot;:&quot;std::int32_t&quot;,&quot;value&quot;:1},&quot;EnhanceSpeechSection&quot;:{&quot;type&quot;:&quot;tree::any&quot;,&quot;value&quot;:{&quot;Enabled&quot;:{&quot;type&quot;:&quot;bool&quot;,&quot;value&quot;:true}}},&quot;PresetGuid&quot;:{&quot;type&quot;:&quot;UTF8String&quot;,&quot;value&quot;:&quot;bb717b4a-c0b1-4def-9040-3fb8e83b8a91&quot;},&quot;RestorationSection&quot;:{&quot;type&quot;:&quot;tree::any&quot;,&quot;value&quot;:{&quot;Enabled&quot;:{&quot;type&quot;:&quot;bool&quot;,&quot;value&quot;:true},&quot;ReduceHum&quot;:{&quot;type&quot;:&quot;tree::any&quot;,&quot;value&quot;:{&quot;4&quot;:{&quot;type&quot;:&quot;tree::any&quot;,&quot;value&quot;:{&quot;Value&quot;:{&quot;type&quot;:&quot;float&quot;,&quot;value&quot;:7.143000602722168}}},&quot;9&quot;:{&quot;type&quot;:&quot;tree::any&quot;,&quot;value&quot;:{&quot;Value&quot;:{&quot;type&quot;:&quot;float&quot;,&quot;value&quot;:60}}}}}}},&quot;SoundEffectsSection&quot;:{&quot;type&quot;:&quot;tree::any&quot;,&quot;value&quot;:{&quot;Enabled&quot;:{&quot;type&quot;:&quot;bool&quot;,&quot;value&quot;:true},&quot;Reverb&quot;:{&quot;type&quot;:&quot;tree::any&quot;,&quot;value&quot;:{&quot;3&quot;:{&quot;type&quot;:&quot;tree::any&quot;,&quot;value&quot;:{&quot;Value&quot;:{&quot;type&quot;:&quot;float&quot;,&quot;value&quot;:2}}}}}}},&quot;VolumeSection&quot;:{&quot;type&quot;:&quot;tree::any&quot;,&quot;value&quot;:{&quot;Enabled&quot;:{&quot;type&quot;:&quot;bool&quot;,&quot;value&quot;:true}}}}},&quot;TempData&quot;:{&quot;type&quot;:&quot;tree::any&quot;,&quot;value&quot;:{}}}"/>
          <component componentGuid="81359c02-d230-4eed-91f8-77a8b923aa65" componentID="Audition.Fader" id="clipGain" name="volume" powered="true">
            <parameter index="0" name="volume" parameterValue="1"/>
            <parameter index="1" name="static gain" parameterValue="1"/>
          </component>
          <component componentGuid="cff7bb2f-bcb0-4df0-b2e9-fbac3cc74e9e" componentID="Audition.Mute" id="clipMute" name="Mute" powered="true">
            <parameter index="0" parameterValue="0"/>
            <parameter index="1" name="mute" parameterValue="0"/>
          </component>
          <component componentGuid="c51bebd6-0842-4283-a72b-e43721068c47" componentID="Audition.StereoPanner" id="clipPan" name="StereoPanner" powered="true">
            <parameter index="0" name="Pan" parameterValue="0"/>
          </component>
          <fadeIn crossFadeLinkType="linkedAsymmetric" endPoint="58901" shape="18" startPoint="0" type="log"/>
          <fadeOut crossFadeLinkType="linkedAsymmetric" endPoint="1037407" shape="19" startPoint="1037407" type="log"/>
          <editParameter parameterIndex="0" slotIndex="4294967280"/>
          <editParameter parameterIndex="0" slotIndex="4294967281"/>
          <channelMap>
            <channel index="0" sourceIndex="0"/>
          </channelMap>
        </audioClip>
        <audioClip clipAutoCrossfade="true" crossFadeHeadClipID="-1" crossFadeTailClipID="-1" endPoint="96482651" fileID="3" hue="-1" id="15" lockedInTime="false" looped="false" name="Skype" offline="false" select="false" sourceInPoint="95792374" sourceOutPoint="108541870" startPoint="83733155" zOrder="15">
          <properties properties="{&quot;BasicAdjustmentsProperty&quot;:{&quot;type&quot;:&quot;tree::any&quot;,&quot;value&quot;:{&quot;AdjustmentMode&quot;:{&quot;type&quot;:&quot;UTF8String&quot;,&quot;value&quot;:&quot;dialog&quot;},&quot;ClaritySection&quot;:{&quot;type&quot;:&quot;tree::any&quot;,&quot;value&quot;:{&quot;Dynamics&quot;:{&quot;type&quot;:&quot;tree::any&quot;,&quot;value&quot;:{&quot;2&quot;:{&quot;type&quot;:&quot;tree::any&quot;,&quot;value&quot;:{&quot;Value&quot;:{&quot;type&quot;:&quot;float&quot;,&quot;value&quot;:3}}}}},&quot;Enabled&quot;:{&quot;type&quot;:&quot;bool&quot;,&quot;value&quot;:true}}},&quot;ClipType&quot;:{&quot;type&quot;:&quot;std::int32_t&quot;,&quot;value&quot;:1},&quot;EnhanceSpeechSection&quot;:{&quot;type&quot;:&quot;tree::any&quot;,&quot;value&quot;:{&quot;Enabled&quot;:{&quot;type&quot;:&quot;bool&quot;,&quot;value&quot;:true}}},&quot;PresetGuid&quot;:{&quot;type&quot;:&quot;UTF8String&quot;,&quot;value&quot;:&quot;bb717b4a-c0b1-4def-9040-3fb8e83b8a91&quot;},&quot;RestorationSection&quot;:{&quot;type&quot;:&quot;tree::any&quot;,&quot;value&quot;:{&quot;Enabled&quot;:{&quot;type&quot;:&quot;bool&quot;,&quot;value&quot;:true},&quot;ReduceHum&quot;:{&quot;type&quot;:&quot;tree::any&quot;,&quot;value&quot;:{&quot;4&quot;:{&quot;type&quot;:&quot;tree::any&quot;,&quot;value&quot;:{&quot;Value&quot;:{&quot;type&quot;:&quot;float&quot;,&quot;value&quot;:7.143000602722168}}},&quot;9&quot;:{&quot;type&quot;:&quot;tree::any&quot;,&quot;value&quot;:{&quot;Value&quot;:{&quot;type&quot;:&quot;float&quot;,&quot;value&quot;:60}}}}}}},&quot;SoundEffectsSection&quot;:{&quot;type&quot;:&quot;tree::any&quot;,&quot;value&quot;:{&quot;Enabled&quot;:{&quot;type&quot;:&quot;bool&quot;,&quot;value&quot;:true},&quot;Reverb&quot;:{&quot;type&quot;:&quot;tree::any&quot;,&quot;value&quot;:{&quot;3&quot;:{&quot;type&quot;:&quot;tree::any&quot;,&quot;value&quot;:{&quot;Value&quot;:{&quot;type&quot;:&quot;float&quot;,&quot;value&quot;:2}}}}}}},&quot;VolumeSection&quot;:{&quot;type&quot;:&quot;tree::any&quot;,&quot;value&quot;:{&quot;Enabled&quot;:{&quot;type&quot;:&quot;bool&quot;,&quot;value&quot;:true}}}}},&quot;TempData&quot;:{&quot;type&quot;:&quot;tree::any&quot;,&quot;value&quot;:{}}}"/>
          <component componentGuid="e42f8c35-7ba7-4127-8207-73720de9c059" componentID="Audition.Fader" id="clipGain" name="volume" powered="true">
            <parameter index="0" name="volume" parameterValue="1"/>
            <parameter index="1" name="static gain" parameterValue="1"/>
          </component>
          <component componentGuid="95ba85e7-f425-4174-8283-fb292500d7c3" componentID="Audition.Mute" id="clipMute" name="Mute" powered="true">
            <parameter index="0" parameterValue="0"/>
            <parameter index="1" name="mute" parameterValue="0"/>
          </component>
          <component componentGuid="b24101ee-ee49-4cb4-afed-b2731b10f5b8" componentID="Audition.StereoPanner" id="clipPan" name="StereoPanner" powered="true">
            <parameter index="0" name="Pan" parameterValue="0"/>
          </component>
          <fadeIn crossFadeLinkType="linkedAsymmetric" endPoint="0" shape="19" startPoint="0" type="log"/>
          <fadeOut crossFadeLinkType="linkedAsymmetric" endPoint="12749496" shape="19" startPoint="12749496" type="log"/>
          <editParameter parameterIndex="0" slotIndex="4294967280"/>
          <editParameter parameterIndex="0" slotIndex="4294967281"/>
          <channelMap>
            <channel index="0" sourceIndex="0"/>
          </channelMap>
        </audioClip>
        <audioClip clipAutoCrossfade="true" crossFadeHeadClipID="-1" crossFadeTailClipID="17" endPoint="124586504" fileID="3" hue="-1" id="16" lockedInTime="false" looped="false" name="Skype" offline="false" select="false" sourceInPoint="108698675" sourceOutPoint="136802528" startPoint="96482651" zOrder="16">
          <properties properties="{&quot;BasicAdjustmentsProperty&quot;:{&quot;type&quot;:&quot;tree::any&quot;,&quot;value&quot;:{&quot;AdjustmentMode&quot;:{&quot;type&quot;:&quot;UTF8String&quot;,&quot;value&quot;:&quot;dialog&quot;},&quot;ClaritySection&quot;:{&quot;type&quot;:&quot;tree::any&quot;,&quot;value&quot;:{&quot;Dynamics&quot;:{&quot;type&quot;:&quot;tree::any&quot;,&quot;value&quot;:{&quot;2&quot;:{&quot;type&quot;:&quot;tree::any&quot;,&quot;value&quot;:{&quot;Value&quot;:{&quot;type&quot;:&quot;float&quot;,&quot;value&quot;:3}}}}},&quot;Enabled&quot;:{&quot;type&quot;:&quot;bool&quot;,&quot;value&quot;:true}}},&quot;ClipType&quot;:{&quot;type&quot;:&quot;std::int32_t&quot;,&quot;value&quot;:1},&quot;EnhanceSpeechSection&quot;:{&quot;type&quot;:&quot;tree::any&quot;,&quot;value&quot;:{&quot;Enabled&quot;:{&quot;type&quot;:&quot;bool&quot;,&quot;value&quot;:true}}},&quot;PresetGuid&quot;:{&quot;type&quot;:&quot;UTF8String&quot;,&quot;value&quot;:&quot;bb717b4a-c0b1-4def-9040-3fb8e83b8a91&quot;},&quot;RestorationSection&quot;:{&quot;type&quot;:&quot;tree::any&quot;,&quot;value&quot;:{&quot;Enabled&quot;:{&quot;type&quot;:&quot;bool&quot;,&quot;value&quot;:true},&quot;ReduceHum&quot;:{&quot;type&quot;:&quot;tree::any&quot;,&quot;value&quot;:{&quot;4&quot;:{&quot;type&quot;:&quot;tree::any&quot;,&quot;value&quot;:{&quot;Value&quot;:{&quot;type&quot;:&quot;float&quot;,&quot;value&quot;:7.143000602722168}}},&quot;9&quot;:{&quot;type&quot;:&quot;tree::any&quot;,&quot;value&quot;:{&quot;Value&quot;:{&quot;type&quot;:&quot;float&quot;,&quot;value&quot;:60}}}}}}},&quot;SoundEffectsSection&quot;:{&quot;type&quot;:&quot;tree::any&quot;,&quot;value&quot;:{&quot;Enabled&quot;:{&quot;type&quot;:&quot;bool&quot;,&quot;value&quot;:true},&quot;Reverb&quot;:{&quot;type&quot;:&quot;tree::any&quot;,&quot;value&quot;:{&quot;3&quot;:{&quot;type&quot;:&quot;tree::any&quot;,&quot;value&quot;:{&quot;Value&quot;:{&quot;type&quot;:&quot;float&quot;,&quot;value&quot;:2}}}}}}},&quot;VolumeSection&quot;:{&quot;type&quot;:&quot;tree::any&quot;,&quot;value&quot;:{&quot;Enabled&quot;:{&quot;type&quot;:&quot;bool&quot;,&quot;value&quot;:true}}}}},&quot;TempData&quot;:{&quot;type&quot;:&quot;tree::any&quot;,&quot;value&quot;:{}}}"/>
          <component componentGuid="271261b8-01de-44e4-8f93-7815acc2dd32" componentID="Audition.Fader" id="clipGain" name="volume" powered="true">
            <parameter index="0" name="volume" parameterValue="1"/>
            <parameter index="1" name="static gain" parameterValue="1"/>
          </component>
          <component componentGuid="1f880a47-da94-40a1-b54e-e3e4f2ef3227" componentID="Audition.Mute" id="clipMute" name="Mute" powered="true">
            <parameter index="0" parameterValue="0"/>
            <parameter index="1" name="mute" parameterValue="0"/>
          </component>
          <component componentGuid="f04513bd-26eb-4ba6-83b3-e2975ecfc792" componentID="Audition.StereoPanner" id="clipPan" name="StereoPanner" powered="true">
            <parameter index="0" name="Pan" parameterValue="0"/>
          </component>
          <fadeIn crossFadeLinkType="linkedAsymmetric" endPoint="0" shape="19" startPoint="0" type="log"/>
          <fadeOut crossFadeLinkType="linkedAsymmetric" endPoint="28103853" shape="19" startPoint="28092976" type="log"/>
          <editParameter parameterIndex="0" slotIndex="4294967280"/>
          <editParameter parameterIndex="0" slotIndex="4294967281"/>
          <channelMap>
            <channel index="0" sourceIndex="0"/>
          </channelMap>
        </audioClip>
        <audioClip clipAutoCrossfade="true" crossFadeHeadClipID="16" crossFadeTailClipID="18" endPoint="128919473" fileID="3" hue="-1" id="17" lockedInTime="false" looped="false" name="Skype" offline="false" select="false" sourceInPoint="138820565" sourceOutPoint="143164411" startPoint="124575627" zOrder="166">
          <properties properties="{&quot;BasicAdjustmentsProperty&quot;:{&quot;type&quot;:&quot;tree::any&quot;,&quot;value&quot;:{&quot;AdjustmentMode&quot;:{&quot;type&quot;:&quot;UTF8String&quot;,&quot;value&quot;:&quot;dialog&quot;},&quot;ClaritySection&quot;:{&quot;type&quot;:&quot;tree::any&quot;,&quot;value&quot;:{&quot;Dynamics&quot;:{&quot;type&quot;:&quot;tree::any&quot;,&quot;value&quot;:{&quot;2&quot;:{&quot;type&quot;:&quot;tree::any&quot;,&quot;value&quot;:{&quot;Value&quot;:{&quot;type&quot;:&quot;float&quot;,&quot;value&quot;:3}}}}},&quot;Enabled&quot;:{&quot;type&quot;:&quot;bool&quot;,&quot;value&quot;:true}}},&quot;ClipType&quot;:{&quot;type&quot;:&quot;std::int32_t&quot;,&quot;value&quot;:1},&quot;EnhanceSpeechSection&quot;:{&quot;type&quot;:&quot;tree::any&quot;,&quot;value&quot;:{&quot;Enabled&quot;:{&quot;type&quot;:&quot;bool&quot;,&quot;value&quot;:true}}},&quot;PresetGuid&quot;:{&quot;type&quot;:&quot;UTF8String&quot;,&quot;value&quot;:&quot;bb717b4a-c0b1-4def-9040-3fb8e83b8a91&quot;},&quot;RestorationSection&quot;:{&quot;type&quot;:&quot;tree::any&quot;,&quot;value&quot;:{&quot;Enabled&quot;:{&quot;type&quot;:&quot;bool&quot;,&quot;value&quot;:true},&quot;ReduceHum&quot;:{&quot;type&quot;:&quot;tree::any&quot;,&quot;value&quot;:{&quot;4&quot;:{&quot;type&quot;:&quot;tree::any&quot;,&quot;value&quot;:{&quot;Value&quot;:{&quot;type&quot;:&quot;float&quot;,&quot;value&quot;:7.143000602722168}}},&quot;9&quot;:{&quot;type&quot;:&quot;tree::any&quot;,&quot;value&quot;:{&quot;Value&quot;:{&quot;type&quot;:&quot;float&quot;,&quot;value&quot;:60}}}}}}},&quot;SoundEffectsSection&quot;:{&quot;type&quot;:&quot;tree::any&quot;,&quot;value&quot;:{&quot;Enabled&quot;:{&quot;type&quot;:&quot;bool&quot;,&quot;value&quot;:true},&quot;Reverb&quot;:{&quot;type&quot;:&quot;tree::any&quot;,&quot;value&quot;:{&quot;3&quot;:{&quot;type&quot;:&quot;tree::any&quot;,&quot;value&quot;:{&quot;Value&quot;:{&quot;type&quot;:&quot;float&quot;,&quot;value&quot;:2}}}}}}},&quot;VolumeSection&quot;:{&quot;type&quot;:&quot;tree::any&quot;,&quot;value&quot;:{&quot;Enabled&quot;:{&quot;type&quot;:&quot;bool&quot;,&quot;value&quot;:true}}}}},&quot;TempData&quot;:{&quot;type&quot;:&quot;tree::any&quot;,&quot;value&quot;:{}}}"/>
          <component componentGuid="5d65ee12-c714-4af3-bb77-b5ec5149d0eb" componentID="Audition.Fader" id="clipGain" name="volume" powered="true">
            <parameter index="0" name="volume" parameterValue="1"/>
            <parameter index="1" name="static gain" parameterValue="1"/>
          </component>
          <component componentGuid="b7505859-3366-4945-a4f6-c3cb7cdf7ed6" componentID="Audition.Mute" id="clipMute" name="Mute" powered="true">
            <parameter index="0" parameterValue="0"/>
            <parameter index="1" name="mute" parameterValue="0"/>
          </component>
          <component componentGuid="fa56fa45-9199-44e3-aa23-d9c039128b0c" componentID="Audition.StereoPanner" id="clipPan" name="StereoPanner" powered="true">
            <parameter index="0" name="Pan" parameterValue="0"/>
          </component>
          <fadeIn crossFadeLinkType="linkedAsymmetric" endPoint="10877" shape="18" startPoint="0" type="log"/>
          <fadeOut crossFadeLinkType="linkedAsymmetric" endPoint="4343846" shape="19" startPoint="4332974" type="log"/>
          <editParameter parameterIndex="0" slotIndex="4294967280"/>
          <editParameter parameterIndex="0" slotIndex="4294967281"/>
          <channelMap>
            <channel index="0" sourceIndex="0"/>
          </channelMap>
        </audioClip>
        <audioClip clipAutoCrossfade="true" crossFadeHeadClipID="17" crossFadeTailClipID="19" endPoint="128948400" fileID="3" hue="-1" id="18" lockedInTime="false" looped="false" name="Skype" offline="false" select="false" sourceInPoint="143164411" sourceOutPoint="143204210" startPoint="128908601" zOrder="199">
          <properties properties="{&quot;BasicAdjustmentsProperty&quot;:{&quot;type&quot;:&quot;tree::any&quot;,&quot;value&quot;:{&quot;AdjustmentMode&quot;:{&quot;type&quot;:&quot;UTF8String&quot;,&quot;value&quot;:&quot;dialog&quot;},&quot;ClaritySection&quot;:{&quot;type&quot;:&quot;tree::any&quot;,&quot;value&quot;:{&quot;Dynamics&quot;:{&quot;type&quot;:&quot;tree::any&quot;,&quot;value&quot;:{&quot;2&quot;:{&quot;type&quot;:&quot;tree::any&quot;,&quot;value&quot;:{&quot;Value&quot;:{&quot;type&quot;:&quot;float&quot;,&quot;value&quot;:3}}}}},&quot;Enabled&quot;:{&quot;type&quot;:&quot;bool&quot;,&quot;value&quot;:true}}},&quot;ClipType&quot;:{&quot;type&quot;:&quot;std::int32_t&quot;,&quot;value&quot;:1},&quot;EnhanceSpeechSection&quot;:{&quot;type&quot;:&quot;tree::any&quot;,&quot;value&quot;:{&quot;Enabled&quot;:{&quot;type&quot;:&quot;bool&quot;,&quot;value&quot;:true}}},&quot;PresetGuid&quot;:{&quot;type&quot;:&quot;UTF8String&quot;,&quot;value&quot;:&quot;bb717b4a-c0b1-4def-9040-3fb8e83b8a91&quot;},&quot;RestorationSection&quot;:{&quot;type&quot;:&quot;tree::any&quot;,&quot;value&quot;:{&quot;Enabled&quot;:{&quot;type&quot;:&quot;bool&quot;,&quot;value&quot;:true},&quot;ReduceHum&quot;:{&quot;type&quot;:&quot;tree::any&quot;,&quot;value&quot;:{&quot;4&quot;:{&quot;type&quot;:&quot;tree::any&quot;,&quot;value&quot;:{&quot;Value&quot;:{&quot;type&quot;:&quot;float&quot;,&quot;value&quot;:7.143000602722168}}},&quot;9&quot;:{&quot;type&quot;:&quot;tree::any&quot;,&quot;value&quot;:{&quot;Value&quot;:{&quot;type&quot;:&quot;float&quot;,&quot;value&quot;:60}}}}}}},&quot;SoundEffectsSection&quot;:{&quot;type&quot;:&quot;tree::any&quot;,&quot;value&quot;:{&quot;Enabled&quot;:{&quot;type&quot;:&quot;bool&quot;,&quot;value&quot;:true},&quot;Reverb&quot;:{&quot;type&quot;:&quot;tree::any&quot;,&quot;value&quot;:{&quot;3&quot;:{&quot;type&quot;:&quot;tree::any&quot;,&quot;value&quot;:{&quot;Value&quot;:{&quot;type&quot;:&quot;float&quot;,&quot;value&quot;:2}}}}}}},&quot;VolumeSection&quot;:{&quot;type&quot;:&quot;tree::any&quot;,&quot;value&quot;:{&quot;Enabled&quot;:{&quot;type&quot;:&quot;bool&quot;,&quot;value&quot;:true}}}}},&quot;TempData&quot;:{&quot;type&quot;:&quot;tree::any&quot;,&quot;value&quot;:{}}}"/>
          <component componentGuid="1eed856d-a982-42e6-956a-278fadc888f6" componentID="Audition.Fader" id="clipGain" name="volume" powered="true">
            <parameter index="0" name="volume" parameterValue="1"/>
            <parameter index="1" name="static gain" parameterValue="1"/>
          </component>
          <component componentGuid="0f0b6173-7429-4702-a03f-9757b712f9d9" componentID="Audition.Mute" id="clipMute" name="Mute" powered="true">
            <parameter index="0" parameterValue="0"/>
            <parameter index="1" name="mute" parameterValue="0"/>
          </component>
          <component componentGuid="9b13f0ea-3bd9-40ec-b1c7-b38e1fc08e85" componentID="Audition.StereoPanner" id="clipPan" name="StereoPanner" powered="true">
            <parameter index="0" name="Pan" parameterValue="0"/>
          </component>
          <fadeIn crossFadeLinkType="linkedAsymmetric" endPoint="10872" shape="18" startPoint="0" type="log"/>
          <fadeOut crossFadeLinkType="linkedAsymmetric" endPoint="39799" shape="19" startPoint="32364" type="log"/>
          <editParameter parameterIndex="0" slotIndex="4294967280"/>
          <editParameter parameterIndex="0" slotIndex="4294967281"/>
          <channelMap>
            <channel index="0" sourceIndex="0"/>
          </channelMap>
        </audioClip>
        <audioClip clipAutoCrossfade="true" crossFadeHeadClipID="18" crossFadeTailClipID="20" endPoint="129098566" fileID="3" hue="-1" id="19" lockedInTime="false" looped="false" name="Skype" offline="false" select="false" sourceInPoint="143204210" sourceOutPoint="143361811" startPoint="128940965" zOrder="200">
          <properties properties="{&quot;BasicAdjustmentsProperty&quot;:{&quot;type&quot;:&quot;tree::any&quot;,&quot;value&quot;:{&quot;AdjustmentMode&quot;:{&quot;type&quot;:&quot;UTF8String&quot;,&quot;value&quot;:&quot;dialog&quot;},&quot;ClaritySection&quot;:{&quot;type&quot;:&quot;tree::any&quot;,&quot;value&quot;:{&quot;Dynamics&quot;:{&quot;type&quot;:&quot;tree::any&quot;,&quot;value&quot;:{&quot;2&quot;:{&quot;type&quot;:&quot;tree::any&quot;,&quot;value&quot;:{&quot;Value&quot;:{&quot;type&quot;:&quot;float&quot;,&quot;value&quot;:3}}}}},&quot;Enabled&quot;:{&quot;type&quot;:&quot;bool&quot;,&quot;value&quot;:true}}},&quot;ClipType&quot;:{&quot;type&quot;:&quot;std::int32_t&quot;,&quot;value&quot;:1},&quot;EnhanceSpeechSection&quot;:{&quot;type&quot;:&quot;tree::any&quot;,&quot;value&quot;:{&quot;Enabled&quot;:{&quot;type&quot;:&quot;bool&quot;,&quot;value&quot;:true}}},&quot;PresetGuid&quot;:{&quot;type&quot;:&quot;UTF8String&quot;,&quot;value&quot;:&quot;bb717b4a-c0b1-4def-9040-3fb8e83b8a91&quot;},&quot;RestorationSection&quot;:{&quot;type&quot;:&quot;tree::any&quot;,&quot;value&quot;:{&quot;Enabled&quot;:{&quot;type&quot;:&quot;bool&quot;,&quot;value&quot;:true},&quot;ReduceHum&quot;:{&quot;type&quot;:&quot;tree::any&quot;,&quot;value&quot;:{&quot;4&quot;:{&quot;type&quot;:&quot;tree::any&quot;,&quot;value&quot;:{&quot;Value&quot;:{&quot;type&quot;:&quot;float&quot;,&quot;value&quot;:7.143000602722168}}},&quot;9&quot;:{&quot;type&quot;:&quot;tree::any&quot;,&quot;value&quot;:{&quot;Value&quot;:{&quot;type&quot;:&quot;float&quot;,&quot;value&quot;:60}}}}}}},&quot;SoundEffectsSection&quot;:{&quot;type&quot;:&quot;tree::any&quot;,&quot;value&quot;:{&quot;Enabled&quot;:{&quot;type&quot;:&quot;bool&quot;,&quot;value&quot;:true},&quot;Reverb&quot;:{&quot;type&quot;:&quot;tree::any&quot;,&quot;value&quot;:{&quot;3&quot;:{&quot;type&quot;:&quot;tree::any&quot;,&quot;value&quot;:{&quot;Value&quot;:{&quot;type&quot;:&quot;float&quot;,&quot;value&quot;:2}}}}}}},&quot;VolumeSection&quot;:{&quot;type&quot;:&quot;tree::any&quot;,&quot;value&quot;:{&quot;Enabled&quot;:{&quot;type&quot;:&quot;bool&quot;,&quot;value&quot;:true}}}}},&quot;TempData&quot;:{&quot;type&quot;:&quot;tree::any&quot;,&quot;value&quot;:{}}}"/>
          <component componentGuid="bbe871c3-2dba-47b9-bb70-417753f3ec28" componentID="Audition.Fader" id="clipGain" name="volume" powered="true">
            <parameter index="0" name="volume" parameterValue="1"/>
            <parameter index="1" name="static gain" parameterValue="1"/>
          </component>
          <component componentGuid="21031d4b-3d5c-4e6b-a84d-f06e43fb5c17" componentID="Audition.Mute" id="clipMute" name="Mute" powered="true">
            <parameter index="0" parameterValue="0"/>
            <parameter index="1" name="mute" parameterValue="0"/>
          </component>
          <component componentGuid="ab762610-3dcb-4606-a52a-d7d606ea59e8" componentID="Audition.StereoPanner" id="clipPan" name="StereoPanner" powered="true">
            <parameter index="0" name="Pan" parameterValue="0"/>
          </component>
          <fadeIn crossFadeLinkType="linkedAsymmetric" endPoint="7435" shape="18" startPoint="0" type="log"/>
          <fadeOut crossFadeLinkType="linkedAsymmetric" endPoint="157601" shape="19" startPoint="129743" type="log"/>
          <editParameter parameterIndex="0" slotIndex="4294967280"/>
          <editParameter parameterIndex="0" slotIndex="4294967281"/>
          <channelMap>
            <channel index="0" sourceIndex="0"/>
          </channelMap>
        </audioClip>
        <audioClip clipAutoCrossfade="true" crossFadeHeadClipID="19" crossFadeTailClipID="-1" endPoint="138832866" fileID="3" hue="-1" id="20" lockedInTime="false" looped="false" name="Skype" offline="false" select="false" sourceInPoint="143361811" sourceOutPoint="153123969" startPoint="129070708" zOrder="201">
          <properties properties="{&quot;BasicAdjustmentsProperty&quot;:{&quot;type&quot;:&quot;tree::any&quot;,&quot;value&quot;:{&quot;AdjustmentMode&quot;:{&quot;type&quot;:&quot;UTF8String&quot;,&quot;value&quot;:&quot;dialog&quot;},&quot;ClaritySection&quot;:{&quot;type&quot;:&quot;tree::any&quot;,&quot;value&quot;:{&quot;Dynamics&quot;:{&quot;type&quot;:&quot;tree::any&quot;,&quot;value&quot;:{&quot;2&quot;:{&quot;type&quot;:&quot;tree::any&quot;,&quot;value&quot;:{&quot;Value&quot;:{&quot;type&quot;:&quot;float&quot;,&quot;value&quot;:3}}}}},&quot;Enabled&quot;:{&quot;type&quot;:&quot;bool&quot;,&quot;value&quot;:true}}},&quot;ClipType&quot;:{&quot;type&quot;:&quot;std::int32_t&quot;,&quot;value&quot;:1},&quot;EnhanceSpeechSection&quot;:{&quot;type&quot;:&quot;tree::any&quot;,&quot;value&quot;:{&quot;Enabled&quot;:{&quot;type&quot;:&quot;bool&quot;,&quot;value&quot;:true}}},&quot;PresetGuid&quot;:{&quot;type&quot;:&quot;UTF8String&quot;,&quot;value&quot;:&quot;bb717b4a-c0b1-4def-9040-3fb8e83b8a91&quot;},&quot;RestorationSection&quot;:{&quot;type&quot;:&quot;tree::any&quot;,&quot;value&quot;:{&quot;Enabled&quot;:{&quot;type&quot;:&quot;bool&quot;,&quot;value&quot;:true},&quot;ReduceHum&quot;:{&quot;type&quot;:&quot;tree::any&quot;,&quot;value&quot;:{&quot;4&quot;:{&quot;type&quot;:&quot;tree::any&quot;,&quot;value&quot;:{&quot;Value&quot;:{&quot;type&quot;:&quot;float&quot;,&quot;value&quot;:7.143000602722168}}},&quot;9&quot;:{&quot;type&quot;:&quot;tree::any&quot;,&quot;value&quot;:{&quot;Value&quot;:{&quot;type&quot;:&quot;float&quot;,&quot;value&quot;:60}}}}}}},&quot;SoundEffectsSection&quot;:{&quot;type&quot;:&quot;tree::any&quot;,&quot;value&quot;:{&quot;Enabled&quot;:{&quot;type&quot;:&quot;bool&quot;,&quot;value&quot;:true},&quot;Reverb&quot;:{&quot;type&quot;:&quot;tree::any&quot;,&quot;value&quot;:{&quot;3&quot;:{&quot;type&quot;:&quot;tree::any&quot;,&quot;value&quot;:{&quot;Value&quot;:{&quot;type&quot;:&quot;float&quot;,&quot;value&quot;:2}}}}}}},&quot;VolumeSection&quot;:{&quot;type&quot;:&quot;tree::any&quot;,&quot;value&quot;:{&quot;Enabled&quot;:{&quot;type&quot;:&quot;bool&quot;,&quot;value&quot;:true}}}}},&quot;TempData&quot;:{&quot;type&quot;:&quot;tree::any&quot;,&quot;value&quot;:{}}}"/>
          <component componentGuid="40c12601-38b2-47fb-8fe4-52c941960d75" componentID="Audition.Fader" id="clipGain" name="volume" powered="true">
            <parameter index="0" name="volume" parameterValue="1"/>
            <parameter index="1" name="static gain" parameterValue="1"/>
          </component>
          <component componentGuid="95288bd8-e9cb-4d60-aa00-bddd4228ad6e" componentID="Audition.Mute" id="clipMute" name="Mute" powered="true">
            <parameter index="0" parameterValue="0"/>
            <parameter index="1" name="mute" parameterValue="0"/>
          </component>
          <component componentGuid="e351a0b1-5a77-4815-b298-6ecb0a95bb55" componentID="Audition.StereoPanner" id="clipPan" name="StereoPanner" powered="true">
            <parameter index="0" name="Pan" parameterValue="0"/>
          </component>
          <fadeIn crossFadeLinkType="linkedAsymmetric" endPoint="27858" shape="18" startPoint="0" type="log"/>
          <fadeOut crossFadeLinkType="linkedAsymmetric" endPoint="9762158" shape="19" startPoint="9762158" type="log"/>
          <editParameter parameterIndex="0" slotIndex="4294967280"/>
          <editParameter parameterIndex="0" slotIndex="4294967281"/>
          <channelMap>
            <channel index="0" sourceIndex="0"/>
          </channelMap>
        </audioClip>
      </audioTrack>
      <audioTrack automationLaneOpenState="false" id="10008" index="5" select="false" visible="true">
        <trackParameters trackHeight="229" trackHue="92" trackMinimized="false">
          <name>Bumper Music</name>
        </trackParameters>
        <trackAudioParameters audioChannelType="stereo" automationMode="1" monitoring="false" recordArmed="false" solo="false" soloSafe="false">
          <trackOutput outputID="10000" type="trackID"/>
          <trackInput inputID="1"/>
          <component componentGuid="0b5299d7-311a-4ac3-8682-4e5b050a6ca7" componentID="Audition.Fader" id="trackFader" name="volume" powered="true">
            <parameter index="0" name="volume" parameterValue="1"/>
            <parameter index="1" name="static gain" parameterValue="1"/>
          </component>
          <component componentGuid="a91685cd-a857-4916-8f0d-7514551dc9f0" componentID="Audition.Mute" id="trackMute" name="Mute" powered="true">
            <parameter index="0" parameterValue="0"/>
            <parameter index="1" name="mute" parameterValue="0"/>
          </component>
          <component componentGuid="7dc897e0-4a82-410b-8ed3-577fc1b4ed78" componentID="Audition.StereoPanner" id="trackPan" name="StereoPanner" powered="true">
            <parameter index="0" name="Pan" parameterValue="0"/>
          </component>
          <component componentGuid="9b45813f-291c-4c53-b3c6-29aed5c4a778" componentID="Audition.EQ" id="trackEQ" name="EQ" powered="false">
            <parameter index="0" name="Low Shelf Frequency" parameterValue="0.0009078529546968638896942138671875"/>
            <parameter index="1" name="Low Shelf Gain" parameterValue="0.5"/>
            <parameter index="2" name="High Shelf Frequency" parameterValue="0.816159784793853759765625"/>
            <parameter index="3" name="High Shelf Gain" parameterValue="0.5"/>
            <parameter index="4" name="EQ Band 1 Center Frequency" parameterValue="0.0013617794029414653778076171875"/>
            <parameter index="5" name="EQ Band 1 Q" parameterValue="0.000199989997781813144683837890625"/>
            <parameter index="6" name="EQ Band 1 Gain" parameterValue="0.5"/>
            <parameter index="7" name="EQ Band 1 Enable" parameterValue="1"/>
            <parameter index="8" name="EQ Band 2 Center Frequency" parameterValue="0.008170676417648792266845703125"/>
            <parameter index="9" name="EQ Band 2 Q" parameterValue="0.000199989997781813144683837890625"/>
            <parameter index="10" name="EQ Band 2 Gain" parameterValue="0.5"/>
            <parameter index="11" name="EQ Band 2 Enable" parameterValue="1"/>
            <parameter index="12" name="EQ Band 3 Center Frequency" parameterValue="0.0354062654078006744384765625"/>
            <parameter index="13" name="EQ Band 3 Q" parameterValue="0.000199989997781813144683837890625"/>
            <parameter index="14" name="EQ Band 3 Gain" parameterValue="0.5"/>
            <parameter index="15" name="EQ Band 3 Enable" parameterValue="1"/>
            <parameter index="16" name="EQ Band 4 Center Frequency" parameterValue="0.144348621368408203125"/>
            <parameter index="17" name="EQ Band 4 Q" parameterValue="0.000199989997781813144683837890625"/>
            <parameter index="18" name="EQ Band 4 Gain" parameterValue="0.5"/>
            <parameter index="19" name="EQ Band 4 Enable" parameterValue="1"/>
            <parameter index="20" name="EQ Band 5 Center Frequency" parameterValue="0.580118000507354736328125"/>
            <parameter index="21" name="EQ Band 5 Q" parameterValue="0.000199989997781813144683837890625"/>
            <parameter index="22" name="EQ Band 5 Gain" parameterValue="0.5"/>
            <parameter index="23" name="EQ Band 5 Enable" parameterValue="1"/>
            <parameter index="24" name="Gain" parameterValue="0.666666686534881591796875"/>
            <parameter index="25" name="ConstantQ" parameterValue="1"/>
            <parameter index="26" name="Low Shelf Filter Order" parameterValue="0"/>
            <parameter index="27" name="High Shelf Filter Order" parameterValue="0"/>
            <parameter index="28" name="Ultra-Quiet Mode" parameterValue="0"/>
            <parameter index="29" name="Low Shelf Enable" parameterValue="1"/>
            <parameter index="30" name="High Shelf Enable" parameterValue="1"/>
            <parameter index="31" name="Original Sample Rate" parameterValue="0.22968749701976776123046875"/>
            <parameter index="32" name="EQ Band 1 Bandwidth" parameterValue="0.002499990165233612060546875"/>
            <parameter index="33" name="EQ Band 2 Bandwidth" parameterValue="0.0099999904632568359375"/>
            <parameter index="34" name="EQ Band 3 Bandwidth" parameterValue="0.0399999916553497314453125"/>
            <parameter index="35" name="EQ Band 4 Bandwidth" parameterValue="0.15999998152256011962890625"/>
            <parameter index="36" name="EQ Band 5 Bandwidth" parameterValue="0.63999998569488525390625"/>
            <parameter index="37" name="High-Pass Filter Enable" parameterValue="0"/>
            <parameter index="38" name="High-Pass Cutoff Frequency" parameterValue="0"/>
            <parameter index="39" name="High-Pass Slope" parameterValue="0.4000000059604644775390625"/>
            <parameter index="40" name="Low-Pass Filter Enable" parameterValue="0"/>
            <parameter index="41" name="Low-Pass Cutoff Frequency" parameterValue="0.906945049762725830078125"/>
            <parameter index="42" name="Low-Pass Slope" parameterValue="0.4000000059604644775390625"/>
            <parameter index="43" name="Bypass" parameterValue="0"/>
            <parameter index="44" name="LowGraphRange" parameterValue="1"/>
          </component>
        </trackAudioParameters>
        <editParameter parameterIndex="0" slotIndex="4294967280"/>
        <audioClip clipAutoCrossfade="true" crossFadeHeadClipID="-1" crossFadeTailClipID="-1" endPoint="1498588" fileID="4" hue="-1" id="0" lockedInTime="false" looped="false" name="intro (30s)" offline="false" select="false" sourceInPoint="0" sourceOutPoint="1498588" startPoint="0" zOrder="0">
          <properties properties="{&quot;BasicAdjustmentsProperty&quot;:{&quot;type&quot;:&quot;tree::any&quot;,&quot;value&quot;:{&quot;AdjustmentMode&quot;:{&quot;type&quot;:&quot;UTF8String&quot;,&quot;value&quot;:&quot;music&quot;},&quot;ClipType&quot;:{&quot;type&quot;:&quot;std::int32_t&quot;,&quot;value&quot;:2},&quot;DuckingSection&quot;:{&quot;type&quot;:&quot;tree::any&quot;,&quot;value&quot;:{&quot;Ducker&quot;:{&quot;type&quot;:&quot;tree::any&quot;,&quot;value&quot;:{&quot;Enabled&quot;:{&quot;type&quot;:&quot;bool&quot;,&quot;value&quot;:true},&quot;UUID&quot;:{&quot;type&quot;:&quot;UTF8String&quot;,&quot;value&quot;:&quot;6e6e4756-8d3e-460f-8f54-99a01767f14a&quot;}}},&quot;Ducking&quot;:{&quot;type&quot;:&quot;tree::any&quot;,&quot;value&quot;:{&quot;6&quot;:{&quot;type&quot;:&quot;tree::any&quot;,&quot;value&quot;:{&quot;Value&quot;:{&quot;type&quot;:&quot;float&quot;,&quot;value&quot;:-8}}},&quot;9&quot;:{&quot;type&quot;:&quot;tree::any&quot;,&quot;value&quot;:{&quot;Value&quot;:{&quot;type&quot;:&quot;float&quot;,&quot;value&quot;:1}}}}},&quot;Enabled&quot;:{&quot;type&quot;:&quot;bool&quot;,&quot;value&quot;:true}}},&quot;DurationSection&quot;:{&quot;type&quot;:&quot;tree::any&quot;,&quot;value&quot;:{&quot;Enabled&quot;:{&quot;type&quot;:&quot;bool&quot;,&quot;value&quot;:false}}},&quot;PresetGuid&quot;:{&quot;type&quot;:&quot;UTF8String&quot;,&quot;value&quot;:&quot;61210989-1842-4ed3-baad-f1bb4d2bea37&quot;},&quot;VolumeSection&quot;:{&quot;type&quot;:&quot;tree::any&quot;,&quot;value&quot;:{&quot;Enabled&quot;:{&quot;type&quot;:&quot;bool&quot;,&quot;value&quot;:true}}}}}}"/>
          <effectsRack preFader="true">
            <component componentGuid="0776e325-0e9d-4ba4-b306-d7e5035ce6fc" componentID="Audition.ComponentGroup" id="rackMix" powered="true">
              <parameter index="0" parameterValue="0"/>
              <parameter index="1" parameterValue="0"/>
            </component>
            <component componentGuid="917e3b61-ea91-4a8a-91f3-f96631935e53" id="rackInput" powered="true">
              <parameter index="0" parameterValue="1"/>
              <parameter index="1" parameterValue="0"/>
            </component>
            <component componentGuid="18458390-4b94-4339-a534-99cb054ad292" id="rackOutput" powered="true">
              <parameter index="0" parameterValue="1"/>
              <parameter index="1" parameterValue="0"/>
            </component>
            <slot powered="true" slotIndex="0">
              <component componentGuid="6e6e4756-8d3e-460f-8f54-99a01767f14a" componentID="f14fee7d-fe5f-4202-b790-f53209e56411" name="Amplify" presetName="(Default)">
                <busConfig><![CDATA[{"in":[{"layout":[0,0],"name":"","type":0}],"out":[{"layout":[0,0],"name":"","type":0}]}]]></busConfig>
                <parameter index="0" name="Channel Count" parameterValue="0.0625"/>
                <parameter index="1" name="Link Sliders" parameterValue="1"/>
                <parameter index="2" name="1" parameterValue="0.666666686534881591796875">
                  <parameterKeyframes enableSplines="false" readOnly="true">
                    <parameterKeyframe sampleOffset="0" select="false" type="linear" value="0.666666686534881591796875"/>
                    <parameterKeyframe sampleOffset="410571" select="false" type="linear" value="0.666666686534881591796875"/>
                    <parameterKeyframe sampleOffset="445851" select="false" type="linear" value="0.611111104488372802734375"/>
                  </parameterKeyframes>
                </parameter>
                <parameter index="3" name="2" parameterValue="0.66666698455810546875"/>
                <parameter index="4" name="" parameterValue="0.666666686534881591796875"/>
                <parameter index="5" name="" parameterValue="0.666666686534881591796875"/>
                <parameter index="6" name="" parameterValue="0.666666686534881591796875"/>
                <parameter index="7" name="" parameterValue="0.666666686534881591796875"/>
                <parameter index="8" name="" parameterValue="0.666666686534881591796875"/>
                <parameter index="9" name="" parameterValue="0.666666686534881591796875"/>
                <parameter index="10" name="" parameterValue="0.666666686534881591796875"/>
                <parameter index="11" name="" parameterValue="0.666666686534881591796875"/>
                <parameter index="12" name="" parameterValue="0.666666686534881591796875"/>
                <parameter index="13" name="" parameterValue="0.666666686534881591796875"/>
                <parameter index="14" name="" parameterValue="0.666666686534881591796875"/>
                <parameter index="15" name="" parameterValue="0.666666686534881591796875"/>
                <parameter index="16" name="" parameterValue="0.666666686534881591796875"/>
                <parameter index="17" name="" parameterValue="0.666666686534881591796875"/>
                <parameter index="18" name="" parameterValue="0.666666686534881591796875"/>
                <parameter index="19" name="" parameterValue="0.666666686534881591796875"/>
                <parameter index="20" name="" parameterValue="0.666666686534881591796875"/>
                <parameter index="21" name="" parameterValue="0.666666686534881591796875"/>
                <parameter index="22" name="" parameterValue="0.666666686534881591796875"/>
                <parameter index="23" name="" parameterValue="0.666666686534881591796875"/>
                <parameter index="24" name="" parameterValue="0.666666686534881591796875"/>
                <parameter index="25" name="" parameterValue="0.666666686534881591796875"/>
                <parameter index="26" name="" parameterValue="0.666666686534881591796875"/>
                <parameter index="27" name="" parameterValue="0.666666686534881591796875"/>
                <parameter index="28" name="" parameterValue="0.666666686534881591796875"/>
                <parameter index="29" name="" parameterValue="0.666666686534881591796875"/>
                <parameter index="30" name="" parameterValue="0.666666686534881591796875"/>
                <parameter index="31" name="" parameterValue="0.666666686534881591796875"/>
                <parameter index="32" name="" parameterValue="0.666666686534881591796875"/>
                <parameter index="33" name="" parameterValue="0.666666686534881591796875"/>
                <parameter index="34" name="Link Keyframes" parameterValue="1"/>
              </component>
            </slot>
          </effectsRack>
          <component componentGuid="564f2511-5d98-492a-8205-41a983977900" componentID="Audition.Fader" id="clipGain" name="volume" powered="true">
            <parameter index="0" name="volume" parameterValue="1"/>
            <parameter index="1" name="static gain" parameterValue="1"/>
          </component>
          <component componentGuid="cdf19a79-d1a6-4fa4-acf3-9a4dc695885c" componentID="Audition.Mute" id="clipMute" name="Mute" powered="true">
            <parameter index="0" parameterValue="0"/>
            <parameter index="1" name="mute" parameterValue="0"/>
          </component>
          <component componentGuid="23eb534d-9d66-4c9c-83e4-2a8625b861f3" componentID="Audition.StereoPanner" id="clipPan" name="StereoPanner" powered="true">
            <parameter index="0" name="Pan" parameterValue="0"/>
          </component>
          <fadeIn crossFadeLinkType="linkedAsymmetric" endPoint="0" shape="19" startPoint="0" type="log"/>
          <fadeOut crossFadeLinkType="linkedAsymmetric" endPoint="1498588" shape="19" startPoint="1498588" type="log"/>
          <editParameter parameterIndex="0" slotIndex="4294967280"/>
          <editParameter parameterIndex="0" slotIndex="4294967281"/>
          <editParameter parameterIndex="2" slotIndex="0"/>
          <channelMap>
            <channel index="0" sourceIndex="0"/>
            <channel index="1" sourceIndex="1"/>
          </channelMap>
        </audioClip>
        <audioClip clipAutoCrossfade="true" crossFadeHeadClipID="-1" crossFadeTailClipID="-1" endPoint="139264846" fileID="5" hue="-1" id="1" lockedInTime="false" looped="false" name="outro" offline="false" select="false" sourceInPoint="0" sourceOutPoint="2404675" startPoint="136860171" zOrder="222">
          <properties properties="{&quot;BasicAdjustmentsProperty&quot;:{&quot;type&quot;:&quot;tree::any&quot;,&quot;value&quot;:{&quot;AdjustmentMode&quot;:{&quot;type&quot;:&quot;UTF8String&quot;,&quot;value&quot;:&quot;music&quot;},&quot;ClipType&quot;:{&quot;type&quot;:&quot;std::int32_t&quot;,&quot;value&quot;:2},&quot;DuckingSection&quot;:{&quot;type&quot;:&quot;tree::any&quot;,&quot;value&quot;:{&quot;Ducker&quot;:{&quot;type&quot;:&quot;tree::any&quot;,&quot;value&quot;:{&quot;Enabled&quot;:{&quot;type&quot;:&quot;bool&quot;,&quot;value&quot;:true},&quot;UUID&quot;:{&quot;type&quot;:&quot;UTF8String&quot;,&quot;value&quot;:&quot;5753b98f-5d5b-40d1-94dc-2eac7dc10568&quot;}}},&quot;Ducking&quot;:{&quot;type&quot;:&quot;tree::any&quot;,&quot;value&quot;:{&quot;6&quot;:{&quot;type&quot;:&quot;tree::any&quot;,&quot;value&quot;:{&quot;Value&quot;:{&quot;type&quot;:&quot;float&quot;,&quot;value&quot;:-8}}},&quot;9&quot;:{&quot;type&quot;:&quot;tree::any&quot;,&quot;value&quot;:{&quot;Value&quot;:{&quot;type&quot;:&quot;float&quot;,&quot;value&quot;:1}}}}},&quot;Enabled&quot;:{&quot;type&quot;:&quot;bool&quot;,&quot;value&quot;:true}}},&quot;DurationSection&quot;:{&quot;type&quot;:&quot;tree::any&quot;,&quot;value&quot;:{&quot;Enabled&quot;:{&quot;type&quot;:&quot;bool&quot;,&quot;value&quot;:false}}},&quot;PresetGuid&quot;:{&quot;type&quot;:&quot;UTF8String&quot;,&quot;value&quot;:&quot;61210989-1842-4ed3-baad-f1bb4d2bea37&quot;},&quot;VolumeSection&quot;:{&quot;type&quot;:&quot;tree::any&quot;,&quot;value&quot;:{&quot;Enabled&quot;:{&quot;type&quot;:&quot;bool&quot;,&quot;value&quot;:true}}}}}}"/>
          <effectsRack preFader="true">
            <component componentGuid="03daf3e1-8ba5-415c-825e-00eed22ac603" componentID="Audition.ComponentGroup" id="rackMix" powered="true">
              <parameter index="0" parameterValue="0"/>
              <parameter index="1" parameterValue="0"/>
            </component>
            <component componentGuid="3e540390-62d5-4774-b84f-0aae3db0ed73" id="rackInput" powered="true">
              <parameter index="0" parameterValue="1"/>
              <parameter index="1" parameterValue="0"/>
            </component>
            <component componentGuid="81daaffa-6fde-4eab-919d-99cbdd49bda3" id="rackOutput" powered="true">
              <parameter index="0" parameterValue="1"/>
              <parameter index="1" parameterValue="0"/>
            </component>
            <slot powered="true" slotIndex="0">
              <component componentGuid="5753b98f-5d5b-40d1-94dc-2eac7dc10568" componentID="f14fee7d-fe5f-4202-b790-f53209e56411" name="Amplify" presetName="(Default)">
                <busConfig><![CDATA[{"in":[{"layout":[0,0],"name":"","type":0}],"out":[{"layout":[0,0],"name":"","type":0}]}]]></busConfig>
                <parameter index="0" name="Channel Count" parameterValue="0.0625"/>
                <parameter index="1" name="Link Sliders" parameterValue="1"/>
                <parameter index="2" name="1" parameterValue="0.666666686534881591796875">
                  <parameterKeyframes enableSplines="false" readOnly="true">
                    <parameterKeyframe sampleOffset="0" select="false" type="linear" value="0.611111104488372802734375"/>
                    <parameterKeyframe sampleOffset="1961832" select="false" type="linear" value="0.611111104488372802734375"/>
                    <parameterKeyframe sampleOffset="1997112" select="false" type="linear" value="0.666666686534881591796875"/>
                  </parameterKeyframes>
                </parameter>
                <parameter index="3" name="2" parameterValue="0.66666698455810546875"/>
                <parameter index="4" name="" parameterValue="0.666666686534881591796875"/>
                <parameter index="5" name="" parameterValue="0.666666686534881591796875"/>
                <parameter index="6" name="" parameterValue="0.666666686534881591796875"/>
                <parameter index="7" name="" parameterValue="0.666666686534881591796875"/>
                <parameter index="8" name="" parameterValue="0.666666686534881591796875"/>
                <parameter index="9" name="" parameterValue="0.666666686534881591796875"/>
                <parameter index="10" name="" parameterValue="0.666666686534881591796875"/>
                <parameter index="11" name="" parameterValue="0.666666686534881591796875"/>
                <parameter index="12" name="" parameterValue="0.666666686534881591796875"/>
                <parameter index="13" name="" parameterValue="0.666666686534881591796875"/>
                <parameter index="14" name="" parameterValue="0.666666686534881591796875"/>
                <parameter index="15" name="" parameterValue="0.666666686534881591796875"/>
                <parameter index="16" name="" parameterValue="0.666666686534881591796875"/>
                <parameter index="17" name="" parameterValue="0.666666686534881591796875"/>
                <parameter index="18" name="" parameterValue="0.666666686534881591796875"/>
                <parameter index="19" name="" parameterValue="0.666666686534881591796875"/>
                <parameter index="20" name="" parameterValue="0.666666686534881591796875"/>
                <parameter index="21" name="" parameterValue="0.666666686534881591796875"/>
                <parameter index="22" name="" parameterValue="0.666666686534881591796875"/>
                <parameter index="23" name="" parameterValue="0.666666686534881591796875"/>
                <parameter index="24" name="" parameterValue="0.666666686534881591796875"/>
                <parameter index="25" name="" parameterValue="0.666666686534881591796875"/>
                <parameter index="26" name="" parameterValue="0.666666686534881591796875"/>
                <parameter index="27" name="" parameterValue="0.666666686534881591796875"/>
                <parameter index="28" name="" parameterValue="0.666666686534881591796875"/>
                <parameter index="29" name="" parameterValue="0.666666686534881591796875"/>
                <parameter index="30" name="" parameterValue="0.666666686534881591796875"/>
                <parameter index="31" name="" parameterValue="0.666666686534881591796875"/>
                <parameter index="32" name="" parameterValue="0.666666686534881591796875"/>
                <parameter index="33" name="" parameterValue="0.666666686534881591796875"/>
                <parameter index="34" name="Link Keyframes" parameterValue="1"/>
              </component>
            </slot>
          </effectsRack>
          <component componentGuid="72a19833-11e0-4c26-9289-a024ded476cb" componentID="Audition.Fader" id="clipGain" name="volume" powered="true">
            <parameter index="0" name="volume" parameterValue="1"/>
            <parameter index="1" name="static gain" parameterValue="1"/>
          </component>
          <component componentGuid="41031c37-f161-41af-aacd-b0c3b5a6b06b" componentID="Audition.Mute" id="clipMute" name="Mute" powered="true">
            <parameter index="0" parameterValue="0"/>
            <parameter index="1" name="mute" parameterValue="0"/>
          </component>
          <component componentGuid="8304e8e3-93d6-443b-9bc9-49d72c087e65" componentID="Audition.StereoPanner" id="clipPan" name="StereoPanner" powered="true">
            <parameter index="0" name="Pan" parameterValue="0"/>
          </component>
          <fadeIn crossFadeLinkType="linkedAsymmetric" endPoint="0" shape="19" startPoint="0" type="log"/>
          <fadeOut crossFadeLinkType="linkedAsymmetric" endPoint="2404675" shape="0" startPoint="2181448" type="log"/>
          <editParameter parameterIndex="0" slotIndex="4294967280"/>
          <editParameter parameterIndex="0" slotIndex="4294967281"/>
          <editParameter parameterIndex="2" slotIndex="0"/>
          <channelMap>
            <channel index="0" sourceIndex="0"/>
            <channel index="1" sourceIndex="1"/>
          </channelMap>
        </audioClip>
      </audioTrack>
      <audioTrack automationLaneOpenState="false" id="10010" index="7" select="false" visible="true">
        <trackParameters trackHeight="229" trackHue="92" trackMinimized="false">
          <name>Track 1</name>
        </trackParameters>
        <trackAudioParameters audioChannelType="stereo" automationMode="1" monitoring="false" recordArmed="false" solo="false" soloSafe="false">
          <trackOutput outputID="10000" type="trackID"/>
          <trackInput inputID="1"/>
          <component componentGuid="727bc47a-2902-4a33-8e0c-f9e710cc9d91" componentID="Audition.Fader" id="trackFader" name="volume" powered="true">
            <parameter index="0" name="volume" parameterValue="1"/>
            <parameter index="1" name="static gain" parameterValue="1"/>
          </component>
          <component componentGuid="ba133fd2-3750-40d0-b3c6-3adce2b4384b" componentID="Audition.Mute" id="trackMute" name="Mute" powered="true">
            <parameter index="0" parameterValue="0"/>
            <parameter index="1" name="mute" parameterValue="0"/>
          </component>
          <component componentGuid="bf45bcb1-f3dd-4dfc-bc0d-11a1a0b517ab" componentID="Audition.StereoPanner" id="trackPan" name="StereoPanner" powered="true">
            <parameter index="0" name="Pan" parameterValue="0"/>
          </component>
          <component componentGuid="578bed9d-4b6a-4657-9fd5-e8645865f257" componentID="Audition.EQ" id="trackEQ" name="EQ" powered="false">
            <parameter index="0" name="Low Shelf Frequency" parameterValue="0.0009078529546968638896942138671875"/>
            <parameter index="1" name="Low Shelf Gain" parameterValue="0.5"/>
            <parameter index="2" name="High Shelf Frequency" parameterValue="0.816159784793853759765625"/>
            <parameter index="3" name="High Shelf Gain" parameterValue="0.5"/>
            <parameter index="4" name="EQ Band 1 Center Frequency" parameterValue="0.0013617794029414653778076171875"/>
            <parameter index="5" name="EQ Band 1 Q" parameterValue="0.000199989997781813144683837890625"/>
            <parameter index="6" name="EQ Band 1 Gain" parameterValue="0.5"/>
            <parameter index="7" name="EQ Band 1 Enable" parameterValue="1"/>
            <parameter index="8" name="EQ Band 2 Center Frequency" parameterValue="0.008170676417648792266845703125"/>
            <parameter index="9" name="EQ Band 2 Q" parameterValue="0.000199989997781813144683837890625"/>
            <parameter index="10" name="EQ Band 2 Gain" parameterValue="0.5"/>
            <parameter index="11" name="EQ Band 2 Enable" parameterValue="1"/>
            <parameter index="12" name="EQ Band 3 Center Frequency" parameterValue="0.0354062654078006744384765625"/>
            <parameter index="13" name="EQ Band 3 Q" parameterValue="0.000199989997781813144683837890625"/>
            <parameter index="14" name="EQ Band 3 Gain" parameterValue="0.5"/>
            <parameter index="15" name="EQ Band 3 Enable" parameterValue="1"/>
            <parameter index="16" name="EQ Band 4 Center Frequency" parameterValue="0.144348621368408203125"/>
            <parameter index="17" name="EQ Band 4 Q" parameterValue="0.000199989997781813144683837890625"/>
            <parameter index="18" name="EQ Band 4 Gain" parameterValue="0.5"/>
            <parameter index="19" name="EQ Band 4 Enable" parameterValue="1"/>
            <parameter index="20" name="EQ Band 5 Center Frequency" parameterValue="0.580118000507354736328125"/>
            <parameter index="21" name="EQ Band 5 Q" parameterValue="0.000199989997781813144683837890625"/>
            <parameter index="22" name="EQ Band 5 Gain" parameterValue="0.5"/>
            <parameter index="23" name="EQ Band 5 Enable" parameterValue="1"/>
            <parameter index="24" name="Gain" parameterValue="0.666666686534881591796875"/>
            <parameter index="25" name="ConstantQ" parameterValue="1"/>
            <parameter index="26" name="Low Shelf Filter Order" parameterValue="0"/>
            <parameter index="27" name="High Shelf Filter Order" parameterValue="0"/>
            <parameter index="28" name="Ultra-Quiet Mode" parameterValue="0"/>
            <parameter index="29" name="Low Shelf Enable" parameterValue="1"/>
            <parameter index="30" name="High Shelf Enable" parameterValue="1"/>
            <parameter index="31" name="Original Sample Rate" parameterValue="0.22968749701976776123046875"/>
            <parameter index="32" name="EQ Band 1 Bandwidth" parameterValue="0.002499990165233612060546875"/>
            <parameter index="33" name="EQ Band 2 Bandwidth" parameterValue="0.0099999904632568359375"/>
            <parameter index="34" name="EQ Band 3 Bandwidth" parameterValue="0.0399999916553497314453125"/>
            <parameter index="35" name="EQ Band 4 Bandwidth" parameterValue="0.15999998152256011962890625"/>
            <parameter index="36" name="EQ Band 5 Bandwidth" parameterValue="0.63999998569488525390625"/>
            <parameter index="37" name="High-Pass Filter Enable" parameterValue="0"/>
            <parameter index="38" name="High-Pass Cutoff Frequency" parameterValue="0"/>
            <parameter index="39" name="High-Pass Slope" parameterValue="0.4000000059604644775390625"/>
            <parameter index="40" name="Low-Pass Filter Enable" parameterValue="0"/>
            <parameter index="41" name="Low-Pass Cutoff Frequency" parameterValue="0.906945049762725830078125"/>
            <parameter index="42" name="Low-Pass Slope" parameterValue="0.4000000059604644775390625"/>
            <parameter index="43" name="Bypass" parameterValue="0"/>
            <parameter index="44" name="LowGraphRange" parameterValue="1"/>
          </component>
        </trackAudioParameters>
        <editParameter parameterIndex="0" slotIndex="4294967280"/>
      </audioTrack>
      <busTrack automationLaneOpenState="false" id="10007" index="6" select="false" visible="true">
        <trackParameters trackHeight="229" trackHue="-1" trackMinimized="false">
          <name>Vocals</name>
        </trackParameters>
        <trackAudioParameters audioChannelType="stereo" automationMode="1" monitoring="false" recordArmed="false" solo="false" soloSafe="true">
          <trackOutput outputID="10000" type="trackID"/>
          <trackInput inputID="-1"/>
          <component componentGuid="6446f557-ab05-44ef-9309-28b4a8ebf8c3" componentID="Audition.Fader" id="trackFader" name="volume" powered="true">
            <parameter index="0" name="volume" parameterValue="1"/>
            <parameter index="1" name="static gain" parameterValue="1"/>
          </component>
          <component componentGuid="e4e09ab4-2c23-4d60-aa6c-bc9894401bc0" componentID="Audition.Mute" id="trackMute" name="Mute" powered="true">
            <parameter index="0" parameterValue="0"/>
            <parameter index="1" name="mute" parameterValue="0"/>
          </component>
          <component componentGuid="08a951fe-9958-45c6-854c-6715b3967831" componentID="Audition.StereoPanner" id="trackPan" name="StereoPanner" powered="true">
            <parameter index="0" name="Pan" parameterValue="0"/>
          </component>
          <component componentGuid="753352bf-949e-4453-b1cb-199bfaedc790" componentID="Audition.EQ" id="trackEQ" name="EQ" powered="false">
            <parameter index="0" name="Low Shelf Frequency" parameterValue="0.0009078529546968638896942138671875"/>
            <parameter index="1" name="Low Shelf Gain" parameterValue="0.5"/>
            <parameter index="2" name="High Shelf Frequency" parameterValue="0.816159784793853759765625"/>
            <parameter index="3" name="High Shelf Gain" parameterValue="0.5"/>
            <parameter index="4" name="EQ Band 1 Center Frequency" parameterValue="0.0013617794029414653778076171875"/>
            <parameter index="5" name="EQ Band 1 Q" parameterValue="0.000199989997781813144683837890625"/>
            <parameter index="6" name="EQ Band 1 Gain" parameterValue="0.5"/>
            <parameter index="7" name="EQ Band 1 Enable" parameterValue="1"/>
            <parameter index="8" name="EQ Band 2 Center Frequency" parameterValue="0.008170676417648792266845703125"/>
            <parameter index="9" name="EQ Band 2 Q" parameterValue="0.000199989997781813144683837890625"/>
            <parameter index="10" name="EQ Band 2 Gain" parameterValue="0.5"/>
            <parameter index="11" name="EQ Band 2 Enable" parameterValue="1"/>
            <parameter index="12" name="EQ Band 3 Center Frequency" parameterValue="0.0354062654078006744384765625"/>
            <parameter index="13" name="EQ Band 3 Q" parameterValue="0.000199989997781813144683837890625"/>
            <parameter index="14" name="EQ Band 3 Gain" parameterValue="0.5"/>
            <parameter index="15" name="EQ Band 3 Enable" parameterValue="1"/>
            <parameter index="16" name="EQ Band 4 Center Frequency" parameterValue="0.144348621368408203125"/>
            <parameter index="17" name="EQ Band 4 Q" parameterValue="0.000199989997781813144683837890625"/>
            <parameter index="18" name="EQ Band 4 Gain" parameterValue="0.5"/>
            <parameter index="19" name="EQ Band 4 Enable" parameterValue="1"/>
            <parameter index="20" name="EQ Band 5 Center Frequency" parameterValue="0.580118000507354736328125"/>
            <parameter index="21" name="EQ Band 5 Q" parameterValue="0.000199989997781813144683837890625"/>
            <parameter index="22" name="EQ Band 5 Gain" parameterValue="0.5"/>
            <parameter index="23" name="EQ Band 5 Enable" parameterValue="1"/>
            <parameter index="24" name="Gain" parameterValue="0.666666686534881591796875"/>
            <parameter index="25" name="ConstantQ" parameterValue="1"/>
            <parameter index="26" name="Low Shelf Filter Order" parameterValue="0"/>
            <parameter index="27" name="High Shelf Filter Order" parameterValue="0"/>
            <parameter index="28" name="Ultra-Quiet Mode" parameterValue="0"/>
            <parameter index="29" name="Low Shelf Enable" parameterValue="1"/>
            <parameter index="30" name="High Shelf Enable" parameterValue="1"/>
            <parameter index="31" name="Original Sample Rate" parameterValue="0.22968749701976776123046875"/>
            <parameter index="32" name="EQ Band 1 Bandwidth" parameterValue="0.002499990165233612060546875"/>
            <parameter index="33" name="EQ Band 2 Bandwidth" parameterValue="0.0099999904632568359375"/>
            <parameter index="34" name="EQ Band 3 Bandwidth" parameterValue="0.0399999916553497314453125"/>
            <parameter index="35" name="EQ Band 4 Bandwidth" parameterValue="0.15999998152256011962890625"/>
            <parameter index="36" name="EQ Band 5 Bandwidth" parameterValue="0.63999998569488525390625"/>
            <parameter index="37" name="High-Pass Filter Enable" parameterValue="0"/>
            <parameter index="38" name="High-Pass Cutoff Frequency" parameterValue="0"/>
            <parameter index="39" name="High-Pass Slope" parameterValue="0.4000000059604644775390625"/>
            <parameter index="40" name="Low-Pass Filter Enable" parameterValue="0"/>
            <parameter index="41" name="Low-Pass Cutoff Frequency" parameterValue="0.906945049762725830078125"/>
            <parameter index="42" name="Low-Pass Slope" parameterValue="0.4000000059604644775390625"/>
            <parameter index="43" name="Bypass" parameterValue="0"/>
            <parameter index="44" name="LowGraphRange" parameterValue="1"/>
          </component>
        </trackAudioParameters>
        <effectsRack preFader="true">
          <component componentGuid="e5c7e9ec-de35-4c3d-8a6b-f77092daf818" componentID="Audition.ComponentGroup" id="rackMix" powered="true">
            <parameter index="0" parameterValue="0"/>
            <parameter index="1" parameterValue="0"/>
          </component>
          <component componentGuid="c8213566-ce0f-4636-a385-b8f36496fda1" id="rackInput" powered="true">
            <parameter index="0" parameterValue="1"/>
            <parameter index="1" parameterValue="0"/>
          </component>
          <component componentGuid="5a4d4280-7d78-4817-bbb5-9d74cfd163a4" id="rackOutput" powered="true">
            <parameter index="0" parameterValue="1"/>
            <parameter index="1" parameterValue="0"/>
          </component>
          <slot powered="true" slotIndex="0">
            <component componentGuid="da724eb9-16fc-4446-96c5-225ea4ca2c65" componentID="e0b23f05-f1a7-4ef7-9b50-7ec3e3002058" editorHeight="376" editorLeft="729" editorTop="328" editorWidth="463" name="Hard Limiter" presetName="Limit to -3dB">
              <busConfig><![CDATA[{"in":[{"layout":[100,101],"name":"","type":0}],"out":[{"layout":[100,101],"name":"","type":0}]}]]></busConfig>
              <parameter index="0" name="Maximum Amplitude" parameterValue="0.9700000286102294921875"/>
              <parameter index="1" name="Input Boost" parameterValue="0.666666686534881591796875"/>
              <parameter index="2" name="Look-Ahead Time" parameterValue="0.13333301246166229248046875"/>
              <parameter index="3" name="Release Time" parameterValue="0.375"/>
              <parameter index="4" name="Link Channels" parameterValue="1"/>
              <parameter index="5" name="Decay to Ceiling" parameterValue="1"/>
              <parameter index="6" name="Limit True Peak" parameterValue="1"/>
            </component>
          </slot>
        </effectsRack>
        <editParameter parameterIndex="0" slotIndex="4294967280"/>
      </busTrack>
      <masterTrack automationLaneOpenState="false" id="10000" index="8" select="false" visible="true">
        <trackParameters trackHeight="229" trackHue="-1" trackMinimized="false">
          <name>Master</name>
        </trackParameters>
        <trackAudioParameters audioChannelType="stereo" automationMode="1" monitoring="false" recordArmed="false" solo="false" soloSafe="true">
          <trackOutput outputID="1" type="hardwareOutput"/>
          <trackInput inputID="-1"/>
          <component componentGuid="c03300c5-d148-46bf-80e7-054d27a4c46a" componentID="Audition.Fader" id="trackFader" name="volume" powered="true">
            <parameter index="0" name="volume" parameterValue="1"/>
            <parameter index="1" name="static gain" parameterValue="1"/>
          </component>
          <component componentGuid="e61a284a-1a3e-4b6f-bfc4-69383c359341" componentID="Audition.Mute" id="trackMute" name="Mute" powered="true">
            <parameter index="0" parameterValue="0"/>
            <parameter index="1" name="mute" parameterValue="0"/>
          </component>
          <component componentGuid="32ebefb2-3e66-455e-859a-9ed2096f24b0" componentID="Audition.StereoPanner" id="trackPan" name="StereoPanner" powered="true">
            <parameter index="0" name="Pan" parameterValue="0"/>
          </component>
          <component componentGuid="2b0ac886-6b9f-43b4-a2b4-70c86d262226" componentID="Audition.EQ" id="trackEQ" name="EQ" powered="false">
            <parameter index="0" name="Low Shelf Frequency" parameterValue="0.0009078529546968638896942138671875"/>
            <parameter index="1" name="Low Shelf Gain" parameterValue="0.5"/>
            <parameter index="2" name="High Shelf Frequency" parameterValue="0.816159784793853759765625"/>
            <parameter index="3" name="High Shelf Gain" parameterValue="0.5"/>
            <parameter index="4" name="EQ Band 1 Center Frequency" parameterValue="0.0013617794029414653778076171875"/>
            <parameter index="5" name="EQ Band 1 Q" parameterValue="0.000199989997781813144683837890625"/>
            <parameter index="6" name="EQ Band 1 Gain" parameterValue="0.5"/>
            <parameter index="7" name="EQ Band 1 Enable" parameterValue="1"/>
            <parameter index="8" name="EQ Band 2 Center Frequency" parameterValue="0.008170676417648792266845703125"/>
            <parameter index="9" name="EQ Band 2 Q" parameterValue="0.000199989997781813144683837890625"/>
            <parameter index="10" name="EQ Band 2 Gain" parameterValue="0.5"/>
            <parameter index="11" name="EQ Band 2 Enable" parameterValue="1"/>
            <parameter index="12" name="EQ Band 3 Center Frequency" parameterValue="0.0354062654078006744384765625"/>
            <parameter index="13" name="EQ Band 3 Q" parameterValue="0.000199989997781813144683837890625"/>
            <parameter index="14" name="EQ Band 3 Gain" parameterValue="0.5"/>
            <parameter index="15" name="EQ Band 3 Enable" parameterValue="1"/>
            <parameter index="16" name="EQ Band 4 Center Frequency" parameterValue="0.144348621368408203125"/>
            <parameter index="17" name="EQ Band 4 Q" parameterValue="0.000199989997781813144683837890625"/>
            <parameter index="18" name="EQ Band 4 Gain" parameterValue="0.5"/>
            <parameter index="19" name="EQ Band 4 Enable" parameterValue="1"/>
            <parameter index="20" name="EQ Band 5 Center Frequency" parameterValue="0.580118000507354736328125"/>
            <parameter index="21" name="EQ Band 5 Q" parameterValue="0.000199989997781813144683837890625"/>
            <parameter index="22" name="EQ Band 5 Gain" parameterValue="0.5"/>
            <parameter index="23" name="EQ Band 5 Enable" parameterValue="1"/>
            <parameter index="24" name="Gain" parameterValue="0.666666686534881591796875"/>
            <parameter index="25" name="ConstantQ" parameterValue="1"/>
            <parameter index="26" name="Low Shelf Filter Order" parameterValue="0"/>
            <parameter index="27" name="High Shelf Filter Order" parameterValue="0"/>
            <parameter index="28" name="Ultra-Quiet Mode" parameterValue="0"/>
            <parameter index="29" name="Low Shelf Enable" parameterValue="1"/>
            <parameter index="30" name="High Shelf Enable" parameterValue="1"/>
            <parameter index="31" name="Original Sample Rate" parameterValue="0.22968749701976776123046875"/>
            <parameter index="32" name="EQ Band 1 Bandwidth" parameterValue="0.002499990165233612060546875"/>
            <parameter index="33" name="EQ Band 2 Bandwidth" parameterValue="0.0099999904632568359375"/>
            <parameter index="34" name="EQ Band 3 Bandwidth" parameterValue="0.0399999916553497314453125"/>
            <parameter index="35" name="EQ Band 4 Bandwidth" parameterValue="0.15999998152256011962890625"/>
            <parameter index="36" name="EQ Band 5 Bandwidth" parameterValue="0.63999998569488525390625"/>
            <parameter index="37" name="High-Pass Filter Enable" parameterValue="0"/>
            <parameter index="38" name="High-Pass Cutoff Frequency" parameterValue="0"/>
            <parameter index="39" name="High-Pass Slope" parameterValue="0.4000000059604644775390625"/>
            <parameter index="40" name="Low-Pass Filter Enable" parameterValue="0"/>
            <parameter index="41" name="Low-Pass Cutoff Frequency" parameterValue="0.906945049762725830078125"/>
            <parameter index="42" name="Low-Pass Slope" parameterValue="0.4000000059604644775390625"/>
            <parameter index="43" name="Bypass" parameterValue="0"/>
            <parameter index="44" name="LowGraphRange" parameterValue="1"/>
          </component>
        </trackAudioParameters>
        <editParameter parameterIndex="0" slotIndex="4294967280"/>
      </masterTrack>
    </tracks>
    <sessionState ctiPosition="27524" smpteStart="0">
      <selectionState selectionDuration="0" selectionStart="27524"/>
      <viewState horizontalViewDuration="1370496" horizontalViewStart="1063" trackControlsWidth="224" verticalScrollOffset="0"/>
      <timeFormatState beatsPerBar="4" beatsPerMinute="120" customFrameRate="12" linkToDefaultTimeSettings="true" noteLength="4" subdivisions="16" timeCodeDropFrame="false" timeCodeFrameRate="30" timeCodeNTSC="false" timeFormat="timeFormatDecimal"/>
      <mixingOptionState defaultPanModeLogarithmic="false" panPower="-3" playOverlappingClips="false"/>
    </sessionState>
    <xmpMetadata><![CDATA[<?xpacket begin="﻿" id="W5M0MpCehiHzreSzNTczkc9d"?>
<x:xmpmeta xmlns:x="adobe:ns:meta/" x:xmptk="Adobe XMP Core 9.0-c001 152.deb9585, 2024/02/06-08:36:10        ">
   <rdf:RDF xmlns:rdf="http://www.w3.org/1999/02/22-rdf-syntax-ns#">
      <rdf:Description rdf:about=""
            xmlns:xmp="http://ns.adobe.com/xap/1.0/"
            xmlns:xmpDM="http://ns.adobe.com/xmp/1.0/DynamicMedia/"
            xmlns:xmpMM="http://ns.adobe.com/xap/1.0/mm/"
            xmlns:stEvt="http://ns.adobe.com/xap/1.0/sType/ResourceEvent#"
            xmlns:stRef="http://ns.adobe.com/xap/1.0/sType/ResourceRef#"
            xmlns:dc="http://purl.org/dc/elements/1.1/">
         <xmp:CreatorTool>Adobe Audition 13.0 (Windows)</xmp:CreatorTool>
         <xmp:CreateDate>2020-03-11T18:52:20-04:00</xmp:CreateDate>
         <xmp:MetadataDate>2024-09-27T17:52:55-07:00</xmp:MetadataDate>
         <xmp:ModifyDate>2024-09-27T17:52:55-07:00</xmp:ModifyDate>
         <xmpDM:artist>Greg Uttinger &amp; Emily Maxson</xmpDM:artist>
         <xmpDM:album>Halting Toward Zion</xmpDM:album>
         <xmpDM:genre>Theology</xmpDM:genre>
         <xmpDM:trackNumber>208</xmpDM:trackNumber>
         <xmpDM:Tracks>
            <rdf:Bag>
               <rdf:li rdf:parseType="Resource">
                  <xmpDM:trackName>CuePoint Markers</xmpDM:trackName>
                  <xmpDM:trackType>Cue</xmpDM:trackType>
                  <xmpDM:frameRate>f44100</xmpDM:frameRate>
               </rdf:li>
               <rdf:li rdf:parseType="Resource">
                  <xmpDM:trackName>CD Track Markers</xmpDM:trackName>
                  <xmpDM:trackType>Track</xmpDM:trackType>
                  <xmpDM:frameRate>f44100</xmpDM:frameRate>
               </rdf:li>
               <rdf:li rdf:parseType="Resource">
                  <xmpDM:trackName>Subclip Markers</xmpDM:trackName>
                  <xmpDM:trackType>InOut</xmpDM:trackType>
                  <xmpDM:frameRate>f44100</xmpDM:frameRate>
               </rdf:li>
            </rdf:Bag>
         </xmpDM:Tracks>
         <xmpMM:InstanceID>xmp.iid:60ca905b-61de-2d44-a168-1a4f3dfc9baf</xmpMM:InstanceID>
         <xmpMM:DocumentID>xmp.did:b1e40236-fb67-704c-8f00-733ab3d8c927</xmpMM:DocumentID>
         <xmpMM:OriginalDocumentID>xmp.did:e5e4c6f3-fd77-0e44-9869-a7b57b15fe61</xmpMM:OriginalDocumentID>
         <xmpMM:History>
            <rdf:Seq>
               <rdf:li rdf:parseType="Resource">
                  <stEvt:action>saved</stEvt:action>
                  <stEvt:instanceID>xmp.iid:e5e4c6f3-fd77-0e44-9869-a7b57b15fe61</stEvt:instanceID>
                  <stEvt:when>2020-03-11T18:52:20-04:00</stEvt:when>
                  <stEvt:softwareAgent>Adobe Audition 13.0 (Windows)</stEvt:softwareAgent>
                  <stEvt:changed>/metadata</stEvt:changed>
               </rdf:li>
               <rdf:li rdf:parseType="Resource">
                  <stEvt:action>saved</stEvt:action>
                  <stEvt:instanceID>xmp.iid:d86eb2bb-5c91-bd4c-a01d-76c9e02ec9be</stEvt:instanceID>
                  <stEvt:when>2020-03-11T18:56:11-04:00</stEvt:when>
                  <stEvt:softwareAgent>Adobe Audition 13.0 (Windows)</stEvt:softwareAgent>
                  <stEvt:changed>/metadata</stEvt:changed>
               </rdf:li>
               <rdf:li rdf:parseType="Resource">
                  <stEvt:action>saved</stEvt:action>
                  <stEvt:instanceID>xmp.iid:4bb96853-a008-5c4f-9849-69f1f48cae01</stEvt:instanceID>
                  <stEvt:when>2020-03-11T18:56:11-04:00</stEvt:when>
                  <stEvt:softwareAgent>Adobe Audition 13.0 (Windows)</stEvt:softwareAgent>
                  <stEvt:changed>/</stEvt:changed>
               </rdf:li>
               <rdf:li rdf:parseType="Resource">
                  <stEvt:action>saved</stEvt:action>
                  <stEvt:instanceID>xmp.iid:f3bd711e-efea-034c-a5c0-3bb8f1a68dd8</stEvt:instanceID>
                  <stEvt:when>2020-03-11T18:56:17-04:00</stEvt:when>
                  <stEvt:softwareAgent>Adobe Audition 13.0 (Windows)</stEvt:softwareAgent>
                  <stEvt:changed>/metadata</stEvt:changed>
               </rdf:li>
               <rdf:li rdf:parseType="Resource">
                  <stEvt:action>saved</stEvt:action>
                  <stEvt:instanceID>xmp.iid:c144169f-59f2-ab46-8cbc-18992f1c0e16</stEvt:instanceID>
                  <stEvt:when>2020-03-11T18:56:17-04:00</stEvt:when>
                  <stEvt:softwareAgent>Adobe Audition 13.0 (Windows)</stEvt:softwareAgent>
                  <stEvt:changed>/</stEvt:changed>
               </rdf:li>
               <rdf:li rdf:parseType="Resource">
                  <stEvt:action>saved</stEvt:action>
                  <stEvt:instanceID>xmp.iid:454a9ce6-82d2-e34c-8938-efe5520308dc</stEvt:instanceID>
                  <stEvt:when>2022-01-17T10:57:44-08:00</stEvt:when>
                  <stEvt:softwareAgent>Adobe Audition 22.1 (Windows)</stEvt:softwareAgent>
                  <stEvt:changed>/metadata</stEvt:changed>
               </rdf:li>
               <rdf:li rdf:parseType="Resource">
                  <stEvt:action>saved</stEvt:action>
                  <stEvt:instanceID>xmp.iid:36d3ef66-8a07-9143-9843-78a7f46a3e8f</stEvt:instanceID>
                  <stEvt:when>2022-01-17T10:57:44-08:00</stEvt:when>
                  <stEvt:softwareAgent>Adobe Audition 22.1 (Windows)</stEvt:softwareAgent>
                  <stEvt:changed>/</stEvt:changed>
               </rdf:li>
               <rdf:li rdf:parseType="Resource">
                  <stEvt:action>saved</stEvt:action>
                  <stEvt:instanceID>xmp.iid:b19f513f-20f8-ed4a-9248-43344f1eb003</stEvt:instanceID>
                  <stEvt:when>2022-01-17T10:58:51-08:00</stEvt:when>
                  <stEvt:softwareAgent>Adobe Audition 22.1 (Windows)</stEvt:softwareAgent>
                  <stEvt:changed>/metadata</stEvt:changed>
               </rdf:li>
               <rdf:li rdf:parseType="Resource">
                  <stEvt:action>saved</stEvt:action>
                  <stEvt:instanceID>xmp.iid:b1e40236-fb67-704c-8f00-733ab3d8c927</stEvt:instanceID>
                  <stEvt:when>2022-01-17T10:58:51-08:00</stEvt:when>
                  <stEvt:softwareAgent>Adobe Audition 22.1 (Windows)</stEvt:softwareAgent>
                  <stEvt:changed>/</stEvt:changed>
               </rdf:li>
               <rdf:li rdf:parseType="Resource">
                  <stEvt:action>saved</stEvt:action>
                  <stEvt:instanceID>xmp.iid:17cf0e95-014e-ca4d-808c-5f71b72f6179</stEvt:instanceID>
                  <stEvt:when>2023-01-27T17:42:45-08:00</stEvt:when>
                  <stEvt:softwareAgent>Adobe Audition 23.1 (Windows)</stEvt:softwareAgent>
                  <stEvt:changed>/metadata</stEvt:changed>
               </rdf:li>
               <rdf:li rdf:parseType="Resource">
                  <stEvt:action>saved</stEvt:action>
                  <stEvt:instanceID>xmp.iid:361b9772-d905-5a42-8b5e-7334ac5db2de</stEvt:instanceID>
                  <stEvt:when>2023-01-27T17:42:45-08:00</stEvt:when>
                  <stEvt:softwareAgent>Adobe Audition 23.1 (Windows)</stEvt:softwareAgent>
                  <stEvt:changed>/</stEvt:changed>
               </rdf:li>
               <rdf:li rdf:parseType="Resource">
                  <stEvt:action>saved</stEvt:action>
                  <stEvt:instanceID>xmp.iid:7b4472ff-09bc-8e4f-b41e-bfdc7992ca12</stEvt:instanceID>
                  <stEvt:when>2023-03-25T10:46-07:00</stEvt:when>
                  <stEvt:softwareAgent>Adobe Audition 23.2 (Windows)</stEvt:softwareAgent>
                  <stEvt:changed>/metadata</stEvt:changed>
               </rdf:li>
               <rdf:li rdf:parseType="Resource">
                  <stEvt:action>saved</stEvt:action>
                  <stEvt:instanceID>xmp.iid:610bb930-27ad-1244-b3db-aeb766b83989</stEvt:instanceID>
                  <stEvt:when>2023-03-25T10:46-07:00</stEvt:when>
                  <stEvt:softwareAgent>Adobe Audition 23.2 (Windows)</stEvt:softwareAgent>
                  <stEvt:changed>/</stEvt:changed>
               </rdf:li>
               <rdf:li rdf:parseType="Resource">
                  <stEvt:action>saved</stEvt:action>
                  <stEvt:instanceID>xmp.iid:c0054682-6d42-dd42-b169-6d4b2b626caf</stEvt:instanceID>
                  <stEvt:when>2023-11-02T20:26:49-07:00</stEvt:when>
                  <stEvt:softwareAgent>Adobe Audition 24.0 (Windows)</stEvt:softwareAgent>
                  <stEvt:changed>/metadata</stEvt:changed>
               </rdf:li>
               <rdf:li rdf:parseType="Resource">
                  <stEvt:action>saved</stEvt:action>
                  <stEvt:instanceID>xmp.iid:d3520deb-f30c-414c-bb56-78b424ae0ac0</stEvt:instanceID>
                  <stEvt:when>2023-11-02T20:26:49-07:00</stEvt:when>
                  <stEvt:softwareAgent>Adobe Audition 24.0 (Windows)</stEvt:softwareAgent>
                  <stEvt:changed>/</stEvt:changed>
               </rdf:li>
               <rdf:li rdf:parseType="Resource">
                  <stEvt:action>saved</stEvt:action>
                  <stEvt:instanceID>xmp.iid:4de8cbae-f9cf-ab4e-a658-fde15070bffd</stEvt:instanceID>
                  <stEvt:when>2024-09-27T15:34:26-07:00</stEvt:when>
                  <stEvt:softwareAgent>Adobe Audition 24.6 (Windows)</stEvt:softwareAgent>
                  <stEvt:changed>/metadata</stEvt:changed>
               </rdf:li>
               <rdf:li rdf:parseType="Resource">
                  <stEvt:action>saved</stEvt:action>
                  <stEvt:instanceID>xmp.iid:2abc248b-e6fd-fb4a-b4f9-9ff471d9da49</stEvt:instanceID>
                  <stEvt:when>2024-09-27T15:34:26-07:00</stEvt:when>
                  <stEvt:softwareAgent>Adobe Audition 24.6 (Windows)</stEvt:softwareAgent>
                  <stEvt:changed>/</stEvt:changed>
               </rdf:li>
               <rdf:li rdf:parseType="Resource">
                  <stEvt:action>saved</stEvt:action>
                  <stEvt:instanceID>xmp.iid:2ec3ed12-9ad7-6948-8662-7c00ef8eecb8</stEvt:instanceID>
                  <stEvt:when>2024-09-27T15:35:08-07:00</stEvt:when>
                  <stEvt:softwareAgent>Adobe Audition 24.6 (Windows)</stEvt:softwareAgent>
                  <stEvt:changed>/metadata</stEvt:changed>
               </rdf:li>
               <rdf:li rdf:parseType="Resource">
                  <stEvt:action>saved</stEvt:action>
                  <stEvt:instanceID>xmp.iid:98e4f20b-4e79-9543-8b9e-d2cdf43f1804</stEvt:instanceID>
                  <stEvt:when>2024-09-27T15:35:08-07:00</stEvt:when>
                  <stEvt:softwareAgent>Adobe Audition 24.6 (Windows)</stEvt:softwareAgent>
                  <stEvt:changed>/</stEvt:changed>
               </rdf:li>
               <rdf:li rdf:parseType="Resource">
                  <stEvt:action>saved</stEvt:action>
                  <stEvt:instanceID>xmp.iid:a94f7bd7-4071-6f41-ac6b-1589a458d9c5</stEvt:instanceID>
                  <stEvt:when>2024-09-27T15:36:07-07:00</stEvt:when>
                  <stEvt:softwareAgent>Adobe Audition 24.6 (Windows)</stEvt:softwareAgent>
                  <stEvt:changed>/metadata</stEvt:changed>
               </rdf:li>
               <rdf:li rdf:parseType="Resource">
                  <stEvt:action>saved</stEvt:action>
                  <stEvt:instanceID>xmp.iid:85590689-719b-d544-b1fb-ff4ad3002667</stEvt:instanceID>
                  <stEvt:when>2024-09-27T15:36:07-07:00</stEvt:when>
                  <stEvt:softwareAgent>Adobe Audition 24.6 (Windows)</stEvt:softwareAgent>
                  <stEvt:changed>/</stEvt:changed>
               </rdf:li>
               <rdf:li rdf:parseType="Resource">
                  <stEvt:action>saved</stEvt:action>
                  <stEvt:instanceID>xmp.iid:6241e308-b187-d641-a30a-a2e492752a08</stEvt:instanceID>
                  <stEvt:when>2024-09-27T15:41:19-07:00</stEvt:when>
                  <stEvt:softwareAgent>Adobe Audition 24.6 (Windows)</stEvt:softwareAgent>
                  <stEvt:changed>/metadata</stEvt:changed>
               </rdf:li>
               <rdf:li rdf:parseType="Resource">
                  <stEvt:action>saved</stEvt:action>
                  <stEvt:instanceID>xmp.iid:7bf7db8d-0f93-e945-9b8b-3081c4c19d77</stEvt:instanceID>
                  <stEvt:when>2024-09-27T15:41:19-07:00</stEvt:when>
                  <stEvt:softwareAgent>Adobe Audition 24.6 (Windows)</stEvt:softwareAgent>
                  <stEvt:changed>/</stEvt:changed>
               </rdf:li>
               <rdf:li rdf:parseType="Resource">
                  <stEvt:action>saved</stEvt:action>
                  <stEvt:instanceID>xmp.iid:dbe52f62-b9e3-ba42-a3f0-218d932519bd</stEvt:instanceID>
                  <stEvt:when>2024-09-27T15:41:47-07:00</stEvt:when>
                  <stEvt:softwareAgent>Adobe Audition 24.6 (Windows)</stEvt:softwareAgent>
                  <stEvt:changed>/metadata</stEvt:changed>
               </rdf:li>
               <rdf:li rdf:parseType="Resource">
                  <stEvt:action>saved</stEvt:action>
                  <stEvt:instanceID>xmp.iid:8fbc5110-9e6b-7a40-a660-1777992e9a63</stEvt:instanceID>
                  <stEvt:when>2024-09-27T15:41:47-07:00</stEvt:when>
                  <stEvt:softwareAgent>Adobe Audition 24.6 (Windows)</stEvt:softwareAgent>
                  <stEvt:changed>/</stEvt:changed>
               </rdf:li>
               <rdf:li rdf:parseType="Resource">
                  <stEvt:action>saved</stEvt:action>
                  <stEvt:instanceID>xmp.iid:1c25ea4a-9c7f-0640-8846-7c9c5615e4f6</stEvt:instanceID>
                  <stEvt:when>2024-09-27T15:43:54-07:00</stEvt:when>
                  <stEvt:softwareAgent>Adobe Audition 24.6 (Windows)</stEvt:softwareAgent>
                  <stEvt:changed>/metadata</stEvt:changed>
               </rdf:li>
               <rdf:li rdf:parseType="Resource">
                  <stEvt:action>saved</stEvt:action>
                  <stEvt:instanceID>xmp.iid:00ccfee0-079f-3643-b68f-ec982aa58cac</stEvt:instanceID>
                  <stEvt:when>2024-09-27T15:43:54-07:00</stEvt:when>
                  <stEvt:softwareAgent>Adobe Audition 24.6 (Windows)</stEvt:softwareAgent>
                  <stEvt:changed>/</stEvt:changed>
               </rdf:li>
               <rdf:li rdf:parseType="Resource">
                  <stEvt:action>saved</stEvt:action>
                  <stEvt:instanceID>xmp.iid:cacb4f05-30a7-5442-8509-c227d7a80600</stEvt:instanceID>
                  <stEvt:when>2024-09-27T15:44:04-07:00</stEvt:when>
                  <stEvt:softwareAgent>Adobe Audition 24.6 (Windows)</stEvt:softwareAgent>
                  <stEvt:changed>/metadata</stEvt:changed>
               </rdf:li>
               <rdf:li rdf:parseType="Resource">
                  <stEvt:action>saved</stEvt:action>
                  <stEvt:instanceID>xmp.iid:1ecf851b-acb3-7b40-b6d5-b393d32b1139</stEvt:instanceID>
                  <stEvt:when>2024-09-27T15:44:04-07:00</stEvt:when>
                  <stEvt:softwareAgent>Adobe Audition 24.6 (Windows)</stEvt:softwareAgent>
                  <stEvt:changed>/</stEvt:changed>
               </rdf:li>
               <rdf:li rdf:parseType="Resource">
                  <stEvt:action>saved</stEvt:action>
                  <stEvt:instanceID>xmp.iid:e5892854-b5b2-954f-a016-7671306d5bb0</stEvt:instanceID>
                  <stEvt:when>2024-09-27T15:51:51-07:00</stEvt:when>
                  <stEvt:softwareAgent>Adobe Audition 24.6 (Windows)</stEvt:softwareAgent>
                  <stEvt:changed>/metadata</stEvt:changed>
               </rdf:li>
               <rdf:li rdf:parseType="Resource">
                  <stEvt:action>saved</stEvt:action>
                  <stEvt:instanceID>xmp.iid:1b50e696-d73d-6941-a4f2-577ba5751320</stEvt:instanceID>
                  <stEvt:when>2024-09-27T15:51:51-07:00</stEvt:when>
                  <stEvt:softwareAgent>Adobe Audition 24.6 (Windows)</stEvt:softwareAgent>
                  <stEvt:changed>/</stEvt:changed>
               </rdf:li>
               <rdf:li rdf:parseType="Resource">
                  <stEvt:action>saved</stEvt:action>
                  <stEvt:instanceID>xmp.iid:b85895f9-9087-4f4a-8b06-1be21f261552</stEvt:instanceID>
                  <stEvt:when>2024-09-27T15:52:26-07:00</stEvt:when>
                  <stEvt:softwareAgent>Adobe Audition 24.6 (Windows)</stEvt:softwareAgent>
                  <stEvt:changed>/metadata</stEvt:changed>
               </rdf:li>
               <rdf:li rdf:parseType="Resource">
                  <stEvt:action>saved</stEvt:action>
                  <stEvt:instanceID>xmp.iid:27deebf4-31bd-bc4f-bdb9-b8fc80795fd5</stEvt:instanceID>
                  <stEvt:when>2024-09-27T15:52:26-07:00</stEvt:when>
                  <stEvt:softwareAgent>Adobe Audition 24.6 (Windows)</stEvt:softwareAgent>
                  <stEvt:changed>/</stEvt:changed>
               </rdf:li>
               <rdf:li rdf:parseType="Resource">
                  <stEvt:action>saved</stEvt:action>
                  <stEvt:instanceID>xmp.iid:72a0ad06-612f-384c-b780-a0768c39a426</stEvt:instanceID>
                  <stEvt:when>2024-09-27T15:53:13-07:00</stEvt:when>
                  <stEvt:softwareAgent>Adobe Audition 24.6 (Windows)</stEvt:softwareAgent>
                  <stEvt:changed>/metadata</stEvt:changed>
               </rdf:li>
               <rdf:li rdf:parseType="Resource">
                  <stEvt:action>saved</stEvt:action>
                  <stEvt:instanceID>xmp.iid:ee8c86d7-16c5-5f4f-a61f-452271bccc61</stEvt:instanceID>
                  <stEvt:when>2024-09-27T15:53:13-07:00</stEvt:when>
                  <stEvt:softwareAgent>Adobe Audition 24.6 (Windows)</stEvt:softwareAgent>
                  <stEvt:changed>/</stEvt:changed>
               </rdf:li>
               <rdf:li rdf:parseType="Resource">
                  <stEvt:action>saved</stEvt:action>
                  <stEvt:instanceID>xmp.iid:c6283912-5cf9-4741-aabd-183d25a573f6</stEvt:instanceID>
                  <stEvt:when>2024-09-27T15:55:23-07:00</stEvt:when>
                  <stEvt:softwareAgent>Adobe Audition 24.6 (Windows)</stEvt:softwareAgent>
                  <stEvt:changed>/metadata</stEvt:changed>
               </rdf:li>
               <rdf:li rdf:parseType="Resource">
                  <stEvt:action>saved</stEvt:action>
                  <stEvt:instanceID>xmp.iid:4763c269-ab47-2241-8443-1d05b0acee82</stEvt:instanceID>
                  <stEvt:when>2024-09-27T15:55:23-07:00</stEvt:when>
                  <stEvt:softwareAgent>Adobe Audition 24.6 (Windows)</stEvt:softwareAgent>
                  <stEvt:changed>/</stEvt:changed>
               </rdf:li>
               <rdf:li rdf:parseType="Resource">
                  <stEvt:action>saved</stEvt:action>
                  <stEvt:instanceID>xmp.iid:19971d03-96b4-4247-8658-d62b6c13570d</stEvt:instanceID>
                  <stEvt:when>2024-09-27T15:58:55-07:00</stEvt:when>
                  <stEvt:softwareAgent>Adobe Audition 24.6 (Windows)</stEvt:softwareAgent>
                  <stEvt:changed>/metadata</stEvt:changed>
               </rdf:li>
               <rdf:li rdf:parseType="Resource">
                  <stEvt:action>saved</stEvt:action>
                  <stEvt:instanceID>xmp.iid:3efbc34a-206a-8641-9c91-242f2f1e91f7</stEvt:instanceID>
                  <stEvt:when>2024-09-27T15:58:55-07:00</stEvt:when>
                  <stEvt:softwareAgent>Adobe Audition 24.6 (Windows)</stEvt:softwareAgent>
                  <stEvt:changed>/</stEvt:changed>
               </rdf:li>
               <rdf:li rdf:parseType="Resource">
                  <stEvt:action>saved</stEvt:action>
                  <stEvt:instanceID>xmp.iid:1e570a47-5003-8643-b28a-e7fb4a79f8d2</stEvt:instanceID>
                  <stEvt:when>2024-09-27T16:09:03-07:00</stEvt:when>
                  <stEvt:softwareAgent>Adobe Audition 24.6 (Windows)</stEvt:softwareAgent>
                  <stEvt:changed>/metadata</stEvt:changed>
               </rdf:li>
               <rdf:li rdf:parseType="Resource">
                  <stEvt:action>saved</stEvt:action>
                  <stEvt:instanceID>xmp.iid:eeb6ff80-6fdf-5b47-84fa-38b138c5255d</stEvt:instanceID>
                  <stEvt:when>2024-09-27T16:09:03-07:00</stEvt:when>
                  <stEvt:softwareAgent>Adobe Audition 24.6 (Windows)</stEvt:softwareAgent>
                  <stEvt:changed>/</stEvt:changed>
               </rdf:li>
               <rdf:li rdf:parseType="Resource">
                  <stEvt:action>saved</stEvt:action>
                  <stEvt:instanceID>xmp.iid:7cbb9d6b-4a1f-9946-97f3-4bebf637b98c</stEvt:instanceID>
                  <stEvt:when>2024-09-27T16:19:36-07:00</stEvt:when>
                  <stEvt:softwareAgent>Adobe Audition 24.6 (Windows)</stEvt:softwareAgent>
                  <stEvt:changed>/metadata</stEvt:changed>
               </rdf:li>
               <rdf:li rdf:parseType="Resource">
                  <stEvt:action>saved</stEvt:action>
                  <stEvt:instanceID>xmp.iid:26c84349-aded-0f40-af88-a00d57bffc30</stEvt:instanceID>
                  <stEvt:when>2024-09-27T16:19:36-07:00</stEvt:when>
                  <stEvt:softwareAgent>Adobe Audition 24.6 (Windows)</stEvt:softwareAgent>
                  <stEvt:changed>/</stEvt:changed>
               </rdf:li>
               <rdf:li rdf:parseType="Resource">
                  <stEvt:action>saved</stEvt:action>
                  <stEvt:instanceID>xmp.iid:c0ddd0ee-0e44-304e-a1fa-b308cb5dda76</stEvt:instanceID>
                  <stEvt:when>2024-09-27T16:26:39-07:00</stEvt:when>
                  <stEvt:softwareAgent>Adobe Audition 24.6 (Windows)</stEvt:softwareAgent>
                  <stEvt:changed>/metadata</stEvt:changed>
               </rdf:li>
               <rdf:li rdf:parseType="Resource">
                  <stEvt:action>saved</stEvt:action>
                  <stEvt:instanceID>xmp.iid:c5293817-008a-2c4b-b721-38f989877902</stEvt:instanceID>
                  <stEvt:when>2024-09-27T16:26:39-07:00</stEvt:when>
                  <stEvt:softwareAgent>Adobe Audition 24.6 (Windows)</stEvt:softwareAgent>
                  <stEvt:changed>/</stEvt:changed>
               </rdf:li>
               <rdf:li rdf:parseType="Resource">
                  <stEvt:action>saved</stEvt:action>
                  <stEvt:instanceID>xmp.iid:5defbbbf-e1d7-044c-b029-0ce872c35f8b</stEvt:instanceID>
                  <stEvt:when>2024-09-27T17:34:27-07:00</stEvt:when>
                  <stEvt:softwareAgent>Adobe Audition 24.6 (Windows)</stEvt:softwareAgent>
                  <stEvt:changed>/metadata</stEvt:changed>
               </rdf:li>
               <rdf:li rdf:parseType="Resource">
                  <stEvt:action>saved</stEvt:action>
                  <stEvt:instanceID>xmp.iid:37adc432-ede4-3c4f-bed2-c5d353399462</stEvt:instanceID>
                  <stEvt:when>2024-09-27T17:34:27-07:00</stEvt:when>
                  <stEvt:softwareAgent>Adobe Audition 24.6 (Windows)</stEvt:softwareAgent>
                  <stEvt:changed>/</stEvt:changed>
               </rdf:li>
               <rdf:li rdf:parseType="Resource">
                  <stEvt:action>saved</stEvt:action>
                  <stEvt:instanceID>xmp.iid:741a6ef8-e083-d040-8871-f8ec8eadc2cb</stEvt:instanceID>
                  <stEvt:when>2024-09-27T17:34:53-07:00</stEvt:when>
                  <stEvt:softwareAgent>Adobe Audition 24.6 (Windows)</stEvt:softwareAgent>
                  <stEvt:changed>/metadata</stEvt:changed>
               </rdf:li>
               <rdf:li rdf:parseType="Resource">
                  <stEvt:action>saved</stEvt:action>
                  <stEvt:instanceID>xmp.iid:d38d97d0-51cf-1b4e-9e21-7c30c6cd5403</stEvt:instanceID>
                  <stEvt:when>2024-09-27T17:34:53-07:00</stEvt:when>
                  <stEvt:softwareAgent>Adobe Audition 24.6 (Windows)</stEvt:softwareAgent>
                  <stEvt:changed>/</stEvt:changed>
               </rdf:li>
               <rdf:li rdf:parseType="Resource">
                  <stEvt:action>saved</stEvt:action>
                  <stEvt:instanceID>xmp.iid:2171baff-5b43-5442-8bdc-4bb02e4833db</stEvt:instanceID>
                  <stEvt:when>2024-09-27T17:35:33-07:00</stEvt:when>
                  <stEvt:softwareAgent>Adobe Audition 24.6 (Windows)</stEvt:softwareAgent>
                  <stEvt:changed>/metadata</stEvt:changed>
               </rdf:li>
               <rdf:li rdf:parseType="Resource">
                  <stEvt:action>saved</stEvt:action>
                  <stEvt:instanceID>xmp.iid:92c6d718-d93f-244c-bc25-65772c6ec320</stEvt:instanceID>
                  <stEvt:when>2024-09-27T17:35:33-07:00</stEvt:when>
                  <stEvt:softwareAgent>Adobe Audition 24.6 (Windows)</stEvt:softwareAgent>
                  <stEvt:changed>/</stEvt:changed>
               </rdf:li>
               <rdf:li rdf:parseType="Resource">
                  <stEvt:action>saved</stEvt:action>
                  <stEvt:instanceID>xmp.iid:2bf97c20-6d52-ec4b-a0d4-c29c5f9c7075</stEvt:instanceID>
                  <stEvt:when>2024-09-27T17:36:25-07:00</stEvt:when>
                  <stEvt:softwareAgent>Adobe Audition 24.6 (Windows)</stEvt:softwareAgent>
                  <stEvt:changed>/metadata</stEvt:changed>
               </rdf:li>
               <rdf:li rdf:parseType="Resource">
                  <stEvt:action>saved</stEvt:action>
                  <stEvt:instanceID>xmp.iid:1781336e-05c2-a844-b1e8-0db9f171e9f0</stEvt:instanceID>
                  <stEvt:when>2024-09-27T17:36:25-07:00</stEvt:when>
                  <stEvt:softwareAgent>Adobe Audition 24.6 (Windows)</stEvt:softwareAgent>
                  <stEvt:changed>/</stEvt:changed>
               </rdf:li>
               <rdf:li rdf:parseType="Resource">
                  <stEvt:action>saved</stEvt:action>
                  <stEvt:instanceID>xmp.iid:25ae0c0b-f73c-ac45-8a5d-788e4a9cc4cb</stEvt:instanceID>
                  <stEvt:when>2024-09-27T17:45:15-07:00</stEvt:when>
                  <stEvt:softwareAgent>Adobe Audition 24.6 (Windows)</stEvt:softwareAgent>
                  <stEvt:changed>/metadata</stEvt:changed>
               </rdf:li>
               <rdf:li rdf:parseType="Resource">
                  <stEvt:action>saved</stEvt:action>
                  <stEvt:instanceID>xmp.iid:f50d92f7-5e8c-7542-a88a-5342cde48b1a</stEvt:instanceID>
                  <stEvt:when>2024-09-27T17:45:15-07:00</stEvt:when>
                  <stEvt:softwareAgent>Adobe Audition 24.6 (Windows)</stEvt:softwareAgent>
                  <stEvt:changed>/</stEvt:changed>
               </rdf:li>
               <rdf:li rdf:parseType="Resource">
                  <stEvt:action>saved</stEvt:action>
                  <stEvt:instanceID>xmp.iid:0ff5d889-4de4-854b-9020-4de73f98df92</stEvt:instanceID>
                  <stEvt:when>2024-09-27T17:49:11-07:00</stEvt:when>
                  <stEvt:softwareAgent>Adobe Audition 24.6 (Windows)</stEvt:softwareAgent>
                  <stEvt:changed>/metadata</stEvt:changed>
               </rdf:li>
               <rdf:li rdf:parseType="Resource">
                  <stEvt:action>saved</stEvt:action>
                  <stEvt:instanceID>xmp.iid:a69165b1-4770-dd48-a94f-af34b261f6d3</stEvt:instanceID>
                  <stEvt:when>2024-09-27T17:49:11-07:00</stEvt:when>
                  <stEvt:softwareAgent>Adobe Audition 24.6 (Windows)</stEvt:softwareAgent>
                  <stEvt:changed>/</stEvt:changed>
               </rdf:li>
               <rdf:li rdf:parseType="Resource">
                  <stEvt:action>saved</stEvt:action>
                  <stEvt:instanceID>xmp.iid:d7687291-7d55-9e45-89c1-8b2e8112b6dc</stEvt:instanceID>
                  <stEvt:when>2024-09-27T17:49:18-07:00</stEvt:when>
                  <stEvt:softwareAgent>Adobe Audition 24.6 (Windows)</stEvt:softwareAgent>
                  <stEvt:changed>/metadata</stEvt:changed>
               </rdf:li>
               <rdf:li rdf:parseType="Resource">
                  <stEvt:action>saved</stEvt:action>
                  <stEvt:instanceID>xmp.iid:239ee1f1-8e3d-dd4f-9427-eda8e3f58fd5</stEvt:instanceID>
                  <stEvt:when>2024-09-27T17:49:18-07:00</stEvt:when>
                  <stEvt:softwareAgent>Adobe Audition 24.6 (Windows)</stEvt:softwareAgent>
                  <stEvt:changed>/</stEvt:changed>
               </rdf:li>
               <rdf:li rdf:parseType="Resource">
                  <stEvt:action>saved</stEvt:action>
                  <stEvt:instanceID>xmp.iid:4655e07d-0fac-6d4b-a2ba-3c50dc702108</stEvt:instanceID>
                  <stEvt:when>2024-09-27T17:49:43-07:00</stEvt:when>
                  <stEvt:softwareAgent>Adobe Audition 24.6 (Windows)</stEvt:softwareAgent>
                  <stEvt:changed>/metadata</stEvt:changed>
               </rdf:li>
               <rdf:li rdf:parseType="Resource">
                  <stEvt:action>saved</stEvt:action>
                  <stEvt:instanceID>xmp.iid:67c70c97-6238-9644-a2e5-976d19812c86</stEvt:instanceID>
                  <stEvt:when>2024-09-27T17:49:43-07:00</stEvt:when>
                  <stEvt:softwareAgent>Adobe Audition 24.6 (Windows)</stEvt:softwareAgent>
                  <stEvt:changed>/</stEvt:changed>
               </rdf:li>
               <rdf:li rdf:parseType="Resource">
                  <stEvt:action>saved</stEvt:action>
                  <stEvt:instanceID>xmp.iid:542000cc-4c6b-d342-8e39-e9085de29ad0</stEvt:instanceID>
                  <stEvt:when>2024-09-27T17:52:55-07:00</stEvt:when>
                  <stEvt:softwareAgent>Adobe Audition 24.6 (Windows)</stEvt:softwareAgent>
                  <stEvt:changed>/metadata</stEvt:changed>
               </rdf:li>
               <rdf:li rdf:parseType="Resource">
                  <stEvt:action>saved</stEvt:action>
                  <stEvt:instanceID>xmp.iid:60ca905b-61de-2d44-a168-1a4f3dfc9baf</stEvt:instanceID>
                  <stEvt:when>2024-09-27T17:52:55-07:00</stEvt:when>
                  <stEvt:softwareAgent>Adobe Audition 24.6 (Windows)</stEvt:softwareAgent>
                  <stEvt:changed>/</stEvt:changed>
               </rdf:li>
            </rdf:Seq>
         </xmpMM:History>
         <xmpMM:DerivedFrom rdf:parseType="Resource">
            <stRef:instanceID>xmp.iid:b19f513f-20f8-ed4a-9248-43344f1eb003</stRef:instanceID>
            <stRef:documentID>xmp.did:c144169f-59f2-ab46-8cbc-18992f1c0e16</stRef:documentID>
            <stRef:originalDocumentID>xmp.did:e5e4c6f3-fd77-0e44-9869-a7b57b15fe61</stRef:originalDocumentID>
         </xmpMM:DerivedFrom>
         <dc:format>application/xml</dc:format>
         <dc:title>
            <rdf:Alt>
               <rdf:li xml:lang="x-default">&lt;Title&gt;</rdf:li>
            </rdf:Alt>
         </dc:title>
      </rdf:Description>
   </rdf:RDF>
</x:xmpmeta>





















<?xpacket end="w"?>]]></xmpMetadata>
    <clipGroups>
      <clipGroup hue="292" id="0">
        <name>Group 44</name>
        <item clipID="21" trackID="10003"/>
        <item clipID="83" trackID="10002"/>
        <item clipID="19" trackID="10005"/>
      </clipGroup>
      <clipGroup hue="92" id="1">
        <name>Group 43</name>
        <item clipID="20" trackID="10003"/>
        <item clipID="18" trackID="10005"/>
      </clipGroup>
      <clipGroup hue="52" id="2">
        <name>Group 41</name>
        <item clipID="31" trackID="10001"/>
        <item clipID="30" trackID="10001"/>
        <item clipID="32" trackID="10001"/>
        <item clipID="33" trackID="10001"/>
        <item clipID="78" trackID="10002"/>
        <item clipID="81" trackID="10002"/>
        <item clipID="79" trackID="10002"/>
        <item clipID="80" trackID="10002"/>
        <item clipID="82" trackID="10002"/>
        <item clipID="19" trackID="10003"/>
        <item clipID="17" trackID="10003"/>
        <item clipID="16" trackID="10003"/>
        <item clipID="18" trackID="10003"/>
        <item clipID="77" trackID="10002"/>
        <item clipID="17" trackID="10005"/>
        <item clipID="29" trackID="10001"/>
      </clipGroup>
      <clipGroup hue="252" id="3">
        <name>Group 42</name>
        <item clipID="92" trackID="10002"/>
        <item clipID="84" trackID="10002"/>
        <item clipID="22" trackID="10003"/>
        <item clipID="35" trackID="10001"/>
        <item clipID="34" trackID="10001"/>
        <item clipID="36" trackID="10001"/>
        <item clipID="85" trackID="10002"/>
        <item clipID="86" trackID="10002"/>
        <item clipID="88" trackID="10002"/>
        <item clipID="89" trackID="10002"/>
        <item clipID="87" trackID="10002"/>
        <item clipID="90" trackID="10002"/>
        <item clipID="91" trackID="10002"/>
        <item clipID="93" trackID="10002"/>
        <item clipID="23" trackID="10003"/>
        <item clipID="24" trackID="10003"/>
        <item clipID="20" trackID="10005"/>
      </clipGroup>
      <clipGroup hue="12" id="4">
        <name>Group 39</name>
        <item clipID="26" trackID="10001"/>
        <item clipID="25" trackID="10001"/>
        <item clipID="23" trackID="10001"/>
        <item clipID="24" trackID="10001"/>
        <item clipID="27" trackID="10001"/>
        <item clipID="28" trackID="10001"/>
        <item clipID="57" trackID="10002"/>
        <item clipID="59" trackID="10002"/>
        <item clipID="56" trackID="10002"/>
        <item clipID="61" trackID="10002"/>
        <item clipID="60" trackID="10002"/>
        <item clipID="58" trackID="10002"/>
        <item clipID="63" trackID="10002"/>
        <item clipID="65" trackID="10002"/>
        <item clipID="70" trackID="10002"/>
        <item clipID="67" trackID="10002"/>
        <item clipID="68" trackID="10002"/>
        <item clipID="69" trackID="10002"/>
        <item clipID="64" trackID="10002"/>
        <item clipID="74" trackID="10002"/>
        <item clipID="71" trackID="10002"/>
        <item clipID="72" trackID="10002"/>
        <item clipID="76" trackID="10002"/>
        <item clipID="8" trackID="10003"/>
        <item clipID="15" trackID="10003"/>
        <item clipID="10" trackID="10003"/>
        <item clipID="11" trackID="10003"/>
        <item clipID="13" trackID="10003"/>
        <item clipID="12" trackID="10003"/>
        <item clipID="14" trackID="10003"/>
        <item clipID="66" trackID="10002"/>
        <item clipID="62" trackID="10002"/>
        <item clipID="73" trackID="10002"/>
        <item clipID="22" trackID="10001"/>
        <item clipID="75" trackID="10002"/>
        <item clipID="16" trackID="10005"/>
        <item clipID="9" trackID="10003"/>
      </clipGroup>
      <clipGroup hue="132" id="5">
        <name>Group 36</name>
        <item clipID="46" trackID="10002"/>
        <item clipID="51" trackID="10002"/>
        <item clipID="50" trackID="10002"/>
        <item clipID="47" trackID="10002"/>
        <item clipID="48" trackID="10002"/>
        <item clipID="49" trackID="10002"/>
        <item clipID="52" trackID="10002"/>
        <item clipID="54" trackID="10002"/>
        <item clipID="55" trackID="10002"/>
        <item clipID="7" trackID="10003"/>
        <item clipID="15" trackID="10005"/>
        <item clipID="21" trackID="10001"/>
        <item clipID="53" trackID="10002"/>
      </clipGroup>
      <clipGroup hue="92" id="6">
        <name>Group 34</name>
        <item clipID="20" trackID="10001"/>
        <item clipID="44" trackID="10002"/>
        <item clipID="14" trackID="10005"/>
        <item clipID="45" trackID="10002"/>
      </clipGroup>
      <clipGroup hue="252" id="7">
        <name>Group 33</name>
        <item clipID="19" trackID="10001"/>
        <item clipID="43" trackID="10002"/>
        <item clipID="42" trackID="10002"/>
        <item clipID="13" trackID="10005"/>
        <item clipID="18" trackID="10001"/>
      </clipGroup>
      <clipGroup hue="12" id="8">
        <name>Group 30</name>
        <item clipID="35" trackID="10002"/>
        <item clipID="36" trackID="10002"/>
        <item clipID="37" trackID="10002"/>
        <item clipID="38" trackID="10002"/>
        <item clipID="41" trackID="10002"/>
        <item clipID="40" trackID="10002"/>
        <item clipID="39" trackID="10002"/>
        <item clipID="12" trackID="10005"/>
        <item clipID="17" trackID="10001"/>
        <item clipID="34" trackID="10002"/>
      </clipGroup>
      <clipGroup hue="292" id="9">
        <name>Group 26</name>
        <item clipID="11" trackID="10005"/>
        <item clipID="16" trackID="10001"/>
      </clipGroup>
      <clipGroup hue="252" id="10">
        <name>Group 24</name>
        <item clipID="10" trackID="10005"/>
        <item clipID="15" trackID="10001"/>
      </clipGroup>
      <clipGroup hue="52" id="11">
        <name>Group 23</name>
        <item clipID="9" trackID="10005"/>
        <item clipID="14" trackID="10001"/>
      </clipGroup>
      <clipGroup hue="172" id="12">
        <name>Group 20</name>
        <item clipID="8" trackID="10005"/>
        <item clipID="13" trackID="10001"/>
      </clipGroup>
      <clipGroup hue="132" id="13">
        <name>Group 18</name>
        <item clipID="30" trackID="10002"/>
        <item clipID="32" trackID="10002"/>
        <item clipID="31" trackID="10002"/>
        <item clipID="12" trackID="10001"/>
        <item clipID="7" trackID="10005"/>
        <item clipID="33" trackID="10002"/>
      </clipGroup>
      <clipGroup hue="92" id="14">
        <name>Group 16</name>
        <item clipID="11" trackID="10001"/>
        <item clipID="6" trackID="10005"/>
      </clipGroup>
      <clipGroup hue="252" id="15">
        <name>Group 15</name>
        <item clipID="25" trackID="10002"/>
        <item clipID="26" trackID="10002"/>
        <item clipID="28" trackID="10002"/>
        <item clipID="27" trackID="10002"/>
        <item clipID="6" trackID="10003"/>
        <item clipID="5" trackID="10005"/>
        <item clipID="10" trackID="10001"/>
        <item clipID="29" trackID="10002"/>
      </clipGroup>
      <clipGroup hue="52" id="16">
        <name>Group 14</name>
        <item clipID="4" trackID="10002"/>
        <item clipID="7" trackID="10002"/>
        <item clipID="9" trackID="10002"/>
        <item clipID="6" trackID="10002"/>
        <item clipID="8" trackID="10002"/>
        <item clipID="10" trackID="10002"/>
        <item clipID="12" trackID="10002"/>
        <item clipID="14" trackID="10002"/>
        <item clipID="11" trackID="10002"/>
        <item clipID="15" trackID="10002"/>
        <item clipID="16" trackID="10002"/>
        <item clipID="13" trackID="10002"/>
        <item clipID="19" trackID="10002"/>
        <item clipID="17" trackID="10002"/>
        <item clipID="20" trackID="10002"/>
        <item clipID="24" trackID="10002"/>
        <item clipID="23" trackID="10002"/>
        <item clipID="21" trackID="10002"/>
        <item clipID="3" trackID="10003"/>
        <item clipID="4" trackID="10003"/>
        <item clipID="2" trackID="10003"/>
        <item clipID="5" trackID="10003"/>
        <item clipID="22" trackID="10002"/>
        <item clipID="5" trackID="10002"/>
        <item clipID="4" trackID="10005"/>
        <item clipID="8" trackID="10001"/>
        <item clipID="9" trackID="10001"/>
        <item clipID="18" trackID="10002"/>
      </clipGroup>
      <clipGroup hue="252" id="17">
        <name>Group 06</name>
        <item clipID="3" trackID="10005"/>
        <item clipID="7" trackID="10001"/>
      </clipGroup>
      <clipGroup hue="52" id="18">
        <name>Group 05</name>
        <item clipID="1" trackID="10003"/>
        <item clipID="2" trackID="10005"/>
        <item clipID="5" trackID="10001"/>
        <item clipID="6" trackID="10001"/>
      </clipGroup>
      <clipGroup hue="212" id="19">
        <name>Group 04</name>
        <item clipID="1" trackID="10005"/>
        <item clipID="0" trackID="10003"/>
        <item clipID="4" trackID="10001"/>
      </clipGroup>
      <clipGroup hue="12" id="20">
        <name>Group 03</name>
        <item clipID="2" trackID="10001"/>
        <item clipID="0" trackID="10001"/>
        <item clipID="1" trackID="10001"/>
        <item clipID="3" trackID="10001"/>
        <item clipID="1" trackID="10002"/>
        <item clipID="3" trackID="10002"/>
        <item clipID="2" trackID="10002"/>
        <item clipID="0" trackID="10005"/>
        <item clipID="0" trackID="10002"/>
      </clipGroup>
    </clipGroups>
    <metronome enabled="false" pattern="downBeat subdivision subdivision subdivision " soundSet="sticks">
      <metronomeTrack automationLaneOpenState="false" id="40000" index="0" select="false" visible="false">
        <trackParameters trackHeight="77" trackHue="-1" trackMinimized="false">
          <name>Metronome</name>
        </trackParameters>
        <trackAudioParameters audioChannelType="mono" automationMode="1" monitoring="false" recordArmed="false" solo="false" soloSafe="true">
          <trackOutput outputID="10000" type="trackID"/>
          <trackInput inputID="-1"/>
          <component componentGuid="e94f7f7f-1da8-4eb6-81fd-81bb3799e7e0" componentID="Audition.Fader" id="trackFader" name="volume" powered="true">
            <parameter index="0" name="volume" parameterValue="0.50118720531463623046875"/>
            <parameter index="1" name="static gain" parameterValue="1"/>
          </component>
          <component componentGuid="d854f582-4413-4b90-8420-982332b4f816" componentID="Audition.Mute" id="trackMute" name="Mute" powered="true">
            <parameter index="0" parameterValue="0"/>
            <parameter index="1" name="mute" parameterValue="0"/>
          </component>
          <component componentGuid="2f72bbd1-46a0-4869-9d9f-2530695c54a0" componentID="Audition.StereoPanner" id="trackPan" name="StereoPanner" powered="true">
            <parameter index="0" name="Pan" parameterValue="0"/>
          </component>
          <component componentGuid="88457eea-57e2-4e35-9b48-904af42e22b8" componentID="Audition.EQ" id="trackEQ" name="EQ" powered="false">
            <parameter index="0" name="Low Shelf Frequency" parameterValue="0.0009078529546968638896942138671875"/>
            <parameter index="1" name="Low Shelf Gain" parameterValue="0.5"/>
            <parameter index="2" name="High Shelf Frequency" parameterValue="0.816159784793853759765625"/>
            <parameter index="3" name="High Shelf Gain" parameterValue="0.5"/>
            <parameter index="4" name="EQ Band 1 Center Frequency" parameterValue="0.0013617794029414653778076171875"/>
            <parameter index="5" name="EQ Band 1 Q" parameterValue="0.000199989997781813144683837890625"/>
            <parameter index="6" name="EQ Band 1 Gain" parameterValue="0.5"/>
            <parameter index="7" name="EQ Band 1 Enable" parameterValue="1"/>
            <parameter index="8" name="EQ Band 2 Center Frequency" parameterValue="0.008170676417648792266845703125"/>
            <parameter index="9" name="EQ Band 2 Q" parameterValue="0.000199989997781813144683837890625"/>
            <parameter index="10" name="EQ Band 2 Gain" parameterValue="0.5"/>
            <parameter index="11" name="EQ Band 2 Enable" parameterValue="1"/>
            <parameter index="12" name="EQ Band 3 Center Frequency" parameterValue="0.0354062654078006744384765625"/>
            <parameter index="13" name="EQ Band 3 Q" parameterValue="0.000199989997781813144683837890625"/>
            <parameter index="14" name="EQ Band 3 Gain" parameterValue="0.5"/>
            <parameter index="15" name="EQ Band 3 Enable" parameterValue="1"/>
            <parameter index="16" name="EQ Band 4 Center Frequency" parameterValue="0.144348621368408203125"/>
            <parameter index="17" name="EQ Band 4 Q" parameterValue="0.000199989997781813144683837890625"/>
            <parameter index="18" name="EQ Band 4 Gain" parameterValue="0.5"/>
            <parameter index="19" name="EQ Band 4 Enable" parameterValue="1"/>
            <parameter index="20" name="EQ Band 5 Center Frequency" parameterValue="0.580118000507354736328125"/>
            <parameter index="21" name="EQ Band 5 Q" parameterValue="0.000199989997781813144683837890625"/>
            <parameter index="22" name="EQ Band 5 Gain" parameterValue="0.5"/>
            <parameter index="23" name="EQ Band 5 Enable" parameterValue="1"/>
            <parameter index="24" name="Gain" parameterValue="0.666666686534881591796875"/>
            <parameter index="25" name="ConstantQ" parameterValue="1"/>
            <parameter index="26" name="Low Shelf Filter Order" parameterValue="0"/>
            <parameter index="27" name="High Shelf Filter Order" parameterValue="0"/>
            <parameter index="28" name="Ultra-Quiet Mode" parameterValue="0"/>
            <parameter index="29" name="Low Shelf Enable" parameterValue="1"/>
            <parameter index="30" name="High Shelf Enable" parameterValue="1"/>
            <parameter index="31" name="Original Sample Rate" parameterValue="0.22968749701976776123046875"/>
            <parameter index="32" name="EQ Band 1 Bandwidth" parameterValue="0.002499990165233612060546875"/>
            <parameter index="33" name="EQ Band 2 Bandwidth" parameterValue="0.0099999904632568359375"/>
            <parameter index="34" name="EQ Band 3 Bandwidth" parameterValue="0.0399999916553497314453125"/>
            <parameter index="35" name="EQ Band 4 Bandwidth" parameterValue="0.15999998152256011962890625"/>
            <parameter index="36" name="EQ Band 5 Bandwidth" parameterValue="0.63999998569488525390625"/>
            <parameter index="37" name="High-Pass Filter Enable" parameterValue="0"/>
            <parameter index="38" name="High-Pass Cutoff Frequency" parameterValue="0"/>
            <parameter index="39" name="High-Pass Slope" parameterValue="0.4000000059604644775390625"/>
            <parameter index="40" name="Low-Pass Filter Enable" parameterValue="0"/>
            <parameter index="41" name="Low-Pass Cutoff Frequency" parameterValue="0.906945049762725830078125"/>
            <parameter index="42" name="Low-Pass Slope" parameterValue="0.4000000059604644775390625"/>
            <parameter index="43" name="Bypass" parameterValue="0"/>
            <parameter index="44" name="LowGraphRange" parameterValue="1"/>
          </component>
        </trackAudioParameters>
        <editParameter parameterIndex="0" slotIndex="4294967280"/>
      </metronomeTrack>
    </metronome>
    <properties>
      <property key="EssentialSoundConfigurations">[{"Guid":"a8b40e3e-13e7-4c1f-b382-96058f1f691d","Name":"$$$/app/Presets/DefaultPresetName=(Default)","PresetData":{"ModeID":"ambience","Models":{"model_ducking":{},"model_loudness":{"DefaultLoudness":{"type":"float","value":-30},"LoudnessStandard":{"type":"std::uint32_t","value":0},"MaxLoudness":{"type":"float","value":-12},"MinLoudness":{"type":"float","value":-42}},"model_soundeffects":{"ReverbPresets":{"type":"tree::any","value":{"$$$/app/Presets/EssentialSound/ReverbPreset/LargeRoomAmbience=Large Room Ambience":{"type":"array::float","value":[0.051507499068975449,0.32432401180267334,0.29292899370193481,0.30000001192092896,0.20000000298023224,0,0.14285700023174286,0.40000000596046448,0.5,0.69999998807907104,0.30000001192092896,0.25125628709793091,0.03125]},"$$$/app/Presets/EssentialSound/ReverbPreset/OutsideAmbience=Outside Ambience":{"type":"array::float","value":[0.091708503663539886,0.043893899768590927,1,0.5,0.20000000298023224,0.80000001192092896,0.18367299437522888,1,0.5,0,0.80000001192092896,0.25125628709793091,0.03125]},"$$$/app/Presets/EssentialSound/ReverbPreset/RoomAmbience=Room Ambience":{"type":"array::float","value":[0.057788901031017303,0.44944900274276733,0.49494898319244385,0.89999997615814209,0.10000000149011612,0.15000000596046448,0.081632703542709351,0.40000000596046448,0.5,0.80000001192092896,0.20000000298023224,0.25125628709793091,0.03125]},"$$$/app/Presets/EssentialSound/ReverbPreset/WindEffect=Wind Effect":{"type":"array::float","value":[0.19597999751567841,0.6896899938583374,0.69696998596191406,0.25,0.5,0.5,0.23469400405883789,0.51999998092651367,0.5,0.75,0.25,0.25125628709793091,0.03125]}}}},"model_stereowidth":{},"model_volume":{"MaxGain":{"type":"float","value":15},"MinGain":{"type":"float","value":-60}}},"Version":1},"Type":"1c19ca71-c24c-49cd-8dd5-2cc46018507a","Version":1},{"Guid":"58dc27a8-6a2a-480c-bd0c-4b45fff346a6","Name":"$$$/app/Presets/DefaultPresetName=(Default)","PresetData":{"ModeID":"dialog","Models":{"model_clarity":{"EQPresets":{"type":"tree::any","value":{"$$$/app/Presets/EssentialSound/EQPreset/BackgroundVoice=Background Voice":{"type":"array::float","value":[0.12099699676036835,0.5,0.39240506291389465,0,0.5,0.5,0.5,0.5,0.5,0.47827938199043274,0.45772689580917358,0.45778733491897583,0.47946760058403015,0.5,0]},"$$$/app/Presets/EssentialSound/EQPreset/Intercom=Intercom":{"type":"array::float","value":[0.19432899355888367,0.5,1,0,0.071499988436698914,0.071499988436698914,0.071499988436698914,0.40238627791404724,0.48571401834487915,0.5,0.55155748128890991,0.59602576494216919,0.22246670722961426,0.071499988436698914,0]},"$$$/app/Presets/EssentialSound/EQPreset/LockedInTheTrunk=Locked in the Trunk":{"type":"array::float","value":[0.12099699676036835,0.5,0.79746836423873901,0,0.5,0.5,0.5,0.5,0.5,0.32846158742904663,0.15721426904201508,0.15721426904201508,0.15721426904201508,0.15721426904201508,0]},"$$$/app/Presets/EssentialSound/EQPreset/OldRadio=Old Radio":{"type":"array::float","value":[0.12099699676036835,0.5,0.79746836423873901,0,0.15721426904201508,0.15721426904201508,0.15721426904201508,0.28442040085792542,0.48315632343292236,0.36498492956161499,0.52853888273239136,0.43511500954627991,0.27154684066772461,0.15721426904201508,0]},"$$$/app/Presets/EssentialSound/EQPreset/OnTheTelephone=On the Telephone":{"type":"array::float","value":[0.12099699676036835,0.5,0.39240506291389465,0,0.32864287495613098,0.32864287495613098,0.32864287495613098,0.32864287495613098,0.48571401834487915,0.53071397542953491,0.53071397542953491,0.48357096314430237,0.32864287495613098,0.32864287495613098,0]},"$$$/app/Presets/EssentialSound/EQPreset/OutsideOfTheRoom=Outside of the Room":{"type":"array::float","value":[0.12099699676036835,0.5,0.79746836423873901,0,0.42539370059967041,0.47865453362464905,0.5,0.5,0.48571401834487915,0.40073278546333313,0.25656309723854065,0.15721426904201508,0.15721426904201508,0.15721426904201508,0]},"$$$/app/Presets/EssentialSound/EQPreset/PodcastVoice=Podcast Voice":{"type":"array::float","value":[0.12099699676036835,0.5,0.39240506291389465,0,0.5,0.5,0.5,0.51789408922195435,0.50770342350006104,0.5,0.51789408922195435,0.528114914894104,0.5102812647819519,0.5,0]},"$$$/app/Presets/EssentialSound/EQPreset/SubtleBoostFemale=Subtle Boost (Female)":{"type":"array::float","value":[0.096553400158882141,0.5,0.29113924503326416,0,0.5,0.5,0.5,0.5,0.5,0.51933407783508301,0.54642897844314575,0.52706766128540039,0.5,0.5,0]},"$$$/app/Presets/EssentialSound/EQPreset/SubtleBoostMale=Subtle Boost (Male)":{"type":"array::float","value":[0.096553400158882141,0.5,0.29113924503326416,0,0.5,0.5,0.5,0.5,0.5,0.5135338306427002,0.54642897844314575,0.51933407783508301,0.5,0.5,0]},"$$$/app/Presets/EssentialSound/EQPreset/ThatPublicRadioSound=That Public Radio Sound":{"type":"array::float","value":[0.12099699676036835,0.5,0.79746836423873901,0,0.15721426904201508,0.15721426904201508,0.15721426904201508,0.36334344744682312,0.49468311667442322,0.5,0.5,0.5,0.5,0.5,0]},"$$$/app/Presets/EssentialSound/EQPreset/VocalPresence=Vocal Presence":{"type":"array::float","value":[0.096553400158882141,0.5,0.32489451766014099,0,0.3572143018245697,0.3572143018245697,0.46428570151329041,0.47857141494750977,0.4763694703578949,0.49570354819297791,0.55924957990646362,0.56523394584655762,0.50859290361404419,0.46992480754852295,0]}}}},"model_loudness":{"DefaultLoudness":{"type":"float","value":-23},"LoudnessStandard":{"type":"std::uint32_t","value":0},"MaxLoudness":{"type":"float","value":-12},"MinLoudness":{"type":"float","value":-42}},"model_restoration":{"ReduceNoiseMaxSetting":{"type":"array::float","value":[1,0,0,0,0]},"ReduceNoiseMinSetting":{"type":"array::float","value":[0,0,0,0,0]},"ReduceReverbMaxSetting":{"type":"array::float","value":[1,0,1,0,0]},"ReduceReverbMinSetting":{"type":"array::float","value":[0,0,1,0,0]},"ReduceRumbleMaxSetting":{"type":"array::float","value":[1,0.061583578586578369,0.375,0,0,0.00083333335351198912,1,0,1,0.0390625,0.00083408987848088145,0,0.0041666668839752674,0.00022554649331141263,0.0046875001862645149,0.75,0.0052083334885537624,0.75,1,0.75,0.0040520834736526012,0.75,0.0042629167437553406,0.00022554649331141263,0.0064883334562182426,0.00022554649331141263,0.006866666954010725,0.75,0.0071704164147377014,0.00022554649331141263,0.01041458360850811,0.00022554649331141263,0.010900000110268593,0.75,0.011407917365431786,0.00022554649331141263,0.015606249682605267,0.00022554649331141263,0.016333334147930145,0.75,0.017094582319259644,0.00022554649331141263,0.026243748143315315,0.00022554649331141263,0.0274666678160429,0.75,0.028746666386723518,0.00022554649331141263,0.041658751666545868,0.00022554649331141263,0.043600000441074371,0.75,0.045631669461727142,0.00022554649331141263,0.062424581497907639,0.00022554649331141263,0.065333336591720581,0.75,0.068377502262592316,0.00022554649331141263,0.10497540980577469,0.00022554649331141263,0.1098666712641716,0.75,0.11498583108186722,0.00022554649331141263,0.16663584113121033,0.00022554649331141263,0.17440000176429749,0.75,0.18252624571323395,0.00022554649331141263,0.91874998807907104,0.00022554649331141263,1,0.00022554649331141263,0,0,0,0,0,0,0,0,0,0,0,0,0,0,0,0,0,0,0,0,0,0,0,0,0,0,0,0,0,0,0,0,0,0,0,0,0,0,0,0,0,0,0,0,0,0,0,0,0,0,0,0,0,0,0,0,0,0,0,0,0,0,0,0,0,0,0,0,0,0,0,0,0,0,0,0,0,0,0,0,0,0,0,0,0,0,0,0,0,0,0,0,0,0,0,0,0,0,0,0,0,0,0,0,0,0,0,0,0,0,0,0,0,0,0,0,0,0,0,0,0,0,0,0,0,0,0,0,0,0,0,0,0,0,0,0,0,0,0,0,0,0,0,0,0,0,0,0,0,0,0,0,0,0,0,0,0,0,0,0,0,0,0,0,0,0,0,0,0,0,0,0,0,0,0,0,0,0,0,0,0,0,0,0,0,0,0,0,0,0]},"ReduceRumbleMinSetting":{"type":"array::float","value":[1,0.061583578586578369,0.375,0,0,0.00083333335351198912,1,0,1,0.0390625,0.00083408987848088145,0.75,0.0041666668839752674,0.75,0.0046875001862645149,0.75,0.0052083334885537624,0.75,1,0.75,0.91874998807907104,0.61237245798110962,1,0.61237245798110962,0,0,0,0,0,0,0,0,0,0,0,0,0,0,0,0,0,0,0,0,0,0,0,0,0,0,0,0,0,0,0,0,0,0,0,0,0,0,0,0,0,0,0,0,0,0,0,0,0,0,0,0,0,0,0,0,0,0,0,0,0,0,0,0,0,0,0,0,0,0,0,0,0,0,0,0,0,0,0,0,0,0,0,0,0,0,0,0,0,0,0,0,0,0,0,0,0,0,0,0,0,0,0,0,0,0,0,0,0,0,0,0,0,0,0,0,0,0,0,0,0,0,0,0,0,0,0,0,0,0,0,0,0,0,0,0,0,0,0,0,0,0,0,0,0,0,0,0,0,0,0,0,0,0,0,0,0,0,0,0,0,0,0,0,0,0,0,0,0,0,0,0,0,0,0,0,0,0,0,0,0,0,0,0,0,0,0,0,0,0,0,0,0,0,0,0,0,0,0,0,0,0,0,0,0,0,0,0,0,0,0,0,0,0,0,0,0,0,0,0,0,0,0,0,0,0,0,0,0,0,0,0,0,0,0,0,0,0,0,0,0,0]},"ReduceSibilanceMaxSetting":{"type":"array::float","value":[0.5,0.19983997941017151,0.18367347121238708,0.26086956262588501,0.52702701091766357,0,1,0,0,0,0,0.75,1,1,0.40000000596046448]},"ReduceSibilanceMinSetting":{"type":"array::float","value":[0.875,0.19983997941017151,0.18367347121238708,0.19130434095859528,0.25675675272941589,0,1,0,0,0,0,0.75,1,1,0.40000000596046448]}},"model_soundeffects":{"ReverbPresets":{"type":"tree::any","value":{"$$$/app/Presets/EssentialSound/ReverbPreset/Auditorium=Auditorium":{"type":"array::float","value":[0.013047545216977596,0.15895412862300873,1,0.89999997615814209,0,0.52007436752319336,0.41663265228271484,0.46000000834465027,0.5,0.73000001907348633,0.15999999642372131,0.75376886129379272,0.03125]},"$$$/app/Presets/EssentialSound/ReverbPreset/Church=Church":{"type":"array::float","value":[0.032663315534591675,0.39939939975738525,0.79797977209091187,0.25,0.5,0.5,0.2297959178686142,0.72000002861022949,0.5,0.62999999523162842,0.87999999523162842,0.25125628709793091,0.03125]},"$$$/app/Presets/EssentialSound/ReverbPreset/LargeReflectiveRoom=Large Reflective Room":{"type":"array::float","value":[0.0074449013918638229,0.098988421261310577,0.79890537261962891,0.89999997615814209,0.10000000149011612,0.40110713243484497,0.060284845530986786,0.27522978186607361,0.5,0.73000001907348633,0.31999999284744263,0.25125628709793091,0.03125]},"$$$/app/Presets/EssentialSound/ReverbPreset/OutsideTheClub=Outside the Club":{"type":"array::float","value":[0.020615793764591217,0.050136558711528778,0.69696998596191406,0.25,0.094355784356594086,0.22242647409439087,0.1071428582072258,0.2800000011920929,0.5,0.73000001907348633,0.46000000834465027,0.25125628709793091,0.03125]},"$$$/app/Presets/EssentialSound/ReverbPreset/SmallDryRoom=Small Dry Room":{"type":"array::float","value":[0.24623115360736847,0.69975000619888306,0.29292899370193481,0.40000000596046448,0.20000000298023224,0.40000000596046448,0.039285715669393539,0.10000000149011612,0.5,1,0.5,0.75376886129379272,0.03125]},"$$$/app/Presets/EssentialSound/ReverbPreset/ThickenVoice=Thicken Voice":{"type":"array::float","value":[0.19597999751567841,0.23931467533111572,0.69696998596191406,0.25,0.5,0.53999996185302734,0.020408162847161293,0.20945435762405396,0.5,1,0.34999999403953552,0.25125628709793091,0.03125]},"$$$/app/Presets/EssentialSound/ReverbPreset/WarmRoom=Warm Room":{"type":"array::float","value":[0.020100502297282219,0.074074074625968933,0.49494948983192444,0.40000000596046448,0.74960309267044067,0.40000000596046448,0.1239795908331871,0.67000001668930054,0.5,0.85000002384185791,0.56000000238418579,0.25125628709793091,0.03125]},"$$$/app/Presets/EssentialSound/ReverbPreset/WarmVoice=Warm Voice":{"type":"array::float","value":[0.19597989320755005,0.89989989995956421,0,0.40000000596046448,0.20000000298023224,0.40000000596046448,0.10204081982374191,0.090000003576278687,0.5,1,0.30000001192092896,0.25125628709793091,0.03125]}}}},"model_volume":{"MaxGain":{"type":"float","value":15},"MinGain":{"type":"float","value":-60}}},"Version":2},"Type":"1c19ca71-c24c-49cd-8dd5-2cc46018507a","Version":1},{"Guid":"353811fa-4179-435e-8e5e-23028ba15a7a","Name":"$$$/app/Presets/DefaultPresetName=(Default)","PresetData":{"ModeID":"generic","Models":{"model_loudness":{"DefaultLoudness":{"type":"float","value":-24},"LoudnessStandard":{"type":"std::uint32_t","value":0},"MaxLoudness":{"type":"float","value":-12},"MinLoudness":{"type":"float","value":-42}},"model_volume":{"MaxGain":{"type":"float","value":15},"MinGain":{"type":"float","value":-60}}},"Version":1},"Type":"1c19ca71-c24c-49cd-8dd5-2cc46018507a","Version":1},{"Guid":"31ba96a6-5d3e-4d89-b1e1-1dbe3c055d0c","Name":"$$$/app/Presets/DefaultPresetName=(Default)","PresetData":{"ModeID":"music","Models":{"model_ducking":{},"model_duration":{},"model_loudness":{"DefaultLoudness":{"type":"float","value":-25},"LoudnessStandard":{"type":"std::uint32_t","value":0},"MaxLoudness":{"type":"float","value":-12},"MinLoudness":{"type":"float","value":-42}},"model_volume":{"MaxGain":{"type":"float","value":15},"MinGain":{"type":"float","value":-60}}},"Version":1},"Type":"1c19ca71-c24c-49cd-8dd5-2cc46018507a","Version":1},{"Guid":"cea63332-1adc-44a9-a6eb-5490f965859b","Name":"$$$/app/Presets/DefaultPresetName=(Default)","PresetData":{"ModeID":"sfx","Models":{"model_loudness":{"DefaultLoudness":{"type":"float","value":-21},"LoudnessStandard":{"type":"std::uint32_t","value":0},"MaxLoudness":{"type":"float","value":-12},"MinLoudness":{"type":"float","value":-42}},"model_pan":{},"model_soundeffects":{"ReverbPresets":{"type":"tree::any","value":{"$$$/app/Presets/EssentialSound/ReverbPreset/HeavyReverb=Heavy Reverb":{"type":"array::float","value":[0.13316600024700165,0.29929900169372559,1,0.95999997854232788,0.85000002384185791,0.5,0.51530599594116211,0.30000001192092896,0.5,0.5,0.5,0.25125628709793091,0.0625]},"$$$/app/Presets/EssentialSound/ReverbPreset/LightReverb=Light Reverb":{"type":"array::float","value":[0.095477402210235596,0.29929900169372559,0.090909101068973541,1,1,0.80000001192092896,0.22449000179767609,0.60000002384185791,0.5,0.69999998807907104,0.30000001192092896,0.25125628709793091,0.0625]},"$$$/app/Presets/EssentialSound/ReverbPreset/OutsideReverb=Outside Reverb":{"type":"array::float","value":[0.091708503663539886,0.043893899768590927,1,0.5,0.20000000298023224,0.80000001192092896,0.18367299437522888,1,0.5,0,0.80000001192092896,0.25125628709793091,0.0625]},"$$$/app/Presets/EssentialSound/ReverbPreset/RoomReverb=Room Reverb":{"type":"array::float","value":[0.057788901031017303,0.44944900274276733,0.49494898319244385,0.89999997615814209,0.10000000149011612,0.15000000596046448,0.081632703542709351,0.40000000596046448,0.5,0.80000001192092896,0.20000000298023224,0.25125628709793091,0.0625]}}}},"model_volume":{"MaxGain":{"type":"float","value":15},"MinGain":{"type":"float","value":-60}}},"Version":1},"Type":"1c19ca71-c24c-49cd-8dd5-2cc46018507a","Version":1}]</property>
    </properties>
  </session>

  <files>
    <file absolutePath="D:\DieCast\Shows\HTZ\WIP\HTZ 2024-09-19\Greg.flac" id="0" importerPrivateSettings="ByteOrdering:0:0;Channels:0:1;EncodingType:0:2;FormatType:0:1507328;SampleRate:0:44100;StartOffset:0:0;VBRQuality:0:100;" mediaHandler="AmioLSF" relativePath="Greg.flac"/>
    <file absolutePath="D:\DieCast\Shows\HTZ\WIP\HTZ 2024-09-19\Emily.flac" id="1" importerPrivateSettings="ByteOrdering:0:0;Channels:0:1;EncodingType:0:2;FormatType:0:1507328;SampleRate:0:44100;StartOffset:0:0;VBRQuality:0:100;" mediaHandler="AmioLSF" relativePath="Emily.flac"/>
    <file absolutePath="D:\DieCast\Shows\HTZ\WIP\HTZ 2024-09-19\Rachel.flac" id="2" importerPrivateSettings="ByteOrdering:0:0;Channels:0:1;EncodingType:0:2;FormatType:0:1507328;SampleRate:0:44100;StartOffset:0:0;VBRQuality:0:100;" mediaHandler="AmioLSF" relativePath="Rachel.flac"/>
    <file absolutePath="D:\DieCast\Shows\HTZ\WIP\HTZ 2024-09-19\Skype.flac" id="3" importerPrivateSettings="ByteOrdering:0:0;Channels:0:1;EncodingType:0:2;FormatType:0:1507328;SampleRate:0:44100;StartOffset:0:0;VBRQuality:0:100;" mediaHandler="AmioLSF" relativePath="Skype.flac"/>
    <file absolutePath="D:\DieCast\Shows\HTZ\Misc\intro (30s).flac" id="4" importerPrivateSettings="ByteOrdering:0:0;Channels:0:2;EncodingType:0:3;FormatType:0:1507328;SampleRate:0:44100;StartOffset:0:0;VBRQuality:0:100;" mediaHandler="AmioLSF" relativePath="../../Misc/intro (30s).flac"/>
    <file absolutePath="D:\DieCast\Shows\HTZ\Misc\outro.flac" id="5" importerPrivateSettings="ByteOrdering:0:0;Channels:0:2;EncodingType:0:3;FormatType:0:1507328;SampleRate:0:44100;StartOffset:0:0;VBRQuality:0:100;" mediaHandler="AmioLSF" relativePath="../../Misc/outro.flac"/>
  </files>

  <audioDevice inputID="79958E79-6304-4B02-8FB8-80556FBFE60B" outputID="434EA27F-7612-4275-B165-1860FACCFE0D">
    <inputPort id="1" name="Default Stereo Input"/>
    <inputPort id="2" name="[01M] Headset Microphone (Arctis 7 Chat) 1"/>
    <inputPort id="3" name="[02M] Headset Microphone (Arctis 7 Chat) 2"/>
    <inputPort id="4" name="[01S] Headset Microphone (Arctis 7 Chat) 1"/>
    <outputPort id="1" name="Default Output"/>
    <outputPort id="2" name="[01M] Headphones (Arctis 7 Game) 1"/>
    <outputPort id="3" name="[02M] Headphones (Arctis 7 Game) 2"/>
    <outputPort id="4" name="Default Stereo Output"/>
    <outputPort id="5" name="[01S] Headphones (Arctis 7 Game) 1"/>
    <outputPort id="6" name="Default Surround Output"/>
  </audioDevice>

</sesx>
